G04 #@! TF.GenerationSoftware,KiCad,Pcbnew,(6.0.10)*
G04 #@! TF.CreationDate,2023-08-15T16:43:45+01:00*
G04 #@! TF.ProjectId,BlinkStickAdvanced,426c696e-6b53-4746-9963-6b416476616e,1.4*
G04 #@! TF.SameCoordinates,Original*
G04 #@! TF.FileFunction,Soldermask,Top*
G04 #@! TF.FilePolarity,Negative*
%FSLAX46Y46*%
G04 Gerber Fmt 4.6, Leading zero omitted, Abs format (unit mm)*
G04 Created by KiCad (PCBNEW (6.0.10)) date 2023-08-15 16:43:45*
%MOMM*%
%LPD*%
G01*
G04 APERTURE LIST*
G04 Aperture macros list*
%AMRoundRect*
0 Rectangle with rounded corners*
0 $1 Rounding radius*
0 $2 $3 $4 $5 $6 $7 $8 $9 X,Y pos of 4 corners*
0 Add a 4 corners polygon primitive as box body*
4,1,4,$2,$3,$4,$5,$6,$7,$8,$9,$2,$3,0*
0 Add four circle primitives for the rounded corners*
1,1,$1+$1,$2,$3*
1,1,$1+$1,$4,$5*
1,1,$1+$1,$6,$7*
1,1,$1+$1,$8,$9*
0 Add four rect primitives between the rounded corners*
20,1,$1+$1,$2,$3,$4,$5,0*
20,1,$1+$1,$4,$5,$6,$7,0*
20,1,$1+$1,$6,$7,$8,$9,0*
20,1,$1+$1,$8,$9,$2,$3,0*%
G04 Aperture macros list end*
%ADD10RoundRect,0.250000X0.725000X-0.600000X0.725000X0.600000X-0.725000X0.600000X-0.725000X-0.600000X0*%
%ADD11O,1.950000X1.700000*%
%ADD12R,0.450000X0.600000*%
%ADD13R,1.700000X1.700000*%
%ADD14O,1.700000X1.700000*%
%ADD15O,1.200000X1.900000*%
%ADD16C,1.450000*%
%ADD17R,1.500000X1.900000*%
%ADD18R,1.200000X1.900000*%
%ADD19R,0.400000X1.350000*%
%ADD20RoundRect,0.237500X-0.250000X-0.237500X0.250000X-0.237500X0.250000X0.237500X-0.250000X0.237500X0*%
%ADD21C,4.700000*%
%ADD22R,1.400000X1.200000*%
%ADD23RoundRect,0.237500X-0.237500X0.300000X-0.237500X-0.300000X0.237500X-0.300000X0.237500X0.300000X0*%
%ADD24R,1.100000X4.600000*%
%ADD25R,10.800000X9.400000*%
%ADD26RoundRect,0.237500X0.237500X-0.250000X0.237500X0.250000X-0.237500X0.250000X-0.237500X-0.250000X0*%
%ADD27RoundRect,0.237500X-0.237500X0.250000X-0.237500X-0.250000X0.237500X-0.250000X0.237500X0.250000X0*%
%ADD28R,0.400000X1.900000*%
%ADD29RoundRect,0.237500X0.250000X0.237500X-0.250000X0.237500X-0.250000X-0.237500X0.250000X-0.237500X0*%
%ADD30R,1.600000X0.550000*%
%ADD31R,0.550000X1.600000*%
%ADD32RoundRect,0.237500X0.237500X-0.300000X0.237500X0.300000X-0.237500X0.300000X-0.237500X-0.300000X0*%
%ADD33RoundRect,0.237500X0.300000X0.237500X-0.300000X0.237500X-0.300000X-0.237500X0.300000X-0.237500X0*%
%ADD34R,2.500000X1.800000*%
%ADD35RoundRect,0.155000X0.155000X-0.212500X0.155000X0.212500X-0.155000X0.212500X-0.155000X-0.212500X0*%
%ADD36R,0.600000X0.450000*%
%ADD37RoundRect,0.155000X-0.155000X0.212500X-0.155000X-0.212500X0.155000X-0.212500X0.155000X0.212500X0*%
G04 APERTURE END LIST*
D10*
X69554200Y-88078000D03*
D11*
X69554200Y-85578000D03*
X69554200Y-83078000D03*
X69554200Y-80578000D03*
D12*
X61536750Y-85735500D03*
X61536750Y-83635500D03*
D13*
X43084600Y-75721200D03*
D14*
X43084600Y-73181200D03*
X43084600Y-70641200D03*
X43084600Y-68101200D03*
D13*
X64516000Y-74371200D03*
D14*
X64516000Y-76911200D03*
D15*
X60656000Y-91974300D03*
D16*
X59656000Y-89274300D03*
D17*
X58156000Y-91974300D03*
D15*
X53656000Y-91974300D03*
D17*
X56156000Y-91974300D03*
D18*
X60056000Y-91974300D03*
D16*
X54656000Y-89274300D03*
D18*
X54256000Y-91974300D03*
D19*
X58456000Y-89274300D03*
X57806000Y-89274300D03*
X57156000Y-89274300D03*
X56506000Y-89274300D03*
X55856000Y-89274300D03*
D13*
X71221600Y-68121200D03*
D14*
X71221600Y-70661200D03*
X71221600Y-73201200D03*
X71221600Y-75741200D03*
D13*
X43084600Y-62640200D03*
D14*
X43084600Y-60100200D03*
X43084600Y-57560200D03*
X43084600Y-55020200D03*
D20*
X60047500Y-65786000D03*
X61872500Y-65786000D03*
D21*
X65198000Y-89935000D03*
X49114000Y-89935000D03*
D20*
X46839500Y-60706000D03*
X48664500Y-60706000D03*
D13*
X71221600Y-55067200D03*
D14*
X71221600Y-57607200D03*
X71221600Y-60147200D03*
X71221600Y-62687200D03*
D22*
X51478000Y-64174000D03*
X53678000Y-64174000D03*
X53678000Y-65874000D03*
X51478000Y-65874000D03*
D23*
X61722000Y-79856500D03*
X61722000Y-78131500D03*
D13*
X64516000Y-68117800D03*
D14*
X64516000Y-70657800D03*
D24*
X66852800Y-37687600D03*
D25*
X69392800Y-46837600D03*
D24*
X71932800Y-37687600D03*
D13*
X50806000Y-84672000D03*
D14*
X48266000Y-84672000D03*
D20*
X60025000Y-64135000D03*
X61850000Y-64135000D03*
D26*
X57472750Y-85598000D03*
X57472750Y-83773000D03*
D27*
X59504750Y-83773000D03*
X59504750Y-85598000D03*
D28*
X51378000Y-62007000D03*
X52578000Y-62007000D03*
X53778000Y-62007000D03*
D29*
X65301500Y-82296000D03*
X63476500Y-82296000D03*
D24*
X54660800Y-37687600D03*
D25*
X57200800Y-46837600D03*
D24*
X59740800Y-37687600D03*
D20*
X52935500Y-58039000D03*
X54760500Y-58039000D03*
D23*
X56997600Y-63907500D03*
X56997600Y-65632500D03*
D30*
X59628000Y-69680000D03*
X59628000Y-70480000D03*
X59628000Y-71280000D03*
X59628000Y-72080000D03*
X59628000Y-72880000D03*
X59628000Y-73680000D03*
X59628000Y-74480000D03*
X59628000Y-75280000D03*
D31*
X58178000Y-76730000D03*
X57378000Y-76730000D03*
X56578000Y-76730000D03*
X55778000Y-76730000D03*
X54978000Y-76730000D03*
X54178000Y-76730000D03*
X53378000Y-76730000D03*
X52578000Y-76730000D03*
D30*
X51128000Y-75280000D03*
X51128000Y-74480000D03*
X51128000Y-73680000D03*
X51128000Y-72880000D03*
X51128000Y-72080000D03*
X51128000Y-71280000D03*
X51128000Y-70480000D03*
X51128000Y-69680000D03*
D31*
X52578000Y-68230000D03*
X53378000Y-68230000D03*
X54178000Y-68230000D03*
X54978000Y-68230000D03*
X55778000Y-68230000D03*
X56578000Y-68230000D03*
X57378000Y-68230000D03*
X58178000Y-68230000D03*
D20*
X52935500Y-59690000D03*
X54760500Y-59690000D03*
D21*
X49114000Y-56935100D03*
D12*
X53848000Y-85785500D03*
X53848000Y-83685500D03*
D32*
X55694750Y-85548000D03*
X55694750Y-83823000D03*
D13*
X43084600Y-88802200D03*
D14*
X43084600Y-86262200D03*
X43084600Y-83722200D03*
X43084600Y-81182200D03*
D20*
X46839500Y-62484000D03*
X48664500Y-62484000D03*
D33*
X54964500Y-78740000D03*
X53239500Y-78740000D03*
D21*
X65198000Y-56935100D03*
D24*
X42468800Y-37687600D03*
D25*
X45008800Y-46837600D03*
D24*
X47548800Y-37687600D03*
D34*
X58261000Y-81280000D03*
X54261000Y-81280000D03*
D35*
X49530000Y-65980500D03*
X49530000Y-67115500D03*
D36*
X63339000Y-84328000D03*
X65439000Y-84328000D03*
D37*
X55626000Y-64174000D03*
X55626000Y-63039000D03*
M02*
