G04 #@! TF.GenerationSoftware,KiCad,Pcbnew,(6.0.10)*
G04 #@! TF.CreationDate,2023-08-15T16:43:45+01:00*
G04 #@! TF.ProjectId,BlinkStickAdvanced,426c696e-6b53-4746-9963-6b416476616e,1.4*
G04 #@! TF.SameCoordinates,Original*
G04 #@! TF.FileFunction,Copper,L2,Bot*
G04 #@! TF.FilePolarity,Positive*
%FSLAX46Y46*%
G04 Gerber Fmt 4.6, Leading zero omitted, Abs format (unit mm)*
G04 Created by KiCad (PCBNEW (6.0.10)) date 2023-08-15 16:43:45*
%MOMM*%
%LPD*%
G01*
G04 APERTURE LIST*
G04 Aperture macros list*
%AMRoundRect*
0 Rectangle with rounded corners*
0 $1 Rounding radius*
0 $2 $3 $4 $5 $6 $7 $8 $9 X,Y pos of 4 corners*
0 Add a 4 corners polygon primitive as box body*
4,1,4,$2,$3,$4,$5,$6,$7,$8,$9,$2,$3,0*
0 Add four circle primitives for the rounded corners*
1,1,$1+$1,$2,$3*
1,1,$1+$1,$4,$5*
1,1,$1+$1,$6,$7*
1,1,$1+$1,$8,$9*
0 Add four rect primitives between the rounded corners*
20,1,$1+$1,$2,$3,$4,$5,0*
20,1,$1+$1,$4,$5,$6,$7,0*
20,1,$1+$1,$6,$7,$8,$9,0*
20,1,$1+$1,$8,$9,$2,$3,0*%
G04 Aperture macros list end*
G04 #@! TA.AperFunction,ComponentPad*
%ADD10RoundRect,0.250000X0.725000X-0.600000X0.725000X0.600000X-0.725000X0.600000X-0.725000X-0.600000X0*%
G04 #@! TD*
G04 #@! TA.AperFunction,ComponentPad*
%ADD11O,1.950000X1.700000*%
G04 #@! TD*
G04 #@! TA.AperFunction,ComponentPad*
%ADD12R,1.700000X1.700000*%
G04 #@! TD*
G04 #@! TA.AperFunction,ComponentPad*
%ADD13O,1.700000X1.700000*%
G04 #@! TD*
G04 #@! TA.AperFunction,ComponentPad*
%ADD14O,1.200000X1.900000*%
G04 #@! TD*
G04 #@! TA.AperFunction,ComponentPad*
%ADD15C,1.450000*%
G04 #@! TD*
G04 #@! TA.AperFunction,ComponentPad*
%ADD16C,4.700000*%
G04 #@! TD*
G04 #@! TA.AperFunction,SMDPad,CuDef*
%ADD17C,1.500000*%
G04 #@! TD*
G04 #@! TA.AperFunction,ViaPad*
%ADD18C,0.800000*%
G04 #@! TD*
G04 #@! TA.AperFunction,ViaPad*
%ADD19C,0.600000*%
G04 #@! TD*
G04 #@! TA.AperFunction,Conductor*
%ADD20C,0.500000*%
G04 #@! TD*
G04 #@! TA.AperFunction,Conductor*
%ADD21C,0.250000*%
G04 #@! TD*
G04 #@! TA.AperFunction,Conductor*
%ADD22C,1.500000*%
G04 #@! TD*
G04 APERTURE END LIST*
D10*
X69554200Y-88078000D03*
D11*
X69554200Y-85578000D03*
X69554200Y-83078000D03*
X69554200Y-80578000D03*
D12*
X43084600Y-75721200D03*
D13*
X43084600Y-73181200D03*
X43084600Y-70641200D03*
X43084600Y-68101200D03*
D12*
X64516000Y-74371200D03*
D13*
X64516000Y-76911200D03*
D14*
X60656000Y-91974300D03*
D15*
X59656000Y-89274300D03*
D14*
X53656000Y-91974300D03*
D15*
X54656000Y-89274300D03*
D12*
X71221600Y-68121200D03*
D13*
X71221600Y-70661200D03*
X71221600Y-73201200D03*
X71221600Y-75741200D03*
D12*
X43084600Y-62640200D03*
D13*
X43084600Y-60100200D03*
X43084600Y-57560200D03*
X43084600Y-55020200D03*
D16*
X65198000Y-89935000D03*
X49114000Y-89935000D03*
D12*
X71221600Y-55067200D03*
D13*
X71221600Y-57607200D03*
X71221600Y-60147200D03*
X71221600Y-62687200D03*
D12*
X64516000Y-68117800D03*
D13*
X64516000Y-70657800D03*
D12*
X50806000Y-84672000D03*
D13*
X48266000Y-84672000D03*
D16*
X49114000Y-56935100D03*
D12*
X43084600Y-88802200D03*
D13*
X43084600Y-86262200D03*
X43084600Y-83722200D03*
X43084600Y-81182200D03*
D16*
X65198000Y-56935100D03*
D17*
X61341000Y-71882000D03*
X61341000Y-78994000D03*
X61341000Y-75438000D03*
D18*
X52070000Y-78740000D03*
X40160300Y-37167410D03*
X53371200Y-36151410D03*
X40160300Y-38183410D03*
X53371200Y-39199410D03*
X67411600Y-76962000D03*
X73761600Y-52628800D03*
X64547200Y-39199410D03*
D19*
X55626000Y-65278000D03*
D18*
X53371200Y-37167410D03*
X53086000Y-55626000D03*
X52355200Y-37167410D03*
X41176300Y-38183410D03*
X63296800Y-87274400D03*
X48133000Y-80518000D03*
X64547200Y-38183410D03*
X44348400Y-78486000D03*
X65563200Y-36151410D03*
X40160300Y-39199410D03*
X45974000Y-58674000D03*
X63449200Y-52984400D03*
X58928000Y-63246000D03*
X50855317Y-87554374D03*
X68427600Y-92303600D03*
D19*
X52578000Y-62007000D03*
D18*
X65563200Y-38183410D03*
X41176300Y-39199410D03*
X64547200Y-36151410D03*
X65563200Y-37167410D03*
X40386000Y-91694000D03*
X53371200Y-38183410D03*
X56032400Y-73152000D03*
D19*
X52578000Y-61214000D03*
D18*
X59740800Y-53492400D03*
X40160300Y-36151410D03*
D19*
X52578000Y-62738000D03*
D18*
X73812400Y-39065200D03*
X57404000Y-60452000D03*
X49784000Y-64262000D03*
X45669200Y-53746400D03*
X45974000Y-65532000D03*
X41176300Y-37167410D03*
X66802000Y-65786000D03*
X59436000Y-67564000D03*
X48768000Y-75692000D03*
X67005200Y-73355200D03*
X52355200Y-38183410D03*
X49276000Y-72136000D03*
X62687200Y-92506800D03*
X49022000Y-68580000D03*
X65563200Y-39199410D03*
X55880000Y-87122000D03*
X64547200Y-37167410D03*
X52355200Y-36151410D03*
X65532000Y-86487000D03*
X67056000Y-53187600D03*
X52355200Y-39199410D03*
X61722000Y-82296000D03*
X73507600Y-91643200D03*
X41176300Y-36151410D03*
X44831000Y-92075000D03*
X59436000Y-78994000D03*
X71475600Y-65481200D03*
D19*
X50038000Y-62484000D03*
X51478000Y-65874000D03*
X52965000Y-72353000D03*
X45720000Y-62484000D03*
X51816000Y-59690000D03*
X52965000Y-73369000D03*
X59182000Y-65795789D03*
X52965000Y-74385000D03*
X50292000Y-60198000D03*
D18*
X47544900Y-40897900D03*
X59740800Y-40812200D03*
D19*
X53975000Y-57023000D03*
X62992000Y-64008000D03*
D18*
X70232845Y-40641845D03*
D19*
X58470800Y-71272400D03*
X60960000Y-70485000D03*
X66357500Y-82296000D03*
X59950000Y-68543000D03*
X57404000Y-69977000D03*
X60325000Y-82677000D03*
D20*
X50806000Y-79877000D02*
X50806000Y-84672000D01*
X51943000Y-78740000D02*
X50806000Y-79877000D01*
D21*
X52070000Y-78740000D02*
X51943000Y-78740000D01*
X51478000Y-65874000D02*
X51478000Y-63924000D01*
X51478000Y-63924000D02*
X50038000Y-62484000D01*
X45720000Y-62738000D02*
X52965000Y-69983000D01*
X45720000Y-62484000D02*
X45720000Y-62738000D01*
X52965000Y-69983000D02*
X52965000Y-72353000D01*
X51816000Y-59690000D02*
X52578000Y-59690000D01*
X52578000Y-59690000D02*
X53594000Y-60706000D01*
X53594000Y-60706000D02*
X53594000Y-72740000D01*
X53594000Y-72740000D02*
X52965000Y-73369000D01*
X57902211Y-65795789D02*
X54102000Y-69596000D01*
X59182000Y-65795789D02*
X57902211Y-65795789D01*
X54102000Y-73248000D02*
X52965000Y-74385000D01*
X54102000Y-69596000D02*
X54102000Y-73248000D01*
D22*
X71221600Y-57607200D02*
X73152000Y-57607200D01*
X74174000Y-68980400D02*
X72493200Y-70661200D01*
X74174000Y-58629200D02*
X74174000Y-68980400D01*
X73152000Y-57607200D02*
X74174000Y-58629200D01*
X72493200Y-70661200D02*
X71221600Y-70661200D01*
X70254800Y-73201200D02*
X71221600Y-73201200D01*
X68732400Y-71678800D02*
X70254800Y-73201200D01*
X71221600Y-60147200D02*
X70019519Y-60147200D01*
X68732400Y-61434319D02*
X68732400Y-71678800D01*
X70019519Y-60147200D02*
X68732400Y-61434319D01*
D21*
X52203000Y-58287000D02*
X52203000Y-45556000D01*
X52203000Y-45556000D02*
X47544900Y-40897900D01*
X50292000Y-60198000D02*
X52203000Y-58287000D01*
X56775000Y-43778000D02*
X59740800Y-40812200D01*
X53975000Y-57023000D02*
X56775000Y-54223000D01*
X56775000Y-54223000D02*
X56775000Y-43778000D01*
X61093000Y-44667000D02*
X61093000Y-62109000D01*
X69889945Y-40984745D02*
X64775255Y-40984745D01*
X64775255Y-40984745D02*
X61093000Y-44667000D01*
X61093000Y-62109000D02*
X62992000Y-64008000D01*
X70232845Y-40641845D02*
X69889945Y-40984745D01*
D22*
X41535000Y-75742800D02*
X40138000Y-74345800D01*
X40138000Y-63798800D02*
X41296600Y-62640200D01*
X41558200Y-88802200D02*
X40138000Y-87382000D01*
X40138000Y-77393800D02*
X41789000Y-75742800D01*
X41296600Y-62640200D02*
X43084600Y-62640200D01*
X42170000Y-75742800D02*
X43110000Y-75742800D01*
X40138000Y-87382000D02*
X40138000Y-63798800D01*
X43084600Y-88802200D02*
X41558200Y-88802200D01*
D21*
X58470800Y-71272400D02*
X58470800Y-73583800D01*
X58470800Y-73583800D02*
X60325000Y-75438000D01*
X60325000Y-75438000D02*
X61341000Y-75438000D01*
X61341000Y-70866000D02*
X61341000Y-72009000D01*
X60960000Y-70485000D02*
X61341000Y-70866000D01*
X62992000Y-80137000D02*
X62992000Y-71120000D01*
X66357500Y-82296000D02*
X65151000Y-82296000D01*
X65151000Y-82296000D02*
X62992000Y-80137000D01*
X62992000Y-71120000D02*
X60415000Y-68543000D01*
X60415000Y-68543000D02*
X59950000Y-68543000D01*
X60325000Y-82677000D02*
X57404000Y-79756000D01*
X57404000Y-79756000D02*
X57404000Y-69977000D01*
G04 #@! TA.AperFunction,Conductor*
G36*
X61728000Y-93185224D02*
G01*
X61418205Y-93185153D01*
X61304741Y-93185127D01*
X61236625Y-93165109D01*
X61190144Y-93111443D01*
X61180057Y-93041167D01*
X61209565Y-92976593D01*
X61223442Y-92962889D01*
X61272876Y-92921114D01*
X61282238Y-92911283D01*
X61386645Y-92774725D01*
X61393671Y-92763122D01*
X61466326Y-92607315D01*
X61470693Y-92594488D01*
X61508554Y-92425101D01*
X61509927Y-92415208D01*
X61510000Y-92412592D01*
X61510000Y-92246415D01*
X61505525Y-92231176D01*
X61504135Y-92229971D01*
X61496452Y-92228300D01*
X59820115Y-92228300D01*
X59804876Y-92232775D01*
X59803671Y-92234165D01*
X59802000Y-92241848D01*
X59802000Y-92367241D01*
X59802369Y-92374055D01*
X59816266Y-92501980D01*
X59819180Y-92515232D01*
X59874009Y-92678154D01*
X59879702Y-92690476D01*
X59968236Y-92837820D01*
X59976444Y-92848634D01*
X60093347Y-92972255D01*
X60125619Y-93035493D01*
X60118579Y-93106140D01*
X60074462Y-93161765D01*
X60001770Y-93184828D01*
X59893248Y-93184803D01*
X54306643Y-93183520D01*
X54238527Y-93163502D01*
X54192046Y-93109836D01*
X54181959Y-93039560D01*
X54211467Y-92974986D01*
X54225344Y-92961282D01*
X54272876Y-92921115D01*
X54282238Y-92911283D01*
X54386645Y-92774725D01*
X54393671Y-92763122D01*
X54466326Y-92607315D01*
X54470693Y-92594488D01*
X54508554Y-92425101D01*
X54509927Y-92415208D01*
X54510000Y-92412592D01*
X54510000Y-92246415D01*
X54505525Y-92231176D01*
X54504135Y-92229971D01*
X54496452Y-92228300D01*
X52820115Y-92228300D01*
X52804876Y-92232775D01*
X52803671Y-92234165D01*
X52802000Y-92241848D01*
X52802000Y-92367241D01*
X52802369Y-92374055D01*
X52816266Y-92501980D01*
X52819180Y-92515232D01*
X52874009Y-92678154D01*
X52879702Y-92690476D01*
X52968236Y-92837820D01*
X52976440Y-92848628D01*
X53091827Y-92970647D01*
X53124098Y-93033885D01*
X53117058Y-93104532D01*
X53072941Y-93160157D01*
X53000249Y-93183220D01*
X52584000Y-93183124D01*
X52584000Y-91702185D01*
X52802000Y-91702185D01*
X52806475Y-91717424D01*
X52807865Y-91718629D01*
X52815548Y-91720300D01*
X53383885Y-91720300D01*
X53399124Y-91715825D01*
X53400329Y-91714435D01*
X53402000Y-91706752D01*
X53402000Y-91702185D01*
X53910000Y-91702185D01*
X53914475Y-91717424D01*
X53915865Y-91718629D01*
X53923548Y-91720300D01*
X54491885Y-91720300D01*
X54507124Y-91715825D01*
X54508329Y-91714435D01*
X54510000Y-91706752D01*
X54510000Y-91702185D01*
X59802000Y-91702185D01*
X59806475Y-91717424D01*
X59807865Y-91718629D01*
X59815548Y-91720300D01*
X60383885Y-91720300D01*
X60399124Y-91715825D01*
X60400329Y-91714435D01*
X60402000Y-91706752D01*
X60402000Y-91702185D01*
X60910000Y-91702185D01*
X60914475Y-91717424D01*
X60915865Y-91718629D01*
X60923548Y-91720300D01*
X61491885Y-91720300D01*
X61507124Y-91715825D01*
X61508329Y-91714435D01*
X61510000Y-91706752D01*
X61510000Y-91581359D01*
X61509631Y-91574545D01*
X61495734Y-91446620D01*
X61492820Y-91433368D01*
X61437991Y-91270446D01*
X61432298Y-91258124D01*
X61343764Y-91110780D01*
X61335556Y-91099966D01*
X61217447Y-90975069D01*
X61207116Y-90966277D01*
X61064936Y-90869651D01*
X61052956Y-90863281D01*
X60926821Y-90812831D01*
X60912782Y-90811495D01*
X60910000Y-90816316D01*
X60910000Y-91702185D01*
X60402000Y-91702185D01*
X60402000Y-90826562D01*
X60398027Y-90813031D01*
X60389702Y-90811834D01*
X60346350Y-90823776D01*
X60333726Y-90828775D01*
X60181671Y-90908944D01*
X60170421Y-90916531D01*
X60039124Y-91027486D01*
X60029762Y-91037317D01*
X59925355Y-91173875D01*
X59918329Y-91185478D01*
X59845674Y-91341285D01*
X59841307Y-91354112D01*
X59803446Y-91523499D01*
X59802073Y-91533392D01*
X59802000Y-91536008D01*
X59802000Y-91702185D01*
X54510000Y-91702185D01*
X54510000Y-91581359D01*
X54509631Y-91574545D01*
X54495734Y-91446620D01*
X54492820Y-91433368D01*
X54437991Y-91270446D01*
X54432298Y-91258124D01*
X54343764Y-91110780D01*
X54335556Y-91099966D01*
X54217447Y-90975069D01*
X54207116Y-90966277D01*
X54064936Y-90869651D01*
X54052956Y-90863281D01*
X53926821Y-90812831D01*
X53912782Y-90811495D01*
X53910000Y-90816316D01*
X53910000Y-91702185D01*
X53402000Y-91702185D01*
X53402000Y-90826562D01*
X53398027Y-90813031D01*
X53389702Y-90811834D01*
X53346350Y-90823776D01*
X53333726Y-90828775D01*
X53181671Y-90908944D01*
X53170421Y-90916531D01*
X53039124Y-91027486D01*
X53029762Y-91037317D01*
X52925355Y-91173875D01*
X52918329Y-91185478D01*
X52845674Y-91341285D01*
X52841307Y-91354112D01*
X52803446Y-91523499D01*
X52802073Y-91533392D01*
X52802000Y-91536008D01*
X52802000Y-91702185D01*
X52584000Y-91702185D01*
X52584000Y-90122120D01*
X54173010Y-90122120D01*
X54177919Y-90128678D01*
X54256784Y-90172754D01*
X54268023Y-90177664D01*
X54438898Y-90233185D01*
X54450872Y-90235818D01*
X54629286Y-90257092D01*
X54641535Y-90257349D01*
X54820682Y-90243565D01*
X54832760Y-90241435D01*
X55005799Y-90193121D01*
X55017250Y-90188679D01*
X55129919Y-90131767D01*
X55140205Y-90122120D01*
X59173010Y-90122120D01*
X59177919Y-90128678D01*
X59256784Y-90172754D01*
X59268023Y-90177664D01*
X59438898Y-90233185D01*
X59450872Y-90235818D01*
X59629286Y-90257092D01*
X59641535Y-90257349D01*
X59820682Y-90243565D01*
X59832760Y-90241435D01*
X60005799Y-90193121D01*
X60017250Y-90188679D01*
X60129919Y-90131767D01*
X60140205Y-90122120D01*
X60137967Y-90115477D01*
X59668812Y-89646322D01*
X59654868Y-89638708D01*
X59653035Y-89638839D01*
X59646420Y-89643090D01*
X59179770Y-90109740D01*
X59173010Y-90122120D01*
X55140205Y-90122120D01*
X55137967Y-90115477D01*
X54668812Y-89646322D01*
X54654868Y-89638708D01*
X54653035Y-89638839D01*
X54646420Y-89643090D01*
X54179770Y-90109740D01*
X54173010Y-90122120D01*
X52584000Y-90122120D01*
X52584000Y-89266709D01*
X53672875Y-89266709D01*
X53687908Y-89445742D01*
X53690123Y-89457807D01*
X53739644Y-89630511D01*
X53744163Y-89641923D01*
X53798685Y-89748011D01*
X53808404Y-89758230D01*
X53815204Y-89755886D01*
X54283978Y-89287112D01*
X54290356Y-89275432D01*
X55020408Y-89275432D01*
X55020539Y-89277265D01*
X55024790Y-89283880D01*
X55491391Y-89750481D01*
X55503771Y-89757241D01*
X55510504Y-89752200D01*
X55551645Y-89679779D01*
X55556634Y-89668573D01*
X55613346Y-89498092D01*
X55616063Y-89486135D01*
X55638913Y-89305250D01*
X55639402Y-89298257D01*
X55639688Y-89277822D01*
X55639393Y-89270794D01*
X55638992Y-89266709D01*
X58672875Y-89266709D01*
X58687908Y-89445742D01*
X58690123Y-89457807D01*
X58739644Y-89630511D01*
X58744163Y-89641923D01*
X58798685Y-89748011D01*
X58808404Y-89758230D01*
X58815204Y-89755886D01*
X59283978Y-89287112D01*
X59290356Y-89275432D01*
X60020408Y-89275432D01*
X60020539Y-89277265D01*
X60024790Y-89283880D01*
X60491391Y-89750481D01*
X60503771Y-89757241D01*
X60510504Y-89752200D01*
X60551645Y-89679779D01*
X60556634Y-89668573D01*
X60613346Y-89498092D01*
X60616063Y-89486135D01*
X60638913Y-89305250D01*
X60639402Y-89298257D01*
X60639688Y-89277822D01*
X60639393Y-89270794D01*
X60621603Y-89089357D01*
X60619220Y-89077322D01*
X60567291Y-88905327D01*
X60562617Y-88893986D01*
X60513118Y-88800892D01*
X60503258Y-88790811D01*
X60496130Y-88793380D01*
X60028022Y-89261488D01*
X60020408Y-89275432D01*
X59290356Y-89275432D01*
X59291592Y-89273168D01*
X59291461Y-89271335D01*
X59287210Y-89264720D01*
X58820475Y-88797985D01*
X58808095Y-88791225D01*
X58801707Y-88796007D01*
X58754784Y-88881360D01*
X58749948Y-88892643D01*
X58695622Y-89063901D01*
X58693074Y-89075889D01*
X58673046Y-89254440D01*
X58672875Y-89266709D01*
X55638992Y-89266709D01*
X55621603Y-89089357D01*
X55619220Y-89077322D01*
X55567291Y-88905327D01*
X55562617Y-88893986D01*
X55513118Y-88800892D01*
X55503258Y-88790811D01*
X55496130Y-88793380D01*
X55028022Y-89261488D01*
X55020408Y-89275432D01*
X54290356Y-89275432D01*
X54291592Y-89273168D01*
X54291461Y-89271335D01*
X54287210Y-89264720D01*
X53820475Y-88797985D01*
X53808095Y-88791225D01*
X53801707Y-88796007D01*
X53754784Y-88881360D01*
X53749948Y-88892643D01*
X53695622Y-89063901D01*
X53693074Y-89075889D01*
X53673046Y-89254440D01*
X53672875Y-89266709D01*
X52584000Y-89266709D01*
X52584000Y-88426891D01*
X54172310Y-88426891D01*
X54174764Y-88433854D01*
X54643188Y-88902278D01*
X54657132Y-88909892D01*
X54658965Y-88909761D01*
X54665580Y-88905510D01*
X55132435Y-88438655D01*
X55138859Y-88426891D01*
X59172310Y-88426891D01*
X59174764Y-88433854D01*
X59643188Y-88902278D01*
X59657132Y-88909892D01*
X59658965Y-88909761D01*
X59665580Y-88905510D01*
X60132435Y-88438655D01*
X60139195Y-88426275D01*
X60134536Y-88420052D01*
X60042631Y-88370359D01*
X60031326Y-88365607D01*
X59859695Y-88312478D01*
X59847682Y-88310012D01*
X59668996Y-88291231D01*
X59656728Y-88291146D01*
X59477805Y-88307429D01*
X59465756Y-88309727D01*
X59293399Y-88360455D01*
X59282024Y-88365050D01*
X59182459Y-88417102D01*
X59172310Y-88426891D01*
X55138859Y-88426891D01*
X55139195Y-88426275D01*
X55134536Y-88420052D01*
X55042631Y-88370359D01*
X55031326Y-88365607D01*
X54859695Y-88312478D01*
X54847682Y-88310012D01*
X54668996Y-88291231D01*
X54656728Y-88291146D01*
X54477805Y-88307429D01*
X54465756Y-88309727D01*
X54293399Y-88360455D01*
X54282024Y-88365050D01*
X54182459Y-88417102D01*
X54172310Y-88426891D01*
X52584000Y-88426891D01*
X52584000Y-87974000D01*
X61728000Y-87974000D01*
X61728000Y-93185224D01*
G37*
G04 #@! TD.AperFunction*
G04 #@! TA.AperFunction,Conductor*
G36*
X73145103Y-34400972D02*
G01*
X73158000Y-34403537D01*
X73170172Y-34401116D01*
X73182580Y-34401116D01*
X73182580Y-34401436D01*
X73193456Y-34400696D01*
X73205690Y-34401436D01*
X73425882Y-34414755D01*
X73440986Y-34416589D01*
X73697463Y-34463589D01*
X73712237Y-34467230D01*
X73961186Y-34544805D01*
X73975407Y-34550199D01*
X74213186Y-34657214D01*
X74226658Y-34664284D01*
X74449803Y-34799177D01*
X74462325Y-34807820D01*
X74667586Y-34968630D01*
X74678974Y-34978720D01*
X74863353Y-35163095D01*
X74873439Y-35174478D01*
X74889474Y-35194944D01*
X75034253Y-35379736D01*
X75042897Y-35392258D01*
X75177797Y-35615405D01*
X75184868Y-35628877D01*
X75291886Y-35866653D01*
X75297281Y-35880880D01*
X75374857Y-36129816D01*
X75378499Y-36144589D01*
X75425506Y-36401072D01*
X75427340Y-36416176D01*
X75441392Y-36648408D01*
X75440640Y-36659474D01*
X75440935Y-36659474D01*
X75440935Y-36671885D01*
X75438514Y-36684056D01*
X75440935Y-36696226D01*
X75440935Y-36696227D01*
X75441079Y-36696951D01*
X75443500Y-36721534D01*
X75443500Y-90864873D01*
X75441079Y-90889452D01*
X75438514Y-90902349D01*
X75440935Y-90914521D01*
X75440935Y-90926929D01*
X75440615Y-90926929D01*
X75441355Y-90937805D01*
X75427296Y-91170229D01*
X75425462Y-91185333D01*
X75378462Y-91441807D01*
X75374821Y-91456580D01*
X75297271Y-91705449D01*
X75297247Y-91705525D01*
X75291851Y-91719752D01*
X75184840Y-91957520D01*
X75177769Y-91970993D01*
X75042872Y-92194140D01*
X75034229Y-92206662D01*
X74873418Y-92411922D01*
X74863328Y-92423310D01*
X74678957Y-92607681D01*
X74667568Y-92617771D01*
X74462313Y-92778577D01*
X74449792Y-92787220D01*
X74306039Y-92874123D01*
X74227108Y-92921839D01*
X74226646Y-92922118D01*
X74213175Y-92929188D01*
X73975399Y-93036203D01*
X73961181Y-93041595D01*
X73741236Y-93110132D01*
X73712231Y-93119170D01*
X73697458Y-93122811D01*
X73440984Y-93169812D01*
X73425880Y-93171646D01*
X73314969Y-93178355D01*
X73193460Y-93185705D01*
X73182581Y-93184964D01*
X73182581Y-93185284D01*
X73170171Y-93185284D01*
X73158000Y-93182863D01*
X73145141Y-93185420D01*
X73120540Y-93187840D01*
X61728000Y-93185224D01*
X61728000Y-89907676D01*
X62588883Y-89907676D01*
X62604497Y-90221325D01*
X62605138Y-90225056D01*
X62605139Y-90225064D01*
X62657036Y-90527081D01*
X62657680Y-90530827D01*
X62747659Y-90831697D01*
X62749172Y-90835168D01*
X62749174Y-90835174D01*
X62786830Y-90921570D01*
X62873132Y-91119579D01*
X62875055Y-91122850D01*
X62875057Y-91122854D01*
X62944999Y-91241828D01*
X63032282Y-91390302D01*
X63034583Y-91393317D01*
X63135206Y-91525164D01*
X63222803Y-91639944D01*
X63225451Y-91642663D01*
X63225456Y-91642668D01*
X63293388Y-91712402D01*
X63441935Y-91864890D01*
X63444879Y-91867261D01*
X63444882Y-91867264D01*
X63683552Y-92059502D01*
X63683557Y-92059506D01*
X63686505Y-92061880D01*
X63952969Y-92228062D01*
X64237467Y-92361029D01*
X64241074Y-92362211D01*
X64241078Y-92362213D01*
X64405038Y-92415961D01*
X64535880Y-92458853D01*
X64539590Y-92459591D01*
X64539594Y-92459592D01*
X64689881Y-92489486D01*
X64843883Y-92520119D01*
X65000449Y-92532028D01*
X65153239Y-92543651D01*
X65153244Y-92543651D01*
X65157016Y-92543938D01*
X65470742Y-92529966D01*
X65474480Y-92529344D01*
X65474488Y-92529343D01*
X65625242Y-92504250D01*
X65780518Y-92478405D01*
X66081855Y-92390003D01*
X66370390Y-92266038D01*
X66641942Y-92108308D01*
X66892579Y-91919097D01*
X67118669Y-91701145D01*
X67316937Y-91457611D01*
X67326909Y-91441807D01*
X67482485Y-91195234D01*
X67482487Y-91195231D01*
X67484512Y-91192021D01*
X67491233Y-91177836D01*
X67551739Y-91050121D01*
X67618966Y-90908222D01*
X67620926Y-90902349D01*
X67717155Y-90613913D01*
X67718352Y-90610326D01*
X67781229Y-90302648D01*
X67806688Y-89989644D01*
X67807260Y-89935000D01*
X67805842Y-89911468D01*
X67788590Y-89625310D01*
X67788590Y-89625306D01*
X67788362Y-89621532D01*
X67785679Y-89606842D01*
X67732622Y-89316326D01*
X67732621Y-89316322D01*
X67731942Y-89312604D01*
X67638817Y-89012692D01*
X67625836Y-88983739D01*
X67541140Y-88794843D01*
X67510336Y-88726140D01*
X67510105Y-88725756D01*
X68324700Y-88725756D01*
X68331402Y-88787448D01*
X68382129Y-88922764D01*
X68387509Y-88929943D01*
X68387511Y-88929946D01*
X68427827Y-88983739D01*
X68468796Y-89038404D01*
X68475976Y-89043785D01*
X68577254Y-89119689D01*
X68577257Y-89119691D01*
X68584436Y-89125071D01*
X68674154Y-89158704D01*
X68712357Y-89173026D01*
X68712359Y-89173026D01*
X68719752Y-89175798D01*
X68727602Y-89176651D01*
X68727603Y-89176651D01*
X68778047Y-89182131D01*
X68781444Y-89182500D01*
X70326956Y-89182500D01*
X70330353Y-89182131D01*
X70380797Y-89176651D01*
X70380798Y-89176651D01*
X70388648Y-89175798D01*
X70396041Y-89173026D01*
X70396043Y-89173026D01*
X70434246Y-89158704D01*
X70523964Y-89125071D01*
X70531143Y-89119691D01*
X70531146Y-89119689D01*
X70632424Y-89043785D01*
X70639604Y-89038404D01*
X70680573Y-88983739D01*
X70720889Y-88929946D01*
X70720891Y-88929943D01*
X70726271Y-88922764D01*
X70776998Y-88787448D01*
X70783700Y-88725756D01*
X70783700Y-87430244D01*
X70776998Y-87368552D01*
X70726271Y-87233236D01*
X70720891Y-87226057D01*
X70720889Y-87226054D01*
X70644985Y-87124776D01*
X70639604Y-87117596D01*
X70549719Y-87050231D01*
X70531146Y-87036311D01*
X70531143Y-87036309D01*
X70523964Y-87030929D01*
X70405779Y-86986624D01*
X70396043Y-86982974D01*
X70396041Y-86982974D01*
X70388648Y-86980202D01*
X70380798Y-86979349D01*
X70380797Y-86979349D01*
X70330353Y-86973869D01*
X70330352Y-86973869D01*
X70326956Y-86973500D01*
X68781444Y-86973500D01*
X68778048Y-86973869D01*
X68778047Y-86973869D01*
X68727603Y-86979349D01*
X68727602Y-86979349D01*
X68719752Y-86980202D01*
X68712359Y-86982974D01*
X68712357Y-86982974D01*
X68702621Y-86986624D01*
X68584436Y-87030929D01*
X68577257Y-87036309D01*
X68577254Y-87036311D01*
X68558681Y-87050231D01*
X68468796Y-87117596D01*
X68463415Y-87124776D01*
X68387511Y-87226054D01*
X68387509Y-87226057D01*
X68382129Y-87233236D01*
X68331402Y-87368552D01*
X68324700Y-87430244D01*
X68324700Y-88725756D01*
X67510105Y-88725756D01*
X67348359Y-88457099D01*
X67155235Y-88209465D01*
X66933759Y-87986827D01*
X66910838Y-87968757D01*
X66690121Y-87794758D01*
X66687140Y-87792408D01*
X66418951Y-87629026D01*
X66305067Y-87577246D01*
X66136527Y-87500615D01*
X66136520Y-87500612D01*
X66133075Y-87499046D01*
X65833655Y-87404352D01*
X65649304Y-87369685D01*
X65528751Y-87347015D01*
X65528746Y-87347014D01*
X65525027Y-87346315D01*
X65211662Y-87325776D01*
X65207882Y-87325984D01*
X65207881Y-87325984D01*
X65119138Y-87330868D01*
X64898099Y-87343032D01*
X64894372Y-87343693D01*
X64894368Y-87343693D01*
X64747710Y-87369685D01*
X64588880Y-87397834D01*
X64585255Y-87398939D01*
X64585250Y-87398940D01*
X64471329Y-87433661D01*
X64288485Y-87489388D01*
X64285021Y-87490919D01*
X64285014Y-87490922D01*
X64108626Y-87568903D01*
X64001264Y-87616367D01*
X63998010Y-87618303D01*
X63998004Y-87618306D01*
X63756774Y-87761823D01*
X63731378Y-87776932D01*
X63728377Y-87779247D01*
X63728373Y-87779250D01*
X63575283Y-87897358D01*
X63482737Y-87968757D01*
X63480036Y-87971416D01*
X63480029Y-87971422D01*
X63306093Y-88142648D01*
X63258942Y-88189064D01*
X63063235Y-88434662D01*
X62898450Y-88701992D01*
X62766975Y-88987183D01*
X62670715Y-89286103D01*
X62669996Y-89289819D01*
X62669994Y-89289827D01*
X62611782Y-89590704D01*
X62611781Y-89590713D01*
X62611063Y-89594423D01*
X62610796Y-89598199D01*
X62610795Y-89598204D01*
X62589826Y-89894355D01*
X62588883Y-89907676D01*
X61728000Y-89907676D01*
X61728000Y-87974000D01*
X52584000Y-87974000D01*
X52584000Y-93183125D01*
X41191486Y-93180509D01*
X41166937Y-93178088D01*
X41154000Y-93175514D01*
X41141826Y-93177935D01*
X41129417Y-93177935D01*
X41129417Y-93177615D01*
X41118544Y-93178355D01*
X41114114Y-93178087D01*
X41071576Y-93175514D01*
X40886120Y-93164296D01*
X40871016Y-93162462D01*
X40614542Y-93115462D01*
X40599769Y-93111821D01*
X40508146Y-93083270D01*
X40350820Y-93034245D01*
X40336602Y-93028853D01*
X40098818Y-92921835D01*
X40085362Y-92914773D01*
X39862211Y-92779873D01*
X39849690Y-92771231D01*
X39644427Y-92610417D01*
X39633039Y-92600327D01*
X39448673Y-92415961D01*
X39438583Y-92404573D01*
X39277769Y-92199310D01*
X39269126Y-92186788D01*
X39194830Y-92063888D01*
X39134227Y-91963638D01*
X39127165Y-91950182D01*
X39020147Y-91712398D01*
X39014753Y-91698175D01*
X38997457Y-91642668D01*
X38937179Y-91449231D01*
X38933538Y-91434458D01*
X38886538Y-91177984D01*
X38884704Y-91162880D01*
X38870645Y-90930456D01*
X38871385Y-90919580D01*
X38871065Y-90919580D01*
X38871065Y-90907172D01*
X38873486Y-90895000D01*
X38870921Y-90882103D01*
X38868500Y-90857524D01*
X38868500Y-89907676D01*
X46504883Y-89907676D01*
X46520497Y-90221325D01*
X46521138Y-90225056D01*
X46521139Y-90225064D01*
X46573036Y-90527081D01*
X46573680Y-90530827D01*
X46663659Y-90831697D01*
X46665172Y-90835168D01*
X46665174Y-90835174D01*
X46702830Y-90921570D01*
X46789132Y-91119579D01*
X46791055Y-91122850D01*
X46791057Y-91122854D01*
X46860999Y-91241828D01*
X46948282Y-91390302D01*
X46950583Y-91393317D01*
X47051206Y-91525164D01*
X47138803Y-91639944D01*
X47141451Y-91642663D01*
X47141456Y-91642668D01*
X47209388Y-91712402D01*
X47357935Y-91864890D01*
X47360879Y-91867261D01*
X47360882Y-91867264D01*
X47599552Y-92059502D01*
X47599557Y-92059506D01*
X47602505Y-92061880D01*
X47868969Y-92228062D01*
X48153467Y-92361029D01*
X48157074Y-92362211D01*
X48157078Y-92362213D01*
X48321038Y-92415961D01*
X48451880Y-92458853D01*
X48455590Y-92459591D01*
X48455594Y-92459592D01*
X48605881Y-92489486D01*
X48759883Y-92520119D01*
X48916449Y-92532028D01*
X49069239Y-92543651D01*
X49069244Y-92543651D01*
X49073016Y-92543938D01*
X49386742Y-92529966D01*
X49390480Y-92529344D01*
X49390488Y-92529343D01*
X49541242Y-92504250D01*
X49696518Y-92478405D01*
X49997855Y-92390003D01*
X50286390Y-92266038D01*
X50557942Y-92108308D01*
X50808579Y-91919097D01*
X51034669Y-91701145D01*
X51232937Y-91457611D01*
X51242909Y-91441807D01*
X51398485Y-91195234D01*
X51398487Y-91195231D01*
X51400512Y-91192021D01*
X51407233Y-91177836D01*
X51467739Y-91050121D01*
X51534966Y-90908222D01*
X51536926Y-90902349D01*
X51633155Y-90613913D01*
X51634352Y-90610326D01*
X51697229Y-90302648D01*
X51722688Y-89989644D01*
X51723260Y-89935000D01*
X51721842Y-89911468D01*
X51704590Y-89625310D01*
X51704590Y-89625306D01*
X51704362Y-89621532D01*
X51701679Y-89606842D01*
X51648622Y-89316326D01*
X51648621Y-89316322D01*
X51647942Y-89312604D01*
X51554817Y-89012692D01*
X51541836Y-88983739D01*
X51457140Y-88794843D01*
X51426336Y-88726140D01*
X51264359Y-88457099D01*
X51071235Y-88209465D01*
X50849759Y-87986827D01*
X50826838Y-87968757D01*
X50606121Y-87794758D01*
X50603140Y-87792408D01*
X50334951Y-87629026D01*
X50221067Y-87577246D01*
X50052527Y-87500615D01*
X50052520Y-87500612D01*
X50049075Y-87499046D01*
X49749655Y-87404352D01*
X49565304Y-87369685D01*
X49444751Y-87347015D01*
X49444746Y-87347014D01*
X49441027Y-87346315D01*
X49127662Y-87325776D01*
X49123882Y-87325984D01*
X49123881Y-87325984D01*
X49035138Y-87330868D01*
X48814099Y-87343032D01*
X48810372Y-87343693D01*
X48810368Y-87343693D01*
X48663710Y-87369685D01*
X48504880Y-87397834D01*
X48501255Y-87398939D01*
X48501250Y-87398940D01*
X48387329Y-87433661D01*
X48204485Y-87489388D01*
X48201021Y-87490919D01*
X48201014Y-87490922D01*
X48024626Y-87568903D01*
X47917264Y-87616367D01*
X47914010Y-87618303D01*
X47914004Y-87618306D01*
X47672774Y-87761823D01*
X47647378Y-87776932D01*
X47644377Y-87779247D01*
X47644373Y-87779250D01*
X47491283Y-87897358D01*
X47398737Y-87968757D01*
X47396036Y-87971416D01*
X47396029Y-87971422D01*
X47222093Y-88142648D01*
X47174942Y-88189064D01*
X46979235Y-88434662D01*
X46814450Y-88701992D01*
X46682975Y-88987183D01*
X46586715Y-89286103D01*
X46585996Y-89289819D01*
X46585994Y-89289827D01*
X46527782Y-89590704D01*
X46527781Y-89590713D01*
X46527063Y-89594423D01*
X46526796Y-89598199D01*
X46526795Y-89598204D01*
X46505826Y-89894355D01*
X46504883Y-89907676D01*
X38868500Y-89907676D01*
X38868500Y-77418469D01*
X39128621Y-77418469D01*
X39129421Y-77424801D01*
X39132506Y-77449222D01*
X39133500Y-77465014D01*
X39133500Y-87365807D01*
X39133451Y-87369326D01*
X39131654Y-87433661D01*
X39131031Y-87455947D01*
X39132140Y-87462236D01*
X39141551Y-87515611D01*
X39142820Y-87524756D01*
X39148942Y-87585024D01*
X39150850Y-87591112D01*
X39150850Y-87591113D01*
X39157596Y-87612640D01*
X39161446Y-87628437D01*
X39166468Y-87656916D01*
X39183093Y-87698907D01*
X39188766Y-87713236D01*
X39191847Y-87721936D01*
X39209967Y-87779755D01*
X39223987Y-87805047D01*
X39230937Y-87819749D01*
X39239240Y-87840721D01*
X39239243Y-87840726D01*
X39241590Y-87846655D01*
X39245080Y-87851988D01*
X39245085Y-87851998D01*
X39274768Y-87897358D01*
X39279537Y-87905263D01*
X39291661Y-87927134D01*
X39308902Y-87958238D01*
X39313051Y-87963079D01*
X39313054Y-87963083D01*
X39327721Y-87980194D01*
X39337487Y-87993202D01*
X39350674Y-88013355D01*
X39350684Y-88013368D01*
X39353331Y-88017413D01*
X39356571Y-88021011D01*
X39356699Y-88021154D01*
X39356713Y-88021168D01*
X39357819Y-88022397D01*
X39396894Y-88061472D01*
X39403467Y-88068569D01*
X39441705Y-88113182D01*
X39466201Y-88132183D01*
X39478070Y-88142648D01*
X40836445Y-89501023D01*
X40838899Y-89503545D01*
X40898454Y-89566523D01*
X40903681Y-89570183D01*
X40948080Y-89601272D01*
X40955444Y-89606842D01*
X40997438Y-89641091D01*
X40997443Y-89641094D01*
X41002390Y-89645129D01*
X41028032Y-89658535D01*
X41041919Y-89666978D01*
X41065618Y-89683572D01*
X41071472Y-89686105D01*
X41071475Y-89686107D01*
X41121217Y-89707632D01*
X41129532Y-89711597D01*
X41183237Y-89739674D01*
X41189364Y-89741431D01*
X41189369Y-89741433D01*
X41211044Y-89747648D01*
X41226353Y-89753130D01*
X41247038Y-89762081D01*
X41247046Y-89762084D01*
X41252903Y-89764618D01*
X41259153Y-89765924D01*
X41259154Y-89765924D01*
X41274468Y-89769123D01*
X41312205Y-89777007D01*
X41321148Y-89779219D01*
X41379401Y-89795923D01*
X41405765Y-89797952D01*
X41408247Y-89798143D01*
X41424343Y-89800434D01*
X41447925Y-89805360D01*
X41447926Y-89805360D01*
X41452660Y-89806349D01*
X41459358Y-89806700D01*
X41514616Y-89806700D01*
X41524283Y-89807071D01*
X41576509Y-89811090D01*
X41576513Y-89811090D01*
X41582869Y-89811579D01*
X41613621Y-89807694D01*
X41629414Y-89806700D01*
X41973365Y-89806700D01*
X42041486Y-89826702D01*
X42049348Y-89833038D01*
X42051116Y-89835684D01*
X42135299Y-89891934D01*
X42209533Y-89906700D01*
X43084458Y-89906700D01*
X43959666Y-89906699D01*
X43995418Y-89899588D01*
X44021726Y-89894356D01*
X44021728Y-89894355D01*
X44033901Y-89891934D01*
X44044221Y-89885039D01*
X44044222Y-89885038D01*
X44107768Y-89842577D01*
X44118084Y-89835684D01*
X44174334Y-89751501D01*
X44189100Y-89677267D01*
X44189099Y-87927134D01*
X44174334Y-87852899D01*
X44118084Y-87768716D01*
X44033901Y-87712466D01*
X43959667Y-87697700D01*
X43084742Y-87697700D01*
X42209534Y-87697701D01*
X42173782Y-87704812D01*
X42147474Y-87710044D01*
X42147472Y-87710045D01*
X42135299Y-87712466D01*
X42124979Y-87719361D01*
X42124978Y-87719362D01*
X42073659Y-87753653D01*
X42005907Y-87774868D01*
X41937440Y-87756085D01*
X41914562Y-87737984D01*
X41179405Y-87002828D01*
X41145380Y-86940515D01*
X41142500Y-86913732D01*
X41142500Y-86233164D01*
X41975748Y-86233164D01*
X41989024Y-86435722D01*
X41990445Y-86441318D01*
X41990446Y-86441323D01*
X42010719Y-86521145D01*
X42038992Y-86632469D01*
X42041409Y-86637712D01*
X42078610Y-86718408D01*
X42123977Y-86816816D01*
X42127310Y-86821532D01*
X42234710Y-86973500D01*
X42241133Y-86982589D01*
X42386538Y-87124235D01*
X42555320Y-87237012D01*
X42560623Y-87239290D01*
X42560626Y-87239292D01*
X42649307Y-87277392D01*
X42741828Y-87317142D01*
X42814844Y-87333664D01*
X42934179Y-87360667D01*
X42934184Y-87360668D01*
X42939816Y-87361942D01*
X42945587Y-87362169D01*
X42945589Y-87362169D01*
X43005356Y-87364517D01*
X43142653Y-87369912D01*
X43243099Y-87355348D01*
X43337831Y-87341613D01*
X43337836Y-87341612D01*
X43343545Y-87340784D01*
X43349009Y-87338929D01*
X43349014Y-87338928D01*
X43530293Y-87277392D01*
X43530298Y-87277390D01*
X43535765Y-87275534D01*
X43712876Y-87176347D01*
X43775534Y-87124235D01*
X43864513Y-87050231D01*
X43868945Y-87046545D01*
X43998747Y-86890476D01*
X44097934Y-86713365D01*
X44099790Y-86707898D01*
X44099792Y-86707893D01*
X44161328Y-86526614D01*
X44161329Y-86526609D01*
X44163184Y-86521145D01*
X44164012Y-86515436D01*
X44164013Y-86515431D01*
X44191779Y-86323927D01*
X44192312Y-86320253D01*
X44193832Y-86262200D01*
X44175258Y-86060059D01*
X44170972Y-86044861D01*
X44121725Y-85870246D01*
X44121724Y-85870244D01*
X44120157Y-85864687D01*
X44111101Y-85846322D01*
X44110646Y-85845399D01*
X68358026Y-85845399D01*
X68379193Y-85933229D01*
X68383082Y-85944524D01*
X68465312Y-86125379D01*
X68471259Y-86135721D01*
X68586210Y-86297772D01*
X68594003Y-86306800D01*
X68737521Y-86444189D01*
X68746886Y-86451585D01*
X68913790Y-86559354D01*
X68924394Y-86564850D01*
X69108652Y-86639108D01*
X69120111Y-86642502D01*
X69282418Y-86674198D01*
X69295368Y-86672994D01*
X69300200Y-86657943D01*
X69300200Y-86656599D01*
X69808200Y-86656599D01*
X69812451Y-86671077D01*
X69824712Y-86673139D01*
X69882935Y-86667584D01*
X69894671Y-86665324D01*
X70085291Y-86609402D01*
X70096394Y-86604961D01*
X70273007Y-86514000D01*
X70283053Y-86507550D01*
X70439286Y-86384829D01*
X70447935Y-86376592D01*
X70578140Y-86226543D01*
X70585077Y-86216817D01*
X70684557Y-86044861D01*
X70689531Y-86033997D01*
X70754703Y-85846322D01*
X70754771Y-85846043D01*
X70753338Y-85835993D01*
X70739769Y-85832000D01*
X69826315Y-85832000D01*
X69811076Y-85836475D01*
X69809871Y-85837865D01*
X69808200Y-85845548D01*
X69808200Y-86656599D01*
X69300200Y-86656599D01*
X69300200Y-85850115D01*
X69295725Y-85834876D01*
X69294335Y-85833671D01*
X69286652Y-85832000D01*
X68372912Y-85832000D01*
X68359381Y-85835973D01*
X68358026Y-85845399D01*
X44110646Y-85845399D01*
X44032931Y-85687809D01*
X44030376Y-85682628D01*
X43908920Y-85519979D01*
X43759858Y-85382187D01*
X43754975Y-85379106D01*
X43754971Y-85379103D01*
X43593064Y-85276948D01*
X43588181Y-85273867D01*
X43399639Y-85198646D01*
X43393979Y-85197520D01*
X43393975Y-85197519D01*
X43206213Y-85160171D01*
X43206210Y-85160171D01*
X43200546Y-85159044D01*
X43194771Y-85158968D01*
X43194767Y-85158968D01*
X43093393Y-85157641D01*
X42997571Y-85156387D01*
X42991874Y-85157366D01*
X42991873Y-85157366D01*
X42803207Y-85189785D01*
X42797510Y-85190764D01*
X42607063Y-85261024D01*
X42432610Y-85364812D01*
X42428270Y-85368618D01*
X42428266Y-85368621D01*
X42333291Y-85451913D01*
X42279992Y-85498655D01*
X42154320Y-85658069D01*
X42151631Y-85663180D01*
X42151629Y-85663183D01*
X42125747Y-85712377D01*
X42059803Y-85837715D01*
X41999607Y-86031578D01*
X41975748Y-86233164D01*
X41142500Y-86233164D01*
X41142500Y-83693164D01*
X41975748Y-83693164D01*
X41989024Y-83895722D01*
X41990445Y-83901318D01*
X41990446Y-83901323D01*
X42032744Y-84067869D01*
X42038992Y-84092469D01*
X42041409Y-84097712D01*
X42078610Y-84178408D01*
X42123977Y-84276816D01*
X42241133Y-84442589D01*
X42386538Y-84584235D01*
X42555320Y-84697012D01*
X42560623Y-84699290D01*
X42560626Y-84699292D01*
X42649307Y-84737392D01*
X42741828Y-84777142D01*
X42814844Y-84793664D01*
X42934179Y-84820667D01*
X42934184Y-84820668D01*
X42939816Y-84821942D01*
X42945587Y-84822169D01*
X42945589Y-84822169D01*
X43005356Y-84824517D01*
X43142653Y-84829912D01*
X43243099Y-84815348D01*
X43337831Y-84801613D01*
X43337836Y-84801612D01*
X43343545Y-84800784D01*
X43349009Y-84798929D01*
X43349014Y-84798928D01*
X43530293Y-84737392D01*
X43530298Y-84737390D01*
X43535765Y-84735534D01*
X43578126Y-84711811D01*
X43655811Y-84668305D01*
X43701061Y-84642964D01*
X47157148Y-84642964D01*
X47170424Y-84845522D01*
X47171845Y-84851118D01*
X47171846Y-84851123D01*
X47191741Y-84929457D01*
X47220392Y-85042269D01*
X47222809Y-85047512D01*
X47260010Y-85128208D01*
X47305377Y-85226616D01*
X47308710Y-85231332D01*
X47405736Y-85368621D01*
X47422533Y-85392389D01*
X47567938Y-85534035D01*
X47736720Y-85646812D01*
X47742023Y-85649090D01*
X47742026Y-85649092D01*
X47873283Y-85705484D01*
X47923228Y-85726942D01*
X47996244Y-85743464D01*
X48115579Y-85770467D01*
X48115584Y-85770468D01*
X48121216Y-85771742D01*
X48126987Y-85771969D01*
X48126989Y-85771969D01*
X48186756Y-85774317D01*
X48324053Y-85779712D01*
X48431348Y-85764155D01*
X48519231Y-85751413D01*
X48519236Y-85751412D01*
X48524945Y-85750584D01*
X48530409Y-85748729D01*
X48530414Y-85748728D01*
X48711693Y-85687192D01*
X48711698Y-85687190D01*
X48717165Y-85685334D01*
X48756719Y-85663183D01*
X48791683Y-85643602D01*
X48894276Y-85586147D01*
X48933969Y-85553135D01*
X49045913Y-85460031D01*
X49050345Y-85456345D01*
X49126473Y-85364812D01*
X49176453Y-85304718D01*
X49176455Y-85304715D01*
X49180147Y-85300276D01*
X49279334Y-85123165D01*
X49281190Y-85117698D01*
X49281192Y-85117693D01*
X49342728Y-84936414D01*
X49342729Y-84936409D01*
X49344584Y-84930945D01*
X49345412Y-84925236D01*
X49345413Y-84925231D01*
X49366556Y-84779408D01*
X49373712Y-84730053D01*
X49375232Y-84672000D01*
X49357853Y-84482861D01*
X49357187Y-84475613D01*
X49357186Y-84475610D01*
X49356658Y-84469859D01*
X49355090Y-84464299D01*
X49303125Y-84280046D01*
X49303124Y-84280044D01*
X49301557Y-84274487D01*
X49290978Y-84253033D01*
X49214331Y-84097609D01*
X49211776Y-84092428D01*
X49191183Y-84064850D01*
X49093777Y-83934409D01*
X49090320Y-83929779D01*
X48946609Y-83796933D01*
X49701500Y-83796933D01*
X49701501Y-85547066D01*
X49716266Y-85621301D01*
X49723161Y-85631620D01*
X49723162Y-85631622D01*
X49760706Y-85687809D01*
X49772516Y-85705484D01*
X49856699Y-85761734D01*
X49930933Y-85776500D01*
X50805858Y-85776500D01*
X51681066Y-85776499D01*
X51716818Y-85769388D01*
X51743126Y-85764156D01*
X51743128Y-85764155D01*
X51755301Y-85761734D01*
X51765621Y-85754839D01*
X51765622Y-85754838D01*
X51829168Y-85712377D01*
X51839484Y-85705484D01*
X51895734Y-85621301D01*
X51910500Y-85547067D01*
X51910500Y-85309957D01*
X68353629Y-85309957D01*
X68355062Y-85320007D01*
X68368631Y-85324000D01*
X69282085Y-85324000D01*
X69297324Y-85319525D01*
X69298529Y-85318135D01*
X69300200Y-85310452D01*
X69300200Y-85305885D01*
X69808200Y-85305885D01*
X69812675Y-85321124D01*
X69814065Y-85322329D01*
X69821748Y-85324000D01*
X70735488Y-85324000D01*
X70749019Y-85320027D01*
X70750374Y-85310601D01*
X70729207Y-85222771D01*
X70725318Y-85211476D01*
X70643088Y-85030621D01*
X70637141Y-85020279D01*
X70522190Y-84858228D01*
X70514397Y-84849200D01*
X70370879Y-84711811D01*
X70361514Y-84704415D01*
X70194610Y-84596646D01*
X70184006Y-84591150D01*
X69999748Y-84516892D01*
X69988289Y-84513498D01*
X69825982Y-84481802D01*
X69813032Y-84483006D01*
X69808200Y-84498057D01*
X69808200Y-85305885D01*
X69300200Y-85305885D01*
X69300200Y-84499401D01*
X69295949Y-84484923D01*
X69283688Y-84482861D01*
X69225465Y-84488416D01*
X69213729Y-84490676D01*
X69023109Y-84546598D01*
X69012006Y-84551039D01*
X68835393Y-84642000D01*
X68825347Y-84648450D01*
X68669114Y-84771171D01*
X68660465Y-84779408D01*
X68530260Y-84929457D01*
X68523323Y-84939183D01*
X68423843Y-85111139D01*
X68418869Y-85122003D01*
X68353697Y-85309678D01*
X68353629Y-85309957D01*
X51910500Y-85309957D01*
X51910499Y-83796934D01*
X51895734Y-83722699D01*
X51869654Y-83683667D01*
X51846377Y-83648832D01*
X51839484Y-83638516D01*
X51755301Y-83582266D01*
X51681067Y-83567500D01*
X51436500Y-83567500D01*
X51368379Y-83547498D01*
X51321886Y-83493842D01*
X51310500Y-83441500D01*
X51310500Y-83345399D01*
X68358026Y-83345399D01*
X68379193Y-83433229D01*
X68383082Y-83444524D01*
X68465312Y-83625379D01*
X68471259Y-83635721D01*
X68586210Y-83797772D01*
X68594003Y-83806800D01*
X68737521Y-83944189D01*
X68746886Y-83951585D01*
X68913790Y-84059354D01*
X68924394Y-84064850D01*
X69108652Y-84139108D01*
X69120111Y-84142502D01*
X69282418Y-84174198D01*
X69295368Y-84172994D01*
X69300200Y-84157943D01*
X69300200Y-84156599D01*
X69808200Y-84156599D01*
X69812451Y-84171077D01*
X69824712Y-84173139D01*
X69882935Y-84167584D01*
X69894671Y-84165324D01*
X70085291Y-84109402D01*
X70096394Y-84104961D01*
X70273007Y-84014000D01*
X70283053Y-84007550D01*
X70439286Y-83884829D01*
X70447935Y-83876592D01*
X70578140Y-83726543D01*
X70585077Y-83716817D01*
X70684557Y-83544861D01*
X70689531Y-83533997D01*
X70754703Y-83346322D01*
X70754771Y-83346043D01*
X70753338Y-83335993D01*
X70739769Y-83332000D01*
X69826315Y-83332000D01*
X69811076Y-83336475D01*
X69809871Y-83337865D01*
X69808200Y-83345548D01*
X69808200Y-84156599D01*
X69300200Y-84156599D01*
X69300200Y-83350115D01*
X69295725Y-83334876D01*
X69294335Y-83333671D01*
X69286652Y-83332000D01*
X68372912Y-83332000D01*
X68359381Y-83335973D01*
X68358026Y-83345399D01*
X51310500Y-83345399D01*
X51310500Y-80138161D01*
X51330502Y-80070040D01*
X51347405Y-80049066D01*
X51965185Y-79431286D01*
X52027497Y-79397260D01*
X52056258Y-79394397D01*
X52131318Y-79395576D01*
X52131321Y-79395576D01*
X52138916Y-79395695D01*
X52293332Y-79360329D01*
X52363742Y-79324917D01*
X52428072Y-79292563D01*
X52428075Y-79292561D01*
X52434855Y-79289151D01*
X52440626Y-79284222D01*
X52440629Y-79284220D01*
X52549536Y-79191204D01*
X52549536Y-79191203D01*
X52555314Y-79186269D01*
X52647755Y-79057624D01*
X52706842Y-78910641D01*
X52721993Y-78804179D01*
X52728581Y-78757891D01*
X52728581Y-78757888D01*
X52729162Y-78753807D01*
X52729307Y-78740000D01*
X52710276Y-78582733D01*
X52654280Y-78434546D01*
X52564553Y-78303992D01*
X52446275Y-78198611D01*
X52438889Y-78194700D01*
X52326186Y-78135027D01*
X52306274Y-78124484D01*
X52152633Y-78085892D01*
X52145034Y-78085852D01*
X52145033Y-78085852D01*
X52079181Y-78085507D01*
X51994221Y-78085062D01*
X51986841Y-78086834D01*
X51986839Y-78086834D01*
X51847563Y-78120271D01*
X51847560Y-78120272D01*
X51840184Y-78122043D01*
X51699414Y-78194700D01*
X51580039Y-78298838D01*
X51488950Y-78428444D01*
X51486190Y-78435524D01*
X51486188Y-78435527D01*
X51465237Y-78489264D01*
X51436939Y-78532590D01*
X50499206Y-79470323D01*
X50489766Y-79477865D01*
X50490089Y-79478245D01*
X50483253Y-79484063D01*
X50475661Y-79488853D01*
X50469719Y-79495581D01*
X50440329Y-79528859D01*
X50434983Y-79534546D01*
X50423649Y-79545880D01*
X50420964Y-79549463D01*
X50420962Y-79549465D01*
X50417447Y-79554155D01*
X50411062Y-79561998D01*
X50379999Y-79597170D01*
X50376186Y-79605292D01*
X50374346Y-79608093D01*
X50365937Y-79622088D01*
X50364315Y-79625051D01*
X50358930Y-79632236D01*
X50355777Y-79640646D01*
X50355776Y-79640648D01*
X50342454Y-79676182D01*
X50338530Y-79685495D01*
X50318583Y-79727982D01*
X50317201Y-79736856D01*
X50316215Y-79740083D01*
X50312075Y-79755866D01*
X50311354Y-79759144D01*
X50308202Y-79767552D01*
X50307537Y-79776503D01*
X50304724Y-79814357D01*
X50303570Y-79824404D01*
X50301500Y-79837697D01*
X50301500Y-79853062D01*
X50301154Y-79862399D01*
X50300593Y-79869952D01*
X50297493Y-79911667D01*
X50299366Y-79920442D01*
X50299959Y-79929138D01*
X50301500Y-79943738D01*
X50301500Y-83441501D01*
X50281498Y-83509622D01*
X50227842Y-83556115D01*
X50175500Y-83567501D01*
X49930934Y-83567501D01*
X49895182Y-83574612D01*
X49868874Y-83579844D01*
X49868872Y-83579845D01*
X49856699Y-83582266D01*
X49846379Y-83589161D01*
X49846378Y-83589162D01*
X49792177Y-83625379D01*
X49772516Y-83638516D01*
X49716266Y-83722699D01*
X49701500Y-83796933D01*
X48946609Y-83796933D01*
X48941258Y-83791987D01*
X48936375Y-83788906D01*
X48936371Y-83788903D01*
X48774464Y-83686748D01*
X48769581Y-83683667D01*
X48581039Y-83608446D01*
X48575379Y-83607320D01*
X48575375Y-83607319D01*
X48387613Y-83569971D01*
X48387610Y-83569971D01*
X48381946Y-83568844D01*
X48376171Y-83568768D01*
X48376167Y-83568768D01*
X48274793Y-83567441D01*
X48178971Y-83566187D01*
X48173274Y-83567166D01*
X48173273Y-83567166D01*
X48085397Y-83582266D01*
X47978910Y-83600564D01*
X47788463Y-83670824D01*
X47614010Y-83774612D01*
X47609670Y-83778418D01*
X47609666Y-83778421D01*
X47488332Y-83884829D01*
X47461392Y-83908455D01*
X47335720Y-84067869D01*
X47333031Y-84072980D01*
X47333029Y-84072983D01*
X47316205Y-84104961D01*
X47241203Y-84247515D01*
X47181007Y-84441378D01*
X47157148Y-84642964D01*
X43701061Y-84642964D01*
X43712876Y-84636347D01*
X43775534Y-84584235D01*
X43864513Y-84510231D01*
X43868945Y-84506545D01*
X43998747Y-84350476D01*
X44097934Y-84173365D01*
X44099790Y-84167898D01*
X44099792Y-84167893D01*
X44161328Y-83986614D01*
X44161329Y-83986609D01*
X44163184Y-83981145D01*
X44164012Y-83975436D01*
X44164013Y-83975431D01*
X44189893Y-83796934D01*
X44192312Y-83780253D01*
X44193832Y-83722200D01*
X44179617Y-83567500D01*
X44175787Y-83525813D01*
X44175786Y-83525810D01*
X44175258Y-83520059D01*
X44173690Y-83514499D01*
X44121725Y-83330246D01*
X44121724Y-83330244D01*
X44120157Y-83324687D01*
X44109578Y-83303233D01*
X44032931Y-83147809D01*
X44030376Y-83142628D01*
X43908920Y-82979979D01*
X43759858Y-82842187D01*
X43754975Y-82839106D01*
X43754971Y-82839103D01*
X43593064Y-82736948D01*
X43588181Y-82733867D01*
X43399639Y-82658646D01*
X43393979Y-82657520D01*
X43393975Y-82657519D01*
X43206213Y-82620171D01*
X43206210Y-82620171D01*
X43200546Y-82619044D01*
X43194771Y-82618968D01*
X43194767Y-82618968D01*
X43093393Y-82617641D01*
X42997571Y-82616387D01*
X42991874Y-82617366D01*
X42991873Y-82617366D01*
X42803207Y-82649785D01*
X42797510Y-82650764D01*
X42607063Y-82721024D01*
X42432610Y-82824812D01*
X42428270Y-82828618D01*
X42428266Y-82828621D01*
X42397862Y-82855285D01*
X42279992Y-82958655D01*
X42276417Y-82963190D01*
X42276416Y-82963191D01*
X42266275Y-82976055D01*
X42154320Y-83118069D01*
X42151631Y-83123180D01*
X42151629Y-83123183D01*
X42138673Y-83147809D01*
X42059803Y-83297715D01*
X41999607Y-83491578D01*
X41975748Y-83693164D01*
X41142500Y-83693164D01*
X41142500Y-81449162D01*
X42013271Y-81449162D01*
X42038043Y-81546702D01*
X42041884Y-81557548D01*
X42121994Y-81731320D01*
X42127745Y-81741281D01*
X42238179Y-81897543D01*
X42245657Y-81906298D01*
X42382714Y-82039812D01*
X42391658Y-82047055D01*
X42550756Y-82153361D01*
X42560866Y-82158851D01*
X42736677Y-82234385D01*
X42747620Y-82237940D01*
X42812932Y-82252719D01*
X42827005Y-82251830D01*
X42830428Y-82242881D01*
X43338600Y-82242881D01*
X43342566Y-82256387D01*
X43351272Y-82257633D01*
X43530097Y-82196930D01*
X43540594Y-82192256D01*
X43707558Y-82098752D01*
X43717030Y-82092242D01*
X43864153Y-81969882D01*
X43872282Y-81961753D01*
X43994642Y-81814630D01*
X44001152Y-81805158D01*
X44094656Y-81638194D01*
X44099330Y-81627697D01*
X44160043Y-81448844D01*
X44158810Y-81440193D01*
X44145242Y-81436200D01*
X43356715Y-81436200D01*
X43341476Y-81440675D01*
X43340271Y-81442065D01*
X43338600Y-81449748D01*
X43338600Y-82242881D01*
X42830428Y-82242881D01*
X42830600Y-82242432D01*
X42830600Y-81454315D01*
X42826125Y-81439076D01*
X42824735Y-81437871D01*
X42817052Y-81436200D01*
X42028094Y-81436200D01*
X42014563Y-81440173D01*
X42013271Y-81449162D01*
X41142500Y-81449162D01*
X41142500Y-80924999D01*
X42012543Y-80924999D01*
X42019275Y-80928200D01*
X42812485Y-80928200D01*
X42827724Y-80923725D01*
X42828929Y-80922335D01*
X42830600Y-80914652D01*
X42830600Y-80910085D01*
X43338600Y-80910085D01*
X43343075Y-80925324D01*
X43344465Y-80926529D01*
X43352148Y-80928200D01*
X44141998Y-80928200D01*
X44155529Y-80924227D01*
X44156698Y-80916092D01*
X44121258Y-80790431D01*
X44117133Y-80779684D01*
X44032503Y-80608071D01*
X44026493Y-80598263D01*
X43912000Y-80444939D01*
X43904310Y-80436399D01*
X43763792Y-80306504D01*
X43754667Y-80299503D01*
X43592836Y-80197395D01*
X43582589Y-80192174D01*
X43404860Y-80121268D01*
X43393832Y-80118001D01*
X43356369Y-80110550D01*
X43343494Y-80111702D01*
X43338600Y-80126858D01*
X43338600Y-80910085D01*
X42830600Y-80910085D01*
X42830600Y-80123700D01*
X42826794Y-80110738D01*
X42811879Y-80108802D01*
X42803332Y-80110271D01*
X42792220Y-80113248D01*
X42612695Y-80179479D01*
X42602317Y-80184429D01*
X42437873Y-80282263D01*
X42428561Y-80289029D01*
X42284697Y-80415194D01*
X42276780Y-80423537D01*
X42158318Y-80573805D01*
X42152050Y-80583456D01*
X42062958Y-80752792D01*
X42058553Y-80763427D01*
X42012762Y-80910898D01*
X42012543Y-80924999D01*
X41142500Y-80924999D01*
X41142500Y-77862068D01*
X41162502Y-77793947D01*
X41179400Y-77772978D01*
X42092802Y-76859575D01*
X42155113Y-76825551D01*
X42197174Y-76825178D01*
X42197301Y-76823886D01*
X42203466Y-76824493D01*
X42209533Y-76825700D01*
X43084458Y-76825700D01*
X43959666Y-76825699D01*
X43998737Y-76817928D01*
X44021726Y-76813356D01*
X44021728Y-76813355D01*
X44033901Y-76810934D01*
X44044221Y-76804039D01*
X44044222Y-76804038D01*
X44107768Y-76761577D01*
X44118084Y-76754684D01*
X44174334Y-76670501D01*
X44189100Y-76596267D01*
X44189099Y-74846134D01*
X44174334Y-74771899D01*
X44151701Y-74738026D01*
X44124977Y-74698032D01*
X44118084Y-74687716D01*
X44033901Y-74631466D01*
X43959667Y-74616700D01*
X43084742Y-74616700D01*
X42209534Y-74616701D01*
X42173782Y-74623812D01*
X42147474Y-74629044D01*
X42147472Y-74629045D01*
X42135299Y-74631466D01*
X42124979Y-74638361D01*
X42124978Y-74638362D01*
X42051116Y-74687716D01*
X42049348Y-74685070D01*
X42004299Y-74709670D01*
X41933484Y-74704605D01*
X41888421Y-74675644D01*
X41179405Y-73966628D01*
X41145379Y-73904316D01*
X41142500Y-73877533D01*
X41142500Y-73152164D01*
X41975748Y-73152164D01*
X41989024Y-73354722D01*
X41990445Y-73360318D01*
X41990446Y-73360323D01*
X42037348Y-73544994D01*
X42038992Y-73551469D01*
X42041409Y-73556712D01*
X42078557Y-73637293D01*
X42123977Y-73735816D01*
X42241133Y-73901589D01*
X42386538Y-74043235D01*
X42391342Y-74046445D01*
X42420575Y-74065978D01*
X42555320Y-74156012D01*
X42560623Y-74158290D01*
X42560626Y-74158292D01*
X42733630Y-74232620D01*
X42741828Y-74236142D01*
X42796142Y-74248432D01*
X42934179Y-74279667D01*
X42934184Y-74279668D01*
X42939816Y-74280942D01*
X42945587Y-74281169D01*
X42945589Y-74281169D01*
X43005356Y-74283517D01*
X43142653Y-74288912D01*
X43243099Y-74274348D01*
X43337831Y-74260613D01*
X43337836Y-74260612D01*
X43343545Y-74259784D01*
X43349009Y-74257929D01*
X43349014Y-74257928D01*
X43530293Y-74196392D01*
X43530298Y-74196390D01*
X43535765Y-74194534D01*
X43564891Y-74178223D01*
X43617261Y-74148894D01*
X43712876Y-74095347D01*
X43725189Y-74085107D01*
X43864513Y-73969231D01*
X43868945Y-73965545D01*
X43922137Y-73901589D01*
X43995053Y-73813918D01*
X43995055Y-73813915D01*
X43998747Y-73809476D01*
X44085150Y-73655193D01*
X44095110Y-73637408D01*
X44095111Y-73637406D01*
X44097934Y-73632365D01*
X44099790Y-73626898D01*
X44099792Y-73626893D01*
X44161328Y-73445614D01*
X44161329Y-73445609D01*
X44163184Y-73440145D01*
X44164012Y-73434436D01*
X44164013Y-73434431D01*
X44185123Y-73288832D01*
X44192312Y-73239253D01*
X44193832Y-73181200D01*
X44182397Y-73056751D01*
X44175787Y-72984813D01*
X44175786Y-72984810D01*
X44175258Y-72979059D01*
X44170155Y-72960964D01*
X44121725Y-72789246D01*
X44121724Y-72789244D01*
X44120157Y-72783687D01*
X44109578Y-72762233D01*
X44032931Y-72606809D01*
X44030376Y-72601628D01*
X44019569Y-72587155D01*
X43952809Y-72497754D01*
X43908920Y-72438979D01*
X43773949Y-72314213D01*
X43764103Y-72305111D01*
X43759858Y-72301187D01*
X43754975Y-72298106D01*
X43754971Y-72298103D01*
X43593064Y-72195948D01*
X43588181Y-72192867D01*
X43399639Y-72117646D01*
X43393979Y-72116520D01*
X43393975Y-72116519D01*
X43206213Y-72079171D01*
X43206210Y-72079171D01*
X43200546Y-72078044D01*
X43194771Y-72077968D01*
X43194767Y-72077968D01*
X43093393Y-72076641D01*
X42997571Y-72075387D01*
X42991874Y-72076366D01*
X42991873Y-72076366D01*
X42803207Y-72108785D01*
X42797510Y-72109764D01*
X42607063Y-72180024D01*
X42602102Y-72182976D01*
X42602101Y-72182976D01*
X42589073Y-72190727D01*
X42432610Y-72283812D01*
X42428270Y-72287618D01*
X42428266Y-72287621D01*
X42347705Y-72358272D01*
X42279992Y-72417655D01*
X42276417Y-72422190D01*
X42276416Y-72422191D01*
X42271062Y-72428983D01*
X42154320Y-72577069D01*
X42151631Y-72582180D01*
X42151629Y-72582183D01*
X42130876Y-72621628D01*
X42059803Y-72756715D01*
X41999607Y-72950578D01*
X41975748Y-73152164D01*
X41142500Y-73152164D01*
X41142500Y-70612164D01*
X41975748Y-70612164D01*
X41989024Y-70814722D01*
X41990445Y-70820318D01*
X41990446Y-70820323D01*
X42031761Y-70982997D01*
X42038992Y-71011469D01*
X42041409Y-71016712D01*
X42110621Y-71166845D01*
X42123977Y-71195816D01*
X42127310Y-71200532D01*
X42232122Y-71348838D01*
X42241133Y-71361589D01*
X42245275Y-71365624D01*
X42323827Y-71442145D01*
X42386538Y-71503235D01*
X42391342Y-71506445D01*
X42414478Y-71521904D01*
X42555320Y-71616012D01*
X42560623Y-71618290D01*
X42560626Y-71618292D01*
X42704363Y-71680046D01*
X42741828Y-71696142D01*
X42814844Y-71712664D01*
X42934179Y-71739667D01*
X42934184Y-71739668D01*
X42939816Y-71740942D01*
X42945587Y-71741169D01*
X42945589Y-71741169D01*
X43005356Y-71743517D01*
X43142653Y-71748912D01*
X43262990Y-71731464D01*
X43337831Y-71720613D01*
X43337836Y-71720612D01*
X43343545Y-71719784D01*
X43349009Y-71717929D01*
X43349014Y-71717928D01*
X43530293Y-71656392D01*
X43530298Y-71656390D01*
X43535765Y-71654534D01*
X43543401Y-71650258D01*
X43665212Y-71582040D01*
X43712876Y-71555347D01*
X43726022Y-71544414D01*
X43864513Y-71429231D01*
X43868945Y-71425545D01*
X43948922Y-71329384D01*
X43995053Y-71273918D01*
X43995055Y-71273915D01*
X43998747Y-71269476D01*
X44078176Y-71127646D01*
X44095110Y-71097408D01*
X44095111Y-71097406D01*
X44097934Y-71092365D01*
X44099790Y-71086898D01*
X44099792Y-71086893D01*
X44161328Y-70905614D01*
X44161329Y-70905609D01*
X44163184Y-70900145D01*
X44164012Y-70894436D01*
X44164013Y-70894431D01*
X44183608Y-70759286D01*
X44192312Y-70699253D01*
X44193832Y-70641200D01*
X44177312Y-70461413D01*
X44175787Y-70444813D01*
X44175786Y-70444810D01*
X44175258Y-70439059D01*
X44170351Y-70421661D01*
X44121725Y-70249246D01*
X44121724Y-70249244D01*
X44120157Y-70243687D01*
X44115043Y-70233315D01*
X44032931Y-70066809D01*
X44030376Y-70061628D01*
X43908920Y-69898979D01*
X43777816Y-69777787D01*
X43764103Y-69765111D01*
X43759858Y-69761187D01*
X43754975Y-69758106D01*
X43754971Y-69758103D01*
X43598814Y-69659576D01*
X43588181Y-69652867D01*
X43399639Y-69577646D01*
X43393979Y-69576520D01*
X43393975Y-69576519D01*
X43206213Y-69539171D01*
X43206210Y-69539171D01*
X43200546Y-69538044D01*
X43194771Y-69537968D01*
X43194767Y-69537968D01*
X43093393Y-69536641D01*
X42997571Y-69535387D01*
X42991874Y-69536366D01*
X42991873Y-69536366D01*
X42859157Y-69559171D01*
X42797510Y-69569764D01*
X42607063Y-69640024D01*
X42432610Y-69743812D01*
X42428270Y-69747618D01*
X42428266Y-69747621D01*
X42317427Y-69844825D01*
X42279992Y-69877655D01*
X42154320Y-70037069D01*
X42151631Y-70042180D01*
X42151629Y-70042183D01*
X42126721Y-70089526D01*
X42059803Y-70216715D01*
X41999607Y-70410578D01*
X41975748Y-70612164D01*
X41142500Y-70612164D01*
X41142500Y-68368162D01*
X42013271Y-68368162D01*
X42038043Y-68465702D01*
X42041884Y-68476548D01*
X42121994Y-68650320D01*
X42127745Y-68660281D01*
X42238179Y-68816543D01*
X42245657Y-68825298D01*
X42382714Y-68958812D01*
X42391658Y-68966055D01*
X42550756Y-69072361D01*
X42560866Y-69077851D01*
X42736677Y-69153385D01*
X42747620Y-69156940D01*
X42812932Y-69171719D01*
X42827005Y-69170830D01*
X42830428Y-69161881D01*
X43338600Y-69161881D01*
X43342566Y-69175387D01*
X43351272Y-69176633D01*
X43530097Y-69115930D01*
X43540594Y-69111256D01*
X43707558Y-69017752D01*
X43717030Y-69011242D01*
X43864153Y-68888882D01*
X43872282Y-68880753D01*
X43994642Y-68733630D01*
X44001152Y-68724158D01*
X44094656Y-68557194D01*
X44099330Y-68546697D01*
X44160043Y-68367844D01*
X44158810Y-68359193D01*
X44145242Y-68355200D01*
X43356715Y-68355200D01*
X43341476Y-68359675D01*
X43340271Y-68361065D01*
X43338600Y-68368748D01*
X43338600Y-69161881D01*
X42830428Y-69161881D01*
X42830600Y-69161432D01*
X42830600Y-68373315D01*
X42826125Y-68358076D01*
X42824735Y-68356871D01*
X42817052Y-68355200D01*
X42028094Y-68355200D01*
X42014563Y-68359173D01*
X42013271Y-68368162D01*
X41142500Y-68368162D01*
X41142500Y-67843999D01*
X42012543Y-67843999D01*
X42019275Y-67847200D01*
X42812485Y-67847200D01*
X42827724Y-67842725D01*
X42828929Y-67841335D01*
X42830600Y-67833652D01*
X42830600Y-67829085D01*
X43338600Y-67829085D01*
X43343075Y-67844324D01*
X43344465Y-67845529D01*
X43352148Y-67847200D01*
X44141998Y-67847200D01*
X44155529Y-67843227D01*
X44156698Y-67835092D01*
X44121258Y-67709431D01*
X44117133Y-67698684D01*
X44032503Y-67527071D01*
X44026493Y-67517263D01*
X43912000Y-67363939D01*
X43904310Y-67355399D01*
X43763792Y-67225504D01*
X43754667Y-67218503D01*
X43592836Y-67116395D01*
X43582589Y-67111174D01*
X43404860Y-67040268D01*
X43393832Y-67037001D01*
X43356369Y-67029550D01*
X43343494Y-67030702D01*
X43338600Y-67045858D01*
X43338600Y-67829085D01*
X42830600Y-67829085D01*
X42830600Y-67042700D01*
X42826794Y-67029738D01*
X42811879Y-67027802D01*
X42803332Y-67029271D01*
X42792220Y-67032248D01*
X42612695Y-67098479D01*
X42602317Y-67103429D01*
X42437873Y-67201263D01*
X42428561Y-67208029D01*
X42284697Y-67334194D01*
X42276780Y-67342537D01*
X42158318Y-67492805D01*
X42152050Y-67502456D01*
X42062958Y-67671792D01*
X42058553Y-67682427D01*
X42012762Y-67829898D01*
X42012543Y-67843999D01*
X41142500Y-67843999D01*
X41142500Y-64267069D01*
X41162502Y-64198948D01*
X41179404Y-64177974D01*
X41675772Y-63681605D01*
X41738085Y-63647580D01*
X41764868Y-63644700D01*
X41973365Y-63644700D01*
X42041486Y-63664702D01*
X42049348Y-63671038D01*
X42051116Y-63673684D01*
X42059982Y-63679608D01*
X42059983Y-63679609D01*
X42094080Y-63702392D01*
X42135299Y-63729934D01*
X42209533Y-63744700D01*
X43084458Y-63744700D01*
X43959666Y-63744699D01*
X43995418Y-63737588D01*
X44021726Y-63732356D01*
X44021728Y-63732355D01*
X44033901Y-63729934D01*
X44044221Y-63723039D01*
X44044222Y-63723038D01*
X44107768Y-63680577D01*
X44118084Y-63673684D01*
X44174334Y-63589501D01*
X44189100Y-63515267D01*
X44189099Y-62484000D01*
X45160715Y-62484000D01*
X45179772Y-62628754D01*
X45182931Y-62636380D01*
X45229550Y-62748927D01*
X45235645Y-62763642D01*
X45324526Y-62879474D01*
X45331076Y-62884500D01*
X45331079Y-62884503D01*
X45367794Y-62912675D01*
X45395450Y-62946736D01*
X45397485Y-62945422D01*
X45401786Y-62952083D01*
X45405219Y-62959232D01*
X45408814Y-62963508D01*
X45410737Y-62965431D01*
X45412509Y-62967363D01*
X45412552Y-62967442D01*
X45412428Y-62967555D01*
X45412904Y-62968095D01*
X45415990Y-62973814D01*
X45423635Y-62980881D01*
X45455586Y-63010416D01*
X45459152Y-63013846D01*
X52548595Y-70103289D01*
X52582621Y-70165601D01*
X52585500Y-70192384D01*
X52585500Y-71893936D01*
X52565498Y-71962057D01*
X52559463Y-71970640D01*
X52480645Y-72073358D01*
X52477486Y-72080984D01*
X52477485Y-72080986D01*
X52454016Y-72137646D01*
X52424772Y-72208246D01*
X52405715Y-72353000D01*
X52406793Y-72361188D01*
X52420306Y-72463828D01*
X52424772Y-72497754D01*
X52427931Y-72505380D01*
X52476083Y-72621628D01*
X52480645Y-72632642D01*
X52485672Y-72639193D01*
X52540645Y-72710835D01*
X52569526Y-72748474D01*
X52580266Y-72756715D01*
X52585901Y-72761039D01*
X52627767Y-72818378D01*
X52631987Y-72889249D01*
X52597222Y-72951151D01*
X52585897Y-72960964D01*
X52569526Y-72973526D01*
X52480645Y-73089358D01*
X52424772Y-73224246D01*
X52423695Y-73232430D01*
X52423694Y-73232432D01*
X52417333Y-73280748D01*
X52405715Y-73369000D01*
X52406793Y-73377188D01*
X52423274Y-73502372D01*
X52424772Y-73513754D01*
X52427931Y-73521380D01*
X52475992Y-73637408D01*
X52480645Y-73648642D01*
X52569526Y-73764474D01*
X52585901Y-73777039D01*
X52627767Y-73834378D01*
X52631987Y-73905249D01*
X52597222Y-73967151D01*
X52585897Y-73976964D01*
X52569526Y-73989526D01*
X52480645Y-74105358D01*
X52477486Y-74112984D01*
X52477485Y-74112986D01*
X52456513Y-74163618D01*
X52424772Y-74240246D01*
X52423695Y-74248430D01*
X52423694Y-74248432D01*
X52412775Y-74331372D01*
X52405715Y-74385000D01*
X52406793Y-74393188D01*
X52414090Y-74448612D01*
X52424772Y-74529754D01*
X52427931Y-74537380D01*
X52469628Y-74638044D01*
X52480645Y-74664642D01*
X52493061Y-74680823D01*
X52555027Y-74761578D01*
X52569526Y-74780474D01*
X52576076Y-74785500D01*
X52576079Y-74785503D01*
X52678804Y-74864327D01*
X52685357Y-74869355D01*
X52820246Y-74925228D01*
X52965000Y-74944285D01*
X52973188Y-74943207D01*
X53101566Y-74926306D01*
X53109754Y-74925228D01*
X53244643Y-74869355D01*
X53251196Y-74864327D01*
X53353921Y-74785503D01*
X53353924Y-74785500D01*
X53360474Y-74780474D01*
X53374974Y-74761578D01*
X53436939Y-74680823D01*
X53449355Y-74664642D01*
X53460373Y-74638044D01*
X53502069Y-74537380D01*
X53505228Y-74529754D01*
X53522128Y-74401388D01*
X53550849Y-74336462D01*
X53557954Y-74328740D01*
X54332216Y-73554478D01*
X54350964Y-73539336D01*
X54352189Y-73538221D01*
X54360940Y-73532571D01*
X54367387Y-73524393D01*
X54367389Y-73524391D01*
X54381729Y-73506200D01*
X54385675Y-73501759D01*
X54385602Y-73501697D01*
X54388961Y-73497733D01*
X54392638Y-73494056D01*
X54403892Y-73478308D01*
X54407398Y-73473638D01*
X54439156Y-73433353D01*
X54442188Y-73424719D01*
X54447514Y-73417266D01*
X54462203Y-73368150D01*
X54464036Y-73362508D01*
X54478390Y-73321633D01*
X54478390Y-73321632D01*
X54481018Y-73314149D01*
X54481500Y-73308584D01*
X54481500Y-73305876D01*
X54481614Y-73303242D01*
X54481643Y-73303144D01*
X54481807Y-73303151D01*
X54481851Y-73302447D01*
X54483713Y-73296222D01*
X54481597Y-73242365D01*
X54481500Y-73237418D01*
X54481500Y-69977000D01*
X56844715Y-69977000D01*
X56845793Y-69985188D01*
X56857433Y-70073601D01*
X56863772Y-70121754D01*
X56866931Y-70129380D01*
X56914279Y-70243687D01*
X56919645Y-70256642D01*
X56959140Y-70308113D01*
X56998463Y-70359360D01*
X57024063Y-70425581D01*
X57024500Y-70436064D01*
X57024500Y-79702080D01*
X57021951Y-79726028D01*
X57021872Y-79727693D01*
X57019680Y-79737876D01*
X57020904Y-79748217D01*
X57023627Y-79771223D01*
X57023977Y-79777154D01*
X57024072Y-79777146D01*
X57024500Y-79782324D01*
X57024500Y-79787524D01*
X57025354Y-79792653D01*
X57025354Y-79792656D01*
X57027669Y-79806565D01*
X57028506Y-79812443D01*
X57032818Y-79848872D01*
X57034530Y-79863341D01*
X57038493Y-79871593D01*
X57039996Y-79880626D01*
X57044943Y-79889795D01*
X57044944Y-79889797D01*
X57064334Y-79925732D01*
X57067031Y-79931025D01*
X57085785Y-79970082D01*
X57085788Y-79970086D01*
X57089219Y-79977232D01*
X57092814Y-79981508D01*
X57094737Y-79983431D01*
X57096509Y-79985363D01*
X57096552Y-79985442D01*
X57096428Y-79985555D01*
X57096904Y-79986095D01*
X57099990Y-79991814D01*
X57107635Y-79998881D01*
X57139586Y-80028416D01*
X57143152Y-80031846D01*
X59732046Y-82620740D01*
X59766072Y-82683052D01*
X59767871Y-82693380D01*
X59772920Y-82731727D01*
X59783304Y-82810601D01*
X59784772Y-82821754D01*
X59840645Y-82956642D01*
X59929526Y-83072474D01*
X59936076Y-83077500D01*
X59936079Y-83077503D01*
X60038804Y-83156327D01*
X60045357Y-83161355D01*
X60180246Y-83217228D01*
X60325000Y-83236285D01*
X60333188Y-83235207D01*
X60461566Y-83218306D01*
X60469754Y-83217228D01*
X60604643Y-83161355D01*
X60611196Y-83156327D01*
X60713921Y-83077503D01*
X60713924Y-83077500D01*
X60720474Y-83072474D01*
X60809355Y-82956642D01*
X60865228Y-82821754D01*
X60866697Y-82810601D01*
X60883207Y-82685188D01*
X60884285Y-82677000D01*
X60871472Y-82579675D01*
X60866306Y-82540432D01*
X60866305Y-82540430D01*
X60865228Y-82532246D01*
X60830489Y-82448380D01*
X60812515Y-82404986D01*
X60812514Y-82404984D01*
X60809355Y-82397358D01*
X60720474Y-82281526D01*
X60713924Y-82276500D01*
X60713921Y-82276497D01*
X60611196Y-82197673D01*
X60611194Y-82197672D01*
X60604643Y-82192645D01*
X60487779Y-82144238D01*
X60477383Y-82139932D01*
X60469754Y-82136772D01*
X60341389Y-82119873D01*
X60276463Y-82091151D01*
X60268741Y-82084046D01*
X58044886Y-79860192D01*
X60839637Y-79860192D01*
X60844547Y-79866751D01*
X60931726Y-79915474D01*
X60942966Y-79920384D01*
X61118504Y-79977420D01*
X61130478Y-79980053D01*
X61313760Y-80001908D01*
X61326009Y-80002165D01*
X61510044Y-79988004D01*
X61522124Y-79985873D01*
X61699892Y-79936239D01*
X61711325Y-79931805D01*
X61833529Y-79870075D01*
X61843813Y-79860430D01*
X61841575Y-79853786D01*
X61353811Y-79366021D01*
X61339868Y-79358408D01*
X61338034Y-79358539D01*
X61331420Y-79362790D01*
X60846394Y-79847817D01*
X60839637Y-79860192D01*
X58044886Y-79860192D01*
X57820405Y-79635711D01*
X57786380Y-79573399D01*
X57783500Y-79546616D01*
X57783500Y-78986057D01*
X60332756Y-78986057D01*
X60348200Y-79169978D01*
X60350414Y-79182040D01*
X60401290Y-79359463D01*
X60405806Y-79370868D01*
X60465117Y-79486275D01*
X60474838Y-79496496D01*
X60481637Y-79494152D01*
X60968979Y-79006811D01*
X60975356Y-78995132D01*
X61705408Y-78995132D01*
X61705539Y-78996966D01*
X61709790Y-79003580D01*
X62194732Y-79488521D01*
X62207107Y-79495278D01*
X62213841Y-79490237D01*
X62259593Y-79409701D01*
X62264583Y-79398492D01*
X62322842Y-79223359D01*
X62325560Y-79211392D01*
X62349023Y-79025672D01*
X62349514Y-79018645D01*
X62349809Y-78997505D01*
X62349516Y-78990513D01*
X62331245Y-78804179D01*
X62328862Y-78792141D01*
X62275517Y-78615454D01*
X62270843Y-78604113D01*
X62216605Y-78502106D01*
X62206745Y-78492025D01*
X62199618Y-78494593D01*
X61713021Y-78981189D01*
X61705408Y-78995132D01*
X60975356Y-78995132D01*
X60976592Y-78992868D01*
X60976461Y-78991034D01*
X60972210Y-78984420D01*
X60487062Y-78499273D01*
X60474687Y-78492516D01*
X60468298Y-78497298D01*
X60416690Y-78591172D01*
X60411861Y-78602438D01*
X60356050Y-78778377D01*
X60353502Y-78790366D01*
X60332927Y-78973789D01*
X60332756Y-78986057D01*
X57783500Y-78986057D01*
X57783500Y-78128063D01*
X60838783Y-78128063D01*
X60841238Y-78135027D01*
X61328189Y-78621979D01*
X61342132Y-78629592D01*
X61343966Y-78629461D01*
X61350580Y-78625210D01*
X61835886Y-78139903D01*
X61842643Y-78127528D01*
X61837984Y-78121304D01*
X61737368Y-78066901D01*
X61726062Y-78062149D01*
X61549746Y-78007570D01*
X61537733Y-78005104D01*
X61354171Y-77985811D01*
X61341903Y-77985726D01*
X61158098Y-78002453D01*
X61146049Y-78004751D01*
X60968984Y-78056864D01*
X60957616Y-78061457D01*
X60848932Y-78118276D01*
X60838783Y-78128063D01*
X57783500Y-78128063D01*
X57783500Y-71658744D01*
X57803502Y-71590623D01*
X57857158Y-71544130D01*
X57927432Y-71534026D01*
X57992012Y-71563520D01*
X58009463Y-71582040D01*
X58065263Y-71654760D01*
X58090863Y-71720980D01*
X58091300Y-71731464D01*
X58091300Y-73529880D01*
X58088751Y-73553828D01*
X58088672Y-73555493D01*
X58086480Y-73565676D01*
X58087704Y-73576017D01*
X58090427Y-73599023D01*
X58090777Y-73604954D01*
X58090872Y-73604946D01*
X58091300Y-73610124D01*
X58091300Y-73615324D01*
X58092154Y-73620453D01*
X58092154Y-73620456D01*
X58094469Y-73634365D01*
X58095306Y-73640243D01*
X58097338Y-73657408D01*
X58101330Y-73691141D01*
X58105293Y-73699393D01*
X58106796Y-73708426D01*
X58111743Y-73717595D01*
X58111744Y-73717597D01*
X58131134Y-73753532D01*
X58133831Y-73758825D01*
X58152585Y-73797882D01*
X58152588Y-73797886D01*
X58156019Y-73805032D01*
X58159614Y-73809308D01*
X58161537Y-73811231D01*
X58163309Y-73813163D01*
X58163352Y-73813242D01*
X58163228Y-73813355D01*
X58163704Y-73813895D01*
X58166790Y-73819614D01*
X58174435Y-73826681D01*
X58206386Y-73856216D01*
X58209952Y-73859646D01*
X60018522Y-75668216D01*
X60033664Y-75686964D01*
X60034779Y-75688189D01*
X60040429Y-75696940D01*
X60048607Y-75703387D01*
X60048609Y-75703389D01*
X60066800Y-75717729D01*
X60071241Y-75721675D01*
X60071303Y-75721602D01*
X60075267Y-75724961D01*
X60078944Y-75728638D01*
X60094692Y-75739892D01*
X60099362Y-75743398D01*
X60139647Y-75775156D01*
X60148281Y-75778188D01*
X60155734Y-75783514D01*
X60204850Y-75798203D01*
X60210492Y-75800036D01*
X60251367Y-75814390D01*
X60258851Y-75817018D01*
X60264416Y-75817500D01*
X60267124Y-75817500D01*
X60269758Y-75817614D01*
X60269856Y-75817643D01*
X60269849Y-75817807D01*
X60270553Y-75817851D01*
X60276778Y-75819713D01*
X60324856Y-75817824D01*
X60393710Y-75835136D01*
X60441867Y-75886130D01*
X60492566Y-75984779D01*
X60614927Y-76139160D01*
X60619620Y-76143154D01*
X60619621Y-76143155D01*
X60655405Y-76173609D01*
X60764945Y-76266835D01*
X60770323Y-76269841D01*
X60770325Y-76269842D01*
X60892038Y-76337865D01*
X60936904Y-76362940D01*
X61124255Y-76423814D01*
X61319862Y-76447139D01*
X61325997Y-76446667D01*
X61325999Y-76446667D01*
X61385801Y-76442065D01*
X61516274Y-76432026D01*
X61706009Y-76379050D01*
X61716169Y-76373918D01*
X61876341Y-76293010D01*
X61876343Y-76293009D01*
X61881842Y-76290231D01*
X62037074Y-76168950D01*
X62041100Y-76164286D01*
X62041103Y-76164283D01*
X62161764Y-76024496D01*
X62161765Y-76024494D01*
X62165793Y-76019828D01*
X62263096Y-75848544D01*
X62325277Y-75661622D01*
X62349966Y-75466183D01*
X62350360Y-75438000D01*
X62331137Y-75241948D01*
X62274200Y-75053363D01*
X62271307Y-75047922D01*
X62184611Y-74884871D01*
X62184609Y-74884868D01*
X62181717Y-74879429D01*
X62057212Y-74726770D01*
X61951323Y-74639171D01*
X61910177Y-74605132D01*
X61910174Y-74605130D01*
X61905427Y-74601203D01*
X61732143Y-74507508D01*
X61543960Y-74449256D01*
X61537835Y-74448612D01*
X61537834Y-74448612D01*
X61354176Y-74429309D01*
X61354174Y-74429309D01*
X61348047Y-74428665D01*
X61266018Y-74436130D01*
X61158004Y-74445960D01*
X61158001Y-74445961D01*
X61151865Y-74446519D01*
X61145959Y-74448257D01*
X61145955Y-74448258D01*
X61005775Y-74489516D01*
X60962887Y-74502138D01*
X60957427Y-74504992D01*
X60957428Y-74504992D01*
X60793772Y-74590549D01*
X60793768Y-74590552D01*
X60788312Y-74593404D01*
X60783512Y-74597264D01*
X60783511Y-74597264D01*
X60650005Y-74704605D01*
X60634788Y-74716840D01*
X60630821Y-74721568D01*
X60513666Y-74861187D01*
X60508163Y-74867745D01*
X60505876Y-74871905D01*
X60451268Y-74916500D01*
X60380729Y-74924549D01*
X60313198Y-74889503D01*
X58887205Y-73463511D01*
X58853180Y-73401199D01*
X58850300Y-73374416D01*
X58850300Y-71731464D01*
X58870302Y-71663343D01*
X58876337Y-71654760D01*
X58915660Y-71603513D01*
X58955155Y-71552042D01*
X58958433Y-71544130D01*
X59007869Y-71424780D01*
X59011028Y-71417154D01*
X59013435Y-71398876D01*
X59029007Y-71280588D01*
X59030085Y-71272400D01*
X59017334Y-71175544D01*
X59012106Y-71135832D01*
X59012105Y-71135830D01*
X59011028Y-71127646D01*
X58971190Y-71031469D01*
X58958315Y-71000386D01*
X58958314Y-71000384D01*
X58955155Y-70992758D01*
X58873280Y-70886056D01*
X58871301Y-70883477D01*
X58871300Y-70883476D01*
X58866274Y-70876926D01*
X58859724Y-70871900D01*
X58859721Y-70871897D01*
X58756996Y-70793073D01*
X58756994Y-70793072D01*
X58750443Y-70788045D01*
X58615554Y-70732172D01*
X58470800Y-70713115D01*
X58462612Y-70714193D01*
X58334232Y-70731094D01*
X58334230Y-70731095D01*
X58326046Y-70732172D01*
X58303831Y-70741374D01*
X58198786Y-70784885D01*
X58198784Y-70784886D01*
X58191158Y-70788045D01*
X58075326Y-70876926D01*
X58070303Y-70883472D01*
X58070299Y-70883476D01*
X58009462Y-70962760D01*
X57952124Y-71004627D01*
X57881253Y-71008849D01*
X57819350Y-70974085D01*
X57786069Y-70911372D01*
X57783500Y-70886056D01*
X57783500Y-70436064D01*
X57803502Y-70367943D01*
X57809537Y-70359360D01*
X57848860Y-70308113D01*
X57888355Y-70256642D01*
X57893722Y-70243687D01*
X57941069Y-70129380D01*
X57944228Y-70121754D01*
X57950568Y-70073601D01*
X57962207Y-69985188D01*
X57963285Y-69977000D01*
X57956533Y-69925715D01*
X57945306Y-69840432D01*
X57945305Y-69840430D01*
X57944228Y-69832246D01*
X57917459Y-69767621D01*
X57891515Y-69704986D01*
X57891514Y-69704984D01*
X57888355Y-69697358D01*
X57813488Y-69599789D01*
X57804501Y-69588077D01*
X57804500Y-69588076D01*
X57799474Y-69581526D01*
X57792924Y-69576500D01*
X57792921Y-69576497D01*
X57690196Y-69497673D01*
X57690194Y-69497672D01*
X57683643Y-69492645D01*
X57548754Y-69436772D01*
X57404000Y-69417715D01*
X57395812Y-69418793D01*
X57267432Y-69435694D01*
X57267430Y-69435695D01*
X57259246Y-69436772D01*
X57211430Y-69456578D01*
X57131986Y-69489485D01*
X57131984Y-69489486D01*
X57124358Y-69492645D01*
X57067583Y-69536210D01*
X57023855Y-69569764D01*
X57008526Y-69581526D01*
X57003503Y-69588072D01*
X56997022Y-69596518D01*
X56919645Y-69697358D01*
X56916486Y-69704984D01*
X56916485Y-69704986D01*
X56890541Y-69767621D01*
X56863772Y-69832246D01*
X56862695Y-69840430D01*
X56862694Y-69840432D01*
X56851467Y-69925715D01*
X56844715Y-69977000D01*
X54481500Y-69977000D01*
X54481500Y-69805384D01*
X54501502Y-69737263D01*
X54518405Y-69716289D01*
X55691694Y-68543000D01*
X59390715Y-68543000D01*
X59409772Y-68687754D01*
X59465645Y-68822642D01*
X59470672Y-68829193D01*
X59532053Y-68909186D01*
X59554526Y-68938474D01*
X59561076Y-68943500D01*
X59561079Y-68943503D01*
X59663804Y-69022327D01*
X59670357Y-69027355D01*
X59779011Y-69072361D01*
X59790754Y-69077225D01*
X59805246Y-69083228D01*
X59950000Y-69102285D01*
X59958188Y-69101207D01*
X60086566Y-69084306D01*
X60094754Y-69083228D01*
X60109247Y-69077225D01*
X60125480Y-69070501D01*
X60229643Y-69027355D01*
X60231894Y-69025628D01*
X60298445Y-69009480D01*
X60365537Y-69032699D01*
X60381549Y-69046243D01*
X61047004Y-69711698D01*
X61081030Y-69774010D01*
X61075965Y-69844825D01*
X61033418Y-69901661D01*
X60966898Y-69926472D01*
X60965995Y-69926504D01*
X60960000Y-69925715D01*
X60951812Y-69926793D01*
X60823432Y-69943694D01*
X60823430Y-69943695D01*
X60815246Y-69944772D01*
X60807619Y-69947931D01*
X60807620Y-69947931D01*
X60687986Y-69997485D01*
X60687984Y-69997486D01*
X60680358Y-70000645D01*
X60564526Y-70089526D01*
X60475645Y-70205358D01*
X60472486Y-70212984D01*
X60472485Y-70212986D01*
X60462656Y-70236715D01*
X60419772Y-70340246D01*
X60418695Y-70348430D01*
X60418694Y-70348432D01*
X60408327Y-70427178D01*
X60400715Y-70485000D01*
X60401793Y-70493188D01*
X60409527Y-70551931D01*
X60419772Y-70629754D01*
X60429859Y-70654105D01*
X60470927Y-70753251D01*
X60475645Y-70764642D01*
X60510102Y-70809547D01*
X60557945Y-70871897D01*
X60564526Y-70880474D01*
X60571076Y-70885500D01*
X60571079Y-70885503D01*
X60651643Y-70947322D01*
X60693511Y-71004660D01*
X60697732Y-71075531D01*
X60662967Y-71137434D01*
X60653890Y-71145481D01*
X60639599Y-71156971D01*
X60639594Y-71156976D01*
X60634788Y-71160840D01*
X60508163Y-71311745D01*
X60503004Y-71321130D01*
X60432968Y-71448526D01*
X60413262Y-71484371D01*
X60411398Y-71490246D01*
X60411397Y-71490249D01*
X60379557Y-71590623D01*
X60353697Y-71672142D01*
X60331738Y-71867907D01*
X60332254Y-71874051D01*
X60344404Y-72018736D01*
X60348222Y-72064209D01*
X60363545Y-72117646D01*
X60391872Y-72216432D01*
X60402521Y-72253570D01*
X60431602Y-72310155D01*
X60484893Y-72413848D01*
X60492566Y-72428779D01*
X60496389Y-72433603D01*
X60496392Y-72433607D01*
X60547235Y-72497754D01*
X60614927Y-72583160D01*
X60619620Y-72587154D01*
X60619621Y-72587155D01*
X60666215Y-72626809D01*
X60764945Y-72710835D01*
X60770323Y-72713841D01*
X60770325Y-72713842D01*
X60895298Y-72783687D01*
X60936904Y-72806940D01*
X61124255Y-72867814D01*
X61319862Y-72891139D01*
X61325997Y-72890667D01*
X61325999Y-72890667D01*
X61385801Y-72886065D01*
X61516274Y-72876026D01*
X61706009Y-72823050D01*
X61711513Y-72820270D01*
X61876341Y-72737010D01*
X61876343Y-72737009D01*
X61881842Y-72734231D01*
X62037074Y-72612950D01*
X62041100Y-72608286D01*
X62041103Y-72608283D01*
X62161764Y-72468496D01*
X62161765Y-72468494D01*
X62165793Y-72463828D01*
X62263096Y-72292544D01*
X62325277Y-72105622D01*
X62349966Y-71910183D01*
X62350193Y-71893936D01*
X62350311Y-71885522D01*
X62350311Y-71885518D01*
X62350360Y-71882000D01*
X62331137Y-71685948D01*
X62274200Y-71497363D01*
X62271307Y-71491922D01*
X62184611Y-71328871D01*
X62184609Y-71328868D01*
X62181717Y-71323429D01*
X62057212Y-71170770D01*
X61968526Y-71097403D01*
X61910177Y-71049132D01*
X61910174Y-71049130D01*
X61905427Y-71045203D01*
X61900002Y-71042270D01*
X61899998Y-71042267D01*
X61790383Y-70982997D01*
X61739974Y-70933002D01*
X61728521Y-70883745D01*
X61725320Y-70884124D01*
X61721374Y-70850787D01*
X61721023Y-70844846D01*
X61720928Y-70844854D01*
X61720500Y-70839674D01*
X61720500Y-70834476D01*
X61717329Y-70815424D01*
X61716492Y-70809547D01*
X61711693Y-70768997D01*
X61711692Y-70768995D01*
X61710469Y-70758659D01*
X61706508Y-70750410D01*
X61705004Y-70741374D01*
X61700039Y-70732172D01*
X61680652Y-70696240D01*
X61677958Y-70690954D01*
X61676124Y-70687135D01*
X61664666Y-70617070D01*
X61692906Y-70551931D01*
X61751880Y-70512402D01*
X61822864Y-70511031D01*
X61878801Y-70543495D01*
X62575595Y-71240289D01*
X62609621Y-71302601D01*
X62612500Y-71329384D01*
X62612500Y-80083080D01*
X62609951Y-80107028D01*
X62609872Y-80108693D01*
X62607680Y-80118876D01*
X62608904Y-80129217D01*
X62611627Y-80152223D01*
X62611977Y-80158154D01*
X62612072Y-80158146D01*
X62612500Y-80163324D01*
X62612500Y-80168524D01*
X62613354Y-80173653D01*
X62613354Y-80173656D01*
X62615669Y-80187565D01*
X62616506Y-80193443D01*
X62622530Y-80244341D01*
X62626493Y-80252593D01*
X62627996Y-80261626D01*
X62632943Y-80270795D01*
X62632944Y-80270797D01*
X62652334Y-80306732D01*
X62655031Y-80312025D01*
X62673785Y-80351082D01*
X62673788Y-80351086D01*
X62677219Y-80358232D01*
X62680814Y-80362508D01*
X62682737Y-80364431D01*
X62684509Y-80366363D01*
X62684552Y-80366442D01*
X62684428Y-80366555D01*
X62684904Y-80367095D01*
X62687990Y-80372814D01*
X62695635Y-80379881D01*
X62727586Y-80409416D01*
X62731152Y-80412846D01*
X64844522Y-82526216D01*
X64859664Y-82544964D01*
X64860779Y-82546189D01*
X64866429Y-82554940D01*
X64874607Y-82561387D01*
X64874609Y-82561389D01*
X64892800Y-82575729D01*
X64897241Y-82579675D01*
X64897303Y-82579602D01*
X64901267Y-82582961D01*
X64904944Y-82586638D01*
X64920692Y-82597892D01*
X64925362Y-82601398D01*
X64965647Y-82633156D01*
X64974281Y-82636188D01*
X64981734Y-82641514D01*
X65030850Y-82656203D01*
X65036492Y-82658036D01*
X65077367Y-82672390D01*
X65084851Y-82675018D01*
X65090416Y-82675500D01*
X65093124Y-82675500D01*
X65095758Y-82675614D01*
X65095856Y-82675643D01*
X65095849Y-82675807D01*
X65096553Y-82675851D01*
X65102778Y-82677713D01*
X65156635Y-82675597D01*
X65161582Y-82675500D01*
X65898438Y-82675500D01*
X65966559Y-82695502D01*
X65975126Y-82701526D01*
X66077857Y-82780355D01*
X66194381Y-82828621D01*
X66196214Y-82829380D01*
X66212746Y-82836228D01*
X66220934Y-82837306D01*
X66285123Y-82845756D01*
X66357500Y-82855285D01*
X66365688Y-82854207D01*
X66494066Y-82837306D01*
X66502254Y-82836228D01*
X66518787Y-82829380D01*
X66520619Y-82828621D01*
X66565678Y-82809957D01*
X68353629Y-82809957D01*
X68355062Y-82820007D01*
X68368631Y-82824000D01*
X69282085Y-82824000D01*
X69297324Y-82819525D01*
X69298529Y-82818135D01*
X69300200Y-82810452D01*
X69300200Y-82805885D01*
X69808200Y-82805885D01*
X69812675Y-82821124D01*
X69814065Y-82822329D01*
X69821748Y-82824000D01*
X70735488Y-82824000D01*
X70749019Y-82820027D01*
X70750374Y-82810601D01*
X70729207Y-82722771D01*
X70725318Y-82711476D01*
X70643088Y-82530621D01*
X70637141Y-82520279D01*
X70522190Y-82358228D01*
X70514397Y-82349200D01*
X70370879Y-82211811D01*
X70361514Y-82204415D01*
X70194610Y-82096646D01*
X70184006Y-82091150D01*
X69999748Y-82016892D01*
X69988289Y-82013498D01*
X69825982Y-81981802D01*
X69813032Y-81983006D01*
X69808200Y-81998057D01*
X69808200Y-82805885D01*
X69300200Y-82805885D01*
X69300200Y-81999401D01*
X69295949Y-81984923D01*
X69283688Y-81982861D01*
X69225465Y-81988416D01*
X69213729Y-81990676D01*
X69023109Y-82046598D01*
X69012006Y-82051039D01*
X68835393Y-82142000D01*
X68825347Y-82148450D01*
X68669114Y-82271171D01*
X68660465Y-82279408D01*
X68530260Y-82429457D01*
X68523323Y-82439183D01*
X68423843Y-82611139D01*
X68418869Y-82622003D01*
X68353697Y-82809678D01*
X68353629Y-82809957D01*
X66565678Y-82809957D01*
X66637143Y-82780355D01*
X66700516Y-82731727D01*
X66746421Y-82696503D01*
X66746424Y-82696500D01*
X66752974Y-82691474D01*
X66759437Y-82683052D01*
X66824808Y-82597858D01*
X66841855Y-82575642D01*
X66854563Y-82544964D01*
X66894569Y-82448380D01*
X66897728Y-82440754D01*
X66899216Y-82429457D01*
X66915707Y-82304188D01*
X66916785Y-82296000D01*
X66908673Y-82234385D01*
X66898806Y-82159432D01*
X66898805Y-82159430D01*
X66897728Y-82151246D01*
X66875112Y-82096646D01*
X66845015Y-82023986D01*
X66845014Y-82023984D01*
X66841855Y-82016358D01*
X66752974Y-81900526D01*
X66746424Y-81895500D01*
X66746421Y-81895497D01*
X66643696Y-81816673D01*
X66643694Y-81816672D01*
X66637143Y-81811645D01*
X66502254Y-81755772D01*
X66357500Y-81736715D01*
X66349312Y-81737793D01*
X66220932Y-81754694D01*
X66220930Y-81754695D01*
X66212746Y-81755772D01*
X66164930Y-81775578D01*
X66085486Y-81808485D01*
X66085484Y-81808486D01*
X66077858Y-81811645D01*
X66026387Y-81851140D01*
X65975140Y-81890463D01*
X65908919Y-81916063D01*
X65898436Y-81916500D01*
X65360384Y-81916500D01*
X65292263Y-81896498D01*
X65271289Y-81879595D01*
X63915494Y-80523800D01*
X68321001Y-80523800D01*
X68330745Y-80734333D01*
X68332149Y-80740158D01*
X68376774Y-80925324D01*
X68380124Y-80939226D01*
X68467357Y-81131084D01*
X68589296Y-81302986D01*
X68741540Y-81448728D01*
X68746575Y-81451979D01*
X68913560Y-81559800D01*
X68913563Y-81559801D01*
X68918597Y-81563052D01*
X69114078Y-81641834D01*
X69236888Y-81665817D01*
X69316483Y-81681361D01*
X69316486Y-81681361D01*
X69320929Y-81682229D01*
X69326470Y-81682500D01*
X69731859Y-81682500D01*
X69889006Y-81667507D01*
X70091242Y-81608177D01*
X70174504Y-81565294D01*
X70273279Y-81514422D01*
X70273282Y-81514420D01*
X70278610Y-81511676D01*
X70358599Y-81448844D01*
X70439632Y-81385192D01*
X70439636Y-81385188D01*
X70444349Y-81381486D01*
X70508874Y-81307128D01*
X70578550Y-81226835D01*
X70578554Y-81226830D01*
X70582481Y-81222304D01*
X70688019Y-81039874D01*
X70757157Y-80840778D01*
X70768373Y-80763427D01*
X70786538Y-80638140D01*
X70786538Y-80638137D01*
X70787399Y-80632200D01*
X70777655Y-80421667D01*
X70775104Y-80411079D01*
X70729682Y-80222607D01*
X70729681Y-80222605D01*
X70728276Y-80216774D01*
X70714996Y-80187565D01*
X70643523Y-80030371D01*
X70641043Y-80024916D01*
X70528807Y-79866693D01*
X70522570Y-79857900D01*
X70522569Y-79857899D01*
X70519104Y-79853014D01*
X70366860Y-79707272D01*
X70265118Y-79641578D01*
X70194840Y-79596200D01*
X70194837Y-79596199D01*
X70189803Y-79592948D01*
X69994322Y-79514166D01*
X69820797Y-79480279D01*
X69791917Y-79474639D01*
X69791914Y-79474639D01*
X69787471Y-79473771D01*
X69781930Y-79473500D01*
X69376541Y-79473500D01*
X69219394Y-79488493D01*
X69017158Y-79547823D01*
X69011819Y-79550573D01*
X68835121Y-79641578D01*
X68835118Y-79641580D01*
X68829790Y-79644324D01*
X68825075Y-79648028D01*
X68668768Y-79770808D01*
X68668764Y-79770812D01*
X68664051Y-79774514D01*
X68660120Y-79779044D01*
X68660119Y-79779045D01*
X68529850Y-79929165D01*
X68529846Y-79929170D01*
X68525919Y-79933696D01*
X68420381Y-80116126D01*
X68351243Y-80315222D01*
X68350383Y-80321155D01*
X68350382Y-80321158D01*
X68337088Y-80412846D01*
X68321001Y-80523800D01*
X63915494Y-80523800D01*
X63408405Y-80016711D01*
X63374379Y-79954399D01*
X63371500Y-79927616D01*
X63371500Y-77602238D01*
X63391502Y-77534117D01*
X63445158Y-77487624D01*
X63515432Y-77477520D01*
X63580012Y-77507014D01*
X63600396Y-77529517D01*
X63672533Y-77631589D01*
X63817938Y-77773235D01*
X63986720Y-77886012D01*
X63992023Y-77888290D01*
X63992026Y-77888292D01*
X64080707Y-77926392D01*
X64173228Y-77966142D01*
X64246244Y-77982664D01*
X64365579Y-78009667D01*
X64365584Y-78009668D01*
X64371216Y-78010942D01*
X64376987Y-78011169D01*
X64376989Y-78011169D01*
X64436756Y-78013517D01*
X64574053Y-78018912D01*
X64687569Y-78002453D01*
X64769231Y-77990613D01*
X64769236Y-77990612D01*
X64774945Y-77989784D01*
X64780409Y-77987929D01*
X64780414Y-77987928D01*
X64961693Y-77926392D01*
X64961698Y-77926390D01*
X64967165Y-77924534D01*
X65144276Y-77825347D01*
X65162876Y-77809878D01*
X65295913Y-77699231D01*
X65300345Y-77695545D01*
X65430147Y-77539476D01*
X65529334Y-77362365D01*
X65531190Y-77356898D01*
X65531192Y-77356893D01*
X65592728Y-77175614D01*
X65592729Y-77175609D01*
X65594584Y-77170145D01*
X65595412Y-77164436D01*
X65595413Y-77164431D01*
X65623179Y-76972927D01*
X65623712Y-76969253D01*
X65625232Y-76911200D01*
X65610577Y-76751710D01*
X65607187Y-76714813D01*
X65607186Y-76714810D01*
X65606658Y-76709059D01*
X65598694Y-76680820D01*
X65553125Y-76519246D01*
X65553124Y-76519244D01*
X65551557Y-76513687D01*
X65525866Y-76461589D01*
X65464331Y-76336809D01*
X65461776Y-76331628D01*
X65439871Y-76302293D01*
X65343777Y-76173609D01*
X65340320Y-76168979D01*
X65191258Y-76031187D01*
X65186375Y-76028106D01*
X65186371Y-76028103D01*
X65024464Y-75925948D01*
X65019581Y-75922867D01*
X64831039Y-75847646D01*
X64825379Y-75846520D01*
X64825375Y-75846519D01*
X64637613Y-75809171D01*
X64637610Y-75809171D01*
X64631946Y-75808044D01*
X64626171Y-75807968D01*
X64626167Y-75807968D01*
X64524793Y-75806641D01*
X64428971Y-75805387D01*
X64423274Y-75806366D01*
X64423273Y-75806366D01*
X64357791Y-75817618D01*
X64228910Y-75839764D01*
X64038463Y-75910024D01*
X63864010Y-76013812D01*
X63859670Y-76017618D01*
X63859666Y-76017621D01*
X63726587Y-76134329D01*
X63711392Y-76147655D01*
X63707817Y-76152190D01*
X63707816Y-76152191D01*
X63596450Y-76293458D01*
X63538569Y-76334571D01*
X63467649Y-76337865D01*
X63406206Y-76302293D01*
X63373749Y-76239150D01*
X63371500Y-76215452D01*
X63371500Y-75712164D01*
X70112748Y-75712164D01*
X70126024Y-75914722D01*
X70127445Y-75920318D01*
X70127446Y-75920323D01*
X70156599Y-76035111D01*
X70175992Y-76111469D01*
X70178409Y-76116712D01*
X70215610Y-76197408D01*
X70260977Y-76295816D01*
X70268930Y-76307069D01*
X70367406Y-76446410D01*
X70378133Y-76461589D01*
X70523538Y-76603235D01*
X70692320Y-76716012D01*
X70697623Y-76718290D01*
X70697626Y-76718292D01*
X70873521Y-76793862D01*
X70878828Y-76796142D01*
X70948703Y-76811953D01*
X71071179Y-76839667D01*
X71071184Y-76839668D01*
X71076816Y-76840942D01*
X71082587Y-76841169D01*
X71082589Y-76841169D01*
X71142356Y-76843517D01*
X71279653Y-76848912D01*
X71380099Y-76834348D01*
X71474831Y-76820613D01*
X71474836Y-76820612D01*
X71480545Y-76819784D01*
X71486009Y-76817929D01*
X71486014Y-76817928D01*
X71667293Y-76756392D01*
X71667298Y-76756390D01*
X71672765Y-76754534D01*
X71849876Y-76655347D01*
X71912534Y-76603235D01*
X72001513Y-76529231D01*
X72005945Y-76525545D01*
X72083332Y-76432498D01*
X72132053Y-76373918D01*
X72132055Y-76373915D01*
X72135747Y-76369476D01*
X72234934Y-76192365D01*
X72236790Y-76186898D01*
X72236792Y-76186893D01*
X72298328Y-76005614D01*
X72298329Y-76005609D01*
X72300184Y-76000145D01*
X72301012Y-75994436D01*
X72301013Y-75994431D01*
X72318591Y-75873196D01*
X72329312Y-75799253D01*
X72330832Y-75741200D01*
X72312258Y-75539059D01*
X72310690Y-75533499D01*
X72258725Y-75349246D01*
X72258724Y-75349244D01*
X72257157Y-75343687D01*
X72246578Y-75322233D01*
X72169931Y-75166809D01*
X72167376Y-75161628D01*
X72045920Y-74998979D01*
X71896858Y-74861187D01*
X71891975Y-74858106D01*
X71891971Y-74858103D01*
X71730064Y-74755948D01*
X71725181Y-74752867D01*
X71536639Y-74677646D01*
X71530979Y-74676520D01*
X71530975Y-74676519D01*
X71343213Y-74639171D01*
X71343210Y-74639171D01*
X71337546Y-74638044D01*
X71331771Y-74637968D01*
X71331767Y-74637968D01*
X71230393Y-74636641D01*
X71134571Y-74635387D01*
X71128874Y-74636366D01*
X71128873Y-74636366D01*
X71088433Y-74643315D01*
X70934510Y-74669764D01*
X70744063Y-74740024D01*
X70569610Y-74843812D01*
X70565270Y-74847618D01*
X70565266Y-74847621D01*
X70476773Y-74925228D01*
X70416992Y-74977655D01*
X70291320Y-75137069D01*
X70288631Y-75142180D01*
X70288629Y-75142183D01*
X70275673Y-75166809D01*
X70196803Y-75316715D01*
X70136607Y-75510578D01*
X70112748Y-75712164D01*
X63371500Y-75712164D01*
X63371500Y-75565480D01*
X63391502Y-75497359D01*
X63445158Y-75450866D01*
X63515432Y-75440762D01*
X63545718Y-75449071D01*
X63579066Y-75462884D01*
X63634915Y-75473993D01*
X63647170Y-75475200D01*
X64243885Y-75475200D01*
X64259124Y-75470725D01*
X64260329Y-75469335D01*
X64262000Y-75461652D01*
X64262000Y-75457084D01*
X64770000Y-75457084D01*
X64774475Y-75472323D01*
X64775865Y-75473528D01*
X64783548Y-75475199D01*
X65384828Y-75475199D01*
X65397088Y-75473991D01*
X65452931Y-75462885D01*
X65475427Y-75453567D01*
X65538808Y-75411217D01*
X65556017Y-75394008D01*
X65598368Y-75330625D01*
X65607684Y-75308134D01*
X65618793Y-75252285D01*
X65620000Y-75240030D01*
X65620000Y-74643315D01*
X65615525Y-74628076D01*
X65614135Y-74626871D01*
X65606452Y-74625200D01*
X64788115Y-74625200D01*
X64772876Y-74629675D01*
X64771671Y-74631065D01*
X64770000Y-74638748D01*
X64770000Y-75457084D01*
X64262000Y-75457084D01*
X64262000Y-74099085D01*
X64770000Y-74099085D01*
X64774475Y-74114324D01*
X64775865Y-74115529D01*
X64783548Y-74117200D01*
X65601884Y-74117200D01*
X65617123Y-74112725D01*
X65618328Y-74111335D01*
X65619999Y-74103652D01*
X65619999Y-73502372D01*
X65618791Y-73490112D01*
X65607685Y-73434269D01*
X65598367Y-73411773D01*
X65556017Y-73348392D01*
X65538808Y-73331183D01*
X65475425Y-73288832D01*
X65452934Y-73279516D01*
X65397085Y-73268407D01*
X65384830Y-73267200D01*
X64788115Y-73267200D01*
X64772876Y-73271675D01*
X64771671Y-73273065D01*
X64770000Y-73280748D01*
X64770000Y-74099085D01*
X64262000Y-74099085D01*
X64262000Y-73285316D01*
X64257525Y-73270077D01*
X64256135Y-73268872D01*
X64248452Y-73267201D01*
X63647172Y-73267201D01*
X63634912Y-73268409D01*
X63579069Y-73279515D01*
X63545716Y-73293330D01*
X63475126Y-73300918D01*
X63411640Y-73269137D01*
X63375413Y-73208078D01*
X63371500Y-73176920D01*
X63371500Y-71348838D01*
X63391502Y-71280717D01*
X63445158Y-71234224D01*
X63515432Y-71224120D01*
X63580012Y-71253614D01*
X63600396Y-71276117D01*
X63610574Y-71290518D01*
X63657466Y-71356869D01*
X63672533Y-71378189D01*
X63817938Y-71519835D01*
X63822742Y-71523045D01*
X63839176Y-71534026D01*
X63986720Y-71632612D01*
X63992023Y-71634890D01*
X63992026Y-71634892D01*
X64134590Y-71696142D01*
X64173228Y-71712742D01*
X64246244Y-71729264D01*
X64365579Y-71756267D01*
X64365584Y-71756268D01*
X64371216Y-71757542D01*
X64376987Y-71757769D01*
X64376989Y-71757769D01*
X64425297Y-71759667D01*
X64574053Y-71765512D01*
X64674499Y-71750948D01*
X64769231Y-71737213D01*
X64769236Y-71737212D01*
X64774945Y-71736384D01*
X64780409Y-71734529D01*
X64780414Y-71734528D01*
X64961693Y-71672992D01*
X64961698Y-71672990D01*
X64967165Y-71671134D01*
X64972460Y-71668169D01*
X65071324Y-71612802D01*
X65144276Y-71571947D01*
X65154409Y-71563520D01*
X65295913Y-71445831D01*
X65300345Y-71442145D01*
X65377948Y-71348838D01*
X65426453Y-71290518D01*
X65426455Y-71290515D01*
X65430147Y-71286076D01*
X65529334Y-71108965D01*
X65531190Y-71103498D01*
X65531192Y-71103493D01*
X65592728Y-70922214D01*
X65592729Y-70922209D01*
X65594584Y-70916745D01*
X65595412Y-70911036D01*
X65595413Y-70911031D01*
X65617367Y-70759612D01*
X65623712Y-70715853D01*
X65625232Y-70657800D01*
X65611188Y-70504963D01*
X65607187Y-70461413D01*
X65607186Y-70461410D01*
X65606658Y-70455659D01*
X65600408Y-70433499D01*
X65553125Y-70265846D01*
X65553124Y-70265844D01*
X65551557Y-70260287D01*
X65546113Y-70249246D01*
X65464331Y-70083409D01*
X65461776Y-70078228D01*
X65340320Y-69915579D01*
X65191258Y-69777787D01*
X65186375Y-69774706D01*
X65186371Y-69774703D01*
X65024464Y-69672548D01*
X65019581Y-69669467D01*
X64831039Y-69594246D01*
X64825379Y-69593120D01*
X64825375Y-69593119D01*
X64637613Y-69555771D01*
X64637610Y-69555771D01*
X64631946Y-69554644D01*
X64626171Y-69554568D01*
X64626167Y-69554568D01*
X64524793Y-69553241D01*
X64428971Y-69551987D01*
X64423274Y-69552966D01*
X64423273Y-69552966D01*
X64286332Y-69576497D01*
X64228910Y-69586364D01*
X64138292Y-69619795D01*
X64046064Y-69653820D01*
X64038463Y-69656624D01*
X63864010Y-69760412D01*
X63859670Y-69764218D01*
X63859666Y-69764221D01*
X63725148Y-69882191D01*
X63711392Y-69894255D01*
X63707817Y-69898790D01*
X63707816Y-69898791D01*
X63705136Y-69902191D01*
X63585720Y-70053669D01*
X63583031Y-70058780D01*
X63583029Y-70058783D01*
X63559613Y-70103289D01*
X63491203Y-70233315D01*
X63483960Y-70256642D01*
X63437875Y-70405061D01*
X63431007Y-70427178D01*
X63407148Y-70628764D01*
X63407526Y-70634530D01*
X63411183Y-70690328D01*
X63395679Y-70759612D01*
X63345179Y-70809514D01*
X63275716Y-70824192D01*
X63209345Y-70798986D01*
X63196358Y-70787664D01*
X61395322Y-68986628D01*
X63412001Y-68986628D01*
X63413209Y-68998888D01*
X63424315Y-69054731D01*
X63433633Y-69077227D01*
X63475983Y-69140608D01*
X63493192Y-69157817D01*
X63556575Y-69200168D01*
X63579066Y-69209484D01*
X63634915Y-69220593D01*
X63647170Y-69221800D01*
X64243885Y-69221800D01*
X64259124Y-69217325D01*
X64260329Y-69215935D01*
X64262000Y-69208252D01*
X64262000Y-69203684D01*
X64770000Y-69203684D01*
X64774475Y-69218923D01*
X64775865Y-69220128D01*
X64783548Y-69221799D01*
X65384828Y-69221799D01*
X65397088Y-69220591D01*
X65452931Y-69209485D01*
X65475427Y-69200167D01*
X65538808Y-69157817D01*
X65556017Y-69140608D01*
X65598368Y-69077225D01*
X65607684Y-69054734D01*
X65618793Y-68998885D01*
X65620000Y-68986630D01*
X65620000Y-68389915D01*
X65615525Y-68374676D01*
X65614135Y-68373471D01*
X65606452Y-68371800D01*
X64788115Y-68371800D01*
X64772876Y-68376275D01*
X64771671Y-68377665D01*
X64770000Y-68385348D01*
X64770000Y-69203684D01*
X64262000Y-69203684D01*
X64262000Y-68389915D01*
X64257525Y-68374676D01*
X64256135Y-68373471D01*
X64248452Y-68371800D01*
X63430116Y-68371800D01*
X63414877Y-68376275D01*
X63413672Y-68377665D01*
X63412001Y-68385348D01*
X63412001Y-68986628D01*
X61395322Y-68986628D01*
X60721478Y-68312784D01*
X60706336Y-68294036D01*
X60705221Y-68292811D01*
X60699571Y-68284060D01*
X60691393Y-68277613D01*
X60691391Y-68277611D01*
X60673200Y-68263271D01*
X60668759Y-68259325D01*
X60668697Y-68259398D01*
X60664733Y-68256039D01*
X60661056Y-68252362D01*
X60645308Y-68241108D01*
X60640638Y-68237602D01*
X60600353Y-68205844D01*
X60591719Y-68202812D01*
X60584266Y-68197486D01*
X60535150Y-68182797D01*
X60529508Y-68180964D01*
X60488633Y-68166610D01*
X60488632Y-68166610D01*
X60481149Y-68163982D01*
X60475584Y-68163500D01*
X60472876Y-68163500D01*
X60470242Y-68163386D01*
X60470144Y-68163357D01*
X60470151Y-68163193D01*
X60469447Y-68163149D01*
X60463222Y-68161287D01*
X60442791Y-68162090D01*
X60413782Y-68163229D01*
X60344928Y-68145916D01*
X60332132Y-68137288D01*
X60306879Y-68117911D01*
X60229643Y-68058645D01*
X60094754Y-68002772D01*
X59950000Y-67983715D01*
X59941812Y-67984793D01*
X59813432Y-68001694D01*
X59813430Y-68001695D01*
X59805246Y-68002772D01*
X59757430Y-68022578D01*
X59677986Y-68055485D01*
X59677984Y-68055486D01*
X59670358Y-68058645D01*
X59554526Y-68147526D01*
X59465645Y-68263358D01*
X59462486Y-68270984D01*
X59462485Y-68270986D01*
X59449100Y-68303300D01*
X59409772Y-68398246D01*
X59390715Y-68543000D01*
X55691694Y-68543000D01*
X56389009Y-67845685D01*
X63412000Y-67845685D01*
X63416475Y-67860924D01*
X63417865Y-67862129D01*
X63425548Y-67863800D01*
X64243885Y-67863800D01*
X64259124Y-67859325D01*
X64260329Y-67857935D01*
X64262000Y-67850252D01*
X64262000Y-67845685D01*
X64770000Y-67845685D01*
X64774475Y-67860924D01*
X64775865Y-67862129D01*
X64783548Y-67863800D01*
X65601884Y-67863800D01*
X65617123Y-67859325D01*
X65618328Y-67857935D01*
X65619999Y-67850252D01*
X65619999Y-67248972D01*
X65618791Y-67236712D01*
X65607685Y-67180869D01*
X65598367Y-67158373D01*
X65556017Y-67094992D01*
X65538808Y-67077783D01*
X65475425Y-67035432D01*
X65452934Y-67026116D01*
X65397085Y-67015007D01*
X65384830Y-67013800D01*
X64788115Y-67013800D01*
X64772876Y-67018275D01*
X64771671Y-67019665D01*
X64770000Y-67027348D01*
X64770000Y-67845685D01*
X64262000Y-67845685D01*
X64262000Y-67031916D01*
X64257525Y-67016677D01*
X64256135Y-67015472D01*
X64248452Y-67013801D01*
X63647172Y-67013801D01*
X63634912Y-67015009D01*
X63579069Y-67026115D01*
X63556573Y-67035433D01*
X63493192Y-67077783D01*
X63475983Y-67094992D01*
X63433632Y-67158375D01*
X63424316Y-67180866D01*
X63413207Y-67236715D01*
X63412000Y-67248970D01*
X63412000Y-67845685D01*
X56389009Y-67845685D01*
X58022500Y-66212194D01*
X58084812Y-66178168D01*
X58111595Y-66175289D01*
X58722938Y-66175289D01*
X58791059Y-66195291D01*
X58799626Y-66201315D01*
X58902357Y-66280144D01*
X59037246Y-66336017D01*
X59182000Y-66355074D01*
X59190188Y-66353996D01*
X59318566Y-66337095D01*
X59326754Y-66336017D01*
X59461643Y-66280144D01*
X59468196Y-66275116D01*
X59570921Y-66196292D01*
X59570924Y-66196289D01*
X59577474Y-66191263D01*
X59666355Y-66075431D01*
X59693223Y-66010568D01*
X59719069Y-65948169D01*
X59722228Y-65940543D01*
X59729911Y-65882188D01*
X59740207Y-65803977D01*
X59741285Y-65795789D01*
X59722228Y-65651035D01*
X59666355Y-65516147D01*
X59601255Y-65431307D01*
X59582501Y-65406866D01*
X59582500Y-65406865D01*
X59577474Y-65400315D01*
X59570924Y-65395289D01*
X59570921Y-65395286D01*
X59468196Y-65316462D01*
X59468194Y-65316461D01*
X59461643Y-65311434D01*
X59326754Y-65255561D01*
X59182000Y-65236504D01*
X59173812Y-65237582D01*
X59045432Y-65254483D01*
X59045430Y-65254484D01*
X59037246Y-65255561D01*
X58989430Y-65275367D01*
X58909986Y-65308274D01*
X58909984Y-65308275D01*
X58902358Y-65311434D01*
X58850887Y-65350929D01*
X58799640Y-65390252D01*
X58733419Y-65415852D01*
X58722936Y-65416289D01*
X57956131Y-65416289D01*
X57932183Y-65413740D01*
X57930518Y-65413661D01*
X57920335Y-65411469D01*
X57909994Y-65412693D01*
X57886988Y-65415416D01*
X57881057Y-65415766D01*
X57881065Y-65415861D01*
X57875887Y-65416289D01*
X57870687Y-65416289D01*
X57865558Y-65417143D01*
X57865555Y-65417143D01*
X57851646Y-65419458D01*
X57845768Y-65420295D01*
X57805210Y-65425095D01*
X57805209Y-65425095D01*
X57794870Y-65426319D01*
X57786618Y-65430282D01*
X57777585Y-65431785D01*
X57768416Y-65436732D01*
X57768414Y-65436733D01*
X57732479Y-65456123D01*
X57727186Y-65458820D01*
X57688129Y-65477574D01*
X57688125Y-65477577D01*
X57680979Y-65481008D01*
X57676703Y-65484603D01*
X57674780Y-65486526D01*
X57672848Y-65488298D01*
X57672769Y-65488341D01*
X57672656Y-65488217D01*
X57672116Y-65488693D01*
X57666397Y-65491779D01*
X57659330Y-65499424D01*
X57629795Y-65531375D01*
X57626365Y-65534941D01*
X54188595Y-68972711D01*
X54126283Y-69006737D01*
X54055468Y-69001672D01*
X53998632Y-68959125D01*
X53973821Y-68892605D01*
X53973500Y-68883616D01*
X53973500Y-62090876D01*
X60708680Y-62090876D01*
X60709904Y-62101217D01*
X60712627Y-62124223D01*
X60712977Y-62130154D01*
X60713072Y-62130146D01*
X60713500Y-62135324D01*
X60713500Y-62140524D01*
X60714354Y-62145653D01*
X60714354Y-62145656D01*
X60716669Y-62159565D01*
X60717506Y-62165443D01*
X60723530Y-62216341D01*
X60727493Y-62224593D01*
X60728996Y-62233626D01*
X60733943Y-62242795D01*
X60733944Y-62242797D01*
X60753334Y-62278732D01*
X60756031Y-62284025D01*
X60774785Y-62323082D01*
X60774788Y-62323086D01*
X60778219Y-62330232D01*
X60781814Y-62334508D01*
X60783737Y-62336431D01*
X60785509Y-62338363D01*
X60785552Y-62338442D01*
X60785428Y-62338555D01*
X60785904Y-62339095D01*
X60788990Y-62344814D01*
X60796635Y-62351881D01*
X60828586Y-62381416D01*
X60832152Y-62384846D01*
X62399046Y-63951740D01*
X62433072Y-64014052D01*
X62434871Y-64024380D01*
X62451772Y-64152754D01*
X62507645Y-64287642D01*
X62596526Y-64403474D01*
X62603076Y-64408500D01*
X62603079Y-64408503D01*
X62705804Y-64487327D01*
X62712357Y-64492355D01*
X62847246Y-64548228D01*
X62992000Y-64567285D01*
X63000188Y-64566207D01*
X63128566Y-64549306D01*
X63136754Y-64548228D01*
X63271643Y-64492355D01*
X63278196Y-64487327D01*
X63380921Y-64408503D01*
X63380924Y-64408500D01*
X63387474Y-64403474D01*
X63476355Y-64287642D01*
X63532228Y-64152754D01*
X63551285Y-64008000D01*
X63542612Y-63942124D01*
X63533306Y-63871432D01*
X63533305Y-63871430D01*
X63532228Y-63863246D01*
X63503829Y-63794685D01*
X63479515Y-63735986D01*
X63479514Y-63735984D01*
X63476355Y-63728358D01*
X63387474Y-63612526D01*
X63380924Y-63607500D01*
X63380921Y-63607497D01*
X63278196Y-63528673D01*
X63278194Y-63528672D01*
X63271643Y-63523645D01*
X63136754Y-63467772D01*
X63008388Y-63450872D01*
X62943462Y-63422151D01*
X62935740Y-63415046D01*
X61509405Y-61988711D01*
X61475379Y-61926399D01*
X61472500Y-61899616D01*
X61472500Y-61458988D01*
X67723021Y-61458988D01*
X67723821Y-61465320D01*
X67726906Y-61489741D01*
X67727900Y-61505533D01*
X67727900Y-71662607D01*
X67727851Y-71666126D01*
X67726026Y-71731464D01*
X67725431Y-71752747D01*
X67726540Y-71759036D01*
X67735951Y-71812411D01*
X67737220Y-71821556D01*
X67743342Y-71881824D01*
X67745250Y-71887912D01*
X67745250Y-71887913D01*
X67751996Y-71909440D01*
X67755846Y-71925237D01*
X67760868Y-71953716D01*
X67783166Y-72010036D01*
X67786247Y-72018736D01*
X67804367Y-72076555D01*
X67814806Y-72095387D01*
X67818387Y-72101847D01*
X67825337Y-72116549D01*
X67833640Y-72137521D01*
X67833643Y-72137526D01*
X67835990Y-72143455D01*
X67839480Y-72148788D01*
X67839485Y-72148798D01*
X67869168Y-72194158D01*
X67873937Y-72202063D01*
X67899207Y-72247650D01*
X67903302Y-72255038D01*
X67907451Y-72259879D01*
X67907454Y-72259883D01*
X67922121Y-72276994D01*
X67931887Y-72290002D01*
X67945074Y-72310155D01*
X67945084Y-72310168D01*
X67947731Y-72314213D01*
X67950971Y-72317811D01*
X67951099Y-72317954D01*
X67951113Y-72317968D01*
X67952219Y-72319197D01*
X67991294Y-72358272D01*
X67997867Y-72365369D01*
X68036105Y-72409982D01*
X68045997Y-72417655D01*
X68060601Y-72428983D01*
X68072470Y-72439448D01*
X69533029Y-73900006D01*
X69535483Y-73902528D01*
X69595054Y-73965523D01*
X69600279Y-73969181D01*
X69600283Y-73969185D01*
X69644690Y-74000278D01*
X69652031Y-74005830D01*
X69698990Y-74044129D01*
X69724632Y-74057535D01*
X69738519Y-74065978D01*
X69762218Y-74082572D01*
X69768072Y-74085105D01*
X69768075Y-74085107D01*
X69817817Y-74106632D01*
X69826132Y-74110597D01*
X69879837Y-74138674D01*
X69885964Y-74140431D01*
X69885969Y-74140433D01*
X69907644Y-74146648D01*
X69922953Y-74152130D01*
X69943638Y-74161081D01*
X69943646Y-74161084D01*
X69949503Y-74163618D01*
X69955753Y-74164924D01*
X69955754Y-74164924D01*
X69971068Y-74168123D01*
X70008805Y-74176007D01*
X70017748Y-74178219D01*
X70076001Y-74194923D01*
X70102365Y-74196952D01*
X70104847Y-74197143D01*
X70120943Y-74199434D01*
X70144525Y-74204360D01*
X70144526Y-74204360D01*
X70149260Y-74205349D01*
X70155958Y-74205700D01*
X70211216Y-74205700D01*
X70220883Y-74206071D01*
X70273109Y-74210090D01*
X70273113Y-74210090D01*
X70279469Y-74210579D01*
X70310221Y-74206694D01*
X70326014Y-74205700D01*
X70735499Y-74205700D01*
X70785236Y-74215932D01*
X70878828Y-74256142D01*
X70951844Y-74272664D01*
X71071179Y-74299667D01*
X71071184Y-74299668D01*
X71076816Y-74300942D01*
X71082587Y-74301169D01*
X71082589Y-74301169D01*
X71142356Y-74303517D01*
X71279653Y-74308912D01*
X71380099Y-74294348D01*
X71474831Y-74280613D01*
X71474836Y-74280612D01*
X71480545Y-74279784D01*
X71486009Y-74277929D01*
X71486014Y-74277928D01*
X71667293Y-74216392D01*
X71667298Y-74216390D01*
X71672765Y-74214534D01*
X71679828Y-74210579D01*
X71784195Y-74152130D01*
X71849876Y-74115347D01*
X71855576Y-74110607D01*
X72001513Y-73989231D01*
X72005945Y-73985545D01*
X72075771Y-73901589D01*
X72132053Y-73833918D01*
X72132055Y-73833915D01*
X72135747Y-73829476D01*
X72203538Y-73708426D01*
X72232110Y-73657408D01*
X72232111Y-73657406D01*
X72234934Y-73652365D01*
X72236790Y-73646898D01*
X72236792Y-73646893D01*
X72298328Y-73465614D01*
X72298329Y-73465609D01*
X72300184Y-73460145D01*
X72301012Y-73454436D01*
X72301013Y-73454431D01*
X72322159Y-73308584D01*
X72329312Y-73259253D01*
X72330832Y-73201200D01*
X72312258Y-72999059D01*
X72300203Y-72956315D01*
X72258725Y-72809246D01*
X72258724Y-72809244D01*
X72257157Y-72803687D01*
X72247295Y-72783687D01*
X72169931Y-72626809D01*
X72167376Y-72621628D01*
X72045920Y-72458979D01*
X71896858Y-72321187D01*
X71891975Y-72318106D01*
X71891971Y-72318103D01*
X71730064Y-72215948D01*
X71725181Y-72212867D01*
X71536639Y-72137646D01*
X71530979Y-72136520D01*
X71530975Y-72136519D01*
X71343213Y-72099171D01*
X71343210Y-72099171D01*
X71337546Y-72098044D01*
X71331771Y-72097968D01*
X71331767Y-72097968D01*
X71230393Y-72096641D01*
X71134571Y-72095387D01*
X71128874Y-72096366D01*
X71128873Y-72096366D01*
X71011416Y-72116549D01*
X70934510Y-72129764D01*
X70807291Y-72176698D01*
X70774183Y-72188912D01*
X70730572Y-72196700D01*
X70723069Y-72196700D01*
X70654948Y-72176698D01*
X70633974Y-72159796D01*
X69773805Y-71299628D01*
X69739780Y-71237315D01*
X69736900Y-71210532D01*
X69736900Y-70632164D01*
X70112748Y-70632164D01*
X70126024Y-70834722D01*
X70127445Y-70840318D01*
X70127446Y-70840323D01*
X70166825Y-70995374D01*
X70175992Y-71031469D01*
X70178409Y-71036712D01*
X70220330Y-71127646D01*
X70260977Y-71215816D01*
X70264310Y-71220532D01*
X70310632Y-71286076D01*
X70378133Y-71381589D01*
X70382275Y-71385624D01*
X70427039Y-71429231D01*
X70523538Y-71523235D01*
X70528342Y-71526445D01*
X70590912Y-71568253D01*
X70692320Y-71636012D01*
X70697623Y-71638290D01*
X70697626Y-71638292D01*
X70835244Y-71697417D01*
X70878828Y-71716142D01*
X70946542Y-71731464D01*
X71071179Y-71759667D01*
X71071184Y-71759668D01*
X71076816Y-71760942D01*
X71082587Y-71761169D01*
X71082589Y-71761169D01*
X71142356Y-71763517D01*
X71279653Y-71768912D01*
X71391141Y-71752747D01*
X71474831Y-71740613D01*
X71474836Y-71740612D01*
X71480545Y-71739784D01*
X71486009Y-71737929D01*
X71486014Y-71737928D01*
X71672765Y-71674534D01*
X71673018Y-71675280D01*
X71718088Y-71665700D01*
X72477007Y-71665700D01*
X72480526Y-71665749D01*
X72560765Y-71667991D01*
X72560768Y-71667991D01*
X72567147Y-71668169D01*
X72588681Y-71664372D01*
X72626811Y-71657649D01*
X72635956Y-71656380D01*
X72689874Y-71650903D01*
X72696224Y-71650258D01*
X72723839Y-71641604D01*
X72739637Y-71637754D01*
X72761822Y-71633842D01*
X72761823Y-71633842D01*
X72768116Y-71632732D01*
X72824437Y-71610434D01*
X72833136Y-71607353D01*
X72849583Y-71602198D01*
X72890955Y-71589233D01*
X72916247Y-71575213D01*
X72930949Y-71568263D01*
X72951921Y-71559960D01*
X72951926Y-71559957D01*
X72957855Y-71557610D01*
X72963188Y-71554120D01*
X72963198Y-71554115D01*
X73008558Y-71524432D01*
X73016463Y-71519663D01*
X73063859Y-71493391D01*
X73063862Y-71493389D01*
X73069438Y-71490298D01*
X73074279Y-71486149D01*
X73074283Y-71486146D01*
X73091394Y-71471479D01*
X73104402Y-71461713D01*
X73124555Y-71448526D01*
X73124568Y-71448516D01*
X73128613Y-71445869D01*
X73132224Y-71442618D01*
X73132354Y-71442501D01*
X73132368Y-71442487D01*
X73133597Y-71441381D01*
X73172672Y-71402306D01*
X73179769Y-71395733D01*
X73205745Y-71373469D01*
X73224382Y-71357495D01*
X73243383Y-71332999D01*
X73253848Y-71321130D01*
X74872823Y-69702155D01*
X74875345Y-69699701D01*
X74919415Y-69658026D01*
X74938323Y-69640146D01*
X74952573Y-69619795D01*
X74973072Y-69590520D01*
X74978642Y-69583156D01*
X75012891Y-69541162D01*
X75012894Y-69541157D01*
X75016929Y-69536210D01*
X75030335Y-69510568D01*
X75038778Y-69496681D01*
X75041604Y-69492645D01*
X75055372Y-69472982D01*
X75069675Y-69439931D01*
X75079432Y-69417383D01*
X75083397Y-69409068D01*
X75111474Y-69355363D01*
X75113231Y-69349236D01*
X75113233Y-69349231D01*
X75119448Y-69327556D01*
X75124930Y-69312247D01*
X75133881Y-69291562D01*
X75133884Y-69291554D01*
X75136418Y-69285697D01*
X75148807Y-69226395D01*
X75151019Y-69217452D01*
X75167723Y-69159199D01*
X75169943Y-69130353D01*
X75172234Y-69114257D01*
X75177160Y-69090675D01*
X75177160Y-69090674D01*
X75178149Y-69085940D01*
X75178500Y-69079242D01*
X75178500Y-69023984D01*
X75178871Y-69014317D01*
X75182890Y-68962091D01*
X75182890Y-68962087D01*
X75183379Y-68955731D01*
X75179494Y-68924978D01*
X75178500Y-68909186D01*
X75178500Y-58645393D01*
X75178549Y-58641874D01*
X75180791Y-58561635D01*
X75180791Y-58561632D01*
X75180969Y-58555253D01*
X75174286Y-58517353D01*
X75170449Y-58495589D01*
X75169180Y-58486444D01*
X75163703Y-58432526D01*
X75163058Y-58426176D01*
X75154404Y-58398560D01*
X75150554Y-58382763D01*
X75146642Y-58360578D01*
X75146642Y-58360577D01*
X75145532Y-58354284D01*
X75123234Y-58297963D01*
X75120153Y-58289264D01*
X75103942Y-58237538D01*
X75102033Y-58231445D01*
X75088013Y-58206153D01*
X75081063Y-58191451D01*
X75072761Y-58170482D01*
X75072759Y-58170478D01*
X75070410Y-58164545D01*
X75037227Y-58113837D01*
X75032467Y-58105945D01*
X75006192Y-58058543D01*
X75006190Y-58058540D01*
X75003098Y-58052962D01*
X74984272Y-58030997D01*
X74974509Y-58017994D01*
X74961314Y-57997830D01*
X74961312Y-57997828D01*
X74958668Y-57993787D01*
X74955380Y-57990135D01*
X74955300Y-57990046D01*
X74955286Y-57990032D01*
X74954180Y-57988803D01*
X74915112Y-57949735D01*
X74908539Y-57942638D01*
X74882073Y-57911760D01*
X74870295Y-57898018D01*
X74845795Y-57879014D01*
X74833926Y-57868549D01*
X73873772Y-56908395D01*
X73871318Y-56905873D01*
X73816128Y-56847511D01*
X73811746Y-56842877D01*
X73806521Y-56839219D01*
X73806517Y-56839215D01*
X73762110Y-56808122D01*
X73754769Y-56802570D01*
X73707810Y-56764271D01*
X73682168Y-56750865D01*
X73668281Y-56742422D01*
X73660262Y-56736807D01*
X73644582Y-56725828D01*
X73638728Y-56723295D01*
X73638725Y-56723293D01*
X73588983Y-56701768D01*
X73580668Y-56697803D01*
X73526963Y-56669726D01*
X73520836Y-56667969D01*
X73520831Y-56667967D01*
X73499156Y-56661752D01*
X73483847Y-56656270D01*
X73463162Y-56647319D01*
X73463154Y-56647316D01*
X73457297Y-56644782D01*
X73451047Y-56643476D01*
X73451046Y-56643476D01*
X73435732Y-56640277D01*
X73397995Y-56632393D01*
X73389052Y-56630181D01*
X73330799Y-56613477D01*
X73304435Y-56611448D01*
X73301953Y-56611257D01*
X73285857Y-56608966D01*
X73262275Y-56604040D01*
X73262274Y-56604040D01*
X73257540Y-56603051D01*
X73250842Y-56602700D01*
X73195584Y-56602700D01*
X73185917Y-56602329D01*
X73133691Y-56598310D01*
X73133687Y-56598310D01*
X73127331Y-56597821D01*
X73104017Y-56600766D01*
X73096578Y-56601706D01*
X73080786Y-56602700D01*
X71708866Y-56602700D01*
X71662176Y-56593730D01*
X71542011Y-56545789D01*
X71542009Y-56545788D01*
X71536639Y-56543646D01*
X71530971Y-56542519D01*
X71530969Y-56542518D01*
X71343213Y-56505171D01*
X71343210Y-56505171D01*
X71337546Y-56504044D01*
X71331771Y-56503968D01*
X71331767Y-56503968D01*
X71230393Y-56502641D01*
X71134571Y-56501387D01*
X71128874Y-56502366D01*
X71128873Y-56502366D01*
X70940207Y-56534785D01*
X70934510Y-56535764D01*
X70744063Y-56606024D01*
X70569610Y-56709812D01*
X70565270Y-56713618D01*
X70565266Y-56713621D01*
X70463863Y-56802550D01*
X70416992Y-56843655D01*
X70291320Y-57003069D01*
X70288631Y-57008180D01*
X70288629Y-57008183D01*
X70272211Y-57039389D01*
X70196803Y-57182715D01*
X70136607Y-57376578D01*
X70112748Y-57578164D01*
X70126024Y-57780722D01*
X70127445Y-57786318D01*
X70127446Y-57786323D01*
X70159304Y-57911760D01*
X70175992Y-57977469D01*
X70178409Y-57982712D01*
X70189096Y-58005893D01*
X70260977Y-58161816D01*
X70276253Y-58183431D01*
X70347769Y-58284624D01*
X70378133Y-58327589D01*
X70382275Y-58331624D01*
X70390989Y-58340113D01*
X70523538Y-58469235D01*
X70528342Y-58472445D01*
X70540445Y-58480532D01*
X70692320Y-58582012D01*
X70697623Y-58584290D01*
X70697626Y-58584292D01*
X70870740Y-58658667D01*
X70878828Y-58662142D01*
X70951844Y-58678664D01*
X71071179Y-58705667D01*
X71071184Y-58705668D01*
X71076816Y-58706942D01*
X71082587Y-58707169D01*
X71082589Y-58707169D01*
X71142356Y-58709517D01*
X71279653Y-58714912D01*
X71394238Y-58698298D01*
X71474831Y-58686613D01*
X71474836Y-58686612D01*
X71480545Y-58685784D01*
X71486009Y-58683929D01*
X71486014Y-58683928D01*
X71672765Y-58620534D01*
X71673018Y-58621280D01*
X71718088Y-58611700D01*
X72683732Y-58611700D01*
X72751853Y-58631702D01*
X72772827Y-58648605D01*
X73132595Y-59008373D01*
X73166621Y-59070685D01*
X73169500Y-59097468D01*
X73169500Y-68512132D01*
X73149498Y-68580253D01*
X73132595Y-68601227D01*
X72505879Y-69227943D01*
X72443567Y-69261969D01*
X72372752Y-69256904D01*
X72315916Y-69214357D01*
X72291105Y-69147837D01*
X72300376Y-69090629D01*
X72304440Y-69080819D01*
X72311334Y-69070501D01*
X72319288Y-69030516D01*
X72324893Y-69002335D01*
X72326100Y-68996267D01*
X72326099Y-67246134D01*
X72318520Y-67208029D01*
X72313756Y-67184074D01*
X72313755Y-67184072D01*
X72311334Y-67171899D01*
X72302298Y-67158375D01*
X72261977Y-67098032D01*
X72255084Y-67087716D01*
X72170901Y-67031466D01*
X72096667Y-67016700D01*
X71221742Y-67016700D01*
X70346534Y-67016701D01*
X70310782Y-67023812D01*
X70284474Y-67029044D01*
X70284472Y-67029045D01*
X70272299Y-67031466D01*
X70261979Y-67038361D01*
X70261978Y-67038362D01*
X70259126Y-67040268D01*
X70188116Y-67087716D01*
X70131866Y-67171899D01*
X70117100Y-67246133D01*
X70117101Y-68996266D01*
X70131866Y-69070501D01*
X70138761Y-69080821D01*
X70138762Y-69080822D01*
X70159098Y-69111256D01*
X70188116Y-69154684D01*
X70272299Y-69210934D01*
X70346533Y-69225700D01*
X71221458Y-69225700D01*
X72096666Y-69225699D01*
X72170901Y-69210934D01*
X72181221Y-69204038D01*
X72191031Y-69199975D01*
X72261620Y-69192386D01*
X72325107Y-69224166D01*
X72361334Y-69285224D01*
X72358800Y-69356175D01*
X72328344Y-69405478D01*
X72114027Y-69619796D01*
X72051717Y-69653820D01*
X72024933Y-69656700D01*
X71708866Y-69656700D01*
X71662176Y-69647730D01*
X71542011Y-69599789D01*
X71542009Y-69599788D01*
X71536639Y-69597646D01*
X71530971Y-69596519D01*
X71530969Y-69596518D01*
X71343213Y-69559171D01*
X71343210Y-69559171D01*
X71337546Y-69558044D01*
X71331771Y-69557968D01*
X71331767Y-69557968D01*
X71230393Y-69556641D01*
X71134571Y-69555387D01*
X71128874Y-69556366D01*
X71128873Y-69556366D01*
X70940207Y-69588785D01*
X70934510Y-69589764D01*
X70744063Y-69660024D01*
X70569610Y-69763812D01*
X70565270Y-69767618D01*
X70565266Y-69767621D01*
X70434625Y-69882191D01*
X70416992Y-69897655D01*
X70291320Y-70057069D01*
X70288631Y-70062180D01*
X70288629Y-70062183D01*
X70240728Y-70153227D01*
X70196803Y-70236715D01*
X70136607Y-70430578D01*
X70112748Y-70632164D01*
X69736900Y-70632164D01*
X69736900Y-62658164D01*
X70112748Y-62658164D01*
X70126024Y-62860722D01*
X70127445Y-62866318D01*
X70127446Y-62866323D01*
X70171722Y-63040657D01*
X70175992Y-63057469D01*
X70178409Y-63062712D01*
X70213603Y-63139054D01*
X70260977Y-63241816D01*
X70264310Y-63246532D01*
X70306492Y-63306218D01*
X70378133Y-63407589D01*
X70382275Y-63411624D01*
X70439072Y-63466953D01*
X70523538Y-63549235D01*
X70692320Y-63662012D01*
X70697623Y-63664290D01*
X70697626Y-63664292D01*
X70803810Y-63709912D01*
X70878828Y-63742142D01*
X70932360Y-63754255D01*
X71071179Y-63785667D01*
X71071184Y-63785668D01*
X71076816Y-63786942D01*
X71082587Y-63787169D01*
X71082589Y-63787169D01*
X71142356Y-63789517D01*
X71279653Y-63794912D01*
X71380099Y-63780348D01*
X71474831Y-63766613D01*
X71474836Y-63766612D01*
X71480545Y-63765784D01*
X71486009Y-63763929D01*
X71486014Y-63763928D01*
X71667293Y-63702392D01*
X71667298Y-63702390D01*
X71672765Y-63700534D01*
X71682676Y-63694984D01*
X71805210Y-63626361D01*
X71849876Y-63601347D01*
X71864120Y-63589501D01*
X72001513Y-63475231D01*
X72005945Y-63471545D01*
X72090273Y-63370152D01*
X72132053Y-63319918D01*
X72132055Y-63319915D01*
X72135747Y-63315476D01*
X72234934Y-63138365D01*
X72236790Y-63132898D01*
X72236792Y-63132893D01*
X72298328Y-62951614D01*
X72298329Y-62951609D01*
X72300184Y-62946145D01*
X72301012Y-62940436D01*
X72301013Y-62940431D01*
X72326009Y-62768033D01*
X72329312Y-62745253D01*
X72330832Y-62687200D01*
X72312258Y-62485059D01*
X72310690Y-62479499D01*
X72258725Y-62295246D01*
X72258724Y-62295244D01*
X72257157Y-62289687D01*
X72253046Y-62281349D01*
X72169931Y-62112809D01*
X72167376Y-62107628D01*
X72149357Y-62083497D01*
X72049377Y-61949609D01*
X72045920Y-61944979D01*
X71896858Y-61807187D01*
X71891975Y-61804106D01*
X71891971Y-61804103D01*
X71730064Y-61701948D01*
X71725181Y-61698867D01*
X71536639Y-61623646D01*
X71530979Y-61622520D01*
X71530975Y-61622519D01*
X71343213Y-61585171D01*
X71343210Y-61585171D01*
X71337546Y-61584044D01*
X71331771Y-61583968D01*
X71331767Y-61583968D01*
X71230393Y-61582641D01*
X71134571Y-61581387D01*
X71128874Y-61582366D01*
X71128873Y-61582366D01*
X70940207Y-61614785D01*
X70934510Y-61615764D01*
X70744063Y-61686024D01*
X70569610Y-61789812D01*
X70565270Y-61793618D01*
X70565266Y-61793621D01*
X70488209Y-61861199D01*
X70416992Y-61923655D01*
X70413417Y-61928190D01*
X70413416Y-61928191D01*
X70384322Y-61965097D01*
X70291320Y-62083069D01*
X70288631Y-62088180D01*
X70288629Y-62088183D01*
X70266551Y-62130146D01*
X70196803Y-62262715D01*
X70136607Y-62456578D01*
X70112748Y-62658164D01*
X69736900Y-62658164D01*
X69736900Y-61902587D01*
X69756902Y-61834466D01*
X69773805Y-61813492D01*
X70398692Y-61188605D01*
X70461004Y-61154579D01*
X70487787Y-61151700D01*
X70735499Y-61151700D01*
X70785236Y-61161932D01*
X70878828Y-61202142D01*
X70951844Y-61218664D01*
X71071179Y-61245667D01*
X71071184Y-61245668D01*
X71076816Y-61246942D01*
X71082587Y-61247169D01*
X71082589Y-61247169D01*
X71139092Y-61249389D01*
X71279653Y-61254912D01*
X71380099Y-61240348D01*
X71474831Y-61226613D01*
X71474836Y-61226612D01*
X71480545Y-61225784D01*
X71486009Y-61223929D01*
X71486014Y-61223928D01*
X71667293Y-61162392D01*
X71667298Y-61162390D01*
X71672765Y-61160534D01*
X71680117Y-61156417D01*
X71831207Y-61071802D01*
X71849876Y-61061347D01*
X71859059Y-61053710D01*
X71986648Y-60947594D01*
X72005945Y-60931545D01*
X72089088Y-60831577D01*
X72132053Y-60779918D01*
X72132055Y-60779915D01*
X72135747Y-60775476D01*
X72234934Y-60598365D01*
X72236790Y-60592898D01*
X72236792Y-60592893D01*
X72298328Y-60411614D01*
X72298329Y-60411609D01*
X72300184Y-60406145D01*
X72301012Y-60400436D01*
X72301013Y-60400431D01*
X72328779Y-60208927D01*
X72329312Y-60205253D01*
X72330832Y-60147200D01*
X72312258Y-59945059D01*
X72305868Y-59922402D01*
X72258725Y-59755246D01*
X72258724Y-59755244D01*
X72257157Y-59749687D01*
X72241863Y-59718672D01*
X72169931Y-59572809D01*
X72167376Y-59567628D01*
X72149761Y-59544038D01*
X72107370Y-59487270D01*
X72045920Y-59404979D01*
X71896858Y-59267187D01*
X71891975Y-59264106D01*
X71891971Y-59264103D01*
X71730064Y-59161948D01*
X71725181Y-59158867D01*
X71536639Y-59083646D01*
X71530979Y-59082520D01*
X71530975Y-59082519D01*
X71343213Y-59045171D01*
X71343210Y-59045171D01*
X71337546Y-59044044D01*
X71331771Y-59043968D01*
X71331767Y-59043968D01*
X71230393Y-59042641D01*
X71134571Y-59041387D01*
X71128874Y-59042366D01*
X71128873Y-59042366D01*
X70940207Y-59074785D01*
X70934510Y-59075764D01*
X70836649Y-59111867D01*
X70774183Y-59134912D01*
X70730572Y-59142700D01*
X70035712Y-59142700D01*
X70032193Y-59142651D01*
X69951954Y-59140409D01*
X69951951Y-59140409D01*
X69945572Y-59140231D01*
X69939282Y-59141340D01*
X69939283Y-59141340D01*
X69885908Y-59150751D01*
X69876763Y-59152020D01*
X69830425Y-59156727D01*
X69816495Y-59158142D01*
X69810407Y-59160050D01*
X69810406Y-59160050D01*
X69788879Y-59166796D01*
X69773082Y-59170646D01*
X69750897Y-59174558D01*
X69750896Y-59174558D01*
X69744603Y-59175668D01*
X69688283Y-59197966D01*
X69679583Y-59201047D01*
X69664912Y-59205645D01*
X69621764Y-59219167D01*
X69602638Y-59229769D01*
X69596472Y-59233187D01*
X69581770Y-59240137D01*
X69560798Y-59248440D01*
X69560793Y-59248443D01*
X69554864Y-59250790D01*
X69549531Y-59254280D01*
X69549521Y-59254285D01*
X69504161Y-59283968D01*
X69496256Y-59288737D01*
X69448860Y-59315009D01*
X69448857Y-59315011D01*
X69443281Y-59318102D01*
X69438440Y-59322251D01*
X69438436Y-59322254D01*
X69421325Y-59336921D01*
X69408317Y-59346687D01*
X69388164Y-59359874D01*
X69388151Y-59359884D01*
X69384106Y-59362531D01*
X69380507Y-59365771D01*
X69380508Y-59365771D01*
X69380365Y-59365899D01*
X69380351Y-59365913D01*
X69379122Y-59367019D01*
X69340047Y-59406094D01*
X69332950Y-59412667D01*
X69288337Y-59450905D01*
X69281450Y-59459784D01*
X69269336Y-59475401D01*
X69258871Y-59487270D01*
X68033594Y-60712548D01*
X68031072Y-60715002D01*
X67968077Y-60774573D01*
X67964419Y-60779798D01*
X67964415Y-60779802D01*
X67933322Y-60824209D01*
X67927770Y-60831550D01*
X67889471Y-60878509D01*
X67876065Y-60904151D01*
X67867622Y-60918038D01*
X67851028Y-60941737D01*
X67848495Y-60947591D01*
X67848493Y-60947594D01*
X67826968Y-60997336D01*
X67823003Y-61005651D01*
X67794926Y-61059356D01*
X67793169Y-61065483D01*
X67793167Y-61065488D01*
X67786952Y-61087163D01*
X67781470Y-61102472D01*
X67772519Y-61123157D01*
X67772516Y-61123165D01*
X67769982Y-61129022D01*
X67768676Y-61135272D01*
X67768676Y-61135273D01*
X67757595Y-61188317D01*
X67755381Y-61197267D01*
X67738677Y-61255520D01*
X67738188Y-61261880D01*
X67736457Y-61284366D01*
X67734166Y-61300462D01*
X67728251Y-61328779D01*
X67727900Y-61335477D01*
X67727900Y-61390735D01*
X67727529Y-61400401D01*
X67723021Y-61458988D01*
X61472500Y-61458988D01*
X61472500Y-56907776D01*
X62588883Y-56907776D01*
X62589072Y-56911568D01*
X62602845Y-57188233D01*
X62604497Y-57221425D01*
X62605138Y-57225156D01*
X62605139Y-57225164D01*
X62656735Y-57525429D01*
X62657680Y-57530927D01*
X62658768Y-57534566D01*
X62658769Y-57534569D01*
X62731991Y-57779405D01*
X62747659Y-57831797D01*
X62749172Y-57835268D01*
X62749174Y-57835274D01*
X62825923Y-58011365D01*
X62873132Y-58119679D01*
X62875055Y-58122950D01*
X62875057Y-58122954D01*
X62935552Y-58225859D01*
X63032282Y-58390402D01*
X63034583Y-58393417D01*
X63216437Y-58631702D01*
X63222803Y-58640044D01*
X63225451Y-58642763D01*
X63225456Y-58642768D01*
X63439289Y-58862274D01*
X63441935Y-58864990D01*
X63444879Y-58867361D01*
X63444882Y-58867364D01*
X63683552Y-59059602D01*
X63683557Y-59059606D01*
X63686505Y-59061980D01*
X63952969Y-59228162D01*
X64072372Y-59283968D01*
X64233539Y-59359293D01*
X64237467Y-59361129D01*
X64241074Y-59362311D01*
X64241078Y-59362313D01*
X64371232Y-59404979D01*
X64535880Y-59458953D01*
X64539590Y-59459691D01*
X64539594Y-59459692D01*
X64650035Y-59481660D01*
X64843883Y-59520219D01*
X65000450Y-59532129D01*
X65153239Y-59543751D01*
X65153244Y-59543751D01*
X65157016Y-59544038D01*
X65470742Y-59530066D01*
X65474480Y-59529444D01*
X65474488Y-59529443D01*
X65625242Y-59504350D01*
X65780518Y-59478505D01*
X66081855Y-59390103D01*
X66370390Y-59266138D01*
X66641942Y-59108408D01*
X66654373Y-59099024D01*
X66787967Y-58998171D01*
X66892579Y-58919197D01*
X67118669Y-58701245D01*
X67230900Y-58563391D01*
X67314543Y-58460652D01*
X67314546Y-58460648D01*
X67316937Y-58457711D01*
X67350636Y-58404301D01*
X67482485Y-58195334D01*
X67482487Y-58195331D01*
X67484512Y-58192121D01*
X67496551Y-58166711D01*
X67583723Y-57982712D01*
X67618966Y-57908322D01*
X67632236Y-57868549D01*
X67714515Y-57621927D01*
X67718352Y-57610426D01*
X67781229Y-57302748D01*
X67806688Y-56989744D01*
X67807260Y-56935100D01*
X67805842Y-56911568D01*
X67788590Y-56625410D01*
X67788590Y-56625406D01*
X67788362Y-56621632D01*
X67786049Y-56608966D01*
X67732622Y-56316426D01*
X67732621Y-56316422D01*
X67731942Y-56312704D01*
X67638817Y-56012792D01*
X67635022Y-56004326D01*
X67543297Y-55799753D01*
X67510336Y-55726240D01*
X67348359Y-55457199D01*
X67155235Y-55209565D01*
X66933759Y-54986927D01*
X66910838Y-54968857D01*
X66690121Y-54794858D01*
X66687140Y-54792508D01*
X66418951Y-54629126D01*
X66199787Y-54529478D01*
X66136527Y-54500715D01*
X66136520Y-54500712D01*
X66133075Y-54499146D01*
X65833655Y-54404452D01*
X65696489Y-54378658D01*
X65528751Y-54347115D01*
X65528746Y-54347114D01*
X65525027Y-54346415D01*
X65211662Y-54325876D01*
X65207882Y-54326084D01*
X65207881Y-54326084D01*
X65119138Y-54330968D01*
X64898099Y-54343132D01*
X64894372Y-54343793D01*
X64894368Y-54343793D01*
X64677179Y-54382285D01*
X64588880Y-54397934D01*
X64585255Y-54399039D01*
X64585250Y-54399040D01*
X64407046Y-54453353D01*
X64288485Y-54489488D01*
X64285021Y-54491019D01*
X64285014Y-54491022D01*
X64198029Y-54529478D01*
X64001264Y-54616467D01*
X63998010Y-54618403D01*
X63998004Y-54618406D01*
X63749585Y-54766200D01*
X63731378Y-54777032D01*
X63482737Y-54968857D01*
X63480036Y-54971516D01*
X63480029Y-54971522D01*
X63461652Y-54989613D01*
X63258942Y-55189164D01*
X63256578Y-55192131D01*
X63256575Y-55192134D01*
X63181105Y-55286844D01*
X63063235Y-55434762D01*
X62898450Y-55702092D01*
X62766975Y-55987283D01*
X62670715Y-56286203D01*
X62669996Y-56289919D01*
X62669994Y-56289927D01*
X62611782Y-56590804D01*
X62611781Y-56590813D01*
X62611063Y-56594523D01*
X62610796Y-56598299D01*
X62610795Y-56598304D01*
X62593478Y-56842877D01*
X62588883Y-56907776D01*
X61472500Y-56907776D01*
X61472500Y-54192133D01*
X70117100Y-54192133D01*
X70117101Y-55942266D01*
X70124212Y-55978018D01*
X70127958Y-55996851D01*
X70131866Y-56016501D01*
X70188116Y-56100684D01*
X70272299Y-56156934D01*
X70346533Y-56171700D01*
X71221458Y-56171700D01*
X72096666Y-56171699D01*
X72132418Y-56164588D01*
X72158726Y-56159356D01*
X72158728Y-56159355D01*
X72170901Y-56156934D01*
X72181221Y-56150039D01*
X72181222Y-56150038D01*
X72244768Y-56107577D01*
X72255084Y-56100684D01*
X72311334Y-56016501D01*
X72326100Y-55942267D01*
X72326099Y-54192134D01*
X72311334Y-54117899D01*
X72255084Y-54033716D01*
X72170901Y-53977466D01*
X72096667Y-53962700D01*
X71221742Y-53962700D01*
X70346534Y-53962701D01*
X70310782Y-53969812D01*
X70284474Y-53975044D01*
X70284472Y-53975045D01*
X70272299Y-53977466D01*
X70261979Y-53984361D01*
X70261978Y-53984362D01*
X70218197Y-54013616D01*
X70188116Y-54033716D01*
X70131866Y-54117899D01*
X70117100Y-54192133D01*
X61472500Y-54192133D01*
X61472500Y-44876384D01*
X61492502Y-44808263D01*
X61509405Y-44787289D01*
X64895544Y-41401150D01*
X64957856Y-41367124D01*
X64984639Y-41364245D01*
X69836025Y-41364245D01*
X69859973Y-41366794D01*
X69861638Y-41366873D01*
X69871821Y-41369065D01*
X69882162Y-41367841D01*
X69905168Y-41365118D01*
X69911099Y-41364768D01*
X69911091Y-41364673D01*
X69916269Y-41364245D01*
X69921469Y-41364245D01*
X69926598Y-41363391D01*
X69926601Y-41363391D01*
X69940510Y-41361076D01*
X69946388Y-41360239D01*
X69986946Y-41355439D01*
X69986947Y-41355439D01*
X69997286Y-41354215D01*
X70005538Y-41350252D01*
X70014571Y-41348749D01*
X70023740Y-41343802D01*
X70023742Y-41343801D01*
X70059677Y-41324411D01*
X70064970Y-41321714D01*
X70094424Y-41307571D01*
X70150943Y-41295171D01*
X70294164Y-41297421D01*
X70294167Y-41297421D01*
X70301761Y-41297540D01*
X70456177Y-41262174D01*
X70572793Y-41203523D01*
X70590917Y-41194408D01*
X70590920Y-41194406D01*
X70597700Y-41190996D01*
X70603471Y-41186067D01*
X70603474Y-41186065D01*
X70712381Y-41093049D01*
X70712381Y-41093048D01*
X70718159Y-41088114D01*
X70810600Y-40959469D01*
X70869687Y-40812486D01*
X70892007Y-40655652D01*
X70892090Y-40647776D01*
X70892109Y-40645979D01*
X70892109Y-40645973D01*
X70892152Y-40641845D01*
X70889613Y-40620859D01*
X70887034Y-40599549D01*
X70873121Y-40484578D01*
X70817125Y-40336391D01*
X70808659Y-40324073D01*
X70731700Y-40212096D01*
X70731699Y-40212094D01*
X70727398Y-40205837D01*
X70715049Y-40194834D01*
X70614791Y-40105509D01*
X70609120Y-40100456D01*
X70601734Y-40096545D01*
X70475833Y-40029884D01*
X70475834Y-40029884D01*
X70469119Y-40026329D01*
X70315478Y-39987737D01*
X70307879Y-39987697D01*
X70307878Y-39987697D01*
X70242026Y-39987352D01*
X70157066Y-39986907D01*
X70149686Y-39988679D01*
X70149684Y-39988679D01*
X70010408Y-40022116D01*
X70010405Y-40022117D01*
X70003029Y-40023888D01*
X69862259Y-40096545D01*
X69742884Y-40200683D01*
X69651795Y-40330289D01*
X69637854Y-40366046D01*
X69602455Y-40456841D01*
X69594251Y-40477882D01*
X69592377Y-40492118D01*
X69591906Y-40495694D01*
X69563182Y-40560621D01*
X69503916Y-40599711D01*
X69466984Y-40605245D01*
X64829175Y-40605245D01*
X64805227Y-40602696D01*
X64803562Y-40602617D01*
X64793379Y-40600425D01*
X64783038Y-40601649D01*
X64760032Y-40604372D01*
X64754101Y-40604722D01*
X64754109Y-40604817D01*
X64748931Y-40605245D01*
X64743731Y-40605245D01*
X64738602Y-40606099D01*
X64738599Y-40606099D01*
X64724690Y-40608414D01*
X64718812Y-40609251D01*
X64678254Y-40614051D01*
X64678253Y-40614051D01*
X64667914Y-40615275D01*
X64659662Y-40619238D01*
X64650629Y-40620741D01*
X64641460Y-40625688D01*
X64641458Y-40625689D01*
X64605523Y-40645079D01*
X64600230Y-40647776D01*
X64561173Y-40666530D01*
X64561169Y-40666533D01*
X64554023Y-40669964D01*
X64549747Y-40673559D01*
X64547824Y-40675482D01*
X64545892Y-40677254D01*
X64545813Y-40677297D01*
X64545700Y-40677173D01*
X64545160Y-40677649D01*
X64539441Y-40680735D01*
X64532374Y-40688380D01*
X64502839Y-40720331D01*
X64499409Y-40723897D01*
X60862784Y-44360522D01*
X60844036Y-44375664D01*
X60842811Y-44376779D01*
X60834060Y-44382429D01*
X60827613Y-44390607D01*
X60827611Y-44390609D01*
X60813271Y-44408800D01*
X60809325Y-44413241D01*
X60809398Y-44413303D01*
X60806039Y-44417267D01*
X60802362Y-44420944D01*
X60791108Y-44436692D01*
X60787602Y-44441362D01*
X60755844Y-44481647D01*
X60752812Y-44490281D01*
X60747486Y-44497734D01*
X60744501Y-44507715D01*
X60732799Y-44546844D01*
X60730964Y-44552492D01*
X60713982Y-44600851D01*
X60713500Y-44606416D01*
X60713500Y-44609124D01*
X60713386Y-44611758D01*
X60713357Y-44611856D01*
X60713193Y-44611849D01*
X60713149Y-44612553D01*
X60711287Y-44618778D01*
X60711696Y-44629183D01*
X60713403Y-44672635D01*
X60713500Y-44677582D01*
X60713500Y-62055080D01*
X60710951Y-62079028D01*
X60710872Y-62080693D01*
X60708680Y-62090876D01*
X53973500Y-62090876D01*
X53973500Y-60759920D01*
X53976049Y-60735972D01*
X53976128Y-60734307D01*
X53978320Y-60724124D01*
X53974373Y-60690777D01*
X53974023Y-60684846D01*
X53973928Y-60684854D01*
X53973500Y-60679676D01*
X53973500Y-60674476D01*
X53972646Y-60669344D01*
X53970331Y-60655435D01*
X53969494Y-60649557D01*
X53964694Y-60608999D01*
X53964694Y-60608998D01*
X53963470Y-60598659D01*
X53959507Y-60590407D01*
X53958004Y-60581374D01*
X53938860Y-60545893D01*
X53933666Y-60536268D01*
X53930969Y-60530975D01*
X53912215Y-60491918D01*
X53912212Y-60491914D01*
X53908781Y-60484768D01*
X53905186Y-60480492D01*
X53903263Y-60478569D01*
X53901491Y-60476637D01*
X53901448Y-60476558D01*
X53901572Y-60476445D01*
X53901096Y-60475905D01*
X53898010Y-60470186D01*
X53858413Y-60433583D01*
X53854848Y-60430154D01*
X52884478Y-59459784D01*
X52869336Y-59441036D01*
X52868221Y-59439811D01*
X52862571Y-59431060D01*
X52854393Y-59424613D01*
X52854391Y-59424611D01*
X52836200Y-59410271D01*
X52831759Y-59406325D01*
X52831697Y-59406398D01*
X52827733Y-59403039D01*
X52824056Y-59399362D01*
X52808308Y-59388108D01*
X52803638Y-59384602D01*
X52763353Y-59352844D01*
X52754719Y-59349812D01*
X52747266Y-59344486D01*
X52698150Y-59329797D01*
X52692508Y-59327964D01*
X52651633Y-59313610D01*
X52651632Y-59313610D01*
X52644149Y-59310982D01*
X52638584Y-59310500D01*
X52635876Y-59310500D01*
X52633242Y-59310386D01*
X52633144Y-59310357D01*
X52633151Y-59310193D01*
X52632447Y-59310149D01*
X52626222Y-59308287D01*
X52572365Y-59310403D01*
X52567418Y-59310500D01*
X52275062Y-59310500D01*
X52206941Y-59290498D01*
X52198374Y-59284474D01*
X52095643Y-59205645D01*
X52075695Y-59197382D01*
X52020414Y-59152836D01*
X51997991Y-59085473D01*
X52015548Y-59016682D01*
X52034816Y-58991878D01*
X52433216Y-58593478D01*
X52451964Y-58578336D01*
X52453189Y-58577221D01*
X52461940Y-58571571D01*
X52468387Y-58563393D01*
X52468389Y-58563391D01*
X52482729Y-58545200D01*
X52486675Y-58540759D01*
X52486602Y-58540697D01*
X52489961Y-58536733D01*
X52493638Y-58533056D01*
X52504892Y-58517308D01*
X52508398Y-58512638D01*
X52540156Y-58472353D01*
X52543188Y-58463719D01*
X52548514Y-58456266D01*
X52563203Y-58407150D01*
X52565036Y-58401508D01*
X52579390Y-58360633D01*
X52579390Y-58360632D01*
X52582018Y-58353149D01*
X52582500Y-58347584D01*
X52582500Y-58344876D01*
X52582614Y-58342242D01*
X52582643Y-58342144D01*
X52582807Y-58342151D01*
X52582851Y-58341447D01*
X52584713Y-58335222D01*
X52582597Y-58281365D01*
X52582500Y-58276418D01*
X52582500Y-57023000D01*
X53415715Y-57023000D01*
X53416793Y-57031188D01*
X53429881Y-57130599D01*
X53434772Y-57167754D01*
X53490645Y-57302642D01*
X53579526Y-57418474D01*
X53586076Y-57423500D01*
X53586079Y-57423503D01*
X53688804Y-57502327D01*
X53695357Y-57507355D01*
X53830246Y-57563228D01*
X53975000Y-57582285D01*
X53983188Y-57581207D01*
X54111566Y-57564306D01*
X54119754Y-57563228D01*
X54254643Y-57507355D01*
X54261196Y-57502327D01*
X54363921Y-57423503D01*
X54363924Y-57423500D01*
X54370474Y-57418474D01*
X54459355Y-57302642D01*
X54515228Y-57167754D01*
X54520120Y-57130599D01*
X54532127Y-57039389D01*
X54560849Y-56974462D01*
X54567954Y-56966740D01*
X57005216Y-54529478D01*
X57023964Y-54514336D01*
X57025189Y-54513221D01*
X57033940Y-54507571D01*
X57040387Y-54499393D01*
X57040389Y-54499391D01*
X57054729Y-54481200D01*
X57058675Y-54476759D01*
X57058602Y-54476697D01*
X57061961Y-54472733D01*
X57065638Y-54469056D01*
X57076892Y-54453308D01*
X57080398Y-54448638D01*
X57112156Y-54408353D01*
X57115188Y-54399719D01*
X57120514Y-54392266D01*
X57135203Y-54343150D01*
X57137036Y-54337508D01*
X57151390Y-54296633D01*
X57151390Y-54296632D01*
X57154018Y-54289149D01*
X57154500Y-54283584D01*
X57154500Y-54280876D01*
X57154614Y-54278242D01*
X57154643Y-54278144D01*
X57154807Y-54278151D01*
X57154851Y-54277447D01*
X57156713Y-54271222D01*
X57154597Y-54217365D01*
X57154500Y-54212418D01*
X57154500Y-43987384D01*
X57174502Y-43919263D01*
X57191405Y-43898289D01*
X59586978Y-41502716D01*
X59649290Y-41468690D01*
X59678052Y-41465827D01*
X59802118Y-41467776D01*
X59802121Y-41467776D01*
X59809716Y-41467895D01*
X59964132Y-41432529D01*
X60034542Y-41397117D01*
X60098872Y-41364763D01*
X60098875Y-41364761D01*
X60105655Y-41361351D01*
X60111426Y-41356422D01*
X60111429Y-41356420D01*
X60220336Y-41263404D01*
X60220336Y-41263403D01*
X60226114Y-41258469D01*
X60318555Y-41129824D01*
X60377642Y-40982841D01*
X60389639Y-40898546D01*
X60399381Y-40830091D01*
X60399381Y-40830088D01*
X60399962Y-40826007D01*
X60400107Y-40812200D01*
X60381076Y-40654933D01*
X60325080Y-40506746D01*
X60304963Y-40477476D01*
X60239655Y-40382451D01*
X60239654Y-40382449D01*
X60235353Y-40376192D01*
X60117075Y-40270811D01*
X60109689Y-40266900D01*
X59983788Y-40200239D01*
X59983789Y-40200239D01*
X59977074Y-40196684D01*
X59823433Y-40158092D01*
X59815834Y-40158052D01*
X59815833Y-40158052D01*
X59749981Y-40157707D01*
X59665021Y-40157262D01*
X59657641Y-40159034D01*
X59657639Y-40159034D01*
X59518363Y-40192471D01*
X59518360Y-40192472D01*
X59510984Y-40194243D01*
X59370214Y-40266900D01*
X59250839Y-40371038D01*
X59159750Y-40500644D01*
X59156990Y-40507724D01*
X59106300Y-40637737D01*
X59102206Y-40648237D01*
X59101214Y-40655770D01*
X59101214Y-40655771D01*
X59089932Y-40741471D01*
X59081529Y-40805296D01*
X59084344Y-40830791D01*
X59087763Y-40861766D01*
X59075357Y-40931670D01*
X59051619Y-40964687D01*
X56544784Y-43471522D01*
X56526036Y-43486664D01*
X56524811Y-43487779D01*
X56516060Y-43493429D01*
X56509613Y-43501607D01*
X56509611Y-43501609D01*
X56495271Y-43519800D01*
X56491325Y-43524241D01*
X56491398Y-43524303D01*
X56488039Y-43528267D01*
X56484362Y-43531944D01*
X56473108Y-43547692D01*
X56469602Y-43552362D01*
X56437844Y-43592647D01*
X56434812Y-43601281D01*
X56429486Y-43608734D01*
X56426501Y-43618715D01*
X56414799Y-43657844D01*
X56412964Y-43663492D01*
X56395982Y-43711851D01*
X56395500Y-43717416D01*
X56395500Y-43720124D01*
X56395386Y-43722758D01*
X56395357Y-43722856D01*
X56395193Y-43722849D01*
X56395149Y-43723553D01*
X56393287Y-43729778D01*
X56393696Y-43740183D01*
X56395403Y-43783635D01*
X56395500Y-43788582D01*
X56395500Y-54013616D01*
X56375498Y-54081737D01*
X56358595Y-54102711D01*
X54031260Y-56430046D01*
X53968948Y-56464072D01*
X53958620Y-56465871D01*
X53892554Y-56474569D01*
X53838432Y-56481694D01*
X53838430Y-56481695D01*
X53830246Y-56482772D01*
X53796752Y-56496646D01*
X53702986Y-56535485D01*
X53702984Y-56535486D01*
X53695358Y-56538645D01*
X53579526Y-56627526D01*
X53490645Y-56743358D01*
X53487486Y-56750984D01*
X53487485Y-56750986D01*
X53466127Y-56802550D01*
X53434772Y-56878246D01*
X53433695Y-56886430D01*
X53433694Y-56886432D01*
X53423853Y-56961183D01*
X53415715Y-57023000D01*
X52582500Y-57023000D01*
X52582500Y-45609920D01*
X52585049Y-45585972D01*
X52585128Y-45584307D01*
X52587320Y-45574124D01*
X52583373Y-45540777D01*
X52583023Y-45534846D01*
X52582928Y-45534854D01*
X52582500Y-45529676D01*
X52582500Y-45524476D01*
X52581646Y-45519344D01*
X52579331Y-45505435D01*
X52578494Y-45499557D01*
X52573694Y-45458999D01*
X52573694Y-45458998D01*
X52572470Y-45448659D01*
X52568507Y-45440407D01*
X52567004Y-45431374D01*
X52542644Y-45386227D01*
X52539960Y-45380958D01*
X52521212Y-45341915D01*
X52517780Y-45334768D01*
X52514186Y-45330492D01*
X52512246Y-45328552D01*
X52510493Y-45326641D01*
X52510444Y-45326551D01*
X52510567Y-45326439D01*
X52510095Y-45325904D01*
X52507010Y-45320186D01*
X52467413Y-45283583D01*
X52463848Y-45280154D01*
X48235043Y-41051349D01*
X48201017Y-40989037D01*
X48199395Y-40944501D01*
X48203481Y-40915792D01*
X48203481Y-40915786D01*
X48204062Y-40911707D01*
X48204207Y-40897900D01*
X48185176Y-40740633D01*
X48129180Y-40592446D01*
X48075162Y-40513849D01*
X48043755Y-40468151D01*
X48043754Y-40468149D01*
X48039453Y-40461892D01*
X47921175Y-40356511D01*
X47913789Y-40352600D01*
X47871356Y-40330133D01*
X47781174Y-40282384D01*
X47627533Y-40243792D01*
X47619934Y-40243752D01*
X47619933Y-40243752D01*
X47554081Y-40243407D01*
X47469121Y-40242962D01*
X47461741Y-40244734D01*
X47461739Y-40244734D01*
X47322463Y-40278171D01*
X47322460Y-40278172D01*
X47315084Y-40279943D01*
X47174314Y-40352600D01*
X47054939Y-40456738D01*
X46963850Y-40586344D01*
X46951947Y-40616874D01*
X46911611Y-40720331D01*
X46906306Y-40733937D01*
X46905314Y-40741470D01*
X46905314Y-40741471D01*
X46896003Y-40812200D01*
X46885629Y-40890996D01*
X46890120Y-40931670D01*
X46898418Y-41006830D01*
X46903013Y-41048453D01*
X46905623Y-41055584D01*
X46905623Y-41055586D01*
X46935050Y-41135998D01*
X46957453Y-41197219D01*
X46961689Y-41203522D01*
X46961689Y-41203523D01*
X47031607Y-41307571D01*
X47045808Y-41328705D01*
X47051427Y-41333818D01*
X47051428Y-41333819D01*
X47156159Y-41429116D01*
X47162976Y-41435319D01*
X47302193Y-41510908D01*
X47455422Y-41551107D01*
X47552038Y-41552625D01*
X47613672Y-41553593D01*
X47681470Y-41574662D01*
X47700788Y-41590482D01*
X51786595Y-45676289D01*
X51820621Y-45738601D01*
X51823500Y-45765384D01*
X51823500Y-56047407D01*
X51803498Y-56115528D01*
X51749842Y-56162021D01*
X51679568Y-56172125D01*
X51614988Y-56142631D01*
X51577167Y-56084771D01*
X51561691Y-56034930D01*
X51554817Y-56012792D01*
X51551022Y-56004326D01*
X51459297Y-55799753D01*
X51426336Y-55726240D01*
X51264359Y-55457199D01*
X51071235Y-55209565D01*
X50849759Y-54986927D01*
X50826838Y-54968857D01*
X50606121Y-54794858D01*
X50603140Y-54792508D01*
X50334951Y-54629126D01*
X50115787Y-54529478D01*
X50052527Y-54500715D01*
X50052520Y-54500712D01*
X50049075Y-54499146D01*
X49749655Y-54404452D01*
X49612489Y-54378658D01*
X49444751Y-54347115D01*
X49444746Y-54347114D01*
X49441027Y-54346415D01*
X49127662Y-54325876D01*
X49123882Y-54326084D01*
X49123881Y-54326084D01*
X49035138Y-54330968D01*
X48814099Y-54343132D01*
X48810372Y-54343793D01*
X48810368Y-54343793D01*
X48593179Y-54382285D01*
X48504880Y-54397934D01*
X48501255Y-54399039D01*
X48501250Y-54399040D01*
X48323046Y-54453353D01*
X48204485Y-54489488D01*
X48201021Y-54491019D01*
X48201014Y-54491022D01*
X48114029Y-54529478D01*
X47917264Y-54616467D01*
X47914010Y-54618403D01*
X47914004Y-54618406D01*
X47665585Y-54766200D01*
X47647378Y-54777032D01*
X47398737Y-54968857D01*
X47396036Y-54971516D01*
X47396029Y-54971522D01*
X47377652Y-54989613D01*
X47174942Y-55189164D01*
X47172578Y-55192131D01*
X47172575Y-55192134D01*
X47097105Y-55286844D01*
X46979235Y-55434762D01*
X46814450Y-55702092D01*
X46682975Y-55987283D01*
X46586715Y-56286203D01*
X46585996Y-56289919D01*
X46585994Y-56289927D01*
X46527782Y-56590804D01*
X46527781Y-56590813D01*
X46527063Y-56594523D01*
X46526796Y-56598299D01*
X46526795Y-56598304D01*
X46509478Y-56842877D01*
X46504883Y-56907776D01*
X46505072Y-56911568D01*
X46518845Y-57188233D01*
X46520497Y-57221425D01*
X46521138Y-57225156D01*
X46521139Y-57225164D01*
X46572735Y-57525429D01*
X46573680Y-57530927D01*
X46574768Y-57534566D01*
X46574769Y-57534569D01*
X46647991Y-57779405D01*
X46663659Y-57831797D01*
X46665172Y-57835268D01*
X46665174Y-57835274D01*
X46741923Y-58011365D01*
X46789132Y-58119679D01*
X46791055Y-58122950D01*
X46791057Y-58122954D01*
X46851552Y-58225859D01*
X46948282Y-58390402D01*
X46950583Y-58393417D01*
X47132437Y-58631702D01*
X47138803Y-58640044D01*
X47141451Y-58642763D01*
X47141456Y-58642768D01*
X47355289Y-58862274D01*
X47357935Y-58864990D01*
X47360879Y-58867361D01*
X47360882Y-58867364D01*
X47599552Y-59059602D01*
X47599557Y-59059606D01*
X47602505Y-59061980D01*
X47868969Y-59228162D01*
X47988372Y-59283968D01*
X48149539Y-59359293D01*
X48153467Y-59361129D01*
X48157074Y-59362311D01*
X48157078Y-59362313D01*
X48287232Y-59404979D01*
X48451880Y-59458953D01*
X48455590Y-59459691D01*
X48455594Y-59459692D01*
X48566035Y-59481660D01*
X48759883Y-59520219D01*
X48916450Y-59532129D01*
X49069239Y-59543751D01*
X49069244Y-59543751D01*
X49073016Y-59544038D01*
X49386742Y-59530066D01*
X49390480Y-59529444D01*
X49390488Y-59529443D01*
X49541242Y-59504350D01*
X49696518Y-59478505D01*
X49997855Y-59390103D01*
X50286390Y-59266138D01*
X50406512Y-59196365D01*
X50475462Y-59179447D01*
X50542614Y-59202492D01*
X50586647Y-59258184D01*
X50593581Y-59328842D01*
X50558891Y-59394415D01*
X50348260Y-59605046D01*
X50285948Y-59639072D01*
X50275620Y-59640871D01*
X50209554Y-59649569D01*
X50155432Y-59656694D01*
X50155430Y-59656695D01*
X50147246Y-59657772D01*
X50139619Y-59660931D01*
X50139620Y-59660931D01*
X50019986Y-59710485D01*
X50019984Y-59710486D01*
X50012358Y-59713645D01*
X49896526Y-59802526D01*
X49807645Y-59918358D01*
X49804486Y-59925984D01*
X49804485Y-59925986D01*
X49789563Y-59962011D01*
X49751772Y-60053246D01*
X49750695Y-60061430D01*
X49750694Y-60061432D01*
X49740122Y-60141740D01*
X49732715Y-60198000D01*
X49751772Y-60342754D01*
X49760827Y-60364614D01*
X49788707Y-60431921D01*
X49807645Y-60477642D01*
X49848569Y-60530975D01*
X49887557Y-60581785D01*
X49896526Y-60593474D01*
X49903076Y-60598500D01*
X49903079Y-60598503D01*
X50002089Y-60674476D01*
X50012357Y-60682355D01*
X50147246Y-60738228D01*
X50292000Y-60757285D01*
X50300188Y-60756207D01*
X50428566Y-60739306D01*
X50436754Y-60738228D01*
X50571643Y-60682355D01*
X50581911Y-60674476D01*
X50680921Y-60598503D01*
X50680924Y-60598500D01*
X50687474Y-60593474D01*
X50696444Y-60581785D01*
X50735431Y-60530975D01*
X50776355Y-60477642D01*
X50795294Y-60431921D01*
X50823173Y-60364614D01*
X50832228Y-60342754D01*
X50849128Y-60214388D01*
X50877849Y-60149462D01*
X50884954Y-60141740D01*
X51117878Y-59908816D01*
X51180190Y-59874790D01*
X51251005Y-59879855D01*
X51307841Y-59922402D01*
X51323383Y-59949696D01*
X51331645Y-59969642D01*
X51336672Y-59976193D01*
X51409546Y-60071164D01*
X51420526Y-60085474D01*
X51427076Y-60090500D01*
X51427079Y-60090503D01*
X51529804Y-60169327D01*
X51536357Y-60174355D01*
X51671246Y-60230228D01*
X51816000Y-60249285D01*
X51824188Y-60248207D01*
X51952566Y-60231306D01*
X51960754Y-60230228D01*
X52095643Y-60174355D01*
X52198360Y-60095537D01*
X52264578Y-60069937D01*
X52275062Y-60069500D01*
X52368616Y-60069500D01*
X52436737Y-60089502D01*
X52457711Y-60106405D01*
X53177595Y-60826289D01*
X53211621Y-60888601D01*
X53214500Y-60915384D01*
X53214500Y-69391616D01*
X53194498Y-69459737D01*
X53140842Y-69506230D01*
X53070568Y-69516334D01*
X53005988Y-69486840D01*
X52999405Y-69480711D01*
X46286727Y-62768033D01*
X46252701Y-62705721D01*
X46258117Y-62645214D01*
X46254930Y-62644360D01*
X46257067Y-62636385D01*
X46260228Y-62628754D01*
X46279285Y-62484000D01*
X49478715Y-62484000D01*
X49497772Y-62628754D01*
X49500931Y-62636380D01*
X49547550Y-62748927D01*
X49553645Y-62763642D01*
X49642526Y-62879474D01*
X49649076Y-62884500D01*
X49649079Y-62884503D01*
X49751804Y-62963327D01*
X49758357Y-62968355D01*
X49893246Y-63024228D01*
X50021612Y-63041128D01*
X50086538Y-63069849D01*
X50094260Y-63076954D01*
X51061595Y-64044289D01*
X51095621Y-64106601D01*
X51098500Y-64133384D01*
X51098500Y-65414936D01*
X51078498Y-65483057D01*
X51072463Y-65491640D01*
X51040593Y-65533174D01*
X50993645Y-65594358D01*
X50990486Y-65601984D01*
X50990485Y-65601986D01*
X50957578Y-65681430D01*
X50937772Y-65729246D01*
X50936695Y-65737430D01*
X50936694Y-65737432D01*
X50921841Y-65850255D01*
X50918715Y-65874000D01*
X50937772Y-66018754D01*
X50993645Y-66153642D01*
X51082526Y-66269474D01*
X51089076Y-66274500D01*
X51089079Y-66274503D01*
X51191804Y-66353327D01*
X51198357Y-66358355D01*
X51333246Y-66414228D01*
X51478000Y-66433285D01*
X51486188Y-66432207D01*
X51614566Y-66415306D01*
X51622754Y-66414228D01*
X51757643Y-66358355D01*
X51764196Y-66353327D01*
X51866921Y-66274503D01*
X51866924Y-66274500D01*
X51873474Y-66269474D01*
X51962355Y-66153642D01*
X52018228Y-66018754D01*
X52037285Y-65874000D01*
X52034159Y-65850255D01*
X52019306Y-65737432D01*
X52019305Y-65737430D01*
X52018228Y-65729246D01*
X51998422Y-65681430D01*
X51965515Y-65601986D01*
X51965514Y-65601984D01*
X51962355Y-65594358D01*
X51915407Y-65533174D01*
X51883537Y-65491640D01*
X51857937Y-65425419D01*
X51857500Y-65414936D01*
X51857500Y-63977925D01*
X51860050Y-63953967D01*
X51860128Y-63952308D01*
X51862321Y-63942124D01*
X51861097Y-63931782D01*
X51861097Y-63931779D01*
X51858374Y-63908779D01*
X51858024Y-63902848D01*
X51857928Y-63902856D01*
X51857500Y-63897680D01*
X51857500Y-63892476D01*
X51854327Y-63873412D01*
X51853496Y-63867566D01*
X51851916Y-63854222D01*
X51847470Y-63816659D01*
X51843507Y-63808407D01*
X51842004Y-63799374D01*
X51817656Y-63754248D01*
X51814982Y-63749002D01*
X51792781Y-63702769D01*
X51789187Y-63698493D01*
X51787247Y-63696553D01*
X51785493Y-63694641D01*
X51785445Y-63694552D01*
X51785568Y-63694440D01*
X51785095Y-63693904D01*
X51782010Y-63688186D01*
X51742413Y-63651583D01*
X51738848Y-63648154D01*
X50630954Y-62540260D01*
X50596928Y-62477948D01*
X50595127Y-62467611D01*
X50592949Y-62451061D01*
X50583780Y-62381416D01*
X50579306Y-62347432D01*
X50579305Y-62347430D01*
X50578228Y-62339246D01*
X50555554Y-62284507D01*
X50525515Y-62211986D01*
X50525514Y-62211984D01*
X50522355Y-62204358D01*
X50452107Y-62112809D01*
X50438501Y-62095077D01*
X50438500Y-62095076D01*
X50433474Y-62088526D01*
X50426924Y-62083500D01*
X50426921Y-62083497D01*
X50324196Y-62004673D01*
X50324194Y-62004672D01*
X50317643Y-61999645D01*
X50182754Y-61943772D01*
X50038000Y-61924715D01*
X50029812Y-61925793D01*
X49901432Y-61942694D01*
X49901430Y-61942695D01*
X49893246Y-61943772D01*
X49845430Y-61963578D01*
X49765986Y-61996485D01*
X49765984Y-61996486D01*
X49758358Y-61999645D01*
X49642526Y-62088526D01*
X49637503Y-62095072D01*
X49623893Y-62112809D01*
X49553645Y-62204358D01*
X49550486Y-62211984D01*
X49550485Y-62211986D01*
X49520446Y-62284507D01*
X49497772Y-62339246D01*
X49496695Y-62347430D01*
X49496694Y-62347432D01*
X49492220Y-62381416D01*
X49478715Y-62484000D01*
X46279285Y-62484000D01*
X46265780Y-62381416D01*
X46261306Y-62347432D01*
X46261305Y-62347430D01*
X46260228Y-62339246D01*
X46237554Y-62284507D01*
X46207515Y-62211986D01*
X46207514Y-62211984D01*
X46204355Y-62204358D01*
X46134107Y-62112809D01*
X46120501Y-62095077D01*
X46120500Y-62095076D01*
X46115474Y-62088526D01*
X46108924Y-62083500D01*
X46108921Y-62083497D01*
X46006196Y-62004673D01*
X46006194Y-62004672D01*
X45999643Y-61999645D01*
X45864754Y-61943772D01*
X45720000Y-61924715D01*
X45711812Y-61925793D01*
X45583432Y-61942694D01*
X45583430Y-61942695D01*
X45575246Y-61943772D01*
X45527430Y-61963578D01*
X45447986Y-61996485D01*
X45447984Y-61996486D01*
X45440358Y-61999645D01*
X45324526Y-62088526D01*
X45319503Y-62095072D01*
X45305893Y-62112809D01*
X45235645Y-62204358D01*
X45232486Y-62211984D01*
X45232485Y-62211986D01*
X45202446Y-62284507D01*
X45179772Y-62339246D01*
X45178695Y-62347430D01*
X45178694Y-62347432D01*
X45174220Y-62381416D01*
X45160715Y-62484000D01*
X44189099Y-62484000D01*
X44189099Y-61765134D01*
X44178564Y-61712167D01*
X44176756Y-61703074D01*
X44176755Y-61703072D01*
X44174334Y-61690899D01*
X44161051Y-61671019D01*
X44124977Y-61617032D01*
X44118084Y-61606716D01*
X44033901Y-61550466D01*
X43959667Y-61535700D01*
X43084742Y-61535700D01*
X42209534Y-61535701D01*
X42173782Y-61542812D01*
X42147474Y-61548044D01*
X42147472Y-61548045D01*
X42135299Y-61550466D01*
X42124979Y-61557361D01*
X42124978Y-61557362D01*
X42051116Y-61606716D01*
X42050271Y-61605451D01*
X42000148Y-61632821D01*
X41973365Y-61635700D01*
X41312793Y-61635700D01*
X41309274Y-61635651D01*
X41229035Y-61633409D01*
X41229032Y-61633409D01*
X41222653Y-61633231D01*
X41216363Y-61634340D01*
X41216364Y-61634340D01*
X41162989Y-61643751D01*
X41153844Y-61645020D01*
X41104569Y-61650025D01*
X41093576Y-61651142D01*
X41087488Y-61653050D01*
X41087487Y-61653050D01*
X41065960Y-61659796D01*
X41050163Y-61663646D01*
X41027978Y-61667558D01*
X41027977Y-61667558D01*
X41021684Y-61668668D01*
X40970390Y-61688976D01*
X40965364Y-61690966D01*
X40956664Y-61694047D01*
X40948113Y-61696727D01*
X40898845Y-61712167D01*
X40873553Y-61726187D01*
X40858851Y-61733137D01*
X40837880Y-61741440D01*
X40837878Y-61741441D01*
X40831945Y-61743790D01*
X40826606Y-61747284D01*
X40826598Y-61747288D01*
X40781245Y-61776967D01*
X40773351Y-61781730D01*
X40720362Y-61811102D01*
X40715519Y-61815253D01*
X40698402Y-61829924D01*
X40685397Y-61839688D01*
X40665242Y-61852877D01*
X40665232Y-61852885D01*
X40661188Y-61855531D01*
X40657596Y-61858765D01*
X40657592Y-61858768D01*
X40657456Y-61858891D01*
X40656203Y-61860019D01*
X40617128Y-61899094D01*
X40610031Y-61905667D01*
X40565418Y-61943905D01*
X40546417Y-61968401D01*
X40535952Y-61980270D01*
X39439194Y-63077029D01*
X39436672Y-63079483D01*
X39373677Y-63139054D01*
X39370019Y-63144279D01*
X39370015Y-63144283D01*
X39338922Y-63188690D01*
X39333370Y-63196031D01*
X39295071Y-63242990D01*
X39281665Y-63268632D01*
X39273222Y-63282519D01*
X39256628Y-63306218D01*
X39254095Y-63312072D01*
X39254093Y-63312075D01*
X39232568Y-63361817D01*
X39228603Y-63370132D01*
X39200526Y-63423837D01*
X39198769Y-63429964D01*
X39198767Y-63429969D01*
X39192552Y-63451644D01*
X39187070Y-63466953D01*
X39178119Y-63487638D01*
X39178116Y-63487646D01*
X39175582Y-63493503D01*
X39163269Y-63552445D01*
X39163195Y-63552798D01*
X39160981Y-63561748D01*
X39144277Y-63620001D01*
X39143788Y-63626361D01*
X39142057Y-63648847D01*
X39139766Y-63664943D01*
X39136500Y-63680577D01*
X39133851Y-63693260D01*
X39133500Y-63699958D01*
X39133500Y-63755216D01*
X39133129Y-63764883D01*
X39129404Y-63813299D01*
X39128621Y-63823469D01*
X39129421Y-63829801D01*
X39132506Y-63854222D01*
X39133500Y-63870014D01*
X39133500Y-74329607D01*
X39133451Y-74333126D01*
X39132231Y-74376812D01*
X39131031Y-74419747D01*
X39132139Y-74426033D01*
X39132607Y-74432400D01*
X39132418Y-74432414D01*
X39133500Y-74444774D01*
X39133500Y-77350216D01*
X39133129Y-77359882D01*
X39128621Y-77418469D01*
X38868500Y-77418469D01*
X38868500Y-60071164D01*
X41975748Y-60071164D01*
X41989024Y-60273722D01*
X41990445Y-60279318D01*
X41990446Y-60279323D01*
X42028753Y-60430154D01*
X42038992Y-60470469D01*
X42041409Y-60475712D01*
X42078610Y-60556408D01*
X42123977Y-60654816D01*
X42127310Y-60659532D01*
X42195633Y-60756207D01*
X42241133Y-60820589D01*
X42386538Y-60962235D01*
X42555320Y-61075012D01*
X42560623Y-61077290D01*
X42560626Y-61077292D01*
X42736521Y-61152862D01*
X42741828Y-61155142D01*
X42814844Y-61171664D01*
X42934179Y-61198667D01*
X42934184Y-61198668D01*
X42939816Y-61199942D01*
X42945587Y-61200169D01*
X42945589Y-61200169D01*
X43005356Y-61202517D01*
X43142653Y-61207912D01*
X43246575Y-61192844D01*
X43337831Y-61179613D01*
X43337836Y-61179612D01*
X43343545Y-61178784D01*
X43349009Y-61176929D01*
X43349014Y-61176928D01*
X43530293Y-61115392D01*
X43530298Y-61115390D01*
X43535765Y-61113534D01*
X43712876Y-61014347D01*
X43728237Y-61001572D01*
X43864513Y-60888231D01*
X43868945Y-60884545D01*
X43955963Y-60779918D01*
X43995053Y-60732918D01*
X43995055Y-60732915D01*
X43998747Y-60728476D01*
X44065657Y-60608999D01*
X44095110Y-60556408D01*
X44095111Y-60556406D01*
X44097934Y-60551365D01*
X44099790Y-60545898D01*
X44099792Y-60545893D01*
X44161328Y-60364614D01*
X44161329Y-60364609D01*
X44163184Y-60359145D01*
X44164012Y-60353436D01*
X44164013Y-60353431D01*
X44191779Y-60161927D01*
X44192312Y-60158253D01*
X44193832Y-60100200D01*
X44177123Y-59918358D01*
X44175787Y-59903813D01*
X44175786Y-59903810D01*
X44175258Y-59898059D01*
X44170124Y-59879855D01*
X44121725Y-59708246D01*
X44121724Y-59708244D01*
X44120157Y-59702687D01*
X44109578Y-59681233D01*
X44032931Y-59525809D01*
X44030376Y-59520628D01*
X43908920Y-59357979D01*
X43759858Y-59220187D01*
X43754975Y-59217106D01*
X43754971Y-59217103D01*
X43593064Y-59114948D01*
X43588181Y-59111867D01*
X43399639Y-59036646D01*
X43393979Y-59035520D01*
X43393975Y-59035519D01*
X43206213Y-58998171D01*
X43206210Y-58998171D01*
X43200546Y-58997044D01*
X43194771Y-58996968D01*
X43194767Y-58996968D01*
X43093393Y-58995641D01*
X42997571Y-58994387D01*
X42991874Y-58995366D01*
X42991873Y-58995366D01*
X42803207Y-59027785D01*
X42797510Y-59028764D01*
X42607063Y-59099024D01*
X42432610Y-59202812D01*
X42428270Y-59206618D01*
X42428266Y-59206621D01*
X42287810Y-59329799D01*
X42279992Y-59336655D01*
X42276417Y-59341190D01*
X42276416Y-59341191D01*
X42272654Y-59345963D01*
X42154320Y-59496069D01*
X42151631Y-59501180D01*
X42151629Y-59501183D01*
X42138673Y-59525809D01*
X42059803Y-59675715D01*
X41999607Y-59869578D01*
X41975748Y-60071164D01*
X38868500Y-60071164D01*
X38868500Y-57531164D01*
X41975748Y-57531164D01*
X41989024Y-57733722D01*
X41990445Y-57739318D01*
X41990446Y-57739323D01*
X42033367Y-57908322D01*
X42038992Y-57930469D01*
X42041409Y-57935712D01*
X42082484Y-58024811D01*
X42123977Y-58114816D01*
X42127310Y-58119532D01*
X42160653Y-58166711D01*
X42241133Y-58280589D01*
X42245275Y-58284624D01*
X42304329Y-58342151D01*
X42386538Y-58422235D01*
X42391342Y-58425445D01*
X42422531Y-58446285D01*
X42555320Y-58535012D01*
X42560623Y-58537290D01*
X42560626Y-58537292D01*
X42736521Y-58612862D01*
X42741828Y-58615142D01*
X42814844Y-58631664D01*
X42934179Y-58658667D01*
X42934184Y-58658668D01*
X42939816Y-58659942D01*
X42945587Y-58660169D01*
X42945589Y-58660169D01*
X43005356Y-58662517D01*
X43142653Y-58667912D01*
X43243099Y-58653348D01*
X43337831Y-58639613D01*
X43337836Y-58639612D01*
X43343545Y-58638784D01*
X43349009Y-58636929D01*
X43349014Y-58636928D01*
X43530293Y-58575392D01*
X43530298Y-58575390D01*
X43535765Y-58573534D01*
X43712876Y-58474347D01*
X43719023Y-58469235D01*
X43849601Y-58360633D01*
X43868945Y-58344545D01*
X43911262Y-58293665D01*
X43995053Y-58192918D01*
X43995055Y-58192915D01*
X43998747Y-58188476D01*
X44097934Y-58011365D01*
X44099790Y-58005898D01*
X44099792Y-58005893D01*
X44161328Y-57824614D01*
X44161329Y-57824609D01*
X44163184Y-57819145D01*
X44164012Y-57813436D01*
X44164013Y-57813431D01*
X44191779Y-57621927D01*
X44192312Y-57618253D01*
X44193832Y-57560200D01*
X44175258Y-57358059D01*
X44173690Y-57352499D01*
X44121725Y-57168246D01*
X44121724Y-57168244D01*
X44120157Y-57162687D01*
X44109578Y-57141233D01*
X44032931Y-56985809D01*
X44030376Y-56980628D01*
X43908920Y-56817979D01*
X43759858Y-56680187D01*
X43754975Y-56677106D01*
X43754971Y-56677103D01*
X43593064Y-56574948D01*
X43588181Y-56571867D01*
X43399639Y-56496646D01*
X43393979Y-56495520D01*
X43393975Y-56495519D01*
X43206213Y-56458171D01*
X43206210Y-56458171D01*
X43200546Y-56457044D01*
X43194771Y-56456968D01*
X43194767Y-56456968D01*
X43093393Y-56455641D01*
X42997571Y-56454387D01*
X42991874Y-56455366D01*
X42991873Y-56455366D01*
X42832381Y-56482772D01*
X42797510Y-56488764D01*
X42607063Y-56559024D01*
X42432610Y-56662812D01*
X42428270Y-56666618D01*
X42428266Y-56666621D01*
X42340765Y-56743358D01*
X42279992Y-56796655D01*
X42276417Y-56801190D01*
X42276416Y-56801191D01*
X42270952Y-56808122D01*
X42154320Y-56956069D01*
X42151631Y-56961180D01*
X42151629Y-56961183D01*
X42119106Y-57023000D01*
X42059803Y-57135715D01*
X41999607Y-57329578D01*
X41975748Y-57531164D01*
X38868500Y-57531164D01*
X38868500Y-55287162D01*
X42013271Y-55287162D01*
X42038043Y-55384702D01*
X42041884Y-55395548D01*
X42121994Y-55569320D01*
X42127745Y-55579281D01*
X42238179Y-55735543D01*
X42245657Y-55744298D01*
X42382714Y-55877812D01*
X42391658Y-55885055D01*
X42550756Y-55991361D01*
X42560866Y-55996851D01*
X42736677Y-56072385D01*
X42747620Y-56075940D01*
X42812932Y-56090719D01*
X42827005Y-56089830D01*
X42830428Y-56080881D01*
X43338600Y-56080881D01*
X43342566Y-56094387D01*
X43351272Y-56095633D01*
X43530097Y-56034930D01*
X43540594Y-56030256D01*
X43707558Y-55936752D01*
X43717030Y-55930242D01*
X43864153Y-55807882D01*
X43872282Y-55799753D01*
X43994642Y-55652630D01*
X44001152Y-55643158D01*
X44094656Y-55476194D01*
X44099330Y-55465697D01*
X44160043Y-55286844D01*
X44158810Y-55278193D01*
X44145242Y-55274200D01*
X43356715Y-55274200D01*
X43341476Y-55278675D01*
X43340271Y-55280065D01*
X43338600Y-55287748D01*
X43338600Y-56080881D01*
X42830428Y-56080881D01*
X42830600Y-56080432D01*
X42830600Y-55292315D01*
X42826125Y-55277076D01*
X42824735Y-55275871D01*
X42817052Y-55274200D01*
X42028094Y-55274200D01*
X42014563Y-55278173D01*
X42013271Y-55287162D01*
X38868500Y-55287162D01*
X38868500Y-54762999D01*
X42012543Y-54762999D01*
X42019275Y-54766200D01*
X42812485Y-54766200D01*
X42827724Y-54761725D01*
X42828929Y-54760335D01*
X42830600Y-54752652D01*
X42830600Y-54748085D01*
X43338600Y-54748085D01*
X43343075Y-54763324D01*
X43344465Y-54764529D01*
X43352148Y-54766200D01*
X44141998Y-54766200D01*
X44155529Y-54762227D01*
X44156698Y-54754092D01*
X44121258Y-54628431D01*
X44117133Y-54617684D01*
X44032503Y-54446071D01*
X44026493Y-54436263D01*
X43912000Y-54282939D01*
X43904310Y-54274399D01*
X43763792Y-54144504D01*
X43754667Y-54137503D01*
X43592836Y-54035395D01*
X43582589Y-54030174D01*
X43404860Y-53959268D01*
X43393832Y-53956001D01*
X43356369Y-53948550D01*
X43343494Y-53949702D01*
X43338600Y-53964858D01*
X43338600Y-54748085D01*
X42830600Y-54748085D01*
X42830600Y-53961700D01*
X42826794Y-53948738D01*
X42811879Y-53946802D01*
X42803332Y-53948271D01*
X42792220Y-53951248D01*
X42612695Y-54017479D01*
X42602317Y-54022429D01*
X42437873Y-54120263D01*
X42428561Y-54127029D01*
X42284697Y-54253194D01*
X42276780Y-54261537D01*
X42158318Y-54411805D01*
X42152050Y-54421456D01*
X42062958Y-54590792D01*
X42058553Y-54601427D01*
X42012762Y-54748898D01*
X42012543Y-54762999D01*
X38868500Y-54762999D01*
X38868500Y-36721527D01*
X38870921Y-36696945D01*
X38871065Y-36696221D01*
X38873486Y-36684051D01*
X38871065Y-36671879D01*
X38871065Y-36659471D01*
X38871385Y-36659471D01*
X38870645Y-36648595D01*
X38884704Y-36416171D01*
X38886538Y-36401067D01*
X38933538Y-36144593D01*
X38937179Y-36129820D01*
X38958553Y-36061229D01*
X39014755Y-35880870D01*
X39020149Y-35866648D01*
X39068317Y-35759625D01*
X39127162Y-35628877D01*
X39134231Y-35615407D01*
X39269128Y-35392260D01*
X39277771Y-35379738D01*
X39438582Y-35174478D01*
X39448672Y-35163090D01*
X39633043Y-34978719D01*
X39644432Y-34968629D01*
X39849687Y-34807823D01*
X39862208Y-34799180D01*
X40085354Y-34664282D01*
X40098827Y-34657211D01*
X40336601Y-34550197D01*
X40350819Y-34544805D01*
X40599768Y-34467230D01*
X40614542Y-34463589D01*
X40871016Y-34416588D01*
X40886120Y-34414754D01*
X41022744Y-34406490D01*
X41118540Y-34400695D01*
X41129419Y-34401436D01*
X41129419Y-34401116D01*
X41141829Y-34401116D01*
X41154000Y-34403537D01*
X41166897Y-34400972D01*
X41191476Y-34398551D01*
X73120524Y-34398551D01*
X73145103Y-34400972D01*
G37*
G04 #@! TD.AperFunction*
M02*
