M48
; DRILL file {KiCad (6.0.10)} date Tue Aug 15 16:43:47 2023
; FORMAT={-:-/ absolute / metric / decimal}
; #@! TF.CreationDate,2023-08-15T16:43:47+01:00
; #@! TF.GenerationSoftware,Kicad,Pcbnew,(6.0.10)
; #@! TF.FileFunction,Plated,1,2,PTH
FMAT,2
METRIC
; #@! TA.AperFunction,Plated,PTH,ViaDrill
T1C0.300
; #@! TA.AperFunction,Plated,PTH,ViaDrill
T2C0.400
; #@! TA.AperFunction,Plated,PTH,ComponentDrill
T3C0.600
; #@! TA.AperFunction,Plated,PTH,ComponentDrill
T4C0.850
; #@! TA.AperFunction,Plated,PTH,ComponentDrill
T5C0.950
; #@! TA.AperFunction,Plated,PTH,ComponentDrill
T6C1.000
; #@! TA.AperFunction,Plated,PTH,ComponentDrill
T7C2.700
%
G90
G05
T1
X45.72Y-62.484
X50.038Y-62.484
X50.292Y-60.198
X51.478Y-65.874
X51.816Y-59.69
X52.578Y-61.214
X52.578Y-62.007
X52.578Y-62.738
X52.965Y-72.353
X52.965Y-73.369
X52.965Y-74.385
X53.975Y-57.023
X55.626Y-65.278
X57.404Y-69.977
X58.471Y-71.272
X59.182Y-65.796
X59.95Y-68.543
X60.325Y-82.677
X60.96Y-70.485
X62.992Y-64.008
X66.358Y-82.296
T2
X40.16Y-36.151
X40.16Y-37.167
X40.16Y-38.183
X40.16Y-39.199
X40.386Y-91.694
X41.176Y-36.151
X41.176Y-37.167
X41.176Y-38.183
X41.176Y-39.199
X44.348Y-78.486
X44.831Y-92.075
X45.669Y-53.746
X45.974Y-58.674
X45.974Y-65.532
X47.545Y-40.898
X48.133Y-80.518
X48.768Y-75.692
X49.022Y-68.58
X49.276Y-72.136
X49.784Y-64.262
X50.855Y-87.554
X52.07Y-78.74
X52.355Y-36.151
X52.355Y-37.167
X52.355Y-38.183
X52.355Y-39.199
X53.086Y-55.626
X53.371Y-36.151
X53.371Y-37.167
X53.371Y-38.183
X53.371Y-39.199
X55.88Y-87.122
X56.032Y-73.152
X57.404Y-60.452
X58.928Y-63.246
X59.436Y-67.564
X59.436Y-78.994
X59.741Y-40.812
X59.741Y-53.492
X61.722Y-82.296
X62.687Y-92.507
X63.297Y-87.274
X63.449Y-52.984
X64.547Y-36.151
X64.547Y-37.167
X64.547Y-38.183
X64.547Y-39.199
X65.532Y-86.487
X65.563Y-36.151
X65.563Y-37.167
X65.563Y-38.183
X65.563Y-39.199
X66.802Y-65.786
X67.005Y-73.355
X67.056Y-53.188
X67.412Y-76.962
X68.428Y-92.304
X70.233Y-40.642
X71.476Y-65.481
X73.508Y-91.643
X73.762Y-52.629
X73.812Y-39.065
T4
X54.656Y-89.274
X59.656Y-89.274
T5
X69.554Y-80.578
X69.554Y-83.078
X69.554Y-85.578
X69.554Y-88.078
T6
X43.085Y-55.02
X43.085Y-57.56
X43.085Y-60.1
X43.085Y-62.64
X43.085Y-68.101
X43.085Y-70.641
X43.085Y-73.181
X43.085Y-75.721
X43.085Y-81.182
X43.085Y-83.722
X43.085Y-86.262
X43.085Y-88.802
X48.266Y-84.672
X50.806Y-84.672
X64.516Y-68.118
X64.516Y-70.658
X64.516Y-74.371
X64.516Y-76.911
X71.222Y-55.067
X71.222Y-57.607
X71.222Y-60.147
X71.222Y-62.687
X71.222Y-68.121
X71.222Y-70.661
X71.222Y-73.201
X71.222Y-75.741
T7
X49.114Y-56.935
X49.114Y-89.935
X65.198Y-56.935
X65.198Y-89.935
T3
X53.656Y-92.324G85X53.656Y-91.624
G05
X60.656Y-91.624G85X60.656Y-92.324
G05
T0
M30
