G04 #@! TF.GenerationSoftware,KiCad,Pcbnew,(6.0.10)*
G04 #@! TF.CreationDate,2023-08-15T16:43:45+01:00*
G04 #@! TF.ProjectId,BlinkStickAdvanced,426c696e-6b53-4746-9963-6b416476616e,1.4*
G04 #@! TF.SameCoordinates,Original*
G04 #@! TF.FileFunction,Paste,Top*
G04 #@! TF.FilePolarity,Positive*
%FSLAX46Y46*%
G04 Gerber Fmt 4.6, Leading zero omitted, Abs format (unit mm)*
G04 Created by KiCad (PCBNEW (6.0.10)) date 2023-08-15 16:43:45*
%MOMM*%
%LPD*%
G01*
G04 APERTURE LIST*
G04 Aperture macros list*
%AMRoundRect*
0 Rectangle with rounded corners*
0 $1 Rounding radius*
0 $2 $3 $4 $5 $6 $7 $8 $9 X,Y pos of 4 corners*
0 Add a 4 corners polygon primitive as box body*
4,1,4,$2,$3,$4,$5,$6,$7,$8,$9,$2,$3,0*
0 Add four circle primitives for the rounded corners*
1,1,$1+$1,$2,$3*
1,1,$1+$1,$4,$5*
1,1,$1+$1,$6,$7*
1,1,$1+$1,$8,$9*
0 Add four rect primitives between the rounded corners*
20,1,$1+$1,$2,$3,$4,$5,0*
20,1,$1+$1,$4,$5,$6,$7,0*
20,1,$1+$1,$6,$7,$8,$9,0*
20,1,$1+$1,$8,$9,$2,$3,0*%
G04 Aperture macros list end*
%ADD10R,0.450000X0.600000*%
%ADD11R,1.500000X1.900000*%
%ADD12R,0.400000X1.350000*%
%ADD13RoundRect,0.237500X-0.250000X-0.237500X0.250000X-0.237500X0.250000X0.237500X-0.250000X0.237500X0*%
%ADD14R,1.400000X1.200000*%
%ADD15RoundRect,0.237500X-0.237500X0.300000X-0.237500X-0.300000X0.237500X-0.300000X0.237500X0.300000X0*%
%ADD16R,1.100000X4.600000*%
%ADD17R,5.250000X4.550000*%
%ADD18RoundRect,0.237500X0.237500X-0.250000X0.237500X0.250000X-0.237500X0.250000X-0.237500X-0.250000X0*%
%ADD19RoundRect,0.237500X-0.237500X0.250000X-0.237500X-0.250000X0.237500X-0.250000X0.237500X0.250000X0*%
%ADD20R,0.400000X1.900000*%
%ADD21RoundRect,0.237500X0.250000X0.237500X-0.250000X0.237500X-0.250000X-0.237500X0.250000X-0.237500X0*%
%ADD22R,1.600000X0.550000*%
%ADD23R,0.550000X1.600000*%
%ADD24RoundRect,0.237500X0.237500X-0.300000X0.237500X0.300000X-0.237500X0.300000X-0.237500X-0.300000X0*%
%ADD25RoundRect,0.237500X0.300000X0.237500X-0.300000X0.237500X-0.300000X-0.237500X0.300000X-0.237500X0*%
%ADD26R,2.500000X1.800000*%
%ADD27RoundRect,0.155000X0.155000X-0.212500X0.155000X0.212500X-0.155000X0.212500X-0.155000X-0.212500X0*%
%ADD28R,0.600000X0.450000*%
%ADD29RoundRect,0.155000X-0.155000X0.212500X-0.155000X-0.212500X0.155000X-0.212500X0.155000X0.212500X0*%
G04 APERTURE END LIST*
D10*
X61536750Y-85735500D03*
X61536750Y-83635500D03*
D11*
X58156000Y-91974300D03*
X56156000Y-91974300D03*
D12*
X58456000Y-89274300D03*
X57806000Y-89274300D03*
X57156000Y-89274300D03*
X56506000Y-89274300D03*
X55856000Y-89274300D03*
D13*
X60047500Y-65786000D03*
X61872500Y-65786000D03*
X46839500Y-60706000D03*
X48664500Y-60706000D03*
D14*
X51478000Y-64174000D03*
X53678000Y-64174000D03*
X53678000Y-65874000D03*
X51478000Y-65874000D03*
D15*
X61722000Y-79856500D03*
X61722000Y-78131500D03*
D16*
X66852800Y-37687600D03*
X71932800Y-37687600D03*
D17*
X66617800Y-44412600D03*
X72167800Y-49262600D03*
X72167800Y-44412600D03*
X66617800Y-49262600D03*
D13*
X60025000Y-64135000D03*
X61850000Y-64135000D03*
D18*
X57472750Y-85598000D03*
X57472750Y-83773000D03*
D19*
X59504750Y-83773000D03*
X59504750Y-85598000D03*
D20*
X51378000Y-62007000D03*
X52578000Y-62007000D03*
X53778000Y-62007000D03*
D21*
X65301500Y-82296000D03*
X63476500Y-82296000D03*
D16*
X54660800Y-37687600D03*
X59740800Y-37687600D03*
D17*
X59975800Y-44412600D03*
X54425800Y-44412600D03*
X54425800Y-49262600D03*
X59975800Y-49262600D03*
D13*
X52935500Y-58039000D03*
X54760500Y-58039000D03*
D15*
X56997600Y-63907500D03*
X56997600Y-65632500D03*
D22*
X59628000Y-69680000D03*
X59628000Y-70480000D03*
X59628000Y-71280000D03*
X59628000Y-72080000D03*
X59628000Y-72880000D03*
X59628000Y-73680000D03*
X59628000Y-74480000D03*
X59628000Y-75280000D03*
D23*
X58178000Y-76730000D03*
X57378000Y-76730000D03*
X56578000Y-76730000D03*
X55778000Y-76730000D03*
X54978000Y-76730000D03*
X54178000Y-76730000D03*
X53378000Y-76730000D03*
X52578000Y-76730000D03*
D22*
X51128000Y-75280000D03*
X51128000Y-74480000D03*
X51128000Y-73680000D03*
X51128000Y-72880000D03*
X51128000Y-72080000D03*
X51128000Y-71280000D03*
X51128000Y-70480000D03*
X51128000Y-69680000D03*
D23*
X52578000Y-68230000D03*
X53378000Y-68230000D03*
X54178000Y-68230000D03*
X54978000Y-68230000D03*
X55778000Y-68230000D03*
X56578000Y-68230000D03*
X57378000Y-68230000D03*
X58178000Y-68230000D03*
D13*
X52935500Y-59690000D03*
X54760500Y-59690000D03*
D10*
X53848000Y-85785500D03*
X53848000Y-83685500D03*
D24*
X55694750Y-85548000D03*
X55694750Y-83823000D03*
D13*
X46839500Y-62484000D03*
X48664500Y-62484000D03*
D25*
X54964500Y-78740000D03*
X53239500Y-78740000D03*
D16*
X42468800Y-37687600D03*
X47548800Y-37687600D03*
D17*
X47783800Y-49262600D03*
X42233800Y-49262600D03*
X42233800Y-44412600D03*
X47783800Y-44412600D03*
D26*
X58261000Y-81280000D03*
X54261000Y-81280000D03*
D27*
X49530000Y-65980500D03*
X49530000Y-67115500D03*
D28*
X63339000Y-84328000D03*
X65439000Y-84328000D03*
D29*
X55626000Y-64174000D03*
X55626000Y-63039000D03*
M02*
