G04 #@! TF.GenerationSoftware,KiCad,Pcbnew,(6.0.10)*
G04 #@! TF.CreationDate,2023-05-29T16:45:33+02:00*
G04 #@! TF.ProjectId,BlinkStickAdvanced,426c696e-6b53-4746-9963-6b416476616e,1.0*
G04 #@! TF.SameCoordinates,Original*
G04 #@! TF.FileFunction,Legend,Bot*
G04 #@! TF.FilePolarity,Positive*
%FSLAX46Y46*%
G04 Gerber Fmt 4.6, Leading zero omitted, Abs format (unit mm)*
G04 Created by KiCad (PCBNEW (6.0.10)) date 2023-05-29 16:45:33*
%MOMM*%
%LPD*%
G01*
G04 APERTURE LIST*
%ADD10C,0.008000*%
%ADD11C,0.150000*%
%ADD12C,0.010000*%
%ADD13R,1.700000X1.700000*%
%ADD14O,1.700000X1.700000*%
%ADD15R,2.200000X2.200000*%
%ADD16C,2.200000*%
%ADD17C,1.450000*%
%ADD18O,1.200000X1.900000*%
%ADD19C,4.700000*%
%ADD20C,1.400000*%
G04 APERTURE END LIST*
D10*
G36*
X56339186Y-77242082D02*
G01*
X55181249Y-77242082D01*
X55181249Y-77152158D01*
X54229556Y-77152158D01*
X54229556Y-76972481D01*
X55181249Y-76972481D01*
X55181249Y-76882630D01*
X56339186Y-76882630D01*
X56339186Y-77242082D01*
G37*
X56339186Y-77242082D02*
X55181249Y-77242082D01*
X55181249Y-77152158D01*
X54229556Y-77152158D01*
X54229556Y-76972481D01*
X55181249Y-76972481D01*
X55181249Y-76882630D01*
X56339186Y-76882630D01*
X56339186Y-77242082D01*
G36*
X56339186Y-78689561D02*
G01*
X55181249Y-78689561D01*
X55181249Y-78599674D01*
X53930038Y-78599674D01*
X53930038Y-78420033D01*
X55181249Y-78420033D01*
X55181249Y-78330073D01*
X56339186Y-78330073D01*
X56339186Y-78689561D01*
G37*
X56339186Y-78689561D02*
X55181249Y-78689561D01*
X55181249Y-78599674D01*
X53930038Y-78599674D01*
X53930038Y-78420033D01*
X55181249Y-78420033D01*
X55181249Y-78330073D01*
X56339186Y-78330073D01*
X56339186Y-78689561D01*
G36*
X57250936Y-79381775D02*
G01*
X56532166Y-79381775D01*
X56532166Y-76320222D01*
X57250936Y-76320222D01*
X57250936Y-79381775D01*
G37*
X57250936Y-79381775D02*
X56532166Y-79381775D01*
X56532166Y-76320222D01*
X57250936Y-76320222D01*
X57250936Y-79381775D01*
G36*
X58192467Y-76574740D02*
G01*
X58254652Y-76579469D01*
X58315934Y-76587257D01*
X58376235Y-76598027D01*
X58435477Y-76611702D01*
X58493585Y-76628204D01*
X58550481Y-76647458D01*
X58606088Y-76669386D01*
X58660329Y-76693910D01*
X58713127Y-76720955D01*
X58764406Y-76750444D01*
X58814088Y-76782298D01*
X58862097Y-76816442D01*
X58908355Y-76852798D01*
X58952786Y-76891289D01*
X58995313Y-76931840D01*
X59035858Y-76974371D01*
X59074345Y-77018808D01*
X59110696Y-77065072D01*
X59144836Y-77113086D01*
X59176687Y-77162775D01*
X59206171Y-77214060D01*
X59233213Y-77266866D01*
X59257735Y-77321114D01*
X59279660Y-77376728D01*
X59298912Y-77433631D01*
X59315412Y-77491747D01*
X59329085Y-77550998D01*
X59339854Y-77611307D01*
X59347641Y-77672597D01*
X59352370Y-77734792D01*
X59353963Y-77797814D01*
X59352370Y-77860818D01*
X59347640Y-77922997D01*
X59339852Y-77984273D01*
X59329082Y-78044569D01*
X59315408Y-78103808D01*
X59298905Y-78161914D01*
X59279652Y-78218808D01*
X59257725Y-78274415D01*
X59233200Y-78328656D01*
X59206156Y-78381456D01*
X59176669Y-78432737D01*
X59144816Y-78482421D01*
X59110674Y-78530433D01*
X59074320Y-78576695D01*
X59035831Y-78621130D01*
X58995284Y-78663661D01*
X58952755Y-78704210D01*
X58908323Y-78742702D01*
X58862063Y-78779059D01*
X58814054Y-78813204D01*
X58764371Y-78845060D01*
X58713091Y-78874549D01*
X58660293Y-78901596D01*
X58606052Y-78926123D01*
X58550446Y-78948052D01*
X58493552Y-78967308D01*
X58435446Y-78983812D01*
X58376206Y-78997488D01*
X58315908Y-79008259D01*
X58254631Y-79016048D01*
X58192449Y-79020778D01*
X58129441Y-79022372D01*
X57437312Y-79022372D01*
X57437312Y-76573147D01*
X58129453Y-76573147D01*
X58192467Y-76574740D01*
G37*
X58192467Y-76574740D02*
X58254652Y-76579469D01*
X58315934Y-76587257D01*
X58376235Y-76598027D01*
X58435477Y-76611702D01*
X58493585Y-76628204D01*
X58550481Y-76647458D01*
X58606088Y-76669386D01*
X58660329Y-76693910D01*
X58713127Y-76720955D01*
X58764406Y-76750444D01*
X58814088Y-76782298D01*
X58862097Y-76816442D01*
X58908355Y-76852798D01*
X58952786Y-76891289D01*
X58995313Y-76931840D01*
X59035858Y-76974371D01*
X59074345Y-77018808D01*
X59110696Y-77065072D01*
X59144836Y-77113086D01*
X59176687Y-77162775D01*
X59206171Y-77214060D01*
X59233213Y-77266866D01*
X59257735Y-77321114D01*
X59279660Y-77376728D01*
X59298912Y-77433631D01*
X59315412Y-77491747D01*
X59329085Y-77550998D01*
X59339854Y-77611307D01*
X59347641Y-77672597D01*
X59352370Y-77734792D01*
X59353963Y-77797814D01*
X59352370Y-77860818D01*
X59347640Y-77922997D01*
X59339852Y-77984273D01*
X59329082Y-78044569D01*
X59315408Y-78103808D01*
X59298905Y-78161914D01*
X59279652Y-78218808D01*
X59257725Y-78274415D01*
X59233200Y-78328656D01*
X59206156Y-78381456D01*
X59176669Y-78432737D01*
X59144816Y-78482421D01*
X59110674Y-78530433D01*
X59074320Y-78576695D01*
X59035831Y-78621130D01*
X58995284Y-78663661D01*
X58952755Y-78704210D01*
X58908323Y-78742702D01*
X58862063Y-78779059D01*
X58814054Y-78813204D01*
X58764371Y-78845060D01*
X58713091Y-78874549D01*
X58660293Y-78901596D01*
X58606052Y-78926123D01*
X58550446Y-78948052D01*
X58493552Y-78967308D01*
X58435446Y-78983812D01*
X58376206Y-78997488D01*
X58315908Y-79008259D01*
X58254631Y-79016048D01*
X58192449Y-79020778D01*
X58129441Y-79022372D01*
X57437312Y-79022372D01*
X57437312Y-76573147D01*
X58129453Y-76573147D01*
X58192467Y-76574740D01*
D11*
X58323428Y-75150071D02*
X58275809Y-75007214D01*
X58228190Y-74959595D01*
X58132952Y-74911976D01*
X57990095Y-74911976D01*
X57894857Y-74959595D01*
X57847238Y-75007214D01*
X57799619Y-75102452D01*
X57799619Y-75483404D01*
X58799619Y-75483404D01*
X58799619Y-75150071D01*
X58752000Y-75054833D01*
X58704380Y-75007214D01*
X58609142Y-74959595D01*
X58513904Y-74959595D01*
X58418666Y-75007214D01*
X58371047Y-75054833D01*
X58323428Y-75150071D01*
X58323428Y-75483404D01*
X57799619Y-74340547D02*
X57847238Y-74435785D01*
X57942476Y-74483404D01*
X58799619Y-74483404D01*
X57799619Y-73959595D02*
X58466285Y-73959595D01*
X58799619Y-73959595D02*
X58752000Y-74007214D01*
X58704380Y-73959595D01*
X58752000Y-73911976D01*
X58799619Y-73959595D01*
X58704380Y-73959595D01*
X58466285Y-73483404D02*
X57799619Y-73483404D01*
X58371047Y-73483404D02*
X58418666Y-73435785D01*
X58466285Y-73340547D01*
X58466285Y-73197690D01*
X58418666Y-73102452D01*
X58323428Y-73054833D01*
X57799619Y-73054833D01*
X57799619Y-72578642D02*
X58799619Y-72578642D01*
X58180571Y-72483404D02*
X57799619Y-72197690D01*
X58466285Y-72197690D02*
X58085333Y-72578642D01*
X57847238Y-71816738D02*
X57799619Y-71673880D01*
X57799619Y-71435785D01*
X57847238Y-71340547D01*
X57894857Y-71292928D01*
X57990095Y-71245309D01*
X58085333Y-71245309D01*
X58180571Y-71292928D01*
X58228190Y-71340547D01*
X58275809Y-71435785D01*
X58323428Y-71626261D01*
X58371047Y-71721500D01*
X58418666Y-71769119D01*
X58513904Y-71816738D01*
X58609142Y-71816738D01*
X58704380Y-71769119D01*
X58752000Y-71721500D01*
X58799619Y-71626261D01*
X58799619Y-71388166D01*
X58752000Y-71245309D01*
X58466285Y-70959595D02*
X58466285Y-70578642D01*
X58799619Y-70816738D02*
X57942476Y-70816738D01*
X57847238Y-70769119D01*
X57799619Y-70673880D01*
X57799619Y-70578642D01*
X57799619Y-70245309D02*
X58466285Y-70245309D01*
X58799619Y-70245309D02*
X58752000Y-70292928D01*
X58704380Y-70245309D01*
X58752000Y-70197690D01*
X58799619Y-70245309D01*
X58704380Y-70245309D01*
X57847238Y-69340547D02*
X57799619Y-69435785D01*
X57799619Y-69626261D01*
X57847238Y-69721500D01*
X57894857Y-69769119D01*
X57990095Y-69816738D01*
X58275809Y-69816738D01*
X58371047Y-69769119D01*
X58418666Y-69721500D01*
X58466285Y-69626261D01*
X58466285Y-69435785D01*
X58418666Y-69340547D01*
X57799619Y-68911976D02*
X58799619Y-68911976D01*
X58180571Y-68816738D02*
X57799619Y-68531023D01*
X58466285Y-68531023D02*
X58085333Y-68911976D01*
X58085333Y-67388166D02*
X58085333Y-66911976D01*
X57799619Y-67483404D02*
X58799619Y-67150071D01*
X57799619Y-66816738D01*
X57799619Y-66054833D02*
X58799619Y-66054833D01*
X57847238Y-66054833D02*
X57799619Y-66150071D01*
X57799619Y-66340547D01*
X57847238Y-66435785D01*
X57894857Y-66483404D01*
X57990095Y-66531023D01*
X58275809Y-66531023D01*
X58371047Y-66483404D01*
X58418666Y-66435785D01*
X58466285Y-66340547D01*
X58466285Y-66150071D01*
X58418666Y-66054833D01*
X58466285Y-65673880D02*
X57799619Y-65435785D01*
X58466285Y-65197690D01*
X57799619Y-64388166D02*
X58323428Y-64388166D01*
X58418666Y-64435785D01*
X58466285Y-64531023D01*
X58466285Y-64721500D01*
X58418666Y-64816738D01*
X57847238Y-64388166D02*
X57799619Y-64483404D01*
X57799619Y-64721500D01*
X57847238Y-64816738D01*
X57942476Y-64864357D01*
X58037714Y-64864357D01*
X58132952Y-64816738D01*
X58180571Y-64721500D01*
X58180571Y-64483404D01*
X58228190Y-64388166D01*
X58466285Y-63911976D02*
X57799619Y-63911976D01*
X58371047Y-63911976D02*
X58418666Y-63864357D01*
X58466285Y-63769119D01*
X58466285Y-63626261D01*
X58418666Y-63531023D01*
X58323428Y-63483404D01*
X57799619Y-63483404D01*
X57847238Y-62578642D02*
X57799619Y-62673880D01*
X57799619Y-62864357D01*
X57847238Y-62959595D01*
X57894857Y-63007214D01*
X57990095Y-63054833D01*
X58275809Y-63054833D01*
X58371047Y-63007214D01*
X58418666Y-62959595D01*
X58466285Y-62864357D01*
X58466285Y-62673880D01*
X58418666Y-62578642D01*
X57847238Y-61769119D02*
X57799619Y-61864357D01*
X57799619Y-62054833D01*
X57847238Y-62150071D01*
X57942476Y-62197690D01*
X58323428Y-62197690D01*
X58418666Y-62150071D01*
X58466285Y-62054833D01*
X58466285Y-61864357D01*
X58418666Y-61769119D01*
X58323428Y-61721500D01*
X58228190Y-61721500D01*
X58132952Y-62197690D01*
X57799619Y-60864357D02*
X58799619Y-60864357D01*
X57847238Y-60864357D02*
X57799619Y-60959595D01*
X57799619Y-61150071D01*
X57847238Y-61245309D01*
X57894857Y-61292928D01*
X57990095Y-61340547D01*
X58275809Y-61340547D01*
X58371047Y-61292928D01*
X58418666Y-61245309D01*
X58466285Y-61150071D01*
X58466285Y-60959595D01*
X58418666Y-60864357D01*
X55808666Y-75197690D02*
X55856285Y-75245309D01*
X55999142Y-75340547D01*
X56094380Y-75388166D01*
X56237238Y-75435785D01*
X56475333Y-75483404D01*
X56665809Y-75483404D01*
X56903904Y-75435785D01*
X57046761Y-75388166D01*
X57142000Y-75340547D01*
X57284857Y-75245309D01*
X57332476Y-75197690D01*
X56237238Y-74388166D02*
X56189619Y-74483404D01*
X56189619Y-74673880D01*
X56237238Y-74769119D01*
X56284857Y-74816738D01*
X56380095Y-74864357D01*
X56665809Y-74864357D01*
X56761047Y-74816738D01*
X56808666Y-74769119D01*
X56856285Y-74673880D01*
X56856285Y-74483404D01*
X56808666Y-74388166D01*
X55808666Y-74054833D02*
X55856285Y-74007214D01*
X55999142Y-73911976D01*
X56094380Y-73864357D01*
X56237238Y-73816738D01*
X56475333Y-73769119D01*
X56665809Y-73769119D01*
X56903904Y-73816738D01*
X57046761Y-73864357D01*
X57142000Y-73911976D01*
X57284857Y-74007214D01*
X57332476Y-74054833D01*
X56713428Y-72197690D02*
X56713428Y-72531023D01*
X56189619Y-72531023D02*
X57189619Y-72531023D01*
X57189619Y-72054833D01*
X56189619Y-71531023D02*
X56237238Y-71626261D01*
X56284857Y-71673880D01*
X56380095Y-71721500D01*
X56665809Y-71721500D01*
X56761047Y-71673880D01*
X56808666Y-71626261D01*
X56856285Y-71531023D01*
X56856285Y-71388166D01*
X56808666Y-71292928D01*
X56761047Y-71245309D01*
X56665809Y-71197690D01*
X56380095Y-71197690D01*
X56284857Y-71245309D01*
X56237238Y-71292928D01*
X56189619Y-71388166D01*
X56189619Y-71531023D01*
X56189619Y-70864357D02*
X56856285Y-70340547D01*
X56856285Y-70864357D02*
X56189619Y-70340547D01*
X56189619Y-69531023D02*
X57189619Y-69531023D01*
X56237238Y-69531023D02*
X56189619Y-69626261D01*
X56189619Y-69816738D01*
X56237238Y-69911976D01*
X56284857Y-69959595D01*
X56380095Y-70007214D01*
X56665809Y-70007214D01*
X56761047Y-69959595D01*
X56808666Y-69911976D01*
X56856285Y-69816738D01*
X56856285Y-69626261D01*
X56808666Y-69531023D01*
X56189619Y-68911976D02*
X56237238Y-69007214D01*
X56284857Y-69054833D01*
X56380095Y-69102452D01*
X56665809Y-69102452D01*
X56761047Y-69054833D01*
X56808666Y-69007214D01*
X56856285Y-68911976D01*
X56856285Y-68769119D01*
X56808666Y-68673880D01*
X56761047Y-68626261D01*
X56665809Y-68578642D01*
X56380095Y-68578642D01*
X56284857Y-68626261D01*
X56237238Y-68673880D01*
X56189619Y-68769119D01*
X56189619Y-68911976D01*
X56856285Y-67721500D02*
X56046761Y-67721500D01*
X55951523Y-67769119D01*
X55903904Y-67816738D01*
X55856285Y-67911976D01*
X55856285Y-68054833D01*
X55903904Y-68150071D01*
X56237238Y-67721500D02*
X56189619Y-67816738D01*
X56189619Y-68007214D01*
X56237238Y-68102452D01*
X56284857Y-68150071D01*
X56380095Y-68197690D01*
X56665809Y-68197690D01*
X56761047Y-68150071D01*
X56808666Y-68102452D01*
X56856285Y-68007214D01*
X56856285Y-67816738D01*
X56808666Y-67721500D01*
X56856285Y-67388166D02*
X56856285Y-67007214D01*
X56189619Y-67245309D02*
X57046761Y-67245309D01*
X57142000Y-67197690D01*
X57189619Y-67102452D01*
X57189619Y-67007214D01*
X56189619Y-66245309D02*
X56713428Y-66245309D01*
X56808666Y-66292928D01*
X56856285Y-66388166D01*
X56856285Y-66578642D01*
X56808666Y-66673880D01*
X56237238Y-66245309D02*
X56189619Y-66340547D01*
X56189619Y-66578642D01*
X56237238Y-66673880D01*
X56332476Y-66721500D01*
X56427714Y-66721500D01*
X56522952Y-66673880D01*
X56570571Y-66578642D01*
X56570571Y-66340547D01*
X56618190Y-66245309D01*
X56237238Y-65340547D02*
X56189619Y-65435785D01*
X56189619Y-65626261D01*
X56237238Y-65721500D01*
X56284857Y-65769119D01*
X56380095Y-65816738D01*
X56665809Y-65816738D01*
X56761047Y-65769119D01*
X56808666Y-65721500D01*
X56856285Y-65626261D01*
X56856285Y-65435785D01*
X56808666Y-65340547D01*
X56237238Y-64531023D02*
X56189619Y-64626261D01*
X56189619Y-64816738D01*
X56237238Y-64911976D01*
X56332476Y-64959595D01*
X56713428Y-64959595D01*
X56808666Y-64911976D01*
X56856285Y-64816738D01*
X56856285Y-64626261D01*
X56808666Y-64531023D01*
X56713428Y-64483404D01*
X56618190Y-64483404D01*
X56522952Y-64959595D01*
X56189619Y-62483404D02*
X56189619Y-62531023D01*
X56237238Y-62626261D01*
X56380095Y-62769119D01*
X56665809Y-63007214D01*
X56808666Y-63102452D01*
X56951523Y-63150071D01*
X57046761Y-63150071D01*
X57142000Y-63102452D01*
X57189619Y-63007214D01*
X57189619Y-62959595D01*
X57142000Y-62864357D01*
X57046761Y-62816738D01*
X56999142Y-62816738D01*
X56903904Y-62864357D01*
X56856285Y-62911976D01*
X56665809Y-63197690D01*
X56618190Y-63245309D01*
X56522952Y-63292928D01*
X56380095Y-63292928D01*
X56284857Y-63245309D01*
X56237238Y-63197690D01*
X56189619Y-63102452D01*
X56189619Y-62959595D01*
X56237238Y-62864357D01*
X56284857Y-62816738D01*
X56475333Y-62673880D01*
X56618190Y-62626261D01*
X56713428Y-62626261D01*
X56475333Y-61340547D02*
X56475333Y-60864357D01*
X56189619Y-61435785D02*
X57189619Y-61102452D01*
X56189619Y-60769119D01*
X56856285Y-60007214D02*
X56046761Y-60007214D01*
X55951523Y-60054833D01*
X55903904Y-60102452D01*
X55856285Y-60197690D01*
X55856285Y-60340547D01*
X55903904Y-60435785D01*
X56237238Y-60007214D02*
X56189619Y-60102452D01*
X56189619Y-60292928D01*
X56237238Y-60388166D01*
X56284857Y-60435785D01*
X56380095Y-60483404D01*
X56665809Y-60483404D01*
X56761047Y-60435785D01*
X56808666Y-60388166D01*
X56856285Y-60292928D01*
X56856285Y-60102452D01*
X56808666Y-60007214D01*
X56189619Y-59531023D02*
X56856285Y-59531023D01*
X57189619Y-59531023D02*
X57142000Y-59578642D01*
X57094380Y-59531023D01*
X57142000Y-59483404D01*
X57189619Y-59531023D01*
X57094380Y-59531023D01*
X56189619Y-58911976D02*
X56237238Y-59007214D01*
X56332476Y-59054833D01*
X57189619Y-59054833D01*
X56237238Y-58150071D02*
X56189619Y-58245309D01*
X56189619Y-58435785D01*
X56237238Y-58531023D01*
X56332476Y-58578642D01*
X56713428Y-58578642D01*
X56808666Y-58531023D01*
X56856285Y-58435785D01*
X56856285Y-58245309D01*
X56808666Y-58150071D01*
X56713428Y-58102452D01*
X56618190Y-58102452D01*
X56522952Y-58578642D01*
X56189619Y-56911976D02*
X57189619Y-56911976D01*
X56856285Y-56435785D02*
X56189619Y-56435785D01*
X56761047Y-56435785D02*
X56808666Y-56388166D01*
X56856285Y-56292928D01*
X56856285Y-56150071D01*
X56808666Y-56054833D01*
X56713428Y-56007214D01*
X56189619Y-56007214D01*
X56189619Y-55388166D02*
X56237238Y-55483404D01*
X56284857Y-55531023D01*
X56380095Y-55578642D01*
X56665809Y-55578642D01*
X56761047Y-55531023D01*
X56808666Y-55483404D01*
X56856285Y-55388166D01*
X56856285Y-55245309D01*
X56808666Y-55150071D01*
X56761047Y-55102452D01*
X56665809Y-55054833D01*
X56380095Y-55054833D01*
X56284857Y-55102452D01*
X56237238Y-55150071D01*
X56189619Y-55245309D01*
X56189619Y-55388166D01*
X56856285Y-54721500D02*
X56189619Y-54483404D01*
X56856285Y-54245309D01*
X56189619Y-53435785D02*
X56713428Y-53435785D01*
X56808666Y-53483404D01*
X56856285Y-53578642D01*
X56856285Y-53769119D01*
X56808666Y-53864357D01*
X56237238Y-53435785D02*
X56189619Y-53531023D01*
X56189619Y-53769119D01*
X56237238Y-53864357D01*
X56332476Y-53911976D01*
X56427714Y-53911976D01*
X56522952Y-53864357D01*
X56570571Y-53769119D01*
X56570571Y-53531023D01*
X56618190Y-53435785D01*
X56856285Y-53102452D02*
X56856285Y-52721500D01*
X57189619Y-52959595D02*
X56332476Y-52959595D01*
X56237238Y-52911976D01*
X56189619Y-52816738D01*
X56189619Y-52721500D01*
X56189619Y-52388166D02*
X56856285Y-52388166D01*
X57189619Y-52388166D02*
X57142000Y-52435785D01*
X57094380Y-52388166D01*
X57142000Y-52340547D01*
X57189619Y-52388166D01*
X57094380Y-52388166D01*
X56856285Y-52007214D02*
X56189619Y-51769119D01*
X56856285Y-51531023D01*
X56237238Y-50769119D02*
X56189619Y-50864357D01*
X56189619Y-51054833D01*
X56237238Y-51150071D01*
X56332476Y-51197690D01*
X56713428Y-51197690D01*
X56808666Y-51150071D01*
X56856285Y-51054833D01*
X56856285Y-50864357D01*
X56808666Y-50769119D01*
X56713428Y-50721500D01*
X56618190Y-50721500D01*
X56522952Y-51197690D01*
X56189619Y-49054833D02*
X56189619Y-49531023D01*
X57189619Y-49531023D01*
X56856285Y-48864357D02*
X56856285Y-48483404D01*
X57189619Y-48721500D02*
X56332476Y-48721500D01*
X56237238Y-48673880D01*
X56189619Y-48578642D01*
X56189619Y-48483404D01*
X56189619Y-47721500D02*
X57189619Y-47721500D01*
X56237238Y-47721500D02*
X56189619Y-47816738D01*
X56189619Y-48007214D01*
X56237238Y-48102452D01*
X56284857Y-48150071D01*
X56380095Y-48197690D01*
X56665809Y-48197690D01*
X56761047Y-48150071D01*
X56808666Y-48102452D01*
X56856285Y-48007214D01*
X56856285Y-47816738D01*
X56808666Y-47721500D01*
X55246285Y-75054833D02*
X54436761Y-75054833D01*
X54341523Y-75102452D01*
X54293904Y-75150071D01*
X54246285Y-75245309D01*
X54246285Y-75388166D01*
X54293904Y-75483404D01*
X54627238Y-75054833D02*
X54579619Y-75150071D01*
X54579619Y-75340547D01*
X54627238Y-75435785D01*
X54674857Y-75483404D01*
X54770095Y-75531023D01*
X55055809Y-75531023D01*
X55151047Y-75483404D01*
X55198666Y-75435785D01*
X55246285Y-75340547D01*
X55246285Y-75150071D01*
X55198666Y-75054833D01*
X54579619Y-74578642D02*
X55246285Y-74578642D01*
X55579619Y-74578642D02*
X55532000Y-74626261D01*
X55484380Y-74578642D01*
X55532000Y-74531023D01*
X55579619Y-74578642D01*
X55484380Y-74578642D01*
X55246285Y-74245309D02*
X55246285Y-73864357D01*
X55579619Y-74102452D02*
X54722476Y-74102452D01*
X54627238Y-74054833D01*
X54579619Y-73959595D01*
X54579619Y-73864357D01*
X54579619Y-73531023D02*
X55579619Y-73531023D01*
X54579619Y-73102452D02*
X55103428Y-73102452D01*
X55198666Y-73150071D01*
X55246285Y-73245309D01*
X55246285Y-73388166D01*
X55198666Y-73483404D01*
X55151047Y-73531023D01*
X55246285Y-72197690D02*
X54579619Y-72197690D01*
X55246285Y-72626261D02*
X54722476Y-72626261D01*
X54627238Y-72578642D01*
X54579619Y-72483404D01*
X54579619Y-72340547D01*
X54627238Y-72245309D01*
X54674857Y-72197690D01*
X54579619Y-71721500D02*
X55579619Y-71721500D01*
X55198666Y-71721500D02*
X55246285Y-71626261D01*
X55246285Y-71435785D01*
X55198666Y-71340547D01*
X55151047Y-71292928D01*
X55055809Y-71245309D01*
X54770095Y-71245309D01*
X54674857Y-71292928D01*
X54627238Y-71340547D01*
X54579619Y-71435785D01*
X54579619Y-71626261D01*
X54627238Y-71721500D01*
X54674857Y-70816738D02*
X54627238Y-70769119D01*
X54579619Y-70816738D01*
X54627238Y-70864357D01*
X54674857Y-70816738D01*
X54579619Y-70816738D01*
X54627238Y-69911976D02*
X54579619Y-70007214D01*
X54579619Y-70197690D01*
X54627238Y-70292928D01*
X54674857Y-70340547D01*
X54770095Y-70388166D01*
X55055809Y-70388166D01*
X55151047Y-70340547D01*
X55198666Y-70292928D01*
X55246285Y-70197690D01*
X55246285Y-70007214D01*
X55198666Y-69911976D01*
X54579619Y-69340547D02*
X54627238Y-69435785D01*
X54674857Y-69483404D01*
X54770095Y-69531023D01*
X55055809Y-69531023D01*
X55151047Y-69483404D01*
X55198666Y-69435785D01*
X55246285Y-69340547D01*
X55246285Y-69197690D01*
X55198666Y-69102452D01*
X55151047Y-69054833D01*
X55055809Y-69007214D01*
X54770095Y-69007214D01*
X54674857Y-69054833D01*
X54627238Y-69102452D01*
X54579619Y-69197690D01*
X54579619Y-69340547D01*
X54579619Y-68578642D02*
X55246285Y-68578642D01*
X55151047Y-68578642D02*
X55198666Y-68531023D01*
X55246285Y-68435785D01*
X55246285Y-68292928D01*
X55198666Y-68197690D01*
X55103428Y-68150071D01*
X54579619Y-68150071D01*
X55103428Y-68150071D02*
X55198666Y-68102452D01*
X55246285Y-68007214D01*
X55246285Y-67864357D01*
X55198666Y-67769119D01*
X55103428Y-67721500D01*
X54579619Y-67721500D01*
X55627238Y-66531023D02*
X54341523Y-67388166D01*
X55103428Y-65864357D02*
X55103428Y-66197690D01*
X54579619Y-66197690D02*
X55579619Y-66197690D01*
X55579619Y-65721500D01*
X54579619Y-65197690D02*
X54627238Y-65292928D01*
X54674857Y-65340547D01*
X54770095Y-65388166D01*
X55055809Y-65388166D01*
X55151047Y-65340547D01*
X55198666Y-65292928D01*
X55246285Y-65197690D01*
X55246285Y-65054833D01*
X55198666Y-64959595D01*
X55151047Y-64911976D01*
X55055809Y-64864357D01*
X54770095Y-64864357D01*
X54674857Y-64911976D01*
X54627238Y-64959595D01*
X54579619Y-65054833D01*
X54579619Y-65197690D01*
X54579619Y-64531023D02*
X55246285Y-64007214D01*
X55246285Y-64531023D02*
X54579619Y-64007214D01*
X54579619Y-63197690D02*
X55579619Y-63197690D01*
X54627238Y-63197690D02*
X54579619Y-63292928D01*
X54579619Y-63483404D01*
X54627238Y-63578642D01*
X54674857Y-63626261D01*
X54770095Y-63673880D01*
X55055809Y-63673880D01*
X55151047Y-63626261D01*
X55198666Y-63578642D01*
X55246285Y-63483404D01*
X55246285Y-63292928D01*
X55198666Y-63197690D01*
X54579619Y-62578642D02*
X54627238Y-62673880D01*
X54674857Y-62721500D01*
X54770095Y-62769119D01*
X55055809Y-62769119D01*
X55151047Y-62721500D01*
X55198666Y-62673880D01*
X55246285Y-62578642D01*
X55246285Y-62435785D01*
X55198666Y-62340547D01*
X55151047Y-62292928D01*
X55055809Y-62245309D01*
X54770095Y-62245309D01*
X54674857Y-62292928D01*
X54627238Y-62340547D01*
X54579619Y-62435785D01*
X54579619Y-62578642D01*
X55246285Y-61388166D02*
X54436761Y-61388166D01*
X54341523Y-61435785D01*
X54293904Y-61483404D01*
X54246285Y-61578642D01*
X54246285Y-61721500D01*
X54293904Y-61816738D01*
X54627238Y-61388166D02*
X54579619Y-61483404D01*
X54579619Y-61673880D01*
X54627238Y-61769119D01*
X54674857Y-61816738D01*
X54770095Y-61864357D01*
X55055809Y-61864357D01*
X55151047Y-61816738D01*
X55198666Y-61769119D01*
X55246285Y-61673880D01*
X55246285Y-61483404D01*
X55198666Y-61388166D01*
X55246285Y-61054833D02*
X55246285Y-60673880D01*
X54579619Y-60911976D02*
X55436761Y-60911976D01*
X55532000Y-60864357D01*
X55579619Y-60769119D01*
X55579619Y-60673880D01*
X54579619Y-59911976D02*
X55103428Y-59911976D01*
X55198666Y-59959595D01*
X55246285Y-60054833D01*
X55246285Y-60245309D01*
X55198666Y-60340547D01*
X54627238Y-59911976D02*
X54579619Y-60007214D01*
X54579619Y-60245309D01*
X54627238Y-60340547D01*
X54722476Y-60388166D01*
X54817714Y-60388166D01*
X54912952Y-60340547D01*
X54960571Y-60245309D01*
X54960571Y-60007214D01*
X55008190Y-59911976D01*
X54627238Y-59007214D02*
X54579619Y-59102452D01*
X54579619Y-59292928D01*
X54627238Y-59388166D01*
X54674857Y-59435785D01*
X54770095Y-59483404D01*
X55055809Y-59483404D01*
X55151047Y-59435785D01*
X55198666Y-59388166D01*
X55246285Y-59292928D01*
X55246285Y-59102452D01*
X55198666Y-59007214D01*
X54627238Y-58197690D02*
X54579619Y-58292928D01*
X54579619Y-58483404D01*
X54627238Y-58578642D01*
X54722476Y-58626261D01*
X55103428Y-58626261D01*
X55198666Y-58578642D01*
X55246285Y-58483404D01*
X55246285Y-58292928D01*
X55198666Y-58197690D01*
X55103428Y-58150071D01*
X55008190Y-58150071D01*
X54912952Y-58626261D01*
X55627238Y-57007214D02*
X54341523Y-57864357D01*
X55103428Y-56340547D02*
X55055809Y-56197690D01*
X55008190Y-56150071D01*
X54912952Y-56102452D01*
X54770095Y-56102452D01*
X54674857Y-56150071D01*
X54627238Y-56197690D01*
X54579619Y-56292928D01*
X54579619Y-56673880D01*
X55579619Y-56673880D01*
X55579619Y-56340547D01*
X55532000Y-56245309D01*
X55484380Y-56197690D01*
X55389142Y-56150071D01*
X55293904Y-56150071D01*
X55198666Y-56197690D01*
X55151047Y-56245309D01*
X55103428Y-56340547D01*
X55103428Y-56673880D01*
X54579619Y-55531023D02*
X54627238Y-55626261D01*
X54722476Y-55673880D01*
X55579619Y-55673880D01*
X54579619Y-55150071D02*
X55246285Y-55150071D01*
X55579619Y-55150071D02*
X55532000Y-55197690D01*
X55484380Y-55150071D01*
X55532000Y-55102452D01*
X55579619Y-55150071D01*
X55484380Y-55150071D01*
X55246285Y-54673880D02*
X54579619Y-54673880D01*
X55151047Y-54673880D02*
X55198666Y-54626261D01*
X55246285Y-54531023D01*
X55246285Y-54388166D01*
X55198666Y-54292928D01*
X55103428Y-54245309D01*
X54579619Y-54245309D01*
X54579619Y-53769119D02*
X55579619Y-53769119D01*
X54960571Y-53673880D02*
X54579619Y-53388166D01*
X55246285Y-53388166D02*
X54865333Y-53769119D01*
X54627238Y-53007214D02*
X54579619Y-52864357D01*
X54579619Y-52626261D01*
X54627238Y-52531023D01*
X54674857Y-52483404D01*
X54770095Y-52435785D01*
X54865333Y-52435785D01*
X54960571Y-52483404D01*
X55008190Y-52531023D01*
X55055809Y-52626261D01*
X55103428Y-52816738D01*
X55151047Y-52911976D01*
X55198666Y-52959595D01*
X55293904Y-53007214D01*
X55389142Y-53007214D01*
X55484380Y-52959595D01*
X55532000Y-52911976D01*
X55579619Y-52816738D01*
X55579619Y-52578642D01*
X55532000Y-52435785D01*
X55246285Y-52150071D02*
X55246285Y-51769119D01*
X55579619Y-52007214D02*
X54722476Y-52007214D01*
X54627238Y-51959595D01*
X54579619Y-51864357D01*
X54579619Y-51769119D01*
X54579619Y-51435785D02*
X55246285Y-51435785D01*
X55579619Y-51435785D02*
X55532000Y-51483404D01*
X55484380Y-51435785D01*
X55532000Y-51388166D01*
X55579619Y-51435785D01*
X55484380Y-51435785D01*
X54627238Y-50531023D02*
X54579619Y-50626261D01*
X54579619Y-50816738D01*
X54627238Y-50911976D01*
X54674857Y-50959595D01*
X54770095Y-51007214D01*
X55055809Y-51007214D01*
X55151047Y-50959595D01*
X55198666Y-50911976D01*
X55246285Y-50816738D01*
X55246285Y-50626261D01*
X55198666Y-50531023D01*
X54579619Y-50102452D02*
X55579619Y-50102452D01*
X54960571Y-50007214D02*
X54579619Y-49721500D01*
X55246285Y-49721500D02*
X54865333Y-50102452D01*
X54865333Y-49340547D02*
X54865333Y-48864357D01*
X54579619Y-49435785D02*
X55579619Y-49102452D01*
X54579619Y-48769119D01*
X54579619Y-48007214D02*
X55579619Y-48007214D01*
X54627238Y-48007214D02*
X54579619Y-48102452D01*
X54579619Y-48292928D01*
X54627238Y-48388166D01*
X54674857Y-48435785D01*
X54770095Y-48483404D01*
X55055809Y-48483404D01*
X55151047Y-48435785D01*
X55198666Y-48388166D01*
X55246285Y-48292928D01*
X55246285Y-48102452D01*
X55198666Y-48007214D01*
X55246285Y-47626261D02*
X54579619Y-47388166D01*
X55246285Y-47150071D01*
X54579619Y-46340547D02*
X55103428Y-46340547D01*
X55198666Y-46388166D01*
X55246285Y-46483404D01*
X55246285Y-46673880D01*
X55198666Y-46769119D01*
X54627238Y-46340547D02*
X54579619Y-46435785D01*
X54579619Y-46673880D01*
X54627238Y-46769119D01*
X54722476Y-46816738D01*
X54817714Y-46816738D01*
X54912952Y-46769119D01*
X54960571Y-46673880D01*
X54960571Y-46435785D01*
X55008190Y-46340547D01*
X55246285Y-45864357D02*
X54579619Y-45864357D01*
X55151047Y-45864357D02*
X55198666Y-45816738D01*
X55246285Y-45721500D01*
X55246285Y-45578642D01*
X55198666Y-45483404D01*
X55103428Y-45435785D01*
X54579619Y-45435785D01*
X54627238Y-44531023D02*
X54579619Y-44626261D01*
X54579619Y-44816738D01*
X54627238Y-44911976D01*
X54674857Y-44959595D01*
X54770095Y-45007214D01*
X55055809Y-45007214D01*
X55151047Y-44959595D01*
X55198666Y-44911976D01*
X55246285Y-44816738D01*
X55246285Y-44626261D01*
X55198666Y-44531023D01*
X54627238Y-43721500D02*
X54579619Y-43816738D01*
X54579619Y-44007214D01*
X54627238Y-44102452D01*
X54722476Y-44150071D01*
X55103428Y-44150071D01*
X55198666Y-44102452D01*
X55246285Y-44007214D01*
X55246285Y-43816738D01*
X55198666Y-43721500D01*
X55103428Y-43673880D01*
X55008190Y-43673880D01*
X54912952Y-44150071D01*
X54579619Y-42816738D02*
X55579619Y-42816738D01*
X54627238Y-42816738D02*
X54579619Y-42911976D01*
X54579619Y-43102452D01*
X54627238Y-43197690D01*
X54674857Y-43245309D01*
X54770095Y-43292928D01*
X55055809Y-43292928D01*
X55151047Y-43245309D01*
X55198666Y-43197690D01*
X55246285Y-43102452D01*
X55246285Y-42911976D01*
X55198666Y-42816738D01*
G36*
X42651706Y-46208284D02*
G01*
X42729615Y-46208539D01*
X42789625Y-46209183D01*
X42834352Y-46210387D01*
X42866415Y-46212324D01*
X42888429Y-46215164D01*
X42903013Y-46219079D01*
X42912782Y-46224242D01*
X42920355Y-46230822D01*
X42939377Y-46260006D01*
X42938537Y-46293137D01*
X42915224Y-46327291D01*
X42887515Y-46355000D01*
X42574463Y-46355000D01*
X42490433Y-46354959D01*
X42416211Y-46354701D01*
X42359459Y-46354030D01*
X42317488Y-46352752D01*
X42287611Y-46350673D01*
X42267139Y-46347599D01*
X42253386Y-46343334D01*
X42243663Y-46337684D01*
X42235283Y-46330455D01*
X42213819Y-46298991D01*
X42212053Y-46263826D01*
X42231733Y-46230822D01*
X42237602Y-46225516D01*
X42246686Y-46220066D01*
X42260027Y-46215900D01*
X42280243Y-46212846D01*
X42309951Y-46210732D01*
X42351768Y-46209386D01*
X42408311Y-46208638D01*
X42482198Y-46208314D01*
X42576044Y-46208245D01*
X42651706Y-46208284D01*
G37*
D12*
X42651706Y-46208284D02*
X42729615Y-46208539D01*
X42789625Y-46209183D01*
X42834352Y-46210387D01*
X42866415Y-46212324D01*
X42888429Y-46215164D01*
X42903013Y-46219079D01*
X42912782Y-46224242D01*
X42920355Y-46230822D01*
X42939377Y-46260006D01*
X42938537Y-46293137D01*
X42915224Y-46327291D01*
X42887515Y-46355000D01*
X42574463Y-46355000D01*
X42490433Y-46354959D01*
X42416211Y-46354701D01*
X42359459Y-46354030D01*
X42317488Y-46352752D01*
X42287611Y-46350673D01*
X42267139Y-46347599D01*
X42253386Y-46343334D01*
X42243663Y-46337684D01*
X42235283Y-46330455D01*
X42213819Y-46298991D01*
X42212053Y-46263826D01*
X42231733Y-46230822D01*
X42237602Y-46225516D01*
X42246686Y-46220066D01*
X42260027Y-46215900D01*
X42280243Y-46212846D01*
X42309951Y-46210732D01*
X42351768Y-46209386D01*
X42408311Y-46208638D01*
X42482198Y-46208314D01*
X42576044Y-46208245D01*
X42651706Y-46208284D01*
G36*
X47100208Y-49582614D02*
G01*
X46968989Y-49583059D01*
X46821784Y-49583362D01*
X46657651Y-49583548D01*
X46475648Y-49583642D01*
X46274835Y-49583671D01*
X46054268Y-49583661D01*
X45813008Y-49583636D01*
X45550111Y-49583622D01*
X45507960Y-49583622D01*
X45247332Y-49583646D01*
X45008204Y-49583685D01*
X44789640Y-49583708D01*
X44590705Y-49583687D01*
X44410465Y-49583593D01*
X44247985Y-49583395D01*
X44102330Y-49583063D01*
X43972566Y-49582569D01*
X43857757Y-49581883D01*
X43756970Y-49580976D01*
X43669270Y-49579817D01*
X43593721Y-49578378D01*
X43529389Y-49576629D01*
X43475339Y-49574540D01*
X43430637Y-49572083D01*
X43394348Y-49569227D01*
X43365537Y-49565943D01*
X43343269Y-49562202D01*
X43326610Y-49557974D01*
X43314625Y-49553229D01*
X43306379Y-49547939D01*
X43300938Y-49542073D01*
X43297366Y-49535602D01*
X43294730Y-49528497D01*
X43292094Y-49520728D01*
X43288523Y-49512266D01*
X43286855Y-49507908D01*
X43284889Y-49499395D01*
X43283089Y-49486694D01*
X43281445Y-49468885D01*
X43279953Y-49445049D01*
X43278603Y-49414266D01*
X43277389Y-49375617D01*
X43276303Y-49328182D01*
X43275444Y-49277296D01*
X43789600Y-49277296D01*
X43847217Y-49238523D01*
X43856107Y-49232432D01*
X43870931Y-49221976D01*
X43884578Y-49212579D01*
X43898235Y-49204183D01*
X43913089Y-49196733D01*
X43930330Y-49190173D01*
X43951145Y-49184446D01*
X43976720Y-49179495D01*
X44008245Y-49175266D01*
X44046907Y-49171701D01*
X44093893Y-49168744D01*
X44150392Y-49166340D01*
X44217591Y-49164431D01*
X44296678Y-49162962D01*
X44388840Y-49161876D01*
X44495266Y-49161118D01*
X44617143Y-49160630D01*
X44755659Y-49160358D01*
X44912001Y-49160243D01*
X45087358Y-49160231D01*
X45282918Y-49160265D01*
X45499867Y-49160289D01*
X45622487Y-49160280D01*
X45827553Y-49160243D01*
X46011884Y-49160227D01*
X46176666Y-49160288D01*
X46323084Y-49160484D01*
X46452326Y-49160870D01*
X46565578Y-49161505D01*
X46664025Y-49162444D01*
X46748856Y-49163745D01*
X46821256Y-49165464D01*
X46882411Y-49167659D01*
X46933508Y-49170385D01*
X46975733Y-49173701D01*
X47010273Y-49177662D01*
X47038314Y-49182325D01*
X47061042Y-49187747D01*
X47079644Y-49193986D01*
X47095307Y-49201097D01*
X47109216Y-49209138D01*
X47122559Y-49218166D01*
X47136521Y-49228236D01*
X47152289Y-49239407D01*
X47210133Y-49279197D01*
X47210133Y-48219314D01*
X47147034Y-48257311D01*
X47121995Y-48271993D01*
X47094414Y-48286531D01*
X47066300Y-48298627D01*
X47035449Y-48308532D01*
X46999656Y-48316494D01*
X46956717Y-48322761D01*
X46904426Y-48327582D01*
X46840581Y-48331206D01*
X46762975Y-48333881D01*
X46669406Y-48335857D01*
X46557667Y-48337382D01*
X46425555Y-48338704D01*
X46305566Y-48339613D01*
X46188937Y-48340020D01*
X46093469Y-48339767D01*
X46019444Y-48338857D01*
X45967145Y-48337293D01*
X45936851Y-48335079D01*
X45928844Y-48332220D01*
X45932142Y-48329161D01*
X45953592Y-48311006D01*
X45990111Y-48281275D01*
X46039558Y-48241639D01*
X46099793Y-48193771D01*
X46168673Y-48139343D01*
X46244057Y-48080027D01*
X46323804Y-48017495D01*
X46405772Y-47953421D01*
X46487820Y-47889475D01*
X46567806Y-47827331D01*
X46643589Y-47768661D01*
X46713027Y-47715137D01*
X46773979Y-47668430D01*
X46824304Y-47630214D01*
X46861860Y-47602161D01*
X46884505Y-47585943D01*
X46956788Y-47540635D01*
X47036537Y-47500661D01*
X47104812Y-47479130D01*
X47162156Y-47475827D01*
X47210133Y-47481116D01*
X47209883Y-46349356D01*
X47179278Y-46388867D01*
X47171911Y-46398248D01*
X47117562Y-46461183D01*
X47049741Y-46529997D01*
X46966484Y-46606596D01*
X46865822Y-46692888D01*
X46845153Y-46710052D01*
X46795591Y-46750833D01*
X46734674Y-46800588D01*
X46664102Y-46857955D01*
X46585576Y-46921569D01*
X46500796Y-46990069D01*
X46411463Y-47062090D01*
X46319278Y-47136270D01*
X46300298Y-47151517D01*
X46225940Y-47211246D01*
X46133152Y-47285653D01*
X46042612Y-47358131D01*
X45956022Y-47427314D01*
X45875082Y-47491841D01*
X45801494Y-47550347D01*
X45736956Y-47601470D01*
X45683171Y-47643847D01*
X45641838Y-47676115D01*
X45614658Y-47696910D01*
X45603332Y-47704869D01*
X45599229Y-47703111D01*
X45578666Y-47690230D01*
X45542439Y-47665885D01*
X45492176Y-47631247D01*
X45429508Y-47587486D01*
X45356064Y-47535775D01*
X45273473Y-47477284D01*
X45183364Y-47413184D01*
X45087369Y-47344646D01*
X44987115Y-47272843D01*
X44884232Y-47198944D01*
X44780350Y-47124121D01*
X44677099Y-47049545D01*
X44576108Y-46976387D01*
X44479006Y-46905819D01*
X44387423Y-46839011D01*
X44302989Y-46777135D01*
X44227333Y-46721361D01*
X44162084Y-46672862D01*
X44108872Y-46632807D01*
X44069327Y-46602369D01*
X44043974Y-46581944D01*
X43989705Y-46535899D01*
X43933225Y-46485612D01*
X43883331Y-46438815D01*
X43789600Y-46347651D01*
X43789600Y-47502090D01*
X43865800Y-47501456D01*
X43907840Y-47502574D01*
X43943666Y-47508304D01*
X43981228Y-47520890D01*
X44029423Y-47542568D01*
X44036103Y-47545789D01*
X44085641Y-47571188D01*
X44133631Y-47597996D01*
X44170534Y-47620917D01*
X44177166Y-47625485D01*
X44208407Y-47647516D01*
X44253346Y-47679693D01*
X44309853Y-47720457D01*
X44375796Y-47768245D01*
X44449043Y-47821498D01*
X44527464Y-47878655D01*
X44608928Y-47938155D01*
X44691302Y-47998437D01*
X44772456Y-48057940D01*
X44850258Y-48115105D01*
X44922577Y-48168370D01*
X44987282Y-48216174D01*
X45042241Y-48256957D01*
X45085324Y-48289158D01*
X45114398Y-48311216D01*
X45127333Y-48321571D01*
X45131649Y-48326044D01*
X45133688Y-48330236D01*
X45131074Y-48333643D01*
X45122014Y-48336325D01*
X45104715Y-48338341D01*
X45077386Y-48339748D01*
X45038235Y-48340605D01*
X44985467Y-48340970D01*
X44917293Y-48340903D01*
X44831918Y-48340460D01*
X44727551Y-48339702D01*
X44602400Y-48338685D01*
X44557700Y-48338308D01*
X44436605Y-48337169D01*
X44335312Y-48335972D01*
X44251738Y-48334636D01*
X44183796Y-48333077D01*
X44129401Y-48331215D01*
X44086468Y-48328966D01*
X44052911Y-48326248D01*
X44026645Y-48322979D01*
X44005584Y-48319078D01*
X43987643Y-48314461D01*
X43961230Y-48306192D01*
X43899228Y-48282583D01*
X43846427Y-48256685D01*
X43809355Y-48231535D01*
X43807925Y-48230339D01*
X43803576Y-48228168D01*
X43799974Y-48230328D01*
X43797049Y-48238644D01*
X43794731Y-48254940D01*
X43792949Y-48281041D01*
X43791633Y-48318771D01*
X43790714Y-48369956D01*
X43790122Y-48436420D01*
X43789785Y-48519987D01*
X43789635Y-48622483D01*
X43789600Y-48745732D01*
X43789600Y-49277296D01*
X43275444Y-49277296D01*
X43275339Y-49271043D01*
X43274489Y-49203279D01*
X43273747Y-49123971D01*
X43273103Y-49032199D01*
X43272553Y-48927044D01*
X43272087Y-48807587D01*
X43271700Y-48672908D01*
X43271384Y-48522088D01*
X43271131Y-48354206D01*
X43270934Y-48168345D01*
X43270787Y-47963583D01*
X43270682Y-47739002D01*
X43270611Y-47493682D01*
X43270568Y-47226704D01*
X43270563Y-47188321D01*
X43270520Y-46922922D01*
X43270475Y-46679050D01*
X43270452Y-46455783D01*
X43270476Y-46252196D01*
X43270570Y-46067367D01*
X43270757Y-45900373D01*
X43271061Y-45750290D01*
X43271396Y-45649445D01*
X43789600Y-45649445D01*
X43789651Y-45718356D01*
X43789909Y-45816607D01*
X43790363Y-45906030D01*
X43790990Y-45984333D01*
X43791765Y-46049223D01*
X43792665Y-46098411D01*
X43793666Y-46129604D01*
X43794743Y-46140511D01*
X43797963Y-46139322D01*
X43815548Y-46129176D01*
X43841842Y-46112040D01*
X43854309Y-46103540D01*
X43868378Y-46094329D01*
X43882649Y-46086233D01*
X43898521Y-46079185D01*
X43917391Y-46073117D01*
X43940659Y-46067961D01*
X43969722Y-46063651D01*
X44005979Y-46060119D01*
X44050830Y-46057297D01*
X44105672Y-46055118D01*
X44171903Y-46053514D01*
X44250923Y-46052419D01*
X44344129Y-46051765D01*
X44452921Y-46051484D01*
X44578697Y-46051509D01*
X44722855Y-46051772D01*
X44886793Y-46052206D01*
X45071911Y-46052745D01*
X45250768Y-46053279D01*
X45409626Y-46053805D01*
X45548684Y-46054350D01*
X45669335Y-46054945D01*
X45772972Y-46055619D01*
X45860989Y-46056403D01*
X45934777Y-46057326D01*
X45995731Y-46058419D01*
X46045243Y-46059712D01*
X46084707Y-46061235D01*
X46115516Y-46063019D01*
X46139062Y-46065092D01*
X46156740Y-46067486D01*
X46169941Y-46070230D01*
X46180060Y-46073356D01*
X46188489Y-46076892D01*
X46196625Y-46080791D01*
X46233456Y-46100438D01*
X46263609Y-46119225D01*
X46265092Y-46120272D01*
X46287341Y-46134602D01*
X46300298Y-46140511D01*
X46300751Y-46139504D01*
X46302197Y-46122305D01*
X46303520Y-46085656D01*
X46304684Y-46031962D01*
X46305653Y-45963630D01*
X46306389Y-45883064D01*
X46306858Y-45792670D01*
X46307022Y-45694853D01*
X46307022Y-45249195D01*
X45130155Y-45246120D01*
X43953289Y-45243045D01*
X43894378Y-45216407D01*
X43869817Y-45204485D01*
X43839566Y-45187246D01*
X43822440Y-45174074D01*
X43814409Y-45166076D01*
X43799507Y-45158378D01*
X43798235Y-45162260D01*
X43796209Y-45185520D01*
X43794374Y-45227874D01*
X43792773Y-45287132D01*
X43791451Y-45361107D01*
X43790452Y-45447610D01*
X43789820Y-45544452D01*
X43789600Y-45649445D01*
X43271396Y-45649445D01*
X43271506Y-45616196D01*
X43272115Y-45497166D01*
X43272911Y-45392279D01*
X43273920Y-45300610D01*
X43275163Y-45221237D01*
X43276665Y-45153237D01*
X43278449Y-45095686D01*
X43280539Y-45047662D01*
X43282958Y-45008240D01*
X43285730Y-44976499D01*
X43288879Y-44951514D01*
X43292428Y-44932364D01*
X43296402Y-44918123D01*
X43300822Y-44907871D01*
X43305714Y-44900682D01*
X43311100Y-44895635D01*
X43317004Y-44891805D01*
X43323451Y-44888271D01*
X43330463Y-44884108D01*
X43332313Y-44883025D01*
X43337820Y-44880813D01*
X43346132Y-44878786D01*
X43358191Y-44876938D01*
X43374937Y-44875261D01*
X43397313Y-44873745D01*
X43426260Y-44872383D01*
X43462720Y-44871167D01*
X43507633Y-44870089D01*
X43561943Y-44869140D01*
X43626590Y-44868312D01*
X43702516Y-44867597D01*
X43790662Y-44866987D01*
X43891971Y-44866474D01*
X44007383Y-44866050D01*
X44137840Y-44865706D01*
X44284284Y-44865434D01*
X44447656Y-44865227D01*
X44628899Y-44865076D01*
X44828952Y-44864972D01*
X45048759Y-44864908D01*
X45289261Y-44864876D01*
X45551398Y-44864867D01*
X47742969Y-44864867D01*
X47781351Y-44903249D01*
X47805089Y-44930355D01*
X47816889Y-44957253D01*
X47819733Y-44993560D01*
X47819733Y-45045489D01*
X47731794Y-45045489D01*
X47681898Y-45047427D01*
X47571477Y-45066199D01*
X47470013Y-45103217D01*
X47378848Y-45156369D01*
X47299327Y-45223546D01*
X47232795Y-45302638D01*
X47180594Y-45391534D01*
X47144070Y-45488125D01*
X47124566Y-45590300D01*
X47123427Y-45695950D01*
X47141995Y-45802964D01*
X47181616Y-45909232D01*
X47239484Y-46006219D01*
X47314316Y-46091293D01*
X47402385Y-46160015D01*
X47501384Y-46210918D01*
X47609007Y-46242535D01*
X47722946Y-46253400D01*
X47819733Y-46253400D01*
X47819733Y-47873753D01*
X47819720Y-48084897D01*
X47819670Y-48289020D01*
X47819570Y-48472686D01*
X47819408Y-48636991D01*
X47819171Y-48783029D01*
X47818847Y-48911894D01*
X47818425Y-49024683D01*
X47817891Y-49122488D01*
X47817233Y-49206404D01*
X47816439Y-49277527D01*
X47815496Y-49336950D01*
X47814392Y-49385768D01*
X47813116Y-49425077D01*
X47811653Y-49455969D01*
X47809993Y-49479541D01*
X47808122Y-49496886D01*
X47806028Y-49509099D01*
X47803700Y-49517275D01*
X47801124Y-49522508D01*
X47797555Y-49528504D01*
X47794022Y-49535279D01*
X47790512Y-49541478D01*
X47786082Y-49547126D01*
X47779792Y-49552247D01*
X47770699Y-49556869D01*
X47757861Y-49561015D01*
X47740338Y-49564713D01*
X47717187Y-49567987D01*
X47687466Y-49570863D01*
X47650235Y-49573367D01*
X47604551Y-49575524D01*
X47549473Y-49577360D01*
X47484059Y-49578900D01*
X47407367Y-49580170D01*
X47318456Y-49581195D01*
X47216383Y-49582001D01*
X47210133Y-49582034D01*
X47100208Y-49582614D01*
G37*
X47100208Y-49582614D02*
X46968989Y-49583059D01*
X46821784Y-49583362D01*
X46657651Y-49583548D01*
X46475648Y-49583642D01*
X46274835Y-49583671D01*
X46054268Y-49583661D01*
X45813008Y-49583636D01*
X45550111Y-49583622D01*
X45507960Y-49583622D01*
X45247332Y-49583646D01*
X45008204Y-49583685D01*
X44789640Y-49583708D01*
X44590705Y-49583687D01*
X44410465Y-49583593D01*
X44247985Y-49583395D01*
X44102330Y-49583063D01*
X43972566Y-49582569D01*
X43857757Y-49581883D01*
X43756970Y-49580976D01*
X43669270Y-49579817D01*
X43593721Y-49578378D01*
X43529389Y-49576629D01*
X43475339Y-49574540D01*
X43430637Y-49572083D01*
X43394348Y-49569227D01*
X43365537Y-49565943D01*
X43343269Y-49562202D01*
X43326610Y-49557974D01*
X43314625Y-49553229D01*
X43306379Y-49547939D01*
X43300938Y-49542073D01*
X43297366Y-49535602D01*
X43294730Y-49528497D01*
X43292094Y-49520728D01*
X43288523Y-49512266D01*
X43286855Y-49507908D01*
X43284889Y-49499395D01*
X43283089Y-49486694D01*
X43281445Y-49468885D01*
X43279953Y-49445049D01*
X43278603Y-49414266D01*
X43277389Y-49375617D01*
X43276303Y-49328182D01*
X43275444Y-49277296D01*
X43789600Y-49277296D01*
X43847217Y-49238523D01*
X43856107Y-49232432D01*
X43870931Y-49221976D01*
X43884578Y-49212579D01*
X43898235Y-49204183D01*
X43913089Y-49196733D01*
X43930330Y-49190173D01*
X43951145Y-49184446D01*
X43976720Y-49179495D01*
X44008245Y-49175266D01*
X44046907Y-49171701D01*
X44093893Y-49168744D01*
X44150392Y-49166340D01*
X44217591Y-49164431D01*
X44296678Y-49162962D01*
X44388840Y-49161876D01*
X44495266Y-49161118D01*
X44617143Y-49160630D01*
X44755659Y-49160358D01*
X44912001Y-49160243D01*
X45087358Y-49160231D01*
X45282918Y-49160265D01*
X45499867Y-49160289D01*
X45622487Y-49160280D01*
X45827553Y-49160243D01*
X46011884Y-49160227D01*
X46176666Y-49160288D01*
X46323084Y-49160484D01*
X46452326Y-49160870D01*
X46565578Y-49161505D01*
X46664025Y-49162444D01*
X46748856Y-49163745D01*
X46821256Y-49165464D01*
X46882411Y-49167659D01*
X46933508Y-49170385D01*
X46975733Y-49173701D01*
X47010273Y-49177662D01*
X47038314Y-49182325D01*
X47061042Y-49187747D01*
X47079644Y-49193986D01*
X47095307Y-49201097D01*
X47109216Y-49209138D01*
X47122559Y-49218166D01*
X47136521Y-49228236D01*
X47152289Y-49239407D01*
X47210133Y-49279197D01*
X47210133Y-48219314D01*
X47147034Y-48257311D01*
X47121995Y-48271993D01*
X47094414Y-48286531D01*
X47066300Y-48298627D01*
X47035449Y-48308532D01*
X46999656Y-48316494D01*
X46956717Y-48322761D01*
X46904426Y-48327582D01*
X46840581Y-48331206D01*
X46762975Y-48333881D01*
X46669406Y-48335857D01*
X46557667Y-48337382D01*
X46425555Y-48338704D01*
X46305566Y-48339613D01*
X46188937Y-48340020D01*
X46093469Y-48339767D01*
X46019444Y-48338857D01*
X45967145Y-48337293D01*
X45936851Y-48335079D01*
X45928844Y-48332220D01*
X45932142Y-48329161D01*
X45953592Y-48311006D01*
X45990111Y-48281275D01*
X46039558Y-48241639D01*
X46099793Y-48193771D01*
X46168673Y-48139343D01*
X46244057Y-48080027D01*
X46323804Y-48017495D01*
X46405772Y-47953421D01*
X46487820Y-47889475D01*
X46567806Y-47827331D01*
X46643589Y-47768661D01*
X46713027Y-47715137D01*
X46773979Y-47668430D01*
X46824304Y-47630214D01*
X46861860Y-47602161D01*
X46884505Y-47585943D01*
X46956788Y-47540635D01*
X47036537Y-47500661D01*
X47104812Y-47479130D01*
X47162156Y-47475827D01*
X47210133Y-47481116D01*
X47209883Y-46349356D01*
X47179278Y-46388867D01*
X47171911Y-46398248D01*
X47117562Y-46461183D01*
X47049741Y-46529997D01*
X46966484Y-46606596D01*
X46865822Y-46692888D01*
X46845153Y-46710052D01*
X46795591Y-46750833D01*
X46734674Y-46800588D01*
X46664102Y-46857955D01*
X46585576Y-46921569D01*
X46500796Y-46990069D01*
X46411463Y-47062090D01*
X46319278Y-47136270D01*
X46300298Y-47151517D01*
X46225940Y-47211246D01*
X46133152Y-47285653D01*
X46042612Y-47358131D01*
X45956022Y-47427314D01*
X45875082Y-47491841D01*
X45801494Y-47550347D01*
X45736956Y-47601470D01*
X45683171Y-47643847D01*
X45641838Y-47676115D01*
X45614658Y-47696910D01*
X45603332Y-47704869D01*
X45599229Y-47703111D01*
X45578666Y-47690230D01*
X45542439Y-47665885D01*
X45492176Y-47631247D01*
X45429508Y-47587486D01*
X45356064Y-47535775D01*
X45273473Y-47477284D01*
X45183364Y-47413184D01*
X45087369Y-47344646D01*
X44987115Y-47272843D01*
X44884232Y-47198944D01*
X44780350Y-47124121D01*
X44677099Y-47049545D01*
X44576108Y-46976387D01*
X44479006Y-46905819D01*
X44387423Y-46839011D01*
X44302989Y-46777135D01*
X44227333Y-46721361D01*
X44162084Y-46672862D01*
X44108872Y-46632807D01*
X44069327Y-46602369D01*
X44043974Y-46581944D01*
X43989705Y-46535899D01*
X43933225Y-46485612D01*
X43883331Y-46438815D01*
X43789600Y-46347651D01*
X43789600Y-47502090D01*
X43865800Y-47501456D01*
X43907840Y-47502574D01*
X43943666Y-47508304D01*
X43981228Y-47520890D01*
X44029423Y-47542568D01*
X44036103Y-47545789D01*
X44085641Y-47571188D01*
X44133631Y-47597996D01*
X44170534Y-47620917D01*
X44177166Y-47625485D01*
X44208407Y-47647516D01*
X44253346Y-47679693D01*
X44309853Y-47720457D01*
X44375796Y-47768245D01*
X44449043Y-47821498D01*
X44527464Y-47878655D01*
X44608928Y-47938155D01*
X44691302Y-47998437D01*
X44772456Y-48057940D01*
X44850258Y-48115105D01*
X44922577Y-48168370D01*
X44987282Y-48216174D01*
X45042241Y-48256957D01*
X45085324Y-48289158D01*
X45114398Y-48311216D01*
X45127333Y-48321571D01*
X45131649Y-48326044D01*
X45133688Y-48330236D01*
X45131074Y-48333643D01*
X45122014Y-48336325D01*
X45104715Y-48338341D01*
X45077386Y-48339748D01*
X45038235Y-48340605D01*
X44985467Y-48340970D01*
X44917293Y-48340903D01*
X44831918Y-48340460D01*
X44727551Y-48339702D01*
X44602400Y-48338685D01*
X44557700Y-48338308D01*
X44436605Y-48337169D01*
X44335312Y-48335972D01*
X44251738Y-48334636D01*
X44183796Y-48333077D01*
X44129401Y-48331215D01*
X44086468Y-48328966D01*
X44052911Y-48326248D01*
X44026645Y-48322979D01*
X44005584Y-48319078D01*
X43987643Y-48314461D01*
X43961230Y-48306192D01*
X43899228Y-48282583D01*
X43846427Y-48256685D01*
X43809355Y-48231535D01*
X43807925Y-48230339D01*
X43803576Y-48228168D01*
X43799974Y-48230328D01*
X43797049Y-48238644D01*
X43794731Y-48254940D01*
X43792949Y-48281041D01*
X43791633Y-48318771D01*
X43790714Y-48369956D01*
X43790122Y-48436420D01*
X43789785Y-48519987D01*
X43789635Y-48622483D01*
X43789600Y-48745732D01*
X43789600Y-49277296D01*
X43275444Y-49277296D01*
X43275339Y-49271043D01*
X43274489Y-49203279D01*
X43273747Y-49123971D01*
X43273103Y-49032199D01*
X43272553Y-48927044D01*
X43272087Y-48807587D01*
X43271700Y-48672908D01*
X43271384Y-48522088D01*
X43271131Y-48354206D01*
X43270934Y-48168345D01*
X43270787Y-47963583D01*
X43270682Y-47739002D01*
X43270611Y-47493682D01*
X43270568Y-47226704D01*
X43270563Y-47188321D01*
X43270520Y-46922922D01*
X43270475Y-46679050D01*
X43270452Y-46455783D01*
X43270476Y-46252196D01*
X43270570Y-46067367D01*
X43270757Y-45900373D01*
X43271061Y-45750290D01*
X43271396Y-45649445D01*
X43789600Y-45649445D01*
X43789651Y-45718356D01*
X43789909Y-45816607D01*
X43790363Y-45906030D01*
X43790990Y-45984333D01*
X43791765Y-46049223D01*
X43792665Y-46098411D01*
X43793666Y-46129604D01*
X43794743Y-46140511D01*
X43797963Y-46139322D01*
X43815548Y-46129176D01*
X43841842Y-46112040D01*
X43854309Y-46103540D01*
X43868378Y-46094329D01*
X43882649Y-46086233D01*
X43898521Y-46079185D01*
X43917391Y-46073117D01*
X43940659Y-46067961D01*
X43969722Y-46063651D01*
X44005979Y-46060119D01*
X44050830Y-46057297D01*
X44105672Y-46055118D01*
X44171903Y-46053514D01*
X44250923Y-46052419D01*
X44344129Y-46051765D01*
X44452921Y-46051484D01*
X44578697Y-46051509D01*
X44722855Y-46051772D01*
X44886793Y-46052206D01*
X45071911Y-46052745D01*
X45250768Y-46053279D01*
X45409626Y-46053805D01*
X45548684Y-46054350D01*
X45669335Y-46054945D01*
X45772972Y-46055619D01*
X45860989Y-46056403D01*
X45934777Y-46057326D01*
X45995731Y-46058419D01*
X46045243Y-46059712D01*
X46084707Y-46061235D01*
X46115516Y-46063019D01*
X46139062Y-46065092D01*
X46156740Y-46067486D01*
X46169941Y-46070230D01*
X46180060Y-46073356D01*
X46188489Y-46076892D01*
X46196625Y-46080791D01*
X46233456Y-46100438D01*
X46263609Y-46119225D01*
X46265092Y-46120272D01*
X46287341Y-46134602D01*
X46300298Y-46140511D01*
X46300751Y-46139504D01*
X46302197Y-46122305D01*
X46303520Y-46085656D01*
X46304684Y-46031962D01*
X46305653Y-45963630D01*
X46306389Y-45883064D01*
X46306858Y-45792670D01*
X46307022Y-45694853D01*
X46307022Y-45249195D01*
X45130155Y-45246120D01*
X43953289Y-45243045D01*
X43894378Y-45216407D01*
X43869817Y-45204485D01*
X43839566Y-45187246D01*
X43822440Y-45174074D01*
X43814409Y-45166076D01*
X43799507Y-45158378D01*
X43798235Y-45162260D01*
X43796209Y-45185520D01*
X43794374Y-45227874D01*
X43792773Y-45287132D01*
X43791451Y-45361107D01*
X43790452Y-45447610D01*
X43789820Y-45544452D01*
X43789600Y-45649445D01*
X43271396Y-45649445D01*
X43271506Y-45616196D01*
X43272115Y-45497166D01*
X43272911Y-45392279D01*
X43273920Y-45300610D01*
X43275163Y-45221237D01*
X43276665Y-45153237D01*
X43278449Y-45095686D01*
X43280539Y-45047662D01*
X43282958Y-45008240D01*
X43285730Y-44976499D01*
X43288879Y-44951514D01*
X43292428Y-44932364D01*
X43296402Y-44918123D01*
X43300822Y-44907871D01*
X43305714Y-44900682D01*
X43311100Y-44895635D01*
X43317004Y-44891805D01*
X43323451Y-44888271D01*
X43330463Y-44884108D01*
X43332313Y-44883025D01*
X43337820Y-44880813D01*
X43346132Y-44878786D01*
X43358191Y-44876938D01*
X43374937Y-44875261D01*
X43397313Y-44873745D01*
X43426260Y-44872383D01*
X43462720Y-44871167D01*
X43507633Y-44870089D01*
X43561943Y-44869140D01*
X43626590Y-44868312D01*
X43702516Y-44867597D01*
X43790662Y-44866987D01*
X43891971Y-44866474D01*
X44007383Y-44866050D01*
X44137840Y-44865706D01*
X44284284Y-44865434D01*
X44447656Y-44865227D01*
X44628899Y-44865076D01*
X44828952Y-44864972D01*
X45048759Y-44864908D01*
X45289261Y-44864876D01*
X45551398Y-44864867D01*
X47742969Y-44864867D01*
X47781351Y-44903249D01*
X47805089Y-44930355D01*
X47816889Y-44957253D01*
X47819733Y-44993560D01*
X47819733Y-45045489D01*
X47731794Y-45045489D01*
X47681898Y-45047427D01*
X47571477Y-45066199D01*
X47470013Y-45103217D01*
X47378848Y-45156369D01*
X47299327Y-45223546D01*
X47232795Y-45302638D01*
X47180594Y-45391534D01*
X47144070Y-45488125D01*
X47124566Y-45590300D01*
X47123427Y-45695950D01*
X47141995Y-45802964D01*
X47181616Y-45909232D01*
X47239484Y-46006219D01*
X47314316Y-46091293D01*
X47402385Y-46160015D01*
X47501384Y-46210918D01*
X47609007Y-46242535D01*
X47722946Y-46253400D01*
X47819733Y-46253400D01*
X47819733Y-47873753D01*
X47819720Y-48084897D01*
X47819670Y-48289020D01*
X47819570Y-48472686D01*
X47819408Y-48636991D01*
X47819171Y-48783029D01*
X47818847Y-48911894D01*
X47818425Y-49024683D01*
X47817891Y-49122488D01*
X47817233Y-49206404D01*
X47816439Y-49277527D01*
X47815496Y-49336950D01*
X47814392Y-49385768D01*
X47813116Y-49425077D01*
X47811653Y-49455969D01*
X47809993Y-49479541D01*
X47808122Y-49496886D01*
X47806028Y-49509099D01*
X47803700Y-49517275D01*
X47801124Y-49522508D01*
X47797555Y-49528504D01*
X47794022Y-49535279D01*
X47790512Y-49541478D01*
X47786082Y-49547126D01*
X47779792Y-49552247D01*
X47770699Y-49556869D01*
X47757861Y-49561015D01*
X47740338Y-49564713D01*
X47717187Y-49567987D01*
X47687466Y-49570863D01*
X47650235Y-49573367D01*
X47604551Y-49575524D01*
X47549473Y-49577360D01*
X47484059Y-49578900D01*
X47407367Y-49580170D01*
X47318456Y-49581195D01*
X47216383Y-49582001D01*
X47210133Y-49582034D01*
X47100208Y-49582614D01*
G36*
X42492221Y-43895435D02*
G01*
X42584849Y-43896352D01*
X42899801Y-43899667D01*
X42921367Y-43926318D01*
X42937559Y-43952383D01*
X42940330Y-43985241D01*
X42921377Y-44019772D01*
X42917792Y-44024084D01*
X42909263Y-44032216D01*
X42897671Y-44038245D01*
X42879765Y-44042606D01*
X42852294Y-44045734D01*
X42812006Y-44048063D01*
X42755649Y-44050029D01*
X42679971Y-44052067D01*
X42460122Y-44057711D01*
X42623916Y-44238334D01*
X42702549Y-44325072D01*
X42770942Y-44400843D01*
X42826292Y-44462980D01*
X42869662Y-44513078D01*
X42902119Y-44552735D01*
X42924727Y-44583548D01*
X42938552Y-44607114D01*
X42944657Y-44625030D01*
X42944108Y-44638893D01*
X42937971Y-44650301D01*
X42927309Y-44660850D01*
X42913189Y-44672136D01*
X42907228Y-44676589D01*
X42896732Y-44682588D01*
X42882907Y-44687167D01*
X42863002Y-44690519D01*
X42834268Y-44692833D01*
X42793955Y-44694301D01*
X42739313Y-44695113D01*
X42667593Y-44695460D01*
X42576044Y-44695534D01*
X42517514Y-44695511D01*
X42438427Y-44695292D01*
X42377484Y-44694683D01*
X42331938Y-44693492D01*
X42299037Y-44691529D01*
X42276032Y-44688603D01*
X42260174Y-44684523D01*
X42248714Y-44679097D01*
X42238900Y-44672136D01*
X42214507Y-44641708D01*
X42211628Y-44606765D01*
X42230718Y-44569784D01*
X42234193Y-44565600D01*
X42242721Y-44557424D01*
X42254272Y-44551364D01*
X42272104Y-44546981D01*
X42299476Y-44543839D01*
X42339646Y-44541502D01*
X42395872Y-44539531D01*
X42471411Y-44537489D01*
X42690542Y-44531845D01*
X42449901Y-44266556D01*
X42383125Y-44192722D01*
X42325009Y-44127542D01*
X42280051Y-44075348D01*
X42247129Y-44034273D01*
X42225121Y-44002455D01*
X42212906Y-43978026D01*
X42209361Y-43959124D01*
X42213364Y-43943883D01*
X42223793Y-43930439D01*
X42239526Y-43916927D01*
X42248009Y-43910682D01*
X42258587Y-43905050D01*
X42272745Y-43900839D01*
X42293197Y-43897887D01*
X42322658Y-43896032D01*
X42363839Y-43895113D01*
X42419456Y-43894968D01*
X42492221Y-43895435D01*
G37*
X42492221Y-43895435D02*
X42584849Y-43896352D01*
X42899801Y-43899667D01*
X42921367Y-43926318D01*
X42937559Y-43952383D01*
X42940330Y-43985241D01*
X42921377Y-44019772D01*
X42917792Y-44024084D01*
X42909263Y-44032216D01*
X42897671Y-44038245D01*
X42879765Y-44042606D01*
X42852294Y-44045734D01*
X42812006Y-44048063D01*
X42755649Y-44050029D01*
X42679971Y-44052067D01*
X42460122Y-44057711D01*
X42623916Y-44238334D01*
X42702549Y-44325072D01*
X42770942Y-44400843D01*
X42826292Y-44462980D01*
X42869662Y-44513078D01*
X42902119Y-44552735D01*
X42924727Y-44583548D01*
X42938552Y-44607114D01*
X42944657Y-44625030D01*
X42944108Y-44638893D01*
X42937971Y-44650301D01*
X42927309Y-44660850D01*
X42913189Y-44672136D01*
X42907228Y-44676589D01*
X42896732Y-44682588D01*
X42882907Y-44687167D01*
X42863002Y-44690519D01*
X42834268Y-44692833D01*
X42793955Y-44694301D01*
X42739313Y-44695113D01*
X42667593Y-44695460D01*
X42576044Y-44695534D01*
X42517514Y-44695511D01*
X42438427Y-44695292D01*
X42377484Y-44694683D01*
X42331938Y-44693492D01*
X42299037Y-44691529D01*
X42276032Y-44688603D01*
X42260174Y-44684523D01*
X42248714Y-44679097D01*
X42238900Y-44672136D01*
X42214507Y-44641708D01*
X42211628Y-44606765D01*
X42230718Y-44569784D01*
X42234193Y-44565600D01*
X42242721Y-44557424D01*
X42254272Y-44551364D01*
X42272104Y-44546981D01*
X42299476Y-44543839D01*
X42339646Y-44541502D01*
X42395872Y-44539531D01*
X42471411Y-44537489D01*
X42690542Y-44531845D01*
X42449901Y-44266556D01*
X42383125Y-44192722D01*
X42325009Y-44127542D01*
X42280051Y-44075348D01*
X42247129Y-44034273D01*
X42225121Y-44002455D01*
X42212906Y-43978026D01*
X42209361Y-43959124D01*
X42213364Y-43943883D01*
X42223793Y-43930439D01*
X42239526Y-43916927D01*
X42248009Y-43910682D01*
X42258587Y-43905050D01*
X42272745Y-43900839D01*
X42293197Y-43897887D01*
X42322658Y-43896032D01*
X42363839Y-43895113D01*
X42419456Y-43894968D01*
X42492221Y-43895435D01*
G36*
X42892439Y-39500730D02*
G01*
X42913322Y-39515387D01*
X42933623Y-39541990D01*
X42933965Y-39542745D01*
X42940966Y-39562335D01*
X42941496Y-39579790D01*
X42933522Y-39596702D01*
X42915011Y-39614663D01*
X42883929Y-39635263D01*
X42838244Y-39660095D01*
X42775922Y-39690750D01*
X42694929Y-39728820D01*
X42663546Y-39743454D01*
X42600362Y-39773203D01*
X42545756Y-39799297D01*
X42502710Y-39820292D01*
X42474207Y-39834739D01*
X42463230Y-39841191D01*
X42463811Y-39842550D01*
X42477758Y-39852542D01*
X42507296Y-39869833D01*
X42548913Y-39892430D01*
X42599097Y-39918338D01*
X42630586Y-39934311D01*
X42685939Y-39963261D01*
X42724956Y-39985749D01*
X42750434Y-40003965D01*
X42765169Y-40020096D01*
X42771958Y-40036330D01*
X42773600Y-40054857D01*
X42773125Y-40065360D01*
X42768918Y-40081476D01*
X42758054Y-40096790D01*
X42737781Y-40113388D01*
X42705346Y-40133357D01*
X42657996Y-40158783D01*
X42592978Y-40191752D01*
X42573723Y-40201485D01*
X42527054Y-40225943D01*
X42490891Y-40246178D01*
X42468503Y-40260311D01*
X42463155Y-40266460D01*
X42466427Y-40267827D01*
X42487336Y-40277202D01*
X42524275Y-40294062D01*
X42574126Y-40316979D01*
X42633774Y-40344520D01*
X42700102Y-40375255D01*
X42757323Y-40401970D01*
X42819312Y-40431593D01*
X42865051Y-40454664D01*
X42897092Y-40472643D01*
X42917986Y-40486990D01*
X42930282Y-40499166D01*
X42936534Y-40510632D01*
X42939426Y-40520042D01*
X42939575Y-40545147D01*
X42924232Y-40572290D01*
X42923247Y-40573590D01*
X42900612Y-40595674D01*
X42878387Y-40606723D01*
X42877747Y-40606769D01*
X42860085Y-40602228D01*
X42825519Y-40589364D01*
X42777174Y-40569605D01*
X42718175Y-40544381D01*
X42651645Y-40515119D01*
X42580709Y-40483250D01*
X42508493Y-40450201D01*
X42438120Y-40417401D01*
X42372715Y-40386280D01*
X42315403Y-40358265D01*
X42269308Y-40334786D01*
X42237554Y-40317272D01*
X42223267Y-40307151D01*
X42209898Y-40272743D01*
X42216259Y-40231046D01*
X42220956Y-40225681D01*
X42243107Y-40209852D01*
X42279868Y-40187650D01*
X42327585Y-40161233D01*
X42382607Y-40132760D01*
X42541850Y-40052986D01*
X42395258Y-39979799D01*
X42375968Y-39970103D01*
X42323620Y-39943125D01*
X42278830Y-39919096D01*
X42245846Y-39900332D01*
X42228911Y-39889146D01*
X42227668Y-39888000D01*
X42212381Y-39859879D01*
X42210698Y-39824817D01*
X42223267Y-39793776D01*
X42226116Y-39791350D01*
X42246741Y-39779090D01*
X42284292Y-39759352D01*
X42336120Y-39733448D01*
X42399577Y-39702685D01*
X42472015Y-39668375D01*
X42550784Y-39631825D01*
X42594907Y-39611585D01*
X42675635Y-39574812D01*
X42739313Y-39546355D01*
X42788248Y-39525331D01*
X42824743Y-39510854D01*
X42851105Y-39502039D01*
X42869639Y-39498004D01*
X42882648Y-39497862D01*
X42892439Y-39500730D01*
G37*
X42892439Y-39500730D02*
X42913322Y-39515387D01*
X42933623Y-39541990D01*
X42933965Y-39542745D01*
X42940966Y-39562335D01*
X42941496Y-39579790D01*
X42933522Y-39596702D01*
X42915011Y-39614663D01*
X42883929Y-39635263D01*
X42838244Y-39660095D01*
X42775922Y-39690750D01*
X42694929Y-39728820D01*
X42663546Y-39743454D01*
X42600362Y-39773203D01*
X42545756Y-39799297D01*
X42502710Y-39820292D01*
X42474207Y-39834739D01*
X42463230Y-39841191D01*
X42463811Y-39842550D01*
X42477758Y-39852542D01*
X42507296Y-39869833D01*
X42548913Y-39892430D01*
X42599097Y-39918338D01*
X42630586Y-39934311D01*
X42685939Y-39963261D01*
X42724956Y-39985749D01*
X42750434Y-40003965D01*
X42765169Y-40020096D01*
X42771958Y-40036330D01*
X42773600Y-40054857D01*
X42773125Y-40065360D01*
X42768918Y-40081476D01*
X42758054Y-40096790D01*
X42737781Y-40113388D01*
X42705346Y-40133357D01*
X42657996Y-40158783D01*
X42592978Y-40191752D01*
X42573723Y-40201485D01*
X42527054Y-40225943D01*
X42490891Y-40246178D01*
X42468503Y-40260311D01*
X42463155Y-40266460D01*
X42466427Y-40267827D01*
X42487336Y-40277202D01*
X42524275Y-40294062D01*
X42574126Y-40316979D01*
X42633774Y-40344520D01*
X42700102Y-40375255D01*
X42757323Y-40401970D01*
X42819312Y-40431593D01*
X42865051Y-40454664D01*
X42897092Y-40472643D01*
X42917986Y-40486990D01*
X42930282Y-40499166D01*
X42936534Y-40510632D01*
X42939426Y-40520042D01*
X42939575Y-40545147D01*
X42924232Y-40572290D01*
X42923247Y-40573590D01*
X42900612Y-40595674D01*
X42878387Y-40606723D01*
X42877747Y-40606769D01*
X42860085Y-40602228D01*
X42825519Y-40589364D01*
X42777174Y-40569605D01*
X42718175Y-40544381D01*
X42651645Y-40515119D01*
X42580709Y-40483250D01*
X42508493Y-40450201D01*
X42438120Y-40417401D01*
X42372715Y-40386280D01*
X42315403Y-40358265D01*
X42269308Y-40334786D01*
X42237554Y-40317272D01*
X42223267Y-40307151D01*
X42209898Y-40272743D01*
X42216259Y-40231046D01*
X42220956Y-40225681D01*
X42243107Y-40209852D01*
X42279868Y-40187650D01*
X42327585Y-40161233D01*
X42382607Y-40132760D01*
X42541850Y-40052986D01*
X42395258Y-39979799D01*
X42375968Y-39970103D01*
X42323620Y-39943125D01*
X42278830Y-39919096D01*
X42245846Y-39900332D01*
X42228911Y-39889146D01*
X42227668Y-39888000D01*
X42212381Y-39859879D01*
X42210698Y-39824817D01*
X42223267Y-39793776D01*
X42226116Y-39791350D01*
X42246741Y-39779090D01*
X42284292Y-39759352D01*
X42336120Y-39733448D01*
X42399577Y-39702685D01*
X42472015Y-39668375D01*
X42550784Y-39631825D01*
X42594907Y-39611585D01*
X42675635Y-39574812D01*
X42739313Y-39546355D01*
X42788248Y-39525331D01*
X42824743Y-39510854D01*
X42851105Y-39502039D01*
X42869639Y-39498004D01*
X42882648Y-39497862D01*
X42892439Y-39500730D01*
G36*
X44568533Y-42034755D02*
G01*
X44534637Y-42034261D01*
X44459798Y-42030632D01*
X44397599Y-42023022D01*
X44341016Y-42010688D01*
X44214924Y-41966313D01*
X44100321Y-41903400D01*
X43999432Y-41823238D01*
X43913076Y-41726740D01*
X43842068Y-41614822D01*
X43787224Y-41488397D01*
X43749362Y-41348378D01*
X43743649Y-41312149D01*
X43737687Y-41233155D01*
X43737354Y-41144841D01*
X43742341Y-41055075D01*
X43752334Y-40971722D01*
X43757453Y-40947648D01*
X44300617Y-40947648D01*
X44303460Y-41023011D01*
X44315380Y-41083743D01*
X44337963Y-41135452D01*
X44372789Y-41183746D01*
X44377202Y-41188803D01*
X44432840Y-41237272D01*
X44496667Y-41265459D01*
X44571718Y-41274752D01*
X44643307Y-41267520D01*
X44706355Y-41242796D01*
X44764242Y-41198249D01*
X44811192Y-41143319D01*
X44851039Y-41070894D01*
X44878737Y-40984340D01*
X44894904Y-40881670D01*
X44900158Y-40760894D01*
X44900143Y-40752007D01*
X44899345Y-40696660D01*
X44897512Y-40649736D01*
X44894889Y-40615953D01*
X44891726Y-40600028D01*
X44885259Y-40595943D01*
X44863125Y-40591572D01*
X44824012Y-40588604D01*
X44766061Y-40586914D01*
X44687414Y-40586378D01*
X44491538Y-40586378D01*
X44435027Y-40631048D01*
X44419788Y-40643785D01*
X44377156Y-40690604D01*
X44341328Y-40751255D01*
X44336150Y-40761897D01*
X44319255Y-40800676D01*
X44309091Y-40835692D01*
X44303675Y-40875722D01*
X44301022Y-40929541D01*
X44300617Y-40947648D01*
X43757453Y-40947648D01*
X43767022Y-40902651D01*
X43797251Y-40816187D01*
X43851943Y-40706286D01*
X43919457Y-40608956D01*
X43970444Y-40546867D01*
X43874378Y-40543605D01*
X43778311Y-40540343D01*
X43778311Y-40117450D01*
X43778314Y-40106543D01*
X43778620Y-40012056D01*
X43779384Y-39925331D01*
X43780549Y-39848837D01*
X43782058Y-39785043D01*
X43783853Y-39736418D01*
X43785879Y-39705433D01*
X43788078Y-39694556D01*
X43788537Y-39694578D01*
X43804090Y-39701614D01*
X43826929Y-39717434D01*
X43832362Y-39721734D01*
X43846394Y-39732777D01*
X43859814Y-39742311D01*
X43874278Y-39750461D01*
X43891444Y-39757352D01*
X43912966Y-39763111D01*
X43940502Y-39767862D01*
X43975708Y-39771731D01*
X44020240Y-39774844D01*
X44075754Y-39777325D01*
X44143907Y-39779300D01*
X44226355Y-39780894D01*
X44324754Y-39782234D01*
X44440761Y-39783444D01*
X44576032Y-39784649D01*
X44732222Y-39785975D01*
X44874988Y-39787228D01*
X45020058Y-39788651D01*
X45145973Y-39790176D01*
X45254564Y-39791933D01*
X45347666Y-39794051D01*
X45427109Y-39796660D01*
X45494727Y-39799890D01*
X45552351Y-39803869D01*
X45601815Y-39808728D01*
X45644950Y-39814597D01*
X45683590Y-39821604D01*
X45719566Y-39829880D01*
X45754711Y-39839554D01*
X45790858Y-39850756D01*
X45829839Y-39863616D01*
X45872909Y-39879090D01*
X45965129Y-39921994D01*
X46044901Y-39975735D01*
X46119035Y-40044576D01*
X46182595Y-40122185D01*
X46244275Y-40226761D01*
X46291798Y-40346244D01*
X46325433Y-40481508D01*
X46345448Y-40633426D01*
X46352111Y-40802872D01*
X46351713Y-40860890D01*
X46349665Y-40926398D01*
X46345296Y-40987693D01*
X46337965Y-41049097D01*
X46327031Y-41114932D01*
X46311853Y-41189520D01*
X46291791Y-41277184D01*
X46266203Y-41382245D01*
X46259180Y-41410806D01*
X46241224Y-41486054D01*
X46225180Y-41556388D01*
X46211972Y-41617567D01*
X46202526Y-41665354D01*
X46197769Y-41695511D01*
X46194090Y-41723783D01*
X46188813Y-41750060D01*
X46184058Y-41760059D01*
X46175219Y-41756952D01*
X46147928Y-41746194D01*
X46105094Y-41728864D01*
X46049575Y-41706126D01*
X45984228Y-41679147D01*
X45911911Y-41649090D01*
X45896121Y-41642493D01*
X45805516Y-41603907D01*
X45735783Y-41572768D01*
X45686595Y-41548917D01*
X45657626Y-41532198D01*
X45648548Y-41522454D01*
X45650595Y-41514766D01*
X45660240Y-41488415D01*
X45675810Y-41449982D01*
X45695185Y-41404822D01*
X45733186Y-41310293D01*
X45774220Y-41173480D01*
X45799388Y-41032289D01*
X45803389Y-40994314D01*
X45805553Y-40891059D01*
X45792378Y-40803952D01*
X45763244Y-40732129D01*
X45717534Y-40674731D01*
X45654628Y-40630896D01*
X45573908Y-40599762D01*
X45474755Y-40580470D01*
X45415776Y-40573050D01*
X45422555Y-40734936D01*
X45424187Y-40861495D01*
X45417806Y-41012951D01*
X45403223Y-41161396D01*
X45381118Y-41297578D01*
X45366179Y-41362245D01*
X45323259Y-41494490D01*
X45266660Y-41616762D01*
X45197983Y-41726685D01*
X45118830Y-41821883D01*
X45030804Y-41899980D01*
X44935507Y-41958599D01*
X44883136Y-41982595D01*
X44812410Y-42008232D01*
X44741188Y-42024478D01*
X44662288Y-42032822D01*
X44571718Y-42034690D01*
X44568533Y-42034755D01*
G37*
X44568533Y-42034755D02*
X44534637Y-42034261D01*
X44459798Y-42030632D01*
X44397599Y-42023022D01*
X44341016Y-42010688D01*
X44214924Y-41966313D01*
X44100321Y-41903400D01*
X43999432Y-41823238D01*
X43913076Y-41726740D01*
X43842068Y-41614822D01*
X43787224Y-41488397D01*
X43749362Y-41348378D01*
X43743649Y-41312149D01*
X43737687Y-41233155D01*
X43737354Y-41144841D01*
X43742341Y-41055075D01*
X43752334Y-40971722D01*
X43757453Y-40947648D01*
X44300617Y-40947648D01*
X44303460Y-41023011D01*
X44315380Y-41083743D01*
X44337963Y-41135452D01*
X44372789Y-41183746D01*
X44377202Y-41188803D01*
X44432840Y-41237272D01*
X44496667Y-41265459D01*
X44571718Y-41274752D01*
X44643307Y-41267520D01*
X44706355Y-41242796D01*
X44764242Y-41198249D01*
X44811192Y-41143319D01*
X44851039Y-41070894D01*
X44878737Y-40984340D01*
X44894904Y-40881670D01*
X44900158Y-40760894D01*
X44900143Y-40752007D01*
X44899345Y-40696660D01*
X44897512Y-40649736D01*
X44894889Y-40615953D01*
X44891726Y-40600028D01*
X44885259Y-40595943D01*
X44863125Y-40591572D01*
X44824012Y-40588604D01*
X44766061Y-40586914D01*
X44687414Y-40586378D01*
X44491538Y-40586378D01*
X44435027Y-40631048D01*
X44419788Y-40643785D01*
X44377156Y-40690604D01*
X44341328Y-40751255D01*
X44336150Y-40761897D01*
X44319255Y-40800676D01*
X44309091Y-40835692D01*
X44303675Y-40875722D01*
X44301022Y-40929541D01*
X44300617Y-40947648D01*
X43757453Y-40947648D01*
X43767022Y-40902651D01*
X43797251Y-40816187D01*
X43851943Y-40706286D01*
X43919457Y-40608956D01*
X43970444Y-40546867D01*
X43874378Y-40543605D01*
X43778311Y-40540343D01*
X43778311Y-40117450D01*
X43778314Y-40106543D01*
X43778620Y-40012056D01*
X43779384Y-39925331D01*
X43780549Y-39848837D01*
X43782058Y-39785043D01*
X43783853Y-39736418D01*
X43785879Y-39705433D01*
X43788078Y-39694556D01*
X43788537Y-39694578D01*
X43804090Y-39701614D01*
X43826929Y-39717434D01*
X43832362Y-39721734D01*
X43846394Y-39732777D01*
X43859814Y-39742311D01*
X43874278Y-39750461D01*
X43891444Y-39757352D01*
X43912966Y-39763111D01*
X43940502Y-39767862D01*
X43975708Y-39771731D01*
X44020240Y-39774844D01*
X44075754Y-39777325D01*
X44143907Y-39779300D01*
X44226355Y-39780894D01*
X44324754Y-39782234D01*
X44440761Y-39783444D01*
X44576032Y-39784649D01*
X44732222Y-39785975D01*
X44874988Y-39787228D01*
X45020058Y-39788651D01*
X45145973Y-39790176D01*
X45254564Y-39791933D01*
X45347666Y-39794051D01*
X45427109Y-39796660D01*
X45494727Y-39799890D01*
X45552351Y-39803869D01*
X45601815Y-39808728D01*
X45644950Y-39814597D01*
X45683590Y-39821604D01*
X45719566Y-39829880D01*
X45754711Y-39839554D01*
X45790858Y-39850756D01*
X45829839Y-39863616D01*
X45872909Y-39879090D01*
X45965129Y-39921994D01*
X46044901Y-39975735D01*
X46119035Y-40044576D01*
X46182595Y-40122185D01*
X46244275Y-40226761D01*
X46291798Y-40346244D01*
X46325433Y-40481508D01*
X46345448Y-40633426D01*
X46352111Y-40802872D01*
X46351713Y-40860890D01*
X46349665Y-40926398D01*
X46345296Y-40987693D01*
X46337965Y-41049097D01*
X46327031Y-41114932D01*
X46311853Y-41189520D01*
X46291791Y-41277184D01*
X46266203Y-41382245D01*
X46259180Y-41410806D01*
X46241224Y-41486054D01*
X46225180Y-41556388D01*
X46211972Y-41617567D01*
X46202526Y-41665354D01*
X46197769Y-41695511D01*
X46194090Y-41723783D01*
X46188813Y-41750060D01*
X46184058Y-41760059D01*
X46175219Y-41756952D01*
X46147928Y-41746194D01*
X46105094Y-41728864D01*
X46049575Y-41706126D01*
X45984228Y-41679147D01*
X45911911Y-41649090D01*
X45896121Y-41642493D01*
X45805516Y-41603907D01*
X45735783Y-41572768D01*
X45686595Y-41548917D01*
X45657626Y-41532198D01*
X45648548Y-41522454D01*
X45650595Y-41514766D01*
X45660240Y-41488415D01*
X45675810Y-41449982D01*
X45695185Y-41404822D01*
X45733186Y-41310293D01*
X45774220Y-41173480D01*
X45799388Y-41032289D01*
X45803389Y-40994314D01*
X45805553Y-40891059D01*
X45792378Y-40803952D01*
X45763244Y-40732129D01*
X45717534Y-40674731D01*
X45654628Y-40630896D01*
X45573908Y-40599762D01*
X45474755Y-40580470D01*
X45415776Y-40573050D01*
X45422555Y-40734936D01*
X45424187Y-40861495D01*
X45417806Y-41012951D01*
X45403223Y-41161396D01*
X45381118Y-41297578D01*
X45366179Y-41362245D01*
X45323259Y-41494490D01*
X45266660Y-41616762D01*
X45197983Y-41726685D01*
X45118830Y-41821883D01*
X45030804Y-41899980D01*
X44935507Y-41958599D01*
X44883136Y-41982595D01*
X44812410Y-42008232D01*
X44741188Y-42024478D01*
X44662288Y-42032822D01*
X44571718Y-42034690D01*
X44568533Y-42034755D01*
G36*
X44969289Y-39492994D02*
G01*
X44891842Y-39492268D01*
X44740406Y-39483689D01*
X44603717Y-39464833D01*
X44477724Y-39434837D01*
X44358375Y-39392836D01*
X44241619Y-39337969D01*
X44130821Y-39271167D01*
X44017261Y-39180363D01*
X43921789Y-39076708D01*
X43844927Y-38960887D01*
X43787203Y-38833586D01*
X43749142Y-38695489D01*
X43743334Y-38657793D01*
X43737604Y-38578752D01*
X43737417Y-38490629D01*
X43742461Y-38401236D01*
X43752422Y-38318384D01*
X43757112Y-38296331D01*
X44350459Y-38296331D01*
X44358635Y-38380900D01*
X44386195Y-38454219D01*
X44433358Y-38516637D01*
X44500342Y-38568502D01*
X44587367Y-38610160D01*
X44694650Y-38641962D01*
X44706991Y-38644545D01*
X44768228Y-38653000D01*
X44845308Y-38658663D01*
X44932998Y-38661576D01*
X45026066Y-38661783D01*
X45119280Y-38659330D01*
X45207406Y-38654261D01*
X45285212Y-38646619D01*
X45347467Y-38636448D01*
X45353334Y-38635167D01*
X45463879Y-38606126D01*
X45554425Y-38571610D01*
X45627047Y-38530456D01*
X45683819Y-38481499D01*
X45726816Y-38423574D01*
X45742385Y-38391620D01*
X45761278Y-38318784D01*
X45764535Y-38237443D01*
X45752611Y-38152319D01*
X45725960Y-38068133D01*
X45685038Y-37989608D01*
X45641470Y-37922200D01*
X44491279Y-37922200D01*
X44444911Y-37992756D01*
X44421209Y-38033417D01*
X44395361Y-38087546D01*
X44377171Y-38136689D01*
X44361449Y-38200165D01*
X44350459Y-38296331D01*
X43757112Y-38296331D01*
X43766988Y-38249887D01*
X43776636Y-38219035D01*
X43806877Y-38141730D01*
X43844383Y-38064679D01*
X43885386Y-37995200D01*
X43926121Y-37940615D01*
X43945495Y-37917916D01*
X43963338Y-37895201D01*
X43970222Y-37883779D01*
X43968576Y-37882537D01*
X43950795Y-37879728D01*
X43917630Y-37877776D01*
X43874267Y-37877045D01*
X43778311Y-37877045D01*
X43778311Y-37018896D01*
X43839026Y-37053161D01*
X43848132Y-37058355D01*
X43862751Y-37066715D01*
X43876827Y-37074288D01*
X43891460Y-37081112D01*
X43907751Y-37087227D01*
X43926802Y-37092673D01*
X43949714Y-37097487D01*
X43977587Y-37101708D01*
X44011522Y-37105377D01*
X44052621Y-37108531D01*
X44101985Y-37111211D01*
X44160714Y-37113454D01*
X44229910Y-37115299D01*
X44310674Y-37116787D01*
X44404106Y-37117955D01*
X44511308Y-37118844D01*
X44633380Y-37119491D01*
X44771424Y-37119936D01*
X44926541Y-37120218D01*
X45099832Y-37120375D01*
X45292397Y-37120448D01*
X45505338Y-37120474D01*
X45739755Y-37120493D01*
X47424622Y-37120689D01*
X47424622Y-38026017D01*
X47387933Y-38001585D01*
X47378353Y-37995318D01*
X47332019Y-37969208D01*
X47284898Y-37951469D01*
X47229749Y-37939908D01*
X47159333Y-37932331D01*
X47152350Y-37931839D01*
X47114359Y-37930062D01*
X47060424Y-37928444D01*
X46993297Y-37926999D01*
X46915729Y-37925740D01*
X46830472Y-37924680D01*
X46740276Y-37923829D01*
X46647893Y-37923203D01*
X46556075Y-37922812D01*
X46467573Y-37922670D01*
X46385138Y-37922790D01*
X46311521Y-37923183D01*
X46249474Y-37923862D01*
X46201749Y-37924841D01*
X46171096Y-37926132D01*
X46160267Y-37927747D01*
X46164667Y-37935957D01*
X46179638Y-37957647D01*
X46201552Y-37987014D01*
X46235764Y-38035879D01*
X46282286Y-38124125D01*
X46315954Y-38222916D01*
X46337769Y-38335510D01*
X46348735Y-38465164D01*
X46349781Y-38557670D01*
X46339986Y-38679011D01*
X46315826Y-38789099D01*
X46276215Y-38892389D01*
X46220068Y-38993338D01*
X46189117Y-39038503D01*
X46097885Y-39143911D01*
X45988894Y-39235538D01*
X45862274Y-39313332D01*
X45718155Y-39377241D01*
X45556668Y-39427214D01*
X45377941Y-39463198D01*
X45182105Y-39485143D01*
X45026066Y-39490900D01*
X44969289Y-39492994D01*
G37*
X44969289Y-39492994D02*
X44891842Y-39492268D01*
X44740406Y-39483689D01*
X44603717Y-39464833D01*
X44477724Y-39434837D01*
X44358375Y-39392836D01*
X44241619Y-39337969D01*
X44130821Y-39271167D01*
X44017261Y-39180363D01*
X43921789Y-39076708D01*
X43844927Y-38960887D01*
X43787203Y-38833586D01*
X43749142Y-38695489D01*
X43743334Y-38657793D01*
X43737604Y-38578752D01*
X43737417Y-38490629D01*
X43742461Y-38401236D01*
X43752422Y-38318384D01*
X43757112Y-38296331D01*
X44350459Y-38296331D01*
X44358635Y-38380900D01*
X44386195Y-38454219D01*
X44433358Y-38516637D01*
X44500342Y-38568502D01*
X44587367Y-38610160D01*
X44694650Y-38641962D01*
X44706991Y-38644545D01*
X44768228Y-38653000D01*
X44845308Y-38658663D01*
X44932998Y-38661576D01*
X45026066Y-38661783D01*
X45119280Y-38659330D01*
X45207406Y-38654261D01*
X45285212Y-38646619D01*
X45347467Y-38636448D01*
X45353334Y-38635167D01*
X45463879Y-38606126D01*
X45554425Y-38571610D01*
X45627047Y-38530456D01*
X45683819Y-38481499D01*
X45726816Y-38423574D01*
X45742385Y-38391620D01*
X45761278Y-38318784D01*
X45764535Y-38237443D01*
X45752611Y-38152319D01*
X45725960Y-38068133D01*
X45685038Y-37989608D01*
X45641470Y-37922200D01*
X44491279Y-37922200D01*
X44444911Y-37992756D01*
X44421209Y-38033417D01*
X44395361Y-38087546D01*
X44377171Y-38136689D01*
X44361449Y-38200165D01*
X44350459Y-38296331D01*
X43757112Y-38296331D01*
X43766988Y-38249887D01*
X43776636Y-38219035D01*
X43806877Y-38141730D01*
X43844383Y-38064679D01*
X43885386Y-37995200D01*
X43926121Y-37940615D01*
X43945495Y-37917916D01*
X43963338Y-37895201D01*
X43970222Y-37883779D01*
X43968576Y-37882537D01*
X43950795Y-37879728D01*
X43917630Y-37877776D01*
X43874267Y-37877045D01*
X43778311Y-37877045D01*
X43778311Y-37018896D01*
X43839026Y-37053161D01*
X43848132Y-37058355D01*
X43862751Y-37066715D01*
X43876827Y-37074288D01*
X43891460Y-37081112D01*
X43907751Y-37087227D01*
X43926802Y-37092673D01*
X43949714Y-37097487D01*
X43977587Y-37101708D01*
X44011522Y-37105377D01*
X44052621Y-37108531D01*
X44101985Y-37111211D01*
X44160714Y-37113454D01*
X44229910Y-37115299D01*
X44310674Y-37116787D01*
X44404106Y-37117955D01*
X44511308Y-37118844D01*
X44633380Y-37119491D01*
X44771424Y-37119936D01*
X44926541Y-37120218D01*
X45099832Y-37120375D01*
X45292397Y-37120448D01*
X45505338Y-37120474D01*
X45739755Y-37120493D01*
X47424622Y-37120689D01*
X47424622Y-38026017D01*
X47387933Y-38001585D01*
X47378353Y-37995318D01*
X47332019Y-37969208D01*
X47284898Y-37951469D01*
X47229749Y-37939908D01*
X47159333Y-37932331D01*
X47152350Y-37931839D01*
X47114359Y-37930062D01*
X47060424Y-37928444D01*
X46993297Y-37926999D01*
X46915729Y-37925740D01*
X46830472Y-37924680D01*
X46740276Y-37923829D01*
X46647893Y-37923203D01*
X46556075Y-37922812D01*
X46467573Y-37922670D01*
X46385138Y-37922790D01*
X46311521Y-37923183D01*
X46249474Y-37923862D01*
X46201749Y-37924841D01*
X46171096Y-37926132D01*
X46160267Y-37927747D01*
X46164667Y-37935957D01*
X46179638Y-37957647D01*
X46201552Y-37987014D01*
X46235764Y-38035879D01*
X46282286Y-38124125D01*
X46315954Y-38222916D01*
X46337769Y-38335510D01*
X46348735Y-38465164D01*
X46349781Y-38557670D01*
X46339986Y-38679011D01*
X46315826Y-38789099D01*
X46276215Y-38892389D01*
X46220068Y-38993338D01*
X46189117Y-39038503D01*
X46097885Y-39143911D01*
X45988894Y-39235538D01*
X45862274Y-39313332D01*
X45718155Y-39377241D01*
X45556668Y-39427214D01*
X45377941Y-39463198D01*
X45182105Y-39485143D01*
X45026066Y-39490900D01*
X44969289Y-39492994D01*
G36*
X42435974Y-46693808D02*
G01*
X42468655Y-46697681D01*
X42495181Y-46710065D01*
X42526029Y-46735230D01*
X42548169Y-46756442D01*
X42570715Y-46782838D01*
X42589083Y-46812555D01*
X42604339Y-46848785D01*
X42617551Y-46894717D01*
X42629786Y-46953544D01*
X42642111Y-47028456D01*
X42655594Y-47122645D01*
X42662604Y-47167957D01*
X42677163Y-47235911D01*
X42693663Y-47285047D01*
X42711561Y-47314614D01*
X42730315Y-47323864D01*
X42749385Y-47312048D01*
X42768229Y-47278416D01*
X42769443Y-47275370D01*
X42781521Y-47229011D01*
X42789721Y-47166361D01*
X42793881Y-47092927D01*
X42793839Y-47014217D01*
X42789431Y-46935739D01*
X42780495Y-46863000D01*
X42779846Y-46859073D01*
X42772139Y-46810257D01*
X42768527Y-46778005D01*
X42769124Y-46757008D01*
X42774046Y-46741954D01*
X42783404Y-46727534D01*
X42784275Y-46726364D01*
X42814649Y-46701847D01*
X42850150Y-46697054D01*
X42884731Y-46712860D01*
X42889187Y-46717406D01*
X42904327Y-46747020D01*
X42917450Y-46794002D01*
X42928250Y-46854306D01*
X42936419Y-46923888D01*
X42941649Y-46998703D01*
X42943633Y-47074706D01*
X42942064Y-47147853D01*
X42936634Y-47214100D01*
X42927036Y-47269400D01*
X42912175Y-47320283D01*
X42879042Y-47391595D01*
X42836360Y-47442752D01*
X42784295Y-47473575D01*
X42723017Y-47483889D01*
X42691768Y-47482952D01*
X42666971Y-47477160D01*
X42645301Y-47462353D01*
X42617951Y-47434380D01*
X42610622Y-47426402D01*
X42589719Y-47402692D01*
X42572749Y-47380298D01*
X42558795Y-47356265D01*
X42546944Y-47327637D01*
X42536280Y-47291460D01*
X42525889Y-47244780D01*
X42514854Y-47184641D01*
X42502262Y-47108090D01*
X42487196Y-47012171D01*
X42484162Y-46993808D01*
X42470542Y-46931478D01*
X42454808Y-46886260D01*
X42437737Y-46859976D01*
X42420103Y-46854447D01*
X42415832Y-46857068D01*
X42400767Y-46875000D01*
X42384133Y-46903126D01*
X42378143Y-46915926D01*
X42370950Y-46937224D01*
X42366173Y-46963610D01*
X42363354Y-46999454D01*
X42362036Y-47049128D01*
X42361763Y-47117000D01*
X42361836Y-47134785D01*
X42362947Y-47202406D01*
X42365172Y-47267345D01*
X42368238Y-47322970D01*
X42371873Y-47362651D01*
X42375941Y-47398162D01*
X42376724Y-47427415D01*
X42372124Y-47446315D01*
X42361449Y-47461429D01*
X42357856Y-47465085D01*
X42326082Y-47481427D01*
X42290428Y-47480107D01*
X42259810Y-47461150D01*
X42248204Y-47440780D01*
X42235509Y-47404796D01*
X42225459Y-47362372D01*
X42224860Y-47358922D01*
X42219644Y-47316252D01*
X42215270Y-47258866D01*
X42212182Y-47193849D01*
X42210823Y-47128289D01*
X42210782Y-47112057D01*
X42213259Y-47013744D01*
X42221265Y-46933692D01*
X42235797Y-46868513D01*
X42257851Y-46814817D01*
X42288424Y-46769216D01*
X42328514Y-46728323D01*
X42354741Y-46708202D01*
X42384288Y-46696576D01*
X42424005Y-46693667D01*
X42435974Y-46693808D01*
G37*
X42435974Y-46693808D02*
X42468655Y-46697681D01*
X42495181Y-46710065D01*
X42526029Y-46735230D01*
X42548169Y-46756442D01*
X42570715Y-46782838D01*
X42589083Y-46812555D01*
X42604339Y-46848785D01*
X42617551Y-46894717D01*
X42629786Y-46953544D01*
X42642111Y-47028456D01*
X42655594Y-47122645D01*
X42662604Y-47167957D01*
X42677163Y-47235911D01*
X42693663Y-47285047D01*
X42711561Y-47314614D01*
X42730315Y-47323864D01*
X42749385Y-47312048D01*
X42768229Y-47278416D01*
X42769443Y-47275370D01*
X42781521Y-47229011D01*
X42789721Y-47166361D01*
X42793881Y-47092927D01*
X42793839Y-47014217D01*
X42789431Y-46935739D01*
X42780495Y-46863000D01*
X42779846Y-46859073D01*
X42772139Y-46810257D01*
X42768527Y-46778005D01*
X42769124Y-46757008D01*
X42774046Y-46741954D01*
X42783404Y-46727534D01*
X42784275Y-46726364D01*
X42814649Y-46701847D01*
X42850150Y-46697054D01*
X42884731Y-46712860D01*
X42889187Y-46717406D01*
X42904327Y-46747020D01*
X42917450Y-46794002D01*
X42928250Y-46854306D01*
X42936419Y-46923888D01*
X42941649Y-46998703D01*
X42943633Y-47074706D01*
X42942064Y-47147853D01*
X42936634Y-47214100D01*
X42927036Y-47269400D01*
X42912175Y-47320283D01*
X42879042Y-47391595D01*
X42836360Y-47442752D01*
X42784295Y-47473575D01*
X42723017Y-47483889D01*
X42691768Y-47482952D01*
X42666971Y-47477160D01*
X42645301Y-47462353D01*
X42617951Y-47434380D01*
X42610622Y-47426402D01*
X42589719Y-47402692D01*
X42572749Y-47380298D01*
X42558795Y-47356265D01*
X42546944Y-47327637D01*
X42536280Y-47291460D01*
X42525889Y-47244780D01*
X42514854Y-47184641D01*
X42502262Y-47108090D01*
X42487196Y-47012171D01*
X42484162Y-46993808D01*
X42470542Y-46931478D01*
X42454808Y-46886260D01*
X42437737Y-46859976D01*
X42420103Y-46854447D01*
X42415832Y-46857068D01*
X42400767Y-46875000D01*
X42384133Y-46903126D01*
X42378143Y-46915926D01*
X42370950Y-46937224D01*
X42366173Y-46963610D01*
X42363354Y-46999454D01*
X42362036Y-47049128D01*
X42361763Y-47117000D01*
X42361836Y-47134785D01*
X42362947Y-47202406D01*
X42365172Y-47267345D01*
X42368238Y-47322970D01*
X42371873Y-47362651D01*
X42375941Y-47398162D01*
X42376724Y-47427415D01*
X42372124Y-47446315D01*
X42361449Y-47461429D01*
X42357856Y-47465085D01*
X42326082Y-47481427D01*
X42290428Y-47480107D01*
X42259810Y-47461150D01*
X42248204Y-47440780D01*
X42235509Y-47404796D01*
X42225459Y-47362372D01*
X42224860Y-47358922D01*
X42219644Y-47316252D01*
X42215270Y-47258866D01*
X42212182Y-47193849D01*
X42210823Y-47128289D01*
X42210782Y-47112057D01*
X42213259Y-47013744D01*
X42221265Y-46933692D01*
X42235797Y-46868513D01*
X42257851Y-46814817D01*
X42288424Y-46769216D01*
X42328514Y-46728323D01*
X42354741Y-46708202D01*
X42384288Y-46696576D01*
X42424005Y-46693667D01*
X42435974Y-46693808D01*
G36*
X42757573Y-49583817D02*
G01*
X42676959Y-49583870D01*
X42576044Y-49583622D01*
X42500383Y-49583583D01*
X42422474Y-49583328D01*
X42362464Y-49582684D01*
X42317736Y-49581480D01*
X42285674Y-49579543D01*
X42263660Y-49576703D01*
X42249076Y-49572788D01*
X42239306Y-49567626D01*
X42231733Y-49561045D01*
X42225499Y-49554077D01*
X42218199Y-49541079D01*
X42213446Y-49521931D01*
X42210708Y-49492528D01*
X42209455Y-49448762D01*
X42209398Y-49436867D01*
X42355911Y-49436867D01*
X42796178Y-49436867D01*
X42796192Y-49360667D01*
X42796183Y-49357639D01*
X42794218Y-49306519D01*
X42789493Y-49246416D01*
X42782965Y-49189708D01*
X42773669Y-49139750D01*
X42747400Y-49064998D01*
X42708101Y-49007489D01*
X42655067Y-48965988D01*
X42603800Y-48944771D01*
X42555974Y-48943353D01*
X42505039Y-48961635D01*
X42459122Y-48991305D01*
X42416713Y-49038002D01*
X42386910Y-49099392D01*
X42367774Y-49178538D01*
X42367536Y-49180028D01*
X42361744Y-49228999D01*
X42357604Y-49287693D01*
X42355996Y-49343734D01*
X42355911Y-49436867D01*
X42209398Y-49436867D01*
X42209155Y-49386528D01*
X42209531Y-49337582D01*
X42213959Y-49230722D01*
X42224047Y-49141494D01*
X42240635Y-49066696D01*
X42264565Y-49003125D01*
X42296679Y-48947579D01*
X42337818Y-48896854D01*
X42343670Y-48890866D01*
X42392179Y-48853999D01*
X42452987Y-48822899D01*
X42517231Y-48801417D01*
X42576044Y-48793400D01*
X42597261Y-48794679D01*
X42654677Y-48806991D01*
X42714587Y-48829520D01*
X42768637Y-48858750D01*
X42808468Y-48891167D01*
X42825490Y-48910708D01*
X42864678Y-48965420D01*
X42894807Y-49025723D01*
X42916768Y-49094919D01*
X42931450Y-49176311D01*
X42939741Y-49273200D01*
X42942533Y-49388889D01*
X42942934Y-49428371D01*
X42943347Y-49474082D01*
X42941543Y-49509883D01*
X42935261Y-49536974D01*
X42922241Y-49556556D01*
X42900222Y-49569830D01*
X42866945Y-49577998D01*
X42820149Y-49582260D01*
X42796178Y-49582857D01*
X42757573Y-49583817D01*
G37*
X42757573Y-49583817D02*
X42676959Y-49583870D01*
X42576044Y-49583622D01*
X42500383Y-49583583D01*
X42422474Y-49583328D01*
X42362464Y-49582684D01*
X42317736Y-49581480D01*
X42285674Y-49579543D01*
X42263660Y-49576703D01*
X42249076Y-49572788D01*
X42239306Y-49567626D01*
X42231733Y-49561045D01*
X42225499Y-49554077D01*
X42218199Y-49541079D01*
X42213446Y-49521931D01*
X42210708Y-49492528D01*
X42209455Y-49448762D01*
X42209398Y-49436867D01*
X42355911Y-49436867D01*
X42796178Y-49436867D01*
X42796192Y-49360667D01*
X42796183Y-49357639D01*
X42794218Y-49306519D01*
X42789493Y-49246416D01*
X42782965Y-49189708D01*
X42773669Y-49139750D01*
X42747400Y-49064998D01*
X42708101Y-49007489D01*
X42655067Y-48965988D01*
X42603800Y-48944771D01*
X42555974Y-48943353D01*
X42505039Y-48961635D01*
X42459122Y-48991305D01*
X42416713Y-49038002D01*
X42386910Y-49099392D01*
X42367774Y-49178538D01*
X42367536Y-49180028D01*
X42361744Y-49228999D01*
X42357604Y-49287693D01*
X42355996Y-49343734D01*
X42355911Y-49436867D01*
X42209398Y-49436867D01*
X42209155Y-49386528D01*
X42209531Y-49337582D01*
X42213959Y-49230722D01*
X42224047Y-49141494D01*
X42240635Y-49066696D01*
X42264565Y-49003125D01*
X42296679Y-48947579D01*
X42337818Y-48896854D01*
X42343670Y-48890866D01*
X42392179Y-48853999D01*
X42452987Y-48822899D01*
X42517231Y-48801417D01*
X42576044Y-48793400D01*
X42597261Y-48794679D01*
X42654677Y-48806991D01*
X42714587Y-48829520D01*
X42768637Y-48858750D01*
X42808468Y-48891167D01*
X42825490Y-48910708D01*
X42864678Y-48965420D01*
X42894807Y-49025723D01*
X42916768Y-49094919D01*
X42931450Y-49176311D01*
X42939741Y-49273200D01*
X42942533Y-49388889D01*
X42942934Y-49428371D01*
X42943347Y-49474082D01*
X42941543Y-49509883D01*
X42935261Y-49536974D01*
X42922241Y-49556556D01*
X42900222Y-49569830D01*
X42866945Y-49577998D01*
X42820149Y-49582260D01*
X42796178Y-49582857D01*
X42757573Y-49583817D01*
G36*
X42306440Y-47771610D02*
G01*
X42333333Y-47788689D01*
X42337941Y-47793668D01*
X42344228Y-47803443D01*
X42348854Y-47817559D01*
X42352070Y-47839054D01*
X42354130Y-47870968D01*
X42355288Y-47916342D01*
X42355798Y-47978213D01*
X42355911Y-48059622D01*
X42355911Y-48307978D01*
X42513955Y-48307978D01*
X42513955Y-48146801D01*
X42514101Y-48110983D01*
X42515824Y-48045359D01*
X42520259Y-47998118D01*
X42528363Y-47966383D01*
X42541094Y-47947277D01*
X42559408Y-47937923D01*
X42584262Y-47935445D01*
X42604518Y-47936242D01*
X42626344Y-47941494D01*
X42641696Y-47954288D01*
X42651691Y-47977628D01*
X42657447Y-48014517D01*
X42660081Y-48067959D01*
X42660711Y-48140958D01*
X42660711Y-48309105D01*
X42725622Y-48305719D01*
X42790533Y-48302334D01*
X42793582Y-48054617D01*
X42794461Y-47992026D01*
X42795905Y-47923565D01*
X42797836Y-47872661D01*
X42800486Y-47836408D01*
X42804090Y-47811901D01*
X42808879Y-47796235D01*
X42815087Y-47786506D01*
X42821490Y-47780491D01*
X42853172Y-47767482D01*
X42888858Y-47771043D01*
X42919916Y-47790818D01*
X42922839Y-47794069D01*
X42929190Y-47803049D01*
X42934043Y-47815153D01*
X42937597Y-47833159D01*
X42940054Y-47859847D01*
X42941615Y-47897997D01*
X42942482Y-47950386D01*
X42942854Y-48019794D01*
X42942933Y-48109001D01*
X42942917Y-48163734D01*
X42942725Y-48240831D01*
X42942140Y-48299777D01*
X42940949Y-48343364D01*
X42938936Y-48374383D01*
X42935888Y-48395625D01*
X42931591Y-48409882D01*
X42925828Y-48419945D01*
X42918388Y-48428606D01*
X42916707Y-48430391D01*
X42909168Y-48437635D01*
X42900150Y-48443277D01*
X42887016Y-48447517D01*
X42867128Y-48450556D01*
X42837849Y-48452594D01*
X42796542Y-48453830D01*
X42740569Y-48454465D01*
X42667293Y-48454700D01*
X42574077Y-48454734D01*
X42501287Y-48454697D01*
X42423111Y-48454448D01*
X42362897Y-48453812D01*
X42318018Y-48452615D01*
X42285848Y-48450684D01*
X42263761Y-48447846D01*
X42249130Y-48443927D01*
X42239330Y-48438755D01*
X42231733Y-48432156D01*
X42228556Y-48428822D01*
X42222446Y-48420300D01*
X42217771Y-48408298D01*
X42214341Y-48390087D01*
X42211964Y-48362940D01*
X42210448Y-48324129D01*
X42209602Y-48270924D01*
X42209235Y-48200598D01*
X42209155Y-48110422D01*
X42209167Y-48068314D01*
X42209349Y-47987167D01*
X42209902Y-47924675D01*
X42211018Y-47878109D01*
X42212887Y-47844741D01*
X42215702Y-47821844D01*
X42219654Y-47806688D01*
X42224934Y-47796546D01*
X42231733Y-47788689D01*
X42253333Y-47773963D01*
X42282533Y-47766111D01*
X42306440Y-47771610D01*
G37*
X42306440Y-47771610D02*
X42333333Y-47788689D01*
X42337941Y-47793668D01*
X42344228Y-47803443D01*
X42348854Y-47817559D01*
X42352070Y-47839054D01*
X42354130Y-47870968D01*
X42355288Y-47916342D01*
X42355798Y-47978213D01*
X42355911Y-48059622D01*
X42355911Y-48307978D01*
X42513955Y-48307978D01*
X42513955Y-48146801D01*
X42514101Y-48110983D01*
X42515824Y-48045359D01*
X42520259Y-47998118D01*
X42528363Y-47966383D01*
X42541094Y-47947277D01*
X42559408Y-47937923D01*
X42584262Y-47935445D01*
X42604518Y-47936242D01*
X42626344Y-47941494D01*
X42641696Y-47954288D01*
X42651691Y-47977628D01*
X42657447Y-48014517D01*
X42660081Y-48067959D01*
X42660711Y-48140958D01*
X42660711Y-48309105D01*
X42725622Y-48305719D01*
X42790533Y-48302334D01*
X42793582Y-48054617D01*
X42794461Y-47992026D01*
X42795905Y-47923565D01*
X42797836Y-47872661D01*
X42800486Y-47836408D01*
X42804090Y-47811901D01*
X42808879Y-47796235D01*
X42815087Y-47786506D01*
X42821490Y-47780491D01*
X42853172Y-47767482D01*
X42888858Y-47771043D01*
X42919916Y-47790818D01*
X42922839Y-47794069D01*
X42929190Y-47803049D01*
X42934043Y-47815153D01*
X42937597Y-47833159D01*
X42940054Y-47859847D01*
X42941615Y-47897997D01*
X42942482Y-47950386D01*
X42942854Y-48019794D01*
X42942933Y-48109001D01*
X42942917Y-48163734D01*
X42942725Y-48240831D01*
X42942140Y-48299777D01*
X42940949Y-48343364D01*
X42938936Y-48374383D01*
X42935888Y-48395625D01*
X42931591Y-48409882D01*
X42925828Y-48419945D01*
X42918388Y-48428606D01*
X42916707Y-48430391D01*
X42909168Y-48437635D01*
X42900150Y-48443277D01*
X42887016Y-48447517D01*
X42867128Y-48450556D01*
X42837849Y-48452594D01*
X42796542Y-48453830D01*
X42740569Y-48454465D01*
X42667293Y-48454700D01*
X42574077Y-48454734D01*
X42501287Y-48454697D01*
X42423111Y-48454448D01*
X42362897Y-48453812D01*
X42318018Y-48452615D01*
X42285848Y-48450684D01*
X42263761Y-48447846D01*
X42249130Y-48443927D01*
X42239330Y-48438755D01*
X42231733Y-48432156D01*
X42228556Y-48428822D01*
X42222446Y-48420300D01*
X42217771Y-48408298D01*
X42214341Y-48390087D01*
X42211964Y-48362940D01*
X42210448Y-48324129D01*
X42209602Y-48270924D01*
X42209235Y-48200598D01*
X42209155Y-48110422D01*
X42209167Y-48068314D01*
X42209349Y-47987167D01*
X42209902Y-47924675D01*
X42211018Y-47878109D01*
X42212887Y-47844741D01*
X42215702Y-47821844D01*
X42219654Y-47806688D01*
X42224934Y-47796546D01*
X42231733Y-47788689D01*
X42253333Y-47773963D01*
X42282533Y-47766111D01*
X42306440Y-47771610D01*
G36*
X42298825Y-42490163D02*
G01*
X42275905Y-42487235D01*
X42260103Y-42483158D01*
X42248681Y-42477743D01*
X42238900Y-42470803D01*
X42209155Y-42447406D01*
X42209554Y-42336156D01*
X42355911Y-42336156D01*
X42796178Y-42336156D01*
X42795730Y-42248667D01*
X42793254Y-42181747D01*
X42782002Y-42089349D01*
X42762463Y-42010034D01*
X42735489Y-41948060D01*
X42714760Y-41917120D01*
X42684994Y-41889000D01*
X42642566Y-41865660D01*
X42626600Y-41858533D01*
X42594098Y-41846709D01*
X42569667Y-41844279D01*
X42544939Y-41849892D01*
X42529061Y-41855618D01*
X42469153Y-41888548D01*
X42423400Y-41935886D01*
X42390264Y-41999652D01*
X42368210Y-42081861D01*
X42367708Y-42084655D01*
X42361745Y-42130940D01*
X42357517Y-42187336D01*
X42355911Y-42242274D01*
X42355911Y-42336156D01*
X42209554Y-42336156D01*
X42209749Y-42281714D01*
X42210047Y-42246918D01*
X42213478Y-42148435D01*
X42221161Y-42067473D01*
X42233718Y-42000379D01*
X42251773Y-41943496D01*
X42275948Y-41893169D01*
X42277865Y-41889810D01*
X42314583Y-41831998D01*
X42351549Y-41789644D01*
X42395034Y-41756828D01*
X42451311Y-41727628D01*
X42460927Y-41723346D01*
X42524113Y-41700769D01*
X42579491Y-41693797D01*
X42634517Y-41702399D01*
X42696649Y-41726541D01*
X42698342Y-41727337D01*
X42767764Y-41767788D01*
X42824362Y-41818473D01*
X42868930Y-41881198D01*
X42902259Y-41957774D01*
X42925139Y-42050009D01*
X42938364Y-42159712D01*
X42942725Y-42288691D01*
X42942730Y-42292263D01*
X42942590Y-42352283D01*
X42941554Y-42394214D01*
X42938960Y-42422328D01*
X42934147Y-42440897D01*
X42926456Y-42454194D01*
X42915224Y-42466491D01*
X42887515Y-42494200D01*
X42578080Y-42494200D01*
X42516474Y-42494175D01*
X42437689Y-42493950D01*
X42376979Y-42493332D01*
X42355911Y-42492775D01*
X42331604Y-42492133D01*
X42298825Y-42490163D01*
G37*
X42298825Y-42490163D02*
X42275905Y-42487235D01*
X42260103Y-42483158D01*
X42248681Y-42477743D01*
X42238900Y-42470803D01*
X42209155Y-42447406D01*
X42209554Y-42336156D01*
X42355911Y-42336156D01*
X42796178Y-42336156D01*
X42795730Y-42248667D01*
X42793254Y-42181747D01*
X42782002Y-42089349D01*
X42762463Y-42010034D01*
X42735489Y-41948060D01*
X42714760Y-41917120D01*
X42684994Y-41889000D01*
X42642566Y-41865660D01*
X42626600Y-41858533D01*
X42594098Y-41846709D01*
X42569667Y-41844279D01*
X42544939Y-41849892D01*
X42529061Y-41855618D01*
X42469153Y-41888548D01*
X42423400Y-41935886D01*
X42390264Y-41999652D01*
X42368210Y-42081861D01*
X42367708Y-42084655D01*
X42361745Y-42130940D01*
X42357517Y-42187336D01*
X42355911Y-42242274D01*
X42355911Y-42336156D01*
X42209554Y-42336156D01*
X42209749Y-42281714D01*
X42210047Y-42246918D01*
X42213478Y-42148435D01*
X42221161Y-42067473D01*
X42233718Y-42000379D01*
X42251773Y-41943496D01*
X42275948Y-41893169D01*
X42277865Y-41889810D01*
X42314583Y-41831998D01*
X42351549Y-41789644D01*
X42395034Y-41756828D01*
X42451311Y-41727628D01*
X42460927Y-41723346D01*
X42524113Y-41700769D01*
X42579491Y-41693797D01*
X42634517Y-41702399D01*
X42696649Y-41726541D01*
X42698342Y-41727337D01*
X42767764Y-41767788D01*
X42824362Y-41818473D01*
X42868930Y-41881198D01*
X42902259Y-41957774D01*
X42925139Y-42050009D01*
X42938364Y-42159712D01*
X42942725Y-42288691D01*
X42942730Y-42292263D01*
X42942590Y-42352283D01*
X42941554Y-42394214D01*
X42938960Y-42422328D01*
X42934147Y-42440897D01*
X42926456Y-42454194D01*
X42915224Y-42466491D01*
X42887515Y-42494200D01*
X42578080Y-42494200D01*
X42516474Y-42494175D01*
X42437689Y-42493950D01*
X42376979Y-42493332D01*
X42355911Y-42492775D01*
X42331604Y-42492133D01*
X42298825Y-42490163D01*
G36*
X42921353Y-39094673D02*
G01*
X42936123Y-39118386D01*
X42942933Y-39141400D01*
X42937051Y-39162406D01*
X42921353Y-39188127D01*
X42899773Y-39214778D01*
X42252316Y-39214778D01*
X42230736Y-39188127D01*
X42213261Y-39156767D01*
X42212425Y-39120966D01*
X42232918Y-39089528D01*
X42237584Y-39085652D01*
X42247051Y-39080186D01*
X42260733Y-39075979D01*
X42281252Y-39072867D01*
X42311232Y-39070687D01*
X42353296Y-39069276D01*
X42410068Y-39068471D01*
X42484170Y-39068107D01*
X42578227Y-39068022D01*
X42899773Y-39068022D01*
X42921353Y-39094673D01*
G37*
X42921353Y-39094673D02*
X42936123Y-39118386D01*
X42942933Y-39141400D01*
X42937051Y-39162406D01*
X42921353Y-39188127D01*
X42899773Y-39214778D01*
X42252316Y-39214778D01*
X42230736Y-39188127D01*
X42213261Y-39156767D01*
X42212425Y-39120966D01*
X42232918Y-39089528D01*
X42237584Y-39085652D01*
X42247051Y-39080186D01*
X42260733Y-39075979D01*
X42281252Y-39072867D01*
X42311232Y-39070687D01*
X42353296Y-39069276D01*
X42410068Y-39068471D01*
X42484170Y-39068107D01*
X42578227Y-39068022D01*
X42899773Y-39068022D01*
X42921353Y-39094673D01*
G36*
X42890642Y-38045543D02*
G01*
X42923178Y-38071187D01*
X42926895Y-38076129D01*
X42931731Y-38086338D01*
X42935494Y-38101764D01*
X42938317Y-38124886D01*
X42940330Y-38158183D01*
X42941667Y-38204137D01*
X42942458Y-38265228D01*
X42942837Y-38343935D01*
X42942933Y-38442740D01*
X42942932Y-38462767D01*
X42942842Y-38556890D01*
X42942502Y-38631405D01*
X42941761Y-38688811D01*
X42940465Y-38731611D01*
X42938463Y-38762304D01*
X42935604Y-38783391D01*
X42931734Y-38797373D01*
X42926702Y-38806750D01*
X42920355Y-38814022D01*
X42887638Y-38832828D01*
X42850061Y-38834275D01*
X42816822Y-38817917D01*
X42815369Y-38816557D01*
X42807008Y-38805354D01*
X42801453Y-38788252D01*
X42798160Y-38761082D01*
X42796582Y-38719678D01*
X42796178Y-38659873D01*
X42796178Y-38520511D01*
X42532411Y-38520511D01*
X42456583Y-38520436D01*
X42389917Y-38520028D01*
X42340133Y-38519046D01*
X42304216Y-38517250D01*
X42279150Y-38514399D01*
X42261919Y-38510253D01*
X42249508Y-38504571D01*
X42238900Y-38497114D01*
X42236094Y-38494824D01*
X42213452Y-38463646D01*
X42211888Y-38429266D01*
X42231733Y-38396334D01*
X42239809Y-38389355D01*
X42250407Y-38383883D01*
X42266251Y-38379863D01*
X42290227Y-38377072D01*
X42325226Y-38375288D01*
X42374136Y-38374289D01*
X42439846Y-38373852D01*
X42525244Y-38373756D01*
X42796178Y-38373756D01*
X42796178Y-38227820D01*
X42796179Y-38216720D01*
X42796404Y-38160202D01*
X42797543Y-38121358D01*
X42800343Y-38095965D01*
X42805550Y-38079804D01*
X42813911Y-38068652D01*
X42826174Y-38058289D01*
X42856862Y-38042441D01*
X42890642Y-38045543D01*
G37*
X42890642Y-38045543D02*
X42923178Y-38071187D01*
X42926895Y-38076129D01*
X42931731Y-38086338D01*
X42935494Y-38101764D01*
X42938317Y-38124886D01*
X42940330Y-38158183D01*
X42941667Y-38204137D01*
X42942458Y-38265228D01*
X42942837Y-38343935D01*
X42942933Y-38442740D01*
X42942932Y-38462767D01*
X42942842Y-38556890D01*
X42942502Y-38631405D01*
X42941761Y-38688811D01*
X42940465Y-38731611D01*
X42938463Y-38762304D01*
X42935604Y-38783391D01*
X42931734Y-38797373D01*
X42926702Y-38806750D01*
X42920355Y-38814022D01*
X42887638Y-38832828D01*
X42850061Y-38834275D01*
X42816822Y-38817917D01*
X42815369Y-38816557D01*
X42807008Y-38805354D01*
X42801453Y-38788252D01*
X42798160Y-38761082D01*
X42796582Y-38719678D01*
X42796178Y-38659873D01*
X42796178Y-38520511D01*
X42532411Y-38520511D01*
X42456583Y-38520436D01*
X42389917Y-38520028D01*
X42340133Y-38519046D01*
X42304216Y-38517250D01*
X42279150Y-38514399D01*
X42261919Y-38510253D01*
X42249508Y-38504571D01*
X42238900Y-38497114D01*
X42236094Y-38494824D01*
X42213452Y-38463646D01*
X42211888Y-38429266D01*
X42231733Y-38396334D01*
X42239809Y-38389355D01*
X42250407Y-38383883D01*
X42266251Y-38379863D01*
X42290227Y-38377072D01*
X42325226Y-38375288D01*
X42374136Y-38374289D01*
X42439846Y-38373852D01*
X42525244Y-38373756D01*
X42796178Y-38373756D01*
X42796178Y-38227820D01*
X42796179Y-38216720D01*
X42796404Y-38160202D01*
X42797543Y-38121358D01*
X42800343Y-38095965D01*
X42805550Y-38079804D01*
X42813911Y-38068652D01*
X42826174Y-38058289D01*
X42856862Y-38042441D01*
X42890642Y-38045543D01*
G36*
X42873030Y-42832873D02*
G01*
X42893061Y-42834027D01*
X42908854Y-42838824D01*
X42920910Y-42849632D01*
X42929733Y-42868817D01*
X42935825Y-42898745D01*
X42939689Y-42941783D01*
X42941826Y-43000299D01*
X42942740Y-43076657D01*
X42942933Y-43173226D01*
X42942933Y-43463406D01*
X42913189Y-43486803D01*
X42906505Y-43491752D01*
X42895934Y-43497596D01*
X42881847Y-43502057D01*
X42861522Y-43505321D01*
X42832235Y-43507574D01*
X42791263Y-43509002D01*
X42735883Y-43509792D01*
X42663372Y-43510129D01*
X42571006Y-43510200D01*
X42505089Y-43510171D01*
X42426772Y-43509939D01*
X42366504Y-43509319D01*
X42321607Y-43508126D01*
X42289398Y-43506179D01*
X42267200Y-43503294D01*
X42252331Y-43499288D01*
X42242111Y-43493979D01*
X42233862Y-43487183D01*
X42229205Y-43482668D01*
X42222718Y-43474438D01*
X42217806Y-43463078D01*
X42214251Y-43445810D01*
X42211833Y-43419855D01*
X42210333Y-43382436D01*
X42209533Y-43330773D01*
X42209213Y-43262089D01*
X42209155Y-43173606D01*
X42209162Y-43153931D01*
X42209428Y-43066906D01*
X42210194Y-42999254D01*
X42211608Y-42948299D01*
X42213820Y-42911367D01*
X42216978Y-42885783D01*
X42221231Y-42868871D01*
X42226729Y-42857957D01*
X42236715Y-42847464D01*
X42267832Y-42834203D01*
X42303720Y-42835386D01*
X42335267Y-42851550D01*
X42337543Y-42853739D01*
X42343811Y-42862427D01*
X42348477Y-42875769D01*
X42351773Y-42896752D01*
X42353932Y-42928363D01*
X42355186Y-42973590D01*
X42355769Y-43035420D01*
X42355911Y-43116839D01*
X42355911Y-43363445D01*
X42513955Y-43363445D01*
X42513955Y-43201006D01*
X42514036Y-43165338D01*
X42514833Y-43109568D01*
X42516838Y-43070430D01*
X42520479Y-43043976D01*
X42526188Y-43026259D01*
X42534393Y-43013329D01*
X42537577Y-43009686D01*
X42568552Y-42991278D01*
X42604888Y-42990644D01*
X42638507Y-43008183D01*
X42638576Y-43008245D01*
X42647202Y-43017916D01*
X42653258Y-43031209D01*
X42657189Y-43051917D01*
X42659444Y-43083828D01*
X42660469Y-43130734D01*
X42660711Y-43196424D01*
X42660711Y-43364571D01*
X42725622Y-43361186D01*
X42790533Y-43357800D01*
X42793586Y-43115723D01*
X42793914Y-43090707D01*
X42795394Y-43009087D01*
X42797778Y-42946768D01*
X42801773Y-42901154D01*
X42808087Y-42869652D01*
X42817426Y-42849667D01*
X42830497Y-42838604D01*
X42848008Y-42833869D01*
X42870665Y-42832867D01*
X42873030Y-42832873D01*
G37*
X42873030Y-42832873D02*
X42893061Y-42834027D01*
X42908854Y-42838824D01*
X42920910Y-42849632D01*
X42929733Y-42868817D01*
X42935825Y-42898745D01*
X42939689Y-42941783D01*
X42941826Y-43000299D01*
X42942740Y-43076657D01*
X42942933Y-43173226D01*
X42942933Y-43463406D01*
X42913189Y-43486803D01*
X42906505Y-43491752D01*
X42895934Y-43497596D01*
X42881847Y-43502057D01*
X42861522Y-43505321D01*
X42832235Y-43507574D01*
X42791263Y-43509002D01*
X42735883Y-43509792D01*
X42663372Y-43510129D01*
X42571006Y-43510200D01*
X42505089Y-43510171D01*
X42426772Y-43509939D01*
X42366504Y-43509319D01*
X42321607Y-43508126D01*
X42289398Y-43506179D01*
X42267200Y-43503294D01*
X42252331Y-43499288D01*
X42242111Y-43493979D01*
X42233862Y-43487183D01*
X42229205Y-43482668D01*
X42222718Y-43474438D01*
X42217806Y-43463078D01*
X42214251Y-43445810D01*
X42211833Y-43419855D01*
X42210333Y-43382436D01*
X42209533Y-43330773D01*
X42209213Y-43262089D01*
X42209155Y-43173606D01*
X42209162Y-43153931D01*
X42209428Y-43066906D01*
X42210194Y-42999254D01*
X42211608Y-42948299D01*
X42213820Y-42911367D01*
X42216978Y-42885783D01*
X42221231Y-42868871D01*
X42226729Y-42857957D01*
X42236715Y-42847464D01*
X42267832Y-42834203D01*
X42303720Y-42835386D01*
X42335267Y-42851550D01*
X42337543Y-42853739D01*
X42343811Y-42862427D01*
X42348477Y-42875769D01*
X42351773Y-42896752D01*
X42353932Y-42928363D01*
X42355186Y-42973590D01*
X42355769Y-43035420D01*
X42355911Y-43116839D01*
X42355911Y-43363445D01*
X42513955Y-43363445D01*
X42513955Y-43201006D01*
X42514036Y-43165338D01*
X42514833Y-43109568D01*
X42516838Y-43070430D01*
X42520479Y-43043976D01*
X42526188Y-43026259D01*
X42534393Y-43013329D01*
X42537577Y-43009686D01*
X42568552Y-42991278D01*
X42604888Y-42990644D01*
X42638507Y-43008183D01*
X42638576Y-43008245D01*
X42647202Y-43017916D01*
X42653258Y-43031209D01*
X42657189Y-43051917D01*
X42659444Y-43083828D01*
X42660469Y-43130734D01*
X42660711Y-43196424D01*
X42660711Y-43364571D01*
X42725622Y-43361186D01*
X42790533Y-43357800D01*
X42793586Y-43115723D01*
X42793914Y-43090707D01*
X42795394Y-43009087D01*
X42797778Y-42946768D01*
X42801773Y-42901154D01*
X42808087Y-42869652D01*
X42817426Y-42849667D01*
X42830497Y-42838604D01*
X42848008Y-42833869D01*
X42870665Y-42832867D01*
X42873030Y-42832873D01*
G36*
X47798470Y-45190136D02*
G01*
X47894780Y-45216399D01*
X47983506Y-45261418D01*
X48058581Y-45322373D01*
X48118359Y-45397184D01*
X48161191Y-45483768D01*
X48185429Y-45580043D01*
X48189424Y-45683928D01*
X48179150Y-45761562D01*
X48151947Y-45844313D01*
X48106516Y-45919406D01*
X48040698Y-45991298D01*
X47996433Y-46029846D01*
X47938039Y-46069256D01*
X47877414Y-46094446D01*
X47808135Y-46107861D01*
X47723778Y-46111948D01*
X47677693Y-46111669D01*
X47636550Y-46109460D01*
X47604418Y-46103894D01*
X47573878Y-46093586D01*
X47537511Y-46077148D01*
X47510272Y-46063200D01*
X47424571Y-46004665D01*
X47355383Y-45932619D01*
X47304259Y-45848947D01*
X47272750Y-45755531D01*
X47265775Y-45722434D01*
X47258906Y-45681960D01*
X47257081Y-45648999D01*
X47260053Y-45614698D01*
X47267574Y-45570200D01*
X47279998Y-45518934D01*
X47317888Y-45428434D01*
X47372164Y-45349345D01*
X47440230Y-45283528D01*
X47519489Y-45232840D01*
X47607346Y-45199140D01*
X47701205Y-45184286D01*
X47798470Y-45190136D01*
G37*
X47798470Y-45190136D02*
X47894780Y-45216399D01*
X47983506Y-45261418D01*
X48058581Y-45322373D01*
X48118359Y-45397184D01*
X48161191Y-45483768D01*
X48185429Y-45580043D01*
X48189424Y-45683928D01*
X48179150Y-45761562D01*
X48151947Y-45844313D01*
X48106516Y-45919406D01*
X48040698Y-45991298D01*
X47996433Y-46029846D01*
X47938039Y-46069256D01*
X47877414Y-46094446D01*
X47808135Y-46107861D01*
X47723778Y-46111948D01*
X47677693Y-46111669D01*
X47636550Y-46109460D01*
X47604418Y-46103894D01*
X47573878Y-46093586D01*
X47537511Y-46077148D01*
X47510272Y-46063200D01*
X47424571Y-46004665D01*
X47355383Y-45932619D01*
X47304259Y-45848947D01*
X47272750Y-45755531D01*
X47265775Y-45722434D01*
X47258906Y-45681960D01*
X47257081Y-45648999D01*
X47260053Y-45614698D01*
X47267574Y-45570200D01*
X47279998Y-45518934D01*
X47317888Y-45428434D01*
X47372164Y-45349345D01*
X47440230Y-45283528D01*
X47519489Y-45232840D01*
X47607346Y-45199140D01*
X47701205Y-45184286D01*
X47798470Y-45190136D01*
G36*
X42915224Y-37046798D02*
G01*
X42937467Y-37078177D01*
X42940156Y-37111406D01*
X42920355Y-37143267D01*
X42910585Y-37151553D01*
X42894693Y-37158965D01*
X42870725Y-37163302D01*
X42833852Y-37165338D01*
X42779244Y-37165845D01*
X42660711Y-37165845D01*
X42660711Y-37662556D01*
X42776224Y-37662556D01*
X42827922Y-37662994D01*
X42862446Y-37664958D01*
X42885022Y-37669474D01*
X42900874Y-37677567D01*
X42915224Y-37690265D01*
X42937467Y-37721643D01*
X42940156Y-37754872D01*
X42920355Y-37786734D01*
X42914165Y-37792366D01*
X42905959Y-37797456D01*
X42894183Y-37801543D01*
X42876724Y-37804721D01*
X42851470Y-37807087D01*
X42816310Y-37808738D01*
X42769131Y-37809769D01*
X42707823Y-37810277D01*
X42630273Y-37810359D01*
X42534369Y-37810109D01*
X42418000Y-37809625D01*
X42403825Y-37809557D01*
X42342063Y-37808971D01*
X42298380Y-37807648D01*
X42268999Y-37805103D01*
X42250145Y-37800848D01*
X42238041Y-37794396D01*
X42228911Y-37785262D01*
X42211494Y-37751804D01*
X42214396Y-37716856D01*
X42238900Y-37685953D01*
X42252103Y-37676944D01*
X42270639Y-37669492D01*
X42296667Y-37665124D01*
X42335213Y-37663069D01*
X42391300Y-37662556D01*
X42513955Y-37662556D01*
X42513955Y-37165845D01*
X42379129Y-37165845D01*
X42343338Y-37165772D01*
X42297008Y-37165009D01*
X42266474Y-37162833D01*
X42247443Y-37158536D01*
X42235626Y-37151412D01*
X42226729Y-37140755D01*
X42211659Y-37108504D01*
X42214327Y-37073217D01*
X42238900Y-37042486D01*
X42245155Y-37037831D01*
X42255679Y-37031895D01*
X42269609Y-37027364D01*
X42289683Y-37024048D01*
X42318640Y-37021759D01*
X42359220Y-37020308D01*
X42414160Y-37019505D01*
X42486201Y-37019162D01*
X42578080Y-37019089D01*
X42887515Y-37019089D01*
X42915224Y-37046798D01*
G37*
X42915224Y-37046798D02*
X42937467Y-37078177D01*
X42940156Y-37111406D01*
X42920355Y-37143267D01*
X42910585Y-37151553D01*
X42894693Y-37158965D01*
X42870725Y-37163302D01*
X42833852Y-37165338D01*
X42779244Y-37165845D01*
X42660711Y-37165845D01*
X42660711Y-37662556D01*
X42776224Y-37662556D01*
X42827922Y-37662994D01*
X42862446Y-37664958D01*
X42885022Y-37669474D01*
X42900874Y-37677567D01*
X42915224Y-37690265D01*
X42937467Y-37721643D01*
X42940156Y-37754872D01*
X42920355Y-37786734D01*
X42914165Y-37792366D01*
X42905959Y-37797456D01*
X42894183Y-37801543D01*
X42876724Y-37804721D01*
X42851470Y-37807087D01*
X42816310Y-37808738D01*
X42769131Y-37809769D01*
X42707823Y-37810277D01*
X42630273Y-37810359D01*
X42534369Y-37810109D01*
X42418000Y-37809625D01*
X42403825Y-37809557D01*
X42342063Y-37808971D01*
X42298380Y-37807648D01*
X42268999Y-37805103D01*
X42250145Y-37800848D01*
X42238041Y-37794396D01*
X42228911Y-37785262D01*
X42211494Y-37751804D01*
X42214396Y-37716856D01*
X42238900Y-37685953D01*
X42252103Y-37676944D01*
X42270639Y-37669492D01*
X42296667Y-37665124D01*
X42335213Y-37663069D01*
X42391300Y-37662556D01*
X42513955Y-37662556D01*
X42513955Y-37165845D01*
X42379129Y-37165845D01*
X42343338Y-37165772D01*
X42297008Y-37165009D01*
X42266474Y-37162833D01*
X42247443Y-37158536D01*
X42235626Y-37151412D01*
X42226729Y-37140755D01*
X42211659Y-37108504D01*
X42214327Y-37073217D01*
X42238900Y-37042486D01*
X42245155Y-37037831D01*
X42255679Y-37031895D01*
X42269609Y-37027364D01*
X42289683Y-37024048D01*
X42318640Y-37021759D01*
X42359220Y-37020308D01*
X42414160Y-37019505D01*
X42486201Y-37019162D01*
X42578080Y-37019089D01*
X42887515Y-37019089D01*
X42915224Y-37046798D01*
G36*
X42504162Y-45035060D02*
G01*
X42551544Y-45039780D01*
X42583647Y-45051470D01*
X42603200Y-45073239D01*
X42612930Y-45108198D01*
X42615567Y-45159456D01*
X42613839Y-45230123D01*
X42610827Y-45278743D01*
X42602634Y-45328939D01*
X42588581Y-45361433D01*
X42567346Y-45378892D01*
X42537606Y-45383983D01*
X42533064Y-45383877D01*
X42498270Y-45375175D01*
X42474853Y-45351165D01*
X42461653Y-45309900D01*
X42457511Y-45249431D01*
X42457511Y-45180956D01*
X42419159Y-45180956D01*
X42410024Y-45181006D01*
X42392773Y-45183227D01*
X42382479Y-45192494D01*
X42375541Y-45213875D01*
X42368359Y-45252436D01*
X42367425Y-45257910D01*
X42357522Y-45354860D01*
X42360441Y-45444852D01*
X42375171Y-45525760D01*
X42400701Y-45595459D01*
X42436022Y-45651824D01*
X42480121Y-45692729D01*
X42531988Y-45716051D01*
X42590612Y-45719663D01*
X42619506Y-45714145D01*
X42675396Y-45687461D01*
X42721055Y-45641273D01*
X42755892Y-45576291D01*
X42779310Y-45493229D01*
X42783759Y-45468555D01*
X42794258Y-45379226D01*
X42793029Y-45299419D01*
X42780094Y-45221326D01*
X42773304Y-45186183D01*
X42772287Y-45140745D01*
X42784818Y-45109430D01*
X42811605Y-45089277D01*
X42839852Y-45082893D01*
X42871076Y-45092379D01*
X42884501Y-45101708D01*
X42908033Y-45135943D01*
X42925905Y-45188565D01*
X42937401Y-45257081D01*
X42941808Y-45339000D01*
X42937821Y-45436150D01*
X42921506Y-45542157D01*
X42893455Y-45635969D01*
X42854548Y-45714765D01*
X42805666Y-45775719D01*
X42772805Y-45801789D01*
X42723606Y-45831297D01*
X42669748Y-45856568D01*
X42618581Y-45874218D01*
X42577456Y-45880858D01*
X42557741Y-45879298D01*
X42506408Y-45866357D01*
X42449882Y-45843194D01*
X42395965Y-45813302D01*
X42352461Y-45780173D01*
X42342113Y-45769977D01*
X42290338Y-45702892D01*
X42250446Y-45622766D01*
X42226044Y-45536556D01*
X42217932Y-45481592D01*
X42211327Y-45388139D01*
X42213414Y-45298358D01*
X42223660Y-45215869D01*
X42241530Y-45144286D01*
X42266492Y-45087228D01*
X42298012Y-45048311D01*
X42299988Y-45046936D01*
X42325214Y-45039848D01*
X42372465Y-45035609D01*
X42441929Y-45034200D01*
X42504162Y-45035060D01*
G37*
X42504162Y-45035060D02*
X42551544Y-45039780D01*
X42583647Y-45051470D01*
X42603200Y-45073239D01*
X42612930Y-45108198D01*
X42615567Y-45159456D01*
X42613839Y-45230123D01*
X42610827Y-45278743D01*
X42602634Y-45328939D01*
X42588581Y-45361433D01*
X42567346Y-45378892D01*
X42537606Y-45383983D01*
X42533064Y-45383877D01*
X42498270Y-45375175D01*
X42474853Y-45351165D01*
X42461653Y-45309900D01*
X42457511Y-45249431D01*
X42457511Y-45180956D01*
X42419159Y-45180956D01*
X42410024Y-45181006D01*
X42392773Y-45183227D01*
X42382479Y-45192494D01*
X42375541Y-45213875D01*
X42368359Y-45252436D01*
X42367425Y-45257910D01*
X42357522Y-45354860D01*
X42360441Y-45444852D01*
X42375171Y-45525760D01*
X42400701Y-45595459D01*
X42436022Y-45651824D01*
X42480121Y-45692729D01*
X42531988Y-45716051D01*
X42590612Y-45719663D01*
X42619506Y-45714145D01*
X42675396Y-45687461D01*
X42721055Y-45641273D01*
X42755892Y-45576291D01*
X42779310Y-45493229D01*
X42783759Y-45468555D01*
X42794258Y-45379226D01*
X42793029Y-45299419D01*
X42780094Y-45221326D01*
X42773304Y-45186183D01*
X42772287Y-45140745D01*
X42784818Y-45109430D01*
X42811605Y-45089277D01*
X42839852Y-45082893D01*
X42871076Y-45092379D01*
X42884501Y-45101708D01*
X42908033Y-45135943D01*
X42925905Y-45188565D01*
X42937401Y-45257081D01*
X42941808Y-45339000D01*
X42937821Y-45436150D01*
X42921506Y-45542157D01*
X42893455Y-45635969D01*
X42854548Y-45714765D01*
X42805666Y-45775719D01*
X42772805Y-45801789D01*
X42723606Y-45831297D01*
X42669748Y-45856568D01*
X42618581Y-45874218D01*
X42577456Y-45880858D01*
X42557741Y-45879298D01*
X42506408Y-45866357D01*
X42449882Y-45843194D01*
X42395965Y-45813302D01*
X42352461Y-45780173D01*
X42342113Y-45769977D01*
X42290338Y-45702892D01*
X42250446Y-45622766D01*
X42226044Y-45536556D01*
X42217932Y-45481592D01*
X42211327Y-45388139D01*
X42213414Y-45298358D01*
X42223660Y-45215869D01*
X42241530Y-45144286D01*
X42266492Y-45087228D01*
X42298012Y-45048311D01*
X42299988Y-45046936D01*
X42325214Y-45039848D01*
X42372465Y-45035609D01*
X42441929Y-45034200D01*
X42504162Y-45035060D01*
G36*
X44068016Y-42042076D02*
G01*
X44087921Y-42053250D01*
X44123580Y-42074134D01*
X44172541Y-42103265D01*
X44232354Y-42139181D01*
X44300567Y-42180420D01*
X44374729Y-42225517D01*
X44671992Y-42406785D01*
X44627461Y-42453315D01*
X44549135Y-42544723D01*
X44474561Y-42658334D01*
X44420526Y-42776122D01*
X44387710Y-42896559D01*
X44376789Y-43018117D01*
X44378132Y-43059585D01*
X44396388Y-43177080D01*
X44435383Y-43287089D01*
X44494330Y-43388430D01*
X44572443Y-43479921D01*
X44668936Y-43560380D01*
X44783022Y-43628627D01*
X44817276Y-43644908D01*
X44940760Y-43690982D01*
X45079082Y-43726106D01*
X45228439Y-43750197D01*
X45385027Y-43763173D01*
X45545044Y-43764949D01*
X45704686Y-43755443D01*
X45860150Y-43734572D01*
X46007634Y-43702252D01*
X46143333Y-43658399D01*
X46229924Y-43620982D01*
X46343312Y-43556185D01*
X46436930Y-43480772D01*
X46511041Y-43394418D01*
X46565906Y-43296795D01*
X46601788Y-43187577D01*
X46618949Y-43066439D01*
X46620120Y-42997038D01*
X46605859Y-42874168D01*
X46570759Y-42758664D01*
X46515318Y-42651953D01*
X46440036Y-42555464D01*
X46425560Y-42539720D01*
X46399038Y-42509150D01*
X46381862Y-42486809D01*
X46377213Y-42476691D01*
X46379403Y-42474706D01*
X46398279Y-42460241D01*
X46431603Y-42436400D01*
X46476620Y-42405029D01*
X46530575Y-42367974D01*
X46590715Y-42327083D01*
X46654282Y-42284202D01*
X46718524Y-42241178D01*
X46780685Y-42199857D01*
X46838009Y-42162086D01*
X46887743Y-42129712D01*
X46927132Y-42104582D01*
X46953420Y-42088542D01*
X46963853Y-42083439D01*
X46968059Y-42088050D01*
X46973067Y-42107267D01*
X46975614Y-42116838D01*
X46986751Y-42144809D01*
X47005198Y-42186448D01*
X47029275Y-42237995D01*
X47057301Y-42295690D01*
X47062846Y-42306957D01*
X47142111Y-42484687D01*
X47201615Y-42654490D01*
X47241755Y-42818430D01*
X47262929Y-42978571D01*
X47265534Y-43136977D01*
X47249967Y-43295711D01*
X47232477Y-43391268D01*
X47187436Y-43555558D01*
X47124344Y-43709589D01*
X47042085Y-43855509D01*
X46939543Y-43995466D01*
X46815601Y-44131608D01*
X46770339Y-44175473D01*
X46638135Y-44287758D01*
X46500168Y-44380972D01*
X46352250Y-44457719D01*
X46190197Y-44520603D01*
X46178609Y-44524420D01*
X45992608Y-44574507D01*
X45796479Y-44607899D01*
X45594432Y-44624584D01*
X45390675Y-44624551D01*
X45189419Y-44607791D01*
X44994872Y-44574292D01*
X44811244Y-44524044D01*
X44693947Y-44480190D01*
X44531049Y-44402348D01*
X44377134Y-44308828D01*
X44235329Y-44201822D01*
X44108761Y-44083519D01*
X44000559Y-43956111D01*
X43947880Y-43878606D01*
X43878250Y-43751725D01*
X43819532Y-43614243D01*
X43774413Y-43472716D01*
X43745578Y-43333702D01*
X43743894Y-43319597D01*
X43740566Y-43276153D01*
X43737725Y-43218723D01*
X43735627Y-43153122D01*
X43734532Y-43085167D01*
X43736860Y-42958378D01*
X43749864Y-42810673D01*
X43774867Y-42672779D01*
X43812682Y-42539014D01*
X43821111Y-42515562D01*
X43840592Y-42467612D01*
X43865527Y-42411140D01*
X43894278Y-42349379D01*
X43925210Y-42285563D01*
X43956685Y-42222926D01*
X43987066Y-42164703D01*
X44014717Y-42114127D01*
X44038001Y-42074433D01*
X44055282Y-42048854D01*
X44064921Y-42040625D01*
X44068016Y-42042076D01*
G37*
X44068016Y-42042076D02*
X44087921Y-42053250D01*
X44123580Y-42074134D01*
X44172541Y-42103265D01*
X44232354Y-42139181D01*
X44300567Y-42180420D01*
X44374729Y-42225517D01*
X44671992Y-42406785D01*
X44627461Y-42453315D01*
X44549135Y-42544723D01*
X44474561Y-42658334D01*
X44420526Y-42776122D01*
X44387710Y-42896559D01*
X44376789Y-43018117D01*
X44378132Y-43059585D01*
X44396388Y-43177080D01*
X44435383Y-43287089D01*
X44494330Y-43388430D01*
X44572443Y-43479921D01*
X44668936Y-43560380D01*
X44783022Y-43628627D01*
X44817276Y-43644908D01*
X44940760Y-43690982D01*
X45079082Y-43726106D01*
X45228439Y-43750197D01*
X45385027Y-43763173D01*
X45545044Y-43764949D01*
X45704686Y-43755443D01*
X45860150Y-43734572D01*
X46007634Y-43702252D01*
X46143333Y-43658399D01*
X46229924Y-43620982D01*
X46343312Y-43556185D01*
X46436930Y-43480772D01*
X46511041Y-43394418D01*
X46565906Y-43296795D01*
X46601788Y-43187577D01*
X46618949Y-43066439D01*
X46620120Y-42997038D01*
X46605859Y-42874168D01*
X46570759Y-42758664D01*
X46515318Y-42651953D01*
X46440036Y-42555464D01*
X46425560Y-42539720D01*
X46399038Y-42509150D01*
X46381862Y-42486809D01*
X46377213Y-42476691D01*
X46379403Y-42474706D01*
X46398279Y-42460241D01*
X46431603Y-42436400D01*
X46476620Y-42405029D01*
X46530575Y-42367974D01*
X46590715Y-42327083D01*
X46654282Y-42284202D01*
X46718524Y-42241178D01*
X46780685Y-42199857D01*
X46838009Y-42162086D01*
X46887743Y-42129712D01*
X46927132Y-42104582D01*
X46953420Y-42088542D01*
X46963853Y-42083439D01*
X46968059Y-42088050D01*
X46973067Y-42107267D01*
X46975614Y-42116838D01*
X46986751Y-42144809D01*
X47005198Y-42186448D01*
X47029275Y-42237995D01*
X47057301Y-42295690D01*
X47062846Y-42306957D01*
X47142111Y-42484687D01*
X47201615Y-42654490D01*
X47241755Y-42818430D01*
X47262929Y-42978571D01*
X47265534Y-43136977D01*
X47249967Y-43295711D01*
X47232477Y-43391268D01*
X47187436Y-43555558D01*
X47124344Y-43709589D01*
X47042085Y-43855509D01*
X46939543Y-43995466D01*
X46815601Y-44131608D01*
X46770339Y-44175473D01*
X46638135Y-44287758D01*
X46500168Y-44380972D01*
X46352250Y-44457719D01*
X46190197Y-44520603D01*
X46178609Y-44524420D01*
X45992608Y-44574507D01*
X45796479Y-44607899D01*
X45594432Y-44624584D01*
X45390675Y-44624551D01*
X45189419Y-44607791D01*
X44994872Y-44574292D01*
X44811244Y-44524044D01*
X44693947Y-44480190D01*
X44531049Y-44402348D01*
X44377134Y-44308828D01*
X44235329Y-44201822D01*
X44108761Y-44083519D01*
X44000559Y-43956111D01*
X43947880Y-43878606D01*
X43878250Y-43751725D01*
X43819532Y-43614243D01*
X43774413Y-43472716D01*
X43745578Y-43333702D01*
X43743894Y-43319597D01*
X43740566Y-43276153D01*
X43737725Y-43218723D01*
X43735627Y-43153122D01*
X43734532Y-43085167D01*
X43736860Y-42958378D01*
X43749864Y-42810673D01*
X43774867Y-42672779D01*
X43812682Y-42539014D01*
X43821111Y-42515562D01*
X43840592Y-42467612D01*
X43865527Y-42411140D01*
X43894278Y-42349379D01*
X43925210Y-42285563D01*
X43956685Y-42222926D01*
X43987066Y-42164703D01*
X44014717Y-42114127D01*
X44038001Y-42074433D01*
X44055282Y-42048854D01*
X44064921Y-42040625D01*
X44068016Y-42042076D01*
%LPC*%
D13*
X42170000Y-76925000D03*
D14*
X42170000Y-74385000D03*
X42170000Y-71845000D03*
X42170000Y-69305000D03*
D15*
X71831200Y-90017600D03*
D16*
X71831200Y-87477600D03*
X71831200Y-84937600D03*
X71831200Y-82397600D03*
D17*
X59656000Y-89274300D03*
X54656000Y-89274300D03*
D18*
X60656000Y-91974300D03*
X53656000Y-91974300D03*
D13*
X71948000Y-69478500D03*
D14*
X71948000Y-72018500D03*
X71948000Y-74558500D03*
X71948000Y-77098500D03*
D13*
X42170000Y-63844000D03*
D14*
X42170000Y-61304000D03*
X42170000Y-58764000D03*
X42170000Y-56224000D03*
D19*
X65198000Y-89935000D03*
X49114000Y-89935000D03*
D13*
X71948000Y-56334000D03*
D14*
X71948000Y-58874000D03*
X71948000Y-61414000D03*
X71948000Y-63954000D03*
D13*
X50806000Y-84672000D03*
D14*
X48266000Y-84672000D03*
D19*
X49114000Y-56935100D03*
D13*
X42170000Y-90006000D03*
D14*
X42170000Y-87466000D03*
X42170000Y-84926000D03*
X42170000Y-82386000D03*
D19*
X65198000Y-56935100D03*
D20*
X67056000Y-69079000D03*
X67056000Y-71119000D03*
M02*
