G04 #@! TF.GenerationSoftware,KiCad,Pcbnew,(6.0.10)*
G04 #@! TF.CreationDate,2023-05-29T16:45:33+02:00*
G04 #@! TF.ProjectId,BlinkStickAdvanced,426c696e-6b53-4746-9963-6b416476616e,1.0*
G04 #@! TF.SameCoordinates,Original*
G04 #@! TF.FileFunction,Paste,Top*
G04 #@! TF.FilePolarity,Positive*
%FSLAX46Y46*%
G04 Gerber Fmt 4.6, Leading zero omitted, Abs format (unit mm)*
G04 Created by KiCad (PCBNEW (6.0.10)) date 2023-05-29 16:45:33*
%MOMM*%
%LPD*%
G01*
G04 APERTURE LIST*
G04 Aperture macros list*
%AMRoundRect*
0 Rectangle with rounded corners*
0 $1 Rounding radius*
0 $2 $3 $4 $5 $6 $7 $8 $9 X,Y pos of 4 corners*
0 Add a 4 corners polygon primitive as box body*
4,1,4,$2,$3,$4,$5,$6,$7,$8,$9,$2,$3,0*
0 Add four circle primitives for the rounded corners*
1,1,$1+$1,$2,$3*
1,1,$1+$1,$4,$5*
1,1,$1+$1,$6,$7*
1,1,$1+$1,$8,$9*
0 Add four rect primitives between the rounded corners*
20,1,$1+$1,$2,$3,$4,$5,0*
20,1,$1+$1,$4,$5,$6,$7,0*
20,1,$1+$1,$6,$7,$8,$9,0*
20,1,$1+$1,$8,$9,$2,$3,0*%
G04 Aperture macros list end*
%ADD10R,0.450000X0.600000*%
%ADD11R,0.400000X1.350000*%
%ADD12R,1.500000X1.900000*%
%ADD13RoundRect,0.237500X-0.250000X-0.237500X0.250000X-0.237500X0.250000X0.237500X-0.250000X0.237500X0*%
%ADD14RoundRect,0.237500X-0.237500X0.300000X-0.237500X-0.300000X0.237500X-0.300000X0.237500X0.300000X0*%
%ADD15RoundRect,0.237500X0.250000X0.237500X-0.250000X0.237500X-0.250000X-0.237500X0.250000X-0.237500X0*%
%ADD16R,5.250000X4.550000*%
%ADD17R,1.100000X4.600000*%
%ADD18RoundRect,0.237500X0.237500X-0.250000X0.237500X0.250000X-0.237500X0.250000X-0.237500X-0.250000X0*%
%ADD19RoundRect,0.237500X-0.237500X0.250000X-0.237500X-0.250000X0.237500X-0.250000X0.237500X0.250000X0*%
%ADD20R,0.400000X1.900000*%
%ADD21R,0.550000X1.600000*%
%ADD22R,1.600000X0.550000*%
%ADD23RoundRect,0.237500X0.237500X-0.300000X0.237500X0.300000X-0.237500X0.300000X-0.237500X-0.300000X0*%
%ADD24RoundRect,0.237500X0.300000X0.237500X-0.300000X0.237500X-0.300000X-0.237500X0.300000X-0.237500X0*%
%ADD25R,0.600000X0.450000*%
G04 APERTURE END LIST*
D10*
X60833000Y-85722000D03*
X60833000Y-83622000D03*
D11*
X55856000Y-89274300D03*
X56506000Y-89274300D03*
X57156000Y-89274300D03*
X57806000Y-89274300D03*
X58456000Y-89274300D03*
D12*
X56156000Y-91974300D03*
X58156000Y-91974300D03*
D13*
X59314000Y-65876000D03*
X61139000Y-65876000D03*
D14*
X67310000Y-78004500D03*
X67310000Y-79729500D03*
D15*
X53362500Y-60706000D03*
X51537500Y-60706000D03*
D16*
X66595500Y-50539190D03*
X72145500Y-45689190D03*
X72145500Y-50539190D03*
X66595500Y-45689190D03*
D17*
X71910500Y-38964190D03*
X66830500Y-38964190D03*
D13*
X59291500Y-64225000D03*
X61116500Y-64225000D03*
D18*
X56769000Y-85584500D03*
X56769000Y-83759500D03*
D19*
X58801000Y-83759500D03*
X58801000Y-85584500D03*
D20*
X54286000Y-65182000D03*
X53086000Y-65182000D03*
X51886000Y-65182000D03*
D15*
X65301500Y-83656000D03*
X63476500Y-83656000D03*
D16*
X59953500Y-50539190D03*
X59953500Y-45689190D03*
X54403500Y-50539190D03*
X54403500Y-45689190D03*
D17*
X59718500Y-38964190D03*
X54638500Y-38964190D03*
D13*
X55094500Y-60706000D03*
X56919500Y-60706000D03*
D21*
X58178000Y-68230000D03*
X57378000Y-68230000D03*
X56578000Y-68230000D03*
X55778000Y-68230000D03*
X54978000Y-68230000D03*
X54178000Y-68230000D03*
X53378000Y-68230000D03*
X52578000Y-68230000D03*
D22*
X51128000Y-69680000D03*
X51128000Y-70480000D03*
X51128000Y-71280000D03*
X51128000Y-72080000D03*
X51128000Y-72880000D03*
X51128000Y-73680000D03*
X51128000Y-74480000D03*
X51128000Y-75280000D03*
D21*
X52578000Y-76730000D03*
X53378000Y-76730000D03*
X54178000Y-76730000D03*
X54978000Y-76730000D03*
X55778000Y-76730000D03*
X56578000Y-76730000D03*
X57378000Y-76730000D03*
X58178000Y-76730000D03*
D22*
X59628000Y-75280000D03*
X59628000Y-74480000D03*
X59628000Y-73680000D03*
X59628000Y-72880000D03*
X59628000Y-72080000D03*
X59628000Y-71280000D03*
X59628000Y-70480000D03*
X59628000Y-69680000D03*
D13*
X55094500Y-62357000D03*
X56919500Y-62357000D03*
D23*
X54991000Y-85534500D03*
X54991000Y-83809500D03*
D15*
X53363500Y-62357000D03*
X51538500Y-62357000D03*
D24*
X54964500Y-78740000D03*
X53239500Y-78740000D03*
D16*
X42211500Y-50539190D03*
X47761500Y-45689190D03*
X42211500Y-45689190D03*
X47761500Y-50539190D03*
D17*
X47526500Y-38964190D03*
X42446500Y-38964190D03*
D25*
X63339000Y-85688000D03*
X65439000Y-85688000D03*
M02*
