M48
; DRILL file {KiCad (6.0.10)} date Mon May 29 16:45:48 2023
; FORMAT={-:-/ absolute / metric / decimal}
; #@! TF.CreationDate,2023-05-29T16:45:48+02:00
; #@! TF.GenerationSoftware,Kicad,Pcbnew,(6.0.10)
; #@! TF.FileFunction,Plated,1,2,PTH
FMAT,2
METRIC
; #@! TA.AperFunction,Plated,PTH,ViaDrill
T1C0.300
; #@! TA.AperFunction,Plated,PTH,ViaDrill
T2C0.400
; #@! TA.AperFunction,Plated,PTH,ComponentDrill
T3C0.600
; #@! TA.AperFunction,Plated,PTH,ComponentDrill
T4C0.800
; #@! TA.AperFunction,Plated,PTH,ComponentDrill
T5C0.850
; #@! TA.AperFunction,Plated,PTH,ComponentDrill
T6C1.000
; #@! TA.AperFunction,Plated,PTH,ComponentDrill
T7C1.100
; #@! TA.AperFunction,Plated,PTH,ComponentDrill
T8C2.700
%
G90
G05
T1
X50.419Y-63.627
X51.943Y-59.309
X52.07Y-78.74
X52.965Y-72.353
X52.965Y-73.369
X52.965Y-74.385
X53.086Y-64.389
X53.086Y-65.182
X53.086Y-65.913
X53.467Y-85.852
X53.594Y-58.039
X54.483Y-82.169
X55.499Y-57.785
X55.88Y-64.008
X57.277Y-65.913
X57.404Y-69.977
X58.801Y-82.296
X59.817Y-62.865
X59.95Y-68.543
X60.96Y-82.296
X62.738Y-92.583
X64.897Y-82.296
X67.005Y-83.718
X67.056Y-86.106
T2
X40.138Y-37.428
X40.138Y-38.444
X40.138Y-39.46
X40.138Y-40.476
X41.154Y-37.428
X41.154Y-38.444
X41.154Y-39.46
X41.154Y-40.476
X43.18Y-79.756
X44.831Y-92.075
X44.913Y-54.243
X46.863Y-60.579
X47.504Y-40.857
X47.752Y-72.898
X47.976Y-64.229
X48.133Y-75.692
X48.133Y-80.518
X48.876Y-67.248
X52.333Y-37.428
X52.333Y-38.444
X52.333Y-39.46
X52.333Y-40.476
X53.349Y-37.428
X53.349Y-38.444
X53.349Y-39.46
X53.349Y-40.476
X56.896Y-73.152
X59.696Y-40.857
X61.087Y-78.232
X62.947Y-54.497
X63.252Y-42.508
X63.754Y-68.834
X64.525Y-37.428
X64.525Y-38.444
X64.525Y-39.46
X64.525Y-40.476
X65.541Y-37.428
X65.541Y-38.444
X65.541Y-39.46
X65.541Y-40.476
X66.294Y-73.914
X67.818Y-92.329
X68.072Y-59.436
X68.326Y-76.454
X71.628Y-79.756
X73.869Y-41.086
X74.174Y-53.938
T4
X67.056Y-69.079
X67.056Y-71.119
T5
X54.656Y-89.274
X59.656Y-89.274
T6
X42.17Y-56.224
X42.17Y-58.764
X42.17Y-61.304
X42.17Y-63.844
X42.17Y-69.305
X42.17Y-71.845
X42.17Y-74.385
X42.17Y-76.925
X42.17Y-82.386
X42.17Y-84.926
X42.17Y-87.466
X42.17Y-90.006
X48.266Y-84.672
X50.806Y-84.672
X71.948Y-56.334
X71.948Y-58.874
X71.948Y-61.414
X71.948Y-63.954
X71.948Y-69.478
X71.948Y-72.019
X71.948Y-74.558
X71.948Y-77.099
T7
X71.831Y-82.398
X71.831Y-84.938
X71.831Y-87.478
X71.831Y-90.018
T8
X49.114Y-56.935
X49.114Y-89.935
X65.198Y-56.935
X65.198Y-89.935
T3
X53.656Y-92.324G85X53.656Y-91.624
G05
X60.656Y-91.624G85X60.656Y-92.324
G05
T0
M30
