G04 #@! TF.GenerationSoftware,KiCad,Pcbnew,(6.0.10)*
G04 #@! TF.CreationDate,2023-05-29T16:45:33+02:00*
G04 #@! TF.ProjectId,BlinkStickAdvanced,426c696e-6b53-4746-9963-6b416476616e,1.0*
G04 #@! TF.SameCoordinates,Original*
G04 #@! TF.FileFunction,Copper,L2,Bot*
G04 #@! TF.FilePolarity,Positive*
%FSLAX46Y46*%
G04 Gerber Fmt 4.6, Leading zero omitted, Abs format (unit mm)*
G04 Created by KiCad (PCBNEW (6.0.10)) date 2023-05-29 16:45:33*
%MOMM*%
%LPD*%
G01*
G04 APERTURE LIST*
G04 #@! TA.AperFunction,ComponentPad*
%ADD10R,1.700000X1.700000*%
G04 #@! TD*
G04 #@! TA.AperFunction,ComponentPad*
%ADD11O,1.700000X1.700000*%
G04 #@! TD*
G04 #@! TA.AperFunction,ComponentPad*
%ADD12R,2.200000X2.200000*%
G04 #@! TD*
G04 #@! TA.AperFunction,ComponentPad*
%ADD13C,2.200000*%
G04 #@! TD*
G04 #@! TA.AperFunction,ComponentPad*
%ADD14C,1.450000*%
G04 #@! TD*
G04 #@! TA.AperFunction,ComponentPad*
%ADD15O,1.200000X1.900000*%
G04 #@! TD*
G04 #@! TA.AperFunction,ComponentPad*
%ADD16C,4.700000*%
G04 #@! TD*
G04 #@! TA.AperFunction,ComponentPad*
%ADD17C,1.400000*%
G04 #@! TD*
G04 #@! TA.AperFunction,ViaPad*
%ADD18C,0.600000*%
G04 #@! TD*
G04 #@! TA.AperFunction,ViaPad*
%ADD19C,0.800000*%
G04 #@! TD*
G04 #@! TA.AperFunction,Conductor*
%ADD20C,0.250000*%
G04 #@! TD*
G04 #@! TA.AperFunction,Conductor*
%ADD21C,1.500000*%
G04 #@! TD*
G04 APERTURE END LIST*
D10*
X42170000Y-76925000D03*
D11*
X42170000Y-74385000D03*
X42170000Y-71845000D03*
X42170000Y-69305000D03*
D12*
X71831200Y-90017600D03*
D13*
X71831200Y-87477600D03*
X71831200Y-84937600D03*
X71831200Y-82397600D03*
D14*
X59656000Y-89274300D03*
X54656000Y-89274300D03*
D15*
X60656000Y-91974300D03*
X53656000Y-91974300D03*
D10*
X71948000Y-69478500D03*
D11*
X71948000Y-72018500D03*
X71948000Y-74558500D03*
X71948000Y-77098500D03*
D10*
X42170000Y-63844000D03*
D11*
X42170000Y-61304000D03*
X42170000Y-58764000D03*
X42170000Y-56224000D03*
D16*
X65198000Y-89935000D03*
X49114000Y-89935000D03*
D10*
X71948000Y-56334000D03*
D11*
X71948000Y-58874000D03*
X71948000Y-61414000D03*
X71948000Y-63954000D03*
D10*
X50806000Y-84672000D03*
D11*
X48266000Y-84672000D03*
D16*
X49114000Y-56935100D03*
D10*
X42170000Y-90006000D03*
D11*
X42170000Y-87466000D03*
X42170000Y-84926000D03*
X42170000Y-82386000D03*
D16*
X65198000Y-56935100D03*
D17*
X67056000Y-69079000D03*
X67056000Y-71119000D03*
D18*
X52070000Y-78740000D03*
X60960000Y-82296000D03*
D19*
X40138000Y-38444000D03*
X53348900Y-37428000D03*
X40138000Y-39460000D03*
X53348900Y-40476000D03*
X68326000Y-76454000D03*
X74174000Y-53938000D03*
X64524900Y-40476000D03*
X53348900Y-38444000D03*
D18*
X67056000Y-86106000D03*
D19*
X52332900Y-38444000D03*
X41154000Y-39460000D03*
X48133000Y-80518000D03*
X64524900Y-39460000D03*
X43180000Y-79756000D03*
X65540900Y-37428000D03*
X40138000Y-40476000D03*
X46863000Y-60579000D03*
X62947200Y-54496800D03*
D18*
X62738000Y-92583000D03*
D19*
X67818000Y-92329000D03*
D18*
X53086000Y-65182000D03*
D19*
X65540900Y-39460000D03*
X41154000Y-40476000D03*
X64524900Y-37428000D03*
D18*
X67005200Y-83718400D03*
D19*
X65540900Y-38444000D03*
X53348900Y-39460000D03*
X56896000Y-73152000D03*
D18*
X53086000Y-64389000D03*
D19*
X40138000Y-37428000D03*
D18*
X53086000Y-65913000D03*
D19*
X73869200Y-41085600D03*
X44913200Y-54242800D03*
X47976383Y-64228887D03*
X41154000Y-38444000D03*
X63754000Y-68834000D03*
X48133000Y-75692000D03*
X66294000Y-73914000D03*
D18*
X54483000Y-82169000D03*
D19*
X52332900Y-39460000D03*
D18*
X53467000Y-85852000D03*
D19*
X47752000Y-72898000D03*
X48875600Y-67247600D03*
X65540900Y-40476000D03*
D18*
X53594000Y-58039000D03*
D19*
X64524900Y-38444000D03*
X52332900Y-37428000D03*
X52332900Y-40476000D03*
X71628000Y-79756000D03*
X41154000Y-37428000D03*
X44831000Y-92075000D03*
X61087000Y-78232000D03*
X68072000Y-59436000D03*
D18*
X52965000Y-72353000D03*
X50419000Y-63627000D03*
X55880000Y-64008000D03*
X52965000Y-73369000D03*
X57277000Y-65913000D03*
X52965000Y-74385000D03*
X51943000Y-59309000D03*
D19*
X47504000Y-40857000D03*
X59696000Y-40857000D03*
D18*
X55499000Y-57785000D03*
X59817000Y-62865000D03*
D19*
X63252000Y-42508000D03*
D18*
X64897000Y-82296000D03*
X59950000Y-68543000D03*
X57404000Y-69977000D03*
X58801000Y-82296000D03*
D20*
X50806000Y-79877000D02*
X50806000Y-84672000D01*
X51943000Y-78740000D02*
X50806000Y-79877000D01*
X52070000Y-78740000D02*
X51943000Y-78740000D01*
X52965000Y-69983000D02*
X52965000Y-72353000D01*
X50419000Y-67437000D02*
X52965000Y-69983000D01*
X50419000Y-63627000D02*
X50419000Y-67437000D01*
X55880000Y-67181604D02*
X53594000Y-69467604D01*
X55880000Y-64008000D02*
X55880000Y-67181604D01*
X53594000Y-69467604D02*
X53594000Y-72740000D01*
X53594000Y-72740000D02*
X52965000Y-73369000D01*
X54102000Y-69596000D02*
X54102000Y-73248000D01*
X57277000Y-65913000D02*
X57277000Y-66421000D01*
X54102000Y-73248000D02*
X52965000Y-74385000D01*
X57277000Y-66421000D02*
X54102000Y-69596000D01*
D21*
X74174000Y-59897919D02*
X74174000Y-70726989D01*
X72882489Y-72018500D02*
X71948000Y-72018500D01*
X74174000Y-70726989D02*
X72882489Y-72018500D01*
X71948000Y-58874000D02*
X73150081Y-58874000D01*
X73150081Y-58874000D02*
X74174000Y-59897919D01*
X70508000Y-61414000D02*
X69602000Y-62320000D01*
X71948000Y-61414000D02*
X70508000Y-61414000D01*
X70664500Y-74558500D02*
X71948000Y-74558500D01*
X69602000Y-73496000D02*
X70664500Y-74558500D01*
X69602000Y-62320000D02*
X69602000Y-73496000D01*
D20*
X52203000Y-59049000D02*
X52203000Y-45556000D01*
X51943000Y-59309000D02*
X52203000Y-59049000D01*
X52203000Y-45556000D02*
X47504000Y-40857000D01*
X56775000Y-56509000D02*
X56775000Y-43778000D01*
X56775000Y-43778000D02*
X59696000Y-40857000D01*
X55499000Y-57785000D02*
X56775000Y-56509000D01*
X59817000Y-62865000D02*
X61093000Y-61589000D01*
X61093000Y-61589000D02*
X61093000Y-44667000D01*
X61093000Y-44667000D02*
X63252000Y-42508000D01*
D21*
X40138000Y-75528000D02*
X40138000Y-64860000D01*
X40138000Y-88357447D02*
X40138000Y-78576000D01*
X41535000Y-76925000D02*
X40138000Y-75528000D01*
X41789000Y-76925000D02*
X42170000Y-76925000D01*
X42170000Y-76925000D02*
X41535000Y-76925000D01*
X40138000Y-78576000D02*
X41789000Y-76925000D01*
X40138000Y-64860000D02*
X41154000Y-63844000D01*
X41154000Y-63844000D02*
X42170000Y-63844000D01*
X42170000Y-90006000D02*
X41786553Y-90006000D01*
X41786553Y-90006000D02*
X40138000Y-88357447D01*
X40138000Y-78576000D02*
X40138000Y-75528000D01*
D20*
X59950000Y-68543000D02*
X63506000Y-72099000D01*
X63506000Y-72099000D02*
X63506000Y-80905000D01*
X63506000Y-80905000D02*
X64897000Y-82296000D01*
X57918000Y-70491000D02*
X57918000Y-81413000D01*
X57404000Y-69977000D02*
X57918000Y-70491000D01*
X57918000Y-81413000D02*
X58801000Y-82296000D01*
G04 #@! TA.AperFunction,Conductor*
G36*
X61728000Y-93185224D02*
G01*
X61418205Y-93185153D01*
X61304741Y-93185127D01*
X61236625Y-93165109D01*
X61190144Y-93111443D01*
X61180057Y-93041167D01*
X61209565Y-92976593D01*
X61223442Y-92962889D01*
X61272876Y-92921114D01*
X61282238Y-92911283D01*
X61386645Y-92774725D01*
X61393671Y-92763122D01*
X61466326Y-92607315D01*
X61470693Y-92594488D01*
X61508554Y-92425101D01*
X61509927Y-92415208D01*
X61510000Y-92412592D01*
X61510000Y-92246415D01*
X61505525Y-92231176D01*
X61504135Y-92229971D01*
X61496452Y-92228300D01*
X59820115Y-92228300D01*
X59804876Y-92232775D01*
X59803671Y-92234165D01*
X59802000Y-92241848D01*
X59802000Y-92367241D01*
X59802369Y-92374055D01*
X59816266Y-92501980D01*
X59819180Y-92515232D01*
X59874009Y-92678154D01*
X59879702Y-92690476D01*
X59968236Y-92837820D01*
X59976444Y-92848634D01*
X60093347Y-92972255D01*
X60125619Y-93035493D01*
X60118579Y-93106140D01*
X60074462Y-93161765D01*
X60001770Y-93184828D01*
X59893248Y-93184803D01*
X54306643Y-93183520D01*
X54238527Y-93163502D01*
X54192046Y-93109836D01*
X54181959Y-93039560D01*
X54211467Y-92974986D01*
X54225344Y-92961282D01*
X54272876Y-92921115D01*
X54282238Y-92911283D01*
X54386645Y-92774725D01*
X54393671Y-92763122D01*
X54466326Y-92607315D01*
X54470693Y-92594488D01*
X54508554Y-92425101D01*
X54509927Y-92415208D01*
X54510000Y-92412592D01*
X54510000Y-92246415D01*
X54505525Y-92231176D01*
X54504135Y-92229971D01*
X54496452Y-92228300D01*
X52820115Y-92228300D01*
X52804876Y-92232775D01*
X52803671Y-92234165D01*
X52802000Y-92241848D01*
X52802000Y-92367241D01*
X52802369Y-92374055D01*
X52816266Y-92501980D01*
X52819180Y-92515232D01*
X52874009Y-92678154D01*
X52879702Y-92690476D01*
X52968236Y-92837820D01*
X52976440Y-92848628D01*
X53091827Y-92970647D01*
X53124098Y-93033885D01*
X53117058Y-93104532D01*
X53072941Y-93160157D01*
X53000249Y-93183220D01*
X52584000Y-93183124D01*
X52584000Y-91702185D01*
X52802000Y-91702185D01*
X52806475Y-91717424D01*
X52807865Y-91718629D01*
X52815548Y-91720300D01*
X53383885Y-91720300D01*
X53399124Y-91715825D01*
X53400329Y-91714435D01*
X53402000Y-91706752D01*
X53402000Y-91702185D01*
X53910000Y-91702185D01*
X53914475Y-91717424D01*
X53915865Y-91718629D01*
X53923548Y-91720300D01*
X54491885Y-91720300D01*
X54507124Y-91715825D01*
X54508329Y-91714435D01*
X54510000Y-91706752D01*
X54510000Y-91702185D01*
X59802000Y-91702185D01*
X59806475Y-91717424D01*
X59807865Y-91718629D01*
X59815548Y-91720300D01*
X60383885Y-91720300D01*
X60399124Y-91715825D01*
X60400329Y-91714435D01*
X60402000Y-91706752D01*
X60402000Y-91702185D01*
X60910000Y-91702185D01*
X60914475Y-91717424D01*
X60915865Y-91718629D01*
X60923548Y-91720300D01*
X61491885Y-91720300D01*
X61507124Y-91715825D01*
X61508329Y-91714435D01*
X61510000Y-91706752D01*
X61510000Y-91581359D01*
X61509631Y-91574545D01*
X61495734Y-91446620D01*
X61492820Y-91433368D01*
X61437991Y-91270446D01*
X61432298Y-91258124D01*
X61343764Y-91110780D01*
X61335556Y-91099966D01*
X61217447Y-90975069D01*
X61207116Y-90966277D01*
X61064936Y-90869651D01*
X61052956Y-90863281D01*
X60926821Y-90812831D01*
X60912782Y-90811495D01*
X60910000Y-90816316D01*
X60910000Y-91702185D01*
X60402000Y-91702185D01*
X60402000Y-90826562D01*
X60398027Y-90813031D01*
X60389702Y-90811834D01*
X60346350Y-90823776D01*
X60333726Y-90828775D01*
X60181671Y-90908944D01*
X60170421Y-90916531D01*
X60039124Y-91027486D01*
X60029762Y-91037317D01*
X59925355Y-91173875D01*
X59918329Y-91185478D01*
X59845674Y-91341285D01*
X59841307Y-91354112D01*
X59803446Y-91523499D01*
X59802073Y-91533392D01*
X59802000Y-91536008D01*
X59802000Y-91702185D01*
X54510000Y-91702185D01*
X54510000Y-91581359D01*
X54509631Y-91574545D01*
X54495734Y-91446620D01*
X54492820Y-91433368D01*
X54437991Y-91270446D01*
X54432298Y-91258124D01*
X54343764Y-91110780D01*
X54335556Y-91099966D01*
X54217447Y-90975069D01*
X54207116Y-90966277D01*
X54064936Y-90869651D01*
X54052956Y-90863281D01*
X53926821Y-90812831D01*
X53912782Y-90811495D01*
X53910000Y-90816316D01*
X53910000Y-91702185D01*
X53402000Y-91702185D01*
X53402000Y-90826562D01*
X53398027Y-90813031D01*
X53389702Y-90811834D01*
X53346350Y-90823776D01*
X53333726Y-90828775D01*
X53181671Y-90908944D01*
X53170421Y-90916531D01*
X53039124Y-91027486D01*
X53029762Y-91037317D01*
X52925355Y-91173875D01*
X52918329Y-91185478D01*
X52845674Y-91341285D01*
X52841307Y-91354112D01*
X52803446Y-91523499D01*
X52802073Y-91533392D01*
X52802000Y-91536008D01*
X52802000Y-91702185D01*
X52584000Y-91702185D01*
X52584000Y-90122120D01*
X54173010Y-90122120D01*
X54177919Y-90128678D01*
X54256784Y-90172754D01*
X54268023Y-90177664D01*
X54438898Y-90233185D01*
X54450872Y-90235818D01*
X54629286Y-90257092D01*
X54641535Y-90257349D01*
X54820682Y-90243565D01*
X54832760Y-90241435D01*
X55005799Y-90193121D01*
X55017250Y-90188679D01*
X55129919Y-90131767D01*
X55140205Y-90122120D01*
X59173010Y-90122120D01*
X59177919Y-90128678D01*
X59256784Y-90172754D01*
X59268023Y-90177664D01*
X59438898Y-90233185D01*
X59450872Y-90235818D01*
X59629286Y-90257092D01*
X59641535Y-90257349D01*
X59820682Y-90243565D01*
X59832760Y-90241435D01*
X60005799Y-90193121D01*
X60017250Y-90188679D01*
X60129919Y-90131767D01*
X60140205Y-90122120D01*
X60137967Y-90115477D01*
X59668812Y-89646322D01*
X59654868Y-89638708D01*
X59653035Y-89638839D01*
X59646420Y-89643090D01*
X59179770Y-90109740D01*
X59173010Y-90122120D01*
X55140205Y-90122120D01*
X55137967Y-90115477D01*
X54668812Y-89646322D01*
X54654868Y-89638708D01*
X54653035Y-89638839D01*
X54646420Y-89643090D01*
X54179770Y-90109740D01*
X54173010Y-90122120D01*
X52584000Y-90122120D01*
X52584000Y-89266709D01*
X53672875Y-89266709D01*
X53687908Y-89445742D01*
X53690123Y-89457807D01*
X53739644Y-89630511D01*
X53744163Y-89641923D01*
X53798685Y-89748011D01*
X53808404Y-89758230D01*
X53815204Y-89755886D01*
X54283978Y-89287112D01*
X54290356Y-89275432D01*
X55020408Y-89275432D01*
X55020539Y-89277265D01*
X55024790Y-89283880D01*
X55491391Y-89750481D01*
X55503771Y-89757241D01*
X55510504Y-89752200D01*
X55551645Y-89679779D01*
X55556634Y-89668573D01*
X55613346Y-89498092D01*
X55616063Y-89486135D01*
X55638913Y-89305250D01*
X55639402Y-89298257D01*
X55639688Y-89277822D01*
X55639393Y-89270794D01*
X55638992Y-89266709D01*
X58672875Y-89266709D01*
X58687908Y-89445742D01*
X58690123Y-89457807D01*
X58739644Y-89630511D01*
X58744163Y-89641923D01*
X58798685Y-89748011D01*
X58808404Y-89758230D01*
X58815204Y-89755886D01*
X59283978Y-89287112D01*
X59290356Y-89275432D01*
X60020408Y-89275432D01*
X60020539Y-89277265D01*
X60024790Y-89283880D01*
X60491391Y-89750481D01*
X60503771Y-89757241D01*
X60510504Y-89752200D01*
X60551645Y-89679779D01*
X60556634Y-89668573D01*
X60613346Y-89498092D01*
X60616063Y-89486135D01*
X60638913Y-89305250D01*
X60639402Y-89298257D01*
X60639688Y-89277822D01*
X60639393Y-89270794D01*
X60621603Y-89089357D01*
X60619220Y-89077322D01*
X60567291Y-88905327D01*
X60562617Y-88893986D01*
X60513118Y-88800892D01*
X60503258Y-88790811D01*
X60496130Y-88793380D01*
X60028022Y-89261488D01*
X60020408Y-89275432D01*
X59290356Y-89275432D01*
X59291592Y-89273168D01*
X59291461Y-89271335D01*
X59287210Y-89264720D01*
X58820475Y-88797985D01*
X58808095Y-88791225D01*
X58801707Y-88796007D01*
X58754784Y-88881360D01*
X58749948Y-88892643D01*
X58695622Y-89063901D01*
X58693074Y-89075889D01*
X58673046Y-89254440D01*
X58672875Y-89266709D01*
X55638992Y-89266709D01*
X55621603Y-89089357D01*
X55619220Y-89077322D01*
X55567291Y-88905327D01*
X55562617Y-88893986D01*
X55513118Y-88800892D01*
X55503258Y-88790811D01*
X55496130Y-88793380D01*
X55028022Y-89261488D01*
X55020408Y-89275432D01*
X54290356Y-89275432D01*
X54291592Y-89273168D01*
X54291461Y-89271335D01*
X54287210Y-89264720D01*
X53820475Y-88797985D01*
X53808095Y-88791225D01*
X53801707Y-88796007D01*
X53754784Y-88881360D01*
X53749948Y-88892643D01*
X53695622Y-89063901D01*
X53693074Y-89075889D01*
X53673046Y-89254440D01*
X53672875Y-89266709D01*
X52584000Y-89266709D01*
X52584000Y-88426891D01*
X54172310Y-88426891D01*
X54174764Y-88433854D01*
X54643188Y-88902278D01*
X54657132Y-88909892D01*
X54658965Y-88909761D01*
X54665580Y-88905510D01*
X55132435Y-88438655D01*
X55138859Y-88426891D01*
X59172310Y-88426891D01*
X59174764Y-88433854D01*
X59643188Y-88902278D01*
X59657132Y-88909892D01*
X59658965Y-88909761D01*
X59665580Y-88905510D01*
X60132435Y-88438655D01*
X60139195Y-88426275D01*
X60134536Y-88420052D01*
X60042631Y-88370359D01*
X60031326Y-88365607D01*
X59859695Y-88312478D01*
X59847682Y-88310012D01*
X59668996Y-88291231D01*
X59656728Y-88291146D01*
X59477805Y-88307429D01*
X59465756Y-88309727D01*
X59293399Y-88360455D01*
X59282024Y-88365050D01*
X59182459Y-88417102D01*
X59172310Y-88426891D01*
X55138859Y-88426891D01*
X55139195Y-88426275D01*
X55134536Y-88420052D01*
X55042631Y-88370359D01*
X55031326Y-88365607D01*
X54859695Y-88312478D01*
X54847682Y-88310012D01*
X54668996Y-88291231D01*
X54656728Y-88291146D01*
X54477805Y-88307429D01*
X54465756Y-88309727D01*
X54293399Y-88360455D01*
X54282024Y-88365050D01*
X54182459Y-88417102D01*
X54172310Y-88426891D01*
X52584000Y-88426891D01*
X52584000Y-87974000D01*
X61728000Y-87974000D01*
X61728000Y-93185224D01*
G37*
G04 #@! TD.AperFunction*
G04 #@! TA.AperFunction,Conductor*
G36*
X73145103Y-34400972D02*
G01*
X73158000Y-34403537D01*
X73170172Y-34401116D01*
X73182580Y-34401116D01*
X73182580Y-34401436D01*
X73193456Y-34400696D01*
X73205690Y-34401436D01*
X73425882Y-34414755D01*
X73440986Y-34416589D01*
X73697463Y-34463589D01*
X73712237Y-34467230D01*
X73961186Y-34544805D01*
X73975407Y-34550199D01*
X74213186Y-34657214D01*
X74226658Y-34664284D01*
X74449803Y-34799177D01*
X74462325Y-34807820D01*
X74667586Y-34968630D01*
X74678974Y-34978720D01*
X74863353Y-35163095D01*
X74873439Y-35174478D01*
X74889474Y-35194944D01*
X75034253Y-35379736D01*
X75042897Y-35392258D01*
X75177797Y-35615405D01*
X75184868Y-35628877D01*
X75291886Y-35866653D01*
X75297281Y-35880880D01*
X75374857Y-36129816D01*
X75378499Y-36144589D01*
X75425506Y-36401072D01*
X75427340Y-36416176D01*
X75441392Y-36648408D01*
X75440640Y-36659474D01*
X75440935Y-36659474D01*
X75440935Y-36671885D01*
X75438514Y-36684056D01*
X75440935Y-36696226D01*
X75440935Y-36696227D01*
X75441079Y-36696951D01*
X75443500Y-36721534D01*
X75443500Y-90864873D01*
X75441079Y-90889452D01*
X75438514Y-90902349D01*
X75440935Y-90914521D01*
X75440935Y-90926929D01*
X75440615Y-90926929D01*
X75441355Y-90937805D01*
X75427296Y-91170229D01*
X75425462Y-91185333D01*
X75378462Y-91441807D01*
X75374821Y-91456580D01*
X75297271Y-91705449D01*
X75297247Y-91705525D01*
X75291851Y-91719752D01*
X75184840Y-91957520D01*
X75177769Y-91970993D01*
X75042872Y-92194140D01*
X75034229Y-92206662D01*
X74873418Y-92411922D01*
X74863328Y-92423310D01*
X74678957Y-92607681D01*
X74667568Y-92617771D01*
X74462313Y-92778577D01*
X74449792Y-92787220D01*
X74306039Y-92874123D01*
X74227108Y-92921839D01*
X74226646Y-92922118D01*
X74213175Y-92929188D01*
X73975399Y-93036203D01*
X73961181Y-93041595D01*
X73741236Y-93110132D01*
X73712231Y-93119170D01*
X73697458Y-93122811D01*
X73440984Y-93169812D01*
X73425880Y-93171646D01*
X73314969Y-93178355D01*
X73193460Y-93185705D01*
X73182581Y-93184964D01*
X73182581Y-93185284D01*
X73170171Y-93185284D01*
X73158000Y-93182863D01*
X73145141Y-93185420D01*
X73120540Y-93187840D01*
X61728000Y-93185224D01*
X61728000Y-89907676D01*
X62588883Y-89907676D01*
X62604497Y-90221325D01*
X62605138Y-90225056D01*
X62605139Y-90225064D01*
X62657036Y-90527081D01*
X62657680Y-90530827D01*
X62658768Y-90534466D01*
X62658769Y-90534469D01*
X62725534Y-90757715D01*
X62747659Y-90831697D01*
X62749172Y-90835168D01*
X62749174Y-90835174D01*
X62806029Y-90965620D01*
X62873132Y-91119579D01*
X62875055Y-91122850D01*
X62875057Y-91122854D01*
X62930345Y-91216901D01*
X63032282Y-91390302D01*
X63034583Y-91393317D01*
X63135206Y-91525164D01*
X63222803Y-91639944D01*
X63225451Y-91642663D01*
X63225456Y-91642668D01*
X63293388Y-91712402D01*
X63441935Y-91864890D01*
X63444879Y-91867261D01*
X63444882Y-91867264D01*
X63683552Y-92059502D01*
X63683557Y-92059506D01*
X63686505Y-92061880D01*
X63952969Y-92228062D01*
X64237467Y-92361029D01*
X64241074Y-92362211D01*
X64241078Y-92362213D01*
X64405038Y-92415961D01*
X64535880Y-92458853D01*
X64539590Y-92459591D01*
X64539594Y-92459592D01*
X64689881Y-92489486D01*
X64843883Y-92520119D01*
X65000449Y-92532028D01*
X65153239Y-92543651D01*
X65153244Y-92543651D01*
X65157016Y-92543938D01*
X65470742Y-92529966D01*
X65474480Y-92529344D01*
X65474488Y-92529343D01*
X65625242Y-92504250D01*
X65780518Y-92478405D01*
X66081855Y-92390003D01*
X66370390Y-92266038D01*
X66641942Y-92108308D01*
X66892579Y-91919097D01*
X67118669Y-91701145D01*
X67316937Y-91457611D01*
X67326909Y-91441807D01*
X67482485Y-91195234D01*
X67482487Y-91195231D01*
X67484512Y-91192021D01*
X67491233Y-91177836D01*
X67591773Y-90965620D01*
X67618966Y-90908222D01*
X67620926Y-90902349D01*
X67686591Y-90705525D01*
X67718352Y-90610326D01*
X67781229Y-90302648D01*
X67806688Y-89989644D01*
X67807260Y-89935000D01*
X67805842Y-89911468D01*
X67788590Y-89625310D01*
X67788590Y-89625306D01*
X67788362Y-89621532D01*
X67731942Y-89312604D01*
X67638817Y-89012692D01*
X67631603Y-88996601D01*
X67584942Y-88892533D01*
X70476700Y-88892533D01*
X70476701Y-91142666D01*
X70483696Y-91177836D01*
X70487157Y-91195234D01*
X70491466Y-91216901D01*
X70547716Y-91301084D01*
X70631899Y-91357334D01*
X70706133Y-91372100D01*
X71831018Y-91372100D01*
X72956266Y-91372099D01*
X72992018Y-91364988D01*
X73018326Y-91359756D01*
X73018328Y-91359755D01*
X73030501Y-91357334D01*
X73040821Y-91350439D01*
X73040822Y-91350438D01*
X73104368Y-91307977D01*
X73114684Y-91301084D01*
X73170934Y-91216901D01*
X73185700Y-91142667D01*
X73185699Y-88892534D01*
X73170934Y-88818299D01*
X73150440Y-88787627D01*
X73121577Y-88744432D01*
X73114684Y-88734116D01*
X73030501Y-88677866D01*
X72956267Y-88663100D01*
X72696433Y-88663100D01*
X72628312Y-88643098D01*
X72585159Y-88596212D01*
X72578991Y-88584601D01*
X71844012Y-87849622D01*
X71830068Y-87842008D01*
X71828235Y-87842139D01*
X71821620Y-87846390D01*
X71080858Y-88587152D01*
X71075214Y-88597488D01*
X71025011Y-88647690D01*
X70964628Y-88663101D01*
X70706134Y-88663101D01*
X70670382Y-88670212D01*
X70644074Y-88675444D01*
X70644072Y-88675445D01*
X70631899Y-88677866D01*
X70621579Y-88684761D01*
X70621578Y-88684762D01*
X70568092Y-88720501D01*
X70547716Y-88734116D01*
X70491466Y-88818299D01*
X70476700Y-88892533D01*
X67584942Y-88892533D01*
X67550702Y-88816168D01*
X67510336Y-88726140D01*
X67348359Y-88457099D01*
X67336376Y-88441733D01*
X67277678Y-88366468D01*
X67155235Y-88209465D01*
X66933759Y-87986827D01*
X66915964Y-87972798D01*
X66690121Y-87794758D01*
X66687140Y-87792408D01*
X66418951Y-87629026D01*
X66239176Y-87547287D01*
X66136527Y-87500615D01*
X66136520Y-87500612D01*
X66133075Y-87499046D01*
X65976605Y-87449561D01*
X70473263Y-87449561D01*
X70485484Y-87661518D01*
X70486920Y-87671738D01*
X70533595Y-87878847D01*
X70536674Y-87888675D01*
X70616553Y-88085392D01*
X70621198Y-88094588D01*
X70700569Y-88224110D01*
X70711025Y-88233571D01*
X70719803Y-88229787D01*
X71459178Y-87490412D01*
X71465556Y-87478732D01*
X72195608Y-87478732D01*
X72195739Y-87480565D01*
X72199990Y-87487180D01*
X72938808Y-88225998D01*
X72950818Y-88232556D01*
X72962559Y-88223586D01*
X72992763Y-88181553D01*
X72998075Y-88172712D01*
X73092138Y-87982391D01*
X73095936Y-87972798D01*
X73157653Y-87769660D01*
X73159831Y-87759587D01*
X73187781Y-87547287D01*
X73188300Y-87540619D01*
X73189758Y-87480965D01*
X73189564Y-87474246D01*
X73172020Y-87260850D01*
X73170337Y-87250688D01*
X73118615Y-87044770D01*
X73115294Y-87035015D01*
X73030639Y-86840324D01*
X73025761Y-86831226D01*
X72961370Y-86731693D01*
X72950684Y-86722489D01*
X72941117Y-86726893D01*
X72203222Y-87464788D01*
X72195608Y-87478732D01*
X71465556Y-87478732D01*
X71466792Y-87476468D01*
X71466661Y-87474635D01*
X71462410Y-87468020D01*
X70723928Y-86729538D01*
X70712392Y-86723238D01*
X70700109Y-86732862D01*
X70652788Y-86802231D01*
X70647690Y-86811206D01*
X70558305Y-87003769D01*
X70554742Y-87013456D01*
X70498007Y-87218033D01*
X70496076Y-87228152D01*
X70473515Y-87439272D01*
X70473263Y-87449561D01*
X65976605Y-87449561D01*
X65833655Y-87404352D01*
X65696489Y-87378558D01*
X65528751Y-87347015D01*
X65528746Y-87347014D01*
X65525027Y-87346315D01*
X65211662Y-87325776D01*
X65207882Y-87325984D01*
X65207881Y-87325984D01*
X65119138Y-87330868D01*
X64898099Y-87343032D01*
X64894372Y-87343693D01*
X64894368Y-87343693D01*
X64651825Y-87386678D01*
X64588880Y-87397834D01*
X64585255Y-87398939D01*
X64585250Y-87398940D01*
X64452919Y-87439272D01*
X64288485Y-87489388D01*
X64285021Y-87490919D01*
X64285014Y-87490922D01*
X64157520Y-87547287D01*
X64001264Y-87616367D01*
X63998010Y-87618303D01*
X63998004Y-87618306D01*
X63818760Y-87724945D01*
X63731378Y-87776932D01*
X63728377Y-87779247D01*
X63728373Y-87779250D01*
X63641347Y-87846390D01*
X63482737Y-87968757D01*
X63480036Y-87971416D01*
X63480029Y-87971422D01*
X63350718Y-88098718D01*
X63258942Y-88189064D01*
X63256578Y-88192031D01*
X63256575Y-88192034D01*
X63134864Y-88344773D01*
X63063235Y-88434662D01*
X62898450Y-88701992D01*
X62766975Y-88987183D01*
X62670715Y-89286103D01*
X62669996Y-89289819D01*
X62669994Y-89289827D01*
X62611782Y-89590704D01*
X62611781Y-89590713D01*
X62611063Y-89594423D01*
X62610796Y-89598199D01*
X62610795Y-89598204D01*
X62608876Y-89625310D01*
X62588883Y-89907676D01*
X61728000Y-89907676D01*
X61728000Y-87974000D01*
X52584000Y-87974000D01*
X52584000Y-93183125D01*
X41191486Y-93180509D01*
X41166937Y-93178088D01*
X41154000Y-93175514D01*
X41141826Y-93177935D01*
X41129417Y-93177935D01*
X41129417Y-93177615D01*
X41118544Y-93178355D01*
X41114114Y-93178087D01*
X41071576Y-93175514D01*
X40886120Y-93164296D01*
X40871016Y-93162462D01*
X40614542Y-93115462D01*
X40599769Y-93111821D01*
X40508146Y-93083270D01*
X40350820Y-93034245D01*
X40336602Y-93028853D01*
X40098818Y-92921835D01*
X40085362Y-92914773D01*
X39862211Y-92779873D01*
X39849690Y-92771231D01*
X39644427Y-92610417D01*
X39633039Y-92600327D01*
X39448673Y-92415961D01*
X39438583Y-92404573D01*
X39277769Y-92199310D01*
X39269126Y-92186788D01*
X39194830Y-92063888D01*
X39134227Y-91963638D01*
X39127165Y-91950182D01*
X39020147Y-91712398D01*
X39014753Y-91698175D01*
X38997457Y-91642668D01*
X38937179Y-91449231D01*
X38933538Y-91434458D01*
X38886538Y-91177984D01*
X38884704Y-91162880D01*
X38870645Y-90930456D01*
X38871385Y-90919580D01*
X38871065Y-90919580D01*
X38871065Y-90907172D01*
X38873486Y-90895000D01*
X38870921Y-90882103D01*
X38868500Y-90857524D01*
X38868500Y-78600669D01*
X39128621Y-78600669D01*
X39129421Y-78607001D01*
X39132506Y-78631422D01*
X39133500Y-78647214D01*
X39133500Y-88341254D01*
X39133451Y-88344773D01*
X39131031Y-88431394D01*
X39132140Y-88437683D01*
X39141551Y-88491058D01*
X39142820Y-88500203D01*
X39148942Y-88560471D01*
X39150850Y-88566559D01*
X39150850Y-88566560D01*
X39157596Y-88588087D01*
X39161446Y-88603884D01*
X39166468Y-88632363D01*
X39183525Y-88675445D01*
X39188766Y-88688683D01*
X39191847Y-88697383D01*
X39194372Y-88705439D01*
X39209967Y-88755202D01*
X39223987Y-88780494D01*
X39230937Y-88795196D01*
X39239240Y-88816168D01*
X39239243Y-88816173D01*
X39241590Y-88822102D01*
X39245080Y-88827435D01*
X39245085Y-88827445D01*
X39274768Y-88872805D01*
X39279537Y-88880710D01*
X39308902Y-88933685D01*
X39313051Y-88938526D01*
X39313054Y-88938530D01*
X39327721Y-88955641D01*
X39337487Y-88968649D01*
X39350674Y-88988802D01*
X39350684Y-88988815D01*
X39353331Y-88992860D01*
X39356571Y-88996458D01*
X39356699Y-88996601D01*
X39356713Y-88996615D01*
X39357819Y-88997844D01*
X39396894Y-89036919D01*
X39403467Y-89044016D01*
X39441705Y-89088629D01*
X39466201Y-89107630D01*
X39478070Y-89118095D01*
X40267652Y-89907676D01*
X41028596Y-90668620D01*
X41062621Y-90730932D01*
X41065501Y-90757715D01*
X41065501Y-90881066D01*
X41080266Y-90955301D01*
X41136516Y-91039484D01*
X41220699Y-91095734D01*
X41294933Y-91110500D01*
X42169858Y-91110500D01*
X43045066Y-91110499D01*
X43080818Y-91103388D01*
X43107126Y-91098156D01*
X43107128Y-91098155D01*
X43119301Y-91095734D01*
X43129621Y-91088839D01*
X43129622Y-91088838D01*
X43193168Y-91046377D01*
X43203484Y-91039484D01*
X43259734Y-90955301D01*
X43274500Y-90881067D01*
X43274499Y-89907676D01*
X46504883Y-89907676D01*
X46520497Y-90221325D01*
X46521138Y-90225056D01*
X46521139Y-90225064D01*
X46573036Y-90527081D01*
X46573680Y-90530827D01*
X46574768Y-90534466D01*
X46574769Y-90534469D01*
X46641534Y-90757715D01*
X46663659Y-90831697D01*
X46665172Y-90835168D01*
X46665174Y-90835174D01*
X46722029Y-90965620D01*
X46789132Y-91119579D01*
X46791055Y-91122850D01*
X46791057Y-91122854D01*
X46846345Y-91216901D01*
X46948282Y-91390302D01*
X46950583Y-91393317D01*
X47051206Y-91525164D01*
X47138803Y-91639944D01*
X47141451Y-91642663D01*
X47141456Y-91642668D01*
X47209388Y-91712402D01*
X47357935Y-91864890D01*
X47360879Y-91867261D01*
X47360882Y-91867264D01*
X47599552Y-92059502D01*
X47599557Y-92059506D01*
X47602505Y-92061880D01*
X47868969Y-92228062D01*
X48153467Y-92361029D01*
X48157074Y-92362211D01*
X48157078Y-92362213D01*
X48321038Y-92415961D01*
X48451880Y-92458853D01*
X48455590Y-92459591D01*
X48455594Y-92459592D01*
X48605881Y-92489486D01*
X48759883Y-92520119D01*
X48916449Y-92532028D01*
X49069239Y-92543651D01*
X49069244Y-92543651D01*
X49073016Y-92543938D01*
X49386742Y-92529966D01*
X49390480Y-92529344D01*
X49390488Y-92529343D01*
X49541242Y-92504250D01*
X49696518Y-92478405D01*
X49997855Y-92390003D01*
X50286390Y-92266038D01*
X50557942Y-92108308D01*
X50808579Y-91919097D01*
X51034669Y-91701145D01*
X51232937Y-91457611D01*
X51242909Y-91441807D01*
X51398485Y-91195234D01*
X51398487Y-91195231D01*
X51400512Y-91192021D01*
X51407233Y-91177836D01*
X51507773Y-90965620D01*
X51534966Y-90908222D01*
X51536926Y-90902349D01*
X51602591Y-90705525D01*
X51634352Y-90610326D01*
X51697229Y-90302648D01*
X51722688Y-89989644D01*
X51723260Y-89935000D01*
X51721842Y-89911468D01*
X51704590Y-89625310D01*
X51704590Y-89625306D01*
X51704362Y-89621532D01*
X51647942Y-89312604D01*
X51554817Y-89012692D01*
X51547603Y-88996601D01*
X51466702Y-88816168D01*
X51426336Y-88726140D01*
X51264359Y-88457099D01*
X51252376Y-88441733D01*
X51193678Y-88366468D01*
X51071235Y-88209465D01*
X50849759Y-87986827D01*
X50831964Y-87972798D01*
X50606121Y-87794758D01*
X50603140Y-87792408D01*
X50334951Y-87629026D01*
X50155176Y-87547287D01*
X50052527Y-87500615D01*
X50052520Y-87500612D01*
X50049075Y-87499046D01*
X49749655Y-87404352D01*
X49612489Y-87378558D01*
X49444751Y-87347015D01*
X49444746Y-87347014D01*
X49441027Y-87346315D01*
X49127662Y-87325776D01*
X49123882Y-87325984D01*
X49123881Y-87325984D01*
X49035138Y-87330868D01*
X48814099Y-87343032D01*
X48810372Y-87343693D01*
X48810368Y-87343693D01*
X48567825Y-87386678D01*
X48504880Y-87397834D01*
X48501255Y-87398939D01*
X48501250Y-87398940D01*
X48368919Y-87439272D01*
X48204485Y-87489388D01*
X48201021Y-87490919D01*
X48201014Y-87490922D01*
X48073520Y-87547287D01*
X47917264Y-87616367D01*
X47914010Y-87618303D01*
X47914004Y-87618306D01*
X47734760Y-87724945D01*
X47647378Y-87776932D01*
X47644377Y-87779247D01*
X47644373Y-87779250D01*
X47557347Y-87846390D01*
X47398737Y-87968757D01*
X47396036Y-87971416D01*
X47396029Y-87971422D01*
X47266718Y-88098718D01*
X47174942Y-88189064D01*
X47172578Y-88192031D01*
X47172575Y-88192034D01*
X47050864Y-88344773D01*
X46979235Y-88434662D01*
X46814450Y-88701992D01*
X46682975Y-88987183D01*
X46586715Y-89286103D01*
X46585996Y-89289819D01*
X46585994Y-89289827D01*
X46527782Y-89590704D01*
X46527781Y-89590713D01*
X46527063Y-89594423D01*
X46526796Y-89598199D01*
X46526795Y-89598204D01*
X46524876Y-89625310D01*
X46504883Y-89907676D01*
X43274499Y-89907676D01*
X43274499Y-89130934D01*
X43259734Y-89056699D01*
X43251260Y-89044016D01*
X43210377Y-88982832D01*
X43203484Y-88972516D01*
X43119301Y-88916266D01*
X43045067Y-88901500D01*
X42945184Y-88901500D01*
X42154821Y-88901501D01*
X42086700Y-88881499D01*
X42065726Y-88864596D01*
X41983943Y-88782813D01*
X41949917Y-88720501D01*
X41954982Y-88649686D01*
X41997529Y-88592850D01*
X42064049Y-88568039D01*
X42077977Y-88567815D01*
X42228053Y-88573712D01*
X42328499Y-88559148D01*
X42423231Y-88545413D01*
X42423236Y-88545412D01*
X42428945Y-88544584D01*
X42434409Y-88542729D01*
X42434414Y-88542728D01*
X42615693Y-88481192D01*
X42615698Y-88481190D01*
X42621165Y-88479334D01*
X42655055Y-88460355D01*
X42695538Y-88437683D01*
X42798276Y-88380147D01*
X42840809Y-88344773D01*
X42949913Y-88254031D01*
X42954345Y-88250345D01*
X43005312Y-88189064D01*
X43080453Y-88098718D01*
X43080455Y-88098715D01*
X43084147Y-88094276D01*
X43154441Y-87968757D01*
X43180510Y-87922208D01*
X43180511Y-87922206D01*
X43183334Y-87917165D01*
X43185190Y-87911698D01*
X43185192Y-87911693D01*
X43246728Y-87730414D01*
X43246729Y-87730409D01*
X43248584Y-87724945D01*
X43249412Y-87719236D01*
X43249413Y-87719231D01*
X43277179Y-87527727D01*
X43277712Y-87524053D01*
X43279232Y-87466000D01*
X43266370Y-87326024D01*
X43261187Y-87269613D01*
X43261186Y-87269610D01*
X43260658Y-87263859D01*
X43218128Y-87113061D01*
X43207125Y-87074046D01*
X43207124Y-87074044D01*
X43205557Y-87068487D01*
X43193862Y-87044770D01*
X43118331Y-86891609D01*
X43115776Y-86886428D01*
X42994320Y-86723779D01*
X42845258Y-86585987D01*
X42840375Y-86582906D01*
X42840371Y-86582903D01*
X42678464Y-86480748D01*
X42673581Y-86477667D01*
X42485039Y-86402446D01*
X42479379Y-86401320D01*
X42479375Y-86401319D01*
X42291613Y-86363971D01*
X42291610Y-86363971D01*
X42285946Y-86362844D01*
X42280171Y-86362768D01*
X42280167Y-86362768D01*
X42178793Y-86361441D01*
X42082971Y-86360187D01*
X42077274Y-86361166D01*
X42077273Y-86361166D01*
X42038381Y-86367849D01*
X41882910Y-86394564D01*
X41692463Y-86464824D01*
X41518010Y-86568612D01*
X41513670Y-86572418D01*
X41513666Y-86572421D01*
X41369727Y-86698653D01*
X41365392Y-86702455D01*
X41361823Y-86706983D01*
X41359897Y-86709012D01*
X41298497Y-86744657D01*
X41227573Y-86741448D01*
X41169643Y-86700404D01*
X41143099Y-86634556D01*
X41142500Y-86622280D01*
X41142500Y-86059529D01*
X71074101Y-86059529D01*
X71079382Y-86066583D01*
X71131954Y-86097304D01*
X71180678Y-86148943D01*
X71193749Y-86218726D01*
X71167018Y-86284497D01*
X71126562Y-86317857D01*
X71111792Y-86325545D01*
X71103077Y-86331033D01*
X71083733Y-86345557D01*
X71075279Y-86356884D01*
X71082024Y-86369214D01*
X71818388Y-87105578D01*
X71832332Y-87113192D01*
X71834165Y-87113061D01*
X71840780Y-87108810D01*
X72581741Y-86367849D01*
X72588761Y-86354993D01*
X72582073Y-86345813D01*
X72578539Y-86343465D01*
X72535481Y-86319696D01*
X72485511Y-86269263D01*
X72470739Y-86199820D01*
X72495855Y-86133415D01*
X72527315Y-86105224D01*
X72526882Y-86104617D01*
X72577579Y-86068455D01*
X72585980Y-86057755D01*
X72578992Y-86044602D01*
X71844012Y-85309622D01*
X71830068Y-85302008D01*
X71828235Y-85302139D01*
X71821620Y-85306390D01*
X71080861Y-86047149D01*
X71074101Y-86059529D01*
X41142500Y-86059529D01*
X41142500Y-85765758D01*
X41162502Y-85697637D01*
X41216158Y-85651144D01*
X41286432Y-85641040D01*
X41351012Y-85670534D01*
X41356415Y-85675498D01*
X41471938Y-85788035D01*
X41640720Y-85900812D01*
X41646023Y-85903090D01*
X41646026Y-85903092D01*
X41734707Y-85941192D01*
X41827228Y-85980942D01*
X41900244Y-85997464D01*
X42019579Y-86024467D01*
X42019584Y-86024468D01*
X42025216Y-86025742D01*
X42030987Y-86025969D01*
X42030989Y-86025969D01*
X42090756Y-86028317D01*
X42228053Y-86033712D01*
X42328499Y-86019148D01*
X42423231Y-86005413D01*
X42423236Y-86005412D01*
X42428945Y-86004584D01*
X42434409Y-86002729D01*
X42434414Y-86002728D01*
X42615693Y-85941192D01*
X42615698Y-85941190D01*
X42621165Y-85939334D01*
X42798276Y-85840147D01*
X42860934Y-85788035D01*
X42949913Y-85714031D01*
X42954345Y-85710345D01*
X43038527Y-85609128D01*
X43080453Y-85558718D01*
X43080455Y-85558715D01*
X43084147Y-85554276D01*
X43152178Y-85432798D01*
X43180510Y-85382208D01*
X43180511Y-85382206D01*
X43183334Y-85377165D01*
X43185190Y-85371698D01*
X43185192Y-85371693D01*
X43246728Y-85190414D01*
X43246729Y-85190409D01*
X43248584Y-85184945D01*
X43249412Y-85179236D01*
X43249413Y-85179231D01*
X43277179Y-84987727D01*
X43277712Y-84984053D01*
X43279232Y-84926000D01*
X43260658Y-84723859D01*
X43237843Y-84642964D01*
X47157148Y-84642964D01*
X47170424Y-84845522D01*
X47171845Y-84851118D01*
X47171846Y-84851123D01*
X47218971Y-85036674D01*
X47220392Y-85042269D01*
X47222809Y-85047512D01*
X47260010Y-85128208D01*
X47305377Y-85226616D01*
X47308710Y-85231332D01*
X47407907Y-85371693D01*
X47422533Y-85392389D01*
X47567938Y-85534035D01*
X47736720Y-85646812D01*
X47742023Y-85649090D01*
X47742026Y-85649092D01*
X47884597Y-85710345D01*
X47923228Y-85726942D01*
X47996244Y-85743464D01*
X48115579Y-85770467D01*
X48115584Y-85770468D01*
X48121216Y-85771742D01*
X48126987Y-85771969D01*
X48126989Y-85771969D01*
X48186756Y-85774317D01*
X48324053Y-85779712D01*
X48431348Y-85764155D01*
X48519231Y-85751413D01*
X48519236Y-85751412D01*
X48524945Y-85750584D01*
X48530409Y-85748729D01*
X48530414Y-85748728D01*
X48711693Y-85687192D01*
X48711698Y-85687190D01*
X48717165Y-85685334D01*
X48743593Y-85670534D01*
X48791683Y-85643602D01*
X48894276Y-85586147D01*
X48932222Y-85554588D01*
X49045913Y-85460031D01*
X49050345Y-85456345D01*
X49107463Y-85387669D01*
X49176453Y-85304718D01*
X49176455Y-85304715D01*
X49180147Y-85300276D01*
X49279334Y-85123165D01*
X49281190Y-85117698D01*
X49281192Y-85117693D01*
X49342728Y-84936414D01*
X49342729Y-84936409D01*
X49344584Y-84930945D01*
X49345412Y-84925236D01*
X49345413Y-84925231D01*
X49373179Y-84733727D01*
X49373712Y-84730053D01*
X49375232Y-84672000D01*
X49359567Y-84501515D01*
X49357187Y-84475613D01*
X49357186Y-84475610D01*
X49356658Y-84469859D01*
X49355090Y-84464299D01*
X49303125Y-84280046D01*
X49303124Y-84280044D01*
X49301557Y-84274487D01*
X49295514Y-84262231D01*
X49214331Y-84097609D01*
X49211776Y-84092428D01*
X49090320Y-83929779D01*
X48971847Y-83820263D01*
X48946609Y-83796933D01*
X49701500Y-83796933D01*
X49701501Y-85547066D01*
X49716266Y-85621301D01*
X49723161Y-85631620D01*
X49723162Y-85631622D01*
X49762027Y-85689787D01*
X49772516Y-85705484D01*
X49856699Y-85761734D01*
X49930933Y-85776500D01*
X50805858Y-85776500D01*
X51681066Y-85776499D01*
X51716818Y-85769388D01*
X51743126Y-85764156D01*
X51743128Y-85764155D01*
X51755301Y-85761734D01*
X51765621Y-85754839D01*
X51765622Y-85754838D01*
X51829168Y-85712377D01*
X51839484Y-85705484D01*
X51895734Y-85621301D01*
X51910500Y-85547067D01*
X51910500Y-84909561D01*
X70473263Y-84909561D01*
X70485484Y-85121518D01*
X70486920Y-85131738D01*
X70533595Y-85338847D01*
X70536674Y-85348675D01*
X70616553Y-85545392D01*
X70621198Y-85554588D01*
X70700569Y-85684110D01*
X70711025Y-85693571D01*
X70719803Y-85689787D01*
X71459178Y-84950412D01*
X71465556Y-84938732D01*
X72195608Y-84938732D01*
X72195739Y-84940565D01*
X72199990Y-84947180D01*
X72938808Y-85685998D01*
X72950818Y-85692556D01*
X72962559Y-85683586D01*
X72992763Y-85641553D01*
X72998075Y-85632712D01*
X73092138Y-85442391D01*
X73095936Y-85432798D01*
X73157653Y-85229660D01*
X73159831Y-85219587D01*
X73187781Y-85007287D01*
X73188300Y-85000619D01*
X73189758Y-84940965D01*
X73189564Y-84934246D01*
X73172020Y-84720850D01*
X73170337Y-84710688D01*
X73118615Y-84504770D01*
X73115294Y-84495015D01*
X73030639Y-84300324D01*
X73025761Y-84291226D01*
X72961370Y-84191693D01*
X72950684Y-84182489D01*
X72941117Y-84186893D01*
X72203222Y-84924788D01*
X72195608Y-84938732D01*
X71465556Y-84938732D01*
X71466792Y-84936468D01*
X71466661Y-84934635D01*
X71462410Y-84928020D01*
X70723928Y-84189538D01*
X70712392Y-84183238D01*
X70700109Y-84192862D01*
X70652788Y-84262231D01*
X70647690Y-84271206D01*
X70558305Y-84463769D01*
X70554742Y-84473456D01*
X70498007Y-84678033D01*
X70496076Y-84688152D01*
X70473515Y-84899272D01*
X70473263Y-84909561D01*
X51910500Y-84909561D01*
X51910499Y-83796934D01*
X51902227Y-83755343D01*
X51898156Y-83734874D01*
X51898155Y-83734872D01*
X51895734Y-83722699D01*
X51869654Y-83683667D01*
X51846377Y-83648832D01*
X51839484Y-83638516D01*
X51755301Y-83582266D01*
X51681067Y-83567500D01*
X51311500Y-83567500D01*
X51243379Y-83547498D01*
X51196886Y-83493842D01*
X51185500Y-83441500D01*
X51185500Y-80086384D01*
X51205502Y-80018263D01*
X51222405Y-79997289D01*
X51893875Y-79325819D01*
X51956187Y-79291793D01*
X51999414Y-79289992D01*
X52070000Y-79299285D01*
X52078188Y-79298207D01*
X52206566Y-79281306D01*
X52214754Y-79280228D01*
X52349643Y-79224355D01*
X52356196Y-79219327D01*
X52458921Y-79140503D01*
X52458924Y-79140500D01*
X52465474Y-79135474D01*
X52554355Y-79019642D01*
X52565773Y-78992078D01*
X52607069Y-78892380D01*
X52610228Y-78884754D01*
X52629285Y-78740000D01*
X52616999Y-78646675D01*
X52611306Y-78603432D01*
X52611305Y-78603430D01*
X52610228Y-78595246D01*
X52554355Y-78460358D01*
X52465474Y-78344526D01*
X52458924Y-78339500D01*
X52458921Y-78339497D01*
X52356196Y-78260673D01*
X52356194Y-78260672D01*
X52349643Y-78255645D01*
X52232779Y-78207238D01*
X52222383Y-78202932D01*
X52214754Y-78199772D01*
X52203133Y-78198242D01*
X52078188Y-78181793D01*
X52070000Y-78180715D01*
X52061812Y-78181793D01*
X51933432Y-78198694D01*
X51933430Y-78198695D01*
X51925246Y-78199772D01*
X51911700Y-78205383D01*
X51797986Y-78252485D01*
X51797984Y-78252486D01*
X51790358Y-78255645D01*
X51674526Y-78344526D01*
X51585645Y-78460358D01*
X51529772Y-78595246D01*
X51529409Y-78595096D01*
X51499631Y-78646675D01*
X50575784Y-79570522D01*
X50557036Y-79585664D01*
X50555811Y-79586779D01*
X50547060Y-79592429D01*
X50540613Y-79600607D01*
X50540611Y-79600609D01*
X50526271Y-79618800D01*
X50522325Y-79623241D01*
X50522398Y-79623303D01*
X50519039Y-79627267D01*
X50515362Y-79630944D01*
X50504108Y-79646692D01*
X50500602Y-79651362D01*
X50468844Y-79691647D01*
X50465812Y-79700281D01*
X50460486Y-79707734D01*
X50457501Y-79717715D01*
X50445799Y-79756844D01*
X50443964Y-79762492D01*
X50426982Y-79810851D01*
X50426500Y-79816416D01*
X50426500Y-79819124D01*
X50426386Y-79821758D01*
X50426357Y-79821856D01*
X50426193Y-79821849D01*
X50426149Y-79822553D01*
X50424287Y-79828778D01*
X50424696Y-79839183D01*
X50426403Y-79882635D01*
X50426500Y-79887582D01*
X50426500Y-83441501D01*
X50406498Y-83509622D01*
X50352842Y-83556115D01*
X50300500Y-83567501D01*
X49930934Y-83567501D01*
X49895182Y-83574612D01*
X49868874Y-83579844D01*
X49868872Y-83579845D01*
X49856699Y-83582266D01*
X49846379Y-83589161D01*
X49846378Y-83589162D01*
X49795261Y-83623318D01*
X49772516Y-83638516D01*
X49716266Y-83722699D01*
X49701500Y-83796933D01*
X48946609Y-83796933D01*
X48945503Y-83795911D01*
X48941258Y-83791987D01*
X48936375Y-83788906D01*
X48936371Y-83788903D01*
X48774464Y-83686748D01*
X48769581Y-83683667D01*
X48581039Y-83608446D01*
X48575379Y-83607320D01*
X48575375Y-83607319D01*
X48387613Y-83569971D01*
X48387610Y-83569971D01*
X48381946Y-83568844D01*
X48376171Y-83568768D01*
X48376167Y-83568768D01*
X48274793Y-83567441D01*
X48178971Y-83566187D01*
X48173274Y-83567166D01*
X48173273Y-83567166D01*
X48085397Y-83582266D01*
X47978910Y-83600564D01*
X47788463Y-83670824D01*
X47614010Y-83774612D01*
X47609670Y-83778418D01*
X47609666Y-83778421D01*
X47520561Y-83856565D01*
X47461392Y-83908455D01*
X47457817Y-83912990D01*
X47457816Y-83912991D01*
X47444581Y-83929779D01*
X47335720Y-84067869D01*
X47333031Y-84072980D01*
X47333029Y-84072983D01*
X47321679Y-84094556D01*
X47241203Y-84247515D01*
X47181007Y-84441378D01*
X47157148Y-84642964D01*
X43237843Y-84642964D01*
X43218128Y-84573061D01*
X43207125Y-84534046D01*
X43207124Y-84534044D01*
X43205557Y-84528487D01*
X43193862Y-84504770D01*
X43118331Y-84351609D01*
X43115776Y-84346428D01*
X42994320Y-84183779D01*
X42845258Y-84045987D01*
X42840375Y-84042906D01*
X42840371Y-84042903D01*
X42678464Y-83940748D01*
X42673581Y-83937667D01*
X42485039Y-83862446D01*
X42479379Y-83861320D01*
X42479375Y-83861319D01*
X42291613Y-83823971D01*
X42291610Y-83823971D01*
X42285946Y-83822844D01*
X42280171Y-83822768D01*
X42280167Y-83822768D01*
X42178793Y-83821441D01*
X42082971Y-83820187D01*
X42077274Y-83821166D01*
X42077273Y-83821166D01*
X42038381Y-83827849D01*
X41882910Y-83854564D01*
X41692463Y-83924824D01*
X41518010Y-84028612D01*
X41513670Y-84032418D01*
X41513666Y-84032421D01*
X41439334Y-84097609D01*
X41365392Y-84162455D01*
X41361823Y-84166983D01*
X41359897Y-84169012D01*
X41298497Y-84204657D01*
X41227573Y-84201448D01*
X41169643Y-84160404D01*
X41143099Y-84094556D01*
X41142500Y-84082280D01*
X41142500Y-83225060D01*
X41162502Y-83156939D01*
X41216158Y-83110446D01*
X41286432Y-83100342D01*
X41351012Y-83129836D01*
X41356421Y-83134806D01*
X41468114Y-83243612D01*
X41477058Y-83250855D01*
X41636156Y-83357161D01*
X41646266Y-83362651D01*
X41822077Y-83438185D01*
X41833020Y-83441740D01*
X41898332Y-83456519D01*
X41912405Y-83455630D01*
X41915828Y-83446681D01*
X42424000Y-83446681D01*
X42427966Y-83460187D01*
X42436672Y-83461433D01*
X42615497Y-83400730D01*
X42625994Y-83396056D01*
X42792958Y-83302552D01*
X42802430Y-83296042D01*
X42949553Y-83173682D01*
X42957682Y-83165553D01*
X43080042Y-83018430D01*
X43086552Y-83008958D01*
X43180056Y-82841994D01*
X43184730Y-82831497D01*
X43245443Y-82652644D01*
X43244210Y-82643993D01*
X43230642Y-82640000D01*
X42442115Y-82640000D01*
X42426876Y-82644475D01*
X42425671Y-82645865D01*
X42424000Y-82653548D01*
X42424000Y-83446681D01*
X41915828Y-83446681D01*
X41916000Y-83446232D01*
X41916000Y-82113885D01*
X42424000Y-82113885D01*
X42428475Y-82129124D01*
X42429865Y-82130329D01*
X42437548Y-82132000D01*
X43227398Y-82132000D01*
X43240929Y-82128027D01*
X43242098Y-82119892D01*
X43206658Y-81994231D01*
X43202533Y-81983484D01*
X43117903Y-81811871D01*
X43111893Y-81802063D01*
X42997400Y-81648739D01*
X42989710Y-81640199D01*
X42849192Y-81510304D01*
X42840067Y-81503303D01*
X42678236Y-81401195D01*
X42667989Y-81395974D01*
X42490260Y-81325068D01*
X42479232Y-81321801D01*
X42441769Y-81314350D01*
X42428894Y-81315502D01*
X42424000Y-81330658D01*
X42424000Y-82113885D01*
X41916000Y-82113885D01*
X41916000Y-81327500D01*
X41912194Y-81314538D01*
X41897279Y-81312602D01*
X41888732Y-81314071D01*
X41877620Y-81317048D01*
X41698095Y-81383279D01*
X41687717Y-81388229D01*
X41523273Y-81486063D01*
X41513961Y-81492829D01*
X41370098Y-81618993D01*
X41359899Y-81629741D01*
X41298499Y-81665387D01*
X41227575Y-81662179D01*
X41169644Y-81621135D01*
X41143100Y-81555288D01*
X41142500Y-81543010D01*
X41142500Y-79044268D01*
X41162502Y-78976147D01*
X41179405Y-78955173D01*
X42068173Y-78066405D01*
X42130485Y-78032379D01*
X42157268Y-78029500D01*
X42945414Y-78029499D01*
X43045066Y-78029499D01*
X43080818Y-78022388D01*
X43107126Y-78017156D01*
X43107128Y-78017155D01*
X43119301Y-78014734D01*
X43129621Y-78007839D01*
X43129622Y-78007838D01*
X43193168Y-77965377D01*
X43203484Y-77958484D01*
X43259734Y-77874301D01*
X43274500Y-77800067D01*
X43274499Y-76049934D01*
X43267388Y-76014182D01*
X43262156Y-75987874D01*
X43262155Y-75987872D01*
X43259734Y-75975699D01*
X43203484Y-75891516D01*
X43119301Y-75835266D01*
X43045067Y-75820500D01*
X42918524Y-75820500D01*
X41903268Y-75820501D01*
X41835147Y-75800499D01*
X41814173Y-75783596D01*
X41665580Y-75635003D01*
X41631554Y-75572691D01*
X41636619Y-75501876D01*
X41679166Y-75445040D01*
X41745686Y-75420229D01*
X41804412Y-75430140D01*
X41821917Y-75437661D01*
X41821924Y-75437663D01*
X41827228Y-75439942D01*
X41900244Y-75456464D01*
X42019579Y-75483467D01*
X42019584Y-75483468D01*
X42025216Y-75484742D01*
X42030987Y-75484969D01*
X42030989Y-75484969D01*
X42090756Y-75487317D01*
X42228053Y-75492712D01*
X42328499Y-75478148D01*
X42423231Y-75464413D01*
X42423236Y-75464412D01*
X42428945Y-75463584D01*
X42434409Y-75461729D01*
X42434414Y-75461728D01*
X42615693Y-75400192D01*
X42615698Y-75400190D01*
X42621165Y-75398334D01*
X42798276Y-75299147D01*
X42860934Y-75247035D01*
X42933387Y-75186776D01*
X42954345Y-75169345D01*
X43084147Y-75013276D01*
X43183334Y-74836165D01*
X43185190Y-74830698D01*
X43185192Y-74830693D01*
X43246728Y-74649414D01*
X43246729Y-74649409D01*
X43248584Y-74643945D01*
X43249412Y-74638236D01*
X43249413Y-74638231D01*
X43277179Y-74446727D01*
X43277712Y-74443053D01*
X43279232Y-74385000D01*
X43260658Y-74182859D01*
X43256057Y-74166546D01*
X43207125Y-73993046D01*
X43207124Y-73993044D01*
X43205557Y-73987487D01*
X43201337Y-73978928D01*
X43118331Y-73810609D01*
X43115776Y-73805428D01*
X42994320Y-73642779D01*
X42845258Y-73504987D01*
X42840375Y-73501906D01*
X42840371Y-73501903D01*
X42678464Y-73399748D01*
X42673581Y-73396667D01*
X42485039Y-73321446D01*
X42479379Y-73320320D01*
X42479375Y-73320319D01*
X42291613Y-73282971D01*
X42291610Y-73282971D01*
X42285946Y-73281844D01*
X42280171Y-73281768D01*
X42280167Y-73281768D01*
X42178793Y-73280441D01*
X42082971Y-73279187D01*
X42077274Y-73280166D01*
X42077273Y-73280166D01*
X41888607Y-73312585D01*
X41882910Y-73313564D01*
X41692463Y-73383824D01*
X41518010Y-73487612D01*
X41513670Y-73491418D01*
X41513666Y-73491421D01*
X41424125Y-73569947D01*
X41365392Y-73621455D01*
X41361823Y-73625983D01*
X41359897Y-73628012D01*
X41298497Y-73663657D01*
X41227573Y-73660448D01*
X41169643Y-73619404D01*
X41143099Y-73553556D01*
X41142500Y-73541280D01*
X41142500Y-72684758D01*
X41162502Y-72616637D01*
X41216158Y-72570144D01*
X41286432Y-72560040D01*
X41351012Y-72589534D01*
X41356415Y-72594498D01*
X41471938Y-72707035D01*
X41640720Y-72819812D01*
X41646023Y-72822090D01*
X41646026Y-72822092D01*
X41778959Y-72879204D01*
X41827228Y-72899942D01*
X41893377Y-72914910D01*
X42019579Y-72943467D01*
X42019584Y-72943468D01*
X42025216Y-72944742D01*
X42030987Y-72944969D01*
X42030989Y-72944969D01*
X42090756Y-72947317D01*
X42228053Y-72952712D01*
X42328499Y-72938148D01*
X42423231Y-72924413D01*
X42423236Y-72924412D01*
X42428945Y-72923584D01*
X42434409Y-72921729D01*
X42434414Y-72921728D01*
X42615693Y-72860192D01*
X42615698Y-72860190D01*
X42621165Y-72858334D01*
X42640336Y-72847598D01*
X42719669Y-72803169D01*
X42798276Y-72759147D01*
X42805628Y-72753033D01*
X42949913Y-72633031D01*
X42954345Y-72629345D01*
X42997188Y-72577832D01*
X43080453Y-72477718D01*
X43080455Y-72477715D01*
X43084147Y-72473276D01*
X43183334Y-72296165D01*
X43185190Y-72290698D01*
X43185192Y-72290693D01*
X43246728Y-72109414D01*
X43246729Y-72109409D01*
X43248584Y-72103945D01*
X43249412Y-72098236D01*
X43249413Y-72098231D01*
X43272573Y-71938495D01*
X43277712Y-71903053D01*
X43279232Y-71845000D01*
X43267797Y-71720551D01*
X43261187Y-71648613D01*
X43261186Y-71648610D01*
X43260658Y-71642859D01*
X43259090Y-71637299D01*
X43207125Y-71453046D01*
X43207124Y-71453044D01*
X43205557Y-71447487D01*
X43189226Y-71414369D01*
X43118331Y-71270609D01*
X43115776Y-71265428D01*
X43107956Y-71254955D01*
X43077158Y-71213712D01*
X42994320Y-71102779D01*
X42897799Y-71013556D01*
X42849503Y-70968911D01*
X42845258Y-70964987D01*
X42840375Y-70961906D01*
X42840371Y-70961903D01*
X42678464Y-70859748D01*
X42673581Y-70856667D01*
X42485039Y-70781446D01*
X42479379Y-70780320D01*
X42479375Y-70780319D01*
X42291613Y-70742971D01*
X42291610Y-70742971D01*
X42285946Y-70741844D01*
X42280171Y-70741768D01*
X42280167Y-70741768D01*
X42178793Y-70740441D01*
X42082971Y-70739187D01*
X42077274Y-70740166D01*
X42077273Y-70740166D01*
X41956650Y-70760893D01*
X41882910Y-70773564D01*
X41692463Y-70843824D01*
X41518010Y-70947612D01*
X41513670Y-70951418D01*
X41513666Y-70951421D01*
X41428580Y-71026040D01*
X41365392Y-71081455D01*
X41361823Y-71085983D01*
X41359897Y-71088012D01*
X41298497Y-71123657D01*
X41227573Y-71120448D01*
X41169643Y-71079404D01*
X41143099Y-71013556D01*
X41142500Y-71001280D01*
X41142500Y-70144060D01*
X41162502Y-70075939D01*
X41216158Y-70029446D01*
X41286432Y-70019342D01*
X41351012Y-70048836D01*
X41356421Y-70053806D01*
X41468114Y-70162612D01*
X41477058Y-70169855D01*
X41636156Y-70276161D01*
X41646266Y-70281651D01*
X41822077Y-70357185D01*
X41833020Y-70360740D01*
X41898332Y-70375519D01*
X41912405Y-70374630D01*
X41915828Y-70365681D01*
X42424000Y-70365681D01*
X42427966Y-70379187D01*
X42436672Y-70380433D01*
X42615497Y-70319730D01*
X42625994Y-70315056D01*
X42792958Y-70221552D01*
X42802430Y-70215042D01*
X42949553Y-70092682D01*
X42957682Y-70084553D01*
X43080042Y-69937430D01*
X43086552Y-69927958D01*
X43180056Y-69760994D01*
X43184730Y-69750497D01*
X43245443Y-69571644D01*
X43244210Y-69562993D01*
X43230642Y-69559000D01*
X42442115Y-69559000D01*
X42426876Y-69563475D01*
X42425671Y-69564865D01*
X42424000Y-69572548D01*
X42424000Y-70365681D01*
X41915828Y-70365681D01*
X41916000Y-70365232D01*
X41916000Y-69032885D01*
X42424000Y-69032885D01*
X42428475Y-69048124D01*
X42429865Y-69049329D01*
X42437548Y-69051000D01*
X43227398Y-69051000D01*
X43240929Y-69047027D01*
X43242098Y-69038892D01*
X43206658Y-68913231D01*
X43202533Y-68902484D01*
X43117903Y-68730871D01*
X43111893Y-68721063D01*
X42997400Y-68567739D01*
X42989710Y-68559199D01*
X42849192Y-68429304D01*
X42840067Y-68422303D01*
X42678236Y-68320195D01*
X42667989Y-68314974D01*
X42490260Y-68244068D01*
X42479232Y-68240801D01*
X42441769Y-68233350D01*
X42428894Y-68234502D01*
X42424000Y-68249658D01*
X42424000Y-69032885D01*
X41916000Y-69032885D01*
X41916000Y-68246500D01*
X41912194Y-68233538D01*
X41897279Y-68231602D01*
X41888732Y-68233071D01*
X41877620Y-68236048D01*
X41698095Y-68302279D01*
X41687717Y-68307229D01*
X41523273Y-68405063D01*
X41513961Y-68411829D01*
X41370098Y-68537993D01*
X41359899Y-68548741D01*
X41298499Y-68584387D01*
X41227575Y-68581179D01*
X41169644Y-68540135D01*
X41143100Y-68474288D01*
X41142500Y-68462010D01*
X41142500Y-65328269D01*
X41162502Y-65260148D01*
X41179404Y-65239174D01*
X41433172Y-64985405D01*
X41495485Y-64951380D01*
X41522268Y-64948500D01*
X42878098Y-64948499D01*
X43045066Y-64948499D01*
X43080818Y-64941388D01*
X43107126Y-64936156D01*
X43107128Y-64936155D01*
X43119301Y-64933734D01*
X43129621Y-64926839D01*
X43129622Y-64926838D01*
X43193168Y-64884377D01*
X43203484Y-64877484D01*
X43259734Y-64793301D01*
X43274500Y-64719067D01*
X43274499Y-63627000D01*
X49859715Y-63627000D01*
X49860793Y-63635188D01*
X49873159Y-63729115D01*
X49878772Y-63771754D01*
X49881931Y-63779380D01*
X49916670Y-63863246D01*
X49934645Y-63906642D01*
X49939672Y-63913193D01*
X50013463Y-64009360D01*
X50039063Y-64075581D01*
X50039500Y-64086064D01*
X50039500Y-67383080D01*
X50036951Y-67407028D01*
X50036872Y-67408693D01*
X50034680Y-67418876D01*
X50035904Y-67429217D01*
X50038627Y-67452223D01*
X50038977Y-67458154D01*
X50039072Y-67458146D01*
X50039500Y-67463324D01*
X50039500Y-67468524D01*
X50040354Y-67473653D01*
X50040354Y-67473656D01*
X50042669Y-67487565D01*
X50043506Y-67493443D01*
X50049530Y-67544341D01*
X50053493Y-67552593D01*
X50054996Y-67561626D01*
X50059943Y-67570795D01*
X50059944Y-67570797D01*
X50079334Y-67606732D01*
X50082031Y-67612025D01*
X50100785Y-67651082D01*
X50100788Y-67651086D01*
X50104219Y-67658232D01*
X50107814Y-67662508D01*
X50109737Y-67664431D01*
X50111509Y-67666363D01*
X50111552Y-67666442D01*
X50111428Y-67666555D01*
X50111904Y-67667095D01*
X50114990Y-67672814D01*
X50122635Y-67679881D01*
X50154586Y-67709416D01*
X50158152Y-67712846D01*
X52548595Y-70103289D01*
X52582621Y-70165601D01*
X52585500Y-70192384D01*
X52585500Y-71893936D01*
X52565498Y-71962057D01*
X52559463Y-71970640D01*
X52545917Y-71988294D01*
X52480645Y-72073358D01*
X52424772Y-72208246D01*
X52423695Y-72216430D01*
X52423694Y-72216432D01*
X52415115Y-72281601D01*
X52405715Y-72353000D01*
X52424772Y-72497754D01*
X52427931Y-72505380D01*
X52477444Y-72624913D01*
X52480645Y-72632642D01*
X52569526Y-72748474D01*
X52585901Y-72761039D01*
X52627767Y-72818378D01*
X52631987Y-72889249D01*
X52597222Y-72951151D01*
X52585897Y-72960964D01*
X52581090Y-72964653D01*
X52569526Y-72973526D01*
X52564503Y-72980072D01*
X52556807Y-72990102D01*
X52480645Y-73089358D01*
X52477486Y-73096984D01*
X52477485Y-73096986D01*
X52465723Y-73125383D01*
X52424772Y-73224246D01*
X52423695Y-73232430D01*
X52423694Y-73232432D01*
X52411951Y-73321633D01*
X52405715Y-73369000D01*
X52406793Y-73377188D01*
X52423185Y-73501697D01*
X52424772Y-73513754D01*
X52435369Y-73539336D01*
X52472100Y-73628012D01*
X52480645Y-73648642D01*
X52569526Y-73764474D01*
X52585901Y-73777039D01*
X52627767Y-73834378D01*
X52631987Y-73905249D01*
X52597222Y-73967151D01*
X52585897Y-73976964D01*
X52576586Y-73984109D01*
X52569526Y-73989526D01*
X52480645Y-74105358D01*
X52477486Y-74112984D01*
X52477485Y-74112986D01*
X52450846Y-74177299D01*
X52424772Y-74240246D01*
X52423695Y-74248430D01*
X52423694Y-74248432D01*
X52413122Y-74328740D01*
X52405715Y-74385000D01*
X52424772Y-74529754D01*
X52427931Y-74537380D01*
X52462248Y-74620227D01*
X52480645Y-74664642D01*
X52569526Y-74780474D01*
X52576076Y-74785500D01*
X52576079Y-74785503D01*
X52624834Y-74822914D01*
X52685357Y-74869355D01*
X52820246Y-74925228D01*
X52965000Y-74944285D01*
X52973188Y-74943207D01*
X53101566Y-74926306D01*
X53109754Y-74925228D01*
X53244643Y-74869355D01*
X53305166Y-74822914D01*
X53353921Y-74785503D01*
X53353924Y-74785500D01*
X53360474Y-74780474D01*
X53449355Y-74664642D01*
X53467753Y-74620227D01*
X53502069Y-74537380D01*
X53505228Y-74529754D01*
X53522128Y-74401388D01*
X53550849Y-74336462D01*
X53557954Y-74328740D01*
X54332216Y-73554478D01*
X54350964Y-73539336D01*
X54352189Y-73538221D01*
X54360940Y-73532571D01*
X54367387Y-73524393D01*
X54367389Y-73524391D01*
X54381729Y-73506200D01*
X54385675Y-73501759D01*
X54385602Y-73501697D01*
X54388961Y-73497733D01*
X54392638Y-73494056D01*
X54403892Y-73478308D01*
X54407398Y-73473638D01*
X54439156Y-73433353D01*
X54442188Y-73424719D01*
X54447514Y-73417266D01*
X54462203Y-73368150D01*
X54464036Y-73362508D01*
X54478390Y-73321633D01*
X54478390Y-73321632D01*
X54481018Y-73314149D01*
X54481500Y-73308584D01*
X54481500Y-73305876D01*
X54481614Y-73303242D01*
X54481643Y-73303144D01*
X54481807Y-73303151D01*
X54481851Y-73302447D01*
X54483713Y-73296222D01*
X54481597Y-73242365D01*
X54481500Y-73237418D01*
X54481500Y-69977000D01*
X56844715Y-69977000D01*
X56845793Y-69985188D01*
X56859945Y-70092682D01*
X56863772Y-70121754D01*
X56866931Y-70129380D01*
X56916114Y-70248117D01*
X56919645Y-70256642D01*
X56938835Y-70281651D01*
X57003314Y-70365681D01*
X57008526Y-70372474D01*
X57015076Y-70377500D01*
X57015079Y-70377503D01*
X57115220Y-70454344D01*
X57124357Y-70461355D01*
X57259246Y-70517228D01*
X57267434Y-70518306D01*
X57279633Y-70519912D01*
X57387612Y-70534128D01*
X57452538Y-70562849D01*
X57460260Y-70569954D01*
X57501595Y-70611289D01*
X57535621Y-70673601D01*
X57538500Y-70700384D01*
X57538500Y-81359080D01*
X57535951Y-81383028D01*
X57535872Y-81384693D01*
X57533680Y-81394876D01*
X57534904Y-81405217D01*
X57537627Y-81428223D01*
X57537977Y-81434154D01*
X57538072Y-81434146D01*
X57538500Y-81439324D01*
X57538500Y-81444524D01*
X57539354Y-81449653D01*
X57539354Y-81449656D01*
X57541669Y-81463565D01*
X57542506Y-81469443D01*
X57546514Y-81503303D01*
X57548530Y-81520341D01*
X57552493Y-81528593D01*
X57553996Y-81537626D01*
X57558943Y-81546795D01*
X57558944Y-81546797D01*
X57578334Y-81582732D01*
X57581031Y-81588025D01*
X57599785Y-81627082D01*
X57599788Y-81627086D01*
X57603219Y-81634232D01*
X57606814Y-81638508D01*
X57608737Y-81640431D01*
X57610509Y-81642363D01*
X57610552Y-81642442D01*
X57610428Y-81642555D01*
X57610904Y-81643095D01*
X57613990Y-81648814D01*
X57621635Y-81655881D01*
X57653586Y-81685416D01*
X57657152Y-81688846D01*
X58208046Y-82239740D01*
X58242072Y-82302052D01*
X58243873Y-82312389D01*
X58255534Y-82400964D01*
X58260772Y-82440754D01*
X58316645Y-82575642D01*
X58405526Y-82691474D01*
X58412076Y-82696500D01*
X58412079Y-82696503D01*
X58514804Y-82775327D01*
X58521357Y-82780355D01*
X58656246Y-82836228D01*
X58664434Y-82837306D01*
X58728623Y-82845756D01*
X58801000Y-82855285D01*
X58809188Y-82854207D01*
X58937566Y-82837306D01*
X58945754Y-82836228D01*
X59080643Y-82780355D01*
X59087196Y-82775327D01*
X59189921Y-82696503D01*
X59189924Y-82696500D01*
X59196474Y-82691474D01*
X59285355Y-82575642D01*
X59341228Y-82440754D01*
X59346467Y-82400964D01*
X59359207Y-82304188D01*
X59360285Y-82296000D01*
X59345116Y-82180778D01*
X59342306Y-82159432D01*
X59342305Y-82159430D01*
X59341228Y-82151246D01*
X59285355Y-82016358D01*
X59196474Y-81900526D01*
X59189924Y-81895500D01*
X59189921Y-81895497D01*
X59087196Y-81816673D01*
X59087194Y-81816672D01*
X59080643Y-81811645D01*
X58945754Y-81755772D01*
X58817388Y-81738872D01*
X58752462Y-81710151D01*
X58744740Y-81703046D01*
X58334405Y-81292711D01*
X58300379Y-81230399D01*
X58297500Y-81203616D01*
X58297500Y-70544920D01*
X58300049Y-70520972D01*
X58300128Y-70519307D01*
X58302320Y-70509124D01*
X58298373Y-70475777D01*
X58298023Y-70469846D01*
X58297928Y-70469854D01*
X58297500Y-70464676D01*
X58297500Y-70459476D01*
X58295581Y-70447948D01*
X58294331Y-70440435D01*
X58293494Y-70434557D01*
X58288694Y-70393999D01*
X58288694Y-70393998D01*
X58287470Y-70383659D01*
X58283507Y-70375407D01*
X58282004Y-70366374D01*
X58275094Y-70353566D01*
X58257666Y-70321268D01*
X58254969Y-70315975D01*
X58236213Y-70276913D01*
X58236209Y-70276907D01*
X58232781Y-70269768D01*
X58229187Y-70265492D01*
X58227248Y-70263553D01*
X58225492Y-70261638D01*
X58225445Y-70261552D01*
X58225567Y-70261439D01*
X58225095Y-70260904D01*
X58222010Y-70255186D01*
X58199983Y-70234824D01*
X58182426Y-70218595D01*
X58178860Y-70215165D01*
X57996954Y-70033259D01*
X57962928Y-69970947D01*
X57961127Y-69960610D01*
X57960315Y-69954438D01*
X57944228Y-69832246D01*
X57910366Y-69750497D01*
X57891515Y-69704986D01*
X57891514Y-69704984D01*
X57888355Y-69697358D01*
X57799474Y-69581526D01*
X57792924Y-69576500D01*
X57792921Y-69576497D01*
X57690196Y-69497673D01*
X57690194Y-69497672D01*
X57683643Y-69492645D01*
X57583157Y-69451022D01*
X57556383Y-69439932D01*
X57548754Y-69436772D01*
X57404000Y-69417715D01*
X57395812Y-69418793D01*
X57267432Y-69435694D01*
X57267430Y-69435695D01*
X57259246Y-69436772D01*
X57224844Y-69451022D01*
X57131986Y-69489485D01*
X57131984Y-69489486D01*
X57124358Y-69492645D01*
X57060013Y-69542019D01*
X57032051Y-69563475D01*
X57008526Y-69581526D01*
X56919645Y-69697358D01*
X56916486Y-69704984D01*
X56916485Y-69704986D01*
X56897634Y-69750497D01*
X56863772Y-69832246D01*
X56862695Y-69840430D01*
X56862694Y-69840432D01*
X56852501Y-69917857D01*
X56844715Y-69977000D01*
X54481500Y-69977000D01*
X54481500Y-69805384D01*
X54501502Y-69737263D01*
X54518405Y-69716289D01*
X55691694Y-68543000D01*
X59390715Y-68543000D01*
X59391793Y-68551188D01*
X59402753Y-68634436D01*
X59409772Y-68687754D01*
X59465645Y-68822642D01*
X59554526Y-68938474D01*
X59561076Y-68943500D01*
X59561079Y-68943503D01*
X59663804Y-69022327D01*
X59670357Y-69027355D01*
X59805246Y-69083228D01*
X59933612Y-69100128D01*
X59998538Y-69128849D01*
X60006260Y-69135954D01*
X63089595Y-72219289D01*
X63123621Y-72281601D01*
X63126500Y-72308384D01*
X63126500Y-80851080D01*
X63123951Y-80875028D01*
X63123872Y-80876693D01*
X63121680Y-80886876D01*
X63122904Y-80897217D01*
X63125627Y-80920223D01*
X63125977Y-80926154D01*
X63126072Y-80926146D01*
X63126500Y-80931324D01*
X63126500Y-80936524D01*
X63127354Y-80941653D01*
X63127354Y-80941656D01*
X63129669Y-80955565D01*
X63130506Y-80961443D01*
X63136530Y-81012341D01*
X63140493Y-81020593D01*
X63141996Y-81029626D01*
X63146943Y-81038795D01*
X63146944Y-81038797D01*
X63166334Y-81074732D01*
X63169031Y-81080025D01*
X63187785Y-81119082D01*
X63187788Y-81119086D01*
X63191219Y-81126232D01*
X63194814Y-81130508D01*
X63196737Y-81132431D01*
X63198509Y-81134363D01*
X63198552Y-81134442D01*
X63198428Y-81134555D01*
X63198904Y-81135095D01*
X63201990Y-81140814D01*
X63209635Y-81147881D01*
X63241586Y-81177416D01*
X63245152Y-81180846D01*
X64304046Y-82239740D01*
X64338072Y-82302052D01*
X64339873Y-82312389D01*
X64351534Y-82400964D01*
X64356772Y-82440754D01*
X64412645Y-82575642D01*
X64501526Y-82691474D01*
X64508076Y-82696500D01*
X64508079Y-82696503D01*
X64610804Y-82775327D01*
X64617357Y-82780355D01*
X64752246Y-82836228D01*
X64760434Y-82837306D01*
X64824623Y-82845756D01*
X64897000Y-82855285D01*
X64905188Y-82854207D01*
X65033566Y-82837306D01*
X65041754Y-82836228D01*
X65176643Y-82780355D01*
X65183196Y-82775327D01*
X65285921Y-82696503D01*
X65285924Y-82696500D01*
X65292474Y-82691474D01*
X65381355Y-82575642D01*
X65437228Y-82440754D01*
X65442467Y-82400964D01*
X65447281Y-82364393D01*
X70472464Y-82364393D01*
X70472761Y-82369546D01*
X70472761Y-82369549D01*
X70478013Y-82460641D01*
X70485285Y-82586756D01*
X70486422Y-82591802D01*
X70486423Y-82591808D01*
X70507385Y-82684820D01*
X70534252Y-82804039D01*
X70536194Y-82808821D01*
X70536195Y-82808825D01*
X70616105Y-83005620D01*
X70618049Y-83010407D01*
X70734426Y-83200317D01*
X70880258Y-83368670D01*
X71051628Y-83510944D01*
X71131431Y-83557577D01*
X71180154Y-83609214D01*
X71193225Y-83678997D01*
X71166494Y-83744769D01*
X71126042Y-83778127D01*
X71111793Y-83785545D01*
X71103077Y-83791033D01*
X71083733Y-83805557D01*
X71075279Y-83816884D01*
X71082024Y-83829214D01*
X71818388Y-84565578D01*
X71832332Y-84573192D01*
X71834165Y-84573061D01*
X71840780Y-84568810D01*
X72581741Y-83827849D01*
X72588761Y-83814993D01*
X72582073Y-83805813D01*
X72578539Y-83803465D01*
X72535990Y-83779977D01*
X72486020Y-83729544D01*
X72471248Y-83660101D01*
X72496364Y-83593696D01*
X72527605Y-83565702D01*
X72527139Y-83565048D01*
X72704265Y-83438706D01*
X72704267Y-83438704D01*
X72708469Y-83435707D01*
X72866239Y-83278487D01*
X72996212Y-83097610D01*
X73039311Y-83010407D01*
X73092604Y-82902576D01*
X73092605Y-82902574D01*
X73094898Y-82897934D01*
X73139075Y-82752532D01*
X73158145Y-82689764D01*
X73158145Y-82689763D01*
X73159647Y-82684820D01*
X73163883Y-82652644D01*
X73188282Y-82467316D01*
X73188282Y-82467310D01*
X73188719Y-82463994D01*
X73190342Y-82397600D01*
X73172092Y-82175617D01*
X73117831Y-81959595D01*
X73052127Y-81808485D01*
X73031077Y-81760073D01*
X73031075Y-81760070D01*
X73029017Y-81755336D01*
X73018367Y-81738873D01*
X72910845Y-81572670D01*
X72910840Y-81572664D01*
X72908034Y-81568326D01*
X72896171Y-81555288D01*
X72761611Y-81407408D01*
X72761609Y-81407406D01*
X72758133Y-81403586D01*
X72754082Y-81400387D01*
X72754078Y-81400383D01*
X72587396Y-81268747D01*
X72583338Y-81265542D01*
X72471160Y-81203616D01*
X72392875Y-81160400D01*
X72392872Y-81160399D01*
X72388344Y-81157899D01*
X72263385Y-81113649D01*
X72183259Y-81085275D01*
X72183256Y-81085274D01*
X72178387Y-81083550D01*
X72173298Y-81082643D01*
X72173296Y-81082643D01*
X71964196Y-81045396D01*
X71964190Y-81045395D01*
X71959107Y-81044490D01*
X71885294Y-81043588D01*
X71741561Y-81041832D01*
X71741559Y-81041832D01*
X71736391Y-81041769D01*
X71516222Y-81075459D01*
X71304511Y-81144657D01*
X71299923Y-81147045D01*
X71299919Y-81147047D01*
X71111534Y-81245114D01*
X71106945Y-81247503D01*
X71102812Y-81250606D01*
X71102809Y-81250608D01*
X70932965Y-81378131D01*
X70928830Y-81381236D01*
X70774948Y-81542264D01*
X70649433Y-81726263D01*
X70647260Y-81730945D01*
X70647258Y-81730948D01*
X70634269Y-81758932D01*
X70555655Y-81928291D01*
X70496132Y-82142922D01*
X70472464Y-82364393D01*
X65447281Y-82364393D01*
X65455207Y-82304188D01*
X65456285Y-82296000D01*
X65441116Y-82180778D01*
X65438306Y-82159432D01*
X65438305Y-82159430D01*
X65437228Y-82151246D01*
X65381355Y-82016358D01*
X65292474Y-81900526D01*
X65285924Y-81895500D01*
X65285921Y-81895497D01*
X65183196Y-81816673D01*
X65183194Y-81816672D01*
X65176643Y-81811645D01*
X65041754Y-81755772D01*
X64913388Y-81738872D01*
X64848462Y-81710151D01*
X64840740Y-81703046D01*
X63922405Y-80784711D01*
X63888379Y-80722399D01*
X63885500Y-80695616D01*
X63885500Y-77069464D01*
X70839148Y-77069464D01*
X70852424Y-77272022D01*
X70853845Y-77277618D01*
X70853846Y-77277623D01*
X70874119Y-77357445D01*
X70902392Y-77468769D01*
X70904809Y-77474012D01*
X70942010Y-77554708D01*
X70987377Y-77653116D01*
X70990710Y-77657832D01*
X71086859Y-77793880D01*
X71104533Y-77818889D01*
X71108675Y-77822924D01*
X71165637Y-77878413D01*
X71249938Y-77960535D01*
X71254742Y-77963745D01*
X71320732Y-78007838D01*
X71418720Y-78073312D01*
X71424023Y-78075590D01*
X71424026Y-78075592D01*
X71512707Y-78113692D01*
X71605228Y-78153442D01*
X71678244Y-78169964D01*
X71797579Y-78196967D01*
X71797584Y-78196968D01*
X71803216Y-78198242D01*
X71808987Y-78198469D01*
X71808989Y-78198469D01*
X71868756Y-78200817D01*
X72006053Y-78206212D01*
X72106499Y-78191648D01*
X72201231Y-78177913D01*
X72201236Y-78177912D01*
X72206945Y-78177084D01*
X72212409Y-78175229D01*
X72212414Y-78175228D01*
X72393693Y-78113692D01*
X72393698Y-78113690D01*
X72399165Y-78111834D01*
X72576276Y-78012647D01*
X72582059Y-78007838D01*
X72727913Y-77886531D01*
X72732345Y-77882845D01*
X72789463Y-77814169D01*
X72858453Y-77731218D01*
X72858455Y-77731215D01*
X72862147Y-77726776D01*
X72961334Y-77549665D01*
X72963190Y-77544198D01*
X72963192Y-77544193D01*
X73024728Y-77362914D01*
X73024729Y-77362909D01*
X73026584Y-77357445D01*
X73027412Y-77351736D01*
X73027413Y-77351731D01*
X73055179Y-77160227D01*
X73055712Y-77156553D01*
X73057232Y-77098500D01*
X73038658Y-76896359D01*
X73037090Y-76890799D01*
X72985125Y-76706546D01*
X72985124Y-76706544D01*
X72983557Y-76700987D01*
X72972978Y-76679533D01*
X72896331Y-76524109D01*
X72893776Y-76518928D01*
X72772320Y-76356279D01*
X72623258Y-76218487D01*
X72618375Y-76215406D01*
X72618371Y-76215403D01*
X72456464Y-76113248D01*
X72451581Y-76110167D01*
X72263039Y-76034946D01*
X72257379Y-76033820D01*
X72257375Y-76033819D01*
X72069613Y-75996471D01*
X72069610Y-75996471D01*
X72063946Y-75995344D01*
X72058171Y-75995268D01*
X72058167Y-75995268D01*
X71956793Y-75993941D01*
X71860971Y-75992687D01*
X71855274Y-75993666D01*
X71855273Y-75993666D01*
X71666607Y-76026085D01*
X71660910Y-76027064D01*
X71470463Y-76097324D01*
X71296010Y-76201112D01*
X71291670Y-76204918D01*
X71291666Y-76204921D01*
X71271723Y-76222411D01*
X71143392Y-76334955D01*
X71017720Y-76494369D01*
X71015031Y-76499480D01*
X71015029Y-76499483D01*
X71002073Y-76524109D01*
X70923203Y-76674015D01*
X70863007Y-76867878D01*
X70839148Y-77069464D01*
X63885500Y-77069464D01*
X63885500Y-72152920D01*
X63888049Y-72128973D01*
X63888128Y-72127307D01*
X63890320Y-72117124D01*
X63889096Y-72106782D01*
X63889096Y-72106779D01*
X63886374Y-72083787D01*
X63886023Y-72077846D01*
X63885928Y-72077854D01*
X63885500Y-72072674D01*
X63885500Y-72067476D01*
X63884571Y-72061891D01*
X63882329Y-72048427D01*
X63881492Y-72042547D01*
X63876693Y-72001997D01*
X63876692Y-72001995D01*
X63875469Y-71991659D01*
X63871508Y-71983410D01*
X63870004Y-71974374D01*
X63865056Y-71965203D01*
X63845652Y-71929240D01*
X63842957Y-71923951D01*
X63824212Y-71884915D01*
X63820780Y-71877768D01*
X63817186Y-71873492D01*
X63815246Y-71871552D01*
X63813493Y-71869641D01*
X63813444Y-71869551D01*
X63813567Y-71869439D01*
X63813095Y-71868904D01*
X63810010Y-71863186D01*
X63770413Y-71826583D01*
X63766848Y-71823154D01*
X63049303Y-71105609D01*
X66096975Y-71105609D01*
X66097491Y-71111752D01*
X66111855Y-71282799D01*
X66112639Y-71292139D01*
X66114338Y-71298064D01*
X66158779Y-71453046D01*
X66164235Y-71472075D01*
X66249797Y-71638562D01*
X66253620Y-71643386D01*
X66253623Y-71643390D01*
X66276194Y-71671867D01*
X66366068Y-71785259D01*
X66370762Y-71789254D01*
X66493763Y-71893936D01*
X66508618Y-71906579D01*
X66513996Y-71909585D01*
X66513998Y-71909586D01*
X66544502Y-71926634D01*
X66672018Y-71997900D01*
X66850043Y-72055744D01*
X67035914Y-72077908D01*
X67042049Y-72077436D01*
X67042051Y-72077436D01*
X67216408Y-72064020D01*
X67216413Y-72064019D01*
X67222549Y-72063547D01*
X67228479Y-72061891D01*
X67228481Y-72061891D01*
X67396913Y-72014864D01*
X67396912Y-72014864D01*
X67402841Y-72013209D01*
X67433148Y-71997900D01*
X67504104Y-71962057D01*
X67569921Y-71928810D01*
X67576141Y-71923951D01*
X67712571Y-71817360D01*
X67712572Y-71817360D01*
X67717427Y-71813566D01*
X67839738Y-71671867D01*
X67932198Y-71509108D01*
X67991283Y-71331491D01*
X68014744Y-71145780D01*
X68015118Y-71119000D01*
X67996852Y-70932706D01*
X67942749Y-70753509D01*
X67936185Y-70741163D01*
X67857764Y-70593674D01*
X67857762Y-70593671D01*
X67854870Y-70588232D01*
X67850980Y-70583462D01*
X67850977Y-70583458D01*
X67740457Y-70447948D01*
X67740454Y-70447945D01*
X67736562Y-70443173D01*
X67730457Y-70438122D01*
X67636918Y-70360740D01*
X67592332Y-70323855D01*
X67427673Y-70234824D01*
X67390977Y-70223465D01*
X67379629Y-70219952D01*
X67320469Y-70180701D01*
X67291922Y-70115697D01*
X67303051Y-70045578D01*
X67350322Y-69992606D01*
X67383007Y-69978228D01*
X67396724Y-69974398D01*
X67408159Y-69969963D01*
X67511309Y-69917857D01*
X67521595Y-69908210D01*
X67519357Y-69901567D01*
X67068812Y-69451022D01*
X67054868Y-69443408D01*
X67053035Y-69443539D01*
X67046420Y-69447790D01*
X66598142Y-69896068D01*
X66591382Y-69908448D01*
X66596291Y-69915006D01*
X66666847Y-69954438D01*
X66678076Y-69959343D01*
X66736444Y-69978308D01*
X66795050Y-70018381D01*
X66822687Y-70083778D01*
X66810580Y-70153735D01*
X66762574Y-70206041D01*
X66733084Y-70219014D01*
X66702624Y-70227979D01*
X66702616Y-70227982D01*
X66696708Y-70229721D01*
X66530822Y-70316444D01*
X66526022Y-70320304D01*
X66526021Y-70320304D01*
X66517979Y-70326770D01*
X66384940Y-70433736D01*
X66264619Y-70577130D01*
X66261655Y-70582522D01*
X66261652Y-70582526D01*
X66199272Y-70695996D01*
X66174441Y-70741163D01*
X66172580Y-70747030D01*
X66172579Y-70747032D01*
X66119703Y-70913718D01*
X66117841Y-70919588D01*
X66096975Y-71105609D01*
X63049303Y-71105609D01*
X61015453Y-69071759D01*
X66097993Y-69071759D01*
X66112617Y-69245907D01*
X66114832Y-69257974D01*
X66163002Y-69425966D01*
X66167517Y-69437370D01*
X66217253Y-69534145D01*
X66226971Y-69544363D01*
X66233771Y-69542019D01*
X66683978Y-69091812D01*
X66690356Y-69080132D01*
X67420408Y-69080132D01*
X67420539Y-69081965D01*
X67424790Y-69088580D01*
X67873054Y-69536844D01*
X67885434Y-69543604D01*
X67892167Y-69538563D01*
X67928696Y-69474261D01*
X67933685Y-69463055D01*
X67988847Y-69297232D01*
X67991567Y-69285261D01*
X68013799Y-69109269D01*
X68014291Y-69102242D01*
X68014567Y-69082522D01*
X68014272Y-69075495D01*
X67996960Y-68898938D01*
X67994577Y-68886900D01*
X67944066Y-68719600D01*
X67939392Y-68708259D01*
X67894632Y-68624079D01*
X67884772Y-68613997D01*
X67877644Y-68616566D01*
X67428022Y-69066188D01*
X67420408Y-69080132D01*
X66690356Y-69080132D01*
X66691592Y-69077868D01*
X66691461Y-69076035D01*
X66687210Y-69069420D01*
X66238885Y-68621095D01*
X66226505Y-68614335D01*
X66220117Y-68619117D01*
X66177870Y-68695962D01*
X66173039Y-68707234D01*
X66120195Y-68873820D01*
X66117645Y-68885814D01*
X66098164Y-69059491D01*
X66097993Y-69071759D01*
X61015453Y-69071759D01*
X60542954Y-68599260D01*
X60508928Y-68536948D01*
X60507127Y-68526611D01*
X60506110Y-68518880D01*
X60497743Y-68455332D01*
X60491306Y-68406432D01*
X60491305Y-68406430D01*
X60490228Y-68398246D01*
X60434355Y-68263358D01*
X60424194Y-68250116D01*
X66590835Y-68250116D01*
X66593290Y-68257080D01*
X67043188Y-68706978D01*
X67057132Y-68714592D01*
X67058965Y-68714461D01*
X67065580Y-68710210D01*
X67513988Y-68261802D01*
X67520748Y-68249422D01*
X67516089Y-68243199D01*
X67432897Y-68198217D01*
X67421592Y-68193465D01*
X67254642Y-68141785D01*
X67242631Y-68139319D01*
X67068821Y-68121051D01*
X67056552Y-68120966D01*
X66882512Y-68136805D01*
X66870463Y-68139103D01*
X66702805Y-68188448D01*
X66691437Y-68193041D01*
X66600984Y-68240329D01*
X66590835Y-68250116D01*
X60424194Y-68250116D01*
X60345474Y-68147526D01*
X60338924Y-68142500D01*
X60338921Y-68142497D01*
X60236196Y-68063673D01*
X60236194Y-68063672D01*
X60229643Y-68058645D01*
X60094754Y-68002772D01*
X59950000Y-67983715D01*
X59941812Y-67984793D01*
X59813432Y-68001694D01*
X59813430Y-68001695D01*
X59805246Y-68002772D01*
X59757430Y-68022578D01*
X59677986Y-68055485D01*
X59677984Y-68055486D01*
X59670358Y-68058645D01*
X59589140Y-68120966D01*
X59565222Y-68139319D01*
X59554526Y-68147526D01*
X59465645Y-68263358D01*
X59409772Y-68398246D01*
X59408695Y-68406430D01*
X59408694Y-68406432D01*
X59401690Y-68459633D01*
X59390715Y-68543000D01*
X55691694Y-68543000D01*
X57507216Y-66727478D01*
X57525964Y-66712336D01*
X57527189Y-66711221D01*
X57535940Y-66705571D01*
X57542387Y-66697393D01*
X57542389Y-66697391D01*
X57556729Y-66679200D01*
X57560675Y-66674759D01*
X57560602Y-66674697D01*
X57563961Y-66670733D01*
X57567638Y-66667056D01*
X57578892Y-66651308D01*
X57582398Y-66646638D01*
X57614156Y-66606353D01*
X57617188Y-66597719D01*
X57622514Y-66590266D01*
X57637203Y-66541150D01*
X57639036Y-66535508D01*
X57653390Y-66494633D01*
X57653390Y-66494632D01*
X57656018Y-66487149D01*
X57656500Y-66481584D01*
X57656500Y-66478876D01*
X57656614Y-66476242D01*
X57656643Y-66476144D01*
X57656807Y-66476151D01*
X57656851Y-66475447D01*
X57658713Y-66469222D01*
X57656597Y-66415365D01*
X57656500Y-66410418D01*
X57656500Y-66372064D01*
X57676502Y-66303943D01*
X57682537Y-66295360D01*
X57756328Y-66199193D01*
X57761355Y-66192642D01*
X57817228Y-66057754D01*
X57836285Y-65913000D01*
X57817228Y-65768246D01*
X57761355Y-65633358D01*
X57672474Y-65517526D01*
X57665924Y-65512500D01*
X57665921Y-65512497D01*
X57563196Y-65433673D01*
X57563194Y-65433672D01*
X57556643Y-65428645D01*
X57421754Y-65372772D01*
X57277000Y-65353715D01*
X57268812Y-65354793D01*
X57140432Y-65371694D01*
X57140430Y-65371695D01*
X57132246Y-65372772D01*
X57084430Y-65392578D01*
X57004986Y-65425485D01*
X57004984Y-65425486D01*
X56997358Y-65428645D01*
X56881526Y-65517526D01*
X56792645Y-65633358D01*
X56736772Y-65768246D01*
X56717715Y-65913000D01*
X56736772Y-66057754D01*
X56792645Y-66192642D01*
X56797672Y-66199193D01*
X56801804Y-66204578D01*
X56827402Y-66270799D01*
X56813134Y-66340348D01*
X56790933Y-66370373D01*
X56474595Y-66686711D01*
X56412283Y-66720737D01*
X56341468Y-66715672D01*
X56284632Y-66673125D01*
X56259821Y-66606605D01*
X56259500Y-66597616D01*
X56259500Y-64467064D01*
X56279502Y-64398943D01*
X56285537Y-64390360D01*
X56359328Y-64294193D01*
X56364355Y-64287642D01*
X56378429Y-64253666D01*
X56417069Y-64160380D01*
X56420228Y-64152754D01*
X56439285Y-64008000D01*
X56420228Y-63863246D01*
X56383703Y-63775067D01*
X56367515Y-63735986D01*
X56367514Y-63735984D01*
X56364355Y-63728358D01*
X56275474Y-63612526D01*
X56268924Y-63607500D01*
X56268921Y-63607497D01*
X56166196Y-63528673D01*
X56166194Y-63528672D01*
X56159643Y-63523645D01*
X56042779Y-63475238D01*
X56032383Y-63470932D01*
X56024754Y-63467772D01*
X55880000Y-63448715D01*
X55871812Y-63449793D01*
X55743432Y-63466694D01*
X55743430Y-63466695D01*
X55735246Y-63467772D01*
X55718714Y-63474620D01*
X55607986Y-63520485D01*
X55607984Y-63520486D01*
X55600358Y-63523645D01*
X55484526Y-63612526D01*
X55395645Y-63728358D01*
X55392486Y-63735984D01*
X55392485Y-63735986D01*
X55376297Y-63775067D01*
X55339772Y-63863246D01*
X55320715Y-64008000D01*
X55339772Y-64152754D01*
X55342931Y-64160380D01*
X55381572Y-64253666D01*
X55395645Y-64287642D01*
X55400672Y-64294193D01*
X55474463Y-64390360D01*
X55500063Y-64456581D01*
X55500500Y-64467064D01*
X55500500Y-66972220D01*
X55480498Y-67040341D01*
X55463595Y-67061315D01*
X53363784Y-69161126D01*
X53345036Y-69176268D01*
X53343811Y-69177383D01*
X53335060Y-69183033D01*
X53328613Y-69191211D01*
X53328611Y-69191213D01*
X53314271Y-69209404D01*
X53310325Y-69213845D01*
X53310398Y-69213907D01*
X53307039Y-69217871D01*
X53303362Y-69221548D01*
X53292108Y-69237296D01*
X53288602Y-69241966D01*
X53256844Y-69282251D01*
X53253812Y-69290885D01*
X53248486Y-69298338D01*
X53245501Y-69308319D01*
X53233799Y-69347448D01*
X53231964Y-69353096D01*
X53214982Y-69401455D01*
X53214500Y-69407020D01*
X53214500Y-69408416D01*
X53212630Y-69417101D01*
X53209677Y-69416465D01*
X53189032Y-69469405D01*
X53131572Y-69511105D01*
X53060689Y-69515120D01*
X53000199Y-69481505D01*
X50835405Y-67316711D01*
X50801379Y-67254399D01*
X50798500Y-67227616D01*
X50798500Y-64086064D01*
X50818502Y-64017943D01*
X50824537Y-64009360D01*
X50898328Y-63913193D01*
X50903355Y-63906642D01*
X50921331Y-63863246D01*
X50956069Y-63779380D01*
X50959228Y-63771754D01*
X50964842Y-63729115D01*
X50977207Y-63635188D01*
X50978285Y-63627000D01*
X50969002Y-63556487D01*
X50960306Y-63490432D01*
X50960305Y-63490430D01*
X50959228Y-63482246D01*
X50914568Y-63374428D01*
X50906515Y-63354986D01*
X50906513Y-63354983D01*
X50903355Y-63347358D01*
X50858914Y-63289442D01*
X50819501Y-63238077D01*
X50819500Y-63238076D01*
X50814474Y-63231526D01*
X50807924Y-63226500D01*
X50807921Y-63226497D01*
X50705196Y-63147673D01*
X50705194Y-63147672D01*
X50698643Y-63142645D01*
X50563754Y-63086772D01*
X50419000Y-63067715D01*
X50410812Y-63068793D01*
X50282432Y-63085694D01*
X50282430Y-63085695D01*
X50274246Y-63086772D01*
X50227044Y-63106324D01*
X50146986Y-63139485D01*
X50146984Y-63139486D01*
X50139358Y-63142645D01*
X50023526Y-63231526D01*
X49934645Y-63347358D01*
X49931487Y-63354983D01*
X49931485Y-63354986D01*
X49923432Y-63374428D01*
X49878772Y-63482246D01*
X49877695Y-63490430D01*
X49877694Y-63490432D01*
X49868998Y-63556487D01*
X49859715Y-63627000D01*
X43274499Y-63627000D01*
X43274499Y-62968934D01*
X43263964Y-62915967D01*
X43262156Y-62906874D01*
X43262155Y-62906872D01*
X43259734Y-62894699D01*
X43250972Y-62881585D01*
X43239890Y-62865000D01*
X59257715Y-62865000D01*
X59258793Y-62873188D01*
X59271374Y-62968748D01*
X59276772Y-63009754D01*
X59332645Y-63144642D01*
X59362896Y-63184066D01*
X59395455Y-63226497D01*
X59421526Y-63260474D01*
X59428076Y-63265500D01*
X59428079Y-63265503D01*
X59526217Y-63340807D01*
X59537357Y-63349355D01*
X59672246Y-63405228D01*
X59817000Y-63424285D01*
X59825188Y-63423207D01*
X59953566Y-63406306D01*
X59961754Y-63405228D01*
X60096643Y-63349355D01*
X60107783Y-63340807D01*
X60205921Y-63265503D01*
X60205924Y-63265500D01*
X60212474Y-63260474D01*
X60238546Y-63226497D01*
X60271104Y-63184066D01*
X60301355Y-63144642D01*
X60357228Y-63009754D01*
X60362627Y-62968748D01*
X60370772Y-62906874D01*
X60374128Y-62881388D01*
X60402849Y-62816462D01*
X60409954Y-62808740D01*
X60874025Y-62344669D01*
X68592621Y-62344669D01*
X68593421Y-62351001D01*
X68596506Y-62375422D01*
X68597500Y-62391214D01*
X68597500Y-73479807D01*
X68597451Y-73483326D01*
X68595477Y-73554000D01*
X68595031Y-73569947D01*
X68596140Y-73576236D01*
X68605551Y-73629611D01*
X68606820Y-73638756D01*
X68611825Y-73688031D01*
X68612942Y-73699024D01*
X68614850Y-73705112D01*
X68614850Y-73705113D01*
X68621596Y-73726640D01*
X68625446Y-73742437D01*
X68630468Y-73770916D01*
X68648428Y-73816279D01*
X68652766Y-73827236D01*
X68655847Y-73835936D01*
X68673967Y-73893755D01*
X68687987Y-73919047D01*
X68694937Y-73933749D01*
X68703240Y-73954721D01*
X68703243Y-73954726D01*
X68705590Y-73960655D01*
X68709080Y-73965988D01*
X68709085Y-73965998D01*
X68738768Y-74011358D01*
X68743537Y-74019263D01*
X68772902Y-74072238D01*
X68777051Y-74077079D01*
X68777054Y-74077083D01*
X68791721Y-74094194D01*
X68801487Y-74107202D01*
X68814674Y-74127355D01*
X68814684Y-74127368D01*
X68817331Y-74131413D01*
X68820571Y-74135011D01*
X68820699Y-74135154D01*
X68820713Y-74135168D01*
X68821819Y-74136397D01*
X68860894Y-74175472D01*
X68867467Y-74182569D01*
X68905705Y-74227182D01*
X68912716Y-74232620D01*
X68930201Y-74246183D01*
X68942070Y-74256648D01*
X69942729Y-75257306D01*
X69945183Y-75259828D01*
X70004754Y-75322823D01*
X70009979Y-75326481D01*
X70009983Y-75326485D01*
X70054390Y-75357578D01*
X70061731Y-75363130D01*
X70108690Y-75401429D01*
X70134332Y-75414835D01*
X70148219Y-75423278D01*
X70171918Y-75439872D01*
X70177772Y-75442405D01*
X70177775Y-75442407D01*
X70227517Y-75463932D01*
X70235832Y-75467897D01*
X70289537Y-75495974D01*
X70295664Y-75497731D01*
X70295669Y-75497733D01*
X70317344Y-75503948D01*
X70332653Y-75509430D01*
X70353338Y-75518381D01*
X70353346Y-75518384D01*
X70359203Y-75520918D01*
X70365453Y-75522224D01*
X70365454Y-75522224D01*
X70380768Y-75525423D01*
X70418505Y-75533307D01*
X70427448Y-75535519D01*
X70485701Y-75552223D01*
X70512065Y-75554252D01*
X70514547Y-75554443D01*
X70530643Y-75556734D01*
X70554225Y-75561660D01*
X70554226Y-75561660D01*
X70558960Y-75562649D01*
X70565658Y-75563000D01*
X70620916Y-75563000D01*
X70630583Y-75563371D01*
X70682809Y-75567390D01*
X70682813Y-75567390D01*
X70689169Y-75567879D01*
X70719921Y-75563994D01*
X70735714Y-75563000D01*
X71461899Y-75563000D01*
X71511636Y-75573232D01*
X71605228Y-75613442D01*
X71665031Y-75626974D01*
X71797579Y-75656967D01*
X71797584Y-75656968D01*
X71803216Y-75658242D01*
X71808987Y-75658469D01*
X71808989Y-75658469D01*
X71868756Y-75660817D01*
X72006053Y-75666212D01*
X72106499Y-75651648D01*
X72201231Y-75637913D01*
X72201236Y-75637912D01*
X72206945Y-75637084D01*
X72212409Y-75635229D01*
X72212414Y-75635228D01*
X72393693Y-75573692D01*
X72393698Y-75573690D01*
X72399165Y-75571834D01*
X72406228Y-75567879D01*
X72510595Y-75509430D01*
X72576276Y-75472647D01*
X72581976Y-75467907D01*
X72711452Y-75360222D01*
X72732345Y-75342845D01*
X72766339Y-75301972D01*
X72858453Y-75191218D01*
X72858455Y-75191215D01*
X72862147Y-75186776D01*
X72961334Y-75009665D01*
X72963190Y-75004198D01*
X72963192Y-75004193D01*
X73024728Y-74822914D01*
X73024729Y-74822909D01*
X73026584Y-74817445D01*
X73027412Y-74811736D01*
X73027413Y-74811731D01*
X73044991Y-74690496D01*
X73055712Y-74616553D01*
X73057232Y-74558500D01*
X73040950Y-74381305D01*
X73039187Y-74362113D01*
X73039186Y-74362110D01*
X73038658Y-74356359D01*
X73037090Y-74350799D01*
X72985125Y-74166546D01*
X72985124Y-74166544D01*
X72983557Y-74160987D01*
X72970748Y-74135011D01*
X72896331Y-73984109D01*
X72893776Y-73978928D01*
X72772320Y-73816279D01*
X72623258Y-73678487D01*
X72618375Y-73675406D01*
X72618371Y-73675403D01*
X72456464Y-73573248D01*
X72451581Y-73570167D01*
X72263039Y-73494946D01*
X72257379Y-73493820D01*
X72257375Y-73493819D01*
X72069613Y-73456471D01*
X72069610Y-73456471D01*
X72063946Y-73455344D01*
X72058171Y-73455268D01*
X72058167Y-73455268D01*
X71956793Y-73453941D01*
X71860971Y-73452687D01*
X71855274Y-73453666D01*
X71855273Y-73453666D01*
X71666607Y-73486085D01*
X71660910Y-73487064D01*
X71537559Y-73532571D01*
X71500583Y-73546212D01*
X71456972Y-73554000D01*
X71132769Y-73554000D01*
X71064648Y-73533998D01*
X71043674Y-73517096D01*
X70643405Y-73116828D01*
X70609380Y-73054515D01*
X70606500Y-73027732D01*
X70606500Y-72231696D01*
X70626502Y-72163575D01*
X70680158Y-72117082D01*
X70750432Y-72106978D01*
X70815012Y-72136472D01*
X70854623Y-72200680D01*
X70902392Y-72388769D01*
X70904809Y-72394012D01*
X70939024Y-72468231D01*
X70987377Y-72573116D01*
X70990710Y-72577832D01*
X71084290Y-72710245D01*
X71104533Y-72738889D01*
X71249938Y-72880535D01*
X71254742Y-72883745D01*
X71280891Y-72901217D01*
X71418720Y-72993312D01*
X71424023Y-72995590D01*
X71424026Y-72995592D01*
X71561174Y-73054515D01*
X71605228Y-73073442D01*
X71675567Y-73089358D01*
X71797579Y-73116967D01*
X71797584Y-73116968D01*
X71803216Y-73118242D01*
X71808987Y-73118469D01*
X71808989Y-73118469D01*
X71868756Y-73120817D01*
X72006053Y-73126212D01*
X72106499Y-73111648D01*
X72201231Y-73097913D01*
X72201236Y-73097912D01*
X72206945Y-73097084D01*
X72212409Y-73095229D01*
X72212414Y-73095228D01*
X72399165Y-73031834D01*
X72399418Y-73032580D01*
X72444488Y-73023000D01*
X72866296Y-73023000D01*
X72869815Y-73023049D01*
X72950054Y-73025291D01*
X72950057Y-73025291D01*
X72956436Y-73025469D01*
X72970928Y-73022914D01*
X73016100Y-73014949D01*
X73025245Y-73013680D01*
X73079163Y-73008203D01*
X73085513Y-73007558D01*
X73113128Y-72998904D01*
X73128926Y-72995054D01*
X73151111Y-72991142D01*
X73151112Y-72991142D01*
X73157405Y-72990032D01*
X73213726Y-72967734D01*
X73222425Y-72964653D01*
X73238872Y-72959498D01*
X73280244Y-72946533D01*
X73305536Y-72932513D01*
X73320238Y-72925563D01*
X73341210Y-72917260D01*
X73341215Y-72917257D01*
X73347144Y-72914910D01*
X73352477Y-72911420D01*
X73352487Y-72911415D01*
X73397847Y-72881732D01*
X73405752Y-72876963D01*
X73453148Y-72850691D01*
X73453151Y-72850689D01*
X73458727Y-72847598D01*
X73463568Y-72843449D01*
X73463572Y-72843446D01*
X73480683Y-72828779D01*
X73493691Y-72819013D01*
X73513844Y-72805826D01*
X73513857Y-72805816D01*
X73517902Y-72803169D01*
X73521513Y-72799918D01*
X73521643Y-72799801D01*
X73521657Y-72799787D01*
X73522886Y-72798681D01*
X73561961Y-72759606D01*
X73569058Y-72753033D01*
X73608824Y-72718949D01*
X73613671Y-72714795D01*
X73632672Y-72690299D01*
X73643137Y-72678430D01*
X74872823Y-71448744D01*
X74875345Y-71446290D01*
X74933689Y-71391117D01*
X74938323Y-71386735D01*
X74941983Y-71381508D01*
X74973072Y-71337109D01*
X74978642Y-71329745D01*
X75012893Y-71287748D01*
X75012894Y-71287746D01*
X75016929Y-71282799D01*
X75030333Y-71257158D01*
X75038781Y-71243265D01*
X75051710Y-71224802D01*
X75051713Y-71224796D01*
X75055372Y-71219571D01*
X75079433Y-71163970D01*
X75083408Y-71155636D01*
X75108520Y-71107601D01*
X75108521Y-71107599D01*
X75111473Y-71101952D01*
X75113228Y-71095831D01*
X75113231Y-71095824D01*
X75119445Y-71074152D01*
X75124927Y-71058843D01*
X75133883Y-71038147D01*
X75133886Y-71038137D01*
X75136418Y-71032286D01*
X75148809Y-70972975D01*
X75151027Y-70964013D01*
X75165963Y-70911924D01*
X75165964Y-70911920D01*
X75167722Y-70905788D01*
X75169941Y-70876944D01*
X75172231Y-70860855D01*
X75178149Y-70832529D01*
X75178500Y-70825831D01*
X75178500Y-70770560D01*
X75178871Y-70760893D01*
X75182889Y-70708680D01*
X75182889Y-70708676D01*
X75183378Y-70702320D01*
X75179492Y-70671560D01*
X75178500Y-70655782D01*
X75178500Y-59914112D01*
X75178549Y-59910593D01*
X75180791Y-59830354D01*
X75180791Y-59830351D01*
X75180969Y-59823972D01*
X75176128Y-59796515D01*
X75170449Y-59764308D01*
X75169180Y-59755163D01*
X75163703Y-59701245D01*
X75163058Y-59694895D01*
X75154404Y-59667279D01*
X75150554Y-59651482D01*
X75146642Y-59629297D01*
X75146642Y-59629296D01*
X75145532Y-59623003D01*
X75123234Y-59566682D01*
X75120153Y-59557983D01*
X75103942Y-59506257D01*
X75102033Y-59500164D01*
X75088013Y-59474872D01*
X75081063Y-59460170D01*
X75072760Y-59439198D01*
X75072757Y-59439193D01*
X75070410Y-59433264D01*
X75066920Y-59427931D01*
X75066915Y-59427921D01*
X75037232Y-59382561D01*
X75032463Y-59374656D01*
X75006191Y-59327260D01*
X75006189Y-59327257D01*
X75003098Y-59321681D01*
X74998949Y-59316840D01*
X74998946Y-59316836D01*
X74984279Y-59299725D01*
X74974513Y-59286717D01*
X74961326Y-59266564D01*
X74961316Y-59266551D01*
X74958669Y-59262506D01*
X74955418Y-59258895D01*
X74955301Y-59258765D01*
X74955287Y-59258751D01*
X74954181Y-59257522D01*
X74915106Y-59218447D01*
X74908533Y-59211350D01*
X74874449Y-59171584D01*
X74870295Y-59166737D01*
X74865250Y-59162823D01*
X74865245Y-59162819D01*
X74845803Y-59147738D01*
X74833934Y-59137275D01*
X73871835Y-58175177D01*
X73869381Y-58172654D01*
X73819285Y-58119679D01*
X73809827Y-58109677D01*
X73804602Y-58106019D01*
X73804598Y-58106015D01*
X73760191Y-58074922D01*
X73752850Y-58069370D01*
X73705891Y-58031071D01*
X73680249Y-58017665D01*
X73666362Y-58009222D01*
X73648404Y-57996648D01*
X73642663Y-57992628D01*
X73636809Y-57990095D01*
X73636806Y-57990093D01*
X73587064Y-57968568D01*
X73578749Y-57964603D01*
X73525044Y-57936526D01*
X73518917Y-57934769D01*
X73518912Y-57934767D01*
X73497237Y-57928552D01*
X73481928Y-57923070D01*
X73461243Y-57914119D01*
X73461235Y-57914116D01*
X73455378Y-57911582D01*
X73449128Y-57910276D01*
X73449127Y-57910276D01*
X73422531Y-57904720D01*
X73396076Y-57899193D01*
X73387133Y-57896981D01*
X73328880Y-57880277D01*
X73302516Y-57878248D01*
X73300034Y-57878057D01*
X73283938Y-57875766D01*
X73260356Y-57870840D01*
X73260355Y-57870840D01*
X73255621Y-57869851D01*
X73248923Y-57869500D01*
X73193665Y-57869500D01*
X73183998Y-57869129D01*
X73131772Y-57865110D01*
X73131768Y-57865110D01*
X73125412Y-57864621D01*
X73109652Y-57866612D01*
X73094659Y-57868506D01*
X73078867Y-57869500D01*
X72435266Y-57869500D01*
X72388576Y-57860530D01*
X72268411Y-57812589D01*
X72268409Y-57812588D01*
X72263039Y-57810446D01*
X72257371Y-57809319D01*
X72257369Y-57809318D01*
X72069613Y-57771971D01*
X72069610Y-57771971D01*
X72063946Y-57770844D01*
X72058171Y-57770768D01*
X72058167Y-57770768D01*
X71956793Y-57769441D01*
X71860971Y-57768187D01*
X71855274Y-57769166D01*
X71855273Y-57769166D01*
X71667748Y-57801389D01*
X71660910Y-57802564D01*
X71470463Y-57872824D01*
X71296010Y-57976612D01*
X71291670Y-57980418D01*
X71291666Y-57980421D01*
X71186924Y-58072278D01*
X71143392Y-58110455D01*
X71139817Y-58114990D01*
X71139816Y-58114991D01*
X71110722Y-58151897D01*
X71017720Y-58269869D01*
X71015031Y-58274980D01*
X71015029Y-58274983D01*
X70978174Y-58345033D01*
X70923203Y-58449515D01*
X70863007Y-58643378D01*
X70839148Y-58844964D01*
X70843642Y-58913526D01*
X70851234Y-59029358D01*
X70852424Y-59047522D01*
X70853845Y-59053118D01*
X70853846Y-59053123D01*
X70894963Y-59215017D01*
X70902392Y-59244269D01*
X70904809Y-59249512D01*
X70928459Y-59300812D01*
X70987377Y-59428616D01*
X70990710Y-59433332D01*
X71095081Y-59581014D01*
X71104533Y-59594389D01*
X71249938Y-59736035D01*
X71418720Y-59848812D01*
X71424023Y-59851090D01*
X71424026Y-59851092D01*
X71599921Y-59926662D01*
X71605228Y-59928942D01*
X71678244Y-59945464D01*
X71797579Y-59972467D01*
X71797584Y-59972468D01*
X71803216Y-59973742D01*
X71808987Y-59973969D01*
X71808989Y-59973969D01*
X71868756Y-59976317D01*
X72006053Y-59981712D01*
X72106499Y-59967148D01*
X72201231Y-59953413D01*
X72201236Y-59953412D01*
X72206945Y-59952584D01*
X72212409Y-59950729D01*
X72212414Y-59950728D01*
X72399165Y-59887334D01*
X72399418Y-59888080D01*
X72444488Y-59878500D01*
X72681813Y-59878500D01*
X72749934Y-59898502D01*
X72770908Y-59915405D01*
X73132595Y-60277092D01*
X73166621Y-60339404D01*
X73169500Y-60366187D01*
X73169500Y-60853157D01*
X73149498Y-60921278D01*
X73095842Y-60967771D01*
X73025568Y-60977875D01*
X72960988Y-60948381D01*
X72930494Y-60908885D01*
X72896331Y-60839609D01*
X72893776Y-60834428D01*
X72772320Y-60671779D01*
X72623258Y-60533987D01*
X72618375Y-60530906D01*
X72618371Y-60530903D01*
X72456464Y-60428748D01*
X72451581Y-60425667D01*
X72263039Y-60350446D01*
X72257379Y-60349320D01*
X72257375Y-60349319D01*
X72069613Y-60311971D01*
X72069610Y-60311971D01*
X72063946Y-60310844D01*
X72058171Y-60310768D01*
X72058167Y-60310768D01*
X71956793Y-60309441D01*
X71860971Y-60308187D01*
X71855274Y-60309166D01*
X71855273Y-60309166D01*
X71679300Y-60339404D01*
X71660910Y-60342564D01*
X71526565Y-60392127D01*
X71500583Y-60401712D01*
X71456972Y-60409500D01*
X70524193Y-60409500D01*
X70520674Y-60409451D01*
X70440435Y-60407209D01*
X70440432Y-60407209D01*
X70434053Y-60407031D01*
X70427763Y-60408140D01*
X70427764Y-60408140D01*
X70374389Y-60417551D01*
X70365244Y-60418820D01*
X70318906Y-60423527D01*
X70304976Y-60424942D01*
X70298888Y-60426850D01*
X70298887Y-60426850D01*
X70277360Y-60433596D01*
X70261563Y-60437446D01*
X70239378Y-60441358D01*
X70239377Y-60441358D01*
X70233084Y-60442468D01*
X70176764Y-60464766D01*
X70168064Y-60467847D01*
X70151617Y-60473002D01*
X70110245Y-60485967D01*
X70084953Y-60499987D01*
X70070251Y-60506937D01*
X70049282Y-60515239D01*
X70049278Y-60515241D01*
X70043345Y-60517590D01*
X69992637Y-60550773D01*
X69984745Y-60555533D01*
X69937343Y-60581808D01*
X69937340Y-60581810D01*
X69931762Y-60584902D01*
X69926918Y-60589054D01*
X69909797Y-60603728D01*
X69896794Y-60613491D01*
X69872587Y-60629332D01*
X69868935Y-60632620D01*
X69868846Y-60632700D01*
X69868832Y-60632714D01*
X69867603Y-60633820D01*
X69828535Y-60672888D01*
X69821438Y-60679461D01*
X69776818Y-60717705D01*
X69757814Y-60742205D01*
X69747349Y-60754074D01*
X68903195Y-61598228D01*
X68900673Y-61600682D01*
X68837677Y-61660254D01*
X68834019Y-61665479D01*
X68834015Y-61665483D01*
X68802922Y-61709890D01*
X68797370Y-61717231D01*
X68759071Y-61764190D01*
X68745665Y-61789832D01*
X68737222Y-61803719D01*
X68720628Y-61827418D01*
X68718095Y-61833272D01*
X68718093Y-61833275D01*
X68696568Y-61883017D01*
X68692603Y-61891332D01*
X68664526Y-61945037D01*
X68662769Y-61951164D01*
X68662767Y-61951169D01*
X68656552Y-61972844D01*
X68651070Y-61988153D01*
X68642119Y-62008838D01*
X68642116Y-62008846D01*
X68639582Y-62014703D01*
X68638276Y-62020953D01*
X68638276Y-62020954D01*
X68627195Y-62073998D01*
X68624981Y-62082948D01*
X68608277Y-62141201D01*
X68607788Y-62147561D01*
X68606057Y-62170047D01*
X68603766Y-62186143D01*
X68597851Y-62214460D01*
X68597500Y-62221158D01*
X68597500Y-62276416D01*
X68597129Y-62286083D01*
X68594177Y-62324453D01*
X68592621Y-62344669D01*
X60874025Y-62344669D01*
X61323216Y-61895478D01*
X61341964Y-61880336D01*
X61343189Y-61879221D01*
X61351940Y-61873571D01*
X61358387Y-61865393D01*
X61358389Y-61865391D01*
X61372729Y-61847200D01*
X61376676Y-61842758D01*
X61376603Y-61842696D01*
X61379961Y-61838733D01*
X61383638Y-61835056D01*
X61392832Y-61822190D01*
X61394859Y-61819354D01*
X61398422Y-61814608D01*
X61423707Y-61782533D01*
X61430156Y-61774353D01*
X61433189Y-61765717D01*
X61438514Y-61758265D01*
X61453204Y-61709145D01*
X61455039Y-61703498D01*
X61469391Y-61662630D01*
X61469391Y-61662628D01*
X61472018Y-61655149D01*
X61472500Y-61649584D01*
X61472500Y-61646877D01*
X61472614Y-61644245D01*
X61472644Y-61644144D01*
X61472807Y-61644151D01*
X61472851Y-61643451D01*
X61474714Y-61637222D01*
X61472597Y-61583350D01*
X61472500Y-61578402D01*
X61472500Y-56907776D01*
X62588883Y-56907776D01*
X62590890Y-56948098D01*
X62603882Y-57209067D01*
X62604497Y-57221425D01*
X62605138Y-57225156D01*
X62605139Y-57225164D01*
X62653286Y-57505358D01*
X62657680Y-57530927D01*
X62658768Y-57534566D01*
X62658769Y-57534569D01*
X62741915Y-57812589D01*
X62747659Y-57831797D01*
X62749172Y-57835268D01*
X62749174Y-57835274D01*
X62816652Y-57990093D01*
X62873132Y-58119679D01*
X62875055Y-58122950D01*
X62875057Y-58122954D01*
X62911196Y-58184428D01*
X63032282Y-58390402D01*
X63034583Y-58393417D01*
X63137188Y-58527861D01*
X63222803Y-58640044D01*
X63225451Y-58642763D01*
X63225456Y-58642768D01*
X63439289Y-58862274D01*
X63441935Y-58864990D01*
X63444879Y-58867361D01*
X63444882Y-58867364D01*
X63683552Y-59059602D01*
X63683557Y-59059606D01*
X63686505Y-59061980D01*
X63952969Y-59228162D01*
X64078254Y-59286717D01*
X64153064Y-59321681D01*
X64237467Y-59361129D01*
X64241074Y-59362311D01*
X64241078Y-59362313D01*
X64407640Y-59416914D01*
X64535880Y-59458953D01*
X64539590Y-59459691D01*
X64539594Y-59459692D01*
X64684040Y-59488424D01*
X64843883Y-59520219D01*
X65000450Y-59532129D01*
X65153239Y-59543751D01*
X65153244Y-59543751D01*
X65157016Y-59544038D01*
X65470742Y-59530066D01*
X65474480Y-59529444D01*
X65474488Y-59529443D01*
X65625242Y-59504350D01*
X65780518Y-59478505D01*
X66081855Y-59390103D01*
X66322491Y-59286717D01*
X66366906Y-59267635D01*
X66366908Y-59267634D01*
X66370390Y-59266138D01*
X66641942Y-59108408D01*
X66656760Y-59097222D01*
X66767260Y-59013803D01*
X66892579Y-58919197D01*
X67118669Y-58701245D01*
X67250664Y-58539115D01*
X67314543Y-58460652D01*
X67314546Y-58460648D01*
X67316937Y-58457711D01*
X67374495Y-58366487D01*
X67482485Y-58195334D01*
X67482487Y-58195331D01*
X67484512Y-58192121D01*
X67487648Y-58185503D01*
X67562212Y-58028116D01*
X67618966Y-57908322D01*
X67631886Y-57869598D01*
X67690472Y-57693993D01*
X67718352Y-57610426D01*
X67781229Y-57302748D01*
X67806688Y-56989744D01*
X67807260Y-56935100D01*
X67805842Y-56911568D01*
X67788590Y-56625410D01*
X67788590Y-56625406D01*
X67788362Y-56621632D01*
X67782732Y-56590804D01*
X67732622Y-56316426D01*
X67732621Y-56316422D01*
X67731942Y-56312704D01*
X67638817Y-56012792D01*
X67625836Y-55983839D01*
X67511891Y-55729709D01*
X67510336Y-55726240D01*
X67349403Y-55458933D01*
X70843500Y-55458933D01*
X70843501Y-57209066D01*
X70858266Y-57283301D01*
X70865161Y-57293620D01*
X70865162Y-57293622D01*
X70869045Y-57299433D01*
X70914516Y-57367484D01*
X70998699Y-57423734D01*
X71072933Y-57438500D01*
X71947858Y-57438500D01*
X72823066Y-57438499D01*
X72858818Y-57431388D01*
X72885126Y-57426156D01*
X72885128Y-57426155D01*
X72897301Y-57423734D01*
X72907621Y-57416839D01*
X72907622Y-57416838D01*
X72971168Y-57374377D01*
X72981484Y-57367484D01*
X73037734Y-57283301D01*
X73052500Y-57209067D01*
X73052499Y-55458934D01*
X73037734Y-55384699D01*
X73013416Y-55348304D01*
X72988377Y-55310832D01*
X72981484Y-55300516D01*
X72897301Y-55244266D01*
X72823067Y-55229500D01*
X71948142Y-55229500D01*
X71072934Y-55229501D01*
X71037182Y-55236612D01*
X71010874Y-55241844D01*
X71010872Y-55241845D01*
X70998699Y-55244266D01*
X70988379Y-55251161D01*
X70988378Y-55251162D01*
X70927985Y-55291516D01*
X70914516Y-55300516D01*
X70858266Y-55384699D01*
X70843500Y-55458933D01*
X67349403Y-55458933D01*
X67348359Y-55457199D01*
X67344978Y-55452863D01*
X67234211Y-55310832D01*
X67155235Y-55209565D01*
X66933759Y-54986927D01*
X66910838Y-54968857D01*
X66690121Y-54794858D01*
X66687140Y-54792508D01*
X66418951Y-54629126D01*
X66305067Y-54577346D01*
X66136527Y-54500715D01*
X66136520Y-54500712D01*
X66133075Y-54499146D01*
X65833655Y-54404452D01*
X65696489Y-54378658D01*
X65528751Y-54347115D01*
X65528746Y-54347114D01*
X65525027Y-54346415D01*
X65211662Y-54325876D01*
X65207882Y-54326084D01*
X65207881Y-54326084D01*
X65119138Y-54330968D01*
X64898099Y-54343132D01*
X64894372Y-54343793D01*
X64894368Y-54343793D01*
X64651825Y-54386778D01*
X64588880Y-54397934D01*
X64585255Y-54399039D01*
X64585250Y-54399040D01*
X64390589Y-54458369D01*
X64288485Y-54489488D01*
X64285021Y-54491019D01*
X64285014Y-54491022D01*
X64108626Y-54569003D01*
X64001264Y-54616467D01*
X63998010Y-54618403D01*
X63998004Y-54618406D01*
X63976676Y-54631095D01*
X63731378Y-54777032D01*
X63482737Y-54968857D01*
X63480036Y-54971516D01*
X63480029Y-54971522D01*
X63261650Y-55186498D01*
X63258942Y-55189164D01*
X63256578Y-55192131D01*
X63256575Y-55192134D01*
X63111351Y-55374380D01*
X63063235Y-55434762D01*
X62898450Y-55702092D01*
X62766975Y-55987283D01*
X62670715Y-56286203D01*
X62669996Y-56289919D01*
X62669994Y-56289927D01*
X62611782Y-56590804D01*
X62611781Y-56590813D01*
X62611063Y-56594523D01*
X62610796Y-56598299D01*
X62610795Y-56598304D01*
X62589151Y-56903987D01*
X62588883Y-56907776D01*
X61472500Y-56907776D01*
X61472500Y-44876384D01*
X61492502Y-44808263D01*
X61509405Y-44787289D01*
X63098178Y-43198516D01*
X63160490Y-43164490D01*
X63189252Y-43161627D01*
X63313318Y-43163576D01*
X63313321Y-43163576D01*
X63320916Y-43163695D01*
X63475332Y-43128329D01*
X63545742Y-43092917D01*
X63610072Y-43060563D01*
X63610075Y-43060561D01*
X63616855Y-43057151D01*
X63622626Y-43052222D01*
X63622629Y-43052220D01*
X63731536Y-42959204D01*
X63731536Y-42959203D01*
X63737314Y-42954269D01*
X63829755Y-42825624D01*
X63888842Y-42678641D01*
X63911162Y-42521807D01*
X63911307Y-42508000D01*
X63892276Y-42350733D01*
X63836280Y-42202546D01*
X63746553Y-42071992D01*
X63628275Y-41966611D01*
X63620889Y-41962700D01*
X63494988Y-41896039D01*
X63494989Y-41896039D01*
X63488274Y-41892484D01*
X63334633Y-41853892D01*
X63327034Y-41853852D01*
X63327033Y-41853852D01*
X63261181Y-41853507D01*
X63176221Y-41853062D01*
X63168841Y-41854834D01*
X63168839Y-41854834D01*
X63029563Y-41888271D01*
X63029560Y-41888272D01*
X63022184Y-41890043D01*
X62881414Y-41962700D01*
X62762039Y-42066838D01*
X62670950Y-42196444D01*
X62613406Y-42344037D01*
X62592729Y-42501096D01*
X62595544Y-42526591D01*
X62598963Y-42557566D01*
X62586557Y-42627470D01*
X62562819Y-42660487D01*
X60862784Y-44360522D01*
X60844036Y-44375664D01*
X60842811Y-44376779D01*
X60834060Y-44382429D01*
X60827613Y-44390607D01*
X60827611Y-44390609D01*
X60813271Y-44408800D01*
X60809325Y-44413241D01*
X60809398Y-44413303D01*
X60806039Y-44417267D01*
X60802362Y-44420944D01*
X60791108Y-44436692D01*
X60787602Y-44441362D01*
X60755844Y-44481647D01*
X60752812Y-44490281D01*
X60747486Y-44497734D01*
X60744501Y-44507715D01*
X60732799Y-44546844D01*
X60730964Y-44552492D01*
X60713982Y-44600851D01*
X60713500Y-44606416D01*
X60713500Y-44609124D01*
X60713386Y-44611758D01*
X60713357Y-44611856D01*
X60713193Y-44611849D01*
X60713149Y-44612553D01*
X60711287Y-44618778D01*
X60711696Y-44629183D01*
X60713403Y-44672635D01*
X60713500Y-44677582D01*
X60713500Y-61379616D01*
X60693498Y-61447737D01*
X60676595Y-61468711D01*
X59873260Y-62272046D01*
X59810948Y-62306072D01*
X59800620Y-62307871D01*
X59750195Y-62314510D01*
X59680432Y-62323694D01*
X59680430Y-62323695D01*
X59672246Y-62324772D01*
X59657278Y-62330972D01*
X59544986Y-62377485D01*
X59544984Y-62377486D01*
X59537358Y-62380645D01*
X59421526Y-62469526D01*
X59332645Y-62585358D01*
X59276772Y-62720246D01*
X59275695Y-62728430D01*
X59275694Y-62728432D01*
X59271385Y-62761162D01*
X59257715Y-62865000D01*
X43239890Y-62865000D01*
X43210377Y-62820832D01*
X43203484Y-62810516D01*
X43119301Y-62754266D01*
X43045067Y-62739500D01*
X42170142Y-62739500D01*
X41294934Y-62739501D01*
X41259182Y-62746612D01*
X41232874Y-62751844D01*
X41232872Y-62751845D01*
X41220699Y-62754266D01*
X41210379Y-62761161D01*
X41210378Y-62761162D01*
X41136516Y-62810516D01*
X41135527Y-62809036D01*
X41086194Y-62835975D01*
X41080023Y-62836868D01*
X41080052Y-62837031D01*
X41020389Y-62847551D01*
X41011244Y-62848820D01*
X40961969Y-62853825D01*
X40950976Y-62854942D01*
X40944888Y-62856850D01*
X40944887Y-62856850D01*
X40923360Y-62863596D01*
X40907563Y-62867446D01*
X40885378Y-62871358D01*
X40885377Y-62871358D01*
X40879084Y-62872468D01*
X40828270Y-62892586D01*
X40822764Y-62894766D01*
X40814064Y-62897847D01*
X40797617Y-62903002D01*
X40756245Y-62915967D01*
X40730953Y-62929987D01*
X40716251Y-62936937D01*
X40695279Y-62945240D01*
X40695274Y-62945243D01*
X40689345Y-62947590D01*
X40684012Y-62951080D01*
X40684002Y-62951085D01*
X40638642Y-62980768D01*
X40630737Y-62985537D01*
X40583341Y-63011809D01*
X40583338Y-63011811D01*
X40577762Y-63014902D01*
X40572921Y-63019051D01*
X40572917Y-63019054D01*
X40555806Y-63033721D01*
X40542798Y-63043487D01*
X40522645Y-63056674D01*
X40522632Y-63056684D01*
X40518587Y-63059331D01*
X40514988Y-63062571D01*
X40514989Y-63062571D01*
X40514846Y-63062699D01*
X40514832Y-63062713D01*
X40513603Y-63063819D01*
X40474528Y-63102894D01*
X40467431Y-63109467D01*
X40422818Y-63147705D01*
X40418904Y-63152750D01*
X40418900Y-63152755D01*
X40403819Y-63172197D01*
X40393356Y-63184066D01*
X39439177Y-64138246D01*
X39436654Y-64140700D01*
X39373677Y-64200254D01*
X39370019Y-64205479D01*
X39370015Y-64205483D01*
X39338922Y-64249890D01*
X39333370Y-64257231D01*
X39295071Y-64304190D01*
X39281665Y-64329832D01*
X39273222Y-64343719D01*
X39256628Y-64367418D01*
X39254095Y-64373272D01*
X39254093Y-64373275D01*
X39232568Y-64423017D01*
X39228603Y-64431332D01*
X39200526Y-64485037D01*
X39198769Y-64491164D01*
X39198767Y-64491169D01*
X39192552Y-64512844D01*
X39187070Y-64528153D01*
X39178119Y-64548838D01*
X39178116Y-64548846D01*
X39175582Y-64554703D01*
X39174276Y-64560953D01*
X39174276Y-64560954D01*
X39163195Y-64613998D01*
X39160981Y-64622948D01*
X39144277Y-64681201D01*
X39143788Y-64687561D01*
X39142057Y-64710047D01*
X39139766Y-64726143D01*
X39133851Y-64754460D01*
X39133500Y-64761158D01*
X39133500Y-64816416D01*
X39133129Y-64826083D01*
X39129174Y-64877484D01*
X39128621Y-64884669D01*
X39129421Y-64891001D01*
X39132506Y-64915422D01*
X39133500Y-64931214D01*
X39133500Y-75511807D01*
X39133451Y-75515326D01*
X39132122Y-75562912D01*
X39131031Y-75601947D01*
X39132139Y-75608233D01*
X39132607Y-75614600D01*
X39132418Y-75614614D01*
X39133500Y-75626974D01*
X39133500Y-78532416D01*
X39133129Y-78542083D01*
X39129428Y-78590184D01*
X39128621Y-78600669D01*
X38868500Y-78600669D01*
X38868500Y-61274964D01*
X41061148Y-61274964D01*
X41061526Y-61280730D01*
X41073847Y-61468711D01*
X41074424Y-61477522D01*
X41075845Y-61483118D01*
X41075846Y-61483123D01*
X41105703Y-61600682D01*
X41124392Y-61674269D01*
X41126809Y-61679512D01*
X41170213Y-61773662D01*
X41209377Y-61858616D01*
X41232512Y-61891352D01*
X41319688Y-62014703D01*
X41326533Y-62024389D01*
X41330675Y-62028424D01*
X41382106Y-62078525D01*
X41471938Y-62166035D01*
X41640720Y-62278812D01*
X41646023Y-62281090D01*
X41646026Y-62281092D01*
X41808745Y-62351001D01*
X41827228Y-62358942D01*
X41900059Y-62375422D01*
X42019579Y-62402467D01*
X42019584Y-62402468D01*
X42025216Y-62403742D01*
X42030987Y-62403969D01*
X42030989Y-62403969D01*
X42090756Y-62406317D01*
X42228053Y-62411712D01*
X42328499Y-62397148D01*
X42423231Y-62383413D01*
X42423236Y-62383412D01*
X42428945Y-62382584D01*
X42434409Y-62380729D01*
X42434414Y-62380728D01*
X42615693Y-62319192D01*
X42615698Y-62319190D01*
X42621165Y-62317334D01*
X42798276Y-62218147D01*
X42808403Y-62209725D01*
X42949913Y-62092031D01*
X42954345Y-62088345D01*
X43020471Y-62008838D01*
X43080453Y-61936718D01*
X43080455Y-61936715D01*
X43084147Y-61932276D01*
X43150044Y-61814608D01*
X43180510Y-61760208D01*
X43180511Y-61760206D01*
X43183334Y-61755165D01*
X43185190Y-61749698D01*
X43185192Y-61749693D01*
X43246728Y-61568414D01*
X43246729Y-61568409D01*
X43248584Y-61562945D01*
X43249412Y-61557236D01*
X43249413Y-61557231D01*
X43277179Y-61365727D01*
X43277712Y-61362053D01*
X43279232Y-61304000D01*
X43260658Y-61101859D01*
X43259090Y-61096299D01*
X43207125Y-60912046D01*
X43207124Y-60912044D01*
X43205557Y-60906487D01*
X43194978Y-60885033D01*
X43118331Y-60729609D01*
X43115776Y-60724428D01*
X42994320Y-60561779D01*
X42845258Y-60423987D01*
X42840375Y-60420906D01*
X42840371Y-60420903D01*
X42678464Y-60318748D01*
X42673581Y-60315667D01*
X42485039Y-60240446D01*
X42479379Y-60239320D01*
X42479375Y-60239319D01*
X42291613Y-60201971D01*
X42291610Y-60201971D01*
X42285946Y-60200844D01*
X42280171Y-60200768D01*
X42280167Y-60200768D01*
X42178793Y-60199441D01*
X42082971Y-60198187D01*
X42077274Y-60199166D01*
X42077273Y-60199166D01*
X41888607Y-60231585D01*
X41882910Y-60232564D01*
X41692463Y-60302824D01*
X41687502Y-60305776D01*
X41687501Y-60305776D01*
X41677088Y-60311971D01*
X41518010Y-60406612D01*
X41513670Y-60410418D01*
X41513666Y-60410421D01*
X41407028Y-60503941D01*
X41365392Y-60540455D01*
X41361817Y-60544990D01*
X41361816Y-60544991D01*
X41353505Y-60555533D01*
X41239720Y-60699869D01*
X41237031Y-60704980D01*
X41237029Y-60704983D01*
X41224073Y-60729609D01*
X41145203Y-60879515D01*
X41085007Y-61073378D01*
X41061148Y-61274964D01*
X38868500Y-61274964D01*
X38868500Y-58734964D01*
X41061148Y-58734964D01*
X41061526Y-58740730D01*
X41073051Y-58916566D01*
X41074424Y-58937522D01*
X41075845Y-58943118D01*
X41075846Y-58943123D01*
X41112341Y-59086819D01*
X41124392Y-59134269D01*
X41126809Y-59139512D01*
X41170213Y-59233662D01*
X41209377Y-59318616D01*
X41212710Y-59323332D01*
X41322814Y-59479126D01*
X41326533Y-59484389D01*
X41471938Y-59626035D01*
X41640720Y-59738812D01*
X41646023Y-59741090D01*
X41646026Y-59741092D01*
X41821921Y-59816662D01*
X41827228Y-59818942D01*
X41877662Y-59830354D01*
X42019579Y-59862467D01*
X42019584Y-59862468D01*
X42025216Y-59863742D01*
X42030987Y-59863969D01*
X42030989Y-59863969D01*
X42090756Y-59866317D01*
X42228053Y-59871712D01*
X42328499Y-59857148D01*
X42423231Y-59843413D01*
X42423236Y-59843412D01*
X42428945Y-59842584D01*
X42434409Y-59840729D01*
X42434414Y-59840728D01*
X42615693Y-59779192D01*
X42615698Y-59779190D01*
X42621165Y-59777334D01*
X42798276Y-59678147D01*
X42811344Y-59667279D01*
X42949913Y-59552031D01*
X42954345Y-59548345D01*
X43012431Y-59478505D01*
X43080453Y-59396718D01*
X43080455Y-59396715D01*
X43084147Y-59392276D01*
X43174918Y-59230193D01*
X43180510Y-59220208D01*
X43180511Y-59220206D01*
X43183334Y-59215165D01*
X43185190Y-59209698D01*
X43185192Y-59209693D01*
X43246728Y-59028414D01*
X43246729Y-59028409D01*
X43248584Y-59022945D01*
X43249412Y-59017236D01*
X43249413Y-59017231D01*
X43274390Y-58844964D01*
X43277712Y-58822053D01*
X43279232Y-58764000D01*
X43260658Y-58561859D01*
X43259090Y-58556299D01*
X43207125Y-58372046D01*
X43207124Y-58372044D01*
X43205557Y-58366487D01*
X43194978Y-58345033D01*
X43118331Y-58189609D01*
X43115776Y-58184428D01*
X42994320Y-58021779D01*
X42885913Y-57921568D01*
X42849503Y-57887911D01*
X42845258Y-57883987D01*
X42840375Y-57880906D01*
X42840371Y-57880903D01*
X42678464Y-57778748D01*
X42673581Y-57775667D01*
X42485039Y-57700446D01*
X42479379Y-57699320D01*
X42479375Y-57699319D01*
X42291613Y-57661971D01*
X42291610Y-57661971D01*
X42285946Y-57660844D01*
X42280171Y-57660768D01*
X42280167Y-57660768D01*
X42178793Y-57659441D01*
X42082971Y-57658187D01*
X42077274Y-57659166D01*
X42077273Y-57659166D01*
X41888607Y-57691585D01*
X41882910Y-57692564D01*
X41692463Y-57762824D01*
X41687502Y-57765776D01*
X41687501Y-57765776D01*
X41677088Y-57771971D01*
X41518010Y-57866612D01*
X41513670Y-57870418D01*
X41513666Y-57870421D01*
X41374317Y-57992628D01*
X41365392Y-58000455D01*
X41239720Y-58159869D01*
X41237031Y-58164980D01*
X41237029Y-58164983D01*
X41226233Y-58185503D01*
X41145203Y-58339515D01*
X41085007Y-58533378D01*
X41061148Y-58734964D01*
X38868500Y-58734964D01*
X38868500Y-56490962D01*
X41098671Y-56490962D01*
X41123443Y-56588502D01*
X41127284Y-56599348D01*
X41207394Y-56773120D01*
X41213145Y-56783081D01*
X41323579Y-56939343D01*
X41331057Y-56948098D01*
X41468114Y-57081612D01*
X41477058Y-57088855D01*
X41636156Y-57195161D01*
X41646266Y-57200651D01*
X41822077Y-57276185D01*
X41833020Y-57279740D01*
X41898332Y-57294519D01*
X41912405Y-57293630D01*
X41915828Y-57284681D01*
X42424000Y-57284681D01*
X42427966Y-57298187D01*
X42436672Y-57299433D01*
X42615497Y-57238730D01*
X42625994Y-57234056D01*
X42792958Y-57140552D01*
X42802430Y-57134042D01*
X42949553Y-57011682D01*
X42957682Y-57003553D01*
X43037338Y-56907776D01*
X46504883Y-56907776D01*
X46506890Y-56948098D01*
X46519882Y-57209067D01*
X46520497Y-57221425D01*
X46521138Y-57225156D01*
X46521139Y-57225164D01*
X46569286Y-57505358D01*
X46573680Y-57530927D01*
X46574768Y-57534566D01*
X46574769Y-57534569D01*
X46657915Y-57812589D01*
X46663659Y-57831797D01*
X46665172Y-57835268D01*
X46665174Y-57835274D01*
X46732652Y-57990093D01*
X46789132Y-58119679D01*
X46791055Y-58122950D01*
X46791057Y-58122954D01*
X46827196Y-58184428D01*
X46948282Y-58390402D01*
X46950583Y-58393417D01*
X47053188Y-58527861D01*
X47138803Y-58640044D01*
X47141451Y-58642763D01*
X47141456Y-58642768D01*
X47355289Y-58862274D01*
X47357935Y-58864990D01*
X47360879Y-58867361D01*
X47360882Y-58867364D01*
X47599552Y-59059602D01*
X47599557Y-59059606D01*
X47602505Y-59061980D01*
X47868969Y-59228162D01*
X47994254Y-59286717D01*
X48069064Y-59321681D01*
X48153467Y-59361129D01*
X48157074Y-59362311D01*
X48157078Y-59362313D01*
X48323640Y-59416914D01*
X48451880Y-59458953D01*
X48455590Y-59459691D01*
X48455594Y-59459692D01*
X48600040Y-59488424D01*
X48759883Y-59520219D01*
X48916450Y-59532129D01*
X49069239Y-59543751D01*
X49069244Y-59543751D01*
X49073016Y-59544038D01*
X49386742Y-59530066D01*
X49390480Y-59529444D01*
X49390488Y-59529443D01*
X49541242Y-59504350D01*
X49696518Y-59478505D01*
X49997855Y-59390103D01*
X50238491Y-59286717D01*
X50282906Y-59267635D01*
X50282908Y-59267634D01*
X50286390Y-59266138D01*
X50557942Y-59108408D01*
X50572760Y-59097222D01*
X50683260Y-59013803D01*
X50808579Y-58919197D01*
X51034669Y-58701245D01*
X51166664Y-58539115D01*
X51230543Y-58460652D01*
X51230546Y-58460648D01*
X51232937Y-58457711D01*
X51290495Y-58366487D01*
X51398485Y-58195334D01*
X51398487Y-58195331D01*
X51400512Y-58192121D01*
X51403648Y-58185503D01*
X51478212Y-58028116D01*
X51534966Y-57908322D01*
X51547886Y-57869598D01*
X51577976Y-57779405D01*
X51618509Y-57721116D01*
X51684121Y-57693993D01*
X51753980Y-57706649D01*
X51805908Y-57755064D01*
X51823500Y-57819281D01*
X51823500Y-58674121D01*
X51803498Y-58742242D01*
X51745718Y-58790530D01*
X51663358Y-58824645D01*
X51547526Y-58913526D01*
X51458645Y-59029358D01*
X51455486Y-59036984D01*
X51455485Y-59036986D01*
X51427668Y-59104143D01*
X51402772Y-59164246D01*
X51401695Y-59172430D01*
X51401694Y-59172432D01*
X51394679Y-59225717D01*
X51383715Y-59309000D01*
X51384793Y-59317188D01*
X51400856Y-59439198D01*
X51402772Y-59453754D01*
X51458645Y-59588642D01*
X51484243Y-59622002D01*
X51535504Y-59688806D01*
X51547526Y-59704474D01*
X51554076Y-59709500D01*
X51554079Y-59709503D01*
X51656804Y-59788327D01*
X51663357Y-59793355D01*
X51798246Y-59849228D01*
X51806434Y-59850306D01*
X51870623Y-59858756D01*
X51943000Y-59868285D01*
X51951188Y-59867207D01*
X51975784Y-59863969D01*
X52015377Y-59858756D01*
X52079566Y-59850306D01*
X52087754Y-59849228D01*
X52222643Y-59793355D01*
X52229196Y-59788327D01*
X52331921Y-59709503D01*
X52331924Y-59709500D01*
X52338474Y-59704474D01*
X52350497Y-59688806D01*
X52401757Y-59622002D01*
X52427355Y-59588642D01*
X52483228Y-59453754D01*
X52485145Y-59439198D01*
X52501968Y-59311409D01*
X52527940Y-59249849D01*
X52533707Y-59242533D01*
X52540156Y-59234353D01*
X52543189Y-59225717D01*
X52548514Y-59218265D01*
X52563204Y-59169145D01*
X52565039Y-59163498D01*
X52579391Y-59122630D01*
X52579391Y-59122628D01*
X52582018Y-59115149D01*
X52582500Y-59109584D01*
X52582500Y-59106877D01*
X52582614Y-59104245D01*
X52582644Y-59104144D01*
X52582807Y-59104151D01*
X52582851Y-59103451D01*
X52584714Y-59097222D01*
X52582597Y-59043350D01*
X52582500Y-59038402D01*
X52582500Y-57785000D01*
X54939715Y-57785000D01*
X54940793Y-57793188D01*
X54956714Y-57914119D01*
X54958772Y-57929754D01*
X54961931Y-57937380D01*
X54984816Y-57992628D01*
X55014645Y-58064642D01*
X55022533Y-58074922D01*
X55097526Y-58172654D01*
X55103526Y-58180474D01*
X55110076Y-58185500D01*
X55110079Y-58185503D01*
X55212804Y-58264327D01*
X55219357Y-58269355D01*
X55354246Y-58325228D01*
X55499000Y-58344285D01*
X55507188Y-58343207D01*
X55635566Y-58326306D01*
X55643754Y-58325228D01*
X55778643Y-58269355D01*
X55785196Y-58264327D01*
X55887921Y-58185503D01*
X55887924Y-58185500D01*
X55894474Y-58180474D01*
X55900475Y-58172654D01*
X55975467Y-58074922D01*
X55983355Y-58064642D01*
X56013185Y-57992628D01*
X56036069Y-57937380D01*
X56039228Y-57929754D01*
X56041287Y-57914119D01*
X56054935Y-57810446D01*
X56056128Y-57801388D01*
X56084849Y-57736462D01*
X56091954Y-57728740D01*
X57005216Y-56815478D01*
X57023964Y-56800336D01*
X57025189Y-56799221D01*
X57033940Y-56793571D01*
X57040387Y-56785393D01*
X57040389Y-56785391D01*
X57054729Y-56767200D01*
X57058676Y-56762758D01*
X57058603Y-56762696D01*
X57061961Y-56758733D01*
X57065638Y-56755056D01*
X57068660Y-56750827D01*
X57076859Y-56739354D01*
X57080422Y-56734608D01*
X57105707Y-56702533D01*
X57112156Y-56694353D01*
X57115189Y-56685717D01*
X57120514Y-56678265D01*
X57135204Y-56629145D01*
X57137039Y-56623498D01*
X57151391Y-56582630D01*
X57151391Y-56582628D01*
X57154018Y-56575149D01*
X57154500Y-56569584D01*
X57154500Y-56566877D01*
X57154614Y-56564245D01*
X57154644Y-56564144D01*
X57154807Y-56564151D01*
X57154851Y-56563451D01*
X57156714Y-56557222D01*
X57154597Y-56503350D01*
X57154500Y-56498402D01*
X57154500Y-43987384D01*
X57174502Y-43919263D01*
X57191405Y-43898289D01*
X59542178Y-41547516D01*
X59604490Y-41513490D01*
X59633252Y-41510627D01*
X59757318Y-41512576D01*
X59757321Y-41512576D01*
X59764916Y-41512695D01*
X59919332Y-41477329D01*
X59989742Y-41441917D01*
X60054072Y-41409563D01*
X60054075Y-41409561D01*
X60060855Y-41406151D01*
X60066626Y-41401222D01*
X60066629Y-41401220D01*
X60175536Y-41308204D01*
X60175536Y-41308203D01*
X60181314Y-41303269D01*
X60273755Y-41174624D01*
X60332842Y-41027641D01*
X60341515Y-40966702D01*
X60354581Y-40874891D01*
X60354581Y-40874888D01*
X60355162Y-40870807D01*
X60355307Y-40857000D01*
X60336276Y-40699733D01*
X60280280Y-40551546D01*
X60190553Y-40420992D01*
X60072275Y-40315611D01*
X60064889Y-40311700D01*
X59938988Y-40245039D01*
X59938989Y-40245039D01*
X59932274Y-40241484D01*
X59778633Y-40202892D01*
X59771034Y-40202852D01*
X59771033Y-40202852D01*
X59705181Y-40202507D01*
X59620221Y-40202062D01*
X59612841Y-40203834D01*
X59612839Y-40203834D01*
X59473563Y-40237271D01*
X59473560Y-40237272D01*
X59466184Y-40239043D01*
X59325414Y-40311700D01*
X59206039Y-40415838D01*
X59114950Y-40545444D01*
X59057406Y-40693037D01*
X59036729Y-40850096D01*
X59037563Y-40857646D01*
X59037563Y-40857647D01*
X59042963Y-40906565D01*
X59030557Y-40976469D01*
X59006819Y-41009486D01*
X56544784Y-43471522D01*
X56526036Y-43486664D01*
X56524811Y-43487779D01*
X56516060Y-43493429D01*
X56509613Y-43501607D01*
X56509611Y-43501609D01*
X56495271Y-43519800D01*
X56491325Y-43524241D01*
X56491398Y-43524303D01*
X56488039Y-43528267D01*
X56484362Y-43531944D01*
X56473108Y-43547692D01*
X56469602Y-43552362D01*
X56437844Y-43592647D01*
X56434812Y-43601281D01*
X56429486Y-43608734D01*
X56426501Y-43618715D01*
X56414799Y-43657844D01*
X56412964Y-43663492D01*
X56395982Y-43711851D01*
X56395500Y-43717416D01*
X56395500Y-43720124D01*
X56395386Y-43722758D01*
X56395357Y-43722856D01*
X56395193Y-43722849D01*
X56395149Y-43723553D01*
X56393287Y-43729778D01*
X56393696Y-43740183D01*
X56395403Y-43783635D01*
X56395500Y-43788582D01*
X56395500Y-56299616D01*
X56375498Y-56367737D01*
X56358595Y-56388711D01*
X55555260Y-57192046D01*
X55492948Y-57226072D01*
X55482620Y-57227871D01*
X55416554Y-57236569D01*
X55362432Y-57243694D01*
X55362430Y-57243695D01*
X55354246Y-57244772D01*
X55346619Y-57247931D01*
X55346620Y-57247931D01*
X55226986Y-57297485D01*
X55226984Y-57297486D01*
X55219358Y-57300645D01*
X55103526Y-57389526D01*
X55014645Y-57505358D01*
X55011486Y-57512984D01*
X55011485Y-57512986D01*
X55004054Y-57530927D01*
X54958772Y-57640246D01*
X54957695Y-57648430D01*
X54957694Y-57648432D01*
X54950565Y-57702586D01*
X54939715Y-57785000D01*
X52582500Y-57785000D01*
X52582500Y-45609925D01*
X52585050Y-45585967D01*
X52585128Y-45584308D01*
X52587321Y-45574124D01*
X52586097Y-45563782D01*
X52586097Y-45563779D01*
X52583374Y-45540779D01*
X52583024Y-45534848D01*
X52582928Y-45534856D01*
X52582500Y-45529680D01*
X52582500Y-45524476D01*
X52579327Y-45505412D01*
X52578496Y-45499566D01*
X52573694Y-45459001D01*
X52572470Y-45448659D01*
X52568507Y-45440407D01*
X52567004Y-45431374D01*
X52542656Y-45386248D01*
X52539982Y-45381002D01*
X52517781Y-45334769D01*
X52514187Y-45330493D01*
X52512247Y-45328553D01*
X52510493Y-45326641D01*
X52510445Y-45326552D01*
X52510568Y-45326440D01*
X52510095Y-45325904D01*
X52507010Y-45320186D01*
X52467413Y-45283583D01*
X52463848Y-45280154D01*
X48194143Y-41010449D01*
X48160117Y-40948137D01*
X48158495Y-40903601D01*
X48162581Y-40874892D01*
X48162581Y-40874886D01*
X48163162Y-40870807D01*
X48163307Y-40857000D01*
X48144276Y-40699733D01*
X48088280Y-40551546D01*
X47998553Y-40420992D01*
X47880275Y-40315611D01*
X47872889Y-40311700D01*
X47746988Y-40245039D01*
X47746989Y-40245039D01*
X47740274Y-40241484D01*
X47586633Y-40202892D01*
X47579034Y-40202852D01*
X47579033Y-40202852D01*
X47513181Y-40202507D01*
X47428221Y-40202062D01*
X47420841Y-40203834D01*
X47420839Y-40203834D01*
X47281563Y-40237271D01*
X47281560Y-40237272D01*
X47274184Y-40239043D01*
X47133414Y-40311700D01*
X47014039Y-40415838D01*
X46922950Y-40545444D01*
X46865406Y-40693037D01*
X46844729Y-40850096D01*
X46853421Y-40928824D01*
X46857518Y-40965930D01*
X46862113Y-41007553D01*
X46916553Y-41156319D01*
X47004908Y-41287805D01*
X47010527Y-41292918D01*
X47010528Y-41292919D01*
X47021903Y-41303269D01*
X47122076Y-41394419D01*
X47261293Y-41470008D01*
X47414522Y-41510207D01*
X47511138Y-41511725D01*
X47572772Y-41512693D01*
X47640570Y-41533762D01*
X47659888Y-41549582D01*
X51786595Y-45676289D01*
X51820621Y-45738601D01*
X51823500Y-45765384D01*
X51823500Y-56047407D01*
X51803498Y-56115528D01*
X51749842Y-56162021D01*
X51679568Y-56172125D01*
X51614988Y-56142631D01*
X51577167Y-56084771D01*
X51555939Y-56016407D01*
X51554817Y-56012792D01*
X51541836Y-55983839D01*
X51427891Y-55729709D01*
X51426336Y-55726240D01*
X51264359Y-55457199D01*
X51260978Y-55452863D01*
X51150211Y-55310832D01*
X51071235Y-55209565D01*
X50849759Y-54986927D01*
X50826838Y-54968857D01*
X50606121Y-54794858D01*
X50603140Y-54792508D01*
X50334951Y-54629126D01*
X50221067Y-54577346D01*
X50052527Y-54500715D01*
X50052520Y-54500712D01*
X50049075Y-54499146D01*
X49749655Y-54404452D01*
X49612489Y-54378658D01*
X49444751Y-54347115D01*
X49444746Y-54347114D01*
X49441027Y-54346415D01*
X49127662Y-54325876D01*
X49123882Y-54326084D01*
X49123881Y-54326084D01*
X49035138Y-54330968D01*
X48814099Y-54343132D01*
X48810372Y-54343793D01*
X48810368Y-54343793D01*
X48567825Y-54386778D01*
X48504880Y-54397934D01*
X48501255Y-54399039D01*
X48501250Y-54399040D01*
X48306589Y-54458369D01*
X48204485Y-54489488D01*
X48201021Y-54491019D01*
X48201014Y-54491022D01*
X48024626Y-54569003D01*
X47917264Y-54616467D01*
X47914010Y-54618403D01*
X47914004Y-54618406D01*
X47892676Y-54631095D01*
X47647378Y-54777032D01*
X47398737Y-54968857D01*
X47396036Y-54971516D01*
X47396029Y-54971522D01*
X47177650Y-55186498D01*
X47174942Y-55189164D01*
X47172578Y-55192131D01*
X47172575Y-55192134D01*
X47027351Y-55374380D01*
X46979235Y-55434762D01*
X46814450Y-55702092D01*
X46682975Y-55987283D01*
X46586715Y-56286203D01*
X46585996Y-56289919D01*
X46585994Y-56289927D01*
X46527782Y-56590804D01*
X46527781Y-56590813D01*
X46527063Y-56594523D01*
X46526796Y-56598299D01*
X46526795Y-56598304D01*
X46505151Y-56903987D01*
X46504883Y-56907776D01*
X43037338Y-56907776D01*
X43080042Y-56856430D01*
X43086552Y-56846958D01*
X43180056Y-56679994D01*
X43184730Y-56669497D01*
X43245443Y-56490644D01*
X43244210Y-56481993D01*
X43230642Y-56478000D01*
X42442115Y-56478000D01*
X42426876Y-56482475D01*
X42425671Y-56483865D01*
X42424000Y-56491548D01*
X42424000Y-57284681D01*
X41915828Y-57284681D01*
X41916000Y-57284232D01*
X41916000Y-56496115D01*
X41911525Y-56480876D01*
X41910135Y-56479671D01*
X41902452Y-56478000D01*
X41113494Y-56478000D01*
X41099963Y-56481973D01*
X41098671Y-56490962D01*
X38868500Y-56490962D01*
X38868500Y-55966799D01*
X41097943Y-55966799D01*
X41104675Y-55970000D01*
X41897885Y-55970000D01*
X41913124Y-55965525D01*
X41914329Y-55964135D01*
X41916000Y-55956452D01*
X41916000Y-55951885D01*
X42424000Y-55951885D01*
X42428475Y-55967124D01*
X42429865Y-55968329D01*
X42437548Y-55970000D01*
X43227398Y-55970000D01*
X43240929Y-55966027D01*
X43242098Y-55957892D01*
X43206658Y-55832231D01*
X43202533Y-55821484D01*
X43117903Y-55649871D01*
X43111893Y-55640063D01*
X42997400Y-55486739D01*
X42989710Y-55478199D01*
X42849192Y-55348304D01*
X42840067Y-55341303D01*
X42678236Y-55239195D01*
X42667989Y-55233974D01*
X42490260Y-55163068D01*
X42479232Y-55159801D01*
X42441769Y-55152350D01*
X42428894Y-55153502D01*
X42424000Y-55168658D01*
X42424000Y-55951885D01*
X41916000Y-55951885D01*
X41916000Y-55165500D01*
X41912194Y-55152538D01*
X41897279Y-55150602D01*
X41888732Y-55152071D01*
X41877620Y-55155048D01*
X41698095Y-55221279D01*
X41687717Y-55226229D01*
X41523273Y-55324063D01*
X41513961Y-55330829D01*
X41370097Y-55456994D01*
X41362180Y-55465337D01*
X41243718Y-55615605D01*
X41237450Y-55625256D01*
X41148358Y-55794592D01*
X41143953Y-55805227D01*
X41098162Y-55952698D01*
X41097943Y-55966799D01*
X38868500Y-55966799D01*
X38868500Y-36721527D01*
X38870921Y-36696945D01*
X38871065Y-36696221D01*
X38873486Y-36684051D01*
X38871065Y-36671879D01*
X38871065Y-36659471D01*
X38871385Y-36659471D01*
X38870645Y-36648595D01*
X38884704Y-36416171D01*
X38886538Y-36401067D01*
X38933538Y-36144593D01*
X38937179Y-36129820D01*
X38958553Y-36061229D01*
X39014755Y-35880870D01*
X39020149Y-35866648D01*
X39068317Y-35759625D01*
X39127162Y-35628877D01*
X39134231Y-35615407D01*
X39269128Y-35392260D01*
X39277771Y-35379738D01*
X39438582Y-35174478D01*
X39448672Y-35163090D01*
X39633043Y-34978719D01*
X39644432Y-34968629D01*
X39849687Y-34807823D01*
X39862208Y-34799180D01*
X40085354Y-34664282D01*
X40098827Y-34657211D01*
X40336601Y-34550197D01*
X40350819Y-34544805D01*
X40599768Y-34467230D01*
X40614542Y-34463589D01*
X40871016Y-34416588D01*
X40886120Y-34414754D01*
X41022744Y-34406490D01*
X41118540Y-34400695D01*
X41129419Y-34401436D01*
X41129419Y-34401116D01*
X41141829Y-34401116D01*
X41154000Y-34403537D01*
X41166897Y-34400972D01*
X41191476Y-34398551D01*
X73120524Y-34398551D01*
X73145103Y-34400972D01*
G37*
G04 #@! TD.AperFunction*
M02*
