G04 #@! TF.GenerationSoftware,KiCad,Pcbnew,(6.0.10)*
G04 #@! TF.CreationDate,2023-05-29T16:45:33+02:00*
G04 #@! TF.ProjectId,BlinkStickAdvanced,426c696e-6b53-4746-9963-6b416476616e,1.0*
G04 #@! TF.SameCoordinates,Original*
G04 #@! TF.FileFunction,Copper,L1,Top*
G04 #@! TF.FilePolarity,Positive*
%FSLAX46Y46*%
G04 Gerber Fmt 4.6, Leading zero omitted, Abs format (unit mm)*
G04 Created by KiCad (PCBNEW (6.0.10)) date 2023-05-29 16:45:33*
%MOMM*%
%LPD*%
G01*
G04 APERTURE LIST*
G04 Aperture macros list*
%AMRoundRect*
0 Rectangle with rounded corners*
0 $1 Rounding radius*
0 $2 $3 $4 $5 $6 $7 $8 $9 X,Y pos of 4 corners*
0 Add a 4 corners polygon primitive as box body*
4,1,4,$2,$3,$4,$5,$6,$7,$8,$9,$2,$3,0*
0 Add four circle primitives for the rounded corners*
1,1,$1+$1,$2,$3*
1,1,$1+$1,$4,$5*
1,1,$1+$1,$6,$7*
1,1,$1+$1,$8,$9*
0 Add four rect primitives between the rounded corners*
20,1,$1+$1,$2,$3,$4,$5,0*
20,1,$1+$1,$4,$5,$6,$7,0*
20,1,$1+$1,$6,$7,$8,$9,0*
20,1,$1+$1,$8,$9,$2,$3,0*%
%AMFreePoly0*
4,1,6,1.000000,0.000000,0.500000,-0.750000,-0.500000,-0.750000,-0.500000,0.750000,0.500000,0.750000,1.000000,0.000000,1.000000,0.000000,$1*%
%AMFreePoly1*
4,1,6,0.500000,-0.750000,-0.650000,-0.750000,-0.150000,0.000000,-0.650000,0.750000,0.500000,0.750000,0.500000,-0.750000,0.500000,-0.750000,$1*%
G04 Aperture macros list end*
G04 #@! TA.AperFunction,SMDPad,CuDef*
%ADD10R,0.450000X0.600000*%
G04 #@! TD*
G04 #@! TA.AperFunction,ComponentPad*
%ADD11R,1.700000X1.700000*%
G04 #@! TD*
G04 #@! TA.AperFunction,ComponentPad*
%ADD12O,1.700000X1.700000*%
G04 #@! TD*
G04 #@! TA.AperFunction,ComponentPad*
%ADD13R,2.200000X2.200000*%
G04 #@! TD*
G04 #@! TA.AperFunction,ComponentPad*
%ADD14C,2.200000*%
G04 #@! TD*
G04 #@! TA.AperFunction,SMDPad,CuDef*
%ADD15R,0.400000X1.350000*%
G04 #@! TD*
G04 #@! TA.AperFunction,ComponentPad*
%ADD16C,1.450000*%
G04 #@! TD*
G04 #@! TA.AperFunction,SMDPad,CuDef*
%ADD17R,1.500000X1.900000*%
G04 #@! TD*
G04 #@! TA.AperFunction,ComponentPad*
%ADD18O,1.200000X1.900000*%
G04 #@! TD*
G04 #@! TA.AperFunction,SMDPad,CuDef*
%ADD19R,1.200000X1.900000*%
G04 #@! TD*
G04 #@! TA.AperFunction,SMDPad,CuDef*
%ADD20RoundRect,0.237500X-0.250000X-0.237500X0.250000X-0.237500X0.250000X0.237500X-0.250000X0.237500X0*%
G04 #@! TD*
G04 #@! TA.AperFunction,ComponentPad*
%ADD21C,4.700000*%
G04 #@! TD*
G04 #@! TA.AperFunction,SMDPad,CuDef*
%ADD22RoundRect,0.237500X-0.237500X0.300000X-0.237500X-0.300000X0.237500X-0.300000X0.237500X0.300000X0*%
G04 #@! TD*
G04 #@! TA.AperFunction,SMDPad,CuDef*
%ADD23RoundRect,0.237500X0.250000X0.237500X-0.250000X0.237500X-0.250000X-0.237500X0.250000X-0.237500X0*%
G04 #@! TD*
G04 #@! TA.AperFunction,SMDPad,CuDef*
%ADD24R,1.100000X4.600000*%
G04 #@! TD*
G04 #@! TA.AperFunction,SMDPad,CuDef*
%ADD25R,10.800000X9.400000*%
G04 #@! TD*
G04 #@! TA.AperFunction,SMDPad,CuDef*
%ADD26RoundRect,0.237500X0.237500X-0.250000X0.237500X0.250000X-0.237500X0.250000X-0.237500X-0.250000X0*%
G04 #@! TD*
G04 #@! TA.AperFunction,SMDPad,CuDef*
%ADD27RoundRect,0.237500X-0.237500X0.250000X-0.237500X-0.250000X0.237500X-0.250000X0.237500X0.250000X0*%
G04 #@! TD*
G04 #@! TA.AperFunction,SMDPad,CuDef*
%ADD28R,0.400000X1.900000*%
G04 #@! TD*
G04 #@! TA.AperFunction,SMDPad,CuDef*
%ADD29FreePoly0,0.000000*%
G04 #@! TD*
G04 #@! TA.AperFunction,SMDPad,CuDef*
%ADD30FreePoly1,0.000000*%
G04 #@! TD*
G04 #@! TA.AperFunction,SMDPad,CuDef*
%ADD31R,0.550000X1.600000*%
G04 #@! TD*
G04 #@! TA.AperFunction,SMDPad,CuDef*
%ADD32R,1.600000X0.550000*%
G04 #@! TD*
G04 #@! TA.AperFunction,SMDPad,CuDef*
%ADD33RoundRect,0.237500X0.237500X-0.300000X0.237500X0.300000X-0.237500X0.300000X-0.237500X-0.300000X0*%
G04 #@! TD*
G04 #@! TA.AperFunction,SMDPad,CuDef*
%ADD34RoundRect,0.237500X0.300000X0.237500X-0.300000X0.237500X-0.300000X-0.237500X0.300000X-0.237500X0*%
G04 #@! TD*
G04 #@! TA.AperFunction,ComponentPad*
%ADD35C,1.400000*%
G04 #@! TD*
G04 #@! TA.AperFunction,SMDPad,CuDef*
%ADD36R,0.600000X0.450000*%
G04 #@! TD*
G04 #@! TA.AperFunction,ViaPad*
%ADD37C,0.600000*%
G04 #@! TD*
G04 #@! TA.AperFunction,ViaPad*
%ADD38C,0.800000*%
G04 #@! TD*
G04 #@! TA.AperFunction,Conductor*
%ADD39C,0.250000*%
G04 #@! TD*
G04 #@! TA.AperFunction,Conductor*
%ADD40C,0.400000*%
G04 #@! TD*
G04 #@! TA.AperFunction,Conductor*
%ADD41C,1.500000*%
G04 #@! TD*
G04 APERTURE END LIST*
D10*
X60833000Y-85722000D03*
X60833000Y-83622000D03*
D11*
X42170000Y-76925000D03*
D12*
X42170000Y-74385000D03*
X42170000Y-71845000D03*
X42170000Y-69305000D03*
D13*
X71831200Y-90017600D03*
D14*
X71831200Y-87477600D03*
X71831200Y-84937600D03*
X71831200Y-82397600D03*
D15*
X55856000Y-89274300D03*
X56506000Y-89274300D03*
X57156000Y-89274300D03*
X57806000Y-89274300D03*
X58456000Y-89274300D03*
D16*
X59656000Y-89274300D03*
D17*
X56156000Y-91974300D03*
D16*
X54656000Y-89274300D03*
D18*
X60656000Y-91974300D03*
D19*
X60056000Y-91974300D03*
D17*
X58156000Y-91974300D03*
D19*
X54256000Y-91974300D03*
D18*
X53656000Y-91974300D03*
D11*
X71948000Y-69478500D03*
D12*
X71948000Y-72018500D03*
X71948000Y-74558500D03*
X71948000Y-77098500D03*
D11*
X42170000Y-63844000D03*
D12*
X42170000Y-61304000D03*
X42170000Y-58764000D03*
X42170000Y-56224000D03*
D20*
X59314000Y-65876000D03*
X61139000Y-65876000D03*
D21*
X65198000Y-89935000D03*
D22*
X67310000Y-78004500D03*
X67310000Y-79729500D03*
D21*
X49114000Y-89935000D03*
D23*
X53362500Y-60706000D03*
X51537500Y-60706000D03*
D11*
X71948000Y-56334000D03*
D12*
X71948000Y-58874000D03*
X71948000Y-61414000D03*
X71948000Y-63954000D03*
D24*
X71910500Y-38964190D03*
D25*
X69370500Y-48114190D03*
D24*
X66830500Y-38964190D03*
D11*
X50806000Y-84672000D03*
D12*
X48266000Y-84672000D03*
D20*
X59291500Y-64225000D03*
X61116500Y-64225000D03*
D26*
X56769000Y-85584500D03*
X56769000Y-83759500D03*
D27*
X58801000Y-83759500D03*
X58801000Y-85584500D03*
D28*
X54286000Y-65182000D03*
X53086000Y-65182000D03*
X51886000Y-65182000D03*
D29*
X65823000Y-66294000D03*
D30*
X67273000Y-66294000D03*
D23*
X65301500Y-83656000D03*
X63476500Y-83656000D03*
D24*
X59718500Y-38964190D03*
D25*
X57178500Y-48114190D03*
D24*
X54638500Y-38964190D03*
D20*
X55094500Y-60706000D03*
X56919500Y-60706000D03*
D31*
X58178000Y-68230000D03*
X57378000Y-68230000D03*
X56578000Y-68230000D03*
X55778000Y-68230000D03*
X54978000Y-68230000D03*
X54178000Y-68230000D03*
X53378000Y-68230000D03*
X52578000Y-68230000D03*
D32*
X51128000Y-69680000D03*
X51128000Y-70480000D03*
X51128000Y-71280000D03*
X51128000Y-72080000D03*
X51128000Y-72880000D03*
X51128000Y-73680000D03*
X51128000Y-74480000D03*
X51128000Y-75280000D03*
D31*
X52578000Y-76730000D03*
X53378000Y-76730000D03*
X54178000Y-76730000D03*
X54978000Y-76730000D03*
X55778000Y-76730000D03*
X56578000Y-76730000D03*
X57378000Y-76730000D03*
X58178000Y-76730000D03*
D32*
X59628000Y-75280000D03*
X59628000Y-74480000D03*
X59628000Y-73680000D03*
X59628000Y-72880000D03*
X59628000Y-72080000D03*
X59628000Y-71280000D03*
X59628000Y-70480000D03*
X59628000Y-69680000D03*
D20*
X55094500Y-62357000D03*
X56919500Y-62357000D03*
D21*
X49114000Y-56935100D03*
D33*
X54991000Y-85534500D03*
X54991000Y-83809500D03*
D11*
X42170000Y-90006000D03*
D12*
X42170000Y-87466000D03*
X42170000Y-84926000D03*
X42170000Y-82386000D03*
D23*
X53363500Y-62357000D03*
X51538500Y-62357000D03*
D34*
X54964500Y-78740000D03*
X53239500Y-78740000D03*
D21*
X65198000Y-56935100D03*
D24*
X47526500Y-38964190D03*
D25*
X44986500Y-48114190D03*
D24*
X42446500Y-38964190D03*
D35*
X67056000Y-69079000D03*
X67056000Y-71119000D03*
D36*
X63339000Y-85688000D03*
X65439000Y-85688000D03*
D37*
X52070000Y-78740000D03*
X60960000Y-82296000D03*
D38*
X40138000Y-38444000D03*
X53348900Y-37428000D03*
X40138000Y-39460000D03*
X53348900Y-40476000D03*
X68326000Y-76454000D03*
X74174000Y-53938000D03*
X64524900Y-40476000D03*
X53348900Y-38444000D03*
D37*
X67056000Y-86106000D03*
D38*
X52332900Y-38444000D03*
X41154000Y-39460000D03*
X48133000Y-80518000D03*
X64524900Y-39460000D03*
X43180000Y-79756000D03*
X65540900Y-37428000D03*
X40138000Y-40476000D03*
X46863000Y-60579000D03*
X62947200Y-54496800D03*
D37*
X62738000Y-92583000D03*
D38*
X67818000Y-92329000D03*
D37*
X53086000Y-65182000D03*
D38*
X65540900Y-39460000D03*
X41154000Y-40476000D03*
X64524900Y-37428000D03*
D37*
X67005200Y-83718400D03*
D38*
X65540900Y-38444000D03*
X53348900Y-39460000D03*
X56896000Y-73152000D03*
D37*
X53086000Y-64389000D03*
D38*
X40138000Y-37428000D03*
D37*
X53086000Y-65913000D03*
D38*
X73869200Y-41085600D03*
X44913200Y-54242800D03*
X47976383Y-64228887D03*
X41154000Y-38444000D03*
X63754000Y-68834000D03*
X48133000Y-75692000D03*
X66294000Y-73914000D03*
D37*
X54483000Y-82169000D03*
D38*
X52332900Y-39460000D03*
D37*
X53467000Y-85852000D03*
D38*
X47752000Y-72898000D03*
X48875600Y-67247600D03*
X65540900Y-40476000D03*
D37*
X53594000Y-58039000D03*
D38*
X64524900Y-38444000D03*
X52332900Y-37428000D03*
X52332900Y-40476000D03*
X71628000Y-79756000D03*
X41154000Y-37428000D03*
X44831000Y-92075000D03*
X61087000Y-78232000D03*
X68072000Y-59436000D03*
D37*
X52965000Y-72353000D03*
X50419000Y-63627000D03*
X55880000Y-64008000D03*
X52965000Y-73369000D03*
X57277000Y-65913000D03*
X52965000Y-74385000D03*
X51943000Y-59309000D03*
D38*
X47504000Y-40857000D03*
X59696000Y-40857000D03*
D37*
X55499000Y-57785000D03*
X59817000Y-62865000D03*
D38*
X63252000Y-42508000D03*
D37*
X64897000Y-82296000D03*
X59950000Y-68543000D03*
X57404000Y-69977000D03*
X58801000Y-82296000D03*
D39*
X53346000Y-84672000D02*
X50806000Y-84672000D01*
X54997000Y-69940000D02*
X55251000Y-69686000D01*
X54258500Y-83759500D02*
X53346000Y-84672000D01*
X54997000Y-74201000D02*
X54997000Y-69940000D01*
D40*
X50806000Y-86196000D02*
X51822000Y-87212000D01*
X54528005Y-87212000D02*
X55856000Y-88539995D01*
D39*
X53378000Y-76730000D02*
X53378000Y-75820000D01*
X52070000Y-78740000D02*
X53239500Y-78740000D01*
X54991000Y-83809500D02*
X55041000Y-83759500D01*
X54997000Y-69940000D02*
X54743000Y-69686000D01*
X55041000Y-83759500D02*
X56769000Y-83759500D01*
D40*
X55856000Y-88539995D02*
X55856000Y-89274300D01*
X51822000Y-87212000D02*
X54528005Y-87212000D01*
D39*
X55251000Y-69686000D02*
X55778000Y-69159000D01*
X53378000Y-75820000D02*
X54997000Y-74201000D01*
X54870000Y-83759500D02*
X54258500Y-83759500D01*
X54743000Y-69686000D02*
X55251000Y-69686000D01*
X53239500Y-78740000D02*
X53378000Y-78601500D01*
X54997000Y-69940000D02*
X54997000Y-69686000D01*
D40*
X50806000Y-84672000D02*
X50806000Y-86196000D01*
D39*
X54178000Y-69121000D02*
X54178000Y-68230000D01*
X55778000Y-69159000D02*
X55778000Y-68230000D01*
X54743000Y-69686000D02*
X54178000Y-69121000D01*
X53378000Y-78601500D02*
X53378000Y-76730000D01*
X60833000Y-85722000D02*
X60695500Y-85584500D01*
X56506000Y-87879500D02*
X56506000Y-89305500D01*
X58801000Y-85584500D02*
X56506000Y-87879500D01*
X60695500Y-85584500D02*
X56769000Y-85584500D01*
X63339000Y-83793500D02*
X63476500Y-83656000D01*
X63339000Y-85688000D02*
X61524000Y-87503000D01*
X58134478Y-87503000D02*
X57156000Y-88481478D01*
X61524000Y-87503000D02*
X58134478Y-87503000D01*
X57156000Y-88481478D02*
X57156000Y-89305500D01*
X63339000Y-85688000D02*
X63339000Y-83793500D01*
D41*
X64524900Y-40476000D02*
X65540900Y-40476000D01*
X66833400Y-38967090D02*
X66830500Y-38964190D01*
X52332900Y-40476000D02*
X53348900Y-40476000D01*
X65540900Y-37428000D02*
X65540900Y-39460000D01*
X40138000Y-40476000D02*
X41154000Y-40476000D01*
X42446500Y-40476000D02*
X42446500Y-38964190D01*
X52332900Y-37428000D02*
X52332900Y-40476000D01*
X40138000Y-37428000D02*
X42446500Y-37428000D01*
X64524900Y-37428000D02*
X64524900Y-40476000D01*
X54641400Y-38967090D02*
X54638500Y-38964190D01*
X54641400Y-40476000D02*
X54641400Y-38967090D01*
X40138000Y-37428000D02*
X40138000Y-40476000D01*
X65540900Y-40476000D02*
X66833400Y-40476000D01*
X66830500Y-37428000D02*
X66830500Y-38964190D01*
D39*
X58456000Y-89305500D02*
X59656000Y-89305500D01*
D41*
X41154000Y-40476000D02*
X42446500Y-40476000D01*
X53348900Y-37428000D02*
X53348900Y-39460000D01*
X66833400Y-40476000D02*
X66833400Y-38967090D01*
X53348900Y-40476000D02*
X54641400Y-40476000D01*
X52332900Y-37428000D02*
X54638500Y-37428000D01*
X41154000Y-37428000D02*
X41154000Y-39460000D01*
X42446500Y-37428000D02*
X42446500Y-38964190D01*
X64524900Y-37428000D02*
X66830500Y-37428000D01*
X54638500Y-37428000D02*
X54638500Y-38964190D01*
D39*
X59628000Y-72080000D02*
X66095000Y-72080000D01*
X66095000Y-72080000D02*
X67056000Y-71119000D01*
X54286000Y-66268000D02*
X54286000Y-65182000D01*
X53378000Y-67176000D02*
X54286000Y-66268000D01*
X53378000Y-68230000D02*
X53378000Y-67176000D01*
X52578000Y-68230000D02*
X52578000Y-66960000D01*
X51886000Y-66268000D02*
X51886000Y-65182000D01*
X52578000Y-66960000D02*
X51886000Y-66268000D01*
X51128000Y-69680000D02*
X46312000Y-69680000D01*
X42678000Y-61304000D02*
X42170000Y-61304000D01*
X46312000Y-69680000D02*
X45218000Y-68586000D01*
X45218000Y-68586000D02*
X45218000Y-63844000D01*
X45218000Y-63844000D02*
X42678000Y-61304000D01*
X46075000Y-70480000D02*
X51128000Y-70480000D01*
X42170000Y-74385000D02*
X46075000Y-70480000D01*
X45726000Y-83910000D02*
X45726000Y-72130000D01*
X45726000Y-72130000D02*
X46576000Y-71280000D01*
X46576000Y-71280000D02*
X51128000Y-71280000D01*
X42170000Y-87466000D02*
X45726000Y-83910000D01*
X52832000Y-63627000D02*
X53363500Y-63095500D01*
X53363500Y-63095500D02*
X53363500Y-62357000D01*
X52438000Y-72880000D02*
X52965000Y-72353000D01*
X51128000Y-72880000D02*
X52438000Y-72880000D01*
X50419000Y-63627000D02*
X52832000Y-63627000D01*
X55118000Y-62380500D02*
X55094500Y-62357000D01*
X51128000Y-73680000D02*
X52654000Y-73680000D01*
X55880000Y-64008000D02*
X55118000Y-63246000D01*
X55118000Y-63246000D02*
X55118000Y-62380500D01*
X52654000Y-73680000D02*
X52965000Y-73369000D01*
X57277000Y-65913000D02*
X57314000Y-65876000D01*
X57314000Y-65876000D02*
X59314000Y-65876000D01*
X51128000Y-74480000D02*
X52870000Y-74480000D01*
X52870000Y-74480000D02*
X52965000Y-74385000D01*
X57881000Y-66802000D02*
X64008000Y-66802000D01*
X64516000Y-66294000D02*
X65569000Y-66294000D01*
X57378000Y-68230000D02*
X57404000Y-68204000D01*
X64008000Y-66802000D02*
X64516000Y-66294000D01*
X57404000Y-68204000D02*
X57404000Y-67279000D01*
X57404000Y-67279000D02*
X57881000Y-66802000D01*
D41*
X71828000Y-90006000D02*
X72904000Y-90006000D01*
X72904000Y-90006000D02*
X74174000Y-88736000D01*
X73268000Y-56334000D02*
X71948000Y-56334000D01*
X74174000Y-57240000D02*
X73268000Y-56334000D01*
X74174000Y-88736000D02*
X74174000Y-70448000D01*
X74174000Y-68924000D02*
X74174000Y-57240000D01*
X74174000Y-70448000D02*
X74174000Y-68924000D01*
X73204500Y-69478500D02*
X74174000Y-68509000D01*
X74174000Y-70448000D02*
X73204500Y-69478500D01*
X73204500Y-69478500D02*
X71948000Y-69478500D01*
X69723000Y-48466690D02*
X69370500Y-48114190D01*
X71948000Y-58874000D02*
X70685000Y-58874000D01*
X69723000Y-57912000D02*
X69723000Y-48466690D01*
X70685000Y-58874000D02*
X69723000Y-57912000D01*
X63827000Y-61414000D02*
X71948000Y-61414000D01*
X57178500Y-54765500D02*
X63827000Y-61414000D01*
X57178500Y-48114190D02*
X57178500Y-54765500D01*
X53594000Y-53848000D02*
X63700000Y-63954000D01*
X69596000Y-65278000D02*
X68326000Y-64008000D01*
X71948000Y-63954000D02*
X70926000Y-63954000D01*
X70926000Y-63954000D02*
X69602000Y-65278000D01*
X71943106Y-77098500D02*
X71948000Y-77098500D01*
X50720310Y-53848000D02*
X53594000Y-53848000D01*
X69602000Y-65278000D02*
X69602000Y-74757394D01*
X63700000Y-63954000D02*
X71948000Y-63954000D01*
X69596000Y-66548000D02*
X69596000Y-65278000D01*
X69602000Y-74757394D02*
X71943106Y-77098500D01*
X44986500Y-48114190D02*
X50720310Y-53848000D01*
D39*
X51943000Y-59309000D02*
X51562000Y-59690000D01*
X51562000Y-59690000D02*
X51562000Y-59944000D01*
X51562000Y-60960000D02*
X51562000Y-62610000D01*
X51561000Y-60021000D02*
X51561000Y-60959000D01*
X56919500Y-59205500D02*
X56919500Y-62357000D01*
X55499000Y-57785000D02*
X56919500Y-59205500D01*
X61093000Y-65830000D02*
X61139000Y-65876000D01*
X71910500Y-38964190D02*
X68620690Y-42254000D01*
X68620690Y-42254000D02*
X63506000Y-42254000D01*
X59817000Y-62865000D02*
X61093000Y-64141000D01*
X61093000Y-64141000D02*
X61093000Y-65830000D01*
X63506000Y-42254000D02*
X63252000Y-42508000D01*
D41*
X71828000Y-82386000D02*
X70050000Y-80608000D01*
X70050000Y-80608000D02*
X51270978Y-80608000D01*
X51270978Y-80608000D02*
X48266000Y-83612978D01*
X48266000Y-84672000D02*
X42932000Y-90006000D01*
X48266000Y-83612978D02*
X48266000Y-84672000D01*
X42932000Y-90006000D02*
X42170000Y-90006000D01*
D39*
X65301500Y-82700500D02*
X64897000Y-82296000D01*
X59950000Y-68543000D02*
X59950000Y-69358000D01*
X65301500Y-83820000D02*
X65301500Y-82700500D01*
X59950000Y-69358000D02*
X59628000Y-69680000D01*
X57404000Y-69977000D02*
X58178000Y-69203000D01*
X58178000Y-69203000D02*
X58178000Y-68230000D01*
X58801000Y-83923500D02*
X58801000Y-82296000D01*
G04 #@! TA.AperFunction,Conductor*
G36*
X54749317Y-88076072D02*
G01*
X54783343Y-88138384D01*
X54778278Y-88209199D01*
X54735731Y-88266035D01*
X54669211Y-88290846D01*
X54659346Y-88291164D01*
X54656728Y-88291146D01*
X54477805Y-88307429D01*
X54465756Y-88309727D01*
X54293399Y-88360455D01*
X54282024Y-88365050D01*
X54182459Y-88417102D01*
X54172310Y-88426891D01*
X54174764Y-88433854D01*
X54926115Y-89185205D01*
X54960141Y-89247517D01*
X54955076Y-89318332D01*
X54926115Y-89363395D01*
X54179770Y-90109740D01*
X54173010Y-90122120D01*
X54177919Y-90128678D01*
X54256784Y-90172754D01*
X54268023Y-90177664D01*
X54438898Y-90233185D01*
X54450872Y-90235818D01*
X54629286Y-90257092D01*
X54641535Y-90257349D01*
X54820682Y-90243565D01*
X54832760Y-90241435D01*
X55005799Y-90193121D01*
X55017250Y-90188679D01*
X55177612Y-90107676D01*
X55187968Y-90101103D01*
X55254070Y-90049459D01*
X55320065Y-90023281D01*
X55389735Y-90036938D01*
X55436408Y-90078745D01*
X55472516Y-90132784D01*
X55556699Y-90189034D01*
X55630933Y-90203800D01*
X55855963Y-90203800D01*
X56081066Y-90203799D01*
X56155301Y-90189034D01*
X56156136Y-90193234D01*
X56203324Y-90188143D01*
X56206680Y-90189128D01*
X56206699Y-90189034D01*
X56280933Y-90203800D01*
X56505963Y-90203800D01*
X56731066Y-90203799D01*
X56805301Y-90189034D01*
X56806136Y-90193234D01*
X56853324Y-90188143D01*
X56856680Y-90189128D01*
X56856699Y-90189034D01*
X56930933Y-90203800D01*
X57155963Y-90203800D01*
X57381066Y-90203799D01*
X57455301Y-90189034D01*
X57456136Y-90193234D01*
X57503324Y-90188143D01*
X57506680Y-90189128D01*
X57506699Y-90189034D01*
X57580933Y-90203800D01*
X57805963Y-90203800D01*
X58031066Y-90203799D01*
X58066818Y-90196688D01*
X58093126Y-90191456D01*
X58093128Y-90191455D01*
X58105301Y-90189034D01*
X58115621Y-90182139D01*
X58115622Y-90182138D01*
X58179168Y-90139677D01*
X58189484Y-90132784D01*
X58196610Y-90122120D01*
X59173010Y-90122120D01*
X59177919Y-90128678D01*
X59256784Y-90172754D01*
X59268023Y-90177664D01*
X59438898Y-90233185D01*
X59450872Y-90235818D01*
X59629286Y-90257092D01*
X59641535Y-90257349D01*
X59820682Y-90243565D01*
X59832760Y-90241435D01*
X60005799Y-90193121D01*
X60017250Y-90188679D01*
X60129919Y-90131767D01*
X60140205Y-90122120D01*
X60137967Y-90115477D01*
X59668812Y-89646322D01*
X59654868Y-89638708D01*
X59653035Y-89638839D01*
X59646420Y-89643090D01*
X59179770Y-90109740D01*
X59173010Y-90122120D01*
X58196610Y-90122120D01*
X58215309Y-90094135D01*
X58238839Y-90058920D01*
X58245734Y-90048601D01*
X58260500Y-89974367D01*
X58260499Y-89266709D01*
X58672875Y-89266709D01*
X58687908Y-89445742D01*
X58690123Y-89457807D01*
X58739644Y-89630511D01*
X58744163Y-89641923D01*
X58798685Y-89748011D01*
X58808404Y-89758230D01*
X58815204Y-89755886D01*
X59283978Y-89287112D01*
X59290356Y-89275432D01*
X60020408Y-89275432D01*
X60020539Y-89277265D01*
X60024790Y-89283880D01*
X60491391Y-89750481D01*
X60503771Y-89757241D01*
X60510504Y-89752200D01*
X60551645Y-89679779D01*
X60556634Y-89668573D01*
X60613346Y-89498092D01*
X60616063Y-89486135D01*
X60638913Y-89305250D01*
X60639402Y-89298257D01*
X60639688Y-89277822D01*
X60639393Y-89270794D01*
X60621603Y-89089357D01*
X60619220Y-89077322D01*
X60567291Y-88905327D01*
X60562617Y-88893986D01*
X60513118Y-88800892D01*
X60503258Y-88790811D01*
X60496130Y-88793380D01*
X60028022Y-89261488D01*
X60020408Y-89275432D01*
X59290356Y-89275432D01*
X59291592Y-89273168D01*
X59291461Y-89271335D01*
X59287210Y-89264720D01*
X58820475Y-88797985D01*
X58808095Y-88791225D01*
X58801707Y-88796007D01*
X58754784Y-88881360D01*
X58749948Y-88892643D01*
X58695622Y-89063901D01*
X58693074Y-89075889D01*
X58673046Y-89254440D01*
X58672875Y-89266709D01*
X58260499Y-89266709D01*
X58260499Y-88574234D01*
X58245734Y-88499999D01*
X58196884Y-88426891D01*
X59172310Y-88426891D01*
X59174764Y-88433854D01*
X59643188Y-88902278D01*
X59657132Y-88909892D01*
X59658965Y-88909761D01*
X59665580Y-88905510D01*
X60132435Y-88438655D01*
X60139195Y-88426275D01*
X60134536Y-88420052D01*
X60042631Y-88370359D01*
X60031326Y-88365607D01*
X59859695Y-88312478D01*
X59847682Y-88310012D01*
X59668996Y-88291231D01*
X59656728Y-88291146D01*
X59477805Y-88307429D01*
X59465756Y-88309727D01*
X59293399Y-88360455D01*
X59282024Y-88365050D01*
X59182459Y-88417102D01*
X59172310Y-88426891D01*
X58196884Y-88426891D01*
X58189484Y-88415816D01*
X58105301Y-88359566D01*
X58093129Y-88357145D01*
X58081664Y-88352396D01*
X58082189Y-88351129D01*
X58031125Y-88324417D01*
X57995993Y-88262722D01*
X57999793Y-88191827D01*
X58029521Y-88144651D01*
X58200172Y-87974000D01*
X61728000Y-87974000D01*
X61728000Y-93185224D01*
X61418205Y-93185153D01*
X61304741Y-93185127D01*
X61236625Y-93165109D01*
X61190144Y-93111443D01*
X61180057Y-93041167D01*
X61209565Y-92976593D01*
X61223442Y-92962889D01*
X61272876Y-92921114D01*
X61282238Y-92911283D01*
X61386645Y-92774725D01*
X61393671Y-92763122D01*
X61466326Y-92607315D01*
X61470693Y-92594488D01*
X61508554Y-92425101D01*
X61509927Y-92415208D01*
X61510000Y-92412592D01*
X61510000Y-92246415D01*
X61505525Y-92231176D01*
X61504135Y-92229971D01*
X61496452Y-92228300D01*
X59820115Y-92228300D01*
X59804876Y-92232775D01*
X59803671Y-92234165D01*
X59802000Y-92241848D01*
X59802000Y-92367241D01*
X59802369Y-92374055D01*
X59816266Y-92501980D01*
X59819180Y-92515232D01*
X59874009Y-92678154D01*
X59879702Y-92690476D01*
X59968236Y-92837820D01*
X59976444Y-92848634D01*
X60093347Y-92972255D01*
X60125619Y-93035493D01*
X60118579Y-93106140D01*
X60074462Y-93161765D01*
X60001770Y-93184828D01*
X59893248Y-93184803D01*
X54306643Y-93183520D01*
X54238527Y-93163502D01*
X54192046Y-93109836D01*
X54181959Y-93039560D01*
X54211467Y-92974986D01*
X54225344Y-92961282D01*
X54272876Y-92921115D01*
X54282238Y-92911283D01*
X54386645Y-92774725D01*
X54393671Y-92763122D01*
X54466326Y-92607315D01*
X54470693Y-92594488D01*
X54508554Y-92425101D01*
X54509927Y-92415208D01*
X54510000Y-92412592D01*
X54510000Y-92246415D01*
X54505525Y-92231176D01*
X54504135Y-92229971D01*
X54496452Y-92228300D01*
X52820115Y-92228300D01*
X52804876Y-92232775D01*
X52803671Y-92234165D01*
X52802000Y-92241848D01*
X52802000Y-92367241D01*
X52802369Y-92374055D01*
X52816266Y-92501980D01*
X52819180Y-92515232D01*
X52874009Y-92678154D01*
X52879702Y-92690476D01*
X52968236Y-92837820D01*
X52976440Y-92848628D01*
X53091827Y-92970647D01*
X53124098Y-93033885D01*
X53117058Y-93104532D01*
X53072941Y-93160157D01*
X53000249Y-93183220D01*
X52584000Y-93183124D01*
X52584000Y-91702185D01*
X52802000Y-91702185D01*
X52806475Y-91717424D01*
X52807865Y-91718629D01*
X52815548Y-91720300D01*
X53383885Y-91720300D01*
X53399124Y-91715825D01*
X53400329Y-91714435D01*
X53402000Y-91706752D01*
X53402000Y-91702185D01*
X53910000Y-91702185D01*
X53914475Y-91717424D01*
X53915865Y-91718629D01*
X53923548Y-91720300D01*
X54491885Y-91720300D01*
X54507124Y-91715825D01*
X54508329Y-91714435D01*
X54510000Y-91706752D01*
X54510000Y-91702185D01*
X59802000Y-91702185D01*
X59806475Y-91717424D01*
X59807865Y-91718629D01*
X59815548Y-91720300D01*
X60383885Y-91720300D01*
X60399124Y-91715825D01*
X60400329Y-91714435D01*
X60402000Y-91706752D01*
X60402000Y-91702185D01*
X60910000Y-91702185D01*
X60914475Y-91717424D01*
X60915865Y-91718629D01*
X60923548Y-91720300D01*
X61491885Y-91720300D01*
X61507124Y-91715825D01*
X61508329Y-91714435D01*
X61510000Y-91706752D01*
X61510000Y-91581359D01*
X61509631Y-91574545D01*
X61495734Y-91446620D01*
X61492820Y-91433368D01*
X61437991Y-91270446D01*
X61432298Y-91258124D01*
X61343764Y-91110780D01*
X61335556Y-91099966D01*
X61217447Y-90975069D01*
X61207116Y-90966277D01*
X61064936Y-90869651D01*
X61052956Y-90863281D01*
X60926821Y-90812831D01*
X60912782Y-90811495D01*
X60910000Y-90816316D01*
X60910000Y-91702185D01*
X60402000Y-91702185D01*
X60402000Y-90826562D01*
X60398027Y-90813031D01*
X60389702Y-90811834D01*
X60346350Y-90823776D01*
X60333726Y-90828775D01*
X60181671Y-90908944D01*
X60170421Y-90916531D01*
X60039124Y-91027486D01*
X60029762Y-91037317D01*
X59925355Y-91173875D01*
X59918329Y-91185478D01*
X59845674Y-91341285D01*
X59841307Y-91354112D01*
X59803446Y-91523499D01*
X59802073Y-91533392D01*
X59802000Y-91536008D01*
X59802000Y-91702185D01*
X54510000Y-91702185D01*
X54510000Y-91581359D01*
X54509631Y-91574545D01*
X54495734Y-91446620D01*
X54492820Y-91433368D01*
X54437991Y-91270446D01*
X54432298Y-91258124D01*
X54343764Y-91110780D01*
X54335556Y-91099966D01*
X54217447Y-90975069D01*
X54207116Y-90966277D01*
X54064936Y-90869651D01*
X54052956Y-90863281D01*
X53926821Y-90812831D01*
X53912782Y-90811495D01*
X53910000Y-90816316D01*
X53910000Y-91702185D01*
X53402000Y-91702185D01*
X53402000Y-90826562D01*
X53398027Y-90813031D01*
X53389702Y-90811834D01*
X53346350Y-90823776D01*
X53333726Y-90828775D01*
X53181671Y-90908944D01*
X53170421Y-90916531D01*
X53039124Y-91027486D01*
X53029762Y-91037317D01*
X52925355Y-91173875D01*
X52918329Y-91185478D01*
X52845674Y-91341285D01*
X52841307Y-91354112D01*
X52803446Y-91523499D01*
X52802073Y-91533392D01*
X52802000Y-91536008D01*
X52802000Y-91702185D01*
X52584000Y-91702185D01*
X52584000Y-89266709D01*
X53672875Y-89266709D01*
X53687908Y-89445742D01*
X53690123Y-89457807D01*
X53739644Y-89630511D01*
X53744163Y-89641923D01*
X53798685Y-89748011D01*
X53808404Y-89758230D01*
X53815204Y-89755886D01*
X54283978Y-89287112D01*
X54291592Y-89273168D01*
X54291461Y-89271335D01*
X54287210Y-89264720D01*
X53820475Y-88797985D01*
X53808095Y-88791225D01*
X53801707Y-88796007D01*
X53754784Y-88881360D01*
X53749948Y-88892643D01*
X53695622Y-89063901D01*
X53693074Y-89075889D01*
X53673046Y-89254440D01*
X53672875Y-89266709D01*
X52584000Y-89266709D01*
X52584000Y-87974000D01*
X54647245Y-87974000D01*
X54749317Y-88076072D01*
G37*
G04 #@! TD.AperFunction*
G04 #@! TA.AperFunction,Conductor*
G36*
X73145103Y-34400972D02*
G01*
X73158000Y-34403537D01*
X73170172Y-34401116D01*
X73182580Y-34401116D01*
X73182580Y-34401436D01*
X73193456Y-34400696D01*
X73205690Y-34401436D01*
X73425882Y-34414755D01*
X73440986Y-34416589D01*
X73697463Y-34463589D01*
X73712237Y-34467230D01*
X73961186Y-34544805D01*
X73975407Y-34550199D01*
X74213186Y-34657214D01*
X74226658Y-34664284D01*
X74449803Y-34799177D01*
X74462325Y-34807820D01*
X74667586Y-34968630D01*
X74678974Y-34978720D01*
X74863353Y-35163095D01*
X74873439Y-35174478D01*
X74889474Y-35194944D01*
X75034253Y-35379736D01*
X75042897Y-35392258D01*
X75177797Y-35615405D01*
X75184868Y-35628877D01*
X75291886Y-35866653D01*
X75297281Y-35880880D01*
X75374857Y-36129816D01*
X75378499Y-36144589D01*
X75425506Y-36401072D01*
X75427340Y-36416176D01*
X75441392Y-36648408D01*
X75440640Y-36659474D01*
X75440935Y-36659474D01*
X75440935Y-36671885D01*
X75438514Y-36684056D01*
X75440935Y-36696226D01*
X75440935Y-36696227D01*
X75441079Y-36696951D01*
X75443500Y-36721534D01*
X75443500Y-90864873D01*
X75441079Y-90889452D01*
X75438514Y-90902349D01*
X75440935Y-90914521D01*
X75440935Y-90926929D01*
X75440615Y-90926929D01*
X75441355Y-90937805D01*
X75427296Y-91170229D01*
X75425462Y-91185333D01*
X75378462Y-91441807D01*
X75374821Y-91456580D01*
X75297271Y-91705449D01*
X75297247Y-91705525D01*
X75291851Y-91719752D01*
X75184840Y-91957520D01*
X75177769Y-91970993D01*
X75042872Y-92194140D01*
X75034229Y-92206662D01*
X74873418Y-92411922D01*
X74863328Y-92423310D01*
X74678957Y-92607681D01*
X74667568Y-92617771D01*
X74462313Y-92778577D01*
X74449792Y-92787220D01*
X74306039Y-92874123D01*
X74227108Y-92921839D01*
X74226646Y-92922118D01*
X74213175Y-92929188D01*
X73975399Y-93036203D01*
X73961181Y-93041595D01*
X73741236Y-93110132D01*
X73712231Y-93119170D01*
X73697458Y-93122811D01*
X73440984Y-93169812D01*
X73425880Y-93171646D01*
X73314969Y-93178355D01*
X73193460Y-93185705D01*
X73182581Y-93184964D01*
X73182581Y-93185284D01*
X73170171Y-93185284D01*
X73158000Y-93182863D01*
X73145141Y-93185420D01*
X73120540Y-93187840D01*
X61728000Y-93185224D01*
X61728000Y-89907676D01*
X62588883Y-89907676D01*
X62589072Y-89911468D01*
X62603625Y-90203800D01*
X62604497Y-90221325D01*
X62605138Y-90225056D01*
X62605139Y-90225064D01*
X62657036Y-90527081D01*
X62657680Y-90530827D01*
X62658768Y-90534466D01*
X62658769Y-90534469D01*
X62736184Y-90793326D01*
X62747659Y-90831697D01*
X62749172Y-90835168D01*
X62749174Y-90835174D01*
X62806030Y-90965622D01*
X62873132Y-91119579D01*
X62875055Y-91122850D01*
X62875057Y-91122854D01*
X62930345Y-91216901D01*
X63032282Y-91390302D01*
X63034583Y-91393317D01*
X63135206Y-91525164D01*
X63222803Y-91639944D01*
X63225451Y-91642663D01*
X63225456Y-91642668D01*
X63293388Y-91712402D01*
X63441935Y-91864890D01*
X63444879Y-91867261D01*
X63444882Y-91867264D01*
X63683552Y-92059502D01*
X63683557Y-92059506D01*
X63686505Y-92061880D01*
X63952969Y-92228062D01*
X64237467Y-92361029D01*
X64241074Y-92362211D01*
X64241078Y-92362213D01*
X64405038Y-92415961D01*
X64535880Y-92458853D01*
X64539590Y-92459591D01*
X64539594Y-92459592D01*
X64689881Y-92489486D01*
X64843883Y-92520119D01*
X65000449Y-92532028D01*
X65153239Y-92543651D01*
X65153244Y-92543651D01*
X65157016Y-92543938D01*
X65470742Y-92529966D01*
X65474480Y-92529344D01*
X65474488Y-92529343D01*
X65625242Y-92504250D01*
X65780518Y-92478405D01*
X66081855Y-92390003D01*
X66370390Y-92266038D01*
X66641942Y-92108308D01*
X66892579Y-91919097D01*
X67118669Y-91701145D01*
X67316937Y-91457611D01*
X67326909Y-91441807D01*
X67482485Y-91195234D01*
X67482487Y-91195231D01*
X67484512Y-91192021D01*
X67491233Y-91177836D01*
X67595812Y-90957095D01*
X67618966Y-90908222D01*
X67620926Y-90902349D01*
X67687669Y-90702295D01*
X67718352Y-90610326D01*
X67781229Y-90302648D01*
X67806688Y-89989644D01*
X67807260Y-89935000D01*
X67805842Y-89911468D01*
X67788590Y-89625310D01*
X67788590Y-89625306D01*
X67788362Y-89621532D01*
X67747927Y-89400128D01*
X67732622Y-89316326D01*
X67732621Y-89316322D01*
X67731942Y-89312604D01*
X67725486Y-89291810D01*
X67687273Y-89168747D01*
X67638817Y-89012692D01*
X67625836Y-88983739D01*
X67551657Y-88818299D01*
X67510336Y-88726140D01*
X67348359Y-88457099D01*
X67337436Y-88443092D01*
X67244560Y-88324002D01*
X67155235Y-88209465D01*
X66933759Y-87986827D01*
X66910838Y-87968757D01*
X66690121Y-87794758D01*
X66687140Y-87792408D01*
X66418951Y-87629026D01*
X66250450Y-87552413D01*
X66136527Y-87500615D01*
X66136520Y-87500612D01*
X66133075Y-87499046D01*
X65976605Y-87449561D01*
X70473263Y-87449561D01*
X70485484Y-87661518D01*
X70486920Y-87671738D01*
X70533595Y-87878847D01*
X70536674Y-87888675D01*
X70616553Y-88085392D01*
X70621198Y-88094588D01*
X70700569Y-88224110D01*
X70711025Y-88233571D01*
X70719803Y-88229787D01*
X71459178Y-87490412D01*
X71466792Y-87476468D01*
X71466661Y-87474635D01*
X71462410Y-87468020D01*
X70723928Y-86729538D01*
X70712392Y-86723238D01*
X70700109Y-86732862D01*
X70652788Y-86802231D01*
X70647690Y-86811206D01*
X70558305Y-87003769D01*
X70554742Y-87013456D01*
X70498007Y-87218033D01*
X70496076Y-87228152D01*
X70473515Y-87439272D01*
X70473263Y-87449561D01*
X65976605Y-87449561D01*
X65833655Y-87404352D01*
X65696489Y-87378558D01*
X65528751Y-87347015D01*
X65528746Y-87347014D01*
X65525027Y-87346315D01*
X65211662Y-87325776D01*
X65207882Y-87325984D01*
X65207881Y-87325984D01*
X65119138Y-87330868D01*
X64898099Y-87343032D01*
X64894372Y-87343693D01*
X64894368Y-87343693D01*
X64651825Y-87386678D01*
X64588880Y-87397834D01*
X64585255Y-87398939D01*
X64585250Y-87398940D01*
X64452919Y-87439272D01*
X64288485Y-87489388D01*
X64285021Y-87490919D01*
X64285014Y-87490922D01*
X64145925Y-87552413D01*
X64001264Y-87616367D01*
X63998010Y-87618303D01*
X63998004Y-87618306D01*
X63818760Y-87724945D01*
X63731378Y-87776932D01*
X63728377Y-87779247D01*
X63728373Y-87779250D01*
X63607543Y-87872470D01*
X63482737Y-87968757D01*
X63480036Y-87971416D01*
X63480029Y-87971422D01*
X63261659Y-88186389D01*
X63258942Y-88189064D01*
X63256578Y-88192031D01*
X63256575Y-88192034D01*
X63206666Y-88254666D01*
X63063235Y-88434662D01*
X62898450Y-88701992D01*
X62766975Y-88987183D01*
X62709827Y-89164648D01*
X62681607Y-89252281D01*
X62670715Y-89286103D01*
X62669996Y-89289819D01*
X62669994Y-89289827D01*
X62611782Y-89590704D01*
X62611781Y-89590713D01*
X62611063Y-89594423D01*
X62610796Y-89598199D01*
X62610795Y-89598204D01*
X62608876Y-89625310D01*
X62588883Y-89907676D01*
X61728000Y-89907676D01*
X61728000Y-87974000D01*
X58200172Y-87974000D01*
X58254767Y-87919405D01*
X58317079Y-87885379D01*
X58343862Y-87882500D01*
X61470080Y-87882500D01*
X61494028Y-87885049D01*
X61495693Y-87885128D01*
X61505876Y-87887320D01*
X61516217Y-87886096D01*
X61539223Y-87883373D01*
X61545154Y-87883023D01*
X61545146Y-87882928D01*
X61550324Y-87882500D01*
X61555524Y-87882500D01*
X61560653Y-87881646D01*
X61560656Y-87881646D01*
X61574565Y-87879331D01*
X61580443Y-87878494D01*
X61621001Y-87873694D01*
X61621002Y-87873694D01*
X61631341Y-87872470D01*
X61639593Y-87868507D01*
X61648626Y-87867004D01*
X61657795Y-87862057D01*
X61657797Y-87862056D01*
X61693732Y-87842666D01*
X61699025Y-87839969D01*
X61738082Y-87821215D01*
X61738086Y-87821212D01*
X61745232Y-87817781D01*
X61749508Y-87814186D01*
X61751431Y-87812263D01*
X61753363Y-87810491D01*
X61753442Y-87810448D01*
X61753555Y-87810572D01*
X61754095Y-87810096D01*
X61759814Y-87807010D01*
X61796417Y-87767413D01*
X61799846Y-87763848D01*
X63359290Y-86204404D01*
X63421602Y-86170378D01*
X63448385Y-86167499D01*
X63664066Y-86167499D01*
X63699818Y-86160388D01*
X63726126Y-86155156D01*
X63726128Y-86155155D01*
X63738301Y-86152734D01*
X63748621Y-86145839D01*
X63748622Y-86145838D01*
X63812168Y-86103377D01*
X63822484Y-86096484D01*
X63878734Y-86012301D01*
X63893500Y-85938067D01*
X63893500Y-85931828D01*
X64885001Y-85931828D01*
X64886209Y-85944088D01*
X64897315Y-85999931D01*
X64906633Y-86022427D01*
X64948983Y-86085808D01*
X64966192Y-86103017D01*
X65029575Y-86145368D01*
X65052066Y-86154684D01*
X65107915Y-86165793D01*
X65120170Y-86167000D01*
X65195885Y-86167000D01*
X65211124Y-86162525D01*
X65212329Y-86161135D01*
X65214000Y-86153452D01*
X65214000Y-86148884D01*
X65664000Y-86148884D01*
X65668475Y-86164123D01*
X65669865Y-86165328D01*
X65677548Y-86166999D01*
X65757828Y-86166999D01*
X65770088Y-86165791D01*
X65825931Y-86154685D01*
X65848427Y-86145367D01*
X65911808Y-86103017D01*
X65929017Y-86085808D01*
X65946576Y-86059529D01*
X71074101Y-86059529D01*
X71079382Y-86066583D01*
X71131954Y-86097304D01*
X71180678Y-86148943D01*
X71193749Y-86218726D01*
X71167018Y-86284497D01*
X71126562Y-86317857D01*
X71111792Y-86325545D01*
X71103077Y-86331033D01*
X71083733Y-86345557D01*
X71075279Y-86356884D01*
X71082024Y-86369214D01*
X71818388Y-87105578D01*
X71832332Y-87113192D01*
X71834165Y-87113061D01*
X71840780Y-87108810D01*
X72581741Y-86367849D01*
X72588761Y-86354993D01*
X72582073Y-86345813D01*
X72578539Y-86343465D01*
X72535481Y-86319696D01*
X72485511Y-86269263D01*
X72470739Y-86199820D01*
X72495855Y-86133415D01*
X72527315Y-86105224D01*
X72526882Y-86104617D01*
X72577579Y-86068455D01*
X72585980Y-86057755D01*
X72578992Y-86044602D01*
X71844012Y-85309622D01*
X71830068Y-85302008D01*
X71828235Y-85302139D01*
X71821620Y-85306390D01*
X71080861Y-86047149D01*
X71074101Y-86059529D01*
X65946576Y-86059529D01*
X65971368Y-86022425D01*
X65980684Y-85999934D01*
X65991793Y-85944085D01*
X65993000Y-85931830D01*
X65993000Y-85931115D01*
X65988525Y-85915876D01*
X65987135Y-85914671D01*
X65979452Y-85913000D01*
X65682115Y-85913000D01*
X65666876Y-85917475D01*
X65665671Y-85918865D01*
X65664000Y-85926548D01*
X65664000Y-86148884D01*
X65214000Y-86148884D01*
X65214000Y-85931115D01*
X65209525Y-85915876D01*
X65208135Y-85914671D01*
X65200452Y-85913000D01*
X64903116Y-85913000D01*
X64887877Y-85917475D01*
X64886672Y-85918865D01*
X64885001Y-85926548D01*
X64885001Y-85931828D01*
X63893500Y-85931828D01*
X63893499Y-85444885D01*
X64885000Y-85444885D01*
X64889475Y-85460124D01*
X64890865Y-85461329D01*
X64898548Y-85463000D01*
X65195885Y-85463000D01*
X65211124Y-85458525D01*
X65212329Y-85457135D01*
X65214000Y-85449452D01*
X65214000Y-85444885D01*
X65664000Y-85444885D01*
X65668475Y-85460124D01*
X65669865Y-85461329D01*
X65677548Y-85463000D01*
X65974884Y-85463000D01*
X65990123Y-85458525D01*
X65991328Y-85457135D01*
X65992999Y-85449452D01*
X65992999Y-85444172D01*
X65991791Y-85431912D01*
X65980685Y-85376069D01*
X65971367Y-85353573D01*
X65929017Y-85290192D01*
X65911808Y-85272983D01*
X65848425Y-85230632D01*
X65825934Y-85221316D01*
X65770085Y-85210207D01*
X65757830Y-85209000D01*
X65682115Y-85209000D01*
X65666876Y-85213475D01*
X65665671Y-85214865D01*
X65664000Y-85222548D01*
X65664000Y-85444885D01*
X65214000Y-85444885D01*
X65214000Y-85227116D01*
X65209525Y-85211877D01*
X65208135Y-85210672D01*
X65200452Y-85209001D01*
X65120172Y-85209001D01*
X65107912Y-85210209D01*
X65052069Y-85221315D01*
X65029573Y-85230633D01*
X64966192Y-85272983D01*
X64948983Y-85290192D01*
X64906632Y-85353575D01*
X64897316Y-85376066D01*
X64886207Y-85431915D01*
X64885000Y-85444170D01*
X64885000Y-85444885D01*
X63893499Y-85444885D01*
X63893499Y-85437934D01*
X63884137Y-85390863D01*
X63881156Y-85375874D01*
X63881155Y-85375872D01*
X63878734Y-85363699D01*
X63851339Y-85322699D01*
X63829377Y-85289832D01*
X63822484Y-85279516D01*
X63803681Y-85266952D01*
X63774497Y-85247451D01*
X63728970Y-85192974D01*
X63718500Y-85142687D01*
X63718500Y-84909561D01*
X70473263Y-84909561D01*
X70485484Y-85121518D01*
X70486920Y-85131738D01*
X70533595Y-85338847D01*
X70536674Y-85348675D01*
X70616553Y-85545392D01*
X70621198Y-85554588D01*
X70700569Y-85684110D01*
X70711025Y-85693571D01*
X70719803Y-85689787D01*
X71459178Y-84950412D01*
X71466792Y-84936468D01*
X71466661Y-84934635D01*
X71462410Y-84928020D01*
X70723928Y-84189538D01*
X70712392Y-84183238D01*
X70700109Y-84192862D01*
X70652788Y-84262231D01*
X70647690Y-84271206D01*
X70558305Y-84463769D01*
X70554742Y-84473456D01*
X70498007Y-84678033D01*
X70496076Y-84688152D01*
X70473515Y-84899272D01*
X70473263Y-84909561D01*
X63718500Y-84909561D01*
X63718500Y-84504482D01*
X63738502Y-84436361D01*
X63792158Y-84389868D01*
X63817966Y-84382771D01*
X63817698Y-84381644D01*
X63825380Y-84379817D01*
X63833236Y-84378964D01*
X63887698Y-84358547D01*
X63956795Y-84332644D01*
X63956798Y-84332643D01*
X63965199Y-84329493D01*
X64077974Y-84244974D01*
X64162493Y-84132199D01*
X64168478Y-84116236D01*
X64201326Y-84028612D01*
X64211964Y-84000236D01*
X64218500Y-83940070D01*
X64218500Y-83371930D01*
X64211964Y-83311764D01*
X64187957Y-83247725D01*
X64165644Y-83188205D01*
X64165643Y-83188202D01*
X64162493Y-83179801D01*
X64077974Y-83067026D01*
X63965199Y-82982507D01*
X63956798Y-82979357D01*
X63956795Y-82979356D01*
X63856000Y-82941570D01*
X63833236Y-82933036D01*
X63773070Y-82926500D01*
X63179930Y-82926500D01*
X63119764Y-82933036D01*
X63097000Y-82941570D01*
X62996205Y-82979356D01*
X62996202Y-82979357D01*
X62987801Y-82982507D01*
X62875026Y-83067026D01*
X62790507Y-83179801D01*
X62787357Y-83188202D01*
X62787356Y-83188205D01*
X62765043Y-83247725D01*
X62741036Y-83311764D01*
X62734500Y-83371930D01*
X62734500Y-83940070D01*
X62741036Y-84000236D01*
X62751674Y-84028612D01*
X62784523Y-84116236D01*
X62790507Y-84132199D01*
X62875026Y-84244974D01*
X62882206Y-84250355D01*
X62882207Y-84250356D01*
X62909065Y-84270485D01*
X62951580Y-84327344D01*
X62959500Y-84371311D01*
X62959500Y-85142687D01*
X62939498Y-85210808D01*
X62903503Y-85247451D01*
X62874319Y-85266952D01*
X62855516Y-85279516D01*
X62799266Y-85363699D01*
X62784500Y-85437933D01*
X62784501Y-85558718D01*
X62784501Y-85653614D01*
X62764499Y-85721735D01*
X62747596Y-85742710D01*
X61403711Y-87086595D01*
X61341399Y-87120621D01*
X61314616Y-87123500D01*
X58188398Y-87123500D01*
X58164450Y-87120951D01*
X58162785Y-87120872D01*
X58152602Y-87118680D01*
X58119255Y-87122627D01*
X58112863Y-87123004D01*
X58112871Y-87123109D01*
X58112795Y-87123115D01*
X58112396Y-87123031D01*
X58104445Y-87123500D01*
X58102954Y-87123500D01*
X58102954Y-87121050D01*
X58043311Y-87108536D01*
X57992739Y-87058706D01*
X57977136Y-86989446D01*
X58001455Y-86922744D01*
X58013783Y-86908411D01*
X58558789Y-86363405D01*
X58621101Y-86329379D01*
X58647884Y-86326500D01*
X59085070Y-86326500D01*
X59145236Y-86319964D01*
X59239844Y-86284497D01*
X59268795Y-86273644D01*
X59268798Y-86273643D01*
X59277199Y-86270493D01*
X59389974Y-86185974D01*
X59474493Y-86073199D01*
X59484776Y-86045769D01*
X59527419Y-85989005D01*
X59593980Y-85964306D01*
X59602758Y-85964000D01*
X60233573Y-85964000D01*
X60301694Y-85984002D01*
X60348187Y-86037658D01*
X60357151Y-86065419D01*
X60368266Y-86121301D01*
X60375161Y-86131620D01*
X60375162Y-86131622D01*
X60406682Y-86178794D01*
X60424516Y-86205484D01*
X60508699Y-86261734D01*
X60582933Y-86276500D01*
X60832959Y-86276500D01*
X61083066Y-86276499D01*
X61122378Y-86268680D01*
X61145126Y-86264156D01*
X61145128Y-86264155D01*
X61157301Y-86261734D01*
X61167621Y-86254839D01*
X61167622Y-86254838D01*
X61231168Y-86212377D01*
X61241484Y-86205484D01*
X61297734Y-86121301D01*
X61312500Y-86047067D01*
X61312499Y-85396934D01*
X61297734Y-85322699D01*
X61285720Y-85304718D01*
X61248377Y-85248832D01*
X61241484Y-85238516D01*
X61157301Y-85182266D01*
X61083067Y-85167500D01*
X60833041Y-85167500D01*
X60582934Y-85167501D01*
X60547182Y-85174612D01*
X60520874Y-85179844D01*
X60520872Y-85179845D01*
X60508699Y-85182266D01*
X60498378Y-85189162D01*
X60486914Y-85193911D01*
X60485362Y-85190164D01*
X60436454Y-85205000D01*
X59602758Y-85205000D01*
X59534637Y-85184998D01*
X59488144Y-85131342D01*
X59484776Y-85123231D01*
X59477643Y-85104203D01*
X59477642Y-85104202D01*
X59474493Y-85095801D01*
X59389974Y-84983026D01*
X59277199Y-84898507D01*
X59268798Y-84895357D01*
X59268795Y-84895356D01*
X59190387Y-84865963D01*
X59145236Y-84849036D01*
X59085070Y-84842500D01*
X58516930Y-84842500D01*
X58456764Y-84849036D01*
X58411613Y-84865963D01*
X58333205Y-84895356D01*
X58333202Y-84895357D01*
X58324801Y-84898507D01*
X58212026Y-84983026D01*
X58127507Y-85095801D01*
X58124358Y-85104202D01*
X58124357Y-85104203D01*
X58117224Y-85123231D01*
X58074581Y-85179995D01*
X58008020Y-85204694D01*
X57999242Y-85205000D01*
X57570758Y-85205000D01*
X57502637Y-85184998D01*
X57456144Y-85131342D01*
X57452776Y-85123231D01*
X57445643Y-85104203D01*
X57445642Y-85104202D01*
X57442493Y-85095801D01*
X57357974Y-84983026D01*
X57245199Y-84898507D01*
X57236798Y-84895357D01*
X57236795Y-84895356D01*
X57158387Y-84865963D01*
X57113236Y-84849036D01*
X57053070Y-84842500D01*
X56484930Y-84842500D01*
X56424764Y-84849036D01*
X56379613Y-84865963D01*
X56301205Y-84895356D01*
X56301202Y-84895357D01*
X56292801Y-84898507D01*
X56180026Y-84983026D01*
X56095507Y-85095801D01*
X56092357Y-85104202D01*
X56092356Y-85104205D01*
X56064000Y-85179845D01*
X56046036Y-85227764D01*
X56039500Y-85287930D01*
X56039500Y-85881070D01*
X56046036Y-85941236D01*
X56060921Y-85980942D01*
X56092266Y-86064553D01*
X56095507Y-86073199D01*
X56180026Y-86185974D01*
X56292801Y-86270493D01*
X56301202Y-86273643D01*
X56301205Y-86273644D01*
X56330156Y-86284497D01*
X56424764Y-86319964D01*
X56484930Y-86326500D01*
X57053070Y-86326500D01*
X57113236Y-86319964D01*
X57207844Y-86284497D01*
X57233540Y-86274864D01*
X57304348Y-86269681D01*
X57366717Y-86303602D01*
X57400846Y-86365857D01*
X57395899Y-86436681D01*
X57366865Y-86481941D01*
X56275784Y-87573022D01*
X56257036Y-87588164D01*
X56255811Y-87589279D01*
X56247060Y-87594929D01*
X56240613Y-87603107D01*
X56240611Y-87603109D01*
X56226271Y-87621300D01*
X56222325Y-87625741D01*
X56222398Y-87625803D01*
X56219039Y-87629767D01*
X56215362Y-87633444D01*
X56204108Y-87649192D01*
X56200602Y-87653862D01*
X56168844Y-87694147D01*
X56165812Y-87702781D01*
X56160486Y-87710234D01*
X56157501Y-87720215D01*
X56145799Y-87759344D01*
X56143964Y-87764992D01*
X56133511Y-87794758D01*
X56126982Y-87813351D01*
X56126500Y-87818916D01*
X56126500Y-87821624D01*
X56126386Y-87824258D01*
X56126357Y-87824356D01*
X56126193Y-87824349D01*
X56126149Y-87825053D01*
X56124287Y-87831278D01*
X56124735Y-87842666D01*
X56125318Y-87857512D01*
X56108006Y-87926366D01*
X56057210Y-87974000D01*
X55952774Y-87974000D01*
X55920705Y-87960851D01*
X55910320Y-87951555D01*
X54873754Y-86914989D01*
X54863899Y-86903900D01*
X54862840Y-86902556D01*
X54842646Y-86876941D01*
X54814274Y-86857332D01*
X54793911Y-86843258D01*
X54790718Y-86840976D01*
X54743081Y-86805791D01*
X54736208Y-86803377D01*
X54730216Y-86799236D01*
X54673727Y-86781371D01*
X54670006Y-86780129D01*
X54614131Y-86760507D01*
X54606927Y-86760224D01*
X54606756Y-86760191D01*
X54599908Y-86758025D01*
X54593237Y-86757500D01*
X54540067Y-86757500D01*
X54535121Y-86757403D01*
X54534229Y-86757368D01*
X54477568Y-86755142D01*
X54470413Y-86757039D01*
X54462038Y-86757500D01*
X52062450Y-86757500D01*
X51994329Y-86737498D01*
X51973355Y-86720595D01*
X51297405Y-86044645D01*
X51263379Y-85982333D01*
X51260500Y-85955550D01*
X51260500Y-85902499D01*
X51267809Y-85877605D01*
X54262001Y-85877605D01*
X54262371Y-85884426D01*
X54267676Y-85933273D01*
X54271302Y-85948524D01*
X54314799Y-86064553D01*
X54323333Y-86080139D01*
X54397002Y-86178437D01*
X54409563Y-86190998D01*
X54507861Y-86264667D01*
X54523447Y-86273201D01*
X54639473Y-86316697D01*
X54654729Y-86320325D01*
X54703576Y-86325631D01*
X54710393Y-86326000D01*
X54718885Y-86326000D01*
X54734124Y-86321525D01*
X54735329Y-86320135D01*
X54737000Y-86312452D01*
X54737000Y-86307884D01*
X55245000Y-86307884D01*
X55249475Y-86323123D01*
X55250865Y-86324328D01*
X55258548Y-86325999D01*
X55271605Y-86325999D01*
X55278426Y-86325629D01*
X55327273Y-86320324D01*
X55342524Y-86316698D01*
X55458553Y-86273201D01*
X55474139Y-86264667D01*
X55572437Y-86190998D01*
X55584998Y-86178437D01*
X55658667Y-86080139D01*
X55667201Y-86064553D01*
X55710697Y-85948527D01*
X55714325Y-85933271D01*
X55719631Y-85884424D01*
X55720000Y-85877607D01*
X55720000Y-85806615D01*
X55715525Y-85791376D01*
X55714135Y-85790171D01*
X55706452Y-85788500D01*
X55263115Y-85788500D01*
X55247876Y-85792975D01*
X55246671Y-85794365D01*
X55245000Y-85802048D01*
X55245000Y-86307884D01*
X54737000Y-86307884D01*
X54737000Y-85806615D01*
X54732525Y-85791376D01*
X54731135Y-85790171D01*
X54723452Y-85788500D01*
X54280116Y-85788500D01*
X54264877Y-85792975D01*
X54263672Y-85794365D01*
X54262001Y-85802048D01*
X54262001Y-85877605D01*
X51267809Y-85877605D01*
X51280502Y-85834378D01*
X51334158Y-85787885D01*
X51386500Y-85776499D01*
X51681066Y-85776499D01*
X51716818Y-85769388D01*
X51743126Y-85764156D01*
X51743128Y-85764155D01*
X51755301Y-85761734D01*
X51765621Y-85754839D01*
X51765622Y-85754838D01*
X51829168Y-85712377D01*
X51839484Y-85705484D01*
X51895734Y-85621301D01*
X51910500Y-85547067D01*
X51910500Y-85177500D01*
X51930502Y-85109379D01*
X51984158Y-85062886D01*
X52036500Y-85051500D01*
X53292080Y-85051500D01*
X53316028Y-85054049D01*
X53317693Y-85054128D01*
X53327876Y-85056320D01*
X53338217Y-85055096D01*
X53361223Y-85052373D01*
X53367154Y-85052023D01*
X53367146Y-85051928D01*
X53372324Y-85051500D01*
X53377524Y-85051500D01*
X53382653Y-85050646D01*
X53382656Y-85050646D01*
X53396565Y-85048331D01*
X53402443Y-85047494D01*
X53443001Y-85042694D01*
X53443002Y-85042694D01*
X53453341Y-85041470D01*
X53461593Y-85037507D01*
X53470626Y-85036004D01*
X53479795Y-85031057D01*
X53479797Y-85031056D01*
X53515732Y-85011666D01*
X53521025Y-85008969D01*
X53560082Y-84990215D01*
X53560086Y-84990212D01*
X53567232Y-84986781D01*
X53571508Y-84983186D01*
X53573431Y-84981263D01*
X53575363Y-84979491D01*
X53575442Y-84979448D01*
X53575555Y-84979572D01*
X53576095Y-84979096D01*
X53581814Y-84976010D01*
X53618417Y-84936413D01*
X53621846Y-84932848D01*
X54167186Y-84387508D01*
X54229498Y-84353482D01*
X54300313Y-84358547D01*
X54357108Y-84401039D01*
X54402026Y-84460974D01*
X54514801Y-84545493D01*
X54523202Y-84548642D01*
X54523203Y-84548643D01*
X54538254Y-84554285D01*
X54595018Y-84596927D01*
X54619717Y-84663489D01*
X54604509Y-84732838D01*
X54554223Y-84782956D01*
X54538252Y-84790249D01*
X54523449Y-84795798D01*
X54507861Y-84804333D01*
X54409563Y-84878002D01*
X54397002Y-84890563D01*
X54323333Y-84988861D01*
X54314799Y-85004447D01*
X54271303Y-85120473D01*
X54267675Y-85135729D01*
X54262369Y-85184576D01*
X54262000Y-85191393D01*
X54262000Y-85262385D01*
X54266475Y-85277624D01*
X54267865Y-85278829D01*
X54275548Y-85280500D01*
X55701884Y-85280500D01*
X55717123Y-85276025D01*
X55718328Y-85274635D01*
X55719999Y-85266952D01*
X55719999Y-85191395D01*
X55719629Y-85184574D01*
X55714324Y-85135727D01*
X55710698Y-85120476D01*
X55667201Y-85004447D01*
X55658667Y-84988861D01*
X55584998Y-84890563D01*
X55572437Y-84878002D01*
X55474139Y-84804333D01*
X55458551Y-84795798D01*
X55443748Y-84790249D01*
X55386983Y-84747608D01*
X55362283Y-84681046D01*
X55377490Y-84611697D01*
X55427776Y-84561579D01*
X55443746Y-84554285D01*
X55458797Y-84548643D01*
X55458798Y-84548642D01*
X55467199Y-84545493D01*
X55579974Y-84460974D01*
X55664493Y-84348199D01*
X55667643Y-84339797D01*
X55667645Y-84339793D01*
X55712264Y-84220771D01*
X55754905Y-84164006D01*
X55821467Y-84139306D01*
X55830246Y-84139000D01*
X55967242Y-84139000D01*
X56035363Y-84159002D01*
X56081856Y-84212658D01*
X56085223Y-84220767D01*
X56095507Y-84248199D01*
X56180026Y-84360974D01*
X56292801Y-84445493D01*
X56301202Y-84448643D01*
X56301205Y-84448644D01*
X56379613Y-84478037D01*
X56424764Y-84494964D01*
X56484930Y-84501500D01*
X57053070Y-84501500D01*
X57113236Y-84494964D01*
X57158387Y-84478037D01*
X57236795Y-84448644D01*
X57236798Y-84448643D01*
X57245199Y-84445493D01*
X57357974Y-84360974D01*
X57442493Y-84248199D01*
X57446371Y-84237857D01*
X57489190Y-84123635D01*
X57491964Y-84116236D01*
X57498500Y-84056070D01*
X57498500Y-83462930D01*
X57491964Y-83402764D01*
X57458662Y-83313932D01*
X57445644Y-83279205D01*
X57445643Y-83279202D01*
X57442493Y-83270801D01*
X57357974Y-83158026D01*
X57245199Y-83073507D01*
X57236798Y-83070357D01*
X57236795Y-83070356D01*
X57147996Y-83037067D01*
X57113236Y-83024036D01*
X57053070Y-83017500D01*
X56484930Y-83017500D01*
X56424764Y-83024036D01*
X56390004Y-83037067D01*
X56301205Y-83070356D01*
X56301202Y-83070357D01*
X56292801Y-83073507D01*
X56180026Y-83158026D01*
X56095507Y-83270801D01*
X56092358Y-83279202D01*
X56092357Y-83279203D01*
X56085224Y-83298231D01*
X56042581Y-83354995D01*
X55976020Y-83379694D01*
X55967242Y-83380000D01*
X55792758Y-83380000D01*
X55724637Y-83359998D01*
X55678144Y-83306342D01*
X55674776Y-83298231D01*
X55667643Y-83279203D01*
X55667642Y-83279202D01*
X55664493Y-83270801D01*
X55579974Y-83158026D01*
X55467199Y-83073507D01*
X55458798Y-83070357D01*
X55458795Y-83070356D01*
X55369996Y-83037067D01*
X55335236Y-83024036D01*
X55275070Y-83017500D01*
X54706930Y-83017500D01*
X54646764Y-83024036D01*
X54612004Y-83037067D01*
X54523205Y-83070356D01*
X54523202Y-83070357D01*
X54514801Y-83073507D01*
X54402026Y-83158026D01*
X54317507Y-83270801D01*
X54314357Y-83279202D01*
X54314356Y-83279205D01*
X54305406Y-83303080D01*
X54262764Y-83359844D01*
X54207796Y-83383192D01*
X54207619Y-83383221D01*
X54202057Y-83384006D01*
X54161499Y-83388806D01*
X54161498Y-83388806D01*
X54151159Y-83390030D01*
X54142907Y-83393993D01*
X54133874Y-83395496D01*
X54124705Y-83400443D01*
X54124703Y-83400444D01*
X54088768Y-83419834D01*
X54083475Y-83422531D01*
X54044418Y-83441285D01*
X54044414Y-83441288D01*
X54037268Y-83444719D01*
X54032992Y-83448314D01*
X54031069Y-83450237D01*
X54029137Y-83452009D01*
X54029058Y-83452052D01*
X54028945Y-83451928D01*
X54028405Y-83452404D01*
X54022686Y-83455490D01*
X54015619Y-83463135D01*
X53986084Y-83495086D01*
X53982654Y-83498652D01*
X53225711Y-84255595D01*
X53163399Y-84289621D01*
X53136616Y-84292500D01*
X52036499Y-84292500D01*
X51968378Y-84272498D01*
X51921885Y-84218842D01*
X51910499Y-84166500D01*
X51910499Y-83796934D01*
X51901722Y-83752806D01*
X51898156Y-83734874D01*
X51898155Y-83734872D01*
X51895734Y-83722699D01*
X51880979Y-83700616D01*
X51846377Y-83648832D01*
X51839484Y-83638516D01*
X51755301Y-83582266D01*
X51681067Y-83567500D01*
X51583953Y-83567500D01*
X50036245Y-83567501D01*
X49968124Y-83547499D01*
X49921631Y-83493843D01*
X49911527Y-83423569D01*
X49941021Y-83358989D01*
X49947150Y-83352406D01*
X51650150Y-81649405D01*
X51712462Y-81615380D01*
X51739245Y-81612500D01*
X58409704Y-81612500D01*
X58477825Y-81632502D01*
X58524318Y-81686158D01*
X58534422Y-81756432D01*
X58504928Y-81821012D01*
X58486408Y-81838462D01*
X58412076Y-81895499D01*
X58412072Y-81895503D01*
X58405526Y-81900526D01*
X58316645Y-82016358D01*
X58260772Y-82151246D01*
X58241715Y-82296000D01*
X58260772Y-82440754D01*
X58316645Y-82575642D01*
X58338019Y-82603497D01*
X58395463Y-82678360D01*
X58421063Y-82744581D01*
X58421500Y-82755064D01*
X58421500Y-82949928D01*
X58401498Y-83018049D01*
X58347842Y-83064542D01*
X58339732Y-83067909D01*
X58333208Y-83070355D01*
X58333206Y-83070356D01*
X58324801Y-83073507D01*
X58212026Y-83158026D01*
X58127507Y-83270801D01*
X58124357Y-83279202D01*
X58124356Y-83279205D01*
X58111338Y-83313932D01*
X58078036Y-83402764D01*
X58071500Y-83462930D01*
X58071500Y-84056070D01*
X58078036Y-84116236D01*
X58080810Y-84123635D01*
X58123630Y-84237857D01*
X58127507Y-84248199D01*
X58212026Y-84360974D01*
X58324801Y-84445493D01*
X58333202Y-84448643D01*
X58333205Y-84448644D01*
X58411613Y-84478037D01*
X58456764Y-84494964D01*
X58516930Y-84501500D01*
X59085070Y-84501500D01*
X59145236Y-84494964D01*
X59190387Y-84478037D01*
X59268795Y-84448644D01*
X59268798Y-84448643D01*
X59277199Y-84445493D01*
X59389974Y-84360974D01*
X59474493Y-84248199D01*
X59478371Y-84237857D01*
X59521190Y-84123635D01*
X59523964Y-84116236D01*
X59530500Y-84056070D01*
X59530500Y-83940828D01*
X60354001Y-83940828D01*
X60355209Y-83953088D01*
X60366315Y-84008931D01*
X60375633Y-84031427D01*
X60417983Y-84094808D01*
X60435192Y-84112017D01*
X60498575Y-84154368D01*
X60521066Y-84163684D01*
X60576915Y-84174793D01*
X60589170Y-84176000D01*
X60589885Y-84176000D01*
X60605124Y-84171525D01*
X60606329Y-84170135D01*
X60608000Y-84162452D01*
X60608000Y-84157884D01*
X61058000Y-84157884D01*
X61062475Y-84173123D01*
X61063865Y-84174328D01*
X61071548Y-84175999D01*
X61076828Y-84175999D01*
X61089088Y-84174791D01*
X61144931Y-84163685D01*
X61167427Y-84154367D01*
X61230808Y-84112017D01*
X61248017Y-84094808D01*
X61290368Y-84031425D01*
X61299684Y-84008934D01*
X61310793Y-83953085D01*
X61312000Y-83940830D01*
X61312000Y-83865115D01*
X61307525Y-83849876D01*
X61306135Y-83848671D01*
X61298452Y-83847000D01*
X61076115Y-83847000D01*
X61060876Y-83851475D01*
X61059671Y-83852865D01*
X61058000Y-83860548D01*
X61058000Y-84157884D01*
X60608000Y-84157884D01*
X60608000Y-83865115D01*
X60603525Y-83849876D01*
X60602135Y-83848671D01*
X60594452Y-83847000D01*
X60372116Y-83847000D01*
X60356877Y-83851475D01*
X60355672Y-83852865D01*
X60354001Y-83860548D01*
X60354001Y-83940828D01*
X59530500Y-83940828D01*
X59530500Y-83462930D01*
X59523964Y-83402764D01*
X59515012Y-83378885D01*
X60354000Y-83378885D01*
X60358475Y-83394124D01*
X60359865Y-83395329D01*
X60367548Y-83397000D01*
X60589885Y-83397000D01*
X60605124Y-83392525D01*
X60606329Y-83391135D01*
X60608000Y-83383452D01*
X60608000Y-83378885D01*
X61058000Y-83378885D01*
X61062475Y-83394124D01*
X61063865Y-83395329D01*
X61071548Y-83397000D01*
X61293884Y-83397000D01*
X61309123Y-83392525D01*
X61310328Y-83391135D01*
X61311999Y-83383452D01*
X61311999Y-83303172D01*
X61310791Y-83290912D01*
X61299685Y-83235069D01*
X61290367Y-83212573D01*
X61248017Y-83149192D01*
X61230808Y-83131983D01*
X61167425Y-83089632D01*
X61144934Y-83080316D01*
X61089085Y-83069207D01*
X61076830Y-83068000D01*
X61076115Y-83068000D01*
X61060876Y-83072475D01*
X61059671Y-83073865D01*
X61058000Y-83081548D01*
X61058000Y-83378885D01*
X60608000Y-83378885D01*
X60608000Y-83086116D01*
X60603525Y-83070877D01*
X60602135Y-83069672D01*
X60594452Y-83068001D01*
X60589172Y-83068001D01*
X60576912Y-83069209D01*
X60521069Y-83080315D01*
X60498573Y-83089633D01*
X60435192Y-83131983D01*
X60417983Y-83149192D01*
X60375632Y-83212575D01*
X60366316Y-83235066D01*
X60355207Y-83290915D01*
X60354000Y-83303170D01*
X60354000Y-83378885D01*
X59515012Y-83378885D01*
X59490662Y-83313932D01*
X59477644Y-83279205D01*
X59477643Y-83279202D01*
X59474493Y-83270801D01*
X59389974Y-83158026D01*
X59277199Y-83073507D01*
X59268794Y-83070356D01*
X59268792Y-83070355D01*
X59262268Y-83067909D01*
X59205504Y-83025266D01*
X59180806Y-82958704D01*
X59180500Y-82949928D01*
X59180500Y-82755064D01*
X59200502Y-82686943D01*
X59206537Y-82678360D01*
X59263981Y-82603497D01*
X59285355Y-82575642D01*
X59341228Y-82440754D01*
X59360285Y-82296000D01*
X59341228Y-82151246D01*
X59285355Y-82016358D01*
X59196474Y-81900526D01*
X59189923Y-81895499D01*
X59189921Y-81895497D01*
X59115591Y-81838462D01*
X59073724Y-81781124D01*
X59069502Y-81710253D01*
X59104266Y-81648350D01*
X59166979Y-81615069D01*
X59192295Y-81612500D01*
X64505704Y-81612500D01*
X64573825Y-81632502D01*
X64620318Y-81686158D01*
X64630422Y-81756432D01*
X64600928Y-81821012D01*
X64582408Y-81838462D01*
X64508076Y-81895499D01*
X64508072Y-81895503D01*
X64501526Y-81900526D01*
X64412645Y-82016358D01*
X64356772Y-82151246D01*
X64337715Y-82296000D01*
X64356772Y-82440754D01*
X64412645Y-82575642D01*
X64434019Y-82603497D01*
X64491113Y-82677903D01*
X64501526Y-82691474D01*
X64508076Y-82696500D01*
X64508079Y-82696503D01*
X64610804Y-82775327D01*
X64617357Y-82780355D01*
X64712658Y-82819830D01*
X64767938Y-82864379D01*
X64790359Y-82931742D01*
X64772801Y-83000533D01*
X64740005Y-83037064D01*
X64700026Y-83067026D01*
X64615507Y-83179801D01*
X64612357Y-83188202D01*
X64612356Y-83188205D01*
X64590043Y-83247725D01*
X64566036Y-83311764D01*
X64559500Y-83371930D01*
X64559500Y-83940070D01*
X64566036Y-84000236D01*
X64576674Y-84028612D01*
X64609523Y-84116236D01*
X64615507Y-84132199D01*
X64700026Y-84244974D01*
X64812801Y-84329493D01*
X64821202Y-84332643D01*
X64821205Y-84332644D01*
X64890302Y-84358547D01*
X64944764Y-84378964D01*
X65004930Y-84385500D01*
X65598070Y-84385500D01*
X65658236Y-84378964D01*
X65712698Y-84358547D01*
X65781795Y-84332644D01*
X65781798Y-84332643D01*
X65790199Y-84329493D01*
X65902974Y-84244974D01*
X65987493Y-84132199D01*
X65993478Y-84116236D01*
X66026326Y-84028612D01*
X66036964Y-84000236D01*
X66043500Y-83940070D01*
X66043500Y-83371930D01*
X66036964Y-83311764D01*
X66012957Y-83247725D01*
X65990644Y-83188205D01*
X65990643Y-83188202D01*
X65987493Y-83179801D01*
X65902974Y-83067026D01*
X65790199Y-82982507D01*
X65781798Y-82979358D01*
X65781797Y-82979357D01*
X65762769Y-82972224D01*
X65706005Y-82929581D01*
X65681306Y-82863020D01*
X65681000Y-82854242D01*
X65681000Y-82754420D01*
X65683549Y-82730473D01*
X65683628Y-82728807D01*
X65685820Y-82718624D01*
X65684596Y-82708282D01*
X65684596Y-82708279D01*
X65681874Y-82685287D01*
X65681523Y-82679346D01*
X65681428Y-82679354D01*
X65681000Y-82674174D01*
X65681000Y-82668976D01*
X65677829Y-82649924D01*
X65676992Y-82644047D01*
X65672193Y-82603497D01*
X65672192Y-82603495D01*
X65670969Y-82593159D01*
X65667008Y-82584910D01*
X65665504Y-82575874D01*
X65660556Y-82566703D01*
X65641152Y-82530740D01*
X65638457Y-82525451D01*
X65619712Y-82486415D01*
X65616280Y-82479268D01*
X65612686Y-82474992D01*
X65610746Y-82473052D01*
X65608993Y-82471141D01*
X65608944Y-82471051D01*
X65609067Y-82470939D01*
X65608595Y-82470404D01*
X65605510Y-82464686D01*
X65565913Y-82428083D01*
X65562348Y-82424654D01*
X65489954Y-82352260D01*
X65455928Y-82289948D01*
X65454127Y-82279611D01*
X65438306Y-82159432D01*
X65438305Y-82159430D01*
X65437228Y-82151246D01*
X65381355Y-82016358D01*
X65292474Y-81900526D01*
X65285923Y-81895499D01*
X65285921Y-81895497D01*
X65211591Y-81838462D01*
X65169724Y-81781124D01*
X65165502Y-81710253D01*
X65200266Y-81648350D01*
X65262979Y-81615069D01*
X65288295Y-81612500D01*
X69581731Y-81612500D01*
X69649852Y-81632502D01*
X69670826Y-81649404D01*
X70443832Y-82422409D01*
X70477857Y-82484722D01*
X70480528Y-82504252D01*
X70485285Y-82586756D01*
X70486422Y-82591802D01*
X70486423Y-82591808D01*
X70512671Y-82708279D01*
X70534252Y-82804039D01*
X70536194Y-82808821D01*
X70536195Y-82808825D01*
X70614988Y-83002868D01*
X70618049Y-83010407D01*
X70734426Y-83200317D01*
X70880258Y-83368670D01*
X71051628Y-83510944D01*
X71131431Y-83557577D01*
X71180154Y-83609214D01*
X71193225Y-83678997D01*
X71166494Y-83744769D01*
X71126042Y-83778127D01*
X71111793Y-83785545D01*
X71103077Y-83791033D01*
X71083733Y-83805557D01*
X71075279Y-83816884D01*
X71082024Y-83829214D01*
X71818388Y-84565578D01*
X71832332Y-84573192D01*
X71834165Y-84573061D01*
X71840780Y-84568810D01*
X72581741Y-83827849D01*
X72588761Y-83814993D01*
X72582073Y-83805813D01*
X72578539Y-83803465D01*
X72535990Y-83779977D01*
X72486020Y-83729544D01*
X72471248Y-83660101D01*
X72496364Y-83593696D01*
X72527605Y-83565702D01*
X72527139Y-83565048D01*
X72704265Y-83438706D01*
X72704267Y-83438704D01*
X72708469Y-83435707D01*
X72866239Y-83278487D01*
X72941178Y-83174198D01*
X72997172Y-83130551D01*
X73067875Y-83124105D01*
X73130840Y-83156908D01*
X73166074Y-83218544D01*
X73169500Y-83247725D01*
X73169500Y-84096138D01*
X73149498Y-84164259D01*
X73095842Y-84210752D01*
X73025568Y-84220856D01*
X72961275Y-84191611D01*
X72950684Y-84182489D01*
X72941117Y-84186893D01*
X72203222Y-84924788D01*
X72195608Y-84938732D01*
X72195739Y-84940565D01*
X72199990Y-84947180D01*
X72938808Y-85685998D01*
X72950818Y-85692556D01*
X72967010Y-85680187D01*
X73033284Y-85654728D01*
X73102803Y-85669141D01*
X73153493Y-85718851D01*
X73169500Y-85780313D01*
X73169500Y-86636138D01*
X73149498Y-86704259D01*
X73095842Y-86750752D01*
X73025568Y-86760856D01*
X72961275Y-86731611D01*
X72950684Y-86722489D01*
X72941117Y-86726893D01*
X71080858Y-88587152D01*
X71075214Y-88597488D01*
X71025011Y-88647690D01*
X70964628Y-88663101D01*
X70706134Y-88663101D01*
X70670382Y-88670212D01*
X70644074Y-88675444D01*
X70644072Y-88675445D01*
X70631899Y-88677866D01*
X70621579Y-88684761D01*
X70621578Y-88684762D01*
X70581816Y-88711331D01*
X70547716Y-88734116D01*
X70491466Y-88818299D01*
X70476700Y-88892533D01*
X70476701Y-91142666D01*
X70483696Y-91177836D01*
X70487157Y-91195234D01*
X70491466Y-91216901D01*
X70547716Y-91301084D01*
X70631899Y-91357334D01*
X70706133Y-91372100D01*
X71831018Y-91372100D01*
X72956266Y-91372099D01*
X72992018Y-91364988D01*
X73018326Y-91359756D01*
X73018328Y-91359755D01*
X73030501Y-91357334D01*
X73040821Y-91350439D01*
X73040822Y-91350438D01*
X73104368Y-91307977D01*
X73114684Y-91301084D01*
X73170934Y-91216901D01*
X73185700Y-91142667D01*
X73185700Y-91062959D01*
X73205702Y-90994838D01*
X73259358Y-90948345D01*
X73274019Y-90942725D01*
X73301755Y-90934033D01*
X73327047Y-90920013D01*
X73341749Y-90913063D01*
X73362721Y-90904760D01*
X73362726Y-90904757D01*
X73368655Y-90902410D01*
X73373988Y-90898920D01*
X73373998Y-90898915D01*
X73419358Y-90869232D01*
X73427263Y-90864463D01*
X73474659Y-90838191D01*
X73474662Y-90838189D01*
X73480238Y-90835098D01*
X73485079Y-90830949D01*
X73485083Y-90830946D01*
X73502194Y-90816279D01*
X73515202Y-90806513D01*
X73535355Y-90793326D01*
X73535368Y-90793316D01*
X73539413Y-90790669D01*
X73543024Y-90787418D01*
X73543154Y-90787301D01*
X73543168Y-90787287D01*
X73544397Y-90786181D01*
X73583472Y-90747106D01*
X73590569Y-90740533D01*
X73630335Y-90706449D01*
X73635182Y-90702295D01*
X73654183Y-90677799D01*
X73664648Y-90665930D01*
X74872823Y-89457755D01*
X74875345Y-89455301D01*
X74933689Y-89400128D01*
X74938323Y-89395746D01*
X74941983Y-89390519D01*
X74973072Y-89346120D01*
X74978642Y-89338756D01*
X75012891Y-89296762D01*
X75012894Y-89296757D01*
X75016929Y-89291810D01*
X75030335Y-89266168D01*
X75038778Y-89252281D01*
X75051711Y-89233810D01*
X75055372Y-89228582D01*
X75079432Y-89172983D01*
X75083397Y-89164668D01*
X75111474Y-89110963D01*
X75119447Y-89083158D01*
X75124925Y-89067855D01*
X75136418Y-89041297D01*
X75143116Y-89009234D01*
X75148809Y-88981986D01*
X75151027Y-88973024D01*
X75165963Y-88920934D01*
X75165963Y-88920933D01*
X75167722Y-88914799D01*
X75169941Y-88885956D01*
X75172233Y-88869856D01*
X75177158Y-88846282D01*
X75178149Y-88841540D01*
X75178500Y-88834842D01*
X75178500Y-88779581D01*
X75178871Y-88769914D01*
X75182890Y-88717690D01*
X75182890Y-88717687D01*
X75183379Y-88711331D01*
X75179494Y-88680578D01*
X75178500Y-88664786D01*
X75178500Y-70464193D01*
X75178549Y-70460674D01*
X75180791Y-70380435D01*
X75180791Y-70380432D01*
X75180969Y-70374053D01*
X75179861Y-70367767D01*
X75179393Y-70361400D01*
X75179582Y-70361386D01*
X75178500Y-70349026D01*
X75178500Y-68552584D01*
X75178871Y-68542917D01*
X75182890Y-68490691D01*
X75182890Y-68490687D01*
X75183379Y-68484331D01*
X75179494Y-68453578D01*
X75178500Y-68437786D01*
X75178500Y-57256193D01*
X75178549Y-57252674D01*
X75180791Y-57172435D01*
X75180791Y-57172432D01*
X75180969Y-57166053D01*
X75178414Y-57151561D01*
X75170449Y-57106389D01*
X75169180Y-57097244D01*
X75163703Y-57043326D01*
X75163058Y-57036976D01*
X75154404Y-57009360D01*
X75150554Y-56993563D01*
X75146642Y-56971378D01*
X75146642Y-56971377D01*
X75145532Y-56965084D01*
X75123234Y-56908763D01*
X75120153Y-56900064D01*
X75103942Y-56848338D01*
X75102033Y-56842245D01*
X75088013Y-56816953D01*
X75081063Y-56802251D01*
X75072761Y-56781282D01*
X75072759Y-56781278D01*
X75070410Y-56775345D01*
X75037227Y-56724637D01*
X75032467Y-56716745D01*
X75006192Y-56669343D01*
X75006190Y-56669340D01*
X75003098Y-56663762D01*
X74984272Y-56641797D01*
X74974509Y-56628794D01*
X74961314Y-56608630D01*
X74961312Y-56608628D01*
X74958668Y-56604587D01*
X74955380Y-56600935D01*
X74955300Y-56600846D01*
X74955286Y-56600832D01*
X74954180Y-56599603D01*
X74915112Y-56560535D01*
X74908539Y-56553438D01*
X74874449Y-56513665D01*
X74870295Y-56508818D01*
X74845795Y-56489814D01*
X74833926Y-56479349D01*
X73989772Y-55635195D01*
X73987318Y-55632673D01*
X73932128Y-55574311D01*
X73927746Y-55569677D01*
X73922521Y-55566019D01*
X73922517Y-55566015D01*
X73878110Y-55534922D01*
X73870769Y-55529370D01*
X73823810Y-55491071D01*
X73798168Y-55477665D01*
X73784281Y-55469222D01*
X73760582Y-55452628D01*
X73754728Y-55450095D01*
X73754725Y-55450093D01*
X73704983Y-55428568D01*
X73696668Y-55424603D01*
X73642963Y-55396526D01*
X73636836Y-55394769D01*
X73636831Y-55394767D01*
X73615156Y-55388552D01*
X73599847Y-55383070D01*
X73579162Y-55374119D01*
X73579154Y-55374116D01*
X73573297Y-55371582D01*
X73567047Y-55370276D01*
X73567046Y-55370276D01*
X73551732Y-55367077D01*
X73513995Y-55359193D01*
X73505052Y-55356981D01*
X73446799Y-55340277D01*
X73420435Y-55338248D01*
X73417953Y-55338057D01*
X73401857Y-55335766D01*
X73378275Y-55330840D01*
X73378274Y-55330840D01*
X73373540Y-55329851D01*
X73366842Y-55329500D01*
X73311584Y-55329500D01*
X73301917Y-55329129D01*
X73249691Y-55325110D01*
X73249687Y-55325110D01*
X73243331Y-55324621D01*
X73220017Y-55327566D01*
X73212578Y-55328506D01*
X73196786Y-55329500D01*
X73059235Y-55329500D01*
X72991114Y-55309498D01*
X72983252Y-55303162D01*
X72981484Y-55300516D01*
X72972499Y-55294512D01*
X72907620Y-55251161D01*
X72897301Y-55244266D01*
X72823067Y-55229500D01*
X71948142Y-55229500D01*
X71072934Y-55229501D01*
X71037182Y-55236612D01*
X71010874Y-55241844D01*
X71010872Y-55241845D01*
X70998699Y-55244266D01*
X70923500Y-55294513D01*
X70855750Y-55315727D01*
X70787283Y-55296945D01*
X70739839Y-55244128D01*
X70727500Y-55189747D01*
X70727500Y-53194689D01*
X70747502Y-53126568D01*
X70801158Y-53080075D01*
X70853500Y-53068689D01*
X74795566Y-53068689D01*
X74831318Y-53061578D01*
X74857626Y-53056346D01*
X74857628Y-53056345D01*
X74869801Y-53053924D01*
X74880121Y-53047029D01*
X74880122Y-53047028D01*
X74943668Y-53004567D01*
X74953984Y-52997674D01*
X75010234Y-52913491D01*
X75025000Y-52839257D01*
X75024999Y-43389124D01*
X75010234Y-43314889D01*
X74953984Y-43230706D01*
X74869801Y-43174456D01*
X74795567Y-43159690D01*
X69370939Y-43159690D01*
X63945434Y-43159691D01*
X63909682Y-43166802D01*
X63883374Y-43172034D01*
X63883372Y-43172035D01*
X63871199Y-43174456D01*
X63860879Y-43181351D01*
X63860878Y-43181352D01*
X63848165Y-43189847D01*
X63794325Y-43206706D01*
X63783198Y-43236420D01*
X63730766Y-43314889D01*
X63716000Y-43389123D01*
X63716001Y-52839256D01*
X63730766Y-52913491D01*
X63787016Y-52997674D01*
X63871199Y-53053924D01*
X63945433Y-53068690D01*
X68592500Y-53068690D01*
X68660621Y-53088692D01*
X68707114Y-53142348D01*
X68718500Y-53194690D01*
X68718500Y-57895807D01*
X68718451Y-57899326D01*
X68716031Y-57985947D01*
X68717140Y-57992236D01*
X68726551Y-58045611D01*
X68727820Y-58054756D01*
X68728824Y-58064642D01*
X68733942Y-58115024D01*
X68735850Y-58121112D01*
X68735850Y-58121113D01*
X68742596Y-58142640D01*
X68746446Y-58158437D01*
X68751468Y-58186916D01*
X68753819Y-58192853D01*
X68773766Y-58243236D01*
X68776847Y-58251936D01*
X68794967Y-58309755D01*
X68803544Y-58325228D01*
X68808987Y-58335047D01*
X68815937Y-58349749D01*
X68824240Y-58370721D01*
X68824243Y-58370726D01*
X68826590Y-58376655D01*
X68830080Y-58381988D01*
X68830085Y-58381998D01*
X68859768Y-58427358D01*
X68864537Y-58435263D01*
X68878611Y-58460652D01*
X68893902Y-58488238D01*
X68898051Y-58493079D01*
X68898054Y-58493083D01*
X68912721Y-58510194D01*
X68922487Y-58523202D01*
X68935674Y-58543355D01*
X68935684Y-58543368D01*
X68938331Y-58547413D01*
X68941571Y-58551011D01*
X68941699Y-58551154D01*
X68941713Y-58551168D01*
X68942819Y-58552397D01*
X68981894Y-58591472D01*
X68988467Y-58598569D01*
X69026705Y-58643182D01*
X69051201Y-58662183D01*
X69063070Y-58672648D01*
X69963245Y-59572823D01*
X69965699Y-59575345D01*
X70025254Y-59638323D01*
X70030481Y-59641983D01*
X70074880Y-59673072D01*
X70082244Y-59678642D01*
X70124241Y-59712893D01*
X70129190Y-59716929D01*
X70154831Y-59730333D01*
X70168724Y-59738781D01*
X70187187Y-59751710D01*
X70187193Y-59751713D01*
X70192418Y-59755372D01*
X70229560Y-59771445D01*
X70248019Y-59779433D01*
X70256353Y-59783408D01*
X70304388Y-59808520D01*
X70310037Y-59811473D01*
X70316158Y-59813228D01*
X70316165Y-59813231D01*
X70337837Y-59819445D01*
X70353146Y-59824927D01*
X70373842Y-59833883D01*
X70373852Y-59833886D01*
X70379703Y-59836418D01*
X70385948Y-59837723D01*
X70385949Y-59837723D01*
X70439014Y-59848809D01*
X70447976Y-59851027D01*
X70500065Y-59865963D01*
X70500069Y-59865964D01*
X70506201Y-59867722D01*
X70535045Y-59869941D01*
X70551134Y-59872231D01*
X70579460Y-59878149D01*
X70584300Y-59878403D01*
X70584303Y-59878403D01*
X70584359Y-59878406D01*
X70586158Y-59878500D01*
X70641429Y-59878500D01*
X70651096Y-59878871D01*
X70703309Y-59882889D01*
X70703313Y-59882889D01*
X70709669Y-59883378D01*
X70740429Y-59879492D01*
X70756207Y-59878500D01*
X71461899Y-59878500D01*
X71511636Y-59888732D01*
X71605228Y-59928942D01*
X71678244Y-59945464D01*
X71797579Y-59972467D01*
X71797584Y-59972468D01*
X71803216Y-59973742D01*
X71808987Y-59973969D01*
X71808989Y-59973969D01*
X71868756Y-59976317D01*
X72006053Y-59981712D01*
X72106499Y-59967148D01*
X72201231Y-59953413D01*
X72201236Y-59953412D01*
X72206945Y-59952584D01*
X72212409Y-59950729D01*
X72212414Y-59950728D01*
X72393693Y-59889192D01*
X72393698Y-59889190D01*
X72399165Y-59887334D01*
X72407658Y-59882578D01*
X72472495Y-59846267D01*
X72576276Y-59788147D01*
X72584548Y-59781268D01*
X72727913Y-59662031D01*
X72732345Y-59658345D01*
X72802416Y-59574094D01*
X72858453Y-59506718D01*
X72858455Y-59506715D01*
X72862147Y-59502276D01*
X72933568Y-59374745D01*
X72984302Y-59325086D01*
X73053834Y-59310739D01*
X73120085Y-59336260D01*
X73162020Y-59393548D01*
X73169500Y-59436314D01*
X73169500Y-60853157D01*
X73149498Y-60921278D01*
X73095842Y-60967771D01*
X73025568Y-60977875D01*
X72960988Y-60948381D01*
X72930494Y-60908885D01*
X72896331Y-60839609D01*
X72893776Y-60834428D01*
X72772320Y-60671779D01*
X72623258Y-60533987D01*
X72618375Y-60530906D01*
X72618371Y-60530903D01*
X72456464Y-60428748D01*
X72451581Y-60425667D01*
X72263039Y-60350446D01*
X72257379Y-60349320D01*
X72257375Y-60349319D01*
X72069613Y-60311971D01*
X72069610Y-60311971D01*
X72063946Y-60310844D01*
X72058171Y-60310768D01*
X72058167Y-60310768D01*
X71956793Y-60309441D01*
X71860971Y-60308187D01*
X71855274Y-60309166D01*
X71855273Y-60309166D01*
X71666607Y-60341585D01*
X71660910Y-60342564D01*
X71579508Y-60372595D01*
X71500583Y-60401712D01*
X71456972Y-60409500D01*
X64295268Y-60409500D01*
X64227147Y-60389498D01*
X64206173Y-60372595D01*
X60741353Y-56907776D01*
X62588883Y-56907776D01*
X62590890Y-56948098D01*
X62603882Y-57209066D01*
X62604497Y-57221425D01*
X62605138Y-57225156D01*
X62605139Y-57225164D01*
X62653286Y-57505358D01*
X62657680Y-57530927D01*
X62658768Y-57534566D01*
X62658769Y-57534569D01*
X62741914Y-57812586D01*
X62747659Y-57831797D01*
X62749172Y-57835268D01*
X62749174Y-57835274D01*
X62821168Y-58000455D01*
X62873132Y-58119679D01*
X62875055Y-58122950D01*
X62875057Y-58122954D01*
X62911196Y-58184428D01*
X63032282Y-58390402D01*
X63034583Y-58393417D01*
X63137188Y-58527861D01*
X63222803Y-58640044D01*
X63225451Y-58642763D01*
X63225456Y-58642768D01*
X63403687Y-58825727D01*
X63441935Y-58864990D01*
X63444879Y-58867361D01*
X63444882Y-58867364D01*
X63683552Y-59059602D01*
X63683557Y-59059606D01*
X63686505Y-59061980D01*
X63952969Y-59228162D01*
X63991159Y-59246011D01*
X64229784Y-59357538D01*
X64237467Y-59361129D01*
X64241074Y-59362311D01*
X64241078Y-59362313D01*
X64397558Y-59413609D01*
X64535880Y-59458953D01*
X64539590Y-59459691D01*
X64539594Y-59459692D01*
X64684040Y-59488424D01*
X64843883Y-59520219D01*
X65000450Y-59532129D01*
X65153239Y-59543751D01*
X65153244Y-59543751D01*
X65157016Y-59544038D01*
X65470742Y-59530066D01*
X65474480Y-59529444D01*
X65474488Y-59529443D01*
X65637703Y-59502276D01*
X65780518Y-59478505D01*
X66081855Y-59390103D01*
X66370390Y-59266138D01*
X66641942Y-59108408D01*
X66747906Y-59028414D01*
X66825699Y-58969686D01*
X66892579Y-58919197D01*
X67118669Y-58701245D01*
X67238881Y-58553588D01*
X67314543Y-58460652D01*
X67314546Y-58460648D01*
X67316937Y-58457711D01*
X67361469Y-58387132D01*
X67482485Y-58195334D01*
X67482487Y-58195331D01*
X67484512Y-58192121D01*
X67487648Y-58185503D01*
X67553923Y-58045611D01*
X67618966Y-57908322D01*
X67621968Y-57899326D01*
X67690281Y-57694565D01*
X67718352Y-57610426D01*
X67781229Y-57302748D01*
X67806688Y-56989744D01*
X67807260Y-56935100D01*
X67805842Y-56911568D01*
X67788590Y-56625410D01*
X67788590Y-56625406D01*
X67788362Y-56621632D01*
X67787682Y-56617908D01*
X67732622Y-56316426D01*
X67732621Y-56316422D01*
X67731942Y-56312704D01*
X67638817Y-56012792D01*
X67625836Y-55983839D01*
X67511891Y-55729709D01*
X67510336Y-55726240D01*
X67348359Y-55457199D01*
X67326031Y-55428568D01*
X67255443Y-55338057D01*
X67155235Y-55209565D01*
X66933759Y-54986927D01*
X66910838Y-54968857D01*
X66690121Y-54794858D01*
X66687140Y-54792508D01*
X66418951Y-54629126D01*
X66305067Y-54577346D01*
X66136527Y-54500715D01*
X66136520Y-54500712D01*
X66133075Y-54499146D01*
X65833655Y-54404452D01*
X65696489Y-54378658D01*
X65528751Y-54347115D01*
X65528746Y-54347114D01*
X65525027Y-54346415D01*
X65211662Y-54325876D01*
X65207882Y-54326084D01*
X65207881Y-54326084D01*
X65121805Y-54330821D01*
X64898099Y-54343132D01*
X64894372Y-54343793D01*
X64894368Y-54343793D01*
X64654367Y-54386328D01*
X64588880Y-54397934D01*
X64585255Y-54399039D01*
X64585250Y-54399040D01*
X64405823Y-54453726D01*
X64288485Y-54489488D01*
X64285021Y-54491019D01*
X64285014Y-54491022D01*
X64108626Y-54569003D01*
X64001264Y-54616467D01*
X63998010Y-54618403D01*
X63998004Y-54618406D01*
X63976676Y-54631095D01*
X63731378Y-54777032D01*
X63728377Y-54779347D01*
X63728373Y-54779350D01*
X63633557Y-54852500D01*
X63482737Y-54968857D01*
X63480036Y-54971516D01*
X63480029Y-54971522D01*
X63261650Y-55186498D01*
X63258942Y-55189164D01*
X63256578Y-55192131D01*
X63256575Y-55192134D01*
X63071338Y-55424593D01*
X63063235Y-55434762D01*
X62898450Y-55702092D01*
X62766975Y-55987283D01*
X62670715Y-56286203D01*
X62669996Y-56289919D01*
X62669994Y-56289927D01*
X62611782Y-56590804D01*
X62611781Y-56590813D01*
X62611063Y-56594523D01*
X62610796Y-56598299D01*
X62610795Y-56598304D01*
X62589429Y-56900064D01*
X62588883Y-56907776D01*
X60741353Y-56907776D01*
X58219905Y-54386328D01*
X58185879Y-54324016D01*
X58183000Y-54297233D01*
X58183000Y-53194689D01*
X58203002Y-53126568D01*
X58256658Y-53080075D01*
X58309000Y-53068689D01*
X62603566Y-53068689D01*
X62639318Y-53061578D01*
X62665626Y-53056346D01*
X62665628Y-53056345D01*
X62677801Y-53053924D01*
X62688121Y-53047029D01*
X62688122Y-53047028D01*
X62751668Y-53004567D01*
X62761984Y-52997674D01*
X62818234Y-52913491D01*
X62833000Y-52839257D01*
X62832999Y-43389124D01*
X62818234Y-43314889D01*
X62811338Y-43304568D01*
X62811338Y-43304567D01*
X62789546Y-43271955D01*
X62768330Y-43204202D01*
X62787112Y-43135735D01*
X62839929Y-43088292D01*
X62910011Y-43076934D01*
X62954433Y-43091221D01*
X63009293Y-43121008D01*
X63162522Y-43161207D01*
X63246477Y-43162526D01*
X63313319Y-43163576D01*
X63313322Y-43163576D01*
X63320916Y-43163695D01*
X63475332Y-43128329D01*
X63616855Y-43057151D01*
X63617634Y-43058700D01*
X63664064Y-43044296D01*
X63681481Y-43004283D01*
X63696332Y-42989271D01*
X63731536Y-42959204D01*
X63731536Y-42959203D01*
X63737314Y-42954269D01*
X63829755Y-42825624D01*
X63875230Y-42712503D01*
X63919197Y-42656759D01*
X63992137Y-42633500D01*
X68566770Y-42633500D01*
X68590718Y-42636049D01*
X68592383Y-42636128D01*
X68602566Y-42638320D01*
X68612907Y-42637096D01*
X68635913Y-42634373D01*
X68641844Y-42634023D01*
X68641836Y-42633928D01*
X68647014Y-42633500D01*
X68652214Y-42633500D01*
X68657343Y-42632646D01*
X68657346Y-42632646D01*
X68671255Y-42630331D01*
X68677133Y-42629494D01*
X68717691Y-42624694D01*
X68717692Y-42624694D01*
X68728031Y-42623470D01*
X68736283Y-42619507D01*
X68745316Y-42618004D01*
X68754485Y-42613057D01*
X68754487Y-42613056D01*
X68790422Y-42593666D01*
X68795715Y-42590969D01*
X68834772Y-42572215D01*
X68834776Y-42572212D01*
X68841922Y-42568781D01*
X68846198Y-42565186D01*
X68848121Y-42563263D01*
X68850053Y-42561491D01*
X68850132Y-42561448D01*
X68850245Y-42561572D01*
X68850785Y-42561096D01*
X68856504Y-42558010D01*
X68893107Y-42518413D01*
X68896536Y-42514848D01*
X70890906Y-40520478D01*
X70953218Y-40486452D01*
X71024033Y-40491517D01*
X71080869Y-40534064D01*
X71105680Y-40600584D01*
X71106001Y-40609573D01*
X71106001Y-41289256D01*
X71113112Y-41325008D01*
X71118306Y-41351121D01*
X71120766Y-41363491D01*
X71177016Y-41447674D01*
X71261199Y-41503924D01*
X71335433Y-41518690D01*
X71910407Y-41518690D01*
X72485566Y-41518689D01*
X72521318Y-41511578D01*
X72547626Y-41506346D01*
X72547628Y-41506345D01*
X72559801Y-41503924D01*
X72570121Y-41497029D01*
X72570122Y-41497028D01*
X72633668Y-41454567D01*
X72643984Y-41447674D01*
X72700234Y-41363491D01*
X72715000Y-41289257D01*
X72714999Y-36639124D01*
X72707888Y-36603372D01*
X72702656Y-36577064D01*
X72702655Y-36577062D01*
X72700234Y-36564889D01*
X72643984Y-36480706D01*
X72559801Y-36424456D01*
X72485567Y-36409690D01*
X71910593Y-36409690D01*
X71335434Y-36409691D01*
X71302854Y-36416171D01*
X71273374Y-36422034D01*
X71273372Y-36422035D01*
X71261199Y-36424456D01*
X71250879Y-36431351D01*
X71250878Y-36431352D01*
X71190485Y-36471706D01*
X71177016Y-36480706D01*
X71120766Y-36564889D01*
X71106000Y-36639123D01*
X71106000Y-36645310D01*
X71106001Y-39179805D01*
X71085999Y-39247926D01*
X71069096Y-39268900D01*
X68500401Y-41837595D01*
X68438089Y-41871621D01*
X68411306Y-41874500D01*
X63559920Y-41874500D01*
X63535973Y-41871951D01*
X63534307Y-41871872D01*
X63524124Y-41869680D01*
X63513782Y-41870904D01*
X63513779Y-41870904D01*
X63490787Y-41873626D01*
X63484846Y-41873977D01*
X63484854Y-41874072D01*
X63479675Y-41874500D01*
X63474476Y-41874500D01*
X63469350Y-41875353D01*
X63469341Y-41875354D01*
X63465616Y-41875974D01*
X63414239Y-41873887D01*
X63342004Y-41855743D01*
X63342000Y-41855743D01*
X63334633Y-41853892D01*
X63327033Y-41853852D01*
X63327032Y-41853852D01*
X63262232Y-41853513D01*
X63176221Y-41853062D01*
X63168841Y-41854834D01*
X63168839Y-41854834D01*
X63029563Y-41888271D01*
X63029560Y-41888272D01*
X63022184Y-41890043D01*
X62881414Y-41962700D01*
X62762039Y-42066838D01*
X62670950Y-42196444D01*
X62613406Y-42344037D01*
X62592729Y-42501096D01*
X62599013Y-42558010D01*
X62607405Y-42634023D01*
X62610113Y-42658553D01*
X62612723Y-42665684D01*
X62612723Y-42665686D01*
X62629856Y-42712503D01*
X62664553Y-42807319D01*
X62752908Y-42938805D01*
X62763118Y-42948095D01*
X62769871Y-42954240D01*
X62806794Y-43014880D01*
X62805071Y-43085856D01*
X62765249Y-43144633D01*
X62699972Y-43172550D01*
X62660492Y-43171013D01*
X62603567Y-43159690D01*
X57178939Y-43159690D01*
X51753434Y-43159691D01*
X51717682Y-43166802D01*
X51691374Y-43172034D01*
X51691372Y-43172035D01*
X51679199Y-43174456D01*
X51668879Y-43181351D01*
X51668878Y-43181352D01*
X51630934Y-43206706D01*
X51595016Y-43230706D01*
X51538766Y-43314889D01*
X51524000Y-43389123D01*
X51524000Y-43395310D01*
X51524001Y-52717500D01*
X51503999Y-52785621D01*
X51450343Y-52832114D01*
X51398001Y-52843500D01*
X51188578Y-52843500D01*
X51120457Y-52823498D01*
X51099483Y-52806595D01*
X50677905Y-52385017D01*
X50643879Y-52322705D01*
X50641000Y-52295922D01*
X50640999Y-43395312D01*
X50640999Y-43389124D01*
X50626234Y-43314889D01*
X50569984Y-43230706D01*
X50485801Y-43174456D01*
X50411567Y-43159690D01*
X44986939Y-43159690D01*
X39561434Y-43159691D01*
X39525682Y-43166802D01*
X39499374Y-43172034D01*
X39499372Y-43172035D01*
X39487199Y-43174456D01*
X39476879Y-43181351D01*
X39476878Y-43181352D01*
X39438934Y-43206706D01*
X39403016Y-43230706D01*
X39346766Y-43314889D01*
X39332000Y-43389123D01*
X39332001Y-52839256D01*
X39346766Y-52913491D01*
X39403016Y-52997674D01*
X39487199Y-53053924D01*
X39561433Y-53068690D01*
X40510938Y-53068690D01*
X48468232Y-53068689D01*
X48536353Y-53088691D01*
X48557327Y-53105594D01*
X49592591Y-54140858D01*
X49626617Y-54203170D01*
X49621552Y-54273985D01*
X49579005Y-54330821D01*
X49512485Y-54355632D01*
X49480211Y-54353783D01*
X49452813Y-54348631D01*
X49441027Y-54346415D01*
X49127662Y-54325876D01*
X49123882Y-54326084D01*
X49123881Y-54326084D01*
X49037805Y-54330821D01*
X48814099Y-54343132D01*
X48810372Y-54343793D01*
X48810368Y-54343793D01*
X48570367Y-54386328D01*
X48504880Y-54397934D01*
X48501255Y-54399039D01*
X48501250Y-54399040D01*
X48321823Y-54453726D01*
X48204485Y-54489488D01*
X48201021Y-54491019D01*
X48201014Y-54491022D01*
X48024626Y-54569003D01*
X47917264Y-54616467D01*
X47914010Y-54618403D01*
X47914004Y-54618406D01*
X47892676Y-54631095D01*
X47647378Y-54777032D01*
X47644377Y-54779347D01*
X47644373Y-54779350D01*
X47549557Y-54852500D01*
X47398737Y-54968857D01*
X47396036Y-54971516D01*
X47396029Y-54971522D01*
X47177650Y-55186498D01*
X47174942Y-55189164D01*
X47172578Y-55192131D01*
X47172575Y-55192134D01*
X46987338Y-55424593D01*
X46979235Y-55434762D01*
X46814450Y-55702092D01*
X46682975Y-55987283D01*
X46586715Y-56286203D01*
X46585996Y-56289919D01*
X46585994Y-56289927D01*
X46527782Y-56590804D01*
X46527781Y-56590813D01*
X46527063Y-56594523D01*
X46526796Y-56598299D01*
X46526795Y-56598304D01*
X46505429Y-56900064D01*
X46504883Y-56907776D01*
X46506890Y-56948098D01*
X46519882Y-57209066D01*
X46520497Y-57221425D01*
X46521138Y-57225156D01*
X46521139Y-57225164D01*
X46569286Y-57505358D01*
X46573680Y-57530927D01*
X46574768Y-57534566D01*
X46574769Y-57534569D01*
X46657914Y-57812586D01*
X46663659Y-57831797D01*
X46665172Y-57835268D01*
X46665174Y-57835274D01*
X46737168Y-58000455D01*
X46789132Y-58119679D01*
X46791055Y-58122950D01*
X46791057Y-58122954D01*
X46827196Y-58184428D01*
X46948282Y-58390402D01*
X46950583Y-58393417D01*
X47053188Y-58527861D01*
X47138803Y-58640044D01*
X47141451Y-58642763D01*
X47141456Y-58642768D01*
X47319687Y-58825727D01*
X47357935Y-58864990D01*
X47360879Y-58867361D01*
X47360882Y-58867364D01*
X47599552Y-59059602D01*
X47599557Y-59059606D01*
X47602505Y-59061980D01*
X47868969Y-59228162D01*
X47907159Y-59246011D01*
X48145784Y-59357538D01*
X48153467Y-59361129D01*
X48157074Y-59362311D01*
X48157078Y-59362313D01*
X48313558Y-59413609D01*
X48451880Y-59458953D01*
X48455590Y-59459691D01*
X48455594Y-59459692D01*
X48600040Y-59488424D01*
X48759883Y-59520219D01*
X48916450Y-59532129D01*
X49069239Y-59543751D01*
X49069244Y-59543751D01*
X49073016Y-59544038D01*
X49386742Y-59530066D01*
X49390480Y-59529444D01*
X49390488Y-59529443D01*
X49553703Y-59502276D01*
X49696518Y-59478505D01*
X49997855Y-59390103D01*
X50286390Y-59266138D01*
X50557942Y-59108408D01*
X50663906Y-59028414D01*
X50741699Y-58969686D01*
X50808579Y-58919197D01*
X51034669Y-58701245D01*
X51154881Y-58553588D01*
X51230543Y-58460652D01*
X51230546Y-58460648D01*
X51232937Y-58457711D01*
X51277469Y-58387132D01*
X51398485Y-58195334D01*
X51398487Y-58195331D01*
X51400512Y-58192121D01*
X51403648Y-58185503D01*
X51469923Y-58045611D01*
X51534966Y-57908322D01*
X51537968Y-57899326D01*
X51606281Y-57694565D01*
X51634352Y-57610426D01*
X51697229Y-57302748D01*
X51722688Y-56989744D01*
X51723260Y-56935100D01*
X51721842Y-56911568D01*
X51704590Y-56625410D01*
X51704590Y-56625406D01*
X51704362Y-56621632D01*
X51703682Y-56617908D01*
X51648622Y-56316426D01*
X51648621Y-56316422D01*
X51647942Y-56312704D01*
X51554817Y-56012792D01*
X51541836Y-55983839D01*
X51427891Y-55729709D01*
X51426336Y-55726240D01*
X51264359Y-55457199D01*
X51242031Y-55428568D01*
X51171443Y-55338057D01*
X51071235Y-55209565D01*
X50929774Y-55067362D01*
X50895912Y-55004961D01*
X50901162Y-54934159D01*
X50943857Y-54877435D01*
X51010442Y-54852798D01*
X51019102Y-54852500D01*
X53125732Y-54852500D01*
X53193853Y-54872502D01*
X53214827Y-54889405D01*
X55373603Y-57048181D01*
X55407629Y-57110493D01*
X55402564Y-57181308D01*
X55360017Y-57238144D01*
X55332727Y-57253684D01*
X55226993Y-57297482D01*
X55226990Y-57297484D01*
X55219358Y-57300645D01*
X55103526Y-57389526D01*
X55014645Y-57505358D01*
X55011486Y-57512984D01*
X55011485Y-57512986D01*
X55004054Y-57530927D01*
X54958772Y-57640246D01*
X54957695Y-57648430D01*
X54957694Y-57648432D01*
X54942898Y-57760826D01*
X54939715Y-57785000D01*
X54940793Y-57793188D01*
X54953374Y-57888748D01*
X54958772Y-57929754D01*
X55014645Y-58064642D01*
X55103526Y-58180474D01*
X55110076Y-58185500D01*
X55110079Y-58185503D01*
X55196656Y-58251936D01*
X55219357Y-58269355D01*
X55354246Y-58325228D01*
X55482612Y-58342128D01*
X55547538Y-58370849D01*
X55555260Y-58377954D01*
X56503095Y-59325789D01*
X56537121Y-59388101D01*
X56540000Y-59414884D01*
X56540000Y-59904242D01*
X56519998Y-59972363D01*
X56466342Y-60018856D01*
X56458231Y-60022224D01*
X56439203Y-60029357D01*
X56439202Y-60029358D01*
X56430801Y-60032507D01*
X56318026Y-60117026D01*
X56233507Y-60229801D01*
X56230357Y-60238202D01*
X56230356Y-60238205D01*
X56229516Y-60240446D01*
X56184036Y-60361764D01*
X56177500Y-60421930D01*
X56177500Y-60990070D01*
X56184036Y-61050236D01*
X56192712Y-61073378D01*
X56230266Y-61173553D01*
X56233507Y-61182199D01*
X56318026Y-61294974D01*
X56430801Y-61379493D01*
X56439202Y-61382642D01*
X56439203Y-61382643D01*
X56458231Y-61389776D01*
X56514995Y-61432419D01*
X56539694Y-61498980D01*
X56540000Y-61507758D01*
X56540000Y-61555242D01*
X56519998Y-61623363D01*
X56466342Y-61669856D01*
X56458231Y-61673224D01*
X56439203Y-61680357D01*
X56439202Y-61680358D01*
X56430801Y-61683507D01*
X56318026Y-61768026D01*
X56233507Y-61880801D01*
X56230357Y-61889202D01*
X56230356Y-61889205D01*
X56213733Y-61933548D01*
X56184036Y-62012764D01*
X56177500Y-62072930D01*
X56177500Y-62641070D01*
X56184036Y-62701236D01*
X56186810Y-62708635D01*
X56228871Y-62820832D01*
X56233507Y-62833199D01*
X56318026Y-62945974D01*
X56430801Y-63030493D01*
X56439202Y-63033643D01*
X56439205Y-63033644D01*
X56481731Y-63049586D01*
X56562764Y-63079964D01*
X56622930Y-63086500D01*
X57216070Y-63086500D01*
X57276236Y-63079964D01*
X57357269Y-63049586D01*
X57399795Y-63033644D01*
X57399798Y-63033643D01*
X57408199Y-63030493D01*
X57520974Y-62945974D01*
X57605493Y-62833199D01*
X57610130Y-62820832D01*
X57652190Y-62708635D01*
X57654964Y-62701236D01*
X57661500Y-62641070D01*
X57661500Y-62072930D01*
X57654964Y-62012764D01*
X57625267Y-61933548D01*
X57608644Y-61889205D01*
X57608643Y-61889202D01*
X57605493Y-61880801D01*
X57520974Y-61768026D01*
X57408199Y-61683507D01*
X57399798Y-61680358D01*
X57399797Y-61680357D01*
X57380769Y-61673224D01*
X57324005Y-61630581D01*
X57299306Y-61564020D01*
X57299000Y-61555242D01*
X57299000Y-61507758D01*
X57319002Y-61439637D01*
X57372658Y-61393144D01*
X57380769Y-61389776D01*
X57399797Y-61382643D01*
X57399798Y-61382642D01*
X57408199Y-61379493D01*
X57520974Y-61294974D01*
X57605493Y-61182199D01*
X57608735Y-61173553D01*
X57646288Y-61073378D01*
X57654964Y-61050236D01*
X57661500Y-60990070D01*
X57661500Y-60421930D01*
X57654964Y-60361764D01*
X57609484Y-60240446D01*
X57608644Y-60238205D01*
X57608643Y-60238202D01*
X57605493Y-60229801D01*
X57520974Y-60117026D01*
X57408199Y-60032507D01*
X57399798Y-60029358D01*
X57399797Y-60029357D01*
X57380769Y-60022224D01*
X57324005Y-59979581D01*
X57299306Y-59913020D01*
X57299000Y-59904242D01*
X57299000Y-59277768D01*
X57319002Y-59209647D01*
X57372658Y-59163154D01*
X57442932Y-59153050D01*
X57507512Y-59182544D01*
X57514095Y-59188673D01*
X61628669Y-63303247D01*
X61662695Y-63365559D01*
X61657630Y-63436374D01*
X61615083Y-63493210D01*
X61548563Y-63518021D01*
X61495344Y-63510324D01*
X61488534Y-63507771D01*
X61473236Y-63502036D01*
X61413070Y-63495500D01*
X61036384Y-63495500D01*
X60968263Y-63475498D01*
X60947289Y-63458595D01*
X60409954Y-62921260D01*
X60375928Y-62858948D01*
X60374127Y-62848611D01*
X60374082Y-62848263D01*
X60362615Y-62761162D01*
X60358306Y-62728432D01*
X60358305Y-62728430D01*
X60357228Y-62720246D01*
X60301355Y-62585358D01*
X60212474Y-62469526D01*
X60205924Y-62464500D01*
X60205921Y-62464497D01*
X60103196Y-62385673D01*
X60103194Y-62385672D01*
X60096643Y-62380645D01*
X59961754Y-62324772D01*
X59817000Y-62305715D01*
X59808812Y-62306793D01*
X59680432Y-62323694D01*
X59680430Y-62323695D01*
X59672246Y-62324772D01*
X59657278Y-62330972D01*
X59544986Y-62377485D01*
X59544984Y-62377486D01*
X59537358Y-62380645D01*
X59421526Y-62469526D01*
X59332645Y-62585358D01*
X59276772Y-62720246D01*
X59275695Y-62728430D01*
X59275694Y-62728432D01*
X59271385Y-62761162D01*
X59257715Y-62865000D01*
X59258793Y-62873188D01*
X59271374Y-62968748D01*
X59276772Y-63009754D01*
X59287284Y-63035132D01*
X59308562Y-63086500D01*
X59332645Y-63144642D01*
X59337672Y-63151193D01*
X59411571Y-63247500D01*
X59421526Y-63260474D01*
X59428076Y-63265500D01*
X59428079Y-63265503D01*
X59516533Y-63333376D01*
X59558400Y-63390714D01*
X59562622Y-63461585D01*
X59550925Y-63484607D01*
X59545500Y-63509548D01*
X59545500Y-63952885D01*
X59549975Y-63968124D01*
X59551365Y-63969329D01*
X59559048Y-63971000D01*
X60014884Y-63971000D01*
X60030123Y-63966525D01*
X60031328Y-63965135D01*
X60032999Y-63957452D01*
X60032999Y-63944395D01*
X60032629Y-63937572D01*
X60032240Y-63933985D01*
X60044774Y-63864104D01*
X60093099Y-63812092D01*
X60161872Y-63794464D01*
X60229258Y-63816815D01*
X60246599Y-63831293D01*
X60337595Y-63922289D01*
X60371621Y-63984601D01*
X60374500Y-64011384D01*
X60374500Y-64509070D01*
X60381036Y-64569236D01*
X60383810Y-64576635D01*
X60427266Y-64692553D01*
X60430507Y-64701199D01*
X60515026Y-64813974D01*
X60522206Y-64819355D01*
X60608966Y-64884377D01*
X60627801Y-64898493D01*
X60636204Y-64901643D01*
X60644079Y-64905954D01*
X60642804Y-64908283D01*
X60688502Y-64942618D01*
X60713195Y-65009182D01*
X60713500Y-65017948D01*
X60713500Y-65094693D01*
X60693498Y-65162814D01*
X60651321Y-65202125D01*
X60650301Y-65202507D01*
X60537526Y-65287026D01*
X60453007Y-65399801D01*
X60449857Y-65408202D01*
X60449856Y-65408205D01*
X60440309Y-65433672D01*
X60403536Y-65531764D01*
X60397000Y-65591930D01*
X60397000Y-66160070D01*
X60403536Y-66220236D01*
X60406308Y-66227631D01*
X60406310Y-66227638D01*
X60415545Y-66252271D01*
X60420728Y-66323078D01*
X60386807Y-66385447D01*
X60324552Y-66419576D01*
X60297563Y-66422500D01*
X60155437Y-66422500D01*
X60087316Y-66402498D01*
X60040823Y-66348842D01*
X60030719Y-66278568D01*
X60037455Y-66252271D01*
X60046690Y-66227638D01*
X60046692Y-66227631D01*
X60049464Y-66220236D01*
X60056000Y-66160070D01*
X60056000Y-65591930D01*
X60049464Y-65531764D01*
X60012691Y-65433672D01*
X60003144Y-65408205D01*
X60003143Y-65408202D01*
X59999993Y-65399801D01*
X59915474Y-65287026D01*
X59802699Y-65202507D01*
X59794297Y-65199357D01*
X59794293Y-65199355D01*
X59699977Y-65163998D01*
X59643212Y-65121357D01*
X59618512Y-65054795D01*
X59633719Y-64985446D01*
X59684005Y-64935328D01*
X59699976Y-64928034D01*
X59771553Y-64901201D01*
X59787139Y-64892667D01*
X59885437Y-64818998D01*
X59897998Y-64806437D01*
X59971667Y-64708139D01*
X59980201Y-64692553D01*
X60023697Y-64576527D01*
X60027325Y-64561271D01*
X60032631Y-64512424D01*
X60033000Y-64505607D01*
X60033000Y-64497115D01*
X60028525Y-64481876D01*
X60027135Y-64480671D01*
X60019452Y-64479000D01*
X58568116Y-64479000D01*
X58552877Y-64483475D01*
X58551672Y-64484865D01*
X58550001Y-64492548D01*
X58550001Y-64505605D01*
X58550371Y-64512426D01*
X58555676Y-64561273D01*
X58559302Y-64576524D01*
X58602799Y-64692553D01*
X58611333Y-64708139D01*
X58685002Y-64806437D01*
X58697563Y-64818998D01*
X58795861Y-64892667D01*
X58811447Y-64901201D01*
X58905524Y-64936469D01*
X58962288Y-64979111D01*
X58986988Y-65045673D01*
X58971780Y-65115021D01*
X58921494Y-65165139D01*
X58905523Y-65172433D01*
X58833707Y-65199355D01*
X58833703Y-65199357D01*
X58825301Y-65202507D01*
X58712526Y-65287026D01*
X58628007Y-65399801D01*
X58624856Y-65408206D01*
X58624855Y-65408208D01*
X58622409Y-65414732D01*
X58579766Y-65471496D01*
X58513204Y-65496194D01*
X58504428Y-65496500D01*
X57687844Y-65496500D01*
X57619723Y-65476498D01*
X57611153Y-65470472D01*
X57556643Y-65428645D01*
X57421754Y-65372772D01*
X57277000Y-65353715D01*
X57253255Y-65356841D01*
X57140432Y-65371694D01*
X57140430Y-65371695D01*
X57132246Y-65372772D01*
X57084430Y-65392578D01*
X57004986Y-65425485D01*
X57004984Y-65425486D01*
X56997358Y-65428645D01*
X56881526Y-65517526D01*
X56792645Y-65633358D01*
X56736772Y-65768246D01*
X56735695Y-65776430D01*
X56735694Y-65776432D01*
X56725137Y-65856621D01*
X56717715Y-65913000D01*
X56718793Y-65921188D01*
X56733064Y-66029586D01*
X56736772Y-66057754D01*
X56739931Y-66065380D01*
X56780424Y-66163137D01*
X56792645Y-66192642D01*
X56881526Y-66308474D01*
X56888076Y-66313500D01*
X56888079Y-66313503D01*
X56990658Y-66392215D01*
X56997357Y-66397355D01*
X57132246Y-66453228D01*
X57277000Y-66472285D01*
X57285188Y-66471207D01*
X57366207Y-66460541D01*
X57436356Y-66471481D01*
X57489454Y-66518609D01*
X57508644Y-66586963D01*
X57487833Y-66654841D01*
X57471748Y-66674558D01*
X57173784Y-66972522D01*
X57155036Y-66987664D01*
X57153811Y-66988779D01*
X57145060Y-66994429D01*
X57138613Y-67002607D01*
X57138611Y-67002609D01*
X57124271Y-67020800D01*
X57120325Y-67025241D01*
X57120398Y-67025303D01*
X57117039Y-67029267D01*
X57113362Y-67032944D01*
X57102108Y-67048692D01*
X57098602Y-67053362D01*
X57066844Y-67093647D01*
X57063812Y-67102281D01*
X57058486Y-67109734D01*
X57056245Y-67117228D01*
X57009332Y-67168487D01*
X56940694Y-67186633D01*
X56919533Y-67184258D01*
X56884085Y-67177207D01*
X56871830Y-67176000D01*
X56850115Y-67176000D01*
X56834876Y-67180475D01*
X56833671Y-67181865D01*
X56832000Y-67189548D01*
X56832000Y-69265884D01*
X56836475Y-69281123D01*
X56837865Y-69282328D01*
X56845548Y-69283999D01*
X56871828Y-69283999D01*
X56884088Y-69282791D01*
X56952106Y-69269263D01*
X56952967Y-69273594D01*
X56999772Y-69268588D01*
X57003698Y-69269742D01*
X57003699Y-69269734D01*
X57057474Y-69280430D01*
X57120382Y-69313337D01*
X57155515Y-69375032D01*
X57151715Y-69445927D01*
X57109596Y-69503971D01*
X57015076Y-69576499D01*
X57015072Y-69576503D01*
X57008526Y-69581526D01*
X56919645Y-69697358D01*
X56863772Y-69832246D01*
X56862695Y-69840430D01*
X56862694Y-69840432D01*
X56852717Y-69916216D01*
X56844715Y-69977000D01*
X56845793Y-69985188D01*
X56862294Y-70110524D01*
X56863772Y-70121754D01*
X56866931Y-70129380D01*
X56910608Y-70234824D01*
X56919645Y-70256642D01*
X56938835Y-70281651D01*
X57003314Y-70365681D01*
X57008526Y-70372474D01*
X57015076Y-70377500D01*
X57015079Y-70377503D01*
X57117804Y-70456327D01*
X57124357Y-70461355D01*
X57259246Y-70517228D01*
X57267434Y-70518306D01*
X57331623Y-70526756D01*
X57404000Y-70536285D01*
X57412188Y-70535207D01*
X57540566Y-70518306D01*
X57548754Y-70517228D01*
X57683643Y-70461355D01*
X57690196Y-70456327D01*
X57792921Y-70377503D01*
X57792924Y-70377500D01*
X57799474Y-70372474D01*
X57804687Y-70365681D01*
X57869165Y-70281651D01*
X57888355Y-70256642D01*
X57897393Y-70234824D01*
X57941069Y-70129380D01*
X57944228Y-70121754D01*
X57945707Y-70110524D01*
X57957998Y-70017156D01*
X57961128Y-69993388D01*
X57989849Y-69928462D01*
X57996954Y-69920740D01*
X58358405Y-69559289D01*
X58420717Y-69525263D01*
X58491532Y-69530328D01*
X58548368Y-69572875D01*
X58573179Y-69639395D01*
X58573500Y-69648384D01*
X58573501Y-69824620D01*
X58573501Y-69980066D01*
X58586531Y-70045578D01*
X58588266Y-70054301D01*
X58584066Y-70055136D01*
X58589157Y-70102324D01*
X58588172Y-70105680D01*
X58588266Y-70105699D01*
X58573500Y-70179933D01*
X58573501Y-70780066D01*
X58582870Y-70827172D01*
X58588266Y-70854301D01*
X58584066Y-70855136D01*
X58589157Y-70902324D01*
X58588172Y-70905680D01*
X58588266Y-70905699D01*
X58573500Y-70979933D01*
X58573501Y-71580066D01*
X58585990Y-71642859D01*
X58588266Y-71654301D01*
X58584066Y-71655136D01*
X58589157Y-71702324D01*
X58588172Y-71705680D01*
X58588266Y-71705699D01*
X58573500Y-71779933D01*
X58573501Y-72380066D01*
X58585234Y-72439056D01*
X58588266Y-72454301D01*
X58584066Y-72455136D01*
X58589157Y-72502324D01*
X58588172Y-72505680D01*
X58588266Y-72505699D01*
X58573500Y-72579933D01*
X58573501Y-73180066D01*
X58588266Y-73254301D01*
X58584066Y-73255136D01*
X58589157Y-73302324D01*
X58588172Y-73305680D01*
X58588266Y-73305699D01*
X58573500Y-73379933D01*
X58573501Y-73980066D01*
X58576686Y-73996077D01*
X58588266Y-74054301D01*
X58584066Y-74055136D01*
X58589157Y-74102324D01*
X58588172Y-74105680D01*
X58588266Y-74105699D01*
X58573500Y-74179933D01*
X58573501Y-74780066D01*
X58584659Y-74836165D01*
X58588266Y-74854301D01*
X58584066Y-74855136D01*
X58589157Y-74902324D01*
X58588172Y-74905680D01*
X58588266Y-74905699D01*
X58573500Y-74979933D01*
X58573501Y-75276614D01*
X58573501Y-75549500D01*
X58553499Y-75617621D01*
X58499843Y-75664114D01*
X58447501Y-75675500D01*
X57978988Y-75675501D01*
X57877934Y-75675501D01*
X57803699Y-75690266D01*
X57802864Y-75686066D01*
X57755676Y-75691157D01*
X57752320Y-75690172D01*
X57752301Y-75690266D01*
X57684135Y-75676707D01*
X57678067Y-75675500D01*
X57378049Y-75675500D01*
X57077934Y-75675501D01*
X57003699Y-75690266D01*
X57002864Y-75686066D01*
X56955676Y-75691157D01*
X56952320Y-75690172D01*
X56952301Y-75690266D01*
X56884135Y-75676707D01*
X56878067Y-75675500D01*
X56578049Y-75675500D01*
X56277934Y-75675501D01*
X56203699Y-75690266D01*
X56202905Y-75686272D01*
X56154941Y-75691420D01*
X56152134Y-75690596D01*
X56152106Y-75690737D01*
X56084085Y-75677207D01*
X56071830Y-75676000D01*
X56050115Y-75676000D01*
X56034876Y-75680475D01*
X56033671Y-75681865D01*
X56032000Y-75689548D01*
X56032000Y-77765884D01*
X56036475Y-77781123D01*
X56037865Y-77782328D01*
X56045548Y-77783999D01*
X56071828Y-77783999D01*
X56084088Y-77782791D01*
X56152106Y-77769263D01*
X56152967Y-77773594D01*
X56199772Y-77768588D01*
X56203698Y-77769742D01*
X56203699Y-77769734D01*
X56277933Y-77784500D01*
X56577951Y-77784500D01*
X56878066Y-77784499D01*
X56952301Y-77769734D01*
X56953136Y-77773934D01*
X57000324Y-77768843D01*
X57003680Y-77769828D01*
X57003699Y-77769734D01*
X57077933Y-77784500D01*
X57377951Y-77784500D01*
X57678066Y-77784499D01*
X57752301Y-77769734D01*
X57753136Y-77773934D01*
X57800324Y-77768843D01*
X57803680Y-77769828D01*
X57803699Y-77769734D01*
X57877933Y-77784500D01*
X58177951Y-77784500D01*
X58478066Y-77784499D01*
X58513818Y-77777388D01*
X58540126Y-77772156D01*
X58540128Y-77772155D01*
X58552301Y-77769734D01*
X58562621Y-77762839D01*
X58562622Y-77762838D01*
X58608197Y-77732385D01*
X66581000Y-77732385D01*
X66585475Y-77747624D01*
X66586865Y-77748829D01*
X66594548Y-77750500D01*
X67037885Y-77750500D01*
X67053124Y-77746025D01*
X67054329Y-77744635D01*
X67056000Y-77736952D01*
X67056000Y-77732385D01*
X67564000Y-77732385D01*
X67568475Y-77747624D01*
X67569865Y-77748829D01*
X67577548Y-77750500D01*
X68020884Y-77750500D01*
X68036123Y-77746025D01*
X68037328Y-77744635D01*
X68038999Y-77736952D01*
X68038999Y-77661395D01*
X68038629Y-77654574D01*
X68033324Y-77605727D01*
X68029698Y-77590476D01*
X67986201Y-77474447D01*
X67977667Y-77458861D01*
X67903998Y-77360563D01*
X67891437Y-77348002D01*
X67793139Y-77274333D01*
X67777553Y-77265799D01*
X67661527Y-77222303D01*
X67646271Y-77218675D01*
X67597424Y-77213369D01*
X67590607Y-77213000D01*
X67582115Y-77213000D01*
X67566876Y-77217475D01*
X67565671Y-77218865D01*
X67564000Y-77226548D01*
X67564000Y-77732385D01*
X67056000Y-77732385D01*
X67056000Y-77231116D01*
X67051525Y-77215877D01*
X67050135Y-77214672D01*
X67042452Y-77213001D01*
X67029395Y-77213001D01*
X67022574Y-77213371D01*
X66973727Y-77218676D01*
X66958476Y-77222302D01*
X66842447Y-77265799D01*
X66826861Y-77274333D01*
X66728563Y-77348002D01*
X66716002Y-77360563D01*
X66642333Y-77458861D01*
X66633799Y-77474447D01*
X66590303Y-77590473D01*
X66586675Y-77605729D01*
X66581369Y-77654576D01*
X66581000Y-77661393D01*
X66581000Y-77732385D01*
X58608197Y-77732385D01*
X58626168Y-77720377D01*
X58636484Y-77713484D01*
X58692734Y-77629301D01*
X58707500Y-77555067D01*
X58707499Y-75935499D01*
X58727501Y-75867379D01*
X58781157Y-75820886D01*
X58833499Y-75809500D01*
X60175208Y-75809499D01*
X60453066Y-75809499D01*
X60488818Y-75802388D01*
X60515126Y-75797156D01*
X60515128Y-75797155D01*
X60527301Y-75794734D01*
X60537621Y-75787839D01*
X60537622Y-75787838D01*
X60601168Y-75745377D01*
X60611484Y-75738484D01*
X60667734Y-75654301D01*
X60682500Y-75580067D01*
X60682499Y-74979934D01*
X60667734Y-74905699D01*
X60671934Y-74904864D01*
X60666843Y-74857676D01*
X60667828Y-74854320D01*
X60667734Y-74854301D01*
X60681293Y-74786135D01*
X60682500Y-74780067D01*
X60682499Y-74179934D01*
X60667734Y-74105699D01*
X60671934Y-74104864D01*
X60666843Y-74057676D01*
X60667828Y-74054320D01*
X60667734Y-74054301D01*
X60681293Y-73986135D01*
X60682500Y-73980067D01*
X60682499Y-73379934D01*
X60667734Y-73305699D01*
X60671934Y-73304864D01*
X60666843Y-73257676D01*
X60667828Y-73254320D01*
X60667734Y-73254301D01*
X60681293Y-73186135D01*
X60682500Y-73180067D01*
X60682499Y-72585500D01*
X60702501Y-72517379D01*
X60756157Y-72470886D01*
X60808499Y-72459500D01*
X66041080Y-72459500D01*
X66065028Y-72462049D01*
X66066693Y-72462128D01*
X66076876Y-72464320D01*
X66087217Y-72463096D01*
X66110223Y-72460373D01*
X66116154Y-72460023D01*
X66116146Y-72459928D01*
X66121324Y-72459500D01*
X66126524Y-72459500D01*
X66131653Y-72458646D01*
X66131656Y-72458646D01*
X66145565Y-72456331D01*
X66151443Y-72455494D01*
X66192001Y-72450694D01*
X66192002Y-72450694D01*
X66202341Y-72449470D01*
X66210593Y-72445507D01*
X66219626Y-72444004D01*
X66228795Y-72439057D01*
X66228797Y-72439056D01*
X66264732Y-72419666D01*
X66270025Y-72416969D01*
X66309082Y-72398215D01*
X66309086Y-72398212D01*
X66316232Y-72394781D01*
X66320508Y-72391186D01*
X66322431Y-72389263D01*
X66324363Y-72387491D01*
X66324442Y-72387448D01*
X66324555Y-72387572D01*
X66325095Y-72387096D01*
X66330814Y-72384010D01*
X66367417Y-72344413D01*
X66370846Y-72340848D01*
X66648951Y-72062743D01*
X66711263Y-72028717D01*
X66776982Y-72032005D01*
X66850043Y-72055744D01*
X67035914Y-72077908D01*
X67042049Y-72077436D01*
X67042051Y-72077436D01*
X67216408Y-72064020D01*
X67216413Y-72064019D01*
X67222549Y-72063547D01*
X67228479Y-72061891D01*
X67228481Y-72061891D01*
X67363751Y-72024123D01*
X67402841Y-72013209D01*
X67569921Y-71928810D01*
X67608549Y-71898631D01*
X67712571Y-71817360D01*
X67712572Y-71817360D01*
X67717427Y-71813566D01*
X67810535Y-71705699D01*
X67835709Y-71676535D01*
X67835710Y-71676533D01*
X67839738Y-71671867D01*
X67846764Y-71659500D01*
X67888439Y-71586137D01*
X67932198Y-71509108D01*
X67991283Y-71331491D01*
X68014744Y-71145780D01*
X68015118Y-71119000D01*
X67996852Y-70932706D01*
X67942749Y-70753509D01*
X67936185Y-70741163D01*
X67857764Y-70593674D01*
X67857762Y-70593671D01*
X67854870Y-70588232D01*
X67850980Y-70583462D01*
X67850977Y-70583458D01*
X67740457Y-70447948D01*
X67740454Y-70447945D01*
X67736562Y-70443173D01*
X67730457Y-70438122D01*
X67597081Y-70327784D01*
X67592332Y-70323855D01*
X67427673Y-70234824D01*
X67390977Y-70223465D01*
X67379629Y-70219952D01*
X67320469Y-70180701D01*
X67291922Y-70115697D01*
X67303051Y-70045578D01*
X67350322Y-69992606D01*
X67383007Y-69978228D01*
X67396724Y-69974398D01*
X67408159Y-69969963D01*
X67511309Y-69917857D01*
X67521595Y-69908210D01*
X67519357Y-69901567D01*
X67068812Y-69451022D01*
X67054868Y-69443408D01*
X67053035Y-69443539D01*
X67046420Y-69447790D01*
X66598142Y-69896068D01*
X66591382Y-69908448D01*
X66596291Y-69915006D01*
X66666847Y-69954438D01*
X66678076Y-69959343D01*
X66736444Y-69978308D01*
X66795050Y-70018381D01*
X66822687Y-70083778D01*
X66810580Y-70153735D01*
X66762574Y-70206041D01*
X66733084Y-70219014D01*
X66702624Y-70227979D01*
X66702616Y-70227982D01*
X66696708Y-70229721D01*
X66530822Y-70316444D01*
X66526022Y-70320304D01*
X66526021Y-70320304D01*
X66517979Y-70326770D01*
X66384940Y-70433736D01*
X66264619Y-70577130D01*
X66261655Y-70582522D01*
X66261652Y-70582526D01*
X66254434Y-70595656D01*
X66174441Y-70741163D01*
X66172580Y-70747030D01*
X66172579Y-70747032D01*
X66119703Y-70913718D01*
X66117841Y-70919588D01*
X66096975Y-71105609D01*
X66100348Y-71145780D01*
X66110978Y-71272355D01*
X66112639Y-71292139D01*
X66114338Y-71298064D01*
X66144222Y-71402283D01*
X66143771Y-71473278D01*
X66112198Y-71526108D01*
X65974711Y-71663595D01*
X65912399Y-71697621D01*
X65885616Y-71700500D01*
X60808500Y-71700500D01*
X60740379Y-71680498D01*
X60693886Y-71626842D01*
X60682500Y-71574500D01*
X60682499Y-70986123D01*
X60682499Y-70979934D01*
X60667734Y-70905699D01*
X60671934Y-70904864D01*
X60666843Y-70857676D01*
X60667828Y-70854320D01*
X60667734Y-70854301D01*
X60681293Y-70786135D01*
X60682500Y-70780067D01*
X60682499Y-70179934D01*
X60667734Y-70105699D01*
X60671934Y-70104864D01*
X60666843Y-70057676D01*
X60667828Y-70054320D01*
X60667734Y-70054301D01*
X60681293Y-69986135D01*
X60682500Y-69980067D01*
X60682499Y-69379934D01*
X60675285Y-69343662D01*
X60670156Y-69317874D01*
X60670155Y-69317872D01*
X60667734Y-69305699D01*
X60657265Y-69290030D01*
X60618377Y-69231832D01*
X60611484Y-69221516D01*
X60527301Y-69165266D01*
X60453067Y-69150500D01*
X60446878Y-69150500D01*
X60443152Y-69150133D01*
X60377319Y-69123552D01*
X60340669Y-69071759D01*
X66097993Y-69071759D01*
X66112617Y-69245907D01*
X66114832Y-69257974D01*
X66163002Y-69425966D01*
X66167517Y-69437370D01*
X66217253Y-69534145D01*
X66226971Y-69544363D01*
X66233771Y-69542019D01*
X66683978Y-69091812D01*
X66690356Y-69080132D01*
X67420408Y-69080132D01*
X67420539Y-69081965D01*
X67424790Y-69088580D01*
X67873054Y-69536844D01*
X67885434Y-69543604D01*
X67892167Y-69538563D01*
X67928696Y-69474261D01*
X67933685Y-69463055D01*
X67988847Y-69297232D01*
X67991567Y-69285261D01*
X68013799Y-69109269D01*
X68014291Y-69102242D01*
X68014567Y-69082522D01*
X68014272Y-69075495D01*
X67996960Y-68898938D01*
X67994577Y-68886900D01*
X67944066Y-68719600D01*
X67939392Y-68708259D01*
X67894632Y-68624079D01*
X67884772Y-68613997D01*
X67877644Y-68616566D01*
X67428022Y-69066188D01*
X67420408Y-69080132D01*
X66690356Y-69080132D01*
X66691592Y-69077868D01*
X66691461Y-69076035D01*
X66687210Y-69069420D01*
X66238885Y-68621095D01*
X66226505Y-68614335D01*
X66220117Y-68619117D01*
X66177870Y-68695962D01*
X66173039Y-68707234D01*
X66120195Y-68873820D01*
X66117645Y-68885814D01*
X66098164Y-69059491D01*
X66097993Y-69071759D01*
X60340669Y-69071759D01*
X60336309Y-69065598D01*
X60329500Y-69024740D01*
X60329500Y-69002064D01*
X60349502Y-68933943D01*
X60355537Y-68925360D01*
X60429328Y-68829193D01*
X60434355Y-68822642D01*
X60490228Y-68687754D01*
X60497248Y-68634436D01*
X60508207Y-68551188D01*
X60509285Y-68543000D01*
X60505679Y-68515613D01*
X60491306Y-68406432D01*
X60491305Y-68406430D01*
X60490228Y-68398246D01*
X60434355Y-68263358D01*
X60424194Y-68250116D01*
X66590835Y-68250116D01*
X66593290Y-68257080D01*
X67043188Y-68706978D01*
X67057132Y-68714592D01*
X67058965Y-68714461D01*
X67065580Y-68710210D01*
X67513988Y-68261802D01*
X67520748Y-68249422D01*
X67516089Y-68243199D01*
X67432897Y-68198217D01*
X67421592Y-68193465D01*
X67254642Y-68141785D01*
X67242631Y-68139319D01*
X67068821Y-68121051D01*
X67056552Y-68120966D01*
X66882512Y-68136805D01*
X66870463Y-68139103D01*
X66702805Y-68188448D01*
X66691437Y-68193041D01*
X66600984Y-68240329D01*
X66590835Y-68250116D01*
X60424194Y-68250116D01*
X60345474Y-68147526D01*
X60338924Y-68142500D01*
X60338921Y-68142497D01*
X60236196Y-68063673D01*
X60236194Y-68063672D01*
X60229643Y-68058645D01*
X60094754Y-68002772D01*
X59950000Y-67983715D01*
X59941812Y-67984793D01*
X59813432Y-68001694D01*
X59813430Y-68001695D01*
X59805246Y-68002772D01*
X59757430Y-68022578D01*
X59677986Y-68055485D01*
X59677984Y-68055486D01*
X59670358Y-68058645D01*
X59625687Y-68092922D01*
X59565222Y-68139319D01*
X59554526Y-68147526D01*
X59465645Y-68263358D01*
X59409772Y-68398246D01*
X59408695Y-68406430D01*
X59408694Y-68406432D01*
X59394321Y-68515613D01*
X59390715Y-68543000D01*
X59391793Y-68551188D01*
X59402753Y-68634436D01*
X59409772Y-68687754D01*
X59465645Y-68822642D01*
X59470672Y-68829193D01*
X59544463Y-68925360D01*
X59570063Y-68991581D01*
X59570500Y-69002064D01*
X59570500Y-69024501D01*
X59550498Y-69092622D01*
X59496842Y-69139115D01*
X59444500Y-69150501D01*
X58833500Y-69150501D01*
X58765379Y-69130499D01*
X58718886Y-69076843D01*
X58707500Y-69024501D01*
X58707499Y-67411123D01*
X58707499Y-67404934D01*
X58693008Y-67332078D01*
X58699337Y-67261366D01*
X58742891Y-67205299D01*
X58816587Y-67181500D01*
X63954080Y-67181500D01*
X63978028Y-67184049D01*
X63979693Y-67184128D01*
X63989876Y-67186320D01*
X64000217Y-67185096D01*
X64009317Y-67184019D01*
X64023223Y-67182373D01*
X64029154Y-67182023D01*
X64029146Y-67181928D01*
X64034324Y-67181500D01*
X64039524Y-67181500D01*
X64044653Y-67180646D01*
X64044656Y-67180646D01*
X64058565Y-67178331D01*
X64064443Y-67177494D01*
X64105001Y-67172694D01*
X64105002Y-67172694D01*
X64115341Y-67171470D01*
X64123593Y-67167507D01*
X64132626Y-67166004D01*
X64141795Y-67161057D01*
X64141797Y-67161056D01*
X64177732Y-67141666D01*
X64183025Y-67138969D01*
X64222082Y-67120215D01*
X64222086Y-67120212D01*
X64229232Y-67116781D01*
X64233508Y-67113186D01*
X64235431Y-67111263D01*
X64237363Y-67109491D01*
X64237442Y-67109448D01*
X64237555Y-67109572D01*
X64238095Y-67109096D01*
X64243814Y-67106010D01*
X64280403Y-67066428D01*
X64283833Y-67062861D01*
X64636291Y-66710404D01*
X64698603Y-66676379D01*
X64725386Y-66673500D01*
X64937514Y-66673500D01*
X65005635Y-66693502D01*
X65052128Y-66747158D01*
X65063514Y-66799500D01*
X65063514Y-67044000D01*
X65083266Y-67143301D01*
X65139516Y-67227484D01*
X65223699Y-67283734D01*
X65323000Y-67303486D01*
X66323000Y-67303486D01*
X66373889Y-67298447D01*
X66467388Y-67259604D01*
X66538905Y-67187937D01*
X66542615Y-67182373D01*
X66929412Y-66602176D01*
X67038905Y-66437937D01*
X67077447Y-66344889D01*
X67077472Y-66321493D01*
X67077540Y-66256055D01*
X67077553Y-66243643D01*
X67038905Y-66150063D01*
X66977366Y-66057754D01*
X66540629Y-65402648D01*
X66540622Y-65402639D01*
X66538905Y-65400063D01*
X66506484Y-65360516D01*
X66422301Y-65304266D01*
X66323000Y-65284514D01*
X65323000Y-65284514D01*
X65223699Y-65304266D01*
X65139516Y-65360516D01*
X65083266Y-65444699D01*
X65063514Y-65544000D01*
X65063514Y-65788500D01*
X65043512Y-65856621D01*
X64989856Y-65903114D01*
X64937514Y-65914500D01*
X64569920Y-65914500D01*
X64545973Y-65911951D01*
X64544307Y-65911872D01*
X64534124Y-65909680D01*
X64523782Y-65910904D01*
X64523779Y-65910904D01*
X64500787Y-65913626D01*
X64494846Y-65913977D01*
X64494854Y-65914072D01*
X64489674Y-65914500D01*
X64484476Y-65914500D01*
X64479354Y-65915353D01*
X64479349Y-65915353D01*
X64465427Y-65917671D01*
X64459550Y-65918508D01*
X64453049Y-65919277D01*
X64418997Y-65923307D01*
X64418995Y-65923308D01*
X64408659Y-65924531D01*
X64400410Y-65928492D01*
X64391374Y-65929996D01*
X64382205Y-65934943D01*
X64382203Y-65934944D01*
X64346240Y-65954348D01*
X64340951Y-65957043D01*
X64301915Y-65975788D01*
X64294768Y-65979220D01*
X64290492Y-65982814D01*
X64288552Y-65984754D01*
X64286641Y-65986507D01*
X64286551Y-65986556D01*
X64286439Y-65986433D01*
X64285904Y-65986905D01*
X64280186Y-65989990D01*
X64273119Y-65997635D01*
X64243584Y-66029586D01*
X64240154Y-66033152D01*
X63887711Y-66385595D01*
X63825399Y-66419621D01*
X63798616Y-66422500D01*
X61980437Y-66422500D01*
X61912316Y-66402498D01*
X61865823Y-66348842D01*
X61855719Y-66278568D01*
X61862455Y-66252271D01*
X61871690Y-66227638D01*
X61871692Y-66227631D01*
X61874464Y-66220236D01*
X61881000Y-66160070D01*
X61881000Y-65591930D01*
X61874464Y-65531764D01*
X61837691Y-65433672D01*
X61828144Y-65408205D01*
X61828143Y-65408202D01*
X61824993Y-65399801D01*
X61740474Y-65287026D01*
X61627699Y-65202507D01*
X61619297Y-65199357D01*
X61619293Y-65199355D01*
X61554271Y-65174980D01*
X61497506Y-65132339D01*
X61472806Y-65065777D01*
X61472500Y-65056998D01*
X61472500Y-65035568D01*
X61492502Y-64967447D01*
X61546158Y-64920954D01*
X61554269Y-64917586D01*
X61596797Y-64901643D01*
X61596798Y-64901642D01*
X61605199Y-64898493D01*
X61717974Y-64813974D01*
X61802493Y-64701199D01*
X61805735Y-64692553D01*
X61849190Y-64576635D01*
X61851964Y-64569236D01*
X61858500Y-64509070D01*
X61858500Y-63940930D01*
X61851964Y-63880764D01*
X61843676Y-63858656D01*
X61838493Y-63787849D01*
X61872414Y-63725480D01*
X61934669Y-63691350D01*
X62005493Y-63696297D01*
X62050753Y-63725331D01*
X62978245Y-64652823D01*
X62980699Y-64655345D01*
X63040254Y-64718323D01*
X63045481Y-64721983D01*
X63089880Y-64753072D01*
X63097244Y-64758642D01*
X63139238Y-64792891D01*
X63139243Y-64792894D01*
X63144190Y-64796929D01*
X63169832Y-64810335D01*
X63183719Y-64818778D01*
X63207418Y-64835372D01*
X63213272Y-64837905D01*
X63213275Y-64837907D01*
X63263017Y-64859432D01*
X63271332Y-64863397D01*
X63325037Y-64891474D01*
X63352840Y-64899446D01*
X63368145Y-64904925D01*
X63394703Y-64916418D01*
X63400951Y-64917723D01*
X63400950Y-64917723D01*
X63454014Y-64928809D01*
X63462976Y-64931027D01*
X63515065Y-64945963D01*
X63515069Y-64945964D01*
X63521201Y-64947722D01*
X63527558Y-64948211D01*
X63527563Y-64948212D01*
X63543359Y-64949427D01*
X63550045Y-64949941D01*
X63566134Y-64952231D01*
X63594460Y-64958149D01*
X63599300Y-64958403D01*
X63599303Y-64958403D01*
X63599359Y-64958406D01*
X63601158Y-64958500D01*
X63656429Y-64958500D01*
X63666096Y-64958871D01*
X63718309Y-64962889D01*
X63718313Y-64962889D01*
X63724669Y-64963378D01*
X63755429Y-64959492D01*
X63771207Y-64958500D01*
X67803732Y-64958500D01*
X67871853Y-64978502D01*
X67892827Y-64995405D01*
X68554595Y-65657173D01*
X68588621Y-65719485D01*
X68591500Y-65746268D01*
X68591500Y-66598997D01*
X68591823Y-66602176D01*
X68596855Y-66651717D01*
X68597500Y-66664450D01*
X68597500Y-74741201D01*
X68597451Y-74744720D01*
X68596312Y-74785503D01*
X68595031Y-74831341D01*
X68596140Y-74837630D01*
X68605551Y-74891005D01*
X68606820Y-74900150D01*
X68609477Y-74926306D01*
X68612942Y-74960418D01*
X68614850Y-74966506D01*
X68614850Y-74966507D01*
X68621596Y-74988034D01*
X68625446Y-75003831D01*
X68627112Y-75013276D01*
X68630468Y-75032310D01*
X68652766Y-75088630D01*
X68655847Y-75097330D01*
X68658373Y-75105389D01*
X68673967Y-75155149D01*
X68687987Y-75180441D01*
X68694937Y-75195143D01*
X68703240Y-75216115D01*
X68703243Y-75216120D01*
X68705590Y-75222049D01*
X68709080Y-75227382D01*
X68709085Y-75227392D01*
X68738768Y-75272752D01*
X68743537Y-75280657D01*
X68772902Y-75333632D01*
X68777051Y-75338473D01*
X68777054Y-75338477D01*
X68791721Y-75355588D01*
X68801487Y-75368596D01*
X68814674Y-75388749D01*
X68814684Y-75388762D01*
X68817331Y-75392807D01*
X68820571Y-75396405D01*
X68820699Y-75396548D01*
X68820713Y-75396562D01*
X68821819Y-75397791D01*
X68860894Y-75436866D01*
X68867467Y-75443963D01*
X68905705Y-75488576D01*
X68930201Y-75507577D01*
X68942070Y-75518042D01*
X70894686Y-77470657D01*
X70920017Y-77507001D01*
X70965530Y-77605727D01*
X70987377Y-77653116D01*
X70990710Y-77657832D01*
X71094365Y-77804501D01*
X71104533Y-77818889D01*
X71108675Y-77822924D01*
X71165637Y-77878413D01*
X71249938Y-77960535D01*
X71254742Y-77963745D01*
X71290991Y-77987966D01*
X71418720Y-78073312D01*
X71424023Y-78075590D01*
X71424026Y-78075592D01*
X71599921Y-78151162D01*
X71605228Y-78153442D01*
X71678244Y-78169964D01*
X71797579Y-78196967D01*
X71797584Y-78196968D01*
X71803216Y-78198242D01*
X71808987Y-78198469D01*
X71808989Y-78198469D01*
X71868756Y-78200817D01*
X72006053Y-78206212D01*
X72106499Y-78191648D01*
X72201231Y-78177913D01*
X72201236Y-78177912D01*
X72206945Y-78177084D01*
X72212409Y-78175229D01*
X72212414Y-78175228D01*
X72393693Y-78113692D01*
X72393698Y-78113690D01*
X72399165Y-78111834D01*
X72576276Y-78012647D01*
X72582059Y-78007838D01*
X72727913Y-77886531D01*
X72732345Y-77882845D01*
X72766000Y-77842379D01*
X72858453Y-77731218D01*
X72858455Y-77731215D01*
X72862147Y-77726776D01*
X72933568Y-77599245D01*
X72984302Y-77549586D01*
X73053834Y-77535239D01*
X73120085Y-77560760D01*
X73162020Y-77618048D01*
X73169500Y-77660814D01*
X73169500Y-81545755D01*
X73149498Y-81613876D01*
X73095842Y-81660369D01*
X73025568Y-81670473D01*
X72960988Y-81640979D01*
X72937708Y-81614195D01*
X72937502Y-81613876D01*
X72908034Y-81568326D01*
X72855239Y-81510304D01*
X72761611Y-81407408D01*
X72761609Y-81407406D01*
X72758133Y-81403586D01*
X72754082Y-81400387D01*
X72754078Y-81400383D01*
X72587396Y-81268747D01*
X72583338Y-81265542D01*
X72388344Y-81157899D01*
X72263385Y-81113649D01*
X72183259Y-81085275D01*
X72183256Y-81085274D01*
X72178387Y-81083550D01*
X72173298Y-81082643D01*
X72173296Y-81082643D01*
X72125813Y-81074185D01*
X71959107Y-81044490D01*
X71953941Y-81044427D01*
X71948784Y-81043939D01*
X71948987Y-81041794D01*
X71889845Y-81023643D01*
X71870155Y-81007577D01*
X70771771Y-79909194D01*
X70769317Y-79906672D01*
X70714128Y-79848311D01*
X70709746Y-79843677D01*
X70704521Y-79840019D01*
X70704517Y-79840015D01*
X70660110Y-79808922D01*
X70652769Y-79803370D01*
X70605810Y-79765071D01*
X70580168Y-79751665D01*
X70566281Y-79743222D01*
X70542582Y-79726628D01*
X70536728Y-79724095D01*
X70536725Y-79724093D01*
X70486983Y-79702568D01*
X70478668Y-79698603D01*
X70424963Y-79670526D01*
X70418836Y-79668769D01*
X70418831Y-79668767D01*
X70397156Y-79662552D01*
X70381847Y-79657070D01*
X70361162Y-79648119D01*
X70361154Y-79648116D01*
X70355297Y-79645582D01*
X70349047Y-79644276D01*
X70349046Y-79644276D01*
X70333732Y-79641077D01*
X70295995Y-79633193D01*
X70287052Y-79630981D01*
X70228799Y-79614277D01*
X70202435Y-79612248D01*
X70199953Y-79612057D01*
X70183857Y-79609766D01*
X70160275Y-79604840D01*
X70160274Y-79604840D01*
X70155540Y-79603851D01*
X70148842Y-79603500D01*
X70093584Y-79603500D01*
X70083917Y-79603129D01*
X70031691Y-79599110D01*
X70031687Y-79599110D01*
X70025331Y-79598621D01*
X70009389Y-79600635D01*
X69994578Y-79602506D01*
X69978786Y-79603500D01*
X68165500Y-79603500D01*
X68097379Y-79583498D01*
X68050886Y-79529842D01*
X68039500Y-79477500D01*
X68039500Y-79382930D01*
X68032964Y-79322764D01*
X67994187Y-79219327D01*
X67986644Y-79199205D01*
X67986643Y-79199202D01*
X67983493Y-79190801D01*
X67898974Y-79078026D01*
X67786199Y-78993507D01*
X67777798Y-78990358D01*
X67777797Y-78990357D01*
X67762746Y-78984715D01*
X67705982Y-78942073D01*
X67681283Y-78875511D01*
X67696491Y-78806162D01*
X67746777Y-78756044D01*
X67762748Y-78748751D01*
X67777551Y-78743202D01*
X67793139Y-78734667D01*
X67891437Y-78660998D01*
X67903998Y-78648437D01*
X67977667Y-78550139D01*
X67986201Y-78534553D01*
X68029697Y-78418527D01*
X68033325Y-78403271D01*
X68038631Y-78354424D01*
X68039000Y-78347607D01*
X68039000Y-78276615D01*
X68034525Y-78261376D01*
X68033135Y-78260171D01*
X68025452Y-78258500D01*
X66599116Y-78258500D01*
X66583877Y-78262975D01*
X66582672Y-78264365D01*
X66581001Y-78272048D01*
X66581001Y-78347605D01*
X66581371Y-78354426D01*
X66586676Y-78403273D01*
X66590302Y-78418524D01*
X66633799Y-78534553D01*
X66642333Y-78550139D01*
X66716002Y-78648437D01*
X66728563Y-78660998D01*
X66826861Y-78734667D01*
X66842449Y-78743202D01*
X66857252Y-78748751D01*
X66914017Y-78791392D01*
X66938717Y-78857954D01*
X66923510Y-78927303D01*
X66873224Y-78977421D01*
X66857254Y-78984715D01*
X66842203Y-78990357D01*
X66842202Y-78990358D01*
X66833801Y-78993507D01*
X66721026Y-79078026D01*
X66636507Y-79190801D01*
X66633357Y-79199202D01*
X66633356Y-79199205D01*
X66625813Y-79219327D01*
X66587036Y-79322764D01*
X66580500Y-79382930D01*
X66580500Y-79477500D01*
X66560498Y-79545621D01*
X66506842Y-79592114D01*
X66454500Y-79603500D01*
X55627059Y-79603500D01*
X55558938Y-79583498D01*
X55512445Y-79529842D01*
X55502341Y-79459568D01*
X55531835Y-79394988D01*
X55551495Y-79376673D01*
X55608437Y-79333998D01*
X55620998Y-79321437D01*
X55694667Y-79223139D01*
X55703201Y-79207553D01*
X55746697Y-79091527D01*
X55750325Y-79076271D01*
X55755631Y-79027424D01*
X55756000Y-79020607D01*
X55756000Y-79012115D01*
X55751525Y-78996876D01*
X55750135Y-78995671D01*
X55742452Y-78994000D01*
X54836500Y-78994000D01*
X54768379Y-78973998D01*
X54721886Y-78920342D01*
X54710500Y-78868000D01*
X54710500Y-78612000D01*
X54730502Y-78543879D01*
X54784158Y-78497386D01*
X54836500Y-78486000D01*
X55737884Y-78486000D01*
X55753123Y-78481525D01*
X55754328Y-78480135D01*
X55755999Y-78472452D01*
X55755999Y-78459395D01*
X55755629Y-78452574D01*
X55750324Y-78403727D01*
X55746698Y-78388476D01*
X55703201Y-78272447D01*
X55694667Y-78256861D01*
X55620998Y-78158563D01*
X55608437Y-78146002D01*
X55510139Y-78072333D01*
X55494553Y-78063799D01*
X55373769Y-78018519D01*
X55317005Y-77975877D01*
X55292305Y-77909315D01*
X55307513Y-77839967D01*
X55357799Y-77789849D01*
X55427198Y-77774873D01*
X55442580Y-77776958D01*
X55471915Y-77782793D01*
X55484170Y-77784000D01*
X55505885Y-77784000D01*
X55521124Y-77779525D01*
X55522329Y-77778135D01*
X55524000Y-77770452D01*
X55524000Y-75694116D01*
X55519525Y-75678877D01*
X55518135Y-75677672D01*
X55510452Y-75676001D01*
X55484172Y-75676001D01*
X55471912Y-75677209D01*
X55403894Y-75690737D01*
X55403033Y-75686406D01*
X55356228Y-75691412D01*
X55352302Y-75690258D01*
X55352301Y-75690266D01*
X55284135Y-75676707D01*
X55278067Y-75675500D01*
X54978049Y-75675500D01*
X54677934Y-75675501D01*
X54603699Y-75690266D01*
X54602864Y-75686066D01*
X54555676Y-75691157D01*
X54552320Y-75690172D01*
X54552301Y-75690266D01*
X54484135Y-75676707D01*
X54478067Y-75675500D01*
X54363384Y-75675500D01*
X54295263Y-75655498D01*
X54248770Y-75601842D01*
X54238666Y-75531568D01*
X54268160Y-75466988D01*
X54274289Y-75460405D01*
X55227216Y-74507478D01*
X55245964Y-74492336D01*
X55247189Y-74491221D01*
X55255940Y-74485571D01*
X55262387Y-74477393D01*
X55262389Y-74477391D01*
X55276729Y-74459200D01*
X55280675Y-74454759D01*
X55280602Y-74454697D01*
X55283961Y-74450733D01*
X55287638Y-74447056D01*
X55298892Y-74431308D01*
X55302398Y-74426638D01*
X55334156Y-74386353D01*
X55337188Y-74377719D01*
X55342514Y-74370266D01*
X55357203Y-74321150D01*
X55359036Y-74315508D01*
X55373390Y-74274633D01*
X55373390Y-74274632D01*
X55376018Y-74267149D01*
X55376500Y-74261584D01*
X55376500Y-74258876D01*
X55376614Y-74256242D01*
X55376643Y-74256144D01*
X55376807Y-74256151D01*
X55376851Y-74255447D01*
X55378713Y-74249222D01*
X55376597Y-74195365D01*
X55376500Y-74190418D01*
X55376500Y-70149384D01*
X55396502Y-70081263D01*
X55413405Y-70060289D01*
X55476898Y-69996796D01*
X55481095Y-69993096D01*
X55486814Y-69990010D01*
X55523417Y-69950413D01*
X55526846Y-69946848D01*
X56008216Y-69465478D01*
X56026964Y-69450336D01*
X56028189Y-69449221D01*
X56036940Y-69443571D01*
X56043387Y-69435393D01*
X56043389Y-69435391D01*
X56057729Y-69417200D01*
X56061676Y-69412758D01*
X56061603Y-69412696D01*
X56064961Y-69408733D01*
X56068638Y-69405056D01*
X56074505Y-69396846D01*
X56079859Y-69389354D01*
X56083422Y-69384608D01*
X56103792Y-69358768D01*
X56115156Y-69344353D01*
X56117691Y-69337135D01*
X56121491Y-69331096D01*
X56123137Y-69328793D01*
X56179020Y-69285002D01*
X56250227Y-69278479D01*
X56271915Y-69282793D01*
X56284170Y-69284000D01*
X56305885Y-69284000D01*
X56321124Y-69279525D01*
X56322329Y-69278135D01*
X56324000Y-69270452D01*
X56324000Y-67194116D01*
X56319525Y-67178877D01*
X56318135Y-67177672D01*
X56310452Y-67176001D01*
X56284172Y-67176001D01*
X56271912Y-67177209D01*
X56203894Y-67190737D01*
X56203033Y-67186406D01*
X56156228Y-67191412D01*
X56152302Y-67190258D01*
X56152301Y-67190266D01*
X56084135Y-67176707D01*
X56078067Y-67175500D01*
X55778049Y-67175500D01*
X55477934Y-67175501D01*
X55403699Y-67190266D01*
X55402905Y-67186272D01*
X55354941Y-67191420D01*
X55352134Y-67190596D01*
X55352106Y-67190737D01*
X55284085Y-67177207D01*
X55271830Y-67176000D01*
X55250115Y-67176000D01*
X55234876Y-67180475D01*
X55233671Y-67181865D01*
X55232000Y-67189548D01*
X55232000Y-68358000D01*
X55211998Y-68426121D01*
X55158342Y-68472614D01*
X55106000Y-68484000D01*
X54850000Y-68484000D01*
X54781879Y-68463998D01*
X54735386Y-68410342D01*
X54724000Y-68358000D01*
X54724000Y-67194116D01*
X54719525Y-67178877D01*
X54718135Y-67177672D01*
X54710452Y-67176001D01*
X54684172Y-67176001D01*
X54671912Y-67177209D01*
X54603894Y-67190737D01*
X54603033Y-67186406D01*
X54556228Y-67191412D01*
X54552302Y-67190258D01*
X54552301Y-67190266D01*
X54484135Y-67176707D01*
X54478067Y-67175500D01*
X54219384Y-67175500D01*
X54151263Y-67155498D01*
X54104770Y-67101842D01*
X54094666Y-67031568D01*
X54124160Y-66966988D01*
X54130289Y-66960405D01*
X54516216Y-66574478D01*
X54534964Y-66559336D01*
X54536189Y-66558221D01*
X54544940Y-66552571D01*
X54551387Y-66544393D01*
X54551389Y-66544391D01*
X54565729Y-66526200D01*
X54569675Y-66521759D01*
X54569602Y-66521697D01*
X54572961Y-66517733D01*
X54576638Y-66514056D01*
X54587892Y-66498308D01*
X54591398Y-66493638D01*
X54623156Y-66453353D01*
X54626188Y-66444719D01*
X54631514Y-66437266D01*
X54646203Y-66388150D01*
X54648036Y-66382508D01*
X54665019Y-66334148D01*
X54665596Y-66334351D01*
X54680677Y-66298733D01*
X54725734Y-66231301D01*
X54740500Y-66157067D01*
X54740499Y-64206934D01*
X54731240Y-64160380D01*
X54728156Y-64144874D01*
X54728155Y-64144872D01*
X54725734Y-64132699D01*
X54711473Y-64111355D01*
X54676377Y-64058832D01*
X54669484Y-64048516D01*
X54585301Y-63992266D01*
X54511067Y-63977500D01*
X54286037Y-63977500D01*
X54060934Y-63977501D01*
X54025237Y-63984601D01*
X53998874Y-63989844D01*
X53998872Y-63989845D01*
X53986699Y-63992266D01*
X53979564Y-63997034D01*
X53911612Y-64004338D01*
X53854000Y-63976773D01*
X53854000Y-63971000D01*
X53328884Y-63971000D01*
X53260763Y-63950998D01*
X53214270Y-63897342D01*
X53204166Y-63827068D01*
X53233660Y-63762488D01*
X53239789Y-63755905D01*
X53593716Y-63401978D01*
X53612464Y-63386836D01*
X53613689Y-63385721D01*
X53622440Y-63380071D01*
X53628887Y-63371893D01*
X53628889Y-63371891D01*
X53643229Y-63353700D01*
X53647176Y-63349258D01*
X53647103Y-63349196D01*
X53650461Y-63345233D01*
X53654138Y-63341556D01*
X53657160Y-63337327D01*
X53665359Y-63325854D01*
X53668922Y-63321108D01*
X53685961Y-63299493D01*
X53700656Y-63280853D01*
X53703689Y-63272217D01*
X53709014Y-63264765D01*
X53722970Y-63218100D01*
X53723704Y-63215645D01*
X53725539Y-63209998D01*
X53739891Y-63169130D01*
X53739891Y-63169128D01*
X53742518Y-63161649D01*
X53743000Y-63156084D01*
X53743000Y-63153376D01*
X53743001Y-63153353D01*
X53743779Y-63151074D01*
X53744871Y-63146001D01*
X53745466Y-63146129D01*
X53765930Y-63086161D01*
X53824652Y-63040821D01*
X53843791Y-63033646D01*
X53843797Y-63033643D01*
X53852199Y-63030493D01*
X53964974Y-62945974D01*
X54049493Y-62833199D01*
X54054130Y-62820832D01*
X54096190Y-62708635D01*
X54098964Y-62701236D01*
X54103737Y-62657299D01*
X54130979Y-62591737D01*
X54189342Y-62551311D01*
X54260296Y-62548856D01*
X54321314Y-62585151D01*
X54353023Y-62648673D01*
X54354263Y-62657299D01*
X54359036Y-62701236D01*
X54361810Y-62708635D01*
X54403871Y-62820832D01*
X54408507Y-62833199D01*
X54493026Y-62945974D01*
X54605801Y-63030493D01*
X54614202Y-63033642D01*
X54614203Y-63033643D01*
X54656731Y-63049586D01*
X54713495Y-63092228D01*
X54738194Y-63158790D01*
X54738500Y-63167568D01*
X54738500Y-63192080D01*
X54735951Y-63216028D01*
X54735872Y-63217693D01*
X54733680Y-63227876D01*
X54734904Y-63238217D01*
X54737627Y-63261223D01*
X54737977Y-63267154D01*
X54738072Y-63267146D01*
X54738500Y-63272324D01*
X54738500Y-63277524D01*
X54739354Y-63282653D01*
X54739354Y-63282656D01*
X54741669Y-63296565D01*
X54742506Y-63302443D01*
X54747047Y-63340807D01*
X54748530Y-63353341D01*
X54752493Y-63361593D01*
X54753996Y-63370626D01*
X54758943Y-63379795D01*
X54758944Y-63379797D01*
X54778334Y-63415732D01*
X54781031Y-63421025D01*
X54799785Y-63460082D01*
X54799788Y-63460086D01*
X54803219Y-63467232D01*
X54806814Y-63471508D01*
X54808737Y-63473431D01*
X54810509Y-63475363D01*
X54810552Y-63475442D01*
X54810428Y-63475555D01*
X54810904Y-63476095D01*
X54813990Y-63481814D01*
X54821635Y-63488881D01*
X54853586Y-63518416D01*
X54857152Y-63521846D01*
X55287046Y-63951740D01*
X55321072Y-64014052D01*
X55322871Y-64024380D01*
X55339772Y-64152754D01*
X55395645Y-64287642D01*
X55484526Y-64403474D01*
X55491076Y-64408500D01*
X55491079Y-64408503D01*
X55593804Y-64487327D01*
X55600357Y-64492355D01*
X55735246Y-64548228D01*
X55880000Y-64567285D01*
X55888188Y-64566207D01*
X56016566Y-64549306D01*
X56024754Y-64548228D01*
X56159643Y-64492355D01*
X56166196Y-64487327D01*
X56268921Y-64408503D01*
X56268924Y-64408500D01*
X56275474Y-64403474D01*
X56364355Y-64287642D01*
X56420228Y-64152754D01*
X56422869Y-64132699D01*
X56438207Y-64016188D01*
X56439285Y-64008000D01*
X56433825Y-63966525D01*
X56432029Y-63952885D01*
X58550000Y-63952885D01*
X58554475Y-63968124D01*
X58555865Y-63969329D01*
X58563548Y-63971000D01*
X59019385Y-63971000D01*
X59034624Y-63966525D01*
X59035829Y-63965135D01*
X59037500Y-63957452D01*
X59037500Y-63514116D01*
X59033025Y-63498877D01*
X59031635Y-63497672D01*
X59023952Y-63496001D01*
X58998395Y-63496001D01*
X58991574Y-63496371D01*
X58942727Y-63501676D01*
X58927476Y-63505302D01*
X58811447Y-63548799D01*
X58795861Y-63557333D01*
X58697563Y-63631002D01*
X58685002Y-63643563D01*
X58611333Y-63741861D01*
X58602799Y-63757447D01*
X58559303Y-63873473D01*
X58555675Y-63888729D01*
X58550369Y-63937576D01*
X58550000Y-63944393D01*
X58550000Y-63952885D01*
X56432029Y-63952885D01*
X56421306Y-63871432D01*
X56421305Y-63871430D01*
X56420228Y-63863246D01*
X56399039Y-63812092D01*
X56367515Y-63735986D01*
X56367514Y-63735984D01*
X56364355Y-63728358D01*
X56275474Y-63612526D01*
X56268924Y-63607500D01*
X56268921Y-63607497D01*
X56166196Y-63528673D01*
X56166194Y-63528672D01*
X56159643Y-63523645D01*
X56042243Y-63475016D01*
X56032383Y-63470932D01*
X56024754Y-63467772D01*
X55896388Y-63450872D01*
X55831462Y-63422151D01*
X55823740Y-63415046D01*
X55603645Y-63194951D01*
X55569619Y-63132639D01*
X55574684Y-63061824D01*
X55617176Y-63005029D01*
X55688794Y-62951355D01*
X55695974Y-62945974D01*
X55780493Y-62833199D01*
X55785130Y-62820832D01*
X55827190Y-62708635D01*
X55829964Y-62701236D01*
X55836500Y-62641070D01*
X55836500Y-62072930D01*
X55829964Y-62012764D01*
X55800267Y-61933548D01*
X55783644Y-61889205D01*
X55783643Y-61889202D01*
X55780493Y-61880801D01*
X55695974Y-61768026D01*
X55583199Y-61683507D01*
X55574798Y-61680357D01*
X55574795Y-61680356D01*
X55491726Y-61649215D01*
X55434962Y-61606573D01*
X55410262Y-61540012D01*
X55425470Y-61470663D01*
X55475756Y-61420545D01*
X55491726Y-61413251D01*
X55574553Y-61382201D01*
X55590139Y-61373667D01*
X55688437Y-61299998D01*
X55700998Y-61287437D01*
X55774667Y-61189139D01*
X55783201Y-61173553D01*
X55826697Y-61057527D01*
X55830325Y-61042271D01*
X55835631Y-60993424D01*
X55836000Y-60986607D01*
X55836000Y-60978115D01*
X55831525Y-60962876D01*
X55830135Y-60961671D01*
X55822452Y-60960000D01*
X54966500Y-60960000D01*
X54898379Y-60939998D01*
X54851886Y-60886342D01*
X54840500Y-60834000D01*
X54840500Y-60433885D01*
X55348500Y-60433885D01*
X55352975Y-60449124D01*
X55354365Y-60450329D01*
X55362048Y-60452000D01*
X55817884Y-60452000D01*
X55833123Y-60447525D01*
X55834328Y-60446135D01*
X55835999Y-60438452D01*
X55835999Y-60425395D01*
X55835629Y-60418574D01*
X55830324Y-60369727D01*
X55826698Y-60354476D01*
X55783201Y-60238447D01*
X55774667Y-60222861D01*
X55700998Y-60124563D01*
X55688437Y-60112002D01*
X55590139Y-60038333D01*
X55574553Y-60029799D01*
X55458527Y-59986303D01*
X55443271Y-59982675D01*
X55394424Y-59977369D01*
X55387607Y-59977000D01*
X55366615Y-59977000D01*
X55351376Y-59981475D01*
X55350171Y-59982865D01*
X55348500Y-59990548D01*
X55348500Y-60433885D01*
X54840500Y-60433885D01*
X54840500Y-59995116D01*
X54836025Y-59979877D01*
X54834635Y-59978672D01*
X54826952Y-59977001D01*
X54801395Y-59977001D01*
X54794574Y-59977371D01*
X54745727Y-59982676D01*
X54730476Y-59986302D01*
X54614447Y-60029799D01*
X54598861Y-60038333D01*
X54500563Y-60112002D01*
X54488002Y-60124563D01*
X54414333Y-60222861D01*
X54405799Y-60238447D01*
X54362303Y-60354473D01*
X54358676Y-60369729D01*
X54353762Y-60414958D01*
X54326520Y-60480520D01*
X54268157Y-60520946D01*
X54197203Y-60523401D01*
X54136185Y-60487106D01*
X54104476Y-60423584D01*
X54103236Y-60414954D01*
X54098324Y-60369727D01*
X54094698Y-60354476D01*
X54051201Y-60238447D01*
X54042667Y-60222861D01*
X53968998Y-60124563D01*
X53956437Y-60112002D01*
X53858139Y-60038333D01*
X53842553Y-60029799D01*
X53726527Y-59986303D01*
X53711271Y-59982675D01*
X53662424Y-59977369D01*
X53655607Y-59977000D01*
X53634615Y-59977000D01*
X53619376Y-59981475D01*
X53618171Y-59982865D01*
X53616500Y-59990548D01*
X53616500Y-60834000D01*
X53596498Y-60902121D01*
X53542842Y-60948614D01*
X53490500Y-60960000D01*
X52639116Y-60960000D01*
X52623877Y-60964475D01*
X52622672Y-60965865D01*
X52621001Y-60973548D01*
X52621001Y-60986605D01*
X52621371Y-60993426D01*
X52626676Y-61042273D01*
X52630302Y-61057524D01*
X52673799Y-61173553D01*
X52682333Y-61189139D01*
X52756002Y-61287437D01*
X52768563Y-61299998D01*
X52866861Y-61373667D01*
X52882447Y-61382201D01*
X52965774Y-61413439D01*
X53022539Y-61456081D01*
X53047238Y-61522643D01*
X53032030Y-61591991D01*
X52981744Y-61642110D01*
X52965773Y-61649403D01*
X52883207Y-61680355D01*
X52883203Y-61680357D01*
X52874801Y-61683507D01*
X52762026Y-61768026D01*
X52677507Y-61880801D01*
X52674357Y-61889202D01*
X52674356Y-61889205D01*
X52657733Y-61933548D01*
X52628036Y-62012764D01*
X52621500Y-62072930D01*
X52621500Y-62641070D01*
X52628036Y-62701236D01*
X52630810Y-62708635D01*
X52672871Y-62820832D01*
X52677507Y-62833199D01*
X52762026Y-62945974D01*
X52769206Y-62951355D01*
X52775557Y-62957706D01*
X52774394Y-62958869D01*
X52810743Y-63007475D01*
X52815773Y-63078294D01*
X52781761Y-63140545D01*
X52711711Y-63210595D01*
X52649399Y-63244621D01*
X52622616Y-63247500D01*
X52115866Y-63247500D01*
X52047745Y-63227498D01*
X52001252Y-63173842D01*
X51991148Y-63103568D01*
X52020642Y-63038988D01*
X52040302Y-63020673D01*
X52132794Y-62951355D01*
X52139974Y-62945974D01*
X52224493Y-62833199D01*
X52229130Y-62820832D01*
X52271190Y-62708635D01*
X52273964Y-62701236D01*
X52280500Y-62641070D01*
X52280500Y-62072930D01*
X52273964Y-62012764D01*
X52244267Y-61933548D01*
X52227644Y-61889205D01*
X52227643Y-61889202D01*
X52224493Y-61880801D01*
X52139974Y-61768026D01*
X52027199Y-61683507D01*
X52018794Y-61680356D01*
X52010921Y-61676046D01*
X52012196Y-61673717D01*
X51966498Y-61639382D01*
X51941805Y-61572818D01*
X51941500Y-61564052D01*
X51941500Y-61498573D01*
X51961502Y-61430452D01*
X52010494Y-61388000D01*
X52009921Y-61386954D01*
X52014757Y-61384306D01*
X52015158Y-61383959D01*
X52016125Y-61383558D01*
X52017796Y-61382643D01*
X52026199Y-61379493D01*
X52049470Y-61362053D01*
X52131794Y-61300355D01*
X52138974Y-61294974D01*
X52223493Y-61182199D01*
X52226735Y-61173553D01*
X52264288Y-61073378D01*
X52272964Y-61050236D01*
X52279500Y-60990070D01*
X52279500Y-60433885D01*
X52621000Y-60433885D01*
X52625475Y-60449124D01*
X52626865Y-60450329D01*
X52634548Y-60452000D01*
X53090385Y-60452000D01*
X53105624Y-60447525D01*
X53106829Y-60446135D01*
X53108500Y-60438452D01*
X53108500Y-59995116D01*
X53104025Y-59979877D01*
X53102635Y-59978672D01*
X53094952Y-59977001D01*
X53069395Y-59977001D01*
X53062574Y-59977371D01*
X53013727Y-59982676D01*
X52998476Y-59986302D01*
X52882447Y-60029799D01*
X52866861Y-60038333D01*
X52768563Y-60112002D01*
X52756002Y-60124563D01*
X52682333Y-60222861D01*
X52673799Y-60238447D01*
X52630303Y-60354473D01*
X52626675Y-60369729D01*
X52621369Y-60418576D01*
X52621000Y-60425393D01*
X52621000Y-60433885D01*
X52279500Y-60433885D01*
X52279500Y-60421930D01*
X52272964Y-60361764D01*
X52227484Y-60240446D01*
X52226644Y-60238205D01*
X52226643Y-60238202D01*
X52223493Y-60229801D01*
X52138974Y-60117026D01*
X52067556Y-60063502D01*
X52025041Y-60006644D01*
X52020015Y-59935826D01*
X52054074Y-59873532D01*
X52094903Y-59846267D01*
X52133953Y-59830092D01*
X52222643Y-59793355D01*
X52229196Y-59788327D01*
X52331921Y-59709503D01*
X52331924Y-59709500D01*
X52338474Y-59704474D01*
X52345257Y-59695635D01*
X52391899Y-59634849D01*
X52427355Y-59588642D01*
X52435142Y-59569844D01*
X52470538Y-59484389D01*
X52483228Y-59453754D01*
X52484520Y-59443944D01*
X52501207Y-59317188D01*
X52502285Y-59309000D01*
X52496391Y-59264231D01*
X52484306Y-59172432D01*
X52484305Y-59172430D01*
X52483228Y-59164246D01*
X52448694Y-59080874D01*
X52430515Y-59036986D01*
X52430514Y-59036984D01*
X52427355Y-59029358D01*
X52352462Y-58931755D01*
X52343501Y-58920077D01*
X52343500Y-58920076D01*
X52338474Y-58913526D01*
X52331924Y-58908500D01*
X52331921Y-58908497D01*
X52229196Y-58829673D01*
X52229194Y-58829672D01*
X52222643Y-58824645D01*
X52087754Y-58768772D01*
X51943000Y-58749715D01*
X51934812Y-58750793D01*
X51806432Y-58767694D01*
X51806430Y-58767695D01*
X51798246Y-58768772D01*
X51750430Y-58788578D01*
X51670986Y-58821485D01*
X51670984Y-58821486D01*
X51663358Y-58824645D01*
X51547526Y-58913526D01*
X51458645Y-59029358D01*
X51455486Y-59036984D01*
X51455485Y-59036986D01*
X51437306Y-59080874D01*
X51402772Y-59164246D01*
X51401695Y-59172430D01*
X51401694Y-59172432D01*
X51385873Y-59292611D01*
X51357151Y-59357538D01*
X51350046Y-59365260D01*
X51331784Y-59383522D01*
X51313036Y-59398664D01*
X51311811Y-59399779D01*
X51303060Y-59405429D01*
X51296613Y-59413607D01*
X51296611Y-59413609D01*
X51282271Y-59431800D01*
X51278325Y-59436241D01*
X51278398Y-59436303D01*
X51275039Y-59440267D01*
X51271362Y-59443944D01*
X51260108Y-59459692D01*
X51256602Y-59464362D01*
X51224844Y-59504647D01*
X51221812Y-59513281D01*
X51216486Y-59520734D01*
X51208229Y-59548345D01*
X51201799Y-59569844D01*
X51199964Y-59575492D01*
X51182982Y-59623851D01*
X51182500Y-59629416D01*
X51182500Y-59632124D01*
X51182386Y-59634758D01*
X51182357Y-59634856D01*
X51182193Y-59634849D01*
X51182149Y-59635553D01*
X51180287Y-59641778D01*
X51180696Y-59652183D01*
X51182403Y-59695635D01*
X51182500Y-59700582D01*
X51182500Y-59895058D01*
X51162498Y-59963179D01*
X51108842Y-60009672D01*
X51100729Y-60013040D01*
X51057207Y-60029355D01*
X51057203Y-60029357D01*
X51048801Y-60032507D01*
X50936026Y-60117026D01*
X50851507Y-60229801D01*
X50848357Y-60238202D01*
X50848356Y-60238205D01*
X50847516Y-60240446D01*
X50802036Y-60361764D01*
X50795500Y-60421930D01*
X50795500Y-60990070D01*
X50802036Y-61050236D01*
X50810712Y-61073378D01*
X50848266Y-61173553D01*
X50851507Y-61182199D01*
X50936026Y-61294974D01*
X51048801Y-61379493D01*
X51057203Y-61382643D01*
X51057207Y-61382645D01*
X51100729Y-61398960D01*
X51157494Y-61441601D01*
X51182194Y-61508162D01*
X51182500Y-61516942D01*
X51182500Y-61546432D01*
X51162498Y-61614553D01*
X51108842Y-61661046D01*
X51100731Y-61664414D01*
X51058203Y-61680357D01*
X51058202Y-61680358D01*
X51049801Y-61683507D01*
X50937026Y-61768026D01*
X50852507Y-61880801D01*
X50849357Y-61889202D01*
X50849356Y-61889205D01*
X50832733Y-61933548D01*
X50803036Y-62012764D01*
X50796500Y-62072930D01*
X50796500Y-62641070D01*
X50803036Y-62701236D01*
X50805810Y-62708635D01*
X50847871Y-62820832D01*
X50852507Y-62833199D01*
X50937026Y-62945974D01*
X50944206Y-62951355D01*
X51036698Y-63020673D01*
X51079214Y-63077532D01*
X51084240Y-63148351D01*
X51050180Y-63210644D01*
X50987850Y-63244635D01*
X50961134Y-63247500D01*
X50878062Y-63247500D01*
X50809941Y-63227498D01*
X50801374Y-63221474D01*
X50698643Y-63142645D01*
X50563754Y-63086772D01*
X50512042Y-63079964D01*
X50466641Y-63073987D01*
X50419000Y-63067715D01*
X50410812Y-63068793D01*
X50282432Y-63085694D01*
X50282430Y-63085695D01*
X50274246Y-63086772D01*
X50233697Y-63103568D01*
X50146986Y-63139485D01*
X50146984Y-63139486D01*
X50139358Y-63142645D01*
X50057458Y-63205489D01*
X50044223Y-63215645D01*
X50023526Y-63231526D01*
X49934645Y-63347358D01*
X49931486Y-63354984D01*
X49931485Y-63354986D01*
X49916686Y-63390714D01*
X49878772Y-63482246D01*
X49877695Y-63490430D01*
X49877694Y-63490432D01*
X49863122Y-63601119D01*
X49859715Y-63627000D01*
X49860793Y-63635188D01*
X49875513Y-63746997D01*
X49878772Y-63771754D01*
X49881931Y-63779380D01*
X49930793Y-63897342D01*
X49934645Y-63906642D01*
X49970984Y-63954000D01*
X50017064Y-64014052D01*
X50023526Y-64022474D01*
X50030076Y-64027500D01*
X50030079Y-64027503D01*
X50132804Y-64106327D01*
X50139357Y-64111355D01*
X50190886Y-64132699D01*
X50257714Y-64160380D01*
X50274246Y-64167228D01*
X50419000Y-64186285D01*
X50427188Y-64185207D01*
X50555566Y-64168306D01*
X50563754Y-64167228D01*
X50580287Y-64160380D01*
X50647114Y-64132699D01*
X50698643Y-64111355D01*
X50801360Y-64032537D01*
X50867578Y-64006937D01*
X50878062Y-64006500D01*
X51317837Y-64006500D01*
X51385958Y-64026502D01*
X51432451Y-64080158D01*
X51441416Y-64157081D01*
X51431500Y-64206933D01*
X51431501Y-66157066D01*
X51437060Y-66185014D01*
X51442503Y-66212380D01*
X51446266Y-66231301D01*
X51494132Y-66302937D01*
X51514493Y-66358129D01*
X51516530Y-66375341D01*
X51520493Y-66383593D01*
X51521996Y-66392626D01*
X51526943Y-66401795D01*
X51526944Y-66401797D01*
X51535514Y-66417680D01*
X51546083Y-66437266D01*
X51546334Y-66437732D01*
X51549031Y-66443025D01*
X51567785Y-66482082D01*
X51567788Y-66482086D01*
X51571219Y-66489232D01*
X51574814Y-66493508D01*
X51576737Y-66495431D01*
X51578509Y-66497363D01*
X51578552Y-66497442D01*
X51578428Y-66497555D01*
X51578904Y-66498095D01*
X51581990Y-66503814D01*
X51589635Y-66510881D01*
X51621586Y-66540416D01*
X51625152Y-66543846D01*
X52136286Y-67054980D01*
X52170312Y-67117292D01*
X52165247Y-67188107D01*
X52136285Y-67233172D01*
X52129837Y-67239620D01*
X52119516Y-67246516D01*
X52112621Y-67256835D01*
X52112620Y-67256836D01*
X52081449Y-67303486D01*
X52063266Y-67330699D01*
X52048500Y-67404933D01*
X52048500Y-67411120D01*
X52048501Y-69024500D01*
X52028499Y-69092621D01*
X51974843Y-69139114D01*
X51922501Y-69150500D01*
X50580792Y-69150501D01*
X50302934Y-69150501D01*
X50267182Y-69157612D01*
X50240874Y-69162844D01*
X50240872Y-69162845D01*
X50228699Y-69165266D01*
X50218379Y-69172161D01*
X50218378Y-69172162D01*
X50157985Y-69212516D01*
X50144516Y-69221516D01*
X50129156Y-69244504D01*
X50074679Y-69290030D01*
X50024392Y-69300500D01*
X46521384Y-69300500D01*
X46453263Y-69280498D01*
X46432289Y-69263595D01*
X45634405Y-68465711D01*
X45600379Y-68403399D01*
X45597500Y-68376616D01*
X45597500Y-63897920D01*
X45600049Y-63873973D01*
X45600128Y-63872307D01*
X45602320Y-63862124D01*
X45601096Y-63851782D01*
X45601096Y-63851779D01*
X45598374Y-63828787D01*
X45598023Y-63822846D01*
X45597928Y-63822854D01*
X45597500Y-63817674D01*
X45597500Y-63812476D01*
X45594329Y-63793424D01*
X45593492Y-63787547D01*
X45588693Y-63746997D01*
X45588692Y-63746995D01*
X45587469Y-63736659D01*
X45583508Y-63728410D01*
X45582004Y-63719374D01*
X45577056Y-63710203D01*
X45557652Y-63674240D01*
X45554957Y-63668951D01*
X45536212Y-63629915D01*
X45532780Y-63622768D01*
X45529186Y-63618492D01*
X45527246Y-63616552D01*
X45525493Y-63614641D01*
X45525444Y-63614551D01*
X45525567Y-63614439D01*
X45525095Y-63613904D01*
X45522010Y-63608186D01*
X45482413Y-63571583D01*
X45478848Y-63568154D01*
X43315864Y-61405170D01*
X43281838Y-61342858D01*
X43279002Y-61312774D01*
X43279135Y-61307702D01*
X43279232Y-61304000D01*
X43260658Y-61101859D01*
X43259090Y-61096299D01*
X43207125Y-60912046D01*
X43207124Y-60912044D01*
X43205557Y-60906487D01*
X43197947Y-60891054D01*
X43118331Y-60729609D01*
X43115776Y-60724428D01*
X42994320Y-60561779D01*
X42919789Y-60492883D01*
X42849503Y-60427911D01*
X42845258Y-60423987D01*
X42840375Y-60420906D01*
X42840371Y-60420903D01*
X42678464Y-60318748D01*
X42673581Y-60315667D01*
X42485039Y-60240446D01*
X42479379Y-60239320D01*
X42479375Y-60239319D01*
X42291613Y-60201971D01*
X42291610Y-60201971D01*
X42285946Y-60200844D01*
X42280171Y-60200768D01*
X42280167Y-60200768D01*
X42178793Y-60199441D01*
X42082971Y-60198187D01*
X42077274Y-60199166D01*
X42077273Y-60199166D01*
X41888607Y-60231585D01*
X41882910Y-60232564D01*
X41692463Y-60302824D01*
X41687502Y-60305776D01*
X41687501Y-60305776D01*
X41677088Y-60311971D01*
X41518010Y-60406612D01*
X41513670Y-60410418D01*
X41513666Y-60410421D01*
X41387638Y-60520946D01*
X41365392Y-60540455D01*
X41239720Y-60699869D01*
X41237031Y-60704980D01*
X41237029Y-60704983D01*
X41224073Y-60729609D01*
X41145203Y-60879515D01*
X41085007Y-61073378D01*
X41061148Y-61274964D01*
X41074424Y-61477522D01*
X41075845Y-61483118D01*
X41075846Y-61483123D01*
X41118029Y-61649215D01*
X41124392Y-61674269D01*
X41126809Y-61679512D01*
X41205746Y-61850739D01*
X41209377Y-61858616D01*
X41326533Y-62024389D01*
X41471938Y-62166035D01*
X41640720Y-62278812D01*
X41646023Y-62281090D01*
X41646026Y-62281092D01*
X41762126Y-62330972D01*
X41827228Y-62358942D01*
X41900244Y-62375464D01*
X42019579Y-62402467D01*
X42019584Y-62402468D01*
X42025216Y-62403742D01*
X42030987Y-62403969D01*
X42030989Y-62403969D01*
X42090756Y-62406317D01*
X42228053Y-62411712D01*
X42328499Y-62397148D01*
X42423231Y-62383413D01*
X42423236Y-62383412D01*
X42428945Y-62382584D01*
X42434409Y-62380729D01*
X42434414Y-62380728D01*
X42615693Y-62319192D01*
X42615698Y-62319190D01*
X42621165Y-62317334D01*
X42639988Y-62306793D01*
X42695683Y-62275602D01*
X42798276Y-62218147D01*
X42850300Y-62174879D01*
X42915464Y-62146698D01*
X42985519Y-62158222D01*
X43019964Y-62182658D01*
X43911292Y-63073987D01*
X44801595Y-63964290D01*
X44835621Y-64026602D01*
X44838500Y-64053385D01*
X44838500Y-68532080D01*
X44835951Y-68556028D01*
X44835872Y-68557693D01*
X44833680Y-68567876D01*
X44834904Y-68578217D01*
X44837627Y-68601223D01*
X44837977Y-68607154D01*
X44838072Y-68607146D01*
X44838500Y-68612324D01*
X44838500Y-68617524D01*
X44839354Y-68622653D01*
X44839354Y-68622656D01*
X44841669Y-68636565D01*
X44842506Y-68642443D01*
X44848530Y-68693341D01*
X44852493Y-68701593D01*
X44853996Y-68710626D01*
X44858943Y-68719795D01*
X44858944Y-68719797D01*
X44878334Y-68755732D01*
X44881031Y-68761025D01*
X44899785Y-68800082D01*
X44899788Y-68800086D01*
X44903219Y-68807232D01*
X44906814Y-68811508D01*
X44908737Y-68813431D01*
X44910509Y-68815363D01*
X44910552Y-68815442D01*
X44910428Y-68815555D01*
X44910904Y-68816095D01*
X44913990Y-68821814D01*
X44921635Y-68828881D01*
X44953586Y-68858416D01*
X44957152Y-68861846D01*
X46002945Y-69907639D01*
X46036971Y-69969951D01*
X46031906Y-70040766D01*
X45989359Y-70097602D01*
X45966860Y-70108835D01*
X45967671Y-70110524D01*
X45964536Y-70112030D01*
X45957921Y-70114740D01*
X45950374Y-70115996D01*
X45941205Y-70120943D01*
X45941203Y-70120944D01*
X45905268Y-70140334D01*
X45899975Y-70143031D01*
X45860918Y-70161785D01*
X45860914Y-70161788D01*
X45853768Y-70165219D01*
X45849492Y-70168814D01*
X45847569Y-70170737D01*
X45845637Y-70172509D01*
X45845558Y-70172552D01*
X45845445Y-70172428D01*
X45844905Y-70172904D01*
X45839186Y-70175990D01*
X45832119Y-70183635D01*
X45802584Y-70215586D01*
X45799154Y-70219152D01*
X42695144Y-73323162D01*
X42632832Y-73357188D01*
X42559360Y-73351097D01*
X42485039Y-73321446D01*
X42479379Y-73320320D01*
X42479375Y-73320319D01*
X42291613Y-73282971D01*
X42291610Y-73282971D01*
X42285946Y-73281844D01*
X42280171Y-73281768D01*
X42280167Y-73281768D01*
X42178793Y-73280441D01*
X42082971Y-73279187D01*
X42077274Y-73280166D01*
X42077273Y-73280166D01*
X41928681Y-73305699D01*
X41882910Y-73313564D01*
X41692463Y-73383824D01*
X41518010Y-73487612D01*
X41513670Y-73491418D01*
X41513666Y-73491421D01*
X41423874Y-73570167D01*
X41365392Y-73621455D01*
X41239720Y-73780869D01*
X41237031Y-73785980D01*
X41237029Y-73785983D01*
X41234312Y-73791148D01*
X41145203Y-73960515D01*
X41085007Y-74154378D01*
X41061148Y-74355964D01*
X41074424Y-74558522D01*
X41075845Y-74564118D01*
X41075846Y-74564123D01*
X41096119Y-74643945D01*
X41124392Y-74755269D01*
X41126809Y-74760512D01*
X41162361Y-74837630D01*
X41209377Y-74939616D01*
X41212710Y-74944332D01*
X41266724Y-75020760D01*
X41326533Y-75105389D01*
X41330675Y-75109424D01*
X41383348Y-75160735D01*
X41471938Y-75247035D01*
X41640720Y-75359812D01*
X41646023Y-75362090D01*
X41646026Y-75362092D01*
X41734707Y-75400192D01*
X41827228Y-75439942D01*
X41900244Y-75456464D01*
X42019579Y-75483467D01*
X42019584Y-75483468D01*
X42025216Y-75484742D01*
X42030987Y-75484969D01*
X42030989Y-75484969D01*
X42090756Y-75487317D01*
X42228053Y-75492712D01*
X42328499Y-75478148D01*
X42423231Y-75464413D01*
X42423236Y-75464412D01*
X42428945Y-75463584D01*
X42434409Y-75461729D01*
X42434414Y-75461728D01*
X42615693Y-75400192D01*
X42615698Y-75400190D01*
X42621165Y-75398334D01*
X42631035Y-75392807D01*
X42713666Y-75346531D01*
X42798276Y-75299147D01*
X42830013Y-75272752D01*
X42949913Y-75173031D01*
X42954345Y-75169345D01*
X43017900Y-75092929D01*
X43080453Y-75017718D01*
X43080455Y-75017715D01*
X43084147Y-75013276D01*
X43173167Y-74854320D01*
X43180510Y-74841208D01*
X43180511Y-74841206D01*
X43183334Y-74836165D01*
X43185190Y-74830698D01*
X43185192Y-74830693D01*
X43246728Y-74649414D01*
X43246729Y-74649409D01*
X43248584Y-74643945D01*
X43249412Y-74638236D01*
X43249413Y-74638231D01*
X43275371Y-74459200D01*
X43277712Y-74443053D01*
X43279232Y-74385000D01*
X43261807Y-74195365D01*
X43261187Y-74188613D01*
X43261186Y-74188610D01*
X43260658Y-74182859D01*
X43259090Y-74177299D01*
X43207127Y-73993053D01*
X43207126Y-73993051D01*
X43205557Y-73987487D01*
X43206058Y-73987346D01*
X43200618Y-73920289D01*
X43234894Y-73856800D01*
X45133604Y-71958090D01*
X45195916Y-71924064D01*
X45266731Y-71929129D01*
X45323567Y-71971676D01*
X45348378Y-72038196D01*
X45346573Y-72063816D01*
X45346982Y-72063851D01*
X45346500Y-72069416D01*
X45346500Y-72072128D01*
X45346386Y-72074758D01*
X45346357Y-72074856D01*
X45346193Y-72074849D01*
X45346149Y-72075553D01*
X45344287Y-72081778D01*
X45345158Y-72103945D01*
X45346403Y-72135635D01*
X45346500Y-72140582D01*
X45346500Y-83700616D01*
X45326498Y-83768737D01*
X45309595Y-83789711D01*
X42695144Y-86404162D01*
X42632832Y-86438188D01*
X42559360Y-86432097D01*
X42485039Y-86402446D01*
X42479379Y-86401320D01*
X42479375Y-86401319D01*
X42291613Y-86363971D01*
X42291610Y-86363971D01*
X42285946Y-86362844D01*
X42280171Y-86362768D01*
X42280167Y-86362768D01*
X42178793Y-86361441D01*
X42082971Y-86360187D01*
X42077274Y-86361166D01*
X42077273Y-86361166D01*
X42038381Y-86367849D01*
X41882910Y-86394564D01*
X41692463Y-86464824D01*
X41518010Y-86568612D01*
X41513670Y-86572418D01*
X41513666Y-86572421D01*
X41369733Y-86698648D01*
X41365392Y-86702455D01*
X41361817Y-86706990D01*
X41361816Y-86706991D01*
X41349598Y-86722489D01*
X41239720Y-86861869D01*
X41145203Y-87041515D01*
X41085007Y-87235378D01*
X41061148Y-87436964D01*
X41074424Y-87639522D01*
X41075845Y-87645118D01*
X41075846Y-87645123D01*
X41119697Y-87817781D01*
X41124392Y-87836269D01*
X41126809Y-87841512D01*
X41162718Y-87919405D01*
X41209377Y-88020616D01*
X41326533Y-88186389D01*
X41330675Y-88190424D01*
X41392186Y-88250345D01*
X41471938Y-88328035D01*
X41640720Y-88440812D01*
X41646023Y-88443090D01*
X41646026Y-88443092D01*
X41821921Y-88518662D01*
X41827228Y-88520942D01*
X41863507Y-88529151D01*
X42019579Y-88564467D01*
X42019584Y-88564468D01*
X42025216Y-88565742D01*
X42030987Y-88565969D01*
X42030989Y-88565969D01*
X42090756Y-88568317D01*
X42228053Y-88573712D01*
X42328499Y-88559148D01*
X42423231Y-88545413D01*
X42423236Y-88545412D01*
X42428945Y-88544584D01*
X42434409Y-88542729D01*
X42434414Y-88542728D01*
X42615693Y-88481192D01*
X42615698Y-88481190D01*
X42621165Y-88479334D01*
X42655055Y-88460355D01*
X42773979Y-88393754D01*
X42843187Y-88377920D01*
X42909969Y-88402017D01*
X42953122Y-88458394D01*
X42958945Y-88529151D01*
X42924640Y-88592783D01*
X42652828Y-88864595D01*
X42590516Y-88898621D01*
X42563733Y-88901500D01*
X41434978Y-88901501D01*
X41294934Y-88901501D01*
X41260051Y-88908439D01*
X41232874Y-88913844D01*
X41232872Y-88913845D01*
X41220699Y-88916266D01*
X41210379Y-88923161D01*
X41210378Y-88923162D01*
X41149985Y-88963516D01*
X41136516Y-88972516D01*
X41080266Y-89056699D01*
X41065500Y-89130933D01*
X41065501Y-90881066D01*
X41070902Y-90908222D01*
X41077765Y-90942725D01*
X41080266Y-90955301D01*
X41087161Y-90965621D01*
X41087162Y-90965622D01*
X41105523Y-90993100D01*
X41136516Y-91039484D01*
X41220699Y-91095734D01*
X41294933Y-91110500D01*
X42169858Y-91110500D01*
X43045066Y-91110499D01*
X43080818Y-91103388D01*
X43107126Y-91098156D01*
X43107128Y-91098155D01*
X43119301Y-91095734D01*
X43129621Y-91088839D01*
X43129622Y-91088838D01*
X43193168Y-91046377D01*
X43203484Y-91039484D01*
X43234477Y-90993100D01*
X43288954Y-90947572D01*
X43301563Y-90942868D01*
X43323658Y-90935944D01*
X43323660Y-90935943D01*
X43329755Y-90934033D01*
X43355047Y-90920013D01*
X43369749Y-90913063D01*
X43390721Y-90904760D01*
X43390726Y-90904757D01*
X43396655Y-90902410D01*
X43401988Y-90898920D01*
X43401998Y-90898915D01*
X43447358Y-90869232D01*
X43455263Y-90864463D01*
X43502659Y-90838191D01*
X43502662Y-90838189D01*
X43508238Y-90835098D01*
X43513079Y-90830949D01*
X43513083Y-90830946D01*
X43530194Y-90816279D01*
X43543202Y-90806513D01*
X43563355Y-90793326D01*
X43563368Y-90793316D01*
X43567413Y-90790669D01*
X43571024Y-90787418D01*
X43571154Y-90787301D01*
X43571168Y-90787287D01*
X43572397Y-90786181D01*
X43611472Y-90747106D01*
X43618569Y-90740533D01*
X43658335Y-90706449D01*
X43663182Y-90702295D01*
X43682183Y-90677799D01*
X43692648Y-90665930D01*
X44450902Y-89907676D01*
X46504883Y-89907676D01*
X46505072Y-89911468D01*
X46519625Y-90203800D01*
X46520497Y-90221325D01*
X46521138Y-90225056D01*
X46521139Y-90225064D01*
X46573036Y-90527081D01*
X46573680Y-90530827D01*
X46574768Y-90534466D01*
X46574769Y-90534469D01*
X46652184Y-90793326D01*
X46663659Y-90831697D01*
X46665172Y-90835168D01*
X46665174Y-90835174D01*
X46722030Y-90965622D01*
X46789132Y-91119579D01*
X46791055Y-91122850D01*
X46791057Y-91122854D01*
X46846345Y-91216901D01*
X46948282Y-91390302D01*
X46950583Y-91393317D01*
X47051206Y-91525164D01*
X47138803Y-91639944D01*
X47141451Y-91642663D01*
X47141456Y-91642668D01*
X47209388Y-91712402D01*
X47357935Y-91864890D01*
X47360879Y-91867261D01*
X47360882Y-91867264D01*
X47599552Y-92059502D01*
X47599557Y-92059506D01*
X47602505Y-92061880D01*
X47868969Y-92228062D01*
X48153467Y-92361029D01*
X48157074Y-92362211D01*
X48157078Y-92362213D01*
X48321038Y-92415961D01*
X48451880Y-92458853D01*
X48455590Y-92459591D01*
X48455594Y-92459592D01*
X48605881Y-92489486D01*
X48759883Y-92520119D01*
X48916449Y-92532028D01*
X49069239Y-92543651D01*
X49069244Y-92543651D01*
X49073016Y-92543938D01*
X49386742Y-92529966D01*
X49390480Y-92529344D01*
X49390488Y-92529343D01*
X49541242Y-92504250D01*
X49696518Y-92478405D01*
X49997855Y-92390003D01*
X50286390Y-92266038D01*
X50557942Y-92108308D01*
X50808579Y-91919097D01*
X51034669Y-91701145D01*
X51232937Y-91457611D01*
X51242909Y-91441807D01*
X51398485Y-91195234D01*
X51398487Y-91195231D01*
X51400512Y-91192021D01*
X51407233Y-91177836D01*
X51511812Y-90957095D01*
X51534966Y-90908222D01*
X51536926Y-90902349D01*
X51603669Y-90702295D01*
X51634352Y-90610326D01*
X51697229Y-90302648D01*
X51722688Y-89989644D01*
X51723260Y-89935000D01*
X51721842Y-89911468D01*
X51704590Y-89625310D01*
X51704590Y-89625306D01*
X51704362Y-89621532D01*
X51663927Y-89400128D01*
X51648622Y-89316326D01*
X51648621Y-89316322D01*
X51647942Y-89312604D01*
X51641486Y-89291810D01*
X51603273Y-89168747D01*
X51554817Y-89012692D01*
X51541836Y-88983739D01*
X51467657Y-88818299D01*
X51426336Y-88726140D01*
X51264359Y-88457099D01*
X51253436Y-88443092D01*
X51160560Y-88324002D01*
X51071235Y-88209465D01*
X50849759Y-87986827D01*
X50826838Y-87968757D01*
X50606121Y-87794758D01*
X50603140Y-87792408D01*
X50334951Y-87629026D01*
X50166450Y-87552413D01*
X50052527Y-87500615D01*
X50052520Y-87500612D01*
X50049075Y-87499046D01*
X49749655Y-87404352D01*
X49612489Y-87378558D01*
X49444751Y-87347015D01*
X49444746Y-87347014D01*
X49441027Y-87346315D01*
X49127662Y-87325776D01*
X49123882Y-87325984D01*
X49123881Y-87325984D01*
X49035138Y-87330868D01*
X48814099Y-87343032D01*
X48810372Y-87343693D01*
X48810368Y-87343693D01*
X48567825Y-87386678D01*
X48504880Y-87397834D01*
X48501255Y-87398939D01*
X48501250Y-87398940D01*
X48368919Y-87439272D01*
X48204485Y-87489388D01*
X48201021Y-87490919D01*
X48201014Y-87490922D01*
X48061925Y-87552413D01*
X47917264Y-87616367D01*
X47914010Y-87618303D01*
X47914004Y-87618306D01*
X47734760Y-87724945D01*
X47647378Y-87776932D01*
X47644377Y-87779247D01*
X47644373Y-87779250D01*
X47523543Y-87872470D01*
X47398737Y-87968757D01*
X47396036Y-87971416D01*
X47396029Y-87971422D01*
X47177659Y-88186389D01*
X47174942Y-88189064D01*
X47172578Y-88192031D01*
X47172575Y-88192034D01*
X47122666Y-88254666D01*
X46979235Y-88434662D01*
X46814450Y-88701992D01*
X46682975Y-88987183D01*
X46625827Y-89164648D01*
X46597607Y-89252281D01*
X46586715Y-89286103D01*
X46585996Y-89289819D01*
X46585994Y-89289827D01*
X46527782Y-89590704D01*
X46527781Y-89590713D01*
X46527063Y-89594423D01*
X46526796Y-89598199D01*
X46526795Y-89598204D01*
X46524876Y-89625310D01*
X46504883Y-89907676D01*
X44450902Y-89907676D01*
X48629898Y-85728680D01*
X48678491Y-85698462D01*
X48717165Y-85685334D01*
X48894276Y-85586147D01*
X48932222Y-85554588D01*
X49045913Y-85460031D01*
X49050345Y-85456345D01*
X49104806Y-85390863D01*
X49176453Y-85304718D01*
X49176455Y-85304715D01*
X49180147Y-85300276D01*
X49279334Y-85123165D01*
X49281190Y-85117698D01*
X49281192Y-85117693D01*
X49342728Y-84936414D01*
X49342729Y-84936409D01*
X49344584Y-84930945D01*
X49345412Y-84925236D01*
X49345413Y-84925231D01*
X49366041Y-84782956D01*
X49373712Y-84730053D01*
X49375232Y-84672000D01*
X49360074Y-84507033D01*
X49357187Y-84475613D01*
X49357186Y-84475610D01*
X49356658Y-84469859D01*
X49355090Y-84464299D01*
X49303125Y-84280046D01*
X49303124Y-84280044D01*
X49301557Y-84274487D01*
X49299004Y-84269311D01*
X49299001Y-84269302D01*
X49283494Y-84237857D01*
X49270500Y-84182130D01*
X49270500Y-84081246D01*
X49290502Y-84013125D01*
X49307405Y-83992151D01*
X49486405Y-83813151D01*
X49548717Y-83779125D01*
X49619532Y-83784190D01*
X49676368Y-83826737D01*
X49701179Y-83893257D01*
X49701500Y-83902246D01*
X49701501Y-84723859D01*
X49701501Y-85547066D01*
X49716266Y-85621301D01*
X49723161Y-85631620D01*
X49723162Y-85631622D01*
X49737857Y-85653614D01*
X49772516Y-85705484D01*
X49856699Y-85761734D01*
X49930933Y-85776500D01*
X50225500Y-85776500D01*
X50293621Y-85796502D01*
X50340114Y-85850158D01*
X50351500Y-85902500D01*
X50351500Y-86161544D01*
X50350627Y-86176353D01*
X50346593Y-86210438D01*
X50348285Y-86219702D01*
X50348285Y-86219705D01*
X50357229Y-86268680D01*
X50357878Y-86272582D01*
X50365284Y-86321836D01*
X50366685Y-86331151D01*
X50369838Y-86337718D01*
X50371147Y-86344883D01*
X50398462Y-86397467D01*
X50400205Y-86400957D01*
X50425846Y-86454353D01*
X50430741Y-86459648D01*
X50430834Y-86459787D01*
X50434148Y-86466166D01*
X50438494Y-86471254D01*
X50476076Y-86508836D01*
X50479506Y-86512401D01*
X50518617Y-86554712D01*
X50525017Y-86558430D01*
X50531277Y-86564037D01*
X51476251Y-87509011D01*
X51486106Y-87520100D01*
X51507359Y-87547059D01*
X51515106Y-87552413D01*
X51556094Y-87580742D01*
X51559287Y-87583024D01*
X51606924Y-87618209D01*
X51613797Y-87620623D01*
X51619789Y-87624764D01*
X51666455Y-87639522D01*
X51676270Y-87642626D01*
X51679999Y-87643871D01*
X51735874Y-87663493D01*
X51743078Y-87663776D01*
X51743249Y-87663809D01*
X51750097Y-87665975D01*
X51756768Y-87666500D01*
X51809938Y-87666500D01*
X51814884Y-87666597D01*
X51872437Y-87668858D01*
X51879592Y-87666961D01*
X51887967Y-87666500D01*
X54287555Y-87666500D01*
X54355676Y-87686502D01*
X54376650Y-87703405D01*
X54647245Y-87974000D01*
X52584000Y-87974000D01*
X52584000Y-93183125D01*
X41191486Y-93180509D01*
X41166937Y-93178088D01*
X41154000Y-93175514D01*
X41141826Y-93177935D01*
X41129417Y-93177935D01*
X41129417Y-93177615D01*
X41118544Y-93178355D01*
X41114114Y-93178087D01*
X41071576Y-93175514D01*
X40886120Y-93164296D01*
X40871016Y-93162462D01*
X40614542Y-93115462D01*
X40599769Y-93111821D01*
X40508146Y-93083270D01*
X40350820Y-93034245D01*
X40336602Y-93028853D01*
X40098818Y-92921835D01*
X40085362Y-92914773D01*
X39862211Y-92779873D01*
X39849690Y-92771231D01*
X39644427Y-92610417D01*
X39633039Y-92600327D01*
X39448673Y-92415961D01*
X39438583Y-92404573D01*
X39277769Y-92199310D01*
X39269126Y-92186788D01*
X39194830Y-92063888D01*
X39134227Y-91963638D01*
X39127165Y-91950182D01*
X39020147Y-91712398D01*
X39014753Y-91698175D01*
X38997457Y-91642668D01*
X38937179Y-91449231D01*
X38933538Y-91434458D01*
X38886538Y-91177984D01*
X38884704Y-91162880D01*
X38870645Y-90930456D01*
X38871385Y-90919580D01*
X38871065Y-90919580D01*
X38871065Y-90907172D01*
X38873486Y-90895000D01*
X38870921Y-90882103D01*
X38868500Y-90857524D01*
X38868500Y-84896964D01*
X41061148Y-84896964D01*
X41074424Y-85099522D01*
X41075845Y-85105118D01*
X41075846Y-85105123D01*
X41105356Y-85221315D01*
X41124392Y-85296269D01*
X41126809Y-85301512D01*
X41192575Y-85444170D01*
X41209377Y-85480616D01*
X41212710Y-85485332D01*
X41308803Y-85621301D01*
X41326533Y-85646389D01*
X41330675Y-85650424D01*
X41392186Y-85710345D01*
X41471938Y-85788035D01*
X41640720Y-85900812D01*
X41646023Y-85903090D01*
X41646026Y-85903092D01*
X41821921Y-85978662D01*
X41827228Y-85980942D01*
X41900244Y-85997464D01*
X42019579Y-86024467D01*
X42019584Y-86024468D01*
X42025216Y-86025742D01*
X42030987Y-86025969D01*
X42030989Y-86025969D01*
X42090756Y-86028317D01*
X42228053Y-86033712D01*
X42328499Y-86019148D01*
X42423231Y-86005413D01*
X42423236Y-86005412D01*
X42428945Y-86004584D01*
X42434409Y-86002729D01*
X42434414Y-86002728D01*
X42615693Y-85941192D01*
X42615698Y-85941190D01*
X42621165Y-85939334D01*
X42631992Y-85933271D01*
X42780400Y-85850158D01*
X42798276Y-85840147D01*
X42805213Y-85834378D01*
X42949913Y-85714031D01*
X42954345Y-85710345D01*
X42988614Y-85669141D01*
X43080453Y-85558718D01*
X43080455Y-85558715D01*
X43084147Y-85554276D01*
X43183334Y-85377165D01*
X43185190Y-85371698D01*
X43185192Y-85371693D01*
X43246728Y-85190414D01*
X43246729Y-85190409D01*
X43248584Y-85184945D01*
X43249412Y-85179236D01*
X43249413Y-85179231D01*
X43269851Y-85038268D01*
X43277712Y-84984053D01*
X43279232Y-84926000D01*
X43260658Y-84723859D01*
X43259090Y-84718299D01*
X43207125Y-84534046D01*
X43207124Y-84534044D01*
X43205557Y-84528487D01*
X43194978Y-84507033D01*
X43118331Y-84351609D01*
X43115776Y-84346428D01*
X43110822Y-84339793D01*
X43059605Y-84271206D01*
X42994320Y-84183779D01*
X42845258Y-84045987D01*
X42840375Y-84042906D01*
X42840371Y-84042903D01*
X42678464Y-83940748D01*
X42673581Y-83937667D01*
X42485039Y-83862446D01*
X42479379Y-83861320D01*
X42479375Y-83861319D01*
X42291613Y-83823971D01*
X42291610Y-83823971D01*
X42285946Y-83822844D01*
X42280171Y-83822768D01*
X42280167Y-83822768D01*
X42178793Y-83821441D01*
X42082971Y-83820187D01*
X42077274Y-83821166D01*
X42077273Y-83821166D01*
X41888607Y-83853585D01*
X41882910Y-83854564D01*
X41692463Y-83924824D01*
X41518010Y-84028612D01*
X41513670Y-84032418D01*
X41513666Y-84032421D01*
X41377514Y-84151824D01*
X41365392Y-84162455D01*
X41361817Y-84166990D01*
X41361816Y-84166991D01*
X41358242Y-84171525D01*
X41239720Y-84321869D01*
X41237031Y-84326980D01*
X41237029Y-84326983D01*
X41207678Y-84382771D01*
X41145203Y-84501515D01*
X41085007Y-84695378D01*
X41061148Y-84896964D01*
X38868500Y-84896964D01*
X38868500Y-82652962D01*
X41098671Y-82652962D01*
X41123443Y-82750502D01*
X41127284Y-82761348D01*
X41207394Y-82935120D01*
X41213145Y-82945081D01*
X41323579Y-83101343D01*
X41331057Y-83110098D01*
X41468114Y-83243612D01*
X41477058Y-83250855D01*
X41636156Y-83357161D01*
X41646266Y-83362651D01*
X41822077Y-83438185D01*
X41833020Y-83441740D01*
X41898332Y-83456519D01*
X41912405Y-83455630D01*
X41915828Y-83446681D01*
X42424000Y-83446681D01*
X42427966Y-83460187D01*
X42436672Y-83461433D01*
X42615497Y-83400730D01*
X42625994Y-83396056D01*
X42792958Y-83302552D01*
X42802430Y-83296042D01*
X42949553Y-83173682D01*
X42957682Y-83165553D01*
X43080042Y-83018430D01*
X43086552Y-83008958D01*
X43180056Y-82841994D01*
X43184730Y-82831497D01*
X43245443Y-82652644D01*
X43244210Y-82643993D01*
X43230642Y-82640000D01*
X42442115Y-82640000D01*
X42426876Y-82644475D01*
X42425671Y-82645865D01*
X42424000Y-82653548D01*
X42424000Y-83446681D01*
X41915828Y-83446681D01*
X41916000Y-83446232D01*
X41916000Y-82658115D01*
X41911525Y-82642876D01*
X41910135Y-82641671D01*
X41902452Y-82640000D01*
X41113494Y-82640000D01*
X41099963Y-82643973D01*
X41098671Y-82652962D01*
X38868500Y-82652962D01*
X38868500Y-82128799D01*
X41097943Y-82128799D01*
X41104675Y-82132000D01*
X41897885Y-82132000D01*
X41913124Y-82127525D01*
X41914329Y-82126135D01*
X41916000Y-82118452D01*
X41916000Y-82113885D01*
X42424000Y-82113885D01*
X42428475Y-82129124D01*
X42429865Y-82130329D01*
X42437548Y-82132000D01*
X43227398Y-82132000D01*
X43240929Y-82128027D01*
X43242098Y-82119892D01*
X43206658Y-81994231D01*
X43202533Y-81983484D01*
X43117903Y-81811871D01*
X43111893Y-81802063D01*
X42997400Y-81648739D01*
X42989710Y-81640199D01*
X42849192Y-81510304D01*
X42840067Y-81503303D01*
X42678236Y-81401195D01*
X42667989Y-81395974D01*
X42490260Y-81325068D01*
X42479232Y-81321801D01*
X42441769Y-81314350D01*
X42428894Y-81315502D01*
X42424000Y-81330658D01*
X42424000Y-82113885D01*
X41916000Y-82113885D01*
X41916000Y-81327500D01*
X41912194Y-81314538D01*
X41897279Y-81312602D01*
X41888732Y-81314071D01*
X41877620Y-81317048D01*
X41698095Y-81383279D01*
X41687717Y-81388229D01*
X41523273Y-81486063D01*
X41513961Y-81492829D01*
X41370097Y-81618994D01*
X41362180Y-81627337D01*
X41243718Y-81777605D01*
X41237450Y-81787256D01*
X41148358Y-81956592D01*
X41143953Y-81967227D01*
X41098162Y-82114698D01*
X41097943Y-82128799D01*
X38868500Y-82128799D01*
X38868500Y-76049933D01*
X41065500Y-76049933D01*
X41065501Y-77800066D01*
X41072612Y-77835818D01*
X41077055Y-77858156D01*
X41080266Y-77874301D01*
X41087161Y-77884620D01*
X41087162Y-77884622D01*
X41116434Y-77928430D01*
X41136516Y-77958484D01*
X41220699Y-78014734D01*
X41294933Y-78029500D01*
X42169858Y-78029500D01*
X43045066Y-78029499D01*
X43080818Y-78022388D01*
X43107126Y-78017156D01*
X43107128Y-78017155D01*
X43119301Y-78014734D01*
X43129621Y-78007839D01*
X43129622Y-78007838D01*
X43193168Y-77965377D01*
X43203484Y-77958484D01*
X43259734Y-77874301D01*
X43274500Y-77800067D01*
X43274499Y-76049934D01*
X43259734Y-75975699D01*
X43203484Y-75891516D01*
X43119301Y-75835266D01*
X43045067Y-75820500D01*
X42170142Y-75820500D01*
X41294934Y-75820501D01*
X41259182Y-75827612D01*
X41232874Y-75832844D01*
X41232872Y-75832845D01*
X41220699Y-75835266D01*
X41210379Y-75842161D01*
X41210378Y-75842162D01*
X41193573Y-75853391D01*
X41136516Y-75891516D01*
X41080266Y-75975699D01*
X41065500Y-76049933D01*
X38868500Y-76049933D01*
X38868500Y-71815964D01*
X41061148Y-71815964D01*
X41074424Y-72018522D01*
X41075845Y-72024118D01*
X41075846Y-72024123D01*
X41110278Y-72159697D01*
X41124392Y-72215269D01*
X41126809Y-72220512D01*
X41206959Y-72394371D01*
X41209377Y-72399616D01*
X41212710Y-72404332D01*
X41284349Y-72505699D01*
X41326533Y-72565389D01*
X41471938Y-72707035D01*
X41640720Y-72819812D01*
X41646023Y-72822090D01*
X41646026Y-72822092D01*
X41782057Y-72880535D01*
X41827228Y-72899942D01*
X41900244Y-72916464D01*
X42019579Y-72943467D01*
X42019584Y-72943468D01*
X42025216Y-72944742D01*
X42030987Y-72944969D01*
X42030989Y-72944969D01*
X42090756Y-72947317D01*
X42228053Y-72952712D01*
X42328499Y-72938148D01*
X42423231Y-72924413D01*
X42423236Y-72924412D01*
X42428945Y-72923584D01*
X42434409Y-72921729D01*
X42434414Y-72921728D01*
X42615693Y-72860192D01*
X42615698Y-72860190D01*
X42621165Y-72858334D01*
X42798276Y-72759147D01*
X42818986Y-72741923D01*
X42949913Y-72633031D01*
X42954345Y-72629345D01*
X43000488Y-72573865D01*
X43080453Y-72477718D01*
X43080455Y-72477715D01*
X43084147Y-72473276D01*
X43183334Y-72296165D01*
X43185190Y-72290698D01*
X43185192Y-72290693D01*
X43246728Y-72109414D01*
X43246729Y-72109409D01*
X43248584Y-72103945D01*
X43249412Y-72098236D01*
X43249413Y-72098231D01*
X43272573Y-71938495D01*
X43277712Y-71903053D01*
X43279232Y-71845000D01*
X43266122Y-71702324D01*
X43261187Y-71648613D01*
X43261186Y-71648610D01*
X43260658Y-71642859D01*
X43256141Y-71626842D01*
X43207125Y-71453046D01*
X43207124Y-71453044D01*
X43205557Y-71447487D01*
X43201337Y-71438928D01*
X43118331Y-71270609D01*
X43115776Y-71265428D01*
X43107956Y-71254955D01*
X43026430Y-71145780D01*
X42994320Y-71102779D01*
X42868123Y-70986123D01*
X42849503Y-70968911D01*
X42845258Y-70964987D01*
X42840375Y-70961906D01*
X42840371Y-70961903D01*
X42678464Y-70859748D01*
X42673581Y-70856667D01*
X42485039Y-70781446D01*
X42479379Y-70780320D01*
X42479375Y-70780319D01*
X42291613Y-70742971D01*
X42291610Y-70742971D01*
X42285946Y-70741844D01*
X42280171Y-70741768D01*
X42280167Y-70741768D01*
X42178793Y-70740441D01*
X42082971Y-70739187D01*
X42077274Y-70740166D01*
X42077273Y-70740166D01*
X41888607Y-70772585D01*
X41882910Y-70773564D01*
X41692463Y-70843824D01*
X41518010Y-70947612D01*
X41513670Y-70951418D01*
X41513666Y-70951421D01*
X41423874Y-71030167D01*
X41365392Y-71081455D01*
X41361817Y-71085990D01*
X41361816Y-71085991D01*
X41344931Y-71107409D01*
X41239720Y-71240869D01*
X41237031Y-71245980D01*
X41237029Y-71245983D01*
X41224073Y-71270609D01*
X41145203Y-71420515D01*
X41085007Y-71614378D01*
X41061148Y-71815964D01*
X38868500Y-71815964D01*
X38868500Y-69571962D01*
X41098671Y-69571962D01*
X41123443Y-69669502D01*
X41127284Y-69680348D01*
X41207394Y-69854120D01*
X41213145Y-69864081D01*
X41323579Y-70020343D01*
X41331057Y-70029098D01*
X41468114Y-70162612D01*
X41477058Y-70169855D01*
X41636156Y-70276161D01*
X41646266Y-70281651D01*
X41822077Y-70357185D01*
X41833020Y-70360740D01*
X41898332Y-70375519D01*
X41912405Y-70374630D01*
X41915828Y-70365681D01*
X42424000Y-70365681D01*
X42427966Y-70379187D01*
X42436672Y-70380433D01*
X42615497Y-70319730D01*
X42625994Y-70315056D01*
X42792958Y-70221552D01*
X42802430Y-70215042D01*
X42949553Y-70092682D01*
X42957682Y-70084553D01*
X43080042Y-69937430D01*
X43086552Y-69927958D01*
X43180056Y-69760994D01*
X43184730Y-69750497D01*
X43245443Y-69571644D01*
X43244210Y-69562993D01*
X43230642Y-69559000D01*
X42442115Y-69559000D01*
X42426876Y-69563475D01*
X42425671Y-69564865D01*
X42424000Y-69572548D01*
X42424000Y-70365681D01*
X41915828Y-70365681D01*
X41916000Y-70365232D01*
X41916000Y-69577115D01*
X41911525Y-69561876D01*
X41910135Y-69560671D01*
X41902452Y-69559000D01*
X41113494Y-69559000D01*
X41099963Y-69562973D01*
X41098671Y-69571962D01*
X38868500Y-69571962D01*
X38868500Y-69047799D01*
X41097943Y-69047799D01*
X41104675Y-69051000D01*
X41897885Y-69051000D01*
X41913124Y-69046525D01*
X41914329Y-69045135D01*
X41916000Y-69037452D01*
X41916000Y-69032885D01*
X42424000Y-69032885D01*
X42428475Y-69048124D01*
X42429865Y-69049329D01*
X42437548Y-69051000D01*
X43227398Y-69051000D01*
X43240929Y-69047027D01*
X43242098Y-69038892D01*
X43206658Y-68913231D01*
X43202533Y-68902484D01*
X43117903Y-68730871D01*
X43111893Y-68721063D01*
X42997400Y-68567739D01*
X42989710Y-68559199D01*
X42849192Y-68429304D01*
X42840067Y-68422303D01*
X42678236Y-68320195D01*
X42667989Y-68314974D01*
X42490260Y-68244068D01*
X42479232Y-68240801D01*
X42441769Y-68233350D01*
X42428894Y-68234502D01*
X42424000Y-68249658D01*
X42424000Y-69032885D01*
X41916000Y-69032885D01*
X41916000Y-68246500D01*
X41912194Y-68233538D01*
X41897279Y-68231602D01*
X41888732Y-68233071D01*
X41877620Y-68236048D01*
X41698095Y-68302279D01*
X41687717Y-68307229D01*
X41523273Y-68405063D01*
X41513961Y-68411829D01*
X41370097Y-68537994D01*
X41362180Y-68546337D01*
X41243718Y-68696605D01*
X41237450Y-68706256D01*
X41148358Y-68875592D01*
X41143953Y-68886227D01*
X41098162Y-69033698D01*
X41097943Y-69047799D01*
X38868500Y-69047799D01*
X38868500Y-62968933D01*
X41065500Y-62968933D01*
X41065501Y-64719066D01*
X41080266Y-64793301D01*
X41136516Y-64877484D01*
X41220699Y-64933734D01*
X41294933Y-64948500D01*
X42169858Y-64948500D01*
X43045066Y-64948499D01*
X43080818Y-64941388D01*
X43107126Y-64936156D01*
X43107128Y-64936155D01*
X43119301Y-64933734D01*
X43129621Y-64926839D01*
X43129622Y-64926838D01*
X43193168Y-64884377D01*
X43203484Y-64877484D01*
X43259734Y-64793301D01*
X43274500Y-64719067D01*
X43274499Y-62968934D01*
X43265017Y-62921260D01*
X43262156Y-62906874D01*
X43262155Y-62906872D01*
X43259734Y-62894699D01*
X43250972Y-62881585D01*
X43210377Y-62820832D01*
X43203484Y-62810516D01*
X43119301Y-62754266D01*
X43045067Y-62739500D01*
X42170142Y-62739500D01*
X41294934Y-62739501D01*
X41259182Y-62746612D01*
X41232874Y-62751844D01*
X41232872Y-62751845D01*
X41220699Y-62754266D01*
X41210379Y-62761161D01*
X41210378Y-62761162D01*
X41149985Y-62801516D01*
X41136516Y-62810516D01*
X41080266Y-62894699D01*
X41065500Y-62968933D01*
X38868500Y-62968933D01*
X38868500Y-58734964D01*
X41061148Y-58734964D01*
X41062809Y-58760305D01*
X41073051Y-58916566D01*
X41074424Y-58937522D01*
X41075845Y-58943118D01*
X41075846Y-58943123D01*
X41110831Y-59080874D01*
X41124392Y-59134269D01*
X41126809Y-59139512D01*
X41164010Y-59220208D01*
X41209377Y-59318616D01*
X41236884Y-59357538D01*
X41322814Y-59479126D01*
X41326533Y-59484389D01*
X41330675Y-59488424D01*
X41364738Y-59521606D01*
X41471938Y-59626035D01*
X41640720Y-59738812D01*
X41646023Y-59741090D01*
X41646026Y-59741092D01*
X41802970Y-59808520D01*
X41827228Y-59818942D01*
X41893258Y-59833883D01*
X42019579Y-59862467D01*
X42019584Y-59862468D01*
X42025216Y-59863742D01*
X42030987Y-59863969D01*
X42030989Y-59863969D01*
X42090756Y-59866317D01*
X42228053Y-59871712D01*
X42328499Y-59857148D01*
X42423231Y-59843413D01*
X42423236Y-59843412D01*
X42428945Y-59842584D01*
X42434409Y-59840729D01*
X42434414Y-59840728D01*
X42615693Y-59779192D01*
X42615698Y-59779190D01*
X42621165Y-59777334D01*
X42655855Y-59757907D01*
X42729026Y-59716929D01*
X42798276Y-59678147D01*
X42817654Y-59662031D01*
X42949913Y-59552031D01*
X42954345Y-59548345D01*
X42990120Y-59505331D01*
X43080453Y-59396718D01*
X43080455Y-59396715D01*
X43084147Y-59392276D01*
X43155856Y-59264231D01*
X43180510Y-59220208D01*
X43180511Y-59220206D01*
X43183334Y-59215165D01*
X43185190Y-59209698D01*
X43185192Y-59209693D01*
X43246728Y-59028414D01*
X43246729Y-59028409D01*
X43248584Y-59022945D01*
X43249412Y-59017236D01*
X43249413Y-59017231D01*
X43277179Y-58825727D01*
X43277712Y-58822053D01*
X43279232Y-58764000D01*
X43260658Y-58561859D01*
X43258325Y-58553588D01*
X43207125Y-58372046D01*
X43207124Y-58372044D01*
X43205557Y-58366487D01*
X43194978Y-58345033D01*
X43118331Y-58189609D01*
X43115776Y-58184428D01*
X42994320Y-58021779D01*
X42845258Y-57883987D01*
X42840375Y-57880906D01*
X42840371Y-57880903D01*
X42678464Y-57778748D01*
X42673581Y-57775667D01*
X42485039Y-57700446D01*
X42479379Y-57699320D01*
X42479375Y-57699319D01*
X42291613Y-57661971D01*
X42291610Y-57661971D01*
X42285946Y-57660844D01*
X42280171Y-57660768D01*
X42280167Y-57660768D01*
X42178793Y-57659441D01*
X42082971Y-57658187D01*
X42077274Y-57659166D01*
X42077273Y-57659166D01*
X41888607Y-57691585D01*
X41882910Y-57692564D01*
X41692463Y-57762824D01*
X41687502Y-57765776D01*
X41687501Y-57765776D01*
X41677088Y-57771971D01*
X41518010Y-57866612D01*
X41513670Y-57870418D01*
X41513666Y-57870421D01*
X41437315Y-57937380D01*
X41365392Y-58000455D01*
X41239720Y-58159869D01*
X41237031Y-58164980D01*
X41237029Y-58164983D01*
X41224560Y-58188683D01*
X41145203Y-58339515D01*
X41085007Y-58533378D01*
X41061148Y-58734964D01*
X38868500Y-58734964D01*
X38868500Y-56490962D01*
X41098671Y-56490962D01*
X41123443Y-56588502D01*
X41127284Y-56599348D01*
X41207394Y-56773120D01*
X41213145Y-56783081D01*
X41323579Y-56939343D01*
X41331057Y-56948098D01*
X41468114Y-57081612D01*
X41477058Y-57088855D01*
X41636156Y-57195161D01*
X41646266Y-57200651D01*
X41822077Y-57276185D01*
X41833020Y-57279740D01*
X41898332Y-57294519D01*
X41912405Y-57293630D01*
X41915828Y-57284681D01*
X42424000Y-57284681D01*
X42427966Y-57298187D01*
X42436672Y-57299433D01*
X42615497Y-57238730D01*
X42625994Y-57234056D01*
X42792958Y-57140552D01*
X42802430Y-57134042D01*
X42949553Y-57011682D01*
X42957682Y-57003553D01*
X43080042Y-56856430D01*
X43086552Y-56846958D01*
X43180056Y-56679994D01*
X43184730Y-56669497D01*
X43245443Y-56490644D01*
X43244210Y-56481993D01*
X43230642Y-56478000D01*
X42442115Y-56478000D01*
X42426876Y-56482475D01*
X42425671Y-56483865D01*
X42424000Y-56491548D01*
X42424000Y-57284681D01*
X41915828Y-57284681D01*
X41916000Y-57284232D01*
X41916000Y-56496115D01*
X41911525Y-56480876D01*
X41910135Y-56479671D01*
X41902452Y-56478000D01*
X41113494Y-56478000D01*
X41099963Y-56481973D01*
X41098671Y-56490962D01*
X38868500Y-56490962D01*
X38868500Y-55966799D01*
X41097943Y-55966799D01*
X41104675Y-55970000D01*
X41897885Y-55970000D01*
X41913124Y-55965525D01*
X41914329Y-55964135D01*
X41916000Y-55956452D01*
X41916000Y-55951885D01*
X42424000Y-55951885D01*
X42428475Y-55967124D01*
X42429865Y-55968329D01*
X42437548Y-55970000D01*
X43227398Y-55970000D01*
X43240929Y-55966027D01*
X43242098Y-55957892D01*
X43206658Y-55832231D01*
X43202533Y-55821484D01*
X43117903Y-55649871D01*
X43111893Y-55640063D01*
X42997400Y-55486739D01*
X42989710Y-55478199D01*
X42849192Y-55348304D01*
X42840067Y-55341303D01*
X42678236Y-55239195D01*
X42667989Y-55233974D01*
X42490260Y-55163068D01*
X42479232Y-55159801D01*
X42441769Y-55152350D01*
X42428894Y-55153502D01*
X42424000Y-55168658D01*
X42424000Y-55951885D01*
X41916000Y-55951885D01*
X41916000Y-55165500D01*
X41912194Y-55152538D01*
X41897279Y-55150602D01*
X41888732Y-55152071D01*
X41877620Y-55155048D01*
X41698095Y-55221279D01*
X41687717Y-55226229D01*
X41523273Y-55324063D01*
X41513961Y-55330829D01*
X41370097Y-55456994D01*
X41362180Y-55465337D01*
X41243718Y-55615605D01*
X41237450Y-55625256D01*
X41148358Y-55794592D01*
X41143953Y-55805227D01*
X41098162Y-55952698D01*
X41097943Y-55966799D01*
X38868500Y-55966799D01*
X38868500Y-41283018D01*
X41642501Y-41283018D01*
X41643709Y-41295278D01*
X41654815Y-41351121D01*
X41664133Y-41373617D01*
X41706483Y-41436998D01*
X41723692Y-41454207D01*
X41787075Y-41496558D01*
X41809566Y-41505874D01*
X41865415Y-41516983D01*
X41877670Y-41518190D01*
X42174385Y-41518190D01*
X42189624Y-41513715D01*
X42190829Y-41512325D01*
X42192500Y-41504642D01*
X42192500Y-41500074D01*
X42700500Y-41500074D01*
X42704975Y-41515313D01*
X42706365Y-41516518D01*
X42714048Y-41518189D01*
X43015328Y-41518189D01*
X43027588Y-41516981D01*
X43083431Y-41505875D01*
X43105927Y-41496557D01*
X43169308Y-41454207D01*
X43186517Y-41436998D01*
X43228868Y-41373615D01*
X43238184Y-41351124D01*
X43249293Y-41295275D01*
X43250500Y-41283020D01*
X43250500Y-39236305D01*
X43246025Y-39221066D01*
X43244635Y-39219861D01*
X43236952Y-39218190D01*
X42718615Y-39218190D01*
X42703376Y-39222665D01*
X42702171Y-39224055D01*
X42700500Y-39231738D01*
X42700500Y-41500074D01*
X42192500Y-41500074D01*
X42192500Y-39236305D01*
X42188025Y-39221066D01*
X42186635Y-39219861D01*
X42178952Y-39218190D01*
X41660616Y-39218190D01*
X41645377Y-39222665D01*
X41644172Y-39224055D01*
X41642501Y-39231738D01*
X41642501Y-41283018D01*
X38868500Y-41283018D01*
X38868500Y-38692075D01*
X41642500Y-38692075D01*
X41646975Y-38707314D01*
X41648365Y-38708519D01*
X41656048Y-38710190D01*
X42174385Y-38710190D01*
X42189624Y-38705715D01*
X42190829Y-38704325D01*
X42192500Y-38696642D01*
X42192500Y-38692075D01*
X42700500Y-38692075D01*
X42704975Y-38707314D01*
X42706365Y-38708519D01*
X42714048Y-38710190D01*
X43232384Y-38710190D01*
X43247623Y-38705715D01*
X43248828Y-38704325D01*
X43250499Y-38696642D01*
X43250499Y-36645362D01*
X43249884Y-36639123D01*
X46722000Y-36639123D01*
X46722001Y-41289256D01*
X46729112Y-41325008D01*
X46734306Y-41351121D01*
X46736766Y-41363491D01*
X46793016Y-41447674D01*
X46877199Y-41503924D01*
X46951433Y-41518690D01*
X47526407Y-41518690D01*
X48101566Y-41518689D01*
X48137318Y-41511578D01*
X48163626Y-41506346D01*
X48163628Y-41506345D01*
X48175801Y-41503924D01*
X48186121Y-41497029D01*
X48186122Y-41497028D01*
X48249668Y-41454567D01*
X48259984Y-41447674D01*
X48316234Y-41363491D01*
X48331000Y-41289257D01*
X48331000Y-41283018D01*
X53834501Y-41283018D01*
X53835709Y-41295278D01*
X53846815Y-41351121D01*
X53856133Y-41373617D01*
X53898483Y-41436998D01*
X53915692Y-41454207D01*
X53979075Y-41496558D01*
X54001566Y-41505874D01*
X54057415Y-41516983D01*
X54069670Y-41518190D01*
X54366385Y-41518190D01*
X54381624Y-41513715D01*
X54382829Y-41512325D01*
X54384500Y-41504642D01*
X54384500Y-41500074D01*
X54892500Y-41500074D01*
X54896975Y-41515313D01*
X54898365Y-41516518D01*
X54906048Y-41518189D01*
X55207328Y-41518189D01*
X55219588Y-41516981D01*
X55275431Y-41505875D01*
X55297927Y-41496557D01*
X55361308Y-41454207D01*
X55378517Y-41436998D01*
X55420868Y-41373615D01*
X55430184Y-41351124D01*
X55441293Y-41295275D01*
X55442500Y-41283020D01*
X55442500Y-39236305D01*
X55438025Y-39221066D01*
X55436635Y-39219861D01*
X55428952Y-39218190D01*
X54910615Y-39218190D01*
X54895376Y-39222665D01*
X54894171Y-39224055D01*
X54892500Y-39231738D01*
X54892500Y-41500074D01*
X54384500Y-41500074D01*
X54384500Y-39236305D01*
X54380025Y-39221066D01*
X54378635Y-39219861D01*
X54370952Y-39218190D01*
X53852616Y-39218190D01*
X53837377Y-39222665D01*
X53836172Y-39224055D01*
X53834501Y-39231738D01*
X53834501Y-41283018D01*
X48331000Y-41283018D01*
X48330999Y-38692075D01*
X53834500Y-38692075D01*
X53838975Y-38707314D01*
X53840365Y-38708519D01*
X53848048Y-38710190D01*
X54366385Y-38710190D01*
X54381624Y-38705715D01*
X54382829Y-38704325D01*
X54384500Y-38696642D01*
X54384500Y-38692075D01*
X54892500Y-38692075D01*
X54896975Y-38707314D01*
X54898365Y-38708519D01*
X54906048Y-38710190D01*
X55424384Y-38710190D01*
X55439623Y-38705715D01*
X55440828Y-38704325D01*
X55442499Y-38696642D01*
X55442499Y-36645362D01*
X55441884Y-36639123D01*
X58914000Y-36639123D01*
X58914001Y-41289256D01*
X58921112Y-41325008D01*
X58926306Y-41351121D01*
X58928766Y-41363491D01*
X58985016Y-41447674D01*
X59069199Y-41503924D01*
X59143433Y-41518690D01*
X59718407Y-41518690D01*
X60293566Y-41518689D01*
X60329318Y-41511578D01*
X60355626Y-41506346D01*
X60355628Y-41506345D01*
X60367801Y-41503924D01*
X60378121Y-41497029D01*
X60378122Y-41497028D01*
X60441668Y-41454567D01*
X60451984Y-41447674D01*
X60508234Y-41363491D01*
X60523000Y-41289257D01*
X60523000Y-41283018D01*
X66026501Y-41283018D01*
X66027709Y-41295278D01*
X66038815Y-41351121D01*
X66048133Y-41373617D01*
X66090483Y-41436998D01*
X66107692Y-41454207D01*
X66171075Y-41496558D01*
X66193566Y-41505874D01*
X66249415Y-41516983D01*
X66261670Y-41518190D01*
X66558385Y-41518190D01*
X66573624Y-41513715D01*
X66574829Y-41512325D01*
X66576500Y-41504642D01*
X66576500Y-41500074D01*
X67084500Y-41500074D01*
X67088975Y-41515313D01*
X67090365Y-41516518D01*
X67098048Y-41518189D01*
X67399328Y-41518189D01*
X67411588Y-41516981D01*
X67467431Y-41505875D01*
X67489927Y-41496557D01*
X67553308Y-41454207D01*
X67570517Y-41436998D01*
X67612868Y-41373615D01*
X67622184Y-41351124D01*
X67633293Y-41295275D01*
X67634500Y-41283020D01*
X67634500Y-39236305D01*
X67630025Y-39221066D01*
X67628635Y-39219861D01*
X67620952Y-39218190D01*
X67102615Y-39218190D01*
X67087376Y-39222665D01*
X67086171Y-39224055D01*
X67084500Y-39231738D01*
X67084500Y-41500074D01*
X66576500Y-41500074D01*
X66576500Y-39236305D01*
X66572025Y-39221066D01*
X66570635Y-39219861D01*
X66562952Y-39218190D01*
X66044616Y-39218190D01*
X66029377Y-39222665D01*
X66028172Y-39224055D01*
X66026501Y-39231738D01*
X66026501Y-41283018D01*
X60523000Y-41283018D01*
X60522999Y-38692075D01*
X66026500Y-38692075D01*
X66030975Y-38707314D01*
X66032365Y-38708519D01*
X66040048Y-38710190D01*
X66558385Y-38710190D01*
X66573624Y-38705715D01*
X66574829Y-38704325D01*
X66576500Y-38696642D01*
X66576500Y-38692075D01*
X67084500Y-38692075D01*
X67088975Y-38707314D01*
X67090365Y-38708519D01*
X67098048Y-38710190D01*
X67616384Y-38710190D01*
X67631623Y-38705715D01*
X67632828Y-38704325D01*
X67634499Y-38696642D01*
X67634499Y-36645362D01*
X67633291Y-36633102D01*
X67622185Y-36577259D01*
X67612867Y-36554763D01*
X67570517Y-36491382D01*
X67553308Y-36474173D01*
X67489925Y-36431822D01*
X67467434Y-36422506D01*
X67411585Y-36411397D01*
X67399330Y-36410190D01*
X67102615Y-36410190D01*
X67087376Y-36414665D01*
X67086171Y-36416055D01*
X67084500Y-36423738D01*
X67084500Y-38692075D01*
X66576500Y-38692075D01*
X66576500Y-36428306D01*
X66572025Y-36413067D01*
X66570635Y-36411862D01*
X66562952Y-36410191D01*
X66261672Y-36410191D01*
X66249412Y-36411399D01*
X66193569Y-36422505D01*
X66171073Y-36431823D01*
X66107692Y-36474173D01*
X66090483Y-36491382D01*
X66048132Y-36554765D01*
X66038816Y-36577256D01*
X66027707Y-36633105D01*
X66026500Y-36645360D01*
X66026500Y-38692075D01*
X60522999Y-38692075D01*
X60522999Y-36639124D01*
X60515888Y-36603372D01*
X60510656Y-36577064D01*
X60510655Y-36577062D01*
X60508234Y-36564889D01*
X60451984Y-36480706D01*
X60367801Y-36424456D01*
X60293567Y-36409690D01*
X59718593Y-36409690D01*
X59143434Y-36409691D01*
X59110854Y-36416171D01*
X59081374Y-36422034D01*
X59081372Y-36422035D01*
X59069199Y-36424456D01*
X59058879Y-36431351D01*
X59058878Y-36431352D01*
X58998485Y-36471706D01*
X58985016Y-36480706D01*
X58928766Y-36564889D01*
X58914000Y-36639123D01*
X55441884Y-36639123D01*
X55441291Y-36633102D01*
X55430185Y-36577259D01*
X55420867Y-36554763D01*
X55378517Y-36491382D01*
X55361308Y-36474173D01*
X55297925Y-36431822D01*
X55275434Y-36422506D01*
X55219585Y-36411397D01*
X55207330Y-36410190D01*
X54910615Y-36410190D01*
X54895376Y-36414665D01*
X54894171Y-36416055D01*
X54892500Y-36423738D01*
X54892500Y-38692075D01*
X54384500Y-38692075D01*
X54384500Y-36428306D01*
X54380025Y-36413067D01*
X54378635Y-36411862D01*
X54370952Y-36410191D01*
X54069672Y-36410191D01*
X54057412Y-36411399D01*
X54001569Y-36422505D01*
X53979073Y-36431823D01*
X53915692Y-36474173D01*
X53898483Y-36491382D01*
X53856132Y-36554765D01*
X53846816Y-36577256D01*
X53835707Y-36633105D01*
X53834500Y-36645360D01*
X53834500Y-38692075D01*
X48330999Y-38692075D01*
X48330999Y-36639124D01*
X48323888Y-36603372D01*
X48318656Y-36577064D01*
X48318655Y-36577062D01*
X48316234Y-36564889D01*
X48259984Y-36480706D01*
X48175801Y-36424456D01*
X48101567Y-36409690D01*
X47526593Y-36409690D01*
X46951434Y-36409691D01*
X46918854Y-36416171D01*
X46889374Y-36422034D01*
X46889372Y-36422035D01*
X46877199Y-36424456D01*
X46866879Y-36431351D01*
X46866878Y-36431352D01*
X46806485Y-36471706D01*
X46793016Y-36480706D01*
X46736766Y-36564889D01*
X46722000Y-36639123D01*
X43249884Y-36639123D01*
X43249291Y-36633102D01*
X43238185Y-36577259D01*
X43228867Y-36554763D01*
X43186517Y-36491382D01*
X43169308Y-36474173D01*
X43105925Y-36431822D01*
X43083434Y-36422506D01*
X43027585Y-36411397D01*
X43015330Y-36410190D01*
X42718615Y-36410190D01*
X42703376Y-36414665D01*
X42702171Y-36416055D01*
X42700500Y-36423738D01*
X42700500Y-38692075D01*
X42192500Y-38692075D01*
X42192500Y-36428306D01*
X42188025Y-36413067D01*
X42186635Y-36411862D01*
X42178952Y-36410191D01*
X41877672Y-36410191D01*
X41865412Y-36411399D01*
X41809569Y-36422505D01*
X41787073Y-36431823D01*
X41723692Y-36474173D01*
X41706483Y-36491382D01*
X41664132Y-36554765D01*
X41654816Y-36577256D01*
X41643707Y-36633105D01*
X41642500Y-36645360D01*
X41642500Y-38692075D01*
X38868500Y-38692075D01*
X38868500Y-36721527D01*
X38870921Y-36696945D01*
X38871065Y-36696221D01*
X38873486Y-36684051D01*
X38871065Y-36671879D01*
X38871065Y-36659471D01*
X38871385Y-36659471D01*
X38870645Y-36648595D01*
X38884704Y-36416171D01*
X38886538Y-36401067D01*
X38933538Y-36144593D01*
X38937179Y-36129820D01*
X38958553Y-36061229D01*
X39014755Y-35880870D01*
X39020149Y-35866648D01*
X39068317Y-35759625D01*
X39127162Y-35628877D01*
X39134231Y-35615407D01*
X39269128Y-35392260D01*
X39277771Y-35379738D01*
X39438582Y-35174478D01*
X39448672Y-35163090D01*
X39633043Y-34978719D01*
X39644432Y-34968629D01*
X39849687Y-34807823D01*
X39862208Y-34799180D01*
X40085354Y-34664282D01*
X40098827Y-34657211D01*
X40336601Y-34550197D01*
X40350819Y-34544805D01*
X40599768Y-34467230D01*
X40614542Y-34463589D01*
X40871016Y-34416588D01*
X40886120Y-34414754D01*
X41022744Y-34406490D01*
X41118540Y-34400695D01*
X41129419Y-34401436D01*
X41129419Y-34401116D01*
X41141829Y-34401116D01*
X41154000Y-34403537D01*
X41166897Y-34400972D01*
X41191476Y-34398551D01*
X73120524Y-34398551D01*
X73145103Y-34400972D01*
G37*
G04 #@! TD.AperFunction*
G04 #@! TA.AperFunction,Conductor*
G36*
X50015621Y-71679502D02*
G01*
X50062114Y-71733158D01*
X50073500Y-71785500D01*
X50073501Y-72380066D01*
X50085234Y-72439056D01*
X50088266Y-72454301D01*
X50084066Y-72455136D01*
X50089157Y-72502324D01*
X50088172Y-72505680D01*
X50088266Y-72505699D01*
X50073500Y-72579933D01*
X50073501Y-73180066D01*
X50088266Y-73254301D01*
X50084066Y-73255136D01*
X50089157Y-73302324D01*
X50088172Y-73305680D01*
X50088266Y-73305699D01*
X50073500Y-73379933D01*
X50073501Y-73980066D01*
X50076686Y-73996077D01*
X50088266Y-74054301D01*
X50084066Y-74055136D01*
X50089157Y-74102324D01*
X50088172Y-74105680D01*
X50088266Y-74105699D01*
X50073500Y-74179933D01*
X50073501Y-74780066D01*
X50084659Y-74836165D01*
X50088266Y-74854301D01*
X50084066Y-74855136D01*
X50089157Y-74902324D01*
X50088172Y-74905680D01*
X50088266Y-74905699D01*
X50073500Y-74979933D01*
X50073501Y-75580066D01*
X50080612Y-75615818D01*
X50085007Y-75637913D01*
X50088266Y-75654301D01*
X50095161Y-75664620D01*
X50095162Y-75664622D01*
X50112292Y-75690258D01*
X50144516Y-75738484D01*
X50228699Y-75794734D01*
X50302933Y-75809500D01*
X50580716Y-75809500D01*
X51922500Y-75809499D01*
X51990621Y-75829501D01*
X52037114Y-75883157D01*
X52048500Y-75935499D01*
X52048501Y-77555066D01*
X52055543Y-77590473D01*
X52058578Y-77605729D01*
X52063266Y-77629301D01*
X52070161Y-77639620D01*
X52070162Y-77639622D01*
X52084709Y-77661393D01*
X52119516Y-77713484D01*
X52203699Y-77769734D01*
X52277933Y-77784500D01*
X52307343Y-77784500D01*
X52758005Y-77784499D01*
X52826125Y-77804501D01*
X52872618Y-77858156D01*
X52882722Y-77928430D01*
X52853229Y-77993011D01*
X52802234Y-78028481D01*
X52709205Y-78063356D01*
X52709202Y-78063357D01*
X52700801Y-78066507D01*
X52588026Y-78151026D01*
X52551494Y-78199772D01*
X52527638Y-78231603D01*
X52470779Y-78274119D01*
X52399960Y-78279145D01*
X52364553Y-78262709D01*
X52363345Y-78264801D01*
X52356197Y-78260674D01*
X52349643Y-78255645D01*
X52232779Y-78207238D01*
X52222383Y-78202932D01*
X52214754Y-78199772D01*
X52203133Y-78198242D01*
X52078188Y-78181793D01*
X52070000Y-78180715D01*
X52061812Y-78181793D01*
X51933432Y-78198694D01*
X51933430Y-78198695D01*
X51925246Y-78199772D01*
X51911700Y-78205383D01*
X51797986Y-78252485D01*
X51797984Y-78252486D01*
X51790358Y-78255645D01*
X51674526Y-78344526D01*
X51585645Y-78460358D01*
X51582486Y-78467984D01*
X51582485Y-78467986D01*
X51570307Y-78497386D01*
X51529772Y-78595246D01*
X51510715Y-78740000D01*
X51511793Y-78748188D01*
X51526244Y-78857954D01*
X51529772Y-78884754D01*
X51532931Y-78892380D01*
X51575024Y-78994000D01*
X51585645Y-79019642D01*
X51626316Y-79072645D01*
X51655964Y-79111283D01*
X51674526Y-79135474D01*
X51681076Y-79140500D01*
X51681079Y-79140503D01*
X51779728Y-79216199D01*
X51790357Y-79224355D01*
X51925246Y-79280228D01*
X52070000Y-79299285D01*
X52078188Y-79298207D01*
X52206566Y-79281306D01*
X52214754Y-79280228D01*
X52349643Y-79224355D01*
X52356197Y-79219326D01*
X52363345Y-79215199D01*
X52365082Y-79218208D01*
X52416334Y-79198397D01*
X52485882Y-79212666D01*
X52527637Y-79248396D01*
X52588026Y-79328974D01*
X52595206Y-79334355D01*
X52651672Y-79376673D01*
X52694188Y-79433532D01*
X52699214Y-79504350D01*
X52665155Y-79566644D01*
X52602824Y-79600635D01*
X52576108Y-79603500D01*
X51287186Y-79603500D01*
X51283668Y-79603451D01*
X51203413Y-79601209D01*
X51203410Y-79601209D01*
X51197031Y-79601031D01*
X51190741Y-79602140D01*
X51190742Y-79602140D01*
X51137367Y-79611551D01*
X51128222Y-79612820D01*
X51078947Y-79617825D01*
X51067954Y-79618942D01*
X51061866Y-79620850D01*
X51061865Y-79620850D01*
X51040338Y-79627596D01*
X51024541Y-79631446D01*
X50996062Y-79636468D01*
X50939734Y-79658770D01*
X50931032Y-79661851D01*
X50873223Y-79679967D01*
X50847916Y-79693995D01*
X50833234Y-79700936D01*
X50806324Y-79711590D01*
X50800980Y-79715087D01*
X50800978Y-79715088D01*
X50755634Y-79744760D01*
X50747729Y-79749528D01*
X50700321Y-79775807D01*
X50700311Y-79775814D01*
X50694740Y-79778902D01*
X50689905Y-79783046D01*
X50689895Y-79783053D01*
X50672775Y-79797727D01*
X50659773Y-79807490D01*
X50639615Y-79820681D01*
X50639612Y-79820683D01*
X50635566Y-79823331D01*
X50630581Y-79827819D01*
X50591506Y-79866894D01*
X50584409Y-79873467D01*
X50539796Y-79911705D01*
X50520795Y-79936201D01*
X50510330Y-79948070D01*
X47567195Y-82891206D01*
X47564673Y-82893660D01*
X47501677Y-82953232D01*
X47498019Y-82958457D01*
X47498015Y-82958461D01*
X47466922Y-83002868D01*
X47461370Y-83010209D01*
X47423071Y-83057168D01*
X47409665Y-83082810D01*
X47401222Y-83096697D01*
X47384628Y-83120396D01*
X47382095Y-83126250D01*
X47382093Y-83126253D01*
X47360568Y-83175995D01*
X47356603Y-83184310D01*
X47328526Y-83238015D01*
X47326769Y-83244142D01*
X47326767Y-83244147D01*
X47320552Y-83265822D01*
X47315070Y-83281131D01*
X47306119Y-83301816D01*
X47306116Y-83301824D01*
X47303582Y-83307681D01*
X47292099Y-83362651D01*
X47291195Y-83366976D01*
X47288981Y-83375926D01*
X47272277Y-83434179D01*
X47270919Y-83451822D01*
X47270057Y-83463025D01*
X47267766Y-83479121D01*
X47261851Y-83507438D01*
X47261500Y-83514136D01*
X47261500Y-83569394D01*
X47261129Y-83579061D01*
X47257724Y-83623318D01*
X47256621Y-83637647D01*
X47257421Y-83643979D01*
X47260506Y-83668400D01*
X47261500Y-83684192D01*
X47261500Y-84177814D01*
X47247007Y-84236483D01*
X47241203Y-84247515D01*
X47238694Y-84255595D01*
X47237505Y-84259425D01*
X47206268Y-84311154D01*
X44945002Y-86572421D01*
X43296783Y-88220640D01*
X43234471Y-88254666D01*
X43163656Y-88249601D01*
X43106820Y-88207054D01*
X43082009Y-88140534D01*
X43097754Y-88069979D01*
X43180510Y-87922208D01*
X43180511Y-87922206D01*
X43183334Y-87917165D01*
X43185190Y-87911698D01*
X43185192Y-87911693D01*
X43246728Y-87730414D01*
X43246729Y-87730409D01*
X43248584Y-87724945D01*
X43249412Y-87719236D01*
X43249413Y-87719231D01*
X43274376Y-87547059D01*
X43277712Y-87524053D01*
X43279232Y-87466000D01*
X43266370Y-87326024D01*
X43261187Y-87269613D01*
X43261186Y-87269610D01*
X43260658Y-87263859D01*
X43259090Y-87258299D01*
X43207127Y-87074053D01*
X43207126Y-87074051D01*
X43205557Y-87068487D01*
X43206058Y-87068346D01*
X43200618Y-87001289D01*
X43234894Y-86937800D01*
X45956216Y-84216478D01*
X45974964Y-84201336D01*
X45976189Y-84200221D01*
X45984940Y-84194571D01*
X45991387Y-84186393D01*
X45991389Y-84186391D01*
X46005729Y-84168200D01*
X46009678Y-84163756D01*
X46009604Y-84163694D01*
X46012957Y-84159737D01*
X46016638Y-84156056D01*
X46027865Y-84140346D01*
X46031421Y-84135609D01*
X46034110Y-84132199D01*
X46063156Y-84095353D01*
X46066189Y-84086716D01*
X46071513Y-84079266D01*
X46086202Y-84030151D01*
X46088034Y-84024514D01*
X46102390Y-83983633D01*
X46102390Y-83983632D01*
X46105018Y-83976149D01*
X46105500Y-83970584D01*
X46105500Y-83967876D01*
X46105614Y-83965242D01*
X46105643Y-83965144D01*
X46105807Y-83965151D01*
X46105851Y-83964447D01*
X46107713Y-83958222D01*
X46105597Y-83904365D01*
X46105500Y-83899418D01*
X46105500Y-72339384D01*
X46125502Y-72271263D01*
X46142405Y-72250289D01*
X46696289Y-71696405D01*
X46758601Y-71662379D01*
X46785384Y-71659500D01*
X49947500Y-71659500D01*
X50015621Y-71679502D01*
G37*
G04 #@! TD.AperFunction*
M02*
