G04 #@! TF.GenerationSoftware,KiCad,Pcbnew,(6.0.10)*
G04 #@! TF.CreationDate,2023-05-29T16:45:33+02:00*
G04 #@! TF.ProjectId,BlinkStickAdvanced,426c696e-6b53-4746-9963-6b416476616e,1.0*
G04 #@! TF.SameCoordinates,Original*
G04 #@! TF.FileFunction,Legend,Top*
G04 #@! TF.FilePolarity,Positive*
%FSLAX46Y46*%
G04 Gerber Fmt 4.6, Leading zero omitted, Abs format (unit mm)*
G04 Created by KiCad (PCBNEW (6.0.10)) date 2023-05-29 16:45:33*
%MOMM*%
%LPD*%
G01*
G04 APERTURE LIST*
G04 Aperture macros list*
%AMRoundRect*
0 Rectangle with rounded corners*
0 $1 Rounding radius*
0 $2 $3 $4 $5 $6 $7 $8 $9 X,Y pos of 4 corners*
0 Add a 4 corners polygon primitive as box body*
4,1,4,$2,$3,$4,$5,$6,$7,$8,$9,$2,$3,0*
0 Add four circle primitives for the rounded corners*
1,1,$1+$1,$2,$3*
1,1,$1+$1,$4,$5*
1,1,$1+$1,$6,$7*
1,1,$1+$1,$8,$9*
0 Add four rect primitives between the rounded corners*
20,1,$1+$1,$2,$3,$4,$5,0*
20,1,$1+$1,$4,$5,$6,$7,0*
20,1,$1+$1,$6,$7,$8,$9,0*
20,1,$1+$1,$8,$9,$2,$3,0*%
%AMFreePoly0*
4,1,6,1.000000,0.000000,0.500000,-0.750000,-0.500000,-0.750000,-0.500000,0.750000,0.500000,0.750000,1.000000,0.000000,1.000000,0.000000,$1*%
%AMFreePoly1*
4,1,6,0.500000,-0.750000,-0.650000,-0.750000,-0.150000,0.000000,-0.650000,0.750000,0.500000,0.750000,0.500000,-0.750000,0.500000,-0.750000,$1*%
G04 Aperture macros list end*
%ADD10C,0.120000*%
%ADD11C,0.150000*%
%ADD12R,0.450000X0.600000*%
%ADD13R,1.700000X1.700000*%
%ADD14O,1.700000X1.700000*%
%ADD15R,2.200000X2.200000*%
%ADD16C,2.200000*%
%ADD17R,0.400000X1.350000*%
%ADD18C,1.450000*%
%ADD19R,1.500000X1.900000*%
%ADD20O,1.200000X1.900000*%
%ADD21R,1.200000X1.900000*%
%ADD22RoundRect,0.237500X-0.250000X-0.237500X0.250000X-0.237500X0.250000X0.237500X-0.250000X0.237500X0*%
%ADD23C,4.700000*%
%ADD24RoundRect,0.237500X-0.237500X0.300000X-0.237500X-0.300000X0.237500X-0.300000X0.237500X0.300000X0*%
%ADD25RoundRect,0.237500X0.250000X0.237500X-0.250000X0.237500X-0.250000X-0.237500X0.250000X-0.237500X0*%
%ADD26R,1.100000X4.600000*%
%ADD27R,10.800000X9.400000*%
%ADD28RoundRect,0.237500X0.237500X-0.250000X0.237500X0.250000X-0.237500X0.250000X-0.237500X-0.250000X0*%
%ADD29RoundRect,0.237500X-0.237500X0.250000X-0.237500X-0.250000X0.237500X-0.250000X0.237500X0.250000X0*%
%ADD30R,0.400000X1.900000*%
%ADD31FreePoly0,0.000000*%
%ADD32FreePoly1,0.000000*%
%ADD33R,0.550000X1.600000*%
%ADD34R,1.600000X0.550000*%
%ADD35RoundRect,0.237500X0.237500X-0.300000X0.237500X0.300000X-0.237500X0.300000X-0.237500X-0.300000X0*%
%ADD36RoundRect,0.237500X0.300000X0.237500X-0.300000X0.237500X-0.300000X-0.237500X0.300000X-0.237500X0*%
%ADD37C,1.400000*%
%ADD38R,0.600000X0.450000*%
G04 APERTURE END LIST*
D10*
X70618000Y-57604000D02*
X70618000Y-56334000D01*
X70618000Y-70748500D02*
X70618000Y-69478500D01*
X73158000Y-88736000D02*
X73158000Y-91336000D01*
X43500000Y-76925000D02*
X43500000Y-75655000D01*
X73278000Y-68148500D02*
X73278000Y-70748500D01*
X73278000Y-55004000D02*
X73278000Y-57604000D01*
X43500000Y-63844000D02*
X43500000Y-62574000D01*
X70498000Y-90006000D02*
X70498000Y-88736000D01*
X42170000Y-91336000D02*
X40840000Y-91336000D01*
X42170000Y-65174000D02*
X40840000Y-65174000D01*
X40840000Y-88736000D02*
X40840000Y-91336000D01*
X40840000Y-62574000D02*
X40840000Y-65174000D01*
X73278000Y-68148500D02*
X71948000Y-68148500D01*
X40840000Y-78255000D02*
X42170000Y-78255000D01*
X40840000Y-78255000D02*
X40840000Y-75655000D01*
X43500000Y-90006000D02*
X43500000Y-88736000D01*
X73278000Y-55004000D02*
X71948000Y-55004000D01*
X73158000Y-91336000D02*
X71828000Y-91336000D01*
D11*
X69673428Y-70811833D02*
X69673428Y-70049928D01*
X70054380Y-70430880D02*
X69292476Y-70430880D01*
X70054380Y-69049928D02*
X70054380Y-69621357D01*
X70054380Y-69335642D02*
X69054380Y-69335642D01*
X69197238Y-69430880D01*
X69292476Y-69526119D01*
X69340095Y-69621357D01*
X69149619Y-68668976D02*
X69102000Y-68621357D01*
X69054380Y-68526119D01*
X69054380Y-68288023D01*
X69102000Y-68192785D01*
X69149619Y-68145166D01*
X69244857Y-68097547D01*
X69340095Y-68097547D01*
X69482952Y-68145166D01*
X70054380Y-68716595D01*
X70054380Y-68097547D01*
X44829047Y-81909809D02*
X44829047Y-82862190D01*
X44543333Y-82100285D02*
X44543333Y-82671714D01*
X45257619Y-82386000D02*
X44829047Y-82386000D01*
X44257619Y-82481238D02*
X44257619Y-82290761D01*
X74880380Y-63962571D02*
X74404190Y-64295904D01*
X74880380Y-64534000D02*
X73880380Y-64534000D01*
X73880380Y-64153047D01*
X73928000Y-64057809D01*
X73975619Y-64010190D01*
X74070857Y-63962571D01*
X74213714Y-63962571D01*
X74308952Y-64010190D01*
X74356571Y-64057809D01*
X74404190Y-64153047D01*
X74404190Y-64534000D01*
X73928000Y-63010190D02*
X73880380Y-63105428D01*
X73880380Y-63248285D01*
X73928000Y-63391142D01*
X74023238Y-63486380D01*
X74118476Y-63534000D01*
X74308952Y-63581619D01*
X74451809Y-63581619D01*
X74642285Y-63534000D01*
X74737523Y-63486380D01*
X74832761Y-63391142D01*
X74880380Y-63248285D01*
X74880380Y-63153047D01*
X74832761Y-63010190D01*
X74785142Y-62962571D01*
X74451809Y-62962571D01*
X74451809Y-63153047D01*
X74356571Y-62200666D02*
X74404190Y-62057809D01*
X74451809Y-62010190D01*
X74547047Y-61962571D01*
X74689904Y-61962571D01*
X74785142Y-62010190D01*
X74832761Y-62057809D01*
X74880380Y-62153047D01*
X74880380Y-62534000D01*
X73880380Y-62534000D01*
X73880380Y-62200666D01*
X73928000Y-62105428D01*
X73975619Y-62057809D01*
X74070857Y-62010190D01*
X74166095Y-62010190D01*
X74261333Y-62057809D01*
X74308952Y-62105428D01*
X74356571Y-62200666D01*
X74356571Y-62534000D01*
X74880380Y-60772095D02*
X73880380Y-60772095D01*
X74356571Y-60772095D02*
X74356571Y-60200666D01*
X74880380Y-60200666D02*
X73880380Y-60200666D01*
X74356571Y-59724476D02*
X74356571Y-59391142D01*
X74880380Y-59248285D02*
X74880380Y-59724476D01*
X73880380Y-59724476D01*
X73880380Y-59248285D01*
X74594666Y-58867333D02*
X74594666Y-58391142D01*
X74880380Y-58962571D02*
X73880380Y-58629238D01*
X74880380Y-58295904D01*
X74880380Y-57962571D02*
X73880380Y-57962571D01*
X73880380Y-57724476D01*
X73928000Y-57581619D01*
X74023238Y-57486380D01*
X74118476Y-57438761D01*
X74308952Y-57391142D01*
X74451809Y-57391142D01*
X74642285Y-57438761D01*
X74737523Y-57486380D01*
X74832761Y-57581619D01*
X74880380Y-57724476D01*
X74880380Y-57962571D01*
X74356571Y-56962571D02*
X74356571Y-56629238D01*
X74880380Y-56486380D02*
X74880380Y-56962571D01*
X73880380Y-56962571D01*
X73880380Y-56486380D01*
X74880380Y-55486380D02*
X74404190Y-55819714D01*
X74880380Y-56057809D02*
X73880380Y-56057809D01*
X73880380Y-55676857D01*
X73928000Y-55581619D01*
X73975619Y-55534000D01*
X74070857Y-55486380D01*
X74213714Y-55486380D01*
X74308952Y-55534000D01*
X74356571Y-55581619D01*
X74404190Y-55676857D01*
X74404190Y-56057809D01*
X44257619Y-60905000D02*
X45257619Y-60905000D01*
X45257619Y-61143095D01*
X45210000Y-61285952D01*
X45114761Y-61381190D01*
X45019523Y-61428809D01*
X44829047Y-61476428D01*
X44686190Y-61476428D01*
X44495714Y-61428809D01*
X44400476Y-61381190D01*
X44305238Y-61285952D01*
X44257619Y-61143095D01*
X44257619Y-60905000D01*
X44257619Y-61905000D02*
X45257619Y-61905000D01*
X70105180Y-61096076D02*
X69628990Y-61429409D01*
X70105180Y-61667504D02*
X69105180Y-61667504D01*
X69105180Y-61286552D01*
X69152800Y-61191314D01*
X69200419Y-61143695D01*
X69295657Y-61096076D01*
X69438514Y-61096076D01*
X69533752Y-61143695D01*
X69581371Y-61191314D01*
X69628990Y-61286552D01*
X69628990Y-61667504D01*
X46934761Y-82875380D02*
X46458571Y-82875380D01*
X46458571Y-81875380D01*
X47268095Y-82351571D02*
X47601428Y-82351571D01*
X47744285Y-82875380D02*
X47268095Y-82875380D01*
X47268095Y-81875380D01*
X47744285Y-81875380D01*
X48172857Y-82875380D02*
X48172857Y-81875380D01*
X48410952Y-81875380D01*
X48553809Y-81923000D01*
X48649047Y-82018238D01*
X48696666Y-82113476D01*
X48744285Y-82303952D01*
X48744285Y-82446809D01*
X48696666Y-82637285D01*
X48649047Y-82732523D01*
X48553809Y-82827761D01*
X48410952Y-82875380D01*
X48172857Y-82875380D01*
X49934761Y-82875380D02*
X49934761Y-81875380D01*
X50315714Y-81875380D01*
X50410952Y-81923000D01*
X50458571Y-81970619D01*
X50506190Y-82065857D01*
X50506190Y-82208714D01*
X50458571Y-82303952D01*
X50410952Y-82351571D01*
X50315714Y-82399190D01*
X49934761Y-82399190D01*
X50839523Y-81875380D02*
X51077619Y-82875380D01*
X51268095Y-82161095D01*
X51458571Y-82875380D01*
X51696666Y-81875380D01*
X52649047Y-82875380D02*
X52315714Y-82399190D01*
X52077619Y-82875380D02*
X52077619Y-81875380D01*
X52458571Y-81875380D01*
X52553809Y-81923000D01*
X52601428Y-81970619D01*
X52649047Y-82065857D01*
X52649047Y-82208714D01*
X52601428Y-82303952D01*
X52553809Y-82351571D01*
X52458571Y-82399190D01*
X52077619Y-82399190D01*
X62623571Y-78071071D02*
X62671190Y-77928214D01*
X62718809Y-77880595D01*
X62814047Y-77832976D01*
X62956904Y-77832976D01*
X63052142Y-77880595D01*
X63099761Y-77928214D01*
X63147380Y-78023452D01*
X63147380Y-78404404D01*
X62147380Y-78404404D01*
X62147380Y-78071071D01*
X62195000Y-77975833D01*
X62242619Y-77928214D01*
X62337857Y-77880595D01*
X62433095Y-77880595D01*
X62528333Y-77928214D01*
X62575952Y-77975833D01*
X62623571Y-78071071D01*
X62623571Y-78404404D01*
X63147380Y-77261547D02*
X63099761Y-77356785D01*
X63004523Y-77404404D01*
X62147380Y-77404404D01*
X63147380Y-76880595D02*
X62480714Y-76880595D01*
X62147380Y-76880595D02*
X62195000Y-76928214D01*
X62242619Y-76880595D01*
X62195000Y-76832976D01*
X62147380Y-76880595D01*
X62242619Y-76880595D01*
X62480714Y-76404404D02*
X63147380Y-76404404D01*
X62575952Y-76404404D02*
X62528333Y-76356785D01*
X62480714Y-76261547D01*
X62480714Y-76118690D01*
X62528333Y-76023452D01*
X62623571Y-75975833D01*
X63147380Y-75975833D01*
X63147380Y-75499642D02*
X62147380Y-75499642D01*
X62766428Y-75404404D02*
X63147380Y-75118690D01*
X62480714Y-75118690D02*
X62861666Y-75499642D01*
X63099761Y-74737738D02*
X63147380Y-74594880D01*
X63147380Y-74356785D01*
X63099761Y-74261547D01*
X63052142Y-74213928D01*
X62956904Y-74166309D01*
X62861666Y-74166309D01*
X62766428Y-74213928D01*
X62718809Y-74261547D01*
X62671190Y-74356785D01*
X62623571Y-74547261D01*
X62575952Y-74642500D01*
X62528333Y-74690119D01*
X62433095Y-74737738D01*
X62337857Y-74737738D01*
X62242619Y-74690119D01*
X62195000Y-74642500D01*
X62147380Y-74547261D01*
X62147380Y-74309166D01*
X62195000Y-74166309D01*
X62480714Y-73880595D02*
X62480714Y-73499642D01*
X62147380Y-73737738D02*
X63004523Y-73737738D01*
X63099761Y-73690119D01*
X63147380Y-73594880D01*
X63147380Y-73499642D01*
X63147380Y-73166309D02*
X62480714Y-73166309D01*
X62147380Y-73166309D02*
X62195000Y-73213928D01*
X62242619Y-73166309D01*
X62195000Y-73118690D01*
X62147380Y-73166309D01*
X62242619Y-73166309D01*
X63099761Y-72261547D02*
X63147380Y-72356785D01*
X63147380Y-72547261D01*
X63099761Y-72642500D01*
X63052142Y-72690119D01*
X62956904Y-72737738D01*
X62671190Y-72737738D01*
X62575952Y-72690119D01*
X62528333Y-72642500D01*
X62480714Y-72547261D01*
X62480714Y-72356785D01*
X62528333Y-72261547D01*
X63147380Y-71832976D02*
X62147380Y-71832976D01*
X62766428Y-71737738D02*
X63147380Y-71452023D01*
X62480714Y-71452023D02*
X62861666Y-71832976D01*
X62861666Y-70309166D02*
X62861666Y-69832976D01*
X63147380Y-70404404D02*
X62147380Y-70071071D01*
X63147380Y-69737738D01*
X63147380Y-68975833D02*
X62147380Y-68975833D01*
X63099761Y-68975833D02*
X63147380Y-69071071D01*
X63147380Y-69261547D01*
X63099761Y-69356785D01*
X63052142Y-69404404D01*
X62956904Y-69452023D01*
X62671190Y-69452023D01*
X62575952Y-69404404D01*
X62528333Y-69356785D01*
X62480714Y-69261547D01*
X62480714Y-69071071D01*
X62528333Y-68975833D01*
X62480714Y-68594880D02*
X63147380Y-68356785D01*
X62480714Y-68118690D01*
X63147380Y-67309166D02*
X62623571Y-67309166D01*
X62528333Y-67356785D01*
X62480714Y-67452023D01*
X62480714Y-67642500D01*
X62528333Y-67737738D01*
X63099761Y-67309166D02*
X63147380Y-67404404D01*
X63147380Y-67642500D01*
X63099761Y-67737738D01*
X63004523Y-67785357D01*
X62909285Y-67785357D01*
X62814047Y-67737738D01*
X62766428Y-67642500D01*
X62766428Y-67404404D01*
X62718809Y-67309166D01*
X62480714Y-66832976D02*
X63147380Y-66832976D01*
X62575952Y-66832976D02*
X62528333Y-66785357D01*
X62480714Y-66690119D01*
X62480714Y-66547261D01*
X62528333Y-66452023D01*
X62623571Y-66404404D01*
X63147380Y-66404404D01*
X63099761Y-65499642D02*
X63147380Y-65594880D01*
X63147380Y-65785357D01*
X63099761Y-65880595D01*
X63052142Y-65928214D01*
X62956904Y-65975833D01*
X62671190Y-65975833D01*
X62575952Y-65928214D01*
X62528333Y-65880595D01*
X62480714Y-65785357D01*
X62480714Y-65594880D01*
X62528333Y-65499642D01*
X63099761Y-64690119D02*
X63147380Y-64785357D01*
X63147380Y-64975833D01*
X63099761Y-65071071D01*
X63004523Y-65118690D01*
X62623571Y-65118690D01*
X62528333Y-65071071D01*
X62480714Y-64975833D01*
X62480714Y-64785357D01*
X62528333Y-64690119D01*
X62623571Y-64642500D01*
X62718809Y-64642500D01*
X62814047Y-65118690D01*
X63147380Y-63785357D02*
X62147380Y-63785357D01*
X63099761Y-63785357D02*
X63147380Y-63880595D01*
X63147380Y-64071071D01*
X63099761Y-64166309D01*
X63052142Y-64213928D01*
X62956904Y-64261547D01*
X62671190Y-64261547D01*
X62575952Y-64213928D01*
X62528333Y-64166309D01*
X62480714Y-64071071D01*
X62480714Y-63880595D01*
X62528333Y-63785357D01*
X64757380Y-77832976D02*
X64281190Y-78166309D01*
X64757380Y-78404404D02*
X63757380Y-78404404D01*
X63757380Y-78023452D01*
X63805000Y-77928214D01*
X63852619Y-77880595D01*
X63947857Y-77832976D01*
X64090714Y-77832976D01*
X64185952Y-77880595D01*
X64233571Y-77928214D01*
X64281190Y-78023452D01*
X64281190Y-78404404D01*
X64709761Y-77023452D02*
X64757380Y-77118690D01*
X64757380Y-77309166D01*
X64709761Y-77404404D01*
X64614523Y-77452023D01*
X64233571Y-77452023D01*
X64138333Y-77404404D01*
X64090714Y-77309166D01*
X64090714Y-77118690D01*
X64138333Y-77023452D01*
X64233571Y-76975833D01*
X64328809Y-76975833D01*
X64424047Y-77452023D01*
X64090714Y-76642500D02*
X64757380Y-76404404D01*
X64090714Y-76166309D01*
X64757380Y-74499642D02*
X64757380Y-75071071D01*
X64757380Y-74785357D02*
X63757380Y-74785357D01*
X63900238Y-74880595D01*
X63995476Y-74975833D01*
X64043095Y-75071071D01*
X64662142Y-74071071D02*
X64709761Y-74023452D01*
X64757380Y-74071071D01*
X64709761Y-74118690D01*
X64662142Y-74071071D01*
X64757380Y-74071071D01*
X63757380Y-73404404D02*
X63757380Y-73309166D01*
X63805000Y-73213928D01*
X63852619Y-73166309D01*
X63947857Y-73118690D01*
X64138333Y-73071071D01*
X64376428Y-73071071D01*
X64566904Y-73118690D01*
X64662142Y-73166309D01*
X64709761Y-73213928D01*
X64757380Y-73309166D01*
X64757380Y-73404404D01*
X64709761Y-73499642D01*
X64662142Y-73547261D01*
X64566904Y-73594880D01*
X64376428Y-73642500D01*
X64138333Y-73642500D01*
X63947857Y-73594880D01*
X63852619Y-73547261D01*
X63805000Y-73499642D01*
X63757380Y-73404404D01*
X39726428Y-82529333D02*
X39678809Y-82672190D01*
X39631190Y-82719809D01*
X39535952Y-82767428D01*
X39393095Y-82767428D01*
X39297857Y-82719809D01*
X39250238Y-82672190D01*
X39202619Y-82576952D01*
X39202619Y-82196000D01*
X40202619Y-82196000D01*
X40202619Y-82529333D01*
X40155000Y-82624571D01*
X40107380Y-82672190D01*
X40012142Y-82719809D01*
X39916904Y-82719809D01*
X39821666Y-82672190D01*
X39774047Y-82624571D01*
X39726428Y-82529333D01*
X39726428Y-82196000D01*
X39297857Y-84529333D02*
X39250238Y-84481714D01*
X39202619Y-84338857D01*
X39202619Y-84243619D01*
X39250238Y-84100761D01*
X39345476Y-84005523D01*
X39440714Y-83957904D01*
X39631190Y-83910285D01*
X39774047Y-83910285D01*
X39964523Y-83957904D01*
X40059761Y-84005523D01*
X40155000Y-84100761D01*
X40202619Y-84243619D01*
X40202619Y-84338857D01*
X40155000Y-84481714D01*
X40107380Y-84529333D01*
X39202619Y-84957904D02*
X40202619Y-84957904D01*
X39726428Y-84957904D02*
X39726428Y-85529333D01*
X39202619Y-85529333D02*
X40202619Y-85529333D01*
X39488333Y-85957904D02*
X39488333Y-86434095D01*
X39202619Y-85862666D02*
X40202619Y-86196000D01*
X39202619Y-86529333D01*
X39202619Y-86862666D02*
X40202619Y-86862666D01*
X39202619Y-87434095D01*
X40202619Y-87434095D01*
X39202619Y-87910285D02*
X40202619Y-87910285D01*
X39202619Y-88481714D01*
X40202619Y-88481714D01*
X39726428Y-88957904D02*
X39726428Y-89291238D01*
X39202619Y-89434095D02*
X39202619Y-88957904D01*
X40202619Y-88957904D01*
X40202619Y-89434095D01*
X39202619Y-90338857D02*
X39202619Y-89862666D01*
X40202619Y-89862666D01*
X69102000Y-71760895D02*
X69054380Y-71856133D01*
X69054380Y-71998990D01*
X69102000Y-72141847D01*
X69197238Y-72237085D01*
X69292476Y-72284704D01*
X69482952Y-72332323D01*
X69625809Y-72332323D01*
X69816285Y-72284704D01*
X69911523Y-72237085D01*
X70006761Y-72141847D01*
X70054380Y-71998990D01*
X70054380Y-71903752D01*
X70006761Y-71760895D01*
X69959142Y-71713276D01*
X69625809Y-71713276D01*
X69625809Y-71903752D01*
D10*
X74148904Y-88050219D02*
X73348904Y-88050219D01*
X73348904Y-87745457D01*
X73387000Y-87669266D01*
X73425095Y-87631171D01*
X73501285Y-87593076D01*
X73615571Y-87593076D01*
X73691761Y-87631171D01*
X73729857Y-87669266D01*
X73767952Y-87745457D01*
X73767952Y-88050219D01*
X73348904Y-87097838D02*
X73348904Y-86945457D01*
X73387000Y-86869266D01*
X73463190Y-86793076D01*
X73615571Y-86754980D01*
X73882238Y-86754980D01*
X74034619Y-86793076D01*
X74110809Y-86869266D01*
X74148904Y-86945457D01*
X74148904Y-87097838D01*
X74110809Y-87174028D01*
X74034619Y-87250219D01*
X73882238Y-87288314D01*
X73615571Y-87288314D01*
X73463190Y-87250219D01*
X73387000Y-87174028D01*
X73348904Y-87097838D01*
X73348904Y-86488314D02*
X74148904Y-86297838D01*
X73577476Y-86145457D01*
X74148904Y-85993076D01*
X73348904Y-85802600D01*
X73729857Y-85497838D02*
X73729857Y-85231171D01*
X74148904Y-85116885D02*
X74148904Y-85497838D01*
X73348904Y-85497838D01*
X73348904Y-85116885D01*
X74148904Y-84316885D02*
X73767952Y-84583552D01*
X74148904Y-84774028D02*
X73348904Y-84774028D01*
X73348904Y-84469266D01*
X73387000Y-84393076D01*
X73425095Y-84354980D01*
X73501285Y-84316885D01*
X73615571Y-84316885D01*
X73691761Y-84354980D01*
X73729857Y-84393076D01*
X73767952Y-84469266D01*
X73767952Y-84774028D01*
D11*
X44210000Y-74746380D02*
X44210000Y-73746380D01*
X44448095Y-73746380D01*
X44590952Y-73794000D01*
X44686190Y-73889238D01*
X44733809Y-73984476D01*
X44781428Y-74174952D01*
X44781428Y-74317809D01*
X44733809Y-74508285D01*
X44686190Y-74603523D01*
X44590952Y-74698761D01*
X44448095Y-74746380D01*
X44210000Y-74746380D01*
X45210000Y-74746380D02*
X45210000Y-73746380D01*
X69530571Y-76980571D02*
X69578190Y-76837714D01*
X69625809Y-76790095D01*
X69721047Y-76742476D01*
X69863904Y-76742476D01*
X69959142Y-76790095D01*
X70006761Y-76837714D01*
X70054380Y-76932952D01*
X70054380Y-77313904D01*
X69054380Y-77313904D01*
X69054380Y-76980571D01*
X69102000Y-76885333D01*
X69149619Y-76837714D01*
X69244857Y-76790095D01*
X69340095Y-76790095D01*
X69435333Y-76837714D01*
X69482952Y-76885333D01*
X69530571Y-76980571D01*
X69530571Y-77313904D01*
X70054380Y-74202476D02*
X69578190Y-74535809D01*
X70054380Y-74773904D02*
X69054380Y-74773904D01*
X69054380Y-74392952D01*
X69102000Y-74297714D01*
X69149619Y-74250095D01*
X69244857Y-74202476D01*
X69387714Y-74202476D01*
X69482952Y-74250095D01*
X69530571Y-74297714D01*
X69578190Y-74392952D01*
X69578190Y-74773904D01*
X44257619Y-86966000D02*
X45257619Y-86966000D01*
X45257619Y-87204095D01*
X45210000Y-87346952D01*
X45114761Y-87442190D01*
X45019523Y-87489809D01*
X44829047Y-87537428D01*
X44686190Y-87537428D01*
X44495714Y-87489809D01*
X44400476Y-87442190D01*
X44305238Y-87346952D01*
X44257619Y-87204095D01*
X44257619Y-86966000D01*
X44257619Y-87966000D02*
X45257619Y-87966000D01*
X74880380Y-77207071D02*
X74404190Y-77540404D01*
X74880380Y-77778500D02*
X73880380Y-77778500D01*
X73880380Y-77397547D01*
X73928000Y-77302309D01*
X73975619Y-77254690D01*
X74070857Y-77207071D01*
X74213714Y-77207071D01*
X74308952Y-77254690D01*
X74356571Y-77302309D01*
X74404190Y-77397547D01*
X74404190Y-77778500D01*
X73928000Y-76254690D02*
X73880380Y-76349928D01*
X73880380Y-76492785D01*
X73928000Y-76635642D01*
X74023238Y-76730880D01*
X74118476Y-76778500D01*
X74308952Y-76826119D01*
X74451809Y-76826119D01*
X74642285Y-76778500D01*
X74737523Y-76730880D01*
X74832761Y-76635642D01*
X74880380Y-76492785D01*
X74880380Y-76397547D01*
X74832761Y-76254690D01*
X74785142Y-76207071D01*
X74451809Y-76207071D01*
X74451809Y-76397547D01*
X74356571Y-75445166D02*
X74404190Y-75302309D01*
X74451809Y-75254690D01*
X74547047Y-75207071D01*
X74689904Y-75207071D01*
X74785142Y-75254690D01*
X74832761Y-75302309D01*
X74880380Y-75397547D01*
X74880380Y-75778500D01*
X73880380Y-75778500D01*
X73880380Y-75445166D01*
X73928000Y-75349928D01*
X73975619Y-75302309D01*
X74070857Y-75254690D01*
X74166095Y-75254690D01*
X74261333Y-75302309D01*
X74308952Y-75349928D01*
X74356571Y-75445166D01*
X74356571Y-75778500D01*
X74880380Y-74016595D02*
X73880380Y-74016595D01*
X74356571Y-74016595D02*
X74356571Y-73445166D01*
X74880380Y-73445166D02*
X73880380Y-73445166D01*
X74356571Y-72968976D02*
X74356571Y-72635642D01*
X74880380Y-72492785D02*
X74880380Y-72968976D01*
X73880380Y-72968976D01*
X73880380Y-72492785D01*
X74594666Y-72111833D02*
X74594666Y-71635642D01*
X74880380Y-72207071D02*
X73880380Y-71873738D01*
X74880380Y-71540404D01*
X74880380Y-71207071D02*
X73880380Y-71207071D01*
X73880380Y-70968976D01*
X73928000Y-70826119D01*
X74023238Y-70730880D01*
X74118476Y-70683261D01*
X74308952Y-70635642D01*
X74451809Y-70635642D01*
X74642285Y-70683261D01*
X74737523Y-70730880D01*
X74832761Y-70826119D01*
X74880380Y-70968976D01*
X74880380Y-71207071D01*
X74356571Y-70207071D02*
X74356571Y-69873738D01*
X74880380Y-69730880D02*
X74880380Y-70207071D01*
X73880380Y-70207071D01*
X73880380Y-69730880D01*
X74880380Y-68730880D02*
X74404190Y-69064214D01*
X74880380Y-69302309D02*
X73880380Y-69302309D01*
X73880380Y-68921357D01*
X73928000Y-68826119D01*
X73975619Y-68778500D01*
X74070857Y-68730880D01*
X74213714Y-68730880D01*
X74308952Y-68778500D01*
X74356571Y-68826119D01*
X74404190Y-68921357D01*
X74404190Y-69302309D01*
D10*
X68129142Y-83108715D02*
X68129142Y-82499191D01*
X68433904Y-82803953D02*
X67824380Y-82803953D01*
X67633904Y-81737286D02*
X67633904Y-82118239D01*
X68014857Y-82156334D01*
X67976761Y-82118239D01*
X67938666Y-82042048D01*
X67938666Y-81851572D01*
X67976761Y-81775381D01*
X68014857Y-81737286D01*
X68091047Y-81699191D01*
X68281523Y-81699191D01*
X68357714Y-81737286D01*
X68395809Y-81775381D01*
X68433904Y-81851572D01*
X68433904Y-82042048D01*
X68395809Y-82118239D01*
X68357714Y-82156334D01*
X67976761Y-87883952D02*
X67976761Y-87122047D01*
X68205333Y-87731571D02*
X68205333Y-87274428D01*
X67633904Y-87503000D02*
X67976761Y-87503000D01*
X68433904Y-87426809D02*
X68433904Y-87579190D01*
X67976761Y-85343952D02*
X67976761Y-84582047D01*
X68205333Y-85191571D02*
X68205333Y-84734428D01*
X67633904Y-84963000D02*
X67976761Y-84963000D01*
X68433904Y-84886809D02*
X68433904Y-85039190D01*
D11*
X44829047Y-68737809D02*
X44829047Y-69690190D01*
X44543333Y-68928285D02*
X44543333Y-69499714D01*
X45257619Y-69214000D02*
X44829047Y-69214000D01*
X44257619Y-69309238D02*
X44257619Y-69118761D01*
X39202619Y-56605428D02*
X39678809Y-56272095D01*
X39202619Y-56034000D02*
X40202619Y-56034000D01*
X40202619Y-56414952D01*
X40155000Y-56510190D01*
X40107380Y-56557809D01*
X40012142Y-56605428D01*
X39869285Y-56605428D01*
X39774047Y-56557809D01*
X39726428Y-56510190D01*
X39678809Y-56414952D01*
X39678809Y-56034000D01*
X39297857Y-58367333D02*
X39250238Y-58319714D01*
X39202619Y-58176857D01*
X39202619Y-58081619D01*
X39250238Y-57938761D01*
X39345476Y-57843523D01*
X39440714Y-57795904D01*
X39631190Y-57748285D01*
X39774047Y-57748285D01*
X39964523Y-57795904D01*
X40059761Y-57843523D01*
X40155000Y-57938761D01*
X40202619Y-58081619D01*
X40202619Y-58176857D01*
X40155000Y-58319714D01*
X40107380Y-58367333D01*
X39202619Y-58795904D02*
X40202619Y-58795904D01*
X39726428Y-58795904D02*
X39726428Y-59367333D01*
X39202619Y-59367333D02*
X40202619Y-59367333D01*
X39488333Y-59795904D02*
X39488333Y-60272095D01*
X39202619Y-59700666D02*
X40202619Y-60034000D01*
X39202619Y-60367333D01*
X39202619Y-60700666D02*
X40202619Y-60700666D01*
X39202619Y-61272095D01*
X40202619Y-61272095D01*
X39202619Y-61748285D02*
X40202619Y-61748285D01*
X39202619Y-62319714D01*
X40202619Y-62319714D01*
X39726428Y-62795904D02*
X39726428Y-63129238D01*
X39202619Y-63272095D02*
X39202619Y-62795904D01*
X40202619Y-62795904D01*
X40202619Y-63272095D01*
X39202619Y-64176857D02*
X39202619Y-63700666D01*
X40202619Y-63700666D01*
X69152800Y-58654495D02*
X69105180Y-58749733D01*
X69105180Y-58892590D01*
X69152800Y-59035447D01*
X69248038Y-59130685D01*
X69343276Y-59178304D01*
X69533752Y-59225923D01*
X69676609Y-59225923D01*
X69867085Y-59178304D01*
X69962323Y-59130685D01*
X70057561Y-59035447D01*
X70105180Y-58892590D01*
X70105180Y-58797352D01*
X70057561Y-58654495D01*
X70009942Y-58606876D01*
X69676609Y-58606876D01*
X69676609Y-58797352D01*
X69724228Y-57705433D02*
X69724228Y-56943528D01*
X70105180Y-57324480D02*
X69343276Y-57324480D01*
X70105180Y-55943528D02*
X70105180Y-56514957D01*
X70105180Y-56229242D02*
X69105180Y-56229242D01*
X69248038Y-56324480D01*
X69343276Y-56419719D01*
X69390895Y-56514957D01*
X69200419Y-55562576D02*
X69152800Y-55514957D01*
X69105180Y-55419719D01*
X69105180Y-55181623D01*
X69152800Y-55086385D01*
X69200419Y-55038766D01*
X69295657Y-54991147D01*
X69390895Y-54991147D01*
X69533752Y-55038766D01*
X70105180Y-55610195D01*
X70105180Y-54991147D01*
X44638571Y-75976857D02*
X44638571Y-76738761D01*
X44257619Y-76357809D02*
X45019523Y-76357809D01*
X45257619Y-77691142D02*
X45257619Y-77214952D01*
X44781428Y-77167333D01*
X44829047Y-77214952D01*
X44876666Y-77310190D01*
X44876666Y-77548285D01*
X44829047Y-77643523D01*
X44781428Y-77691142D01*
X44686190Y-77738761D01*
X44448095Y-77738761D01*
X44352857Y-77691142D01*
X44305238Y-77643523D01*
X44257619Y-77548285D01*
X44257619Y-77310190D01*
X44305238Y-77214952D01*
X44352857Y-77167333D01*
X44638571Y-89148857D02*
X44638571Y-89910761D01*
X44257619Y-89529809D02*
X45019523Y-89529809D01*
X45257619Y-90863142D02*
X45257619Y-90386952D01*
X44781428Y-90339333D01*
X44829047Y-90386952D01*
X44876666Y-90482190D01*
X44876666Y-90720285D01*
X44829047Y-90815523D01*
X44781428Y-90863142D01*
X44686190Y-90910761D01*
X44448095Y-90910761D01*
X44352857Y-90863142D01*
X44305238Y-90815523D01*
X44257619Y-90720285D01*
X44257619Y-90482190D01*
X44305238Y-90386952D01*
X44352857Y-90339333D01*
X44829047Y-55848809D02*
X44829047Y-56801190D01*
X44543333Y-56039285D02*
X44543333Y-56610714D01*
X45257619Y-56325000D02*
X44829047Y-56325000D01*
X44257619Y-56420238D02*
X44257619Y-56229761D01*
X69581371Y-63874171D02*
X69628990Y-63731314D01*
X69676609Y-63683695D01*
X69771847Y-63636076D01*
X69914704Y-63636076D01*
X70009942Y-63683695D01*
X70057561Y-63731314D01*
X70105180Y-63826552D01*
X70105180Y-64207504D01*
X69105180Y-64207504D01*
X69105180Y-63874171D01*
X69152800Y-63778933D01*
X69200419Y-63731314D01*
X69295657Y-63683695D01*
X69390895Y-63683695D01*
X69486133Y-63731314D01*
X69533752Y-63778933D01*
X69581371Y-63874171D01*
X69581371Y-64207504D01*
X44638571Y-63087857D02*
X44638571Y-63849761D01*
X44257619Y-63468809D02*
X45019523Y-63468809D01*
X45257619Y-64802142D02*
X45257619Y-64325952D01*
X44781428Y-64278333D01*
X44829047Y-64325952D01*
X44876666Y-64421190D01*
X44876666Y-64659285D01*
X44829047Y-64754523D01*
X44781428Y-64802142D01*
X44686190Y-64849761D01*
X44448095Y-64849761D01*
X44352857Y-64802142D01*
X44305238Y-64754523D01*
X44257619Y-64659285D01*
X44257619Y-64421190D01*
X44305238Y-64325952D01*
X44352857Y-64278333D01*
D10*
X68129142Y-91109666D02*
X68129142Y-90500142D01*
X68433904Y-90804904D02*
X67824380Y-90804904D01*
X68433904Y-89700142D02*
X68433904Y-90157285D01*
X68433904Y-89928714D02*
X67633904Y-89928714D01*
X67748190Y-90004904D01*
X67824380Y-90081095D01*
X67862476Y-90157285D01*
X67710095Y-89395380D02*
X67672000Y-89357285D01*
X67633904Y-89281095D01*
X67633904Y-89090619D01*
X67672000Y-89014428D01*
X67710095Y-88976333D01*
X67786285Y-88938238D01*
X67862476Y-88938238D01*
X67976761Y-88976333D01*
X68433904Y-89433476D01*
X68433904Y-88938238D01*
D11*
X40155000Y-69638809D02*
X40202619Y-69543571D01*
X40202619Y-69400714D01*
X40155000Y-69257857D01*
X40059761Y-69162619D01*
X39964523Y-69115000D01*
X39774047Y-69067380D01*
X39631190Y-69067380D01*
X39440714Y-69115000D01*
X39345476Y-69162619D01*
X39250238Y-69257857D01*
X39202619Y-69400714D01*
X39202619Y-69495952D01*
X39250238Y-69638809D01*
X39297857Y-69686428D01*
X39631190Y-69686428D01*
X39631190Y-69495952D01*
X39297857Y-71448333D02*
X39250238Y-71400714D01*
X39202619Y-71257857D01*
X39202619Y-71162619D01*
X39250238Y-71019761D01*
X39345476Y-70924523D01*
X39440714Y-70876904D01*
X39631190Y-70829285D01*
X39774047Y-70829285D01*
X39964523Y-70876904D01*
X40059761Y-70924523D01*
X40155000Y-71019761D01*
X40202619Y-71162619D01*
X40202619Y-71257857D01*
X40155000Y-71400714D01*
X40107380Y-71448333D01*
X39202619Y-71876904D02*
X40202619Y-71876904D01*
X39726428Y-71876904D02*
X39726428Y-72448333D01*
X39202619Y-72448333D02*
X40202619Y-72448333D01*
X39488333Y-72876904D02*
X39488333Y-73353095D01*
X39202619Y-72781666D02*
X40202619Y-73115000D01*
X39202619Y-73448333D01*
X39202619Y-73781666D02*
X40202619Y-73781666D01*
X39202619Y-74353095D01*
X40202619Y-74353095D01*
X39202619Y-74829285D02*
X40202619Y-74829285D01*
X39202619Y-75400714D01*
X40202619Y-75400714D01*
X39726428Y-75876904D02*
X39726428Y-76210238D01*
X39202619Y-76353095D02*
X39202619Y-75876904D01*
X40202619Y-75876904D01*
X40202619Y-76353095D01*
X39202619Y-77257857D02*
X39202619Y-76781666D01*
X40202619Y-76781666D01*
D10*
X59983000Y-86172000D02*
X59983000Y-83622000D01*
X61683000Y-86172000D02*
X61683000Y-83622000D01*
X59983000Y-86172000D02*
X61683000Y-86172000D01*
X43500000Y-75655000D02*
X40840000Y-75655000D01*
X43500000Y-75655000D02*
X43500000Y-67975000D01*
X43500000Y-67975000D02*
X40840000Y-67975000D01*
X43500000Y-78255000D02*
X42170000Y-78255000D01*
X40840000Y-75655000D02*
X40840000Y-67975000D01*
X43500000Y-76925000D02*
X43500000Y-78255000D01*
X74491200Y-91817600D02*
X75231200Y-91817600D01*
X74431200Y-91577600D02*
X74431200Y-80837600D01*
X75231200Y-91817600D02*
X75231200Y-91317600D01*
X69131200Y-91577600D02*
X69131200Y-80837600D01*
X68671200Y-91577600D02*
X74991200Y-91577600D01*
X68671200Y-91577600D02*
X68671200Y-80837600D01*
X68671200Y-80837600D02*
X74991200Y-80837600D01*
X74991200Y-91577600D02*
X74991200Y-80837600D01*
X53256000Y-93374300D02*
X53256000Y-93124300D01*
X61056000Y-88974300D02*
X60606000Y-88974300D01*
X55456000Y-88424300D02*
X55906000Y-88424300D01*
X53256000Y-90824300D02*
X53256000Y-88974300D01*
X61056000Y-90824300D02*
X61056000Y-88974300D01*
X61056000Y-93374300D02*
X61056000Y-93124300D01*
X55456000Y-88424300D02*
X55456000Y-88874300D01*
X53256000Y-88974300D02*
X53706000Y-88974300D01*
X70618000Y-69478500D02*
X70618000Y-68148500D01*
X70618000Y-70748500D02*
X70618000Y-78428500D01*
X70618000Y-78428500D02*
X73278000Y-78428500D01*
X73278000Y-70748500D02*
X73278000Y-78428500D01*
X70618000Y-70748500D02*
X73278000Y-70748500D01*
X70618000Y-68148500D02*
X71948000Y-68148500D01*
X40840000Y-62574000D02*
X40840000Y-54894000D01*
X43500000Y-62574000D02*
X43500000Y-54894000D01*
X43500000Y-63844000D02*
X43500000Y-65174000D01*
X43500000Y-62574000D02*
X40840000Y-62574000D01*
X43500000Y-65174000D02*
X42170000Y-65174000D01*
X43500000Y-54894000D02*
X40840000Y-54894000D01*
X59971776Y-66398500D02*
X60481224Y-66398500D01*
X59971776Y-65353500D02*
X60481224Y-65353500D01*
X66800000Y-78720733D02*
X66800000Y-79013267D01*
X67820000Y-78720733D02*
X67820000Y-79013267D01*
X52704724Y-61228500D02*
X52195276Y-61228500D01*
X52704724Y-60183500D02*
X52195276Y-60183500D01*
X70618000Y-57604000D02*
X73278000Y-57604000D01*
X70618000Y-56334000D02*
X70618000Y-55004000D01*
X73278000Y-57604000D02*
X73278000Y-65284000D01*
X70618000Y-55004000D02*
X71948000Y-55004000D01*
X70618000Y-65284000D02*
X73278000Y-65284000D01*
X70618000Y-57604000D02*
X70618000Y-65284000D01*
X64170500Y-41789190D02*
X65980500Y-41789190D01*
X74570500Y-43289190D02*
X74570500Y-41789190D01*
X64170500Y-43289190D02*
X64170500Y-41789190D01*
X65980500Y-41789190D02*
X65980500Y-40689190D01*
X74570500Y-41789190D02*
X72760500Y-41789190D01*
X72760500Y-41789190D02*
X72760500Y-36664190D01*
X52136000Y-83342000D02*
X52136000Y-84672000D01*
X46936000Y-83342000D02*
X46936000Y-86002000D01*
X49536000Y-83342000D02*
X46936000Y-83342000D01*
X50806000Y-83342000D02*
X52136000Y-83342000D01*
X49536000Y-83342000D02*
X49536000Y-86002000D01*
X49536000Y-86002000D02*
X46936000Y-86002000D01*
X59949276Y-64747500D02*
X60458724Y-64747500D01*
X59949276Y-63702500D02*
X60458724Y-63702500D01*
X57291500Y-84926724D02*
X57291500Y-84417276D01*
X56246500Y-84926724D02*
X56246500Y-84417276D01*
X58278500Y-84417276D02*
X58278500Y-84926724D01*
X59323500Y-84417276D02*
X59323500Y-84926724D01*
X51286000Y-63982000D02*
X52086000Y-63982000D01*
X54886000Y-66382000D02*
X53886000Y-66382000D01*
X55086000Y-66382000D02*
X55086000Y-64382000D01*
X53886000Y-63982000D02*
X54886000Y-63982000D01*
X54886000Y-64382000D02*
X54886000Y-66382000D01*
X52086000Y-66382000D02*
X51286000Y-66382000D01*
X53886000Y-63982000D02*
X53886000Y-63582000D01*
X54886000Y-64382000D02*
X54886000Y-63982000D01*
X51286000Y-64382000D02*
X51286000Y-63982000D01*
X51286000Y-66382000D02*
X51286000Y-64382000D01*
X55086000Y-64382000D02*
X55086000Y-63982000D01*
X67948000Y-67294000D02*
X65148000Y-67294000D01*
X65148000Y-67294000D02*
X65148000Y-65294000D01*
X65148000Y-65294000D02*
X67948000Y-65294000D01*
X67948000Y-65294000D02*
X67948000Y-67294000D01*
X64643724Y-83133500D02*
X64134276Y-83133500D01*
X64643724Y-84178500D02*
X64134276Y-84178500D01*
X62378500Y-43289190D02*
X62378500Y-41789190D01*
X51978500Y-43289190D02*
X51978500Y-41789190D01*
X62378500Y-41789190D02*
X60568500Y-41789190D01*
X60568500Y-41789190D02*
X60568500Y-36664190D01*
X51978500Y-41789190D02*
X53788500Y-41789190D01*
X53788500Y-41789190D02*
X53788500Y-40689190D01*
X55752276Y-61228500D02*
X56261724Y-61228500D01*
X55752276Y-60183500D02*
X56261724Y-60183500D01*
D11*
X59003000Y-68855000D02*
X58778000Y-68855000D01*
X51753000Y-68855000D02*
X51753000Y-69180000D01*
X59003000Y-68855000D02*
X59003000Y-69180000D01*
X51753000Y-76105000D02*
X51753000Y-75780000D01*
X59003000Y-76105000D02*
X58678000Y-76105000D01*
X51753000Y-76105000D02*
X52078000Y-76105000D01*
X58778000Y-68855000D02*
X58778000Y-67430000D01*
X59003000Y-76105000D02*
X59003000Y-75780000D01*
X51753000Y-68855000D02*
X52078000Y-68855000D01*
D10*
X55752276Y-62879500D02*
X56261724Y-62879500D01*
X55752276Y-61834500D02*
X56261724Y-61834500D01*
X54481000Y-84818267D02*
X54481000Y-84525733D01*
X55501000Y-84818267D02*
X55501000Y-84525733D01*
X43500000Y-88736000D02*
X40840000Y-88736000D01*
X43500000Y-88736000D02*
X43500000Y-81056000D01*
X43500000Y-81056000D02*
X40840000Y-81056000D01*
X40840000Y-88736000D02*
X40840000Y-81056000D01*
X43500000Y-91336000D02*
X42170000Y-91336000D01*
X43500000Y-90006000D02*
X43500000Y-91336000D01*
X52705724Y-61834500D02*
X52196276Y-61834500D01*
X52705724Y-62879500D02*
X52196276Y-62879500D01*
X54248267Y-78230000D02*
X53955733Y-78230000D01*
X54248267Y-79250000D02*
X53955733Y-79250000D01*
X39786500Y-43289190D02*
X39786500Y-41789190D01*
X50186500Y-43289190D02*
X50186500Y-41789190D01*
X48376500Y-41789190D02*
X48376500Y-36664190D01*
X41596500Y-41789190D02*
X41596500Y-40689190D01*
X50186500Y-41789190D02*
X48376500Y-41789190D01*
X39786500Y-41789190D02*
X41596500Y-41789190D01*
D11*
X67956000Y-68529000D02*
X67956000Y-71649000D01*
X66656000Y-72149000D02*
X66156000Y-71649000D01*
X66156000Y-71649000D02*
X66156000Y-68529000D01*
X67456000Y-68029000D02*
X67956000Y-68529000D01*
X66156000Y-68529000D02*
X66656000Y-68029000D01*
X67956000Y-71649000D02*
X67456000Y-72149000D01*
X67456000Y-72149000D02*
X66656000Y-72149000D01*
X66656000Y-68029000D02*
X67456000Y-68029000D01*
D10*
X62889000Y-84838000D02*
X65439000Y-84838000D01*
X62889000Y-84838000D02*
X62889000Y-86538000D01*
X62889000Y-86538000D02*
X65439000Y-86538000D01*
%LPC*%
D12*
X60833000Y-85722000D03*
X60833000Y-83622000D03*
D13*
X42170000Y-76925000D03*
D14*
X42170000Y-74385000D03*
X42170000Y-71845000D03*
X42170000Y-69305000D03*
D15*
X71831200Y-90017600D03*
D16*
X71831200Y-87477600D03*
X71831200Y-84937600D03*
X71831200Y-82397600D03*
D17*
X55856000Y-89274300D03*
X56506000Y-89274300D03*
X57156000Y-89274300D03*
X57806000Y-89274300D03*
X58456000Y-89274300D03*
D18*
X59656000Y-89274300D03*
D19*
X56156000Y-91974300D03*
D18*
X54656000Y-89274300D03*
D20*
X60656000Y-91974300D03*
D21*
X60056000Y-91974300D03*
D19*
X58156000Y-91974300D03*
D21*
X54256000Y-91974300D03*
D20*
X53656000Y-91974300D03*
D13*
X71948000Y-69478500D03*
D14*
X71948000Y-72018500D03*
X71948000Y-74558500D03*
X71948000Y-77098500D03*
D13*
X42170000Y-63844000D03*
D14*
X42170000Y-61304000D03*
X42170000Y-58764000D03*
X42170000Y-56224000D03*
D22*
X59314000Y-65876000D03*
X61139000Y-65876000D03*
D23*
X65198000Y-89935000D03*
D24*
X67310000Y-78004500D03*
X67310000Y-79729500D03*
D23*
X49114000Y-89935000D03*
D25*
X53362500Y-60706000D03*
X51537500Y-60706000D03*
D13*
X71948000Y-56334000D03*
D14*
X71948000Y-58874000D03*
X71948000Y-61414000D03*
X71948000Y-63954000D03*
D26*
X71910500Y-38964190D03*
D27*
X69370500Y-48114190D03*
D26*
X66830500Y-38964190D03*
D13*
X50806000Y-84672000D03*
D14*
X48266000Y-84672000D03*
D22*
X59291500Y-64225000D03*
X61116500Y-64225000D03*
D28*
X56769000Y-85584500D03*
X56769000Y-83759500D03*
D29*
X58801000Y-83759500D03*
X58801000Y-85584500D03*
D30*
X54286000Y-65182000D03*
X53086000Y-65182000D03*
X51886000Y-65182000D03*
D31*
X65823000Y-66294000D03*
D32*
X67273000Y-66294000D03*
D25*
X65301500Y-83656000D03*
X63476500Y-83656000D03*
D26*
X59718500Y-38964190D03*
D27*
X57178500Y-48114190D03*
D26*
X54638500Y-38964190D03*
D22*
X55094500Y-60706000D03*
X56919500Y-60706000D03*
D33*
X58178000Y-68230000D03*
X57378000Y-68230000D03*
X56578000Y-68230000D03*
X55778000Y-68230000D03*
X54978000Y-68230000D03*
X54178000Y-68230000D03*
X53378000Y-68230000D03*
X52578000Y-68230000D03*
D34*
X51128000Y-69680000D03*
X51128000Y-70480000D03*
X51128000Y-71280000D03*
X51128000Y-72080000D03*
X51128000Y-72880000D03*
X51128000Y-73680000D03*
X51128000Y-74480000D03*
X51128000Y-75280000D03*
D33*
X52578000Y-76730000D03*
X53378000Y-76730000D03*
X54178000Y-76730000D03*
X54978000Y-76730000D03*
X55778000Y-76730000D03*
X56578000Y-76730000D03*
X57378000Y-76730000D03*
X58178000Y-76730000D03*
D34*
X59628000Y-75280000D03*
X59628000Y-74480000D03*
X59628000Y-73680000D03*
X59628000Y-72880000D03*
X59628000Y-72080000D03*
X59628000Y-71280000D03*
X59628000Y-70480000D03*
X59628000Y-69680000D03*
D22*
X55094500Y-62357000D03*
X56919500Y-62357000D03*
D23*
X49114000Y-56935100D03*
D35*
X54991000Y-85534500D03*
X54991000Y-83809500D03*
D13*
X42170000Y-90006000D03*
D14*
X42170000Y-87466000D03*
X42170000Y-84926000D03*
X42170000Y-82386000D03*
D25*
X53363500Y-62357000D03*
X51538500Y-62357000D03*
D36*
X54964500Y-78740000D03*
X53239500Y-78740000D03*
D23*
X65198000Y-56935100D03*
D26*
X47526500Y-38964190D03*
D27*
X44986500Y-48114190D03*
D26*
X42446500Y-38964190D03*
D37*
X67056000Y-69079000D03*
X67056000Y-71119000D03*
D38*
X63339000Y-85688000D03*
X65439000Y-85688000D03*
M02*
